<svg version="1.1" xmlns="http://www.w3.org/2000/svg" xmlns:xlink="http://www.w3.org/1999/xlink" width="1140" height="673"><defs><clipPath id="PEduoAhrHwIK"><path fill="none" stroke="none" d=" M 0 0 L 1140 0 L 1140 673 L 0 673 L 0 0 Z"/></clipPath></defs><g transform="scale(1,1)" clip-path="url(#PEduoAhrHwIK)"><g><rect fill="rgb(255,255,255)" stroke="none" x="0" y="0" width="1140" height="674" fill-opacity="1"/><path fill="rgb(0,0,0)" stroke="none" paint-order="stroke fill markers" d=" M 477.6103998206364 233.7397590212478 C 467.3161081143645 238.5593592291842 460.6297620785992 248.7829648031718 460.3404757731648 260.1459442245932 C 460.0511894677305 271.50892364601464 466.2086521368043 282.0595154645539 476.2443658876216 287.39669050476135 L 490.33075834100225 260.909456831738 Z" fill-opacity="0.09803921568627451"/><path fill="none" stroke="rgb(0,0,0)" paint-order="fill stroke markers" d=" M 477.6103998206364 233.7397590212478 C 467.3161081143645 238.5593592291842 460.6297620785992 248.7829648031718 460.3404757731648 260.1459442245932 C 460.0511894677305 271.50892364601464 466.2086521368043 282.0595154645539 476.2443658876216 287.39669050476135 L 490.33075834100225 260.909456831738 Z" stroke-opacity="0.6" stroke-linecap="round" stroke-linejoin="round" stroke-miterlimit="10" stroke-width="2"/><path fill="rgb(0,0,0)" stroke="none" paint-order="stroke fill markers" d=" M 503.0511168613681 288.0791546422282 C 513.34540856764 283.2595544342918 520.0317546034053 273.0359488603042 520.3210409088397 261.6729694388828 C 520.610327214274 250.30999001746136 514.4528645452002 239.75939819892207 504.41715079438285 234.42222315871464 L 490.33075834100225 260.909456831738 Z" fill-opacity="0.09803921568627451"/><path fill="none" stroke="rgb(0,0,0)" paint-order="fill stroke markers" d=" M 503.0511168613681 288.0791546422282 C 513.34540856764 283.2595544342918 520.0317546034053 273.0359488603042 520.3210409088397 261.6729694388828 C 520.610327214274 250.30999001746136 514.4528645452002 239.75939819892207 504.41715079438285 234.42222315871464 L 490.33075834100225 260.909456831738 Z" stroke-opacity="0.6" stroke-linecap="round" stroke-linejoin="round" stroke-miterlimit="10" stroke-width="2"/><path fill="rgb(0,0,0)" stroke="none" paint-order="stroke fill markers" d=" M 392.74093262053935 393.3233725598918 C 382.4544261480418 398.13932786292474 375.76972455117595 408.3515501057191 375.47162538886715 419.7057025522461 C 375.17352622655835 431.0598549987731 381.3131515413532 441.6087753022589 391.3327785476343 446.9578607890077 L 405.4612911409052 420.493070370382 Z" fill-opacity="0.09803921568627451"/><path fill="none" stroke="rgb(0,0,0)" paint-order="fill stroke markers" d=" M 392.74093262053935 393.3233725598918 C 382.4544261480418 398.13932786292474 375.76972455117595 408.3515501057191 375.47162538886715 419.7057025522461 C 375.17352622655835 431.0598549987731 381.3131515413532 441.6087753022589 391.3327785476343 446.9578607890077 L 405.4612911409052 420.493070370382 Z" stroke-opacity="0.6" stroke-linecap="round" stroke-linejoin="round" stroke-miterlimit="10" stroke-width="2"/><path fill="rgb(0,0,0)" stroke="none" paint-order="stroke fill markers" d=" M 418.0892097074628 447.7058554662958 C 428.41649264573743 442.91354598754594 435.1411329594905 432.68839704296647 435.45023255709305 421.30755961920653 C 435.7593321546957 409.9267221954466 429.5996189411967 399.3516386773067 419.54768359428584 394.00583669735863 L 405.4612911409052 420.493070370382 Z" fill-opacity="0.09803921568627451"/><path fill="none" stroke="rgb(0,0,0)" paint-order="fill stroke markers" d=" M 418.0892097074628 447.7058554662958 C 428.41649264573743 442.91354598754594 435.1411329594905 432.68839704296647 435.45023255709305 421.30755961920653 C 435.7593321546957 409.9267221954466 429.5996189411967 399.3516386773067 419.54768359428584 394.00583669735863 L 405.4612911409052 420.493070370382 Z" stroke-opacity="0.6" stroke-linecap="round" stroke-linejoin="round" stroke-miterlimit="10" stroke-width="2"/><path fill="rgb(0,0,0)" stroke="none" paint-order="stroke fill markers" d=" M 577.4122629505707 447.8252574287971 C 587.8319222918451 443.1105355567374 594.6645025632623 432.8816669142291 595.0296131792845 421.4508052950355 C 595.3947237953066 410.0199436758419 589.2288407790268 399.3758940000557 579.1312971329298 394.00583669735863 L 565.0449046795492 420.493070370382 Z" fill-opacity="0.09803921568627451"/><path fill="none" stroke="rgb(0,0,0)" paint-order="fill stroke markers" d=" M 577.4122629505707 447.8252574287971 C 587.8319222918451 443.1105355567374 594.6645025632623 432.8816669142291 595.0296131792845 421.4508052950355 C 595.3947237953066 410.0199436758419 589.2288407790268 399.3758940000557 579.1312971329298 394.00583669735863 L 565.0449046795492 420.493070370382 Z" stroke-opacity="0.6" stroke-linecap="round" stroke-linejoin="round" stroke-miterlimit="10" stroke-width="2"/><path fill="rgb(0,0,0)" stroke="none" paint-order="stroke fill markers" d=" M 552.3245461591833 393.3233725598918 C 542.0302544529114 398.14297276782816 535.3439084171462 408.3665783418158 535.0546221117118 419.7295577632372 C 534.7653358062774 431.0925371846586 540.9227984753512 441.64312900319794 550.9585122261685 446.98030404340534 L 565.0449046795492 420.493070370382 Z" fill-opacity="0.09803921568627451"/><path fill="none" stroke="rgb(0,0,0)" paint-order="fill stroke markers" d=" M 552.3245461591833 393.3233725598918 C 542.0302544529114 398.14297276782816 535.3439084171462 408.3665783418158 535.0546221117118 419.7295577632372 C 534.7653358062774 431.0925371846586 540.9227984753512 441.64312900319794 550.9585122261685 446.98030404340534 L 565.0449046795492 420.493070370382 Z" stroke-opacity="0.6" stroke-linecap="round" stroke-linejoin="round" stroke-miterlimit="10" stroke-width="2"/><path fill="none" stroke="rgb(97,97,97)" paint-order="fill stroke markers" d=" M 96.44938492516735 101.32584329309407 L 415.6166120024553 101.32584329309407" stroke-opacity="0.8" stroke-linecap="round" stroke-linejoin="round" stroke-miterlimit="10" stroke-width="2.5"/><path fill="none" stroke="rgb(97,97,97)" paint-order="fill stroke markers" d=" M 96.44938492516735 101.32584329309407 L 1053.9510661570312 101.32584329309407" stroke-opacity="0.8" stroke-linecap="round" stroke-linejoin="round" stroke-miterlimit="10" stroke-width="2.5"/><path fill="none" stroke="rgb(97,97,97)" paint-order="fill stroke markers" d=" M 189.29803280219653 526.8821460628113 L -5 526.8821460628113" stroke-opacity="0.8" stroke-linecap="round" stroke-linejoin="round" stroke-miterlimit="10" stroke-width="2.5"/><path fill="none" stroke="rgb(97,97,97)" paint-order="fill stroke markers" d=" M 508.46525987948445 526.8821460628113 L -5 526.8821460628113" stroke-opacity="0.8" stroke-linecap="round" stroke-linejoin="round" stroke-miterlimit="10" stroke-width="2.5"/><path fill="none" stroke="rgb(97,97,97)" paint-order="fill stroke markers" d=" M 827.6324869567724 526.8821460628113 L -5 526.8821460628113" stroke-opacity="0.8" stroke-linecap="round" stroke-linejoin="round" stroke-miterlimit="10" stroke-width="2.5"/><path fill="none" stroke="rgb(255,0,0)" paint-order="fill stroke markers" d=" M 415.6166120024553 101.32584329309407 L 189.29803280219653 526.8821460628113" stroke-opacity="0.8" stroke-linecap="round" stroke-linejoin="round" stroke-miterlimit="10" stroke-width="2.5"/><path fill="none" stroke="rgb(97,97,97)" paint-order="fill stroke markers" d=" M 508.46525987948445 526.8821460628113 L 734.7838390797432 101.32584329309407" stroke-opacity="0.8" stroke-linecap="round" stroke-linejoin="round" stroke-miterlimit="10" stroke-width="2.5"/><path fill="none" stroke="rgb(97,97,97)" paint-order="fill stroke markers" d=" M 827.6324869567724 526.8821460628113 L 1053.9510661570312 101.32584329309407" stroke-opacity="0.8" stroke-linecap="round" stroke-linejoin="round" stroke-miterlimit="10" stroke-width="2.5"/><path fill="none" stroke="rgb(97,97,97)" paint-order="fill stroke markers" d=" M 295.6871084946259 526.8821460628113 L -5 526.8821460628113" stroke-opacity="0.8" stroke-linecap="round" stroke-linejoin="round" stroke-miterlimit="10" stroke-width="2.5"/><path fill="none" stroke="rgb(97,97,97)" paint-order="fill stroke markers" d=" M 614.8543355719138 526.8821460628113 L -5 526.8821460628113" stroke-opacity="0.8" stroke-linecap="round" stroke-linejoin="round" stroke-miterlimit="10" stroke-width="2.5"/><path fill="none" stroke="rgb(97,97,97)" paint-order="fill stroke markers" d=" M 934.0215626492017 526.8821460628113 L -5 526.8821460628113" stroke-opacity="0.8" stroke-linecap="round" stroke-linejoin="round" stroke-miterlimit="10" stroke-width="2.5"/><path fill="none" stroke="rgb(97,97,97)" paint-order="fill stroke markers" d=" M 96.44938492516735 101.32584329309407 L 295.6871084946259 526.8821460628113" stroke-opacity="0.8" stroke-linecap="round" stroke-linejoin="round" stroke-miterlimit="10" stroke-width="2.5"/><path fill="none" stroke="rgb(255,0,0)" paint-order="fill stroke markers" d=" M 415.6166120024553 101.32584329309407 L 614.8543355719138 526.8821460628113" stroke-opacity="0.8" stroke-linecap="round" stroke-linejoin="round" stroke-miterlimit="10" stroke-width="2.5"/><path fill="none" stroke="rgb(97,97,97)" paint-order="fill stroke markers" d=" M 734.7838390797432 101.32584329309407 L 934.0215626492017 526.8821460628113" stroke-opacity="0.8" stroke-linecap="round" stroke-linejoin="round" stroke-miterlimit="10" stroke-width="2.5"/><path fill="none" stroke="rgb(97,97,97)" paint-order="fill stroke markers" d=" M 256.03299846381134 101.32584329309407 L -5 101.32584329309407" stroke-opacity="0.8" stroke-linecap="round" stroke-linejoin="round" stroke-miterlimit="10" stroke-width="2.5"/><path fill="none" stroke="rgb(97,97,97)" paint-order="fill stroke markers" d=" M 575.2002255410993 101.32584329309407 L -5 101.32584329309407" stroke-opacity="0.8" stroke-linecap="round" stroke-linejoin="round" stroke-miterlimit="10" stroke-width="2.5"/><path fill="none" stroke="rgb(97,97,97)" paint-order="fill stroke markers" d=" M 894.3674526183872 101.32584329309407 L -5 101.32584329309407" stroke-opacity="0.8" stroke-linecap="round" stroke-linejoin="round" stroke-miterlimit="10" stroke-width="2.5"/><path fill="none" stroke="rgb(97,97,97)" paint-order="fill stroke markers" d=" M 136.1034949559819 526.8821460628113 L -5 526.8821460628113" stroke-opacity="0.8" stroke-linecap="round" stroke-linejoin="round" stroke-miterlimit="10" stroke-width="2.5"/><path fill="none" stroke="rgb(97,97,97)" paint-order="fill stroke markers" d=" M 136.1034949559819 526.8821460628113 L 455.2707220332698 526.8821460628113" stroke-opacity="0.8" stroke-linecap="round" stroke-linejoin="round" stroke-miterlimit="10" stroke-width="2.5"/><path fill="none" stroke="rgb(97,97,97)" paint-order="fill stroke markers" d=" M 136.1034949559819 526.8821460628113 L 774.4379491105577 526.8821460628113" stroke-opacity="0.8" stroke-linecap="round" stroke-linejoin="round" stroke-miterlimit="10" stroke-width="2.5"/><path fill="none" stroke="rgb(97,97,97)" paint-order="fill stroke markers" d=" M 136.1034949559819 526.8821460628113 L 1093.6051761878457 526.8821460628113" stroke-opacity="0.8" stroke-linecap="round" stroke-linejoin="round" stroke-miterlimit="10" stroke-width="2.5"/><path fill="none" stroke="rgb(97,97,97)" paint-order="fill stroke markers" d=" M 256.03299846381134 101.32584329309407 L 455.2707220332698 526.8821460628113" stroke-opacity="0.8" stroke-linecap="round" stroke-linejoin="round" stroke-miterlimit="10" stroke-width="2.5"/><path fill="none" stroke="rgb(255,0,0)" paint-order="fill stroke markers" d=" M 575.2002255410993 101.32584329309407 L 774.4379491105577 526.8821460628113" stroke-opacity="0.8" stroke-linecap="round" stroke-linejoin="round" stroke-miterlimit="10" stroke-width="2.5"/><path fill="none" stroke="rgb(97,97,97)" paint-order="fill stroke markers" d=" M 894.3674526183872 101.32584329309407 L 1093.6051761878457 526.8821460628113" stroke-opacity="0.8" stroke-linecap="round" stroke-linejoin="round" stroke-miterlimit="10" stroke-width="2.5"/><path fill="none" stroke="rgb(97,97,97)" paint-order="fill stroke markers" d=" M 29.7144192635526 526.8821460628113 L -5 526.8821460628113" stroke-opacity="0.8" stroke-linecap="round" stroke-linejoin="round" stroke-miterlimit="10" stroke-width="2.5"/><path fill="none" stroke="rgb(97,97,97)" paint-order="fill stroke markers" d=" M 29.7144192635526 526.8821460628113 L 348.8816463408405 526.8821460628113" stroke-opacity="0.8" stroke-linecap="round" stroke-linejoin="round" stroke-miterlimit="10" stroke-width="2.5"/><path fill="none" stroke="rgb(97,97,97)" paint-order="fill stroke markers" d=" M 29.7144192635526 526.8821460628113 L 668.0488734181284 526.8821460628113" stroke-opacity="0.8" stroke-linecap="round" stroke-linejoin="round" stroke-miterlimit="10" stroke-width="2.5"/><path fill="none" stroke="rgb(97,97,97)" paint-order="fill stroke markers" d=" M 29.7144192635526 526.8821460628113 L 987.2161004954163 526.8821460628113" stroke-opacity="0.8" stroke-linecap="round" stroke-linejoin="round" stroke-miterlimit="10" stroke-width="2.5"/><path fill="none" stroke="rgb(97,97,97)" paint-order="fill stroke markers" d=" M 29.7144192635526 526.8821460628113 L 256.03299846381134 101.32584329309407" stroke-opacity="0.8" stroke-linecap="round" stroke-linejoin="round" stroke-miterlimit="10" stroke-width="2.5"/><path fill="none" stroke="rgb(255,0,0)" paint-order="fill stroke markers" d=" M 575.2002255410993 101.32584329309407 L 348.8816463408405 526.8821460628113" stroke-opacity="0.8" stroke-linecap="round" stroke-linejoin="round" stroke-miterlimit="10" stroke-width="2.5"/><path fill="none" stroke="rgb(97,97,97)" paint-order="fill stroke markers" d=" M 668.0488734181284 526.8821460628113 L 894.3674526183872 101.32584329309407" stroke-opacity="0.2" stroke-linecap="round" stroke-linejoin="round" stroke-miterlimit="10" stroke-width="7"/><path fill="none" stroke="rgb(97,97,97)" paint-order="fill stroke markers" d=" M 668.0488734181284 526.8821460628113 L 894.3674526183872 101.32584329309407" stroke-opacity="0.8" stroke-linecap="round" stroke-linejoin="round" stroke-miterlimit="10" stroke-width="2.5"/><path fill="none" stroke="rgb(97,97,97)" paint-order="fill stroke markers" d=" M 451.4501635602295 352.7588044653282 L 434.24984720748955 334.5467047977212" stroke-opacity="0.8" stroke-linecap="round" stroke-linejoin="round" stroke-miterlimit="10" stroke-width="2.5"/><path fill="none" stroke="rgb(97,97,97)" paint-order="fill stroke markers" d=" M 376.5781982600672 488.3377686575136 L 360.3896652221943 475.1845855642419" stroke-opacity="0.8" stroke-linecap="round" stroke-linejoin="round" stroke-miterlimit="10" stroke-width="2.5"/><path fill="none" stroke="rgb(97,97,97)" paint-order="fill stroke markers" d=" M 529.357478804993 203.014873865004 L 514.1807290819871 186.8263408271311" stroke-opacity="0.8" stroke-linecap="round" stroke-linejoin="round" stroke-miterlimit="10" stroke-width="2.5"/><path fill="none" stroke="rgb(97,97,97)" paint-order="fill stroke markers" d=" M 622.4415437727623 334.5467047977212 L 604.2294441051553 316.3346051301142" stroke-opacity="0.8" stroke-linecap="round" stroke-linejoin="round" stroke-miterlimit="10" stroke-width="2.5"/><path fill="none" stroke="rgb(97,97,97)" paint-order="fill stroke markers" d=" M 699.3370757026587 486.3142020277795 L 679.1014094053176 474.17280224937485" stroke-opacity="0.8" stroke-linecap="round" stroke-linejoin="round" stroke-miterlimit="10" stroke-width="2.5"/><path fill="none" stroke="rgb(97,97,97)" paint-order="fill stroke markers" d=" M 353.3343506846047 336.6378149612242 L 370.8716998603561 328.11967393300216" stroke-opacity="0.8" stroke-linecap="round" stroke-linejoin="round" stroke-miterlimit="10" stroke-width="2.5"/><path fill="none" stroke="rgb(97,97,97)" paint-order="fill stroke markers" d=" M 358.3468691846505 340.14651633435705 L 373.3788827638659 333.63264378336373" stroke-opacity="0.8" stroke-linecap="round" stroke-linejoin="round" stroke-miterlimit="10" stroke-width="2.5"/><path fill="none" stroke="rgb(97,97,97)" paint-order="fill stroke markers" d=" M 443.52643215989735 190.3262161235276 L 459.5605799777271 180.8059408566912" stroke-opacity="0.8" stroke-linecap="round" stroke-linejoin="round" stroke-miterlimit="10" stroke-width="2.5"/><path fill="none" stroke="rgb(97,97,97)" paint-order="fill stroke markers" d=" M 449.29209076138204 193.5853075904938 L 463.3219701019831 188.574636397422" stroke-opacity="0.8" stroke-linecap="round" stroke-linejoin="round" stroke-miterlimit="10" stroke-width="2.5"/><path fill="none" stroke="rgb(97,97,97)" paint-order="fill stroke markers" d=" M 678.7168826872175 340.9101072803038 L 691.2823945273423 331.86293875541395" stroke-opacity="0.8" stroke-linecap="round" stroke-linejoin="round" stroke-miterlimit="10" stroke-width="2.5"/><path fill="none" stroke="rgb(97,97,97)" paint-order="fill stroke markers" d=" M 681.9971053453618 346.2113634966375 L 697.0757195535116 338.67205639256264" stroke-opacity="0.8" stroke-linecap="round" stroke-linejoin="round" stroke-miterlimit="10" stroke-width="2.5"/><path fill="none" stroke="rgb(97,97,97)" paint-order="fill stroke markers" d=" M 516.8840417673426 336.7219994503898 L 531.2910846400979 324.3159347544061" stroke-opacity="0.8" stroke-linecap="round" stroke-linejoin="round" stroke-miterlimit="10" stroke-width="2.5"/><path fill="none" stroke="rgb(97,97,97)" paint-order="fill stroke markers" d=" M 520.8859981208857 345.9264990635389 L 531.2910846400979 335.52141254432684" stroke-opacity="0.8" stroke-linecap="round" stroke-linejoin="round" stroke-miterlimit="10" stroke-width="2.5"/><path fill="rgb(97,97,97)" stroke="none" paint-order="stroke fill markers" d=" M 419.6166120024554 101.32584329309407 C 419.6166120024554 103.53498229241724 417.82575100177854 105.32584329309407 415.6166120024554 105.32584329309407 C 413.4074730031322 105.32584329309407 411.6166120024554 103.53498229241724 411.6166120024554 101.32584329309407 C 411.6166120024554 99.1167042937709 413.4074730031322 97.32584329309407 415.6166120024554 97.32584329309407 C 417.82575100177854 97.32584329309407 419.6166120024554 99.1167042937709 419.6166120024554 101.32584329309407 Z" fill-opacity="1"/><path fill="none" stroke="rgb(0,0,0)" paint-order="fill stroke markers" d=" M 419.6166120024554 101.32584329309407 C 419.6166120024554 103.53498229241724 417.82575100177854 105.32584329309407 415.6166120024554 105.32584329309407 C 413.4074730031322 105.32584329309407 411.6166120024554 103.53498229241724 411.6166120024554 101.32584329309407 C 411.6166120024554 99.1167042937709 413.4074730031322 97.32584329309407 415.6166120024554 97.32584329309407 C 417.82575100177854 97.32584329309407 419.6166120024554 99.1167042937709 419.6166120024554 101.32584329309407 Z" stroke-opacity="1" stroke-linecap="round" stroke-linejoin="round" stroke-miterlimit="10"/><path fill="rgb(97,97,97)" stroke="none" paint-order="stroke fill markers" d=" M 579.2002255410993 101.32584329309407 C 579.2002255410993 103.53498229241724 577.4093645404224 105.32584329309407 575.2002255410993 105.32584329309407 C 572.9910865417761 105.32584329309407 571.2002255410993 103.53498229241724 571.2002255410993 101.32584329309407 C 571.2002255410993 99.1167042937709 572.9910865417761 97.32584329309407 575.2002255410993 97.32584329309407 C 577.4093645404224 97.32584329309407 579.2002255410993 99.1167042937709 579.2002255410993 101.32584329309407 Z" fill-opacity="1"/><path fill="none" stroke="rgb(0,0,0)" paint-order="fill stroke markers" d=" M 579.2002255410993 101.32584329309407 C 579.2002255410993 103.53498229241724 577.4093645404224 105.32584329309407 575.2002255410993 105.32584329309407 C 572.9910865417761 105.32584329309407 571.2002255410993 103.53498229241724 571.2002255410993 101.32584329309407 C 571.2002255410993 99.1167042937709 572.9910865417761 97.32584329309407 575.2002255410993 97.32584329309407 C 577.4093645404224 97.32584329309407 579.2002255410993 99.1167042937709 579.2002255410993 101.32584329309407 Z" stroke-opacity="1" stroke-linecap="round" stroke-linejoin="round" stroke-miterlimit="10"/></g></g></svg>