<svg version="1.1" xmlns="http://www.w3.org/2000/svg" xmlns:xlink="http://www.w3.org/1999/xlink" width="1140" height="673"><defs><clipPath id="KMxhmqkWNMfx"><path fill="none" stroke="none" d=" M 0 0 L 1140 0 L 1140 673 L 0 673 L 0 0 Z"/></clipPath></defs><g transform="scale(1,1)" clip-path="url(#KMxhmqkWNMfx)"><g><rect fill="rgb(255,255,255)" stroke="none" x="0" y="0" width="1140" height="674" fill-opacity="1"/><path fill="rgb(21,101,192)" stroke="none" paint-order="stroke fill markers" fill-rule="evenodd" d=" M 226.3825831568882 163.35152653507262 L 292.4641349634588 223.55916262550363 L 370.14532212088903 179.3170549160542 L 352.07338426405215 91.76629252724968 L 263.2231252685208 81.89905333945197 Z" fill-opacity="0.09803921568627451"/><path fill="none" stroke="rgb(21,101,192)" paint-order="fill stroke markers" d=" M 226.3825831568882 163.35152653507262 L 292.4641349634588 223.55916262550363 L 370.14532212088903 179.3170549160542 L 352.07338426405215 91.76629252724968 L 263.2231252685208 81.89905333945197 Z" stroke-opacity="0.8" stroke-linecap="round" stroke-linejoin="round" stroke-miterlimit="10" stroke-width="2.5"/><path fill="none" stroke="rgb(21,101,192)" paint-order="fill stroke markers" d=" M 226.3825831568882 163.35152653507262 L 292.4641349634588 223.55916262550363" stroke-opacity="0.8" stroke-linecap="round" stroke-linejoin="round" stroke-miterlimit="10" stroke-width="2.5"/><path fill="none" stroke="rgb(21,101,192)" paint-order="fill stroke markers" d=" M 292.4641349634588 223.55916262550363 L 370.14532212088903 179.3170549160542" stroke-opacity="0.8" stroke-linecap="round" stroke-linejoin="round" stroke-miterlimit="10" stroke-width="2.5"/><path fill="none" stroke="rgb(21,101,192)" paint-order="fill stroke markers" d=" M 370.14532212088903 179.3170549160542 L 352.07338426405215 91.76629252724968" stroke-opacity="0.8" stroke-linecap="round" stroke-linejoin="round" stroke-miterlimit="10" stroke-width="2.5"/><path fill="none" stroke="rgb(21,101,192)" paint-order="fill stroke markers" d=" M 352.07338426405215 91.76629252724968 L 263.2231252685208 81.89905333945197" stroke-opacity="0.8" stroke-linecap="round" stroke-linejoin="round" stroke-miterlimit="10" stroke-width="2.5"/><path fill="none" stroke="rgb(21,101,192)" paint-order="fill stroke markers" d=" M 263.2231252685208 81.89905333945197 L 226.3825831568882 163.35152653507262" stroke-opacity="0.8" stroke-linecap="round" stroke-linejoin="round" stroke-miterlimit="10" stroke-width="2.5"/><path fill="none" stroke="rgb(97,97,97)" paint-order="fill stroke markers" d=" M 226.3825831568882 163.35152653507262 L 300.8577099547618 147.97861798866646" stroke-opacity="0.8" stroke-linecap="round" stroke-linejoin="round" stroke-miterlimit="10" stroke-width="2.5"/><path fill="none" stroke="rgb(97,97,97)" paint-order="fill stroke markers" d=" M 263.2231252685208 81.89905333945197 L 300.8577099547618 147.97861798866646" stroke-opacity="0.8" stroke-linecap="round" stroke-linejoin="round" stroke-miterlimit="10" stroke-width="2.5"/><path fill="none" stroke="rgb(97,97,97)" paint-order="fill stroke markers" d=" M 352.07338426405215 91.76629252724968 L 300.8577099547618 147.97861798866646" stroke-opacity="0.8" stroke-linecap="round" stroke-linejoin="round" stroke-miterlimit="10" stroke-width="2.5"/><path fill="none" stroke="rgb(97,97,97)" paint-order="fill stroke markers" d=" M 370.14532212088903 179.3170549160542 L 300.8577099547618 147.97861798866646" stroke-opacity="0.8" stroke-linecap="round" stroke-linejoin="round" stroke-miterlimit="10" stroke-width="2.5"/><path fill="none" stroke="rgb(97,97,97)" paint-order="fill stroke markers" d=" M 292.4641349634588 223.55916262550363 L 300.8577099547618 147.97861798866646" stroke-opacity="0.8" stroke-linecap="round" stroke-linejoin="round" stroke-miterlimit="10" stroke-width="2.5"/><path fill="none" stroke="rgb(97,97,97)" paint-order="fill stroke markers" d=" M 506.45077973211755 195.70000000000005 L 771.1360213346138 195.70000000000005" stroke-opacity="0.8" stroke-linecap="round" stroke-linejoin="round" stroke-miterlimit="10" stroke-width="2.5"/><path fill="none" stroke="rgb(97,97,97)" paint-order="fill stroke markers" d=" M 506.45077973211755 195.70000000000005 L 682.907607467115 195.70000000000005" stroke-opacity="0.8" stroke-linecap="round" stroke-linejoin="round" stroke-miterlimit="10" stroke-width="2.5"/><path fill="none" stroke="rgb(97,97,97)" paint-order="fill stroke markers" d=" M 506.45077973211755 195.70000000000005 L 594.6791935996163 195.70000000000005" stroke-opacity="0.8" stroke-linecap="round" stroke-linejoin="round" stroke-miterlimit="10" stroke-width="2.5"/><path fill="none" stroke="rgb(97,97,97)" paint-order="fill stroke markers" d=" M 506.45077973211755 195.70000000000005 L 550.5649866658669 135.47311512579344" stroke-opacity="0.8" stroke-linecap="round" stroke-linejoin="round" stroke-miterlimit="10" stroke-width="2.5"/><path fill="none" stroke="rgb(97,97,97)" paint-order="fill stroke markers" d=" M 550.5649866658669 135.47311512579344 L 594.6791935996163 195.70000000000005" stroke-opacity="0.8" stroke-linecap="round" stroke-linejoin="round" stroke-miterlimit="10" stroke-width="2.5"/><path fill="none" stroke="rgb(97,97,97)" paint-order="fill stroke markers" d=" M 550.5649866658669 135.47311512579344 L 727.0218144008643 135.47311512579344" stroke-opacity="0.8" stroke-linecap="round" stroke-linejoin="round" stroke-miterlimit="10" stroke-width="2.5"/><path fill="none" stroke="rgb(97,97,97)" paint-order="fill stroke markers" d=" M 550.5649866658669 135.47311512579344 L 638.7934005333656 135.47311512579344" stroke-opacity="0.8" stroke-linecap="round" stroke-linejoin="round" stroke-miterlimit="10" stroke-width="2.5"/><path fill="none" stroke="rgb(97,97,97)" paint-order="fill stroke markers" d=" M 594.6791935996163 195.70000000000005 L 638.7934005333656 135.47311512579344" stroke-opacity="0.8" stroke-linecap="round" stroke-linejoin="round" stroke-miterlimit="10" stroke-width="2.5"/><path fill="none" stroke="rgb(97,97,97)" paint-order="fill stroke markers" d=" M 638.7934005333656 135.47311512579344 L 682.907607467115 195.70000000000005" stroke-opacity="0.8" stroke-linecap="round" stroke-linejoin="round" stroke-miterlimit="10" stroke-width="2.5"/><path fill="none" stroke="rgb(97,97,97)" paint-order="fill stroke markers" d=" M 682.907607467115 195.70000000000005 L 727.0218144008643 135.47311512579344" stroke-opacity="0.8" stroke-linecap="round" stroke-linejoin="round" stroke-miterlimit="10" stroke-width="2.5"/><path fill="none" stroke="rgb(97,97,97)" paint-order="fill stroke markers" d=" M 771.1360213346138 195.70000000000005 L 727.0218144008643 135.47311512579344" stroke-opacity="0.8" stroke-linecap="round" stroke-linejoin="round" stroke-miterlimit="10" stroke-width="2.5"/><path fill="none" stroke="rgb(255,0,0)" paint-order="fill stroke markers" d=" M 506.45077973211755 195.70000000000005 L 727.0218144008643 135.47311512579344" stroke-opacity="0.8" stroke-linecap="round" stroke-linejoin="round" stroke-miterlimit="10" stroke-width="2.5"/><path fill="none" stroke="rgb(97,97,97)" paint-order="fill stroke markers" d=" M 397.3999999999998 242.7507797321165 L 374.3679782792658 313.76392563131077" stroke-opacity="0.8" stroke-linecap="round" stroke-linejoin="round" stroke-miterlimit="10" stroke-width="2.5"/><path fill="none" stroke="rgb(97,97,97)" paint-order="fill stroke markers" d=" M 205.33976998319093 364.4243328001969 L 397.3999999999998 242.7507797321165" stroke-opacity="0.8" stroke-linecap="round" stroke-linejoin="round" stroke-miterlimit="10" stroke-width="2.5"/><path fill="none" stroke="rgb(97,97,97)" paint-order="fill stroke markers" d=" M 374.3679782792658 313.76392563131077 L 205.33976998319093 364.4243328001969" stroke-opacity="0.8" stroke-linecap="round" stroke-linejoin="round" stroke-miterlimit="10" stroke-width="2.5"/><path fill="none" stroke="rgb(97,97,97)" paint-order="fill stroke markers" d=" M 397.3999999999998 242.7507797321165 L 548.2549690084868 460.23883790456114" stroke-opacity="0.8" stroke-linecap="round" stroke-linejoin="round" stroke-miterlimit="10" stroke-width="2.5"/><path fill="none" stroke="rgb(97,97,97)" paint-order="fill stroke markers" d=" M 374.3679782792658 313.76392563131077 L 548.2549690084868 460.23883790456114" stroke-opacity="0.8" stroke-linecap="round" stroke-linejoin="round" stroke-miterlimit="10" stroke-width="2.5"/><path fill="rgb(21,101,192)" stroke="none" paint-order="stroke fill markers" d=" M 237.3825831568882 163.35152653507262 C 237.3825831568882 169.42665878321134 232.4577154050269 174.35152653507262 226.3825831568882 174.35152653507262 C 220.30745090874947 174.35152653507262 215.3825831568882 169.42665878321134 215.3825831568882 163.35152653507262 C 215.3825831568882 157.2763942869339 220.30745090874947 152.35152653507262 226.3825831568882 152.35152653507262 C 232.4577154050269 152.35152653507262 237.3825831568882 157.2763942869339 237.3825831568882 163.35152653507262 Z" fill-opacity="0.2"/><path fill="none" stroke="rgb(21,101,192)" paint-order="fill stroke markers" d=" M 237.3825831568882 163.35152653507262 C 237.3825831568882 169.42665878321134 232.4577154050269 174.35152653507262 226.3825831568882 174.35152653507262 C 220.30745090874947 174.35152653507262 215.3825831568882 169.42665878321134 215.3825831568882 163.35152653507262 C 215.3825831568882 157.2763942869339 220.30745090874947 152.35152653507262 226.3825831568882 152.35152653507262 C 232.4577154050269 152.35152653507262 237.3825831568882 157.2763942869339 237.3825831568882 163.35152653507262 Z" stroke-opacity="1" stroke-linecap="square" stroke-miterlimit="10" stroke-width="2"/><path fill="rgb(21,101,192)" stroke="none" paint-order="stroke fill markers" d=" M 231.3825831568882 163.35152653507262 C 231.3825831568882 166.1129502842266 229.14400690604216 168.35152653507262 226.3825831568882 168.35152653507262 C 223.6211594077342 168.35152653507262 221.3825831568882 166.1129502842266 221.3825831568882 163.35152653507262 C 221.3825831568882 160.59010278591865 223.6211594077342 158.35152653507262 226.3825831568882 158.35152653507262 C 229.14400690604216 158.35152653507262 231.3825831568882 160.59010278591865 231.3825831568882 163.35152653507262 Z" fill-opacity="1"/><path fill="none" stroke="rgb(0,0,0)" paint-order="fill stroke markers" d=" M 231.3825831568882 163.35152653507262 C 231.3825831568882 166.1129502842266 229.14400690604216 168.35152653507262 226.3825831568882 168.35152653507262 C 223.6211594077342 168.35152653507262 221.3825831568882 166.1129502842266 221.3825831568882 163.35152653507262 C 221.3825831568882 160.59010278591865 223.6211594077342 158.35152653507262 226.3825831568882 158.35152653507262 C 229.14400690604216 158.35152653507262 231.3825831568882 160.59010278591865 231.3825831568882 163.35152653507262 Z" stroke-opacity="1" stroke-linecap="round" stroke-linejoin="round" stroke-miterlimit="10"/><path fill="rgb(21,101,192)" stroke="none" paint-order="stroke fill markers" d=" M 297.4641349634588 223.55916262550363 C 297.4641349634588 226.3205863746576 295.2255587126127 228.55916262550363 292.4641349634588 228.55916262550363 C 289.7027112143048 228.55916262550363 287.4641349634588 226.3205863746576 287.4641349634588 223.55916262550363 C 287.4641349634588 220.79773887634965 289.7027112143048 218.55916262550363 292.4641349634588 218.55916262550363 C 295.2255587126127 218.55916262550363 297.4641349634588 220.79773887634965 297.4641349634588 223.55916262550363 Z" fill-opacity="1"/><path fill="none" stroke="rgb(0,0,0)" paint-order="fill stroke markers" d=" M 297.4641349634588 223.55916262550363 C 297.4641349634588 226.3205863746576 295.2255587126127 228.55916262550363 292.4641349634588 228.55916262550363 C 289.7027112143048 228.55916262550363 287.4641349634588 226.3205863746576 287.4641349634588 223.55916262550363 C 287.4641349634588 220.79773887634965 289.7027112143048 218.55916262550363 292.4641349634588 218.55916262550363 C 295.2255587126127 218.55916262550363 297.4641349634588 220.79773887634965 297.4641349634588 223.55916262550363 Z" stroke-opacity="1" stroke-linecap="round" stroke-linejoin="round" stroke-miterlimit="10"/><path fill="rgb(97,97,97)" stroke="none" paint-order="stroke fill markers" d=" M 375.14532212088903 179.3170549160542 C 375.14532212088903 182.07847866520817 372.906745870043 184.3170549160542 370.14532212088903 184.3170549160542 C 367.3838983717351 184.3170549160542 365.14532212088903 182.07847866520817 365.14532212088903 179.3170549160542 C 365.14532212088903 176.5556311669002 367.3838983717351 174.3170549160542 370.14532212088903 174.3170549160542 C 372.906745870043 174.3170549160542 375.14532212088903 176.5556311669002 375.14532212088903 179.3170549160542 Z" fill-opacity="1"/><path fill="none" stroke="rgb(0,0,0)" paint-order="fill stroke markers" d=" M 375.14532212088903 179.3170549160542 C 375.14532212088903 182.07847866520817 372.906745870043 184.3170549160542 370.14532212088903 184.3170549160542 C 367.3838983717351 184.3170549160542 365.14532212088903 182.07847866520817 365.14532212088903 179.3170549160542 C 365.14532212088903 176.5556311669002 367.3838983717351 174.3170549160542 370.14532212088903 174.3170549160542 C 372.906745870043 174.3170549160542 375.14532212088903 176.5556311669002 375.14532212088903 179.3170549160542 Z" stroke-opacity="1" stroke-linecap="round" stroke-linejoin="round" stroke-miterlimit="10"/><path fill="rgb(97,97,97)" stroke="none" paint-order="stroke fill markers" d=" M 357.07338426405215 91.76629252724968 C 357.07338426405215 94.52771627640364 354.8348080132061 96.76629252724968 352.07338426405215 96.76629252724968 C 349.3119605148982 96.76629252724968 347.07338426405215 94.52771627640364 347.07338426405215 91.76629252724968 C 347.07338426405215 89.00486877809571 349.3119605148982 86.76629252724968 352.07338426405215 86.76629252724968 C 354.8348080132061 86.76629252724968 357.07338426405215 89.00486877809571 357.07338426405215 91.76629252724968 Z" fill-opacity="1"/><path fill="none" stroke="rgb(0,0,0)" paint-order="fill stroke markers" d=" M 357.07338426405215 91.76629252724968 C 357.07338426405215 94.52771627640364 354.8348080132061 96.76629252724968 352.07338426405215 96.76629252724968 C 349.3119605148982 96.76629252724968 347.07338426405215 94.52771627640364 347.07338426405215 91.76629252724968 C 347.07338426405215 89.00486877809571 349.3119605148982 86.76629252724968 352.07338426405215 86.76629252724968 C 354.8348080132061 86.76629252724968 357.07338426405215 89.00486877809571 357.07338426405215 91.76629252724968 Z" stroke-opacity="1" stroke-linecap="round" stroke-linejoin="round" stroke-miterlimit="10"/><path fill="rgb(97,97,97)" stroke="none" paint-order="stroke fill markers" d=" M 268.2231252685208 81.89905333945197 C 268.2231252685208 84.66047708860593 265.98454901767474 86.89905333945197 263.2231252685208 86.89905333945197 C 260.46170151936684 86.89905333945197 258.2231252685208 84.66047708860593 258.2231252685208 81.89905333945197 C 258.2231252685208 79.137629590298 260.46170151936684 76.89905333945197 263.2231252685208 76.89905333945197 C 265.98454901767474 76.89905333945197 268.2231252685208 79.137629590298 268.2231252685208 81.89905333945197 Z" fill-opacity="1"/><path fill="none" stroke="rgb(0,0,0)" paint-order="fill stroke markers" d=" M 268.2231252685208 81.89905333945197 C 268.2231252685208 84.66047708860593 265.98454901767474 86.89905333945197 263.2231252685208 86.89905333945197 C 260.46170151936684 86.89905333945197 258.2231252685208 84.66047708860593 258.2231252685208 81.89905333945197 C 258.2231252685208 79.137629590298 260.46170151936684 76.89905333945197 263.2231252685208 76.89905333945197 C 265.98454901767474 76.89905333945197 268.2231252685208 79.137629590298 268.2231252685208 81.89905333945197 Z" stroke-opacity="1" stroke-linecap="round" stroke-linejoin="round" stroke-miterlimit="10"/><path fill="rgb(97,97,97)" stroke="none" paint-order="stroke fill markers" d=" M 304.8577099547618 147.97861798866646 C 304.8577099547618 150.18775698798964 303.06684895408495 151.97861798866646 300.8577099547618 151.97861798866646 C 298.64857095543863 151.97861798866646 296.8577099547618 150.18775698798964 296.8577099547618 147.97861798866646 C 296.8577099547618 145.76947898934327 298.64857095543863 143.97861798866646 300.8577099547618 143.97861798866646 C 303.06684895408495 143.97861798866646 304.8577099547618 145.76947898934327 304.8577099547618 147.97861798866646 Z" fill-opacity="1"/><path fill="none" stroke="rgb(0,0,0)" paint-order="fill stroke markers" d=" M 304.8577099547618 147.97861798866646 C 304.8577099547618 150.18775698798964 303.06684895408495 151.97861798866646 300.8577099547618 151.97861798866646 C 298.64857095543863 151.97861798866646 296.8577099547618 150.18775698798964 296.8577099547618 147.97861798866646 C 296.8577099547618 145.76947898934327 298.64857095543863 143.97861798866646 300.8577099547618 143.97861798866646 C 303.06684895408495 143.97861798866646 304.8577099547618 145.76947898934327 304.8577099547618 147.97861798866646 Z" stroke-opacity="1" stroke-linecap="round" stroke-linejoin="round" stroke-miterlimit="10"/><path fill="rgb(21,101,192)" stroke="none" paint-order="stroke fill markers" d=" M 511.45077973211755 195.70000000000005 C 511.45077973211755 198.46142374915402 509.2122034812715 200.70000000000005 506.45077973211755 200.70000000000005 C 503.6893559829636 200.70000000000005 501.45077973211755 198.46142374915402 501.45077973211755 195.70000000000005 C 501.45077973211755 192.93857625084607 503.6893559829636 190.70000000000005 506.45077973211755 190.70000000000005 C 509.2122034812715 190.70000000000005 511.45077973211755 192.93857625084607 511.45077973211755 195.70000000000005 Z" fill-opacity="1"/><path fill="none" stroke="rgb(0,0,0)" paint-order="fill stroke markers" d=" M 511.45077973211755 195.70000000000005 C 511.45077973211755 198.46142374915402 509.2122034812715 200.70000000000005 506.45077973211755 200.70000000000005 C 503.6893559829636 200.70000000000005 501.45077973211755 198.46142374915402 501.45077973211755 195.70000000000005 C 501.45077973211755 192.93857625084607 503.6893559829636 190.70000000000005 506.45077973211755 190.70000000000005 C 509.2122034812715 190.70000000000005 511.45077973211755 192.93857625084607 511.45077973211755 195.70000000000005 Z" stroke-opacity="1" stroke-linecap="round" stroke-linejoin="round" stroke-miterlimit="10"/><path fill="rgb(21,101,192)" stroke="none" paint-order="stroke fill markers" d=" M 776.1360213346138 195.70000000000005 C 776.1360213346138 198.46142374915402 773.8974450837678 200.70000000000005 771.1360213346138 200.70000000000005 C 768.3745975854598 200.70000000000005 766.1360213346138 198.46142374915402 766.1360213346138 195.70000000000005 C 766.1360213346138 192.93857625084607 768.3745975854598 190.70000000000005 771.1360213346138 190.70000000000005 C 773.8974450837678 190.70000000000005 776.1360213346138 192.93857625084607 776.1360213346138 195.70000000000005 Z" fill-opacity="1"/><path fill="none" stroke="rgb(0,0,0)" paint-order="fill stroke markers" d=" M 776.1360213346138 195.70000000000005 C 776.1360213346138 198.46142374915402 773.8974450837678 200.70000000000005 771.1360213346138 200.70000000000005 C 768.3745975854598 200.70000000000005 766.1360213346138 198.46142374915402 766.1360213346138 195.70000000000005 C 766.1360213346138 192.93857625084607 768.3745975854598 190.70000000000005 771.1360213346138 190.70000000000005 C 773.8974450837678 190.70000000000005 776.1360213346138 192.93857625084607 776.1360213346138 195.70000000000005 Z" stroke-opacity="1" stroke-linecap="round" stroke-linejoin="round" stroke-miterlimit="10"/><path fill="rgb(21,101,192)" stroke="none" paint-order="stroke fill markers" d=" M 687.907607467115 195.70000000000005 C 687.907607467115 198.46142374915402 685.669031216269 200.70000000000005 682.907607467115 200.70000000000005 C 680.146183717961 200.70000000000005 677.907607467115 198.46142374915402 677.907607467115 195.70000000000005 C 677.907607467115 192.93857625084607 680.146183717961 190.70000000000005 682.907607467115 190.70000000000005 C 685.669031216269 190.70000000000005 687.907607467115 192.93857625084607 687.907607467115 195.70000000000005 Z" fill-opacity="1"/><path fill="none" stroke="rgb(0,0,0)" paint-order="fill stroke markers" d=" M 687.907607467115 195.70000000000005 C 687.907607467115 198.46142374915402 685.669031216269 200.70000000000005 682.907607467115 200.70000000000005 C 680.146183717961 200.70000000000005 677.907607467115 198.46142374915402 677.907607467115 195.70000000000005 C 677.907607467115 192.93857625084607 680.146183717961 190.70000000000005 682.907607467115 190.70000000000005 C 685.669031216269 190.70000000000005 687.907607467115 192.93857625084607 687.907607467115 195.70000000000005 Z" stroke-opacity="1" stroke-linecap="round" stroke-linejoin="round" stroke-miterlimit="10"/><path fill="rgb(21,101,192)" stroke="none" paint-order="stroke fill markers" d=" M 599.6791935996163 195.70000000000005 C 599.6791935996163 198.46142374915402 597.4406173487703 200.70000000000005 594.6791935996163 200.70000000000005 C 591.9177698504623 200.70000000000005 589.6791935996163 198.46142374915402 589.6791935996163 195.70000000000005 C 589.6791935996163 192.93857625084607 591.9177698504623 190.70000000000005 594.6791935996163 190.70000000000005 C 597.4406173487703 190.70000000000005 599.6791935996163 192.93857625084607 599.6791935996163 195.70000000000005 Z" fill-opacity="1"/><path fill="none" stroke="rgb(0,0,0)" paint-order="fill stroke markers" d=" M 599.6791935996163 195.70000000000005 C 599.6791935996163 198.46142374915402 597.4406173487703 200.70000000000005 594.6791935996163 200.70000000000005 C 591.9177698504623 200.70000000000005 589.6791935996163 198.46142374915402 589.6791935996163 195.70000000000005 C 589.6791935996163 192.93857625084607 591.9177698504623 190.70000000000005 594.6791935996163 190.70000000000005 C 597.4406173487703 190.70000000000005 599.6791935996163 192.93857625084607 599.6791935996163 195.70000000000005 Z" stroke-opacity="1" stroke-linecap="round" stroke-linejoin="round" stroke-miterlimit="10"/><path fill="rgb(97,97,97)" stroke="none" paint-order="stroke fill markers" d=" M 554.5649866658669 135.47311512579344 C 554.5649866658669 137.68225412511663 552.77412566519 139.47311512579344 550.5649866658669 139.47311512579344 C 548.3558476665437 139.47311512579344 546.5649866658669 137.68225412511663 546.5649866658669 135.47311512579344 C 546.5649866658669 133.26397612647025 548.3558476665437 131.47311512579344 550.5649866658669 131.47311512579344 C 552.77412566519 131.47311512579344 554.5649866658669 133.26397612647025 554.5649866658669 135.47311512579344 Z" fill-opacity="1"/><path fill="none" stroke="rgb(0,0,0)" paint-order="fill stroke markers" d=" M 554.5649866658669 135.47311512579344 C 554.5649866658669 137.68225412511663 552.77412566519 139.47311512579344 550.5649866658669 139.47311512579344 C 548.3558476665437 139.47311512579344 546.5649866658669 137.68225412511663 546.5649866658669 135.47311512579344 C 546.5649866658669 133.26397612647025 548.3558476665437 131.47311512579344 550.5649866658669 131.47311512579344 C 552.77412566519 131.47311512579344 554.5649866658669 133.26397612647025 554.5649866658669 135.47311512579344 Z" stroke-opacity="1" stroke-linecap="round" stroke-linejoin="round" stroke-miterlimit="10"/><path fill="rgb(21,101,192)" stroke="none" paint-order="stroke fill markers" d=" M 732.0218144008643 135.47311512579344 C 732.0218144008643 138.23453887494742 729.7832381500183 140.47311512579344 727.0218144008643 140.47311512579344 C 724.2603906517103 140.47311512579344 722.0218144008643 138.23453887494742 722.0218144008643 135.47311512579344 C 722.0218144008643 132.71169137663946 724.2603906517103 130.47311512579344 727.0218144008643 130.47311512579344 C 729.7832381500183 130.47311512579344 732.0218144008643 132.71169137663946 732.0218144008643 135.47311512579344 Z" fill-opacity="1"/><path fill="none" stroke="rgb(0,0,0)" paint-order="fill stroke markers" d=" M 732.0218144008643 135.47311512579344 C 732.0218144008643 138.23453887494742 729.7832381500183 140.47311512579344 727.0218144008643 140.47311512579344 C 724.2603906517103 140.47311512579344 722.0218144008643 138.23453887494742 722.0218144008643 135.47311512579344 C 722.0218144008643 132.71169137663946 724.2603906517103 130.47311512579344 727.0218144008643 130.47311512579344 C 729.7832381500183 130.47311512579344 732.0218144008643 132.71169137663946 732.0218144008643 135.47311512579344 Z" stroke-opacity="1" stroke-linecap="round" stroke-linejoin="round" stroke-miterlimit="10"/><path fill="rgb(21,101,192)" stroke="none" paint-order="stroke fill markers" d=" M 643.7934005333656 135.47311512579344 C 643.7934005333656 138.23453887494742 641.5548242825196 140.47311512579344 638.7934005333656 140.47311512579344 C 636.0319767842116 140.47311512579344 633.7934005333656 138.23453887494742 633.7934005333656 135.47311512579344 C 633.7934005333656 132.71169137663946 636.0319767842116 130.47311512579344 638.7934005333656 130.47311512579344 C 641.5548242825196 130.47311512579344 643.7934005333656 132.71169137663946 643.7934005333656 135.47311512579344 Z" fill-opacity="1"/><path fill="none" stroke="rgb(0,0,0)" paint-order="fill stroke markers" d=" M 643.7934005333656 135.47311512579344 C 643.7934005333656 138.23453887494742 641.5548242825196 140.47311512579344 638.7934005333656 140.47311512579344 C 636.0319767842116 140.47311512579344 633.7934005333656 138.23453887494742 633.7934005333656 135.47311512579344 C 633.7934005333656 132.71169137663946 636.0319767842116 130.47311512579344 638.7934005333656 130.47311512579344 C 641.5548242825196 130.47311512579344 643.7934005333656 132.71169137663946 643.7934005333656 135.47311512579344 Z" stroke-opacity="1" stroke-linecap="round" stroke-linejoin="round" stroke-miterlimit="10"/><path fill="rgb(21,101,192)" stroke="none" paint-order="stroke fill markers" d=" M 402.3999999999998 242.7507797321165 C 402.3999999999998 245.5122034812705 400.16142374915376 247.7507797321165 397.3999999999998 247.7507797321165 C 394.63857625084586 247.7507797321165 392.3999999999998 245.5122034812705 392.3999999999998 242.7507797321165 C 392.3999999999998 239.98935598296254 394.63857625084586 237.7507797321165 397.3999999999998 237.7507797321165 C 400.16142374915376 237.7507797321165 402.3999999999998 239.98935598296254 402.3999999999998 242.7507797321165 Z" fill-opacity="1"/><path fill="none" stroke="rgb(0,0,0)" paint-order="fill stroke markers" d=" M 402.3999999999998 242.7507797321165 C 402.3999999999998 245.5122034812705 400.16142374915376 247.7507797321165 397.3999999999998 247.7507797321165 C 394.63857625084586 247.7507797321165 392.3999999999998 245.5122034812705 392.3999999999998 242.7507797321165 C 392.3999999999998 239.98935598296254 394.63857625084586 237.7507797321165 397.3999999999998 237.7507797321165 C 400.16142374915376 237.7507797321165 402.3999999999998 239.98935598296254 402.3999999999998 242.7507797321165 Z" stroke-opacity="1" stroke-linecap="round" stroke-linejoin="round" stroke-miterlimit="10"/><path fill="rgb(21,101,192)" stroke="none" paint-order="stroke fill markers" d=" M 379.3679782792658 313.76392563131077 C 379.3679782792658 316.5253493804647 377.12940202841975 318.76392563131077 374.3679782792658 318.76392563131077 C 371.60655453011185 318.76392563131077 369.3679782792658 316.5253493804647 369.3679782792658 313.76392563131077 C 369.3679782792658 311.0025018821568 371.60655453011185 308.76392563131077 374.3679782792658 308.76392563131077 C 377.12940202841975 308.76392563131077 379.3679782792658 311.0025018821568 379.3679782792658 313.76392563131077 Z" fill-opacity="1"/><path fill="none" stroke="rgb(0,0,0)" paint-order="fill stroke markers" d=" M 379.3679782792658 313.76392563131077 C 379.3679782792658 316.5253493804647 377.12940202841975 318.76392563131077 374.3679782792658 318.76392563131077 C 371.60655453011185 318.76392563131077 369.3679782792658 316.5253493804647 369.3679782792658 313.76392563131077 C 369.3679782792658 311.0025018821568 371.60655453011185 308.76392563131077 374.3679782792658 308.76392563131077 C 377.12940202841975 308.76392563131077 379.3679782792658 311.0025018821568 379.3679782792658 313.76392563131077 Z" stroke-opacity="1" stroke-linecap="round" stroke-linejoin="round" stroke-miterlimit="10"/><path fill="rgb(97,97,97)" stroke="none" paint-order="stroke fill markers" d=" M 209.33976998319093 364.4243328001969 C 209.33976998319093 366.63347179952007 207.5489089825141 368.4243328001969 205.33976998319093 368.4243328001969 C 203.13063098386775 368.4243328001969 201.33976998319093 366.63347179952007 201.33976998319093 364.4243328001969 C 201.33976998319093 362.21519380087375 203.13063098386775 360.4243328001969 205.33976998319093 360.4243328001969 C 207.5489089825141 360.4243328001969 209.33976998319093 362.21519380087375 209.33976998319093 364.4243328001969 Z" fill-opacity="1"/><path fill="none" stroke="rgb(0,0,0)" paint-order="fill stroke markers" d=" M 209.33976998319093 364.4243328001969 C 209.33976998319093 366.63347179952007 207.5489089825141 368.4243328001969 205.33976998319093 368.4243328001969 C 203.13063098386775 368.4243328001969 201.33976998319093 366.63347179952007 201.33976998319093 364.4243328001969 C 201.33976998319093 362.21519380087375 203.13063098386775 360.4243328001969 205.33976998319093 360.4243328001969 C 207.5489089825141 360.4243328001969 209.33976998319093 362.21519380087375 209.33976998319093 364.4243328001969 Z" stroke-opacity="1" stroke-linecap="round" stroke-linejoin="round" stroke-miterlimit="10"/><path fill="rgb(97,97,97)" stroke="none" paint-order="stroke fill markers" d=" M 552.2549690084868 460.23883790456114 C 552.2549690084868 462.4479769038843 550.46410800781 464.23883790456114 548.2549690084868 464.23883790456114 C 546.0458300091636 464.23883790456114 544.2549690084868 462.4479769038843 544.2549690084868 460.23883790456114 C 544.2549690084868 458.029698905238 546.0458300091636 456.23883790456114 548.2549690084868 456.23883790456114 C 550.46410800781 456.23883790456114 552.2549690084868 458.029698905238 552.2549690084868 460.23883790456114 Z" fill-opacity="1"/><path fill="none" stroke="rgb(0,0,0)" paint-order="fill stroke markers" d=" M 552.2549690084868 460.23883790456114 C 552.2549690084868 462.4479769038843 550.46410800781 464.23883790456114 548.2549690084868 464.23883790456114 C 546.0458300091636 464.23883790456114 544.2549690084868 462.4479769038843 544.2549690084868 460.23883790456114 C 544.2549690084868 458.029698905238 546.0458300091636 456.23883790456114 548.2549690084868 456.23883790456114 C 550.46410800781 456.23883790456114 552.2549690084868 458.029698905238 552.2549690084868 460.23883790456114 Z" stroke-opacity="1" stroke-linecap="round" stroke-linejoin="round" stroke-miterlimit="10"/><text fill="rgb(0,0,0)" stroke="none" font-family="geogebra-sans-serif, sans-serif" font-size="16px" font-style="normal" font-weight="normal" text-decoration="normal" x="491" y="150" text-anchor="start" dominant-baseline="alphabetic" fill-opacity="1">2)</text><text fill="rgb(0,0,0)" stroke="none" font-family="geogebra-sans-serif, sans-serif" font-size="16px" font-style="normal" font-weight="normal" text-decoration="normal" x="210" y="95" text-anchor="start" dominant-baseline="alphabetic" fill-opacity="1">1)</text><text fill="rgb(0,0,0)" stroke="none" font-family="geogebra-sans-serif, sans-serif" font-size="16px" font-style="normal" font-weight="normal" text-decoration="normal" x="246" y="274" text-anchor="start" dominant-baseline="alphabetic" fill-opacity="1">3)</text></g></g></svg>