<svg width="560" height="280" viewBox="0 0 560 280" fill="none" xmlns="http://www.w3.org/2000/svg">
<g clip-path="url(#clip0_402_962)">
<path d="M560 0H0V280H560V0Z" fill="white"/>
<path fill-rule="evenodd" clip-rule="evenodd" d="M471 202V180.787H449.787V202H471Z" fill="black" fill-opacity="0.0980392"/>
<path d="M471 202V180.787H449.787V202H471Z" stroke="black" stroke-opacity="0.6" stroke-width="2" stroke-miterlimit="10" stroke-linecap="round" stroke-linejoin="round"/>
<path d="M209.529 174.28C198.314 178.92 191 189.862 191 202H221L209.529 174.28Z" fill="black" fill-opacity="0.0980392"/>
<path d="M209.529 174.28C198.314 178.92 191 189.862 191 202H221L209.529 174.28Z" stroke="black" stroke-opacity="0.6" stroke-width="2" stroke-miterlimit="10" stroke-linecap="round" stroke-linejoin="round"/>
<path d="M56 202H221" stroke="#616161" stroke-opacity="0.8" stroke-width="2.5" stroke-miterlimit="10" stroke-linecap="round" stroke-linejoin="round"/>
<path d="M56 202L173.206 86.4978" stroke="#616161" stroke-opacity="0.8" stroke-width="2.5" stroke-miterlimit="10" stroke-linecap="round" stroke-linejoin="round"/>
<path d="M173.205 86.4978L220.999 202" stroke="#616161" stroke-opacity="0.8" stroke-width="2.5" stroke-miterlimit="10" stroke-linecap="round" stroke-linejoin="round"/>
<path d="M306 202H471" stroke="#616161" stroke-opacity="0.8" stroke-width="2.5" stroke-miterlimit="10" stroke-linecap="round" stroke-linejoin="round"/>
<path d="M306 202L471 77" stroke="#616161" stroke-opacity="0.8" stroke-width="2.5" stroke-miterlimit="10" stroke-linecap="round" stroke-linejoin="round"/>
<path d="M471 77V202" stroke="#616161" stroke-opacity="0.8" stroke-width="2.5" stroke-miterlimit="10" stroke-linecap="round" stroke-linejoin="round"/>
<path d="M61 202C61 204.761 58.7614 207 56 207C53.2386 207 51 204.761 51 202C51 199.239 53.2386 197 56 197C58.7614 197 61 199.239 61 202Z" fill="#1565C0"/>
<path d="M61 202C61 204.761 58.7614 207 56 207C53.2386 207 51 204.761 51 202C51 199.239 53.2386 197 56 197C58.7614 197 61 199.239 61 202Z" stroke="black" stroke-miterlimit="10" stroke-linecap="round" stroke-linejoin="round"/>
<path d="M61.8864 191H60.4091L64.6818 179.364H66.1364L70.4091 191H68.9318L65.4545 181.205H65.3636L61.8864 191ZM62.4318 186.455H68.3864V187.705H62.4318V186.455Z" fill="#1565C0"/>
<path d="M61.8864 191V192.5L63.2999 191.502L61.8864 191ZM60.4091 191L59.001 190.483L60.4091 192.5V191ZM64.6818 179.364V177.864L63.2737 178.847L64.6818 179.364ZM66.1364 179.364L67.5444 178.847L66.1364 177.864V179.364ZM70.4091 191V192.5L71.8172 190.483L70.4091 191ZM68.9318 191L67.5182 191.502L68.9318 192.5V191ZM65.4545 181.205L66.8681 180.703L65.4545 179.705V181.205ZM65.3636 181.205V179.705L63.9501 180.703L65.3636 181.205ZM62.4318 186.455V184.955L60.9318 186.455H62.4318ZM68.3864 186.455H69.8864L68.3864 184.955V186.455ZM68.3864 187.705V189.205L69.8864 187.705H68.3864ZM62.4318 187.705H60.9318L62.4318 189.205V187.705ZM61.8864 189.5H60.4091V192.5H61.8864V189.5ZM61.8172 191.517L66.0899 179.881L63.2737 178.847L59.001 190.483L61.8172 191.517ZM64.6818 180.864H66.1364V177.864H64.6818V180.864ZM64.7283 179.881L69.001 191.517L71.8172 190.483L67.5444 178.847L64.7283 179.881ZM70.4091 189.5H68.9318V192.5H70.4091V189.5ZM70.3454 190.498L66.8681 180.703L64.041 181.706L67.5182 191.502L70.3454 190.498ZM65.4545 179.705H65.3636V182.705H65.4545V179.705ZM63.9501 180.703L60.4728 190.498L63.2999 191.502L66.7772 181.706L63.9501 180.703ZM62.4318 187.955H68.3864V184.955H62.4318V187.955ZM66.8864 186.455V187.705H69.8864V186.455H66.8864ZM68.3864 186.205H62.4318V189.205H68.3864V186.205ZM63.9318 187.705V186.455H60.9318V187.705H63.9318Z" fill="white"/>
<path d="M61.8864 191H60.4091L64.6818 179.364H66.1364L70.4091 191H68.9318L65.4545 181.205H65.3636L61.8864 191ZM62.4318 186.455H68.3864V187.705H62.4318V186.455Z" fill="#1565C0"/>
<path d="M226 202C226 204.761 223.761 207 221 207C218.239 207 216 204.761 216 202C216 199.239 218.239 197 221 197C223.761 197 226 199.239 226 202Z" fill="#1565C0"/>
<path d="M226 202C226 204.761 223.761 207 221 207C218.239 207 216 204.761 216 202C216 199.239 218.239 197 221 197C223.761 197 226 199.239 226 202Z" stroke="black" stroke-miterlimit="10" stroke-linecap="round" stroke-linejoin="round"/>
<path d="M235.773 183H234.364C234.28 182.595 234.134 182.239 233.926 181.932C233.722 181.625 233.472 181.367 233.176 181.159C232.884 180.947 232.561 180.788 232.205 180.682C231.848 180.576 231.477 180.523 231.091 180.523C230.386 180.523 229.748 180.701 229.176 181.057C228.608 181.413 228.155 181.938 227.818 182.631C227.485 183.324 227.318 184.174 227.318 185.182C227.318 186.189 227.485 187.04 227.818 187.733C228.155 188.426 228.608 188.951 229.176 189.307C229.748 189.663 230.386 189.841 231.091 189.841C231.477 189.841 231.848 189.788 232.205 189.682C232.561 189.576 232.884 189.419 233.176 189.21C233.472 188.998 233.722 188.739 233.926 188.432C234.134 188.121 234.28 187.765 234.364 187.364H235.773C235.667 187.958 235.473 188.491 235.193 188.96C234.913 189.43 234.564 189.83 234.148 190.159C233.731 190.485 233.263 190.733 232.744 190.903C232.229 191.074 231.678 191.159 231.091 191.159C230.098 191.159 229.216 190.917 228.443 190.432C227.67 189.947 227.063 189.258 226.619 188.364C226.176 187.47 225.955 186.409 225.955 185.182C225.955 183.955 226.176 182.894 226.619 182C227.063 181.106 227.67 180.417 228.443 179.932C229.216 179.447 230.098 179.205 231.091 179.205C231.678 179.205 232.229 179.29 232.744 179.46C233.263 179.631 233.731 179.881 234.148 180.21C234.564 180.536 234.913 180.934 235.193 181.403C235.473 181.869 235.667 182.402 235.773 183Z" fill="#1565C0"/>
<path d="M235.773 183V184.5L237.25 182.738L235.773 183ZM234.364 183L232.894 183.302L234.364 184.5V183ZM233.926 181.932L232.678 182.764L232.685 182.774L233.926 181.932ZM233.176 181.159L232.294 182.372L232.312 182.385L233.176 181.159ZM232.205 180.682L231.776 182.119L231.776 182.119L232.205 180.682ZM229.176 181.057L228.383 179.783L228.38 179.786L229.176 181.057ZM227.818 182.631L226.469 181.975L226.466 181.981L227.818 182.631ZM227.818 187.733L226.466 188.383L226.469 188.389L227.818 187.733ZM229.176 189.307L228.38 190.578L228.383 190.58L229.176 189.307ZM232.205 189.682L231.776 188.244L231.776 188.244L232.205 189.682ZM233.176 189.21L234.048 190.431L234.051 190.429L233.176 189.21ZM233.926 188.432L232.68 187.596L232.678 187.6L233.926 188.432ZM234.364 187.364V185.864L232.895 187.059L234.364 187.364ZM235.773 187.364L237.249 187.627L235.773 185.864V187.364ZM235.193 188.96L233.905 188.192L233.905 188.192L235.193 188.96ZM234.148 190.159L235.072 191.341L235.078 191.336L234.148 190.159ZM232.744 190.903L232.276 189.478L232.273 189.479L232.744 190.903ZM228.443 190.432L227.646 191.702L227.646 191.702L228.443 190.432ZM226.619 188.364L227.963 187.697L227.963 187.697L226.619 188.364ZM226.619 182L225.275 181.334L226.619 182ZM232.744 179.46L232.273 180.884L232.276 180.885L232.744 179.46ZM234.148 180.21L233.217 181.387L233.224 181.392L234.148 180.21ZM235.193 181.403L233.905 182.172L233.908 182.177L235.193 181.403ZM235.773 181.5H234.364V184.5H235.773V181.5ZM235.833 182.698C235.714 182.122 235.499 181.577 235.167 181.089L232.685 182.774C232.77 182.9 232.846 183.068 232.894 183.302L235.833 182.698ZM235.174 181.1C234.869 180.642 234.49 180.25 234.041 179.933L232.312 182.385C232.453 182.485 232.574 182.608 232.678 182.764L235.174 181.1ZM234.058 179.946C233.625 179.631 233.147 179.397 232.633 179.244L231.776 182.119C231.974 182.178 232.144 182.263 232.294 182.372L234.058 179.946ZM232.633 179.244C232.132 179.095 231.616 179.023 231.091 179.023V182.023C231.338 182.023 231.565 182.056 231.776 182.119L232.633 179.244ZM231.091 179.023C230.12 179.023 229.204 179.272 228.383 179.783L229.969 182.33C230.292 182.129 230.653 182.023 231.091 182.023V179.023ZM228.38 179.786C227.539 180.312 226.91 181.067 226.469 181.975L229.167 183.287C229.4 182.808 229.677 182.513 229.973 182.328L228.38 179.786ZM226.466 181.981C226.01 182.929 225.818 184.016 225.818 185.182H228.818C228.818 184.332 228.96 183.718 229.17 183.281L226.466 181.981ZM225.818 185.182C225.818 186.348 226.01 187.434 226.466 188.383L229.17 187.083C228.96 186.645 228.818 186.031 228.818 185.182H225.818ZM226.469 188.389C226.91 189.296 227.539 190.051 228.38 190.578L229.973 188.036C229.677 187.85 229.4 187.556 229.167 187.077L226.469 188.389ZM228.383 190.58C229.204 191.091 230.12 191.341 231.091 191.341V188.341C230.653 188.341 230.292 188.234 229.969 188.033L228.383 190.58ZM231.091 191.341C231.616 191.341 232.132 191.268 232.633 191.119L231.776 188.244C231.565 188.307 231.338 188.341 231.091 188.341V191.341ZM232.633 191.119C233.142 190.968 233.617 190.739 234.048 190.431L232.304 187.99C232.152 188.098 231.979 188.184 231.776 188.244L232.633 191.119ZM234.051 190.429C234.495 190.11 234.871 189.719 235.174 189.264L232.678 187.6C232.572 187.758 232.448 187.886 232.301 187.992L234.051 190.429ZM235.172 189.267C235.498 188.781 235.713 188.241 235.832 187.668L232.895 187.059C232.847 187.289 232.771 187.461 232.68 187.596L235.172 189.267ZM234.364 188.864H235.773V185.864H234.364V188.864ZM234.296 187.1C234.218 187.535 234.083 187.893 233.905 188.192L236.481 189.729C236.864 189.088 237.115 188.382 237.249 187.627L234.296 187.1ZM233.905 188.192C233.715 188.509 233.487 188.769 233.217 188.983L235.078 191.336C235.642 190.89 236.11 190.35 236.481 189.729L233.905 188.192ZM233.224 188.977C232.948 189.193 232.636 189.36 232.276 189.478L233.212 192.329C233.891 192.106 234.514 191.777 235.072 191.341L233.224 188.977ZM232.273 189.479C231.922 189.596 231.531 189.659 231.091 189.659V192.659C231.825 192.659 232.536 192.552 233.216 192.327L232.273 189.479ZM231.091 189.659C230.355 189.659 229.753 189.483 229.24 189.161L227.646 191.702C228.678 192.35 229.842 192.659 231.091 192.659V189.659ZM229.24 189.161C228.724 188.837 228.295 188.367 227.963 187.697L225.275 189.03C225.83 190.148 226.617 191.057 227.646 191.702L229.24 189.161ZM227.963 187.697C227.644 187.053 227.455 186.23 227.455 185.182H224.455C224.455 186.588 224.709 187.887 225.275 189.03L227.963 187.697ZM227.455 185.182C227.455 184.134 227.644 183.311 227.963 182.666L225.275 181.334C224.709 182.477 224.455 183.776 224.455 185.182H227.455ZM227.963 182.666C228.295 181.996 228.724 181.526 229.24 181.202L227.646 178.661C226.617 179.307 225.83 180.216 225.275 181.334L227.963 182.666ZM229.24 181.202C229.753 180.881 230.355 180.705 231.091 180.705V177.705C229.842 177.705 228.678 178.013 227.646 178.661L229.24 181.202ZM231.091 180.705C231.531 180.705 231.922 180.768 232.273 180.884L233.216 178.036C232.536 177.811 231.825 177.705 231.091 177.705V180.705ZM232.276 180.885C232.632 181.002 232.943 181.17 233.217 181.387L235.078 179.034C234.519 178.592 233.894 178.259 233.212 178.035L232.276 180.885ZM233.224 181.392C233.49 181.6 233.716 181.856 233.905 182.172L236.481 180.635C236.109 180.012 235.639 179.472 235.072 179.029L233.224 181.392ZM233.908 182.177C234.083 182.468 234.218 182.823 234.296 183.262L237.25 182.738C237.115 181.98 236.864 181.271 236.478 180.63L233.908 182.177Z" fill="white"/>
<path d="M235.773 183H234.364C234.28 182.595 234.134 182.239 233.926 181.932C233.722 181.625 233.472 181.367 233.176 181.159C232.884 180.947 232.561 180.788 232.205 180.682C231.848 180.576 231.477 180.523 231.091 180.523C230.386 180.523 229.748 180.701 229.176 181.057C228.608 181.413 228.155 181.938 227.818 182.631C227.485 183.324 227.318 184.174 227.318 185.182C227.318 186.189 227.485 187.04 227.818 187.733C228.155 188.426 228.608 188.951 229.176 189.307C229.748 189.663 230.386 189.841 231.091 189.841C231.477 189.841 231.848 189.788 232.205 189.682C232.561 189.576 232.884 189.419 233.176 189.21C233.472 188.998 233.722 188.739 233.926 188.432C234.134 188.121 234.28 187.765 234.364 187.364H235.773C235.667 187.958 235.473 188.491 235.193 188.96C234.913 189.43 234.564 189.83 234.148 190.159C233.731 190.485 233.263 190.733 232.744 190.903C232.229 191.074 231.678 191.159 231.091 191.159C230.098 191.159 229.216 190.917 228.443 190.432C227.67 189.947 227.063 189.258 226.619 188.364C226.176 187.47 225.955 186.409 225.955 185.182C225.955 183.955 226.176 182.894 226.619 182C227.063 181.106 227.67 180.417 228.443 179.932C229.216 179.447 230.098 179.205 231.091 179.205C231.678 179.205 232.229 179.29 232.744 179.46C233.263 179.631 233.731 179.881 234.148 180.21C234.564 180.536 234.913 180.934 235.193 181.403C235.473 181.869 235.667 182.402 235.773 183Z" fill="#1565C0"/>
<path d="M178.205 86.4978C178.205 89.2592 175.967 91.4978 173.205 91.4978C170.444 91.4978 168.205 89.2592 168.205 86.4978C168.205 83.7364 170.444 81.4978 173.205 81.4978C175.967 81.4978 178.205 83.7364 178.205 86.4978Z" fill="#1565C0"/>
<path d="M178.205 86.4978C178.205 89.2592 175.967 91.4978 173.205 91.4978C170.444 91.4978 168.205 89.2592 168.205 86.4978C168.205 83.7364 170.444 81.4978 173.205 81.4978C175.967 81.4978 178.205 83.7364 178.205 86.4978Z" stroke="black" stroke-miterlimit="10" stroke-linecap="round" stroke-linejoin="round"/>
<path d="M178.409 75V63.3636H182.477C183.288 63.3636 183.956 63.5038 184.483 63.7841C185.009 64.0606 185.402 64.4337 185.659 64.9034C185.917 65.3693 186.045 65.8864 186.045 66.4545C186.045 66.9545 185.956 67.3674 185.778 67.6932C185.604 68.0189 185.373 68.2765 185.085 68.4659C184.801 68.6553 184.492 68.7955 184.159 68.8864V69C184.515 69.0227 184.873 69.1477 185.233 69.375C185.593 69.6023 185.894 69.928 186.136 70.3523C186.379 70.7765 186.5 71.2955 186.5 71.9091C186.5 72.4924 186.367 73.017 186.102 73.483C185.837 73.9489 185.419 74.3182 184.847 74.5909C184.275 74.8636 183.53 75 182.614 75H178.409ZM179.818 73.75H182.614C183.534 73.75 184.188 73.572 184.574 73.2159C184.964 72.8561 185.159 72.4205 185.159 71.9091C185.159 71.5152 185.059 71.1515 184.858 70.8182C184.657 70.4811 184.371 70.2121 184 70.0114C183.629 69.8068 183.189 69.7045 182.682 69.7045H179.818V73.75ZM179.818 68.4773H182.432C182.856 68.4773 183.239 68.3939 183.58 68.2273C183.924 68.0606 184.197 67.8258 184.398 67.5227C184.602 67.2197 184.705 66.8636 184.705 66.4545C184.705 65.9432 184.527 65.5095 184.17 65.1534C183.814 64.7936 183.25 64.6136 182.477 64.6136H179.818V68.4773Z" fill="#1565C0"/>
<path d="M178.409 75H176.909L178.409 76.5V75ZM178.409 63.3636V61.8636L176.909 63.3636H178.409ZM184.483 63.7841L183.778 65.1082L183.786 65.1121L184.483 63.7841ZM185.659 64.9034L184.344 65.6247L184.346 65.6292L185.659 64.9034ZM185.778 67.6932L184.462 66.9738L184.456 66.9857L185.778 67.6932ZM185.085 68.4659L184.261 67.2128L184.253 67.2178L185.085 68.4659ZM184.159 68.8864L183.764 67.4392L182.659 68.8864H184.159ZM184.159 69H182.659L184.064 70.497L184.159 69ZM185.233 69.375L184.432 70.6432L184.432 70.6432L185.233 69.375ZM186.102 73.483L187.406 74.2249L187.406 74.2249L186.102 73.483ZM184.847 74.5909L184.201 73.2369L184.201 73.2369L184.847 74.5909ZM179.818 73.75H178.318L179.818 75.25V73.75ZM184.574 73.2159L185.59 74.3189L185.591 74.3185L184.574 73.2159ZM184.858 70.8182L183.569 71.5857L183.573 71.5921L184.858 70.8182ZM184 70.0114L183.276 71.3252L183.286 71.3308L184 70.0114ZM179.818 69.7045V68.2045L178.318 69.7045H179.818ZM179.818 68.4773H178.318L179.818 69.9773V68.4773ZM183.58 68.2273L182.927 66.8768L182.921 66.8797L183.58 68.2273ZM184.398 67.5227L183.154 66.6835L183.147 66.6943L184.398 67.5227ZM184.17 65.1534L183.104 66.2085L183.11 66.2141L184.17 65.1534ZM179.818 64.6136V63.1136L178.318 64.6136H179.818ZM179.909 75V63.3636H176.909V75H179.909ZM178.409 64.8636H182.477V61.8636H178.409V64.8636ZM182.477 64.8636C183.126 64.8636 183.532 64.9773 183.778 65.1081L185.188 62.46C184.381 62.0302 183.45 61.8636 182.477 61.8636V64.8636ZM183.786 65.1121C184.081 65.2672 184.243 65.4416 184.344 65.6247L186.974 64.1822C186.56 63.4258 185.938 62.854 185.18 62.4561L183.786 65.1121ZM184.346 65.6292C184.473 65.858 184.545 66.1226 184.545 66.4545H187.545C187.545 65.6501 187.36 64.8807 186.972 64.1777L184.346 65.6292ZM184.545 66.4545C184.545 66.7868 184.485 66.932 184.462 66.9738L187.095 68.4125C187.428 67.8029 187.545 67.1223 187.545 66.4545H184.545ZM184.456 66.9857C184.391 67.1072 184.325 67.1707 184.261 67.2128L185.91 69.719C186.421 69.3823 186.818 68.9306 187.101 68.4007L184.456 66.9857ZM184.253 67.2178C184.105 67.3167 183.944 67.3902 183.764 67.4392L184.554 70.3335C185.041 70.2007 185.497 69.9939 185.917 69.714L184.253 67.2178ZM182.659 68.8864V69H185.659V68.8864H182.659ZM184.064 70.497C184.125 70.5009 184.244 70.5242 184.432 70.6432L186.034 68.1068C185.503 67.7712 184.905 67.5446 184.255 67.503L184.064 70.497ZM184.432 70.6432C184.555 70.7212 184.695 70.8535 184.834 71.0965L187.439 69.6081C187.093 69.0025 186.63 68.4833 186.034 68.1068L184.432 70.6432ZM184.834 71.0965C184.918 71.2431 185 71.4907 185 71.9091H188C188 71.1002 187.84 70.31 187.439 69.6081L184.834 71.0965ZM185 71.9091C185 72.2559 184.924 72.5209 184.799 72.741L187.406 74.2249C187.811 73.5132 188 72.729 188 71.9091H185ZM184.799 72.741C184.711 72.8947 184.548 73.0716 184.201 73.2369L185.492 75.9449C186.289 75.5648 186.963 75.003 187.406 74.2249L184.799 72.741ZM184.201 73.2369C183.9 73.3804 183.399 73.5 182.614 73.5V76.5C183.661 76.5 184.649 76.3468 185.492 75.9449L184.201 73.2369ZM182.614 73.5H178.409V76.5H182.614V73.5ZM179.818 75.25H182.614V72.25H179.818V75.25ZM182.614 75.25C183.652 75.25 184.782 75.0636 185.59 74.3189L183.557 72.1129C183.585 72.0877 183.559 72.1257 183.4 72.1692C183.238 72.2133 182.985 72.25 182.614 72.25V75.25ZM185.591 74.3185C186.276 73.6869 186.659 72.857 186.659 71.9091H183.659C183.659 71.9688 183.649 71.9948 183.644 72.0062C183.638 72.019 183.619 72.0556 183.557 72.1133L185.591 74.3185ZM186.659 71.9091C186.659 71.246 186.486 70.6143 186.143 70.0443L183.573 71.5921C183.631 71.6888 183.659 71.7843 183.659 71.9091H186.659ZM186.147 70.0507C185.797 69.4635 185.304 69.0114 184.714 68.692L183.286 71.3308C183.438 71.4129 183.517 71.4986 183.569 71.5857L186.147 70.0507ZM184.724 68.6976C184.091 68.3489 183.393 68.2045 182.682 68.2045V71.2045C182.986 71.2045 183.167 71.2648 183.276 71.3251L184.724 68.6976ZM182.682 68.2045H179.818V71.2045H182.682V68.2045ZM178.318 69.7045V73.75H181.318V69.7045H178.318ZM179.818 69.9773H182.432V66.9773H179.818V69.9773ZM182.432 69.9773C183.057 69.9773 183.669 69.8531 184.238 69.5748L182.921 66.8797C182.808 66.9348 182.655 66.9773 182.432 66.9773V69.9773ZM184.232 69.5777C184.806 69.3003 185.291 68.8908 185.648 68.3512L183.147 66.6943C183.103 66.7607 183.042 66.8209 182.927 66.8768L184.232 69.5777ZM185.641 68.3619C186.032 67.7821 186.205 67.1258 186.205 66.4545H183.205C183.205 66.6015 183.172 66.6573 183.154 66.6835L185.641 68.3619ZM186.205 66.4545C186.205 65.5523 185.873 64.735 185.231 64.0927L183.11 66.2141C183.18 66.284 183.205 66.3341 183.205 66.4545H186.205ZM185.237 64.0984C184.481 63.3342 183.443 63.1136 182.477 63.1136V66.1136C183.057 66.1136 183.148 66.2529 183.104 66.2084L185.237 64.0984ZM182.477 63.1136H179.818V66.1136H182.477V63.1136ZM178.318 64.6136V68.4773H181.318V64.6136H178.318Z" fill="white"/>
<path d="M178.409 75V63.3636H182.477C183.288 63.3636 183.956 63.5038 184.483 63.7841C185.009 64.0606 185.402 64.4337 185.659 64.9034C185.917 65.3693 186.045 65.8864 186.045 66.4545C186.045 66.9545 185.956 67.3674 185.778 67.6932C185.604 68.0189 185.373 68.2765 185.085 68.4659C184.801 68.6553 184.492 68.7955 184.159 68.8864V69C184.515 69.0227 184.873 69.1477 185.233 69.375C185.593 69.6023 185.894 69.928 186.136 70.3523C186.379 70.7765 186.5 71.2955 186.5 71.9091C186.5 72.4924 186.367 73.017 186.102 73.483C185.837 73.9489 185.419 74.3182 184.847 74.5909C184.275 74.8636 183.53 75 182.614 75H178.409ZM179.818 73.75H182.614C183.534 73.75 184.188 73.572 184.574 73.2159C184.964 72.8561 185.159 72.4205 185.159 71.9091C185.159 71.5152 185.059 71.1515 184.858 70.8182C184.657 70.4811 184.371 70.2121 184 70.0114C183.629 69.8068 183.189 69.7045 182.682 69.7045H179.818V73.75ZM179.818 68.4773H182.432C182.856 68.4773 183.239 68.3939 183.58 68.2273C183.924 68.0606 184.197 67.8258 184.398 67.5227C184.602 67.2197 184.705 66.8636 184.705 66.4545C184.705 65.9432 184.527 65.5095 184.17 65.1534C183.814 64.7936 183.25 64.6136 182.477 64.6136H179.818V68.4773Z" fill="#1565C0"/>
<path d="M311 202C311 204.761 308.761 207 306 207C303.239 207 301 204.761 301 202C301 199.239 303.239 197 306 197C308.761 197 311 199.239 311 202Z" fill="#1565C0"/>
<path d="M311 202C311 204.761 308.761 207 306 207C303.239 207 301 204.761 301 202C301 199.239 303.239 197 306 197C308.761 197 311 199.239 311 202Z" stroke="black" stroke-miterlimit="10" stroke-linecap="round" stroke-linejoin="round"/>
<path d="M311.886 191H310.409L314.682 179.364H316.136L320.409 191H318.932L315.455 181.205H315.364L311.886 191ZM312.432 186.455H318.386V187.705H312.432V186.455Z" fill="#1565C0"/>
<path d="M311.886 191V192.5L313.3 191.502L311.886 191ZM310.409 191L309.001 190.483L310.409 192.5V191ZM314.682 179.364V177.864L313.274 178.847L314.682 179.364ZM316.136 179.364L317.544 178.847L316.136 177.864V179.364ZM320.409 191V192.5L321.817 190.483L320.409 191ZM318.932 191L317.518 191.502L318.932 192.5V191ZM315.455 181.205L316.868 180.703L315.455 179.705V181.205ZM315.364 181.205V179.705L313.95 180.703L315.364 181.205ZM312.432 186.455V184.955L310.932 186.455H312.432ZM318.386 186.455H319.886L318.386 184.955V186.455ZM318.386 187.705V189.205L319.886 187.705H318.386ZM312.432 187.705H310.932L312.432 189.205V187.705ZM311.886 189.5H310.409V192.5H311.886V189.5ZM311.817 191.517L316.09 179.881L313.274 178.847L309.001 190.483L311.817 191.517ZM314.682 180.864H316.136V177.864H314.682V180.864ZM314.728 179.881L319.001 191.517L321.817 190.483L317.544 178.847L314.728 179.881ZM320.409 189.5H318.932V192.5H320.409V189.5ZM320.345 190.498L316.868 180.703L314.041 181.706L317.518 191.502L320.345 190.498ZM315.455 179.705H315.364V182.705H315.455V179.705ZM313.95 180.703L310.473 190.498L313.3 191.502L316.777 181.706L313.95 180.703ZM312.432 187.955H318.386V184.955H312.432V187.955ZM316.886 186.455V187.705H319.886V186.455H316.886ZM318.386 186.205H312.432V189.205H318.386V186.205ZM313.932 187.705V186.455H310.932V187.705H313.932Z" fill="white"/>
<path d="M311.886 191H310.409L314.682 179.364H316.136L320.409 191H318.932L315.455 181.205H315.364L311.886 191ZM312.432 186.455H318.386V187.705H312.432V186.455Z" fill="#1565C0"/>
<path d="M325.634 188.818V199H324.401V190.111H324.341L321.855 191.761V190.509L324.401 188.818H325.634Z" fill="#1565C0"/>
<path d="M325.634 188.818H327.134L325.634 187.318V188.818ZM325.634 199V200.5L327.134 199H325.634ZM324.401 199H322.901L324.401 200.5V199ZM324.401 190.111H325.901L324.401 188.611V190.111ZM324.341 190.111V188.611L323.511 188.861L324.341 190.111ZM321.855 191.761H320.355L322.685 193.011L321.855 191.761ZM321.855 190.509L321.025 189.259L320.355 190.509H321.855ZM324.401 188.818V187.318L323.571 187.569L324.401 188.818ZM324.134 188.818V199H327.134V188.818H324.134ZM325.634 197.5H324.401V200.5H325.634V197.5ZM325.901 199V190.111H322.901V199H325.901ZM324.401 188.611H324.341V191.611H324.401V188.611ZM323.511 188.861L321.025 190.512L322.685 193.011L325.171 191.36L323.511 188.861ZM323.355 191.761V190.509H320.355V191.761H323.355ZM322.685 191.758L325.23 190.068L323.571 187.569L321.025 189.259L322.685 191.758ZM324.401 190.318H325.634V187.318H324.401V190.318Z" fill="white"/>
<path d="M325.634 188.818V199H324.401V190.111H324.341L321.855 191.761V190.509L324.401 188.818H325.634Z" fill="#1565C0"/>
<path d="M476 202C476 204.761 473.761 207 471 207C468.239 207 466 204.761 466 202C466 199.239 468.239 197 471 197C473.761 197 476 199.239 476 202Z" fill="#1565C0"/>
<path d="M476 202C476 204.761 473.761 207 471 207C468.239 207 466 204.761 466 202C466 199.239 468.239 197 471 197C473.761 197 476 199.239 476 202Z" stroke="black" stroke-miterlimit="10" stroke-linecap="round" stroke-linejoin="round"/>
<path d="M485.773 183H484.364C484.28 182.595 484.134 182.239 483.926 181.932C483.722 181.625 483.472 181.367 483.176 181.159C482.884 180.947 482.561 180.788 482.205 180.682C481.848 180.576 481.477 180.523 481.091 180.523C480.386 180.523 479.748 180.701 479.176 181.057C478.608 181.413 478.155 181.938 477.818 182.631C477.485 183.324 477.318 184.174 477.318 185.182C477.318 186.189 477.485 187.04 477.818 187.733C478.155 188.426 478.608 188.951 479.176 189.307C479.748 189.663 480.386 189.841 481.091 189.841C481.477 189.841 481.848 189.788 482.205 189.682C482.561 189.576 482.884 189.419 483.176 189.21C483.472 188.998 483.722 188.739 483.926 188.432C484.134 188.121 484.28 187.765 484.364 187.364H485.773C485.667 187.958 485.473 188.491 485.193 188.96C484.913 189.43 484.564 189.83 484.148 190.159C483.731 190.485 483.263 190.733 482.744 190.903C482.229 191.074 481.678 191.159 481.091 191.159C480.098 191.159 479.216 190.917 478.443 190.432C477.67 189.947 477.063 189.258 476.619 188.364C476.176 187.47 475.955 186.409 475.955 185.182C475.955 183.955 476.176 182.894 476.619 182C477.063 181.106 477.67 180.417 478.443 179.932C479.216 179.447 480.098 179.205 481.091 179.205C481.678 179.205 482.229 179.29 482.744 179.46C483.263 179.631 483.731 179.881 484.148 180.21C484.564 180.536 484.913 180.934 485.193 181.403C485.473 181.869 485.667 182.402 485.773 183Z" fill="#1565C0"/>
<path d="M485.773 183V184.5L487.25 182.738L485.773 183ZM484.364 183L482.894 183.302L484.364 184.5V183ZM483.926 181.932L482.678 182.764L482.685 182.774L483.926 181.932ZM483.176 181.159L482.294 182.372L482.312 182.385L483.176 181.159ZM482.205 180.682L481.776 182.119L481.776 182.119L482.205 180.682ZM479.176 181.057L478.383 179.783L478.38 179.786L479.176 181.057ZM477.818 182.631L476.469 181.975L476.466 181.981L477.818 182.631ZM477.818 187.733L476.466 188.383L476.469 188.389L477.818 187.733ZM479.176 189.307L478.38 190.578L478.383 190.58L479.176 189.307ZM482.205 189.682L481.776 188.244L481.776 188.244L482.205 189.682ZM483.176 189.21L484.048 190.431L484.051 190.429L483.176 189.21ZM483.926 188.432L482.68 187.596L482.678 187.6L483.926 188.432ZM484.364 187.364V185.864L482.895 187.059L484.364 187.364ZM485.773 187.364L487.249 187.627L485.773 185.864V187.364ZM485.193 188.96L483.905 188.192L483.905 188.192L485.193 188.96ZM484.148 190.159L485.072 191.341L485.078 191.336L484.148 190.159ZM482.744 190.903L482.276 189.478L482.273 189.479L482.744 190.903ZM478.443 190.432L477.646 191.702L477.646 191.702L478.443 190.432ZM476.619 188.364L477.963 187.697L477.963 187.697L476.619 188.364ZM476.619 182L475.275 181.334L476.619 182ZM482.744 179.46L482.273 180.884L482.276 180.885L482.744 179.46ZM484.148 180.21L483.217 181.387L483.224 181.392L484.148 180.21ZM485.193 181.403L483.905 182.172L483.908 182.177L485.193 181.403ZM485.773 181.5H484.364V184.5H485.773V181.5ZM485.833 182.698C485.714 182.122 485.499 181.577 485.167 181.089L482.685 182.774C482.77 182.9 482.846 183.068 482.894 183.302L485.833 182.698ZM485.174 181.1C484.869 180.642 484.49 180.25 484.041 179.933L482.312 182.385C482.453 182.485 482.574 182.608 482.678 182.764L485.174 181.1ZM484.058 179.946C483.625 179.631 483.147 179.397 482.633 179.244L481.776 182.119C481.974 182.178 482.144 182.263 482.294 182.372L484.058 179.946ZM482.633 179.244C482.132 179.095 481.616 179.023 481.091 179.023V182.023C481.338 182.023 481.565 182.056 481.776 182.119L482.633 179.244ZM481.091 179.023C480.12 179.023 479.204 179.272 478.383 179.783L479.969 182.33C480.292 182.129 480.653 182.023 481.091 182.023V179.023ZM478.38 179.786C477.539 180.312 476.91 181.067 476.469 181.975L479.167 183.287C479.4 182.808 479.677 182.513 479.973 182.328L478.38 179.786ZM476.466 181.981C476.01 182.929 475.818 184.016 475.818 185.182H478.818C478.818 184.332 478.96 183.718 479.17 183.281L476.466 181.981ZM475.818 185.182C475.818 186.348 476.01 187.434 476.466 188.383L479.17 187.083C478.96 186.645 478.818 186.031 478.818 185.182H475.818ZM476.469 188.389C476.91 189.296 477.539 190.051 478.38 190.578L479.973 188.036C479.677 187.85 479.4 187.556 479.167 187.077L476.469 188.389ZM478.383 190.58C479.204 191.091 480.12 191.341 481.091 191.341V188.341C480.653 188.341 480.292 188.234 479.969 188.033L478.383 190.58ZM481.091 191.341C481.616 191.341 482.132 191.268 482.633 191.119L481.776 188.244C481.565 188.307 481.338 188.341 481.091 188.341V191.341ZM482.633 191.119C483.142 190.968 483.617 190.739 484.048 190.431L482.304 187.99C482.152 188.098 481.979 188.184 481.776 188.244L482.633 191.119ZM484.051 190.429C484.495 190.11 484.871 189.719 485.174 189.264L482.678 187.6C482.572 187.758 482.448 187.886 482.301 187.992L484.051 190.429ZM485.172 189.267C485.498 188.781 485.713 188.241 485.832 187.668L482.895 187.059C482.847 187.289 482.771 187.461 482.68 187.596L485.172 189.267ZM484.364 188.864H485.773V185.864H484.364V188.864ZM484.296 187.1C484.218 187.535 484.083 187.893 483.905 188.192L486.481 189.729C486.864 189.088 487.115 188.382 487.249 187.627L484.296 187.1ZM483.905 188.192C483.715 188.509 483.487 188.769 483.217 188.983L485.078 191.336C485.642 190.89 486.11 190.35 486.481 189.729L483.905 188.192ZM483.224 188.977C482.948 189.193 482.636 189.36 482.276 189.478L483.212 192.329C483.891 192.106 484.514 191.777 485.072 191.341L483.224 188.977ZM482.273 189.479C481.922 189.596 481.531 189.659 481.091 189.659V192.659C481.825 192.659 482.536 192.552 483.216 192.327L482.273 189.479ZM481.091 189.659C480.355 189.659 479.753 189.483 479.24 189.161L477.646 191.702C478.678 192.35 479.842 192.659 481.091 192.659V189.659ZM479.24 189.161C478.724 188.837 478.295 188.367 477.963 187.697L475.275 189.03C475.83 190.148 476.617 191.057 477.646 191.702L479.24 189.161ZM477.963 187.697C477.644 187.053 477.455 186.23 477.455 185.182H474.455C474.455 186.588 474.709 187.887 475.275 189.03L477.963 187.697ZM477.455 185.182C477.455 184.134 477.644 183.311 477.963 182.666L475.275 181.334C474.709 182.477 474.455 183.776 474.455 185.182H477.455ZM477.963 182.666C478.295 181.996 478.724 181.526 479.24 181.202L477.646 178.661C476.617 179.307 475.83 180.216 475.275 181.334L477.963 182.666ZM479.24 181.202C479.753 180.881 480.355 180.705 481.091 180.705V177.705C479.842 177.705 478.678 178.013 477.646 178.661L479.24 181.202ZM481.091 180.705C481.531 180.705 481.922 180.768 482.273 180.884L483.216 178.036C482.536 177.811 481.825 177.705 481.091 177.705V180.705ZM482.276 180.885C482.632 181.002 482.943 181.17 483.217 181.387L485.078 179.034C484.519 178.592 483.894 178.259 483.212 178.035L482.276 180.885ZM483.224 181.392C483.49 181.6 483.716 181.856 483.905 182.172L486.481 180.635C486.109 180.012 485.639 179.472 485.072 179.029L483.224 181.392ZM483.908 182.177C484.083 182.468 484.218 182.823 484.296 183.262L487.25 182.738C487.115 181.98 486.864 181.271 486.478 180.63L483.908 182.177Z" fill="white"/>
<path d="M485.773 183H484.364C484.28 182.595 484.134 182.239 483.926 181.932C483.722 181.625 483.472 181.367 483.176 181.159C482.884 180.947 482.561 180.788 482.205 180.682C481.848 180.576 481.477 180.523 481.091 180.523C480.386 180.523 479.748 180.701 479.176 181.057C478.608 181.413 478.155 181.938 477.818 182.631C477.485 183.324 477.318 184.174 477.318 185.182C477.318 186.189 477.485 187.04 477.818 187.733C478.155 188.426 478.608 188.951 479.176 189.307C479.748 189.663 480.386 189.841 481.091 189.841C481.477 189.841 481.848 189.788 482.205 189.682C482.561 189.576 482.884 189.419 483.176 189.21C483.472 188.998 483.722 188.739 483.926 188.432C484.134 188.121 484.28 187.765 484.364 187.364H485.773C485.667 187.958 485.473 188.491 485.193 188.96C484.913 189.43 484.564 189.83 484.148 190.159C483.731 190.485 483.263 190.733 482.744 190.903C482.229 191.074 481.678 191.159 481.091 191.159C480.098 191.159 479.216 190.917 478.443 190.432C477.67 189.947 477.063 189.258 476.619 188.364C476.176 187.47 475.955 186.409 475.955 185.182C475.955 183.955 476.176 182.894 476.619 182C477.063 181.106 477.67 180.417 478.443 179.932C479.216 179.447 480.098 179.205 481.091 179.205C481.678 179.205 482.229 179.29 482.744 179.46C483.263 179.631 483.731 179.881 484.148 180.21C484.564 180.536 484.913 180.934 485.193 181.403C485.473 181.869 485.667 182.402 485.773 183Z" fill="#1565C0"/>
<path d="M491.634 188.818V199H490.401V190.111H490.341L487.855 191.761V190.509L490.401 188.818H491.634Z" fill="#1565C0"/>
<path d="M491.634 188.818H493.134L491.634 187.318V188.818ZM491.634 199V200.5L493.134 199H491.634ZM490.401 199H488.901L490.401 200.5V199ZM490.401 190.111H491.901L490.401 188.611V190.111ZM490.341 190.111V188.611L489.511 188.861L490.341 190.111ZM487.855 191.761H486.355L488.685 193.011L487.855 191.761ZM487.855 190.509L487.025 189.259L486.355 190.509H487.855ZM490.401 188.818V187.318L489.571 187.569L490.401 188.818ZM490.134 188.818V199H493.134V188.818H490.134ZM491.634 197.5H490.401V200.5H491.634V197.5ZM491.901 199V190.111H488.901V199H491.901ZM490.401 188.611H490.341V191.611H490.401V188.611ZM489.511 188.861L487.025 190.512L488.685 193.011L491.171 191.36L489.511 188.861ZM489.355 191.761V190.509H486.355V191.761H489.355ZM488.685 191.758L491.23 190.068L489.571 187.569L487.025 189.259L488.685 191.758ZM490.401 190.318H491.634V187.318H490.401V190.318Z" fill="white"/>
<path d="M491.634 188.818V199H490.401V190.111H490.341L487.855 191.761V190.509L490.401 188.818H491.634Z" fill="#1565C0"/>
<path d="M475 77C475 79.2091 473.209 81 471 81C468.791 81 467 79.2091 467 77C467 74.7909 468.791 73 471 73C473.209 73 475 74.7909 475 77Z" fill="#616161"/>
<path d="M475 77C475 79.2091 473.209 81 471 81C468.791 81 467 79.2091 467 77C467 74.7909 468.791 73 471 73C473.209 73 475 74.7909 475 77Z" stroke="black" stroke-miterlimit="10" stroke-linecap="round" stroke-linejoin="round"/>
<path d="M476.409 68V56.3636H480.477C481.288 56.3636 481.956 56.5038 482.483 56.7841C483.009 57.0606 483.402 57.4337 483.659 57.9034C483.917 58.3693 484.045 58.8864 484.045 59.4545C484.045 59.9545 483.956 60.3674 483.778 60.6932C483.604 61.0189 483.373 61.2765 483.085 61.4659C482.801 61.6553 482.492 61.7955 482.159 61.8864V62C482.515 62.0227 482.873 62.1477 483.233 62.375C483.593 62.6023 483.894 62.928 484.136 63.3523C484.379 63.7765 484.5 64.2955 484.5 64.9091C484.5 65.4924 484.367 66.017 484.102 66.483C483.837 66.9489 483.419 67.3182 482.847 67.5909C482.275 67.8636 481.53 68 480.614 68H476.409ZM477.818 66.75H480.614C481.534 66.75 482.188 66.572 482.574 66.2159C482.964 65.8561 483.159 65.4205 483.159 64.9091C483.159 64.5152 483.059 64.1515 482.858 63.8182C482.657 63.4811 482.371 63.2121 482 63.0114C481.629 62.8068 481.189 62.7045 480.682 62.7045H477.818V66.75ZM477.818 61.4773H480.432C480.856 61.4773 481.239 61.3939 481.58 61.2273C481.924 61.0606 482.197 60.8258 482.398 60.5227C482.602 60.2197 482.705 59.8636 482.705 59.4545C482.705 58.9432 482.527 58.5095 482.17 58.1534C481.814 57.7936 481.25 57.6136 480.477 57.6136H477.818V61.4773Z" fill="#616161"/>
<path d="M476.409 68H474.909L476.409 69.5V68ZM476.409 56.3636V54.8636L474.909 56.3636H476.409ZM482.483 56.7841L481.778 58.1082L481.786 58.1121L482.483 56.7841ZM483.659 57.9034L482.344 58.6247L482.346 58.6292L483.659 57.9034ZM483.778 60.6932L482.462 59.9738L482.456 59.9857L483.778 60.6932ZM483.085 61.4659L482.261 60.2128L482.253 60.2178L483.085 61.4659ZM482.159 61.8864L481.764 60.4392L480.659 61.8864H482.159ZM482.159 62H480.659L482.064 63.497L482.159 62ZM483.233 62.375L482.432 63.6432L482.432 63.6432L483.233 62.375ZM484.102 66.483L485.406 67.2249L485.406 67.2249L484.102 66.483ZM482.847 67.5909L482.201 66.2369L482.201 66.2369L482.847 67.5909ZM477.818 66.75H476.318L477.818 68.25V66.75ZM482.574 66.2159L483.59 67.3189L483.591 67.3185L482.574 66.2159ZM482.858 63.8182L481.569 64.5857L481.573 64.5921L482.858 63.8182ZM482 63.0114L481.276 64.3252L481.286 64.3308L482 63.0114ZM477.818 62.7045V61.2045L476.318 62.7045H477.818ZM477.818 61.4773H476.318L477.818 62.9773V61.4773ZM481.58 61.2273L480.927 59.8768L480.921 59.8797L481.58 61.2273ZM482.398 60.5227L481.154 59.6835L481.147 59.6943L482.398 60.5227ZM482.17 58.1534L481.104 59.2085L481.11 59.2141L482.17 58.1534ZM477.818 57.6136V56.1136L476.318 57.6136H477.818ZM477.909 68V56.3636H474.909V68H477.909ZM476.409 57.8636H480.477V54.8636H476.409V57.8636ZM480.477 57.8636C481.126 57.8636 481.532 57.9773 481.778 58.1081L483.188 55.46C482.381 55.0302 481.45 54.8636 480.477 54.8636V57.8636ZM481.786 58.1121C482.081 58.2672 482.243 58.4416 482.344 58.6247L484.974 57.1822C484.56 56.4258 483.938 55.854 483.18 55.4561L481.786 58.1121ZM482.346 58.6292C482.473 58.858 482.545 59.1226 482.545 59.4545H485.545C485.545 58.6501 485.36 57.8807 484.972 57.1777L482.346 58.6292ZM482.545 59.4545C482.545 59.7868 482.485 59.932 482.462 59.9738L485.095 61.4125C485.428 60.8029 485.545 60.1223 485.545 59.4545H482.545ZM482.456 59.9857C482.391 60.1072 482.325 60.1707 482.261 60.2128L483.91 62.719C484.421 62.3823 484.818 61.9306 485.101 61.4007L482.456 59.9857ZM482.253 60.2178C482.105 60.3167 481.944 60.3902 481.764 60.4392L482.554 63.3335C483.041 63.2007 483.497 62.9939 483.917 62.714L482.253 60.2178ZM480.659 61.8864V62H483.659V61.8864H480.659ZM482.064 63.497C482.125 63.5009 482.244 63.5242 482.432 63.6432L484.034 61.1068C483.503 60.7712 482.905 60.5446 482.255 60.503L482.064 63.497ZM482.432 63.6432C482.555 63.7212 482.695 63.8535 482.834 64.0965L485.439 62.6081C485.093 62.0025 484.63 61.4833 484.034 61.1068L482.432 63.6432ZM482.834 64.0965C482.918 64.2431 483 64.4907 483 64.9091H486C486 64.1002 485.84 63.31 485.439 62.6081L482.834 64.0965ZM483 64.9091C483 65.2559 482.924 65.5209 482.799 65.741L485.406 67.2249C485.811 66.5132 486 65.729 486 64.9091H483ZM482.799 65.741C482.711 65.8947 482.548 66.0716 482.201 66.2369L483.492 68.9449C484.289 68.5648 484.963 68.003 485.406 67.2249L482.799 65.741ZM482.201 66.2369C481.9 66.3804 481.399 66.5 480.614 66.5V69.5C481.661 69.5 482.649 69.3468 483.492 68.9449L482.201 66.2369ZM480.614 66.5H476.409V69.5H480.614V66.5ZM477.818 68.25H480.614V65.25H477.818V68.25ZM480.614 68.25C481.652 68.25 482.782 68.0636 483.59 67.3189L481.557 65.1129C481.585 65.0877 481.559 65.1257 481.4 65.1692C481.238 65.2133 480.985 65.25 480.614 65.25V68.25ZM483.591 67.3185C484.276 66.6869 484.659 65.857 484.659 64.9091H481.659C481.659 64.9688 481.649 64.9948 481.644 65.0062C481.638 65.019 481.619 65.0556 481.557 65.1133L483.591 67.3185ZM484.659 64.9091C484.659 64.246 484.486 63.6143 484.143 63.0443L481.573 64.5921C481.631 64.6888 481.659 64.7843 481.659 64.9091H484.659ZM484.147 63.0507C483.797 62.4635 483.304 62.0114 482.714 61.692L481.286 64.3308C481.438 64.4129 481.517 64.4986 481.569 64.5857L484.147 63.0507ZM482.724 61.6976C482.091 61.3489 481.393 61.2045 480.682 61.2045V64.2045C480.986 64.2045 481.167 64.2648 481.276 64.3251L482.724 61.6976ZM480.682 61.2045H477.818V64.2045H480.682V61.2045ZM476.318 62.7045V66.75H479.318V62.7045H476.318ZM477.818 62.9773H480.432V59.9773H477.818V62.9773ZM480.432 62.9773C481.057 62.9773 481.669 62.8531 482.238 62.5748L480.921 59.8797C480.808 59.9348 480.655 59.9773 480.432 59.9773V62.9773ZM482.232 62.5777C482.806 62.3003 483.291 61.8908 483.648 61.3512L481.147 59.6943C481.103 59.7607 481.042 59.8209 480.927 59.8768L482.232 62.5777ZM483.641 61.3619C484.032 60.7821 484.205 60.1258 484.205 59.4545H481.205C481.205 59.6015 481.172 59.6573 481.154 59.6835L483.641 61.3619ZM484.205 59.4545C484.205 58.5523 483.873 57.735 483.231 57.0927L481.11 59.2141C481.18 59.284 481.205 59.3341 481.205 59.4545H484.205ZM483.237 57.0984C482.481 56.3342 481.443 56.1136 480.477 56.1136V59.1136C481.057 59.1136 481.148 59.2529 481.104 59.2084L483.237 57.0984ZM480.477 56.1136H477.818V59.1136H480.477V56.1136ZM476.318 57.6136V61.4773H479.318V57.6136H476.318Z" fill="white"/>
<path d="M476.409 68V56.3636H480.477C481.288 56.3636 481.956 56.5038 482.483 56.7841C483.009 57.0606 483.402 57.4337 483.659 57.9034C483.917 58.3693 484.045 58.8864 484.045 59.4545C484.045 59.9545 483.956 60.3674 483.778 60.6932C483.604 61.0189 483.373 61.2765 483.085 61.4659C482.801 61.6553 482.492 61.7955 482.159 61.8864V62C482.515 62.0227 482.873 62.1477 483.233 62.375C483.593 62.6023 483.894 62.928 484.136 63.3523C484.379 63.7765 484.5 64.2955 484.5 64.9091C484.5 65.4924 484.367 66.017 484.102 66.483C483.837 66.9489 483.419 67.3182 482.847 67.5909C482.275 67.8636 481.53 68 480.614 68H476.409ZM477.818 66.75H480.614C481.534 66.75 482.188 66.572 482.574 66.2159C482.964 65.8561 483.159 65.4205 483.159 64.9091C483.159 64.5152 483.059 64.1515 482.858 63.8182C482.657 63.4811 482.371 63.2121 482 63.0114C481.629 62.8068 481.189 62.7045 480.682 62.7045H477.818V66.75ZM477.818 61.4773H480.432C480.856 61.4773 481.239 61.3939 481.58 61.2273C481.924 61.0606 482.197 60.8258 482.398 60.5227C482.602 60.2197 482.705 59.8636 482.705 59.4545C482.705 58.9432 482.527 58.5095 482.17 58.1534C481.814 57.7936 481.25 57.6136 480.477 57.6136H477.818V61.4773Z" fill="#616161"/>
<path d="M490.634 65.8182V76H489.401V67.1108H489.341L486.855 68.7614V67.5085L489.401 65.8182H490.634Z" fill="#616161"/>
<path d="M490.634 65.8182H492.134L490.634 64.3182V65.8182ZM490.634 76V77.5L492.134 76H490.634ZM489.401 76H487.901L489.401 77.5V76ZM489.401 67.1108H490.901L489.401 65.6108V67.1108ZM489.341 67.1108V65.6108L488.511 65.8612L489.341 67.1108ZM486.855 68.7614H485.355L487.685 70.011L486.855 68.7614ZM486.855 67.5085L486.025 66.2589L485.355 67.5085H486.855ZM489.401 65.8182V64.3182L488.571 64.5686L489.401 65.8182ZM489.134 65.8182V76H492.134V65.8182H489.134ZM490.634 74.5H489.401V77.5H490.634V74.5ZM490.901 76V67.1108H487.901V76H490.901ZM489.401 65.6108H489.341V68.6108H489.401V65.6108ZM488.511 65.8612L486.025 67.5118L487.685 70.011L490.171 68.3604L488.511 65.8612ZM488.355 68.7614V67.5085H485.355V68.7614H488.355ZM487.685 68.7581L490.23 67.0678L488.571 64.5686L486.025 66.2589L487.685 68.7581ZM489.401 67.3182H490.634V64.3182H489.401V67.3182Z" fill="white"/>
<path d="M490.634 65.8182V76H489.401V67.1108H489.341L486.855 68.7614V67.5085L489.401 65.8182H490.634Z" fill="#616161"/>
<path d="M96.5625 145.25C95.4375 145.25 94.4688 144.984 93.6563 144.453C92.8438 143.922 92.2188 143.19 91.7813 142.258C91.3438 141.326 91.125 140.26 91.125 139.062C91.125 137.844 91.349 136.768 91.7969 135.836C92.25 134.898 92.8802 134.167 93.6875 133.641C94.5 133.109 95.4479 132.844 96.5312 132.844C97.375 132.844 98.1354 133 98.8125 133.312C99.4896 133.625 100.044 134.062 100.477 134.625C100.909 135.187 101.177 135.844 101.281 136.594H99.4375C99.2969 136.047 98.9844 135.562 98.5 135.141C98.0208 134.714 97.375 134.5 96.5625 134.5C95.8438 134.5 95.2135 134.687 94.6719 135.062C94.1354 135.432 93.7161 135.956 93.4141 136.633C93.1172 137.305 92.9688 138.094 92.9688 139C92.9688 139.927 93.1146 140.734 93.4063 141.422C93.7031 142.109 94.1198 142.643 94.6563 143.023C95.1979 143.404 95.8333 143.594 96.5625 143.594C97.0417 143.594 97.4766 143.51 97.8672 143.344C98.2578 143.177 98.5885 142.938 98.8594 142.625C99.1302 142.312 99.3229 141.937 99.4375 141.5H101.281C101.177 142.208 100.919 142.846 100.508 143.414C100.102 143.977 99.5625 144.424 98.8906 144.758C98.224 145.086 97.4479 145.25 96.5625 145.25Z" fill="black"/>
<path d="M136.938 225V209H138.781V214.906H138.938C139.073 214.698 139.26 214.432 139.5 214.109C139.745 213.781 140.094 213.49 140.547 213.234C141.005 212.974 141.625 212.844 142.406 212.844C143.417 212.844 144.307 213.096 145.078 213.602C145.849 214.107 146.451 214.823 146.883 215.75C147.315 216.677 147.531 217.771 147.531 219.031C147.531 220.302 147.315 221.404 146.883 222.336C146.451 223.263 145.852 223.982 145.086 224.492C144.32 224.997 143.438 225.25 142.438 225.25C141.667 225.25 141.049 225.122 140.586 224.867C140.122 224.607 139.766 224.312 139.516 223.984C139.266 223.651 139.073 223.375 138.938 223.156H138.719V225H136.938ZM138.75 219C138.75 219.906 138.883 220.706 139.148 221.398C139.414 222.086 139.802 222.625 140.313 223.016C140.823 223.401 141.448 223.594 142.188 223.594C142.958 223.594 143.602 223.391 144.117 222.984C144.638 222.573 145.029 222.021 145.289 221.328C145.555 220.63 145.688 219.854 145.688 219C145.688 218.156 145.557 217.396 145.297 216.719C145.042 216.036 144.654 215.497 144.133 215.102C143.617 214.701 142.969 214.5 142.188 214.5C141.438 214.5 140.807 214.69 140.297 215.07C139.786 215.445 139.401 215.971 139.141 216.648C138.88 217.32 138.75 218.104 138.75 219Z" fill="black"/>
<path d="M211.219 147.281C210.458 147.281 209.768 147.138 209.148 146.852C208.529 146.56 208.036 146.141 207.672 145.594C207.307 145.042 207.125 144.375 207.125 143.594C207.125 142.906 207.26 142.349 207.531 141.922C207.802 141.49 208.164 141.151 208.617 140.906C209.07 140.661 209.57 140.479 210.117 140.359C210.669 140.234 211.224 140.135 211.781 140.063C212.51 139.969 213.102 139.898 213.555 139.852C214.013 139.799 214.346 139.714 214.555 139.594C214.768 139.474 214.875 139.266 214.875 138.969V138.906C214.875 138.135 214.664 137.536 214.242 137.109C213.826 136.682 213.193 136.469 212.344 136.469C211.464 136.469 210.773 136.661 210.273 137.047C209.773 137.432 209.422 137.844 209.219 138.281L207.469 137.656C207.781 136.927 208.198 136.359 208.719 135.953C209.245 135.542 209.818 135.255 210.438 135.094C211.063 134.927 211.677 134.844 212.281 134.844C212.667 134.844 213.109 134.891 213.609 134.984C214.115 135.073 214.602 135.258 215.07 135.539C215.544 135.82 215.938 136.245 216.25 136.812C216.563 137.38 216.719 138.141 216.719 139.094V147H214.875V145.375H214.781C214.656 145.635 214.448 145.914 214.156 146.211C213.865 146.508 213.477 146.76 212.992 146.969C212.508 147.177 211.917 147.281 211.219 147.281ZM211.5 145.625C212.229 145.625 212.844 145.482 213.344 145.195C213.849 144.909 214.229 144.539 214.484 144.086C214.745 143.633 214.875 143.156 214.875 142.656V140.969C214.797 141.062 214.625 141.148 214.359 141.227C214.099 141.299 213.797 141.365 213.453 141.422C213.115 141.474 212.784 141.521 212.461 141.562C212.143 141.599 211.885 141.63 211.688 141.656C211.208 141.719 210.76 141.82 210.344 141.961C209.932 142.096 209.599 142.302 209.344 142.578C209.094 142.849 208.969 143.219 208.969 143.687C208.969 144.328 209.206 144.812 209.68 145.141C210.159 145.464 210.766 145.625 211.5 145.625Z" fill="black"/>
<path d="M383.563 130.25C382.438 130.25 381.469 129.984 380.656 129.453C379.844 128.922 379.219 128.19 378.781 127.258C378.344 126.326 378.125 125.26 378.125 124.062C378.125 122.844 378.349 121.768 378.797 120.836C379.25 119.898 379.88 119.167 380.688 118.641C381.5 118.109 382.448 117.844 383.531 117.844C384.375 117.844 385.135 118 385.813 118.312C386.49 118.625 387.044 119.062 387.477 119.625C387.909 120.187 388.177 120.844 388.281 121.594H386.438C386.297 121.047 385.984 120.562 385.5 120.141C385.021 119.714 384.375 119.5 383.563 119.5C382.844 119.5 382.214 119.687 381.672 120.062C381.135 120.432 380.716 120.956 380.414 121.633C380.117 122.305 379.969 123.094 379.969 124C379.969 124.927 380.115 125.734 380.406 126.422C380.703 127.109 381.12 127.643 381.656 128.023C382.198 128.404 382.833 128.594 383.563 128.594C384.042 128.594 384.477 128.51 384.867 128.344C385.258 128.177 385.589 127.938 385.859 127.625C386.13 127.312 386.323 126.937 386.438 126.5H388.281C388.177 127.208 387.919 127.846 387.508 128.414C387.102 128.977 386.563 129.424 385.891 129.758C385.224 130.086 384.448 130.25 383.563 130.25Z" fill="black"/>
<path d="M481.219 150.281C480.458 150.281 479.768 150.138 479.148 149.852C478.529 149.56 478.036 149.141 477.672 148.594C477.307 148.042 477.125 147.375 477.125 146.594C477.125 145.906 477.26 145.349 477.531 144.922C477.802 144.49 478.164 144.151 478.617 143.906C479.07 143.661 479.57 143.479 480.117 143.359C480.669 143.234 481.224 143.135 481.781 143.063C482.51 142.969 483.102 142.898 483.555 142.852C484.013 142.799 484.346 142.714 484.555 142.594C484.768 142.474 484.875 142.266 484.875 141.969V141.906C484.875 141.135 484.664 140.536 484.242 140.109C483.826 139.682 483.193 139.469 482.344 139.469C481.464 139.469 480.773 139.661 480.273 140.047C479.773 140.432 479.422 140.844 479.219 141.281L477.469 140.656C477.781 139.927 478.198 139.359 478.719 138.953C479.245 138.542 479.818 138.255 480.438 138.094C481.063 137.927 481.677 137.844 482.281 137.844C482.667 137.844 483.109 137.891 483.609 137.984C484.115 138.073 484.602 138.258 485.07 138.539C485.544 138.82 485.938 139.245 486.25 139.812C486.563 140.38 486.719 141.141 486.719 142.094V150H484.875V148.375H484.781C484.656 148.635 484.448 148.914 484.156 149.211C483.865 149.508 483.477 149.76 482.992 149.969C482.508 150.177 481.917 150.281 481.219 150.281ZM481.5 148.625C482.229 148.625 482.844 148.482 483.344 148.195C483.849 147.909 484.229 147.539 484.484 147.086C484.745 146.633 484.875 146.156 484.875 145.656V143.969C484.797 144.062 484.625 144.148 484.359 144.227C484.099 144.299 483.797 144.365 483.453 144.422C483.115 144.474 482.784 144.521 482.461 144.562C482.143 144.599 481.885 144.63 481.688 144.656C481.208 144.719 480.76 144.82 480.344 144.961C479.932 145.096 479.599 145.302 479.344 145.578C479.094 145.849 478.969 146.219 478.969 146.687C478.969 147.328 479.206 147.812 479.68 148.141C480.159 148.464 480.766 148.625 481.5 148.625Z" fill="black"/>
<path d="M388.938 225V209H390.781V214.906H390.938C391.073 214.698 391.26 214.432 391.5 214.109C391.745 213.781 392.094 213.49 392.547 213.234C393.005 212.974 393.625 212.844 394.406 212.844C395.417 212.844 396.307 213.096 397.078 213.602C397.849 214.107 398.451 214.823 398.883 215.75C399.315 216.677 399.531 217.771 399.531 219.031C399.531 220.302 399.315 221.404 398.883 222.336C398.451 223.263 397.852 223.982 397.086 224.492C396.32 224.997 395.438 225.25 394.438 225.25C393.667 225.25 393.049 225.122 392.586 224.867C392.122 224.607 391.766 224.312 391.516 223.984C391.266 223.651 391.073 223.375 390.938 223.156H390.719V225H388.938ZM390.75 219C390.75 219.906 390.883 220.706 391.148 221.398C391.414 222.086 391.802 222.625 392.313 223.016C392.823 223.401 393.448 223.594 394.188 223.594C394.958 223.594 395.602 223.391 396.117 222.984C396.638 222.573 397.029 222.021 397.289 221.328C397.555 220.63 397.688 219.854 397.688 219C397.688 218.156 397.557 217.396 397.297 216.719C397.042 216.036 396.654 215.497 396.133 215.102C395.617 214.701 394.969 214.5 394.188 214.5C393.438 214.5 392.807 214.69 392.297 215.07C391.786 215.445 391.401 215.971 391.141 216.648C390.88 217.32 390.75 218.104 390.75 219Z" fill="black"/>
</g>
<defs>
<clipPath id="clip0_402_962">
<rect width="560" height="280" fill="white"/>
</clipPath>
</defs>
</svg>
