<svg width="490" height="490" viewBox="0 0 490 490" fill="none" xmlns="http://www.w3.org/2000/svg">
<g clip-path="url(#clip0_402_1165)">
<path d="M490 0H0V490H490V0Z" fill="white"/>
<path d="M100 390H390" stroke="#616161" stroke-opacity="0.8" stroke-width="2.5" stroke-miterlimit="10" stroke-linecap="round" stroke-linejoin="round"/>
<path d="M100 100H390" stroke="#616161" stroke-opacity="0.8" stroke-width="2.5" stroke-miterlimit="10" stroke-linecap="round" stroke-linejoin="round"/>
<path d="M100 100V390" stroke="#616161" stroke-opacity="0.8" stroke-width="2.5" stroke-miterlimit="10" stroke-linecap="round" stroke-linejoin="round"/>
<path d="M390 390V100" stroke="#616161" stroke-opacity="0.8" stroke-width="2.5" stroke-miterlimit="10" stroke-linecap="round" stroke-linejoin="round"/>
<path d="M100 390H225" stroke="#616161" stroke-opacity="0.8" stroke-width="2.5" stroke-miterlimit="10" stroke-linecap="round" stroke-linejoin="round"/>
<path d="M225 390V100" stroke="#616161" stroke-opacity="0.8" stroke-width="2.5" stroke-miterlimit="10" stroke-linecap="round" stroke-linejoin="round"/>
<path d="M100 265H390" stroke="#616161" stroke-opacity="0.8" stroke-width="2.5" stroke-miterlimit="10" stroke-linecap="round" stroke-linejoin="round"/>
<path d="M304.938 89V73H306.781V78.9062H306.938C307.073 78.6979 307.26 78.4323 307.5 78.1094C307.745 77.7812 308.094 77.4896 308.547 77.2344C309.005 76.974 309.625 76.8438 310.406 76.8438C311.417 76.8438 312.307 77.0964 313.078 77.6016C313.849 78.1068 314.451 78.8229 314.883 79.75C315.315 80.6771 315.531 81.7708 315.531 83.0313C315.531 84.3021 315.315 85.4036 314.883 86.3359C314.451 87.263 313.852 87.9818 313.086 88.4922C312.32 88.9974 311.438 89.25 310.438 89.25C309.667 89.25 309.049 89.1224 308.586 88.8672C308.122 88.6068 307.766 88.3125 307.516 87.9844C307.266 87.651 307.073 87.375 306.938 87.1562H306.719V89H304.938ZM306.75 83C306.75 83.9062 306.883 84.7057 307.148 85.3984C307.414 86.0859 307.802 86.625 308.313 87.0156C308.823 87.401 309.448 87.5938 310.188 87.5938C310.958 87.5938 311.602 87.3906 312.117 86.9844C312.638 86.5729 313.029 86.0208 313.289 85.3281C313.555 84.6302 313.688 83.8542 313.688 83C313.688 82.1562 313.557 81.3958 313.297 80.7187C313.042 80.0365 312.654 79.4974 312.133 79.1016C311.617 78.7005 310.969 78.5 310.188 78.5C309.438 78.5 308.807 78.6901 308.297 79.0703C307.786 79.4453 307.401 79.9714 307.141 80.6484C306.88 81.3203 306.75 82.1042 306.75 83Z" fill="black"/>
<path d="M402.938 197V181H404.781V186.906H404.938C405.073 186.698 405.26 186.432 405.5 186.109C405.745 185.781 406.094 185.49 406.547 185.234C407.005 184.974 407.625 184.844 408.406 184.844C409.417 184.844 410.307 185.096 411.078 185.602C411.849 186.107 412.451 186.823 412.883 187.75C413.315 188.677 413.531 189.771 413.531 191.031C413.531 192.302 413.315 193.404 412.883 194.336C412.451 195.263 411.852 195.982 411.086 196.492C410.32 196.997 409.438 197.25 408.438 197.25C407.667 197.25 407.049 197.122 406.586 196.867C406.122 196.607 405.766 196.312 405.516 195.984C405.266 195.651 405.073 195.375 404.938 195.156H404.719V197H402.938ZM404.75 191C404.75 191.906 404.883 192.706 405.148 193.398C405.414 194.086 405.802 194.625 406.313 195.016C406.823 195.401 407.448 195.594 408.188 195.594C408.958 195.594 409.602 195.391 410.117 194.984C410.638 194.573 411.029 194.021 411.289 193.328C411.555 192.63 411.688 191.854 411.688 191C411.688 190.156 411.557 189.396 411.297 188.719C411.042 188.036 410.654 187.497 410.133 187.102C409.617 186.701 408.969 186.5 408.188 186.5C407.438 186.5 406.807 186.69 406.297 187.07C405.786 187.445 405.401 187.971 405.141 188.648C404.88 189.32 404.75 190.104 404.75 191Z" fill="black"/>
<path d="M86.9375 199V183H88.7812V188.906H88.9375C89.0729 188.698 89.2604 188.432 89.5 188.109C89.7448 187.781 90.0938 187.49 90.5469 187.234C91.0052 186.974 91.625 186.844 92.4063 186.844C93.4167 186.844 94.3073 187.096 95.0781 187.602C95.849 188.107 96.4505 188.823 96.8828 189.75C97.3151 190.677 97.5313 191.771 97.5313 193.031C97.5313 194.302 97.3151 195.404 96.8828 196.336C96.4505 197.263 95.8516 197.982 95.0859 198.492C94.3203 198.997 93.4375 199.25 92.4375 199.25C91.6667 199.25 91.0495 199.122 90.5859 198.867C90.1224 198.607 89.7656 198.312 89.5156 197.984C89.2656 197.651 89.0729 197.375 88.9375 197.156H88.7188V199H86.9375ZM88.75 193C88.75 193.906 88.8828 194.706 89.1484 195.398C89.4141 196.086 89.8021 196.625 90.3125 197.016C90.8229 197.401 91.4479 197.594 92.1875 197.594C92.9583 197.594 93.6016 197.391 94.1172 196.984C94.638 196.573 95.0286 196.021 95.2891 195.328C95.5547 194.63 95.6875 193.854 95.6875 193C95.6875 192.156 95.5573 191.396 95.2969 190.719C95.0417 190.036 94.6536 189.497 94.1328 189.102C93.6172 188.701 92.9688 188.5 92.1875 188.5C91.4375 188.5 90.8073 188.69 90.2969 189.07C89.7865 189.445 89.401 189.971 89.1406 190.648C88.8802 191.32 88.75 192.104 88.75 193Z" fill="black"/>
<path d="M308.938 410V394H310.781V399.906H310.938C311.073 399.698 311.26 399.432 311.5 399.109C311.745 398.781 312.094 398.49 312.547 398.234C313.005 397.974 313.625 397.844 314.406 397.844C315.417 397.844 316.307 398.096 317.078 398.602C317.849 399.107 318.451 399.823 318.883 400.75C319.315 401.677 319.531 402.771 319.531 404.031C319.531 405.302 319.315 406.404 318.883 407.336C318.451 408.263 317.852 408.982 317.086 409.492C316.32 409.997 315.438 410.25 314.438 410.25C313.667 410.25 313.049 410.122 312.586 409.867C312.122 409.607 311.766 409.312 311.516 408.984C311.266 408.651 311.073 408.375 310.938 408.156H310.719V410H308.938ZM310.75 404C310.75 404.906 310.883 405.706 311.148 406.398C311.414 407.086 311.802 407.625 312.313 408.016C312.823 408.401 313.448 408.594 314.188 408.594C314.958 408.594 315.602 408.391 316.117 407.984C316.638 407.573 317.029 407.021 317.289 406.328C317.555 405.63 317.688 404.854 317.688 404C317.688 403.156 317.557 402.396 317.297 401.719C317.042 401.036 316.654 400.497 316.133 400.102C315.617 399.701 314.969 399.5 314.188 399.5C313.438 399.5 312.807 399.69 312.297 400.07C311.786 400.445 311.401 400.971 311.141 401.648C310.88 402.32 310.75 403.104 310.75 404Z" fill="black"/>
<path d="M162.219 89.2813C161.458 89.2813 160.768 89.138 160.148 88.8516C159.529 88.5599 159.036 88.1406 158.672 87.5938C158.307 87.0417 158.125 86.375 158.125 85.5937C158.125 84.9062 158.26 84.349 158.531 83.9219C158.802 83.4896 159.164 83.151 159.617 82.9062C160.07 82.6615 160.57 82.4792 161.117 82.3594C161.669 82.2344 162.224 82.1354 162.781 82.0625C163.51 81.9687 164.102 81.8984 164.555 81.8516C165.013 81.7995 165.346 81.7135 165.555 81.5937C165.768 81.474 165.875 81.2656 165.875 80.9687V80.9062C165.875 80.1354 165.664 79.5365 165.242 79.1094C164.826 78.6823 164.193 78.4687 163.344 78.4687C162.464 78.4687 161.773 78.6615 161.273 79.0469C160.773 79.4323 160.422 79.8437 160.219 80.2812L158.469 79.6562C158.781 78.9271 159.198 78.3594 159.719 77.9531C160.245 77.5417 160.818 77.2552 161.438 77.0937C162.063 76.9271 162.677 76.8438 163.281 76.8438C163.667 76.8438 164.109 76.8906 164.609 76.9844C165.115 77.0729 165.602 77.2578 166.07 77.5391C166.544 77.8203 166.938 78.2448 167.25 78.8125C167.563 79.3802 167.719 80.1406 167.719 81.0938V89H165.875V87.375H165.781C165.656 87.6354 165.448 87.9141 165.156 88.2109C164.865 88.5078 164.477 88.7604 163.992 88.9687C163.508 89.1771 162.917 89.2813 162.219 89.2813ZM162.5 87.625C163.229 87.625 163.844 87.4818 164.344 87.1953C164.849 86.9089 165.229 86.5391 165.484 86.0859C165.745 85.6328 165.875 85.1562 165.875 84.6562V82.9687C165.797 83.0625 165.625 83.1484 165.359 83.2266C165.099 83.2995 164.797 83.3646 164.453 83.4219C164.115 83.474 163.784 83.5208 163.461 83.5625C163.143 83.599 162.885 83.6302 162.688 83.6562C162.208 83.7187 161.76 83.8203 161.344 83.9609C160.932 84.0964 160.599 84.3021 160.344 84.5781C160.094 84.849 159.969 85.2187 159.969 85.6875C159.969 86.3281 160.206 86.8125 160.68 87.1406C161.159 87.4635 161.766 87.625 162.5 87.625Z" fill="black"/>
<path d="M403.219 334.281C402.458 334.281 401.768 334.138 401.148 333.852C400.529 333.56 400.036 333.141 399.672 332.594C399.307 332.042 399.125 331.375 399.125 330.594C399.125 329.906 399.26 329.349 399.531 328.922C399.802 328.49 400.164 328.151 400.617 327.906C401.07 327.661 401.57 327.479 402.117 327.359C402.669 327.234 403.224 327.135 403.781 327.063C404.51 326.969 405.102 326.898 405.555 326.852C406.013 326.799 406.346 326.714 406.555 326.594C406.768 326.474 406.875 326.266 406.875 325.969V325.906C406.875 325.135 406.664 324.536 406.242 324.109C405.826 323.682 405.193 323.469 404.344 323.469C403.464 323.469 402.773 323.661 402.273 324.047C401.773 324.432 401.422 324.844 401.219 325.281L399.469 324.656C399.781 323.927 400.198 323.359 400.719 322.953C401.245 322.542 401.818 322.255 402.438 322.094C403.063 321.927 403.677 321.844 404.281 321.844C404.667 321.844 405.109 321.891 405.609 321.984C406.115 322.073 406.602 322.258 407.07 322.539C407.544 322.82 407.938 323.245 408.25 323.812C408.563 324.38 408.719 325.141 408.719 326.094V334H406.875V332.375H406.781C406.656 332.635 406.448 332.914 406.156 333.211C405.865 333.508 405.477 333.76 404.992 333.969C404.508 334.177 403.917 334.281 403.219 334.281ZM403.5 332.625C404.229 332.625 404.844 332.482 405.344 332.195C405.849 331.909 406.229 331.539 406.484 331.086C406.745 330.633 406.875 330.156 406.875 329.656V327.969C406.797 328.062 406.625 328.148 406.359 328.227C406.099 328.299 405.797 328.365 405.453 328.422C405.115 328.474 404.784 328.521 404.461 328.562C404.143 328.599 403.885 328.63 403.688 328.656C403.208 328.719 402.76 328.82 402.344 328.961C401.932 329.096 401.599 329.302 401.344 329.578C401.094 329.849 400.969 330.219 400.969 330.687C400.969 331.328 401.206 331.812 401.68 332.141C402.159 332.464 402.766 332.625 403.5 332.625Z" fill="black"/>
<path d="M88.2188 342.281C87.4583 342.281 86.7682 342.138 86.1484 341.852C85.5286 341.56 85.0365 341.141 84.6719 340.594C84.3073 340.042 84.125 339.375 84.125 338.594C84.125 337.906 84.2604 337.349 84.5313 336.922C84.8021 336.49 85.1641 336.151 85.6172 335.906C86.0703 335.661 86.5703 335.479 87.1172 335.359C87.6693 335.234 88.224 335.135 88.7813 335.063C89.5104 334.969 90.1016 334.898 90.5547 334.852C91.013 334.799 91.3464 334.714 91.5547 334.594C91.7682 334.474 91.875 334.266 91.875 333.969V333.906C91.875 333.135 91.6641 332.536 91.2422 332.109C90.8255 331.682 90.1927 331.469 89.3438 331.469C88.4635 331.469 87.7734 331.661 87.2734 332.047C86.7734 332.432 86.4219 332.844 86.2188 333.281L84.4688 332.656C84.7813 331.927 85.1979 331.359 85.7188 330.953C86.2448 330.542 86.8177 330.255 87.4375 330.094C88.0625 329.927 88.6771 329.844 89.2813 329.844C89.6667 329.844 90.1094 329.891 90.6094 329.984C91.1146 330.073 91.6016 330.258 92.0703 330.539C92.5443 330.82 92.9375 331.245 93.25 331.812C93.5625 332.38 93.7188 333.141 93.7188 334.094V342H91.875V340.375H91.7813C91.6563 340.635 91.4479 340.914 91.1563 341.211C90.8646 341.508 90.4766 341.76 89.9922 341.969C89.5078 342.177 88.9167 342.281 88.2188 342.281ZM88.5 340.625C89.2292 340.625 89.8438 340.482 90.3438 340.195C90.849 339.909 91.2292 339.539 91.4844 339.086C91.7448 338.633 91.875 338.156 91.875 337.656V335.969C91.7969 336.062 91.625 336.148 91.3594 336.227C91.099 336.299 90.7969 336.365 90.4531 336.422C90.1146 336.474 89.7839 336.521 89.4609 336.562C89.1432 336.599 88.8854 336.63 88.6875 336.656C88.2083 336.719 87.7604 336.82 87.3438 336.961C86.9323 337.096 86.599 337.302 86.3438 337.578C86.0938 337.849 85.9688 338.219 85.9688 338.687C85.9688 339.328 86.2057 339.812 86.6797 340.141C87.1589 340.464 87.7656 340.625 88.5 340.625Z" fill="black"/>
<path d="M162.219 406.281C161.458 406.281 160.768 406.138 160.148 405.852C159.529 405.56 159.036 405.141 158.672 404.594C158.307 404.042 158.125 403.375 158.125 402.594C158.125 401.906 158.26 401.349 158.531 400.922C158.802 400.49 159.164 400.151 159.617 399.906C160.07 399.661 160.57 399.479 161.117 399.359C161.669 399.234 162.224 399.135 162.781 399.063C163.51 398.969 164.102 398.898 164.555 398.852C165.013 398.799 165.346 398.714 165.555 398.594C165.768 398.474 165.875 398.266 165.875 397.969V397.906C165.875 397.135 165.664 396.536 165.242 396.109C164.826 395.682 164.193 395.469 163.344 395.469C162.464 395.469 161.773 395.661 161.273 396.047C160.773 396.432 160.422 396.844 160.219 397.281L158.469 396.656C158.781 395.927 159.198 395.359 159.719 394.953C160.245 394.542 160.818 394.255 161.438 394.094C162.063 393.927 162.677 393.844 163.281 393.844C163.667 393.844 164.109 393.891 164.609 393.984C165.115 394.073 165.602 394.258 166.07 394.539C166.544 394.82 166.938 395.245 167.25 395.812C167.563 396.38 167.719 397.141 167.719 398.094V406H165.875V404.375H165.781C165.656 404.635 165.448 404.914 165.156 405.211C164.865 405.508 164.477 405.76 163.992 405.969C163.508 406.177 162.917 406.281 162.219 406.281ZM162.5 404.625C163.229 404.625 163.844 404.482 164.344 404.195C164.849 403.909 165.229 403.539 165.484 403.086C165.745 402.633 165.875 402.156 165.875 401.656V399.969C165.797 400.062 165.625 400.148 165.359 400.227C165.099 400.299 164.797 400.365 164.453 400.422C164.115 400.474 163.784 400.521 163.461 400.562C163.143 400.599 162.885 400.63 162.688 400.656C162.208 400.719 161.76 400.82 161.344 400.961C160.932 401.096 160.599 401.302 160.344 401.578C160.094 401.849 159.969 402.219 159.969 402.687C159.969 403.328 160.206 403.812 160.68 404.141C161.159 404.464 161.766 404.625 162.5 404.625Z" fill="black"/>
<path d="M154.219 191.281C153.458 191.281 152.768 191.138 152.148 190.852C151.529 190.56 151.036 190.141 150.672 189.594C150.307 189.042 150.125 188.375 150.125 187.594C150.125 186.906 150.26 186.349 150.531 185.922C150.802 185.49 151.164 185.151 151.617 184.906C152.07 184.661 152.57 184.479 153.117 184.359C153.669 184.234 154.224 184.135 154.781 184.063C155.51 183.969 156.102 183.898 156.555 183.852C157.013 183.799 157.346 183.714 157.555 183.594C157.768 183.474 157.875 183.266 157.875 182.969V182.906C157.875 182.135 157.664 181.536 157.242 181.109C156.826 180.682 156.193 180.469 155.344 180.469C154.464 180.469 153.773 180.661 153.273 181.047C152.773 181.432 152.422 181.844 152.219 182.281L150.469 181.656C150.781 180.927 151.198 180.359 151.719 179.953C152.245 179.542 152.818 179.255 153.438 179.094C154.063 178.927 154.677 178.844 155.281 178.844C155.667 178.844 156.109 178.891 156.609 178.984C157.115 179.073 157.602 179.258 158.07 179.539C158.544 179.82 158.938 180.245 159.25 180.812C159.563 181.38 159.719 182.141 159.719 183.094V191H157.875V189.375H157.781C157.656 189.635 157.448 189.914 157.156 190.211C156.865 190.508 156.477 190.76 155.992 190.969C155.508 191.177 154.917 191.281 154.219 191.281ZM154.5 189.625C155.229 189.625 155.844 189.482 156.344 189.195C156.849 188.909 157.229 188.539 157.484 188.086C157.745 187.633 157.875 187.156 157.875 186.656V184.969C157.797 185.062 157.625 185.148 157.359 185.227C157.099 185.299 156.797 185.365 156.453 185.422C156.115 185.474 155.784 185.521 155.461 185.562C155.143 185.599 154.885 185.63 154.688 185.656C154.208 185.719 153.76 185.82 153.344 185.961C152.932 186.096 152.599 186.302 152.344 186.578C152.094 186.849 151.969 187.219 151.969 187.687C151.969 188.328 152.206 188.812 152.68 189.141C153.159 189.464 153.766 189.625 154.5 189.625ZM163.334 191V175H165.178V180.906H165.334C165.469 180.698 165.657 180.432 165.896 180.109C166.141 179.781 166.49 179.49 166.943 179.234C167.402 178.974 168.021 178.844 168.803 178.844C169.813 178.844 170.704 179.096 171.475 179.602C172.245 180.107 172.847 180.823 173.279 181.75C173.712 182.677 173.928 183.771 173.928 185.031C173.928 186.302 173.712 187.404 173.279 188.336C172.847 189.263 172.248 189.982 171.482 190.492C170.717 190.997 169.834 191.25 168.834 191.25C168.063 191.25 167.446 191.122 166.982 190.867C166.519 190.607 166.162 190.312 165.912 189.984C165.662 189.651 165.469 189.375 165.334 189.156H165.115V191H163.334ZM165.146 185C165.146 185.906 165.279 186.706 165.545 187.398C165.811 188.086 166.199 188.625 166.709 189.016C167.219 189.401 167.844 189.594 168.584 189.594C169.355 189.594 169.998 189.391 170.514 188.984C171.035 188.573 171.425 188.021 171.686 187.328C171.951 186.63 172.084 185.854 172.084 185C172.084 184.156 171.954 183.396 171.693 182.719C171.438 182.036 171.05 181.497 170.529 181.102C170.014 180.701 169.365 180.5 168.584 180.5C167.834 180.5 167.204 180.69 166.693 181.07C166.183 181.445 165.798 181.971 165.537 182.648C165.277 183.32 165.146 184.104 165.146 185Z" fill="#FF0000"/>
<path d="M303.938 194V178H305.781V183.906H305.938C306.073 183.698 306.26 183.432 306.5 183.109C306.745 182.781 307.094 182.49 307.547 182.234C308.005 181.974 308.625 181.844 309.406 181.844C310.417 181.844 311.307 182.096 312.078 182.602C312.849 183.107 313.451 183.823 313.883 184.75C314.315 185.677 314.531 186.771 314.531 188.031C314.531 189.302 314.315 190.404 313.883 191.336C313.451 192.263 312.852 192.982 312.086 193.492C311.32 193.997 310.438 194.25 309.438 194.25C308.667 194.25 308.049 194.122 307.586 193.867C307.122 193.607 306.766 193.312 306.516 192.984C306.266 192.651 306.073 192.375 305.938 192.156H305.719V194H303.938ZM305.75 188C305.75 188.906 305.883 189.706 306.148 190.398C306.414 191.086 306.802 191.625 307.313 192.016C307.823 192.401 308.448 192.594 309.188 192.594C309.958 192.594 310.602 192.391 311.117 191.984C311.638 191.573 312.029 191.021 312.289 190.328C312.555 189.63 312.688 188.854 312.688 188C312.688 187.156 312.557 186.396 312.297 185.719C312.042 185.036 311.654 184.497 311.133 184.102C310.617 183.701 309.969 183.5 309.188 183.5C308.438 183.5 307.807 183.69 307.297 184.07C306.786 184.445 306.401 184.971 306.141 185.648C305.88 186.32 305.75 187.104 305.75 188ZM316.758 186V184.781L320.414 181.531C320.779 181.208 321.083 180.919 321.328 180.664C321.573 180.409 321.758 180.161 321.883 179.922C322.008 179.682 322.07 179.427 322.07 179.156C322.07 178.687 321.891 178.315 321.531 178.039C321.172 177.763 320.727 177.625 320.195 177.625C319.633 177.625 319.18 177.776 318.836 178.078C318.492 178.375 318.32 178.766 318.32 179.25H316.695C316.695 178.359 317.026 177.643 317.688 177.102C318.349 176.555 319.195 176.281 320.227 176.281C320.914 176.281 321.518 176.406 322.039 176.656C322.56 176.901 322.966 177.24 323.258 177.672C323.549 178.099 323.695 178.583 323.695 179.125C323.695 179.552 323.609 179.948 323.438 180.312C323.266 180.677 322.997 181.055 322.633 181.445C322.268 181.836 321.799 182.281 321.227 182.781L319.195 184.562V184.625H323.977V186H316.758Z" fill="#FF0000"/>
<path d="M160.219 338.281C159.458 338.281 158.768 338.138 158.148 337.852C157.529 337.56 157.036 337.141 156.672 336.594C156.307 336.042 156.125 335.375 156.125 334.594C156.125 333.906 156.26 333.349 156.531 332.922C156.802 332.49 157.164 332.151 157.617 331.906C158.07 331.661 158.57 331.479 159.117 331.359C159.669 331.234 160.224 331.135 160.781 331.063C161.51 330.969 162.102 330.898 162.555 330.852C163.013 330.799 163.346 330.714 163.555 330.594C163.768 330.474 163.875 330.266 163.875 329.969V329.906C163.875 329.135 163.664 328.536 163.242 328.109C162.826 327.682 162.193 327.469 161.344 327.469C160.464 327.469 159.773 327.661 159.273 328.047C158.773 328.432 158.422 328.844 158.219 329.281L156.469 328.656C156.781 327.927 157.198 327.359 157.719 326.953C158.245 326.542 158.818 326.255 159.438 326.094C160.063 325.927 160.677 325.844 161.281 325.844C161.667 325.844 162.109 325.891 162.609 325.984C163.115 326.073 163.602 326.258 164.07 326.539C164.544 326.82 164.938 327.245 165.25 327.812C165.563 328.38 165.719 329.141 165.719 330.094V338H163.875V336.375H163.781C163.656 336.635 163.448 336.914 163.156 337.211C162.865 337.508 162.477 337.76 161.992 337.969C161.508 338.177 160.917 338.281 160.219 338.281ZM160.5 336.625C161.229 336.625 161.844 336.482 162.344 336.195C162.849 335.909 163.229 335.539 163.484 335.086C163.745 334.633 163.875 334.156 163.875 333.656V331.969C163.797 332.062 163.625 332.148 163.359 332.227C163.099 332.299 162.797 332.365 162.453 332.422C162.115 332.474 161.784 332.521 161.461 332.562C161.143 332.599 160.885 332.63 160.688 332.656C160.208 332.719 159.76 332.82 159.344 332.961C158.932 333.096 158.599 333.302 158.344 333.578C158.094 333.849 157.969 334.219 157.969 334.687C157.969 335.328 158.206 335.812 158.68 336.141C159.159 336.464 159.766 336.625 160.5 336.625ZM168.49 330V328.781L172.146 325.531C172.511 325.208 172.816 324.919 173.061 324.664C173.305 324.409 173.49 324.161 173.615 323.922C173.74 323.682 173.803 323.427 173.803 323.156C173.803 322.687 173.623 322.315 173.264 322.039C172.904 321.763 172.459 321.625 171.928 321.625C171.365 321.625 170.912 321.776 170.568 322.078C170.225 322.375 170.053 322.766 170.053 323.25H168.428C168.428 322.359 168.758 321.643 169.42 321.102C170.081 320.555 170.928 320.281 171.959 320.281C172.646 320.281 173.251 320.406 173.771 320.656C174.292 320.901 174.699 321.24 174.99 321.672C175.282 322.099 175.428 322.583 175.428 323.125C175.428 323.552 175.342 323.948 175.17 324.312C174.998 324.677 174.73 325.055 174.365 325.445C174.001 325.836 173.532 326.281 172.959 326.781L170.928 328.562V328.625H175.709V330H168.49Z" fill="#FF0000"/>
<path d="M305.219 334.281C304.458 334.281 303.768 334.138 303.148 333.852C302.529 333.56 302.036 333.141 301.672 332.594C301.307 332.042 301.125 331.375 301.125 330.594C301.125 329.906 301.26 329.349 301.531 328.922C301.802 328.49 302.164 328.151 302.617 327.906C303.07 327.661 303.57 327.479 304.117 327.359C304.669 327.234 305.224 327.135 305.781 327.063C306.51 326.969 307.102 326.898 307.555 326.852C308.013 326.799 308.346 326.714 308.555 326.594C308.768 326.474 308.875 326.266 308.875 325.969V325.906C308.875 325.135 308.664 324.536 308.242 324.109C307.826 323.682 307.193 323.469 306.344 323.469C305.464 323.469 304.773 323.661 304.273 324.047C303.773 324.432 303.422 324.844 303.219 325.281L301.469 324.656C301.781 323.927 302.198 323.359 302.719 322.953C303.245 322.542 303.818 322.255 304.438 322.094C305.063 321.927 305.677 321.844 306.281 321.844C306.667 321.844 307.109 321.891 307.609 321.984C308.115 322.073 308.602 322.258 309.07 322.539C309.544 322.82 309.938 323.245 310.25 323.812C310.563 324.38 310.719 325.141 310.719 326.094V334H308.875V332.375H308.781C308.656 332.635 308.448 332.914 308.156 333.211C307.865 333.508 307.477 333.76 306.992 333.969C306.508 334.177 305.917 334.281 305.219 334.281ZM305.5 332.625C306.229 332.625 306.844 332.482 307.344 332.195C307.849 331.909 308.229 331.539 308.484 331.086C308.745 330.633 308.875 330.156 308.875 329.656V327.969C308.797 328.062 308.625 328.148 308.359 328.227C308.099 328.299 307.797 328.365 307.453 328.422C307.115 328.474 306.784 328.521 306.461 328.562C306.143 328.599 305.885 328.63 305.688 328.656C305.208 328.719 304.76 328.82 304.344 328.961C303.932 329.096 303.599 329.302 303.344 329.578C303.094 329.849 302.969 330.219 302.969 330.687C302.969 331.328 303.206 331.812 303.68 332.141C304.159 332.464 304.766 332.625 305.5 332.625ZM314.334 334V318H316.178V323.906H316.334C316.469 323.698 316.657 323.432 316.896 323.109C317.141 322.781 317.49 322.49 317.943 322.234C318.402 321.974 319.021 321.844 319.803 321.844C320.813 321.844 321.704 322.096 322.475 322.602C323.245 323.107 323.847 323.823 324.279 324.75C324.712 325.677 324.928 326.771 324.928 328.031C324.928 329.302 324.712 330.404 324.279 331.336C323.847 332.263 323.248 332.982 322.482 333.492C321.717 333.997 320.834 334.25 319.834 334.25C319.063 334.25 318.446 334.122 317.982 333.867C317.519 333.607 317.162 333.312 316.912 332.984C316.662 332.651 316.469 332.375 316.334 332.156H316.115V334H314.334ZM316.146 328C316.146 328.906 316.279 329.706 316.545 330.398C316.811 331.086 317.199 331.625 317.709 332.016C318.219 332.401 318.844 332.594 319.584 332.594C320.355 332.594 320.998 332.391 321.514 331.984C322.035 331.573 322.425 331.021 322.686 330.328C322.951 329.63 323.084 328.854 323.084 328C323.084 327.156 322.954 326.396 322.693 325.719C322.438 325.036 322.05 324.497 321.529 324.102C321.014 323.701 320.365 323.5 319.584 323.5C318.834 323.5 318.204 323.69 317.693 324.07C317.183 324.445 316.798 324.971 316.537 325.648C316.277 326.32 316.146 327.104 316.146 328Z" fill="#FF0000"/>
</g>
<defs>
<clipPath id="clip0_402_1165">
<rect width="490" height="490" fill="white"/>
</clipPath>
</defs>
</svg>
