<svg width="238" height="238" viewBox="0 0 238 238" fill="none" xmlns="http://www.w3.org/2000/svg">
<g clip-path="url(#clip0_402_947)">
<path d="M238 0H0V238H238V0Z" fill="white"/>
<path fill-rule="evenodd" clip-rule="evenodd" d="M68.45 201.606L89.6605 201.269L89.3238 180.059L68.1133 180.395L68.45 201.606Z" fill="black" fill-opacity="0.0980392"/>
<path d="M68.45 201.606L89.6605 201.269L89.3238 180.059L68.1133 180.395L68.45 201.606Z" stroke="black" stroke-opacity="0.6" stroke-width="2" stroke-miterlimit="10" stroke-linecap="round" stroke-linejoin="round"/>
<path d="M68.373 202.008L194.373 200.008" stroke="#616161" stroke-opacity="0.8" stroke-width="2.5" stroke-miterlimit="10" stroke-linecap="round" stroke-linejoin="round"/>
<path d="M66.373 35.9783L195.008 200" stroke="#616161" stroke-opacity="0.8" stroke-width="2.5" stroke-miterlimit="10" stroke-linecap="round" stroke-linejoin="round"/>
<path d="M69.0024 201.518L66.3672 35.4961" stroke="#616161" stroke-opacity="0.8" stroke-width="2.5" stroke-miterlimit="10" stroke-linecap="round" stroke-linejoin="round"/>
<path d="M149.563 116.25C148.438 116.25 147.469 115.984 146.656 115.453C145.844 114.922 145.219 114.19 144.781 113.258C144.344 112.326 144.125 111.26 144.125 110.062C144.125 108.844 144.349 107.768 144.797 106.836C145.25 105.898 145.88 105.167 146.688 104.641C147.5 104.109 148.448 103.844 149.531 103.844C150.375 103.844 151.135 104 151.813 104.312C152.49 104.625 153.044 105.062 153.477 105.625C153.909 106.187 154.177 106.844 154.281 107.594H152.438C152.297 107.047 151.984 106.562 151.5 106.141C151.021 105.714 150.375 105.5 149.563 105.5C148.844 105.5 148.214 105.687 147.672 106.062C147.135 106.432 146.716 106.956 146.414 107.633C146.117 108.305 145.969 109.094 145.969 110C145.969 110.927 146.115 111.734 146.406 112.422C146.703 113.109 147.12 113.643 147.656 114.023C148.198 114.404 148.833 114.594 149.563 114.594C150.042 114.594 150.477 114.51 150.867 114.344C151.258 114.177 151.589 113.938 151.859 113.625C152.13 113.312 152.323 112.937 152.438 112.5H154.281C154.177 113.208 153.919 113.846 153.508 114.414C153.102 114.977 152.563 115.424 151.891 115.758C151.224 116.086 150.448 116.25 149.563 116.25Z" fill="black"/>
<path d="M130.219 218.281C129.458 218.281 128.768 218.138 128.148 217.852C127.529 217.56 127.036 217.141 126.672 216.594C126.307 216.042 126.125 215.375 126.125 214.594C126.125 213.906 126.26 213.349 126.531 212.922C126.802 212.49 127.164 212.151 127.617 211.906C128.07 211.661 128.57 211.479 129.117 211.359C129.669 211.234 130.224 211.135 130.781 211.063C131.51 210.969 132.102 210.898 132.555 210.852C133.013 210.799 133.346 210.714 133.555 210.594C133.768 210.474 133.875 210.266 133.875 209.969V209.906C133.875 209.135 133.664 208.536 133.242 208.109C132.826 207.682 132.193 207.469 131.344 207.469C130.464 207.469 129.773 207.661 129.273 208.047C128.773 208.432 128.422 208.844 128.219 209.281L126.469 208.656C126.781 207.927 127.198 207.359 127.719 206.953C128.245 206.542 128.818 206.255 129.438 206.094C130.063 205.927 130.677 205.844 131.281 205.844C131.667 205.844 132.109 205.891 132.609 205.984C133.115 206.073 133.602 206.258 134.07 206.539C134.544 206.82 134.938 207.245 135.25 207.812C135.563 208.38 135.719 209.141 135.719 210.094V218H133.875V216.375H133.781C133.656 216.635 133.448 216.914 133.156 217.211C132.865 217.508 132.477 217.76 131.992 217.969C131.508 218.177 130.917 218.281 130.219 218.281ZM130.5 216.625C131.229 216.625 131.844 216.482 132.344 216.195C132.849 215.909 133.229 215.539 133.484 215.086C133.745 214.633 133.875 214.156 133.875 213.656V211.969C133.797 212.062 133.625 212.148 133.359 212.227C133.099 212.299 132.797 212.365 132.453 212.422C132.115 212.474 131.784 212.521 131.461 212.562C131.143 212.599 130.885 212.63 130.688 212.656C130.208 212.719 129.76 212.82 129.344 212.961C128.932 213.096 128.599 213.302 128.344 213.578C128.094 213.849 127.969 214.219 127.969 214.687C127.969 215.328 128.206 215.812 128.68 216.141C129.159 216.464 129.766 216.625 130.5 216.625Z" fill="black"/>
<path d="M49.9375 137V121H51.7812V126.906H51.9375C52.0729 126.698 52.2604 126.432 52.5 126.109C52.7448 125.781 53.0938 125.49 53.5469 125.234C54.0052 124.974 54.625 124.844 55.4063 124.844C56.4167 124.844 57.3073 125.096 58.0781 125.602C58.849 126.107 59.4505 126.823 59.8828 127.75C60.3151 128.677 60.5313 129.771 60.5313 131.031C60.5313 132.302 60.3151 133.404 59.8828 134.336C59.4505 135.263 58.8516 135.982 58.0859 136.492C57.3203 136.997 56.4375 137.25 55.4375 137.25C54.6667 137.25 54.0495 137.122 53.5859 136.867C53.1224 136.607 52.7656 136.312 52.5156 135.984C52.2656 135.651 52.0729 135.375 51.9375 135.156H51.7188V137H49.9375ZM51.75 131C51.75 131.906 51.8828 132.706 52.1484 133.398C52.4141 134.086 52.8021 134.625 53.3125 135.016C53.8229 135.401 54.4479 135.594 55.1875 135.594C55.9583 135.594 56.6016 135.391 57.1172 134.984C57.638 134.573 58.0286 134.021 58.2891 133.328C58.5547 132.63 58.6875 131.854 58.6875 131C58.6875 130.156 58.5573 129.396 58.2969 128.719C58.0417 128.036 57.6536 127.497 57.1328 127.102C56.6172 126.701 55.9688 126.5 55.1875 126.5C54.4375 126.5 53.8073 126.69 53.2969 127.07C52.7865 127.445 52.401 127.971 52.1406 128.648C51.8802 129.32 51.75 130.104 51.75 131Z" fill="black"/>
</g>
<defs>
<clipPath id="clip0_402_947">
<rect width="238" height="238" fill="white"/>
</clipPath>
</defs>
</svg>
