<svg width="450" height="452" viewBox="0 0 450 452" fill="none" xmlns="http://www.w3.org/2000/svg">
<g clip-path="url(#clip0_402_1026)">
<path d="M450 0H0V452H450V0Z" fill="white"/>
<path fill-rule="evenodd" clip-rule="evenodd" d="M80 81V102.213H101.213V81H80Z" fill="black" fill-opacity="0.0980392"/>
<path d="M80 81V102.213H101.213V81H80Z" stroke="black" stroke-opacity="0.6" stroke-width="2" stroke-miterlimit="10" stroke-linecap="round" stroke-linejoin="round"/>
<path fill-rule="evenodd" clip-rule="evenodd" d="M80 371H101.213V349.787H80V371Z" fill="black" fill-opacity="0.0980392"/>
<path d="M80 371H101.213V349.787H80V371Z" stroke="black" stroke-opacity="0.6" stroke-width="2" stroke-miterlimit="10" stroke-linecap="round" stroke-linejoin="round"/>
<path fill-rule="evenodd" clip-rule="evenodd" d="M370 371V349.787H348.787V371H370Z" fill="black" fill-opacity="0.0980392"/>
<path d="M370 371V349.787H348.787V371H370Z" stroke="black" stroke-opacity="0.6" stroke-width="2" stroke-miterlimit="10" stroke-linecap="round" stroke-linejoin="round"/>
<path fill-rule="evenodd" clip-rule="evenodd" d="M370 81H348.787V102.213H370V81Z" fill="black" fill-opacity="0.0980392"/>
<path d="M370 81H348.787V102.213H370V81Z" stroke="black" stroke-opacity="0.6" stroke-width="2" stroke-miterlimit="10" stroke-linecap="round" stroke-linejoin="round"/>
<path fill-rule="evenodd" clip-rule="evenodd" d="M245.001 81L228.092 93.8098L240.902 110.719L257.81 97.9089L245.001 81Z" fill="black" fill-opacity="0.0980392"/>
<path d="M245.001 81L228.092 93.8098L240.902 110.719L257.81 97.9089L245.001 81Z" stroke="black" stroke-opacity="0.6" stroke-width="2" stroke-miterlimit="10" stroke-linecap="round" stroke-linejoin="round"/>
<path fill-rule="evenodd" clip-rule="evenodd" d="M370 246L357.19 229.091L340.281 241.901L353.091 258.81L370 246Z" fill="black" fill-opacity="0.0980392"/>
<path d="M370 246L357.19 229.091L340.281 241.901L353.091 258.81L370 246Z" stroke="black" stroke-opacity="0.6" stroke-width="2" stroke-miterlimit="10" stroke-linecap="round" stroke-linejoin="round"/>
<path fill-rule="evenodd" clip-rule="evenodd" d="M80 206L92.8098 222.909L109.719 210.099L96.9089 193.19L80 206Z" fill="black" fill-opacity="0.0980392"/>
<path d="M80 206L92.8098 222.909L109.719 210.099L96.9089 193.19L80 206Z" stroke="black" stroke-opacity="0.6" stroke-width="2" stroke-miterlimit="10" stroke-linecap="round" stroke-linejoin="round"/>
<path fill-rule="evenodd" clip-rule="evenodd" d="M204.999 371L221.908 358.19L209.098 341.281L192.189 354.091L204.999 371Z" fill="black" fill-opacity="0.0980392"/>
<path d="M204.999 371L221.908 358.19L209.098 341.281L192.189 354.091L204.999 371Z" stroke="black" stroke-opacity="0.6" stroke-width="2" stroke-miterlimit="10" stroke-linecap="round" stroke-linejoin="round"/>
<path d="M80 371H370" stroke="#616161" stroke-opacity="0.8" stroke-width="2.5" stroke-miterlimit="10" stroke-linecap="round" stroke-linejoin="round"/>
<path d="M80 81H370" stroke="#616161" stroke-opacity="0.8" stroke-width="2.5" stroke-miterlimit="10" stroke-linecap="round" stroke-linejoin="round"/>
<path d="M80 81V371" stroke="#616161" stroke-opacity="0.8" stroke-width="2.5" stroke-miterlimit="10" stroke-linecap="round" stroke-linejoin="round"/>
<path d="M370 371V81" stroke="#616161" stroke-opacity="0.8" stroke-width="2.5" stroke-miterlimit="10" stroke-linecap="round" stroke-linejoin="round"/>
<path d="M80 371H205" stroke="#616161" stroke-opacity="0.8" stroke-width="2.5" stroke-miterlimit="10" stroke-linecap="round" stroke-linejoin="round"/>
<path d="M80 81H245" stroke="#616161" stroke-opacity="0.8" stroke-width="2.5" stroke-miterlimit="10" stroke-linecap="round" stroke-linejoin="round"/>
<path d="M80 206L205 371" stroke="#616161" stroke-opacity="0.8" stroke-width="2.5" stroke-miterlimit="10" stroke-linecap="round" stroke-linejoin="round"/>
<path d="M205 371L370 246" stroke="#616161" stroke-opacity="0.8" stroke-width="2.5" stroke-miterlimit="10" stroke-linecap="round" stroke-linejoin="round"/>
<path d="M370 246L245 81" stroke="#616161" stroke-opacity="0.8" stroke-width="2.5" stroke-miterlimit="10" stroke-linecap="round" stroke-linejoin="round"/>
<path d="M245 81L80 206" stroke="#616161" stroke-opacity="0.8" stroke-width="2.5" stroke-miterlimit="10" stroke-linecap="round" stroke-linejoin="round"/>
<path d="M85 371C85 373.761 82.7614 376 80 376C77.2386 376 75 373.761 75 371C75 368.239 77.2386 366 80 366C82.7614 366 85 368.239 85 371Z" fill="#1565C0"/>
<path d="M85 371C85 373.761 82.7614 376 80 376C77.2386 376 75 373.761 75 371C75 368.239 77.2386 366 80 366C82.7614 366 85 368.239 85 371Z" stroke="black" stroke-miterlimit="10" stroke-linecap="round" stroke-linejoin="round"/>
<path d="M85.8864 360H84.4091L88.6818 348.364H90.1364L94.4091 360H92.9318L89.4545 350.205H89.3636L85.8864 360ZM86.4318 355.455H92.3864V356.705H86.4318V355.455Z" fill="#1565C0"/>
<path d="M85.8864 360V361.5L87.2999 360.502L85.8864 360ZM84.4091 360L83.001 359.483L84.4091 361.5V360ZM88.6818 348.364V346.864L87.2737 347.847L88.6818 348.364ZM90.1364 348.364L91.5444 347.847L90.1364 346.864V348.364ZM94.4091 360V361.5L95.8172 359.483L94.4091 360ZM92.9318 360L91.5182 360.502L92.9318 361.5V360ZM89.4545 350.205L90.8681 349.703L89.4545 348.705V350.205ZM89.3636 350.205V348.705L87.9501 349.703L89.3636 350.205ZM86.4318 355.455V353.955L84.9318 355.455H86.4318ZM92.3864 355.455H93.8864L92.3864 353.955V355.455ZM92.3864 356.705V358.205L93.8864 356.705H92.3864ZM86.4318 356.705H84.9318L86.4318 358.205V356.705ZM85.8864 358.5H84.4091V361.5H85.8864V358.5ZM85.8172 360.517L90.0899 348.881L87.2737 347.847L83.001 359.483L85.8172 360.517ZM88.6818 349.864H90.1364V346.864H88.6818V349.864ZM88.7283 348.881L93.001 360.517L95.8172 359.483L91.5444 347.847L88.7283 348.881ZM94.4091 358.5H92.9318V361.5H94.4091V358.5ZM94.3454 359.498L90.8681 349.703L88.041 350.706L91.5182 360.502L94.3454 359.498ZM89.4545 348.705H89.3636V351.705H89.4545V348.705ZM87.9501 349.703L84.4728 359.498L87.2999 360.502L90.7772 350.706L87.9501 349.703ZM86.4318 356.955H92.3864V353.955H86.4318V356.955ZM90.8864 355.455V356.705H93.8864V355.455H90.8864ZM92.3864 355.205H86.4318V358.205H92.3864V355.205ZM87.9318 356.705V355.455H84.9318V356.705H87.9318Z" fill="white"/>
<path d="M85.8864 360H84.4091L88.6818 348.364H90.1364L94.4091 360H92.9318L89.4545 350.205H89.3636L85.8864 360ZM86.4318 355.455H92.3864V356.705H86.4318V355.455Z" fill="#1565C0"/>
<path d="M375 371C375 373.761 372.761 376 370 376C367.239 376 365 373.761 365 371C365 368.239 367.239 366 370 366C372.761 366 375 368.239 375 371Z" fill="#1565C0"/>
<path d="M375 371C375 373.761 372.761 376 370 376C367.239 376 365 373.761 365 371C365 368.239 367.239 366 370 366C372.761 366 375 368.239 375 371Z" stroke="black" stroke-miterlimit="10" stroke-linecap="round" stroke-linejoin="round"/>
<path d="M375.409 360V348.364H379.477C380.288 348.364 380.956 348.504 381.483 348.784C382.009 349.061 382.402 349.434 382.659 349.903C382.917 350.369 383.045 350.886 383.045 351.455C383.045 351.955 382.956 352.367 382.778 352.693C382.604 353.019 382.373 353.277 382.085 353.466C381.801 353.655 381.492 353.795 381.159 353.886V354C381.515 354.023 381.873 354.148 382.233 354.375C382.593 354.602 382.894 354.928 383.136 355.352C383.379 355.777 383.5 356.295 383.5 356.909C383.5 357.492 383.367 358.017 383.102 358.483C382.837 358.949 382.419 359.318 381.847 359.591C381.275 359.864 380.53 360 379.614 360H375.409ZM376.818 358.75H379.614C380.534 358.75 381.188 358.572 381.574 358.216C381.964 357.856 382.159 357.42 382.159 356.909C382.159 356.515 382.059 356.152 381.858 355.818C381.657 355.481 381.371 355.212 381 355.011C380.629 354.807 380.189 354.705 379.682 354.705H376.818V358.75ZM376.818 353.477H379.432C379.856 353.477 380.239 353.394 380.58 353.227C380.924 353.061 381.197 352.826 381.398 352.523C381.602 352.22 381.705 351.864 381.705 351.455C381.705 350.943 381.527 350.509 381.17 350.153C380.814 349.794 380.25 349.614 379.477 349.614H376.818V353.477Z" fill="#1565C0"/>
<path d="M375.409 360H373.909L375.409 361.5V360ZM375.409 348.364V346.864L373.909 348.364H375.409ZM381.483 348.784L380.778 350.108L380.786 350.112L381.483 348.784ZM382.659 349.903L381.344 350.625L381.346 350.629L382.659 349.903ZM382.778 352.693L381.462 351.974L381.456 351.986L382.778 352.693ZM382.085 353.466L381.261 352.213L381.253 352.218L382.085 353.466ZM381.159 353.886L380.764 352.439L379.659 353.886H381.159ZM381.159 354H379.659L381.064 355.497L381.159 354ZM382.233 354.375L381.432 355.643L381.432 355.643L382.233 354.375ZM383.102 358.483L384.406 359.225L384.406 359.225L383.102 358.483ZM381.847 359.591L381.201 358.237L381.201 358.237L381.847 359.591ZM376.818 358.75H375.318L376.818 360.25V358.75ZM381.574 358.216L382.59 359.319L382.591 359.319L381.574 358.216ZM381.858 355.818L380.569 356.586L380.573 356.592L381.858 355.818ZM381 355.011L380.276 356.325L380.286 356.331L381 355.011ZM376.818 354.705V353.205L375.318 354.705H376.818ZM376.818 353.477H375.318L376.818 354.977V353.477ZM380.58 353.227L379.927 351.877L379.921 351.88L380.58 353.227ZM381.398 352.523L380.154 351.683L380.147 351.694L381.398 352.523ZM381.17 350.153L380.104 351.208L380.11 351.214L381.17 350.153ZM376.818 349.614V348.114L375.318 349.614H376.818ZM376.909 360V348.364H373.909V360H376.909ZM375.409 349.864H379.477V346.864H375.409V349.864ZM379.477 349.864C380.126 349.864 380.532 349.977 380.778 350.108L382.188 347.46C381.381 347.03 380.45 346.864 379.477 346.864V349.864ZM380.786 350.112C381.081 350.267 381.243 350.442 381.344 350.625L383.974 349.182C383.56 348.426 382.938 347.854 382.18 347.456L380.786 350.112ZM381.346 350.629C381.473 350.858 381.545 351.123 381.545 351.455H384.545C384.545 350.65 384.36 349.881 383.972 349.178L381.346 350.629ZM381.545 351.455C381.545 351.787 381.485 351.932 381.462 351.974L384.095 353.413C384.428 352.803 384.545 352.122 384.545 351.455H381.545ZM381.456 351.986C381.391 352.107 381.325 352.171 381.261 352.213L382.91 354.719C383.421 354.382 383.818 353.931 384.101 353.401L381.456 351.986ZM381.253 352.218C381.105 352.317 380.944 352.39 380.764 352.439L381.554 355.334C382.041 355.201 382.497 354.994 382.917 354.714L381.253 352.218ZM379.659 353.886V354H382.659V353.886H379.659ZM381.064 355.497C381.125 355.501 381.244 355.524 381.432 355.643L383.034 353.107C382.503 352.771 381.905 352.545 381.255 352.503L381.064 355.497ZM381.432 355.643C381.555 355.721 381.695 355.854 381.834 356.096L384.439 354.608C384.093 354.003 383.63 353.483 383.034 353.107L381.432 355.643ZM381.834 356.096C381.918 356.243 382 356.491 382 356.909H385C385 356.1 384.84 355.31 384.439 354.608L381.834 356.096ZM382 356.909C382 357.256 381.924 357.521 381.799 357.741L384.406 359.225C384.811 358.513 385 357.729 385 356.909H382ZM381.799 357.741C381.711 357.895 381.548 358.072 381.201 358.237L382.492 360.945C383.289 360.565 383.963 360.003 384.406 359.225L381.799 357.741ZM381.201 358.237C380.9 358.38 380.399 358.5 379.614 358.5V361.5C380.661 361.5 381.649 361.347 382.492 360.945L381.201 358.237ZM379.614 358.5H375.409V361.5H379.614V358.5ZM376.818 360.25H379.614V357.25H376.818V360.25ZM379.614 360.25C380.652 360.25 381.782 360.064 382.59 359.319L380.557 357.113C380.585 357.088 380.559 357.126 380.4 357.169C380.238 357.213 379.985 357.25 379.614 357.25V360.25ZM382.591 359.319C383.276 358.687 383.659 357.857 383.659 356.909H380.659C380.659 356.969 380.649 356.995 380.644 357.006C380.638 357.019 380.619 357.056 380.557 357.113L382.591 359.319ZM383.659 356.909C383.659 356.246 383.486 355.614 383.143 355.044L380.573 356.592C380.631 356.689 380.659 356.784 380.659 356.909H383.659ZM383.147 355.051C382.797 354.464 382.304 354.011 381.714 353.692L380.286 356.331C380.438 356.413 380.517 356.499 380.569 356.586L383.147 355.051ZM381.724 353.698C381.091 353.349 380.393 353.205 379.682 353.205V356.205C379.986 356.205 380.167 356.265 380.276 356.325L381.724 353.698ZM379.682 353.205H376.818V356.205H379.682V353.205ZM375.318 354.705V358.75H378.318V354.705H375.318ZM376.818 354.977H379.432V351.977H376.818V354.977ZM379.432 354.977C380.057 354.977 380.669 354.853 381.238 354.575L379.921 351.88C379.808 351.935 379.655 351.977 379.432 351.977V354.977ZM381.232 354.578C381.806 354.3 382.291 353.891 382.648 353.351L380.147 351.694C380.103 351.761 380.042 351.821 379.927 351.877L381.232 354.578ZM382.641 353.362C383.032 352.782 383.205 352.126 383.205 351.455H380.205C380.205 351.601 380.172 351.657 380.154 351.684L382.641 353.362ZM383.205 351.455C383.205 350.552 382.873 349.735 382.231 349.093L380.11 351.214C380.18 351.284 380.205 351.334 380.205 351.455H383.205ZM382.237 349.098C381.481 348.334 380.443 348.114 379.477 348.114V351.114C380.057 351.114 380.148 351.253 380.104 351.208L382.237 349.098ZM379.477 348.114H376.818V351.114H379.477V348.114ZM375.318 349.614V353.477H378.318V349.614H375.318Z" fill="white"/>
<path d="M375.409 360V348.364H379.477C380.288 348.364 380.956 348.504 381.483 348.784C382.009 349.061 382.402 349.434 382.659 349.903C382.917 350.369 383.045 350.886 383.045 351.455C383.045 351.955 382.956 352.367 382.778 352.693C382.604 353.019 382.373 353.277 382.085 353.466C381.801 353.655 381.492 353.795 381.159 353.886V354C381.515 354.023 381.873 354.148 382.233 354.375C382.593 354.602 382.894 354.928 383.136 355.352C383.379 355.777 383.5 356.295 383.5 356.909C383.5 357.492 383.367 358.017 383.102 358.483C382.837 358.949 382.419 359.318 381.847 359.591C381.275 359.864 380.53 360 379.614 360H375.409ZM376.818 358.75H379.614C380.534 358.75 381.188 358.572 381.574 358.216C381.964 357.856 382.159 357.42 382.159 356.909C382.159 356.515 382.059 356.152 381.858 355.818C381.657 355.481 381.371 355.212 381 355.011C380.629 354.807 380.189 354.705 379.682 354.705H376.818V358.75ZM376.818 353.477H379.432C379.856 353.477 380.239 353.394 380.58 353.227C380.924 353.061 381.197 352.826 381.398 352.523C381.602 352.22 381.705 351.864 381.705 351.455C381.705 350.943 381.527 350.509 381.17 350.153C380.814 349.794 380.25 349.614 379.477 349.614H376.818V353.477Z" fill="#1565C0"/>
<path d="M84 81C84 83.2091 82.2091 85 80 85C77.7909 85 76 83.2091 76 81C76 78.7909 77.7909 77 80 77C82.2091 77 84 78.7909 84 81Z" fill="#616161"/>
<path d="M84 81C84 83.2091 82.2091 85 80 85C77.7909 85 76 83.2091 76 81C76 78.7909 77.7909 77 80 77C82.2091 77 84 78.7909 84 81Z" stroke="black" stroke-miterlimit="10" stroke-linecap="round" stroke-linejoin="round"/>
<path d="M89 72H85.4091V60.3636H89.1591C90.2879 60.3636 91.2538 60.5966 92.0568 61.0625C92.8598 61.5246 93.4754 62.1894 93.9034 63.0568C94.3314 63.9205 94.5455 64.9545 94.5455 66.1591C94.5455 67.3712 94.3295 68.4148 93.8977 69.2898C93.4659 70.161 92.8371 70.8314 92.0114 71.3011C91.1856 71.767 90.1818 72 89 72ZM86.8182 70.75H88.9091C89.8712 70.75 90.6686 70.5644 91.3011 70.1932C91.9337 69.822 92.4053 69.2936 92.7159 68.608C93.0265 67.9223 93.1818 67.1061 93.1818 66.1591C93.1818 65.2197 93.0284 64.411 92.7216 63.733C92.4148 63.0511 91.9564 62.5284 91.3466 62.1648C90.7367 61.7973 89.9773 61.6136 89.0682 61.6136H86.8182V70.75Z" fill="#616161"/>
<path d="M85.4091 72H83.9091L85.4091 73.5V72ZM85.4091 60.3636V58.8636L83.9091 60.3636H85.4091ZM92.0568 61.0625L91.3041 62.3599L91.3087 62.3626L92.0568 61.0625ZM93.9034 63.0568L92.5583 63.7206L92.5594 63.7229L93.9034 63.0568ZM93.8977 69.2898L95.2417 69.9559L95.2428 69.9536L93.8977 69.2898ZM92.0114 71.3011L92.7485 72.6075L92.753 72.605L92.0114 71.3011ZM86.8182 70.75H85.3182L86.8182 72.25V70.75ZM91.3011 70.1932L90.542 68.8995L91.3011 70.1932ZM92.7216 63.733L91.3537 64.3485L91.355 64.3514L92.7216 63.733ZM91.3466 62.1648L90.5725 63.4496L90.5784 63.4531L91.3466 62.1648ZM86.8182 61.6136V60.1136L85.3182 61.6136H86.8182ZM89 70.5H85.4091V73.5H89V70.5ZM86.9091 72V60.3636H83.9091V72H86.9091ZM85.4091 61.8636H89.1591V58.8636H85.4091V61.8636ZM89.1591 61.8636C90.0804 61.8636 90.7744 62.0526 91.3041 62.3599L92.8096 59.7651C91.7332 59.1406 90.4954 58.8636 89.1591 58.8636V61.8636ZM91.3087 62.3626C91.8423 62.6697 92.2557 63.1073 92.5583 63.7206L95.2486 62.3931C94.6951 61.2715 93.8774 60.3795 92.805 59.7624L91.3087 62.3626ZM92.5594 63.7229C92.8624 64.3343 93.0455 65.1293 93.0455 66.1591H96.0455C96.0455 64.7798 95.8004 63.5066 95.2474 62.3907L92.5594 63.7229ZM93.0455 66.1591C93.0455 67.1955 92.8609 68.0013 92.5526 68.6259L95.2428 69.9536C95.7982 68.8282 96.0455 67.5469 96.0455 66.1591H93.0455ZM92.5538 68.6236C92.2514 69.2337 91.8292 69.6791 91.2697 69.9973L92.753 72.605C93.845 71.9838 94.6804 71.0883 95.2417 69.9559L92.5538 68.6236ZM91.2743 69.9947C90.7225 70.3061 89.9864 70.5 89 70.5V73.5C90.3773 73.5 91.6487 73.228 92.7485 72.6075L91.2743 69.9947ZM86.8182 72.25H88.9091V69.25H86.8182V72.25ZM88.9091 72.25C90.0571 72.25 91.1365 72.029 92.0603 71.4869L90.542 68.8995C90.2006 69.0998 89.6853 69.25 88.9091 69.25V72.25ZM92.0603 71.4869C92.9675 70.9545 93.6474 70.1869 94.0822 69.227L91.3496 67.989C91.1632 68.4003 90.8999 68.6894 90.542 68.8995L92.0603 71.4869ZM94.0822 69.227C94.5006 68.3035 94.6818 67.2662 94.6818 66.1591H91.6818C91.6818 66.9459 91.5524 67.5412 91.3496 67.989L94.0822 69.227ZM94.6818 66.1591C94.6818 65.0605 94.5028 64.0308 94.0882 63.1146L91.355 64.3514C91.554 64.7912 91.6818 65.3789 91.6818 66.1591H94.6818ZM94.0895 63.1174C93.6635 62.1709 93.0032 61.4062 92.1148 60.8764L90.5784 63.4531C90.9096 63.6506 91.166 63.9314 91.3537 64.3485L94.0895 63.1174ZM92.1207 60.8799C91.2208 60.3378 90.1757 60.1136 89.0682 60.1136V63.1136C89.7789 63.1136 90.2527 63.2569 90.5725 63.4496L92.1207 60.8799ZM89.0682 60.1136H86.8182V63.1136H89.0682V60.1136ZM85.3182 61.6136V70.75H88.3182V61.6136H85.3182Z" fill="white"/>
<path d="M89 72H85.4091V60.3636H89.1591C90.2879 60.3636 91.2538 60.5966 92.0568 61.0625C92.8598 61.5246 93.4754 62.1894 93.9034 63.0568C94.3314 63.9205 94.5455 64.9545 94.5455 66.1591C94.5455 67.3712 94.3295 68.4148 93.8977 69.2898C93.4659 70.161 92.8371 70.8314 92.0114 71.3011C91.1856 71.767 90.1818 72 89 72ZM86.8182 70.75H88.9091C89.8712 70.75 90.6686 70.5644 91.3011 70.1932C91.9337 69.822 92.4053 69.2936 92.7159 68.608C93.0265 67.9223 93.1818 67.1061 93.1818 66.1591C93.1818 65.2197 93.0284 64.411 92.7216 63.733C92.4148 63.0511 91.9564 62.5284 91.3466 62.1648C90.7367 61.7973 89.9773 61.6136 89.0682 61.6136H86.8182V70.75Z" fill="#616161"/>
<path d="M375 81C375 83.7614 372.761 86 370 86C367.239 86 365 83.7614 365 81C365 78.2386 367.239 76 370 76C372.761 76 375 78.2386 375 81Z" fill="#1565C0"/>
<path d="M375 81C375 83.7614 372.761 86 370 86C367.239 86 365 83.7614 365 81C365 78.2386 367.239 76 370 76C372.761 76 375 78.2386 375 81Z" stroke="black" stroke-miterlimit="10" stroke-linecap="round" stroke-linejoin="round"/>
<path d="M384.773 62H383.364C383.28 61.5947 383.134 61.2386 382.926 60.9318C382.722 60.625 382.472 60.3674 382.176 60.1591C381.884 59.947 381.561 59.7879 381.205 59.6818C380.848 59.5758 380.477 59.5227 380.091 59.5227C379.386 59.5227 378.748 59.7008 378.176 60.0568C377.608 60.4129 377.155 60.9375 376.818 61.6307C376.485 62.3239 376.318 63.1742 376.318 64.1818C376.318 65.1894 376.485 66.0398 376.818 66.733C377.155 67.4261 377.608 67.9508 378.176 68.3068C378.748 68.6629 379.386 68.8409 380.091 68.8409C380.477 68.8409 380.848 68.7879 381.205 68.6818C381.561 68.5758 381.884 68.4186 382.176 68.2102C382.472 67.9981 382.722 67.7386 382.926 67.4318C383.134 67.1212 383.28 66.7652 383.364 66.3636H384.773C384.667 66.9583 384.473 67.4905 384.193 67.9602C383.913 68.4299 383.564 68.8295 383.148 69.1591C382.731 69.4848 382.263 69.733 381.744 69.9034C381.229 70.0739 380.678 70.1591 380.091 70.1591C379.098 70.1591 378.216 69.9167 377.443 69.4318C376.67 68.947 376.063 68.2576 375.619 67.3636C375.176 66.4697 374.955 65.4091 374.955 64.1818C374.955 62.9545 375.176 61.8939 375.619 61C376.063 60.1061 376.67 59.4167 377.443 58.9318C378.216 58.447 379.098 58.2045 380.091 58.2045C380.678 58.2045 381.229 58.2898 381.744 58.4602C382.263 58.6307 382.731 58.8807 383.148 59.2102C383.564 59.536 383.913 59.9337 384.193 60.4034C384.473 60.8693 384.667 61.4015 384.773 62Z" fill="#1565C0"/>
<path d="M384.773 62V63.5L386.25 61.7383L384.773 62ZM383.364 62L381.894 62.3021L383.364 63.5V62ZM382.926 60.9318L381.678 61.7639L381.685 61.7744L382.926 60.9318ZM382.176 60.1591L381.294 61.3722L381.312 61.385L382.176 60.1591ZM381.205 59.6818L380.776 61.1194L380.776 61.1194L381.205 59.6818ZM378.176 60.0568L377.383 58.7834L377.38 58.7858L378.176 60.0568ZM376.818 61.6307L375.469 60.9746L375.466 60.9806L376.818 61.6307ZM376.818 66.733L375.466 67.383L375.469 67.389L376.818 66.733ZM378.176 68.3068L377.38 69.5779L377.383 69.5802L378.176 68.3068ZM381.205 68.6818L380.776 67.2442L380.776 67.2442L381.205 68.6818ZM382.176 68.2102L383.048 69.4308L383.051 69.4287L382.176 68.2102ZM382.926 67.4318L381.68 66.5963L381.678 66.5998L382.926 67.4318ZM383.364 66.3636V64.8636L381.895 66.0588L383.364 66.3636ZM384.773 66.3636L386.249 66.627L384.773 64.8636V66.3636ZM384.193 67.9602L382.905 67.1915L382.905 67.1915L384.193 67.9602ZM383.148 69.1591L384.072 70.3408L384.078 70.3356L383.148 69.1591ZM381.744 69.9034L381.276 68.4783L381.273 68.4793L381.744 69.9034ZM377.443 69.4318L376.646 70.7024L376.646 70.7024L377.443 69.4318ZM375.619 67.3636L376.963 66.6974L376.963 66.6974L375.619 67.3636ZM375.619 61L374.275 60.3337L375.619 61ZM381.744 58.4602L381.273 59.8843L381.276 59.8853L381.744 58.4602ZM383.148 59.2102L382.217 60.3867L382.224 60.3919L383.148 59.2102ZM384.193 60.4034L382.905 61.1721L382.908 61.1767L384.193 60.4034ZM384.773 60.5H383.364V63.5H384.773V60.5ZM384.833 61.6979C384.714 61.1215 384.499 60.5773 384.167 60.0892L381.685 61.7744C381.77 61.9 381.846 62.0679 381.894 62.3021L384.833 61.6979ZM384.174 60.0998C383.869 59.6423 383.49 59.2502 383.041 58.9332L381.312 61.385C381.453 61.4846 381.574 61.6077 381.678 61.7639L384.174 60.0998ZM383.058 58.946C382.625 58.6308 382.147 58.3974 381.633 58.2442L380.776 61.1194C380.974 61.1784 381.144 61.2631 381.294 61.3722L383.058 58.946ZM381.633 58.2442C381.132 58.0952 380.616 58.0227 380.091 58.0227V61.0227C380.338 61.0227 380.565 61.0564 380.776 61.1194L381.633 58.2442ZM380.091 58.0227C379.12 58.0227 378.204 58.2723 377.383 58.7834L378.969 61.3302C379.292 61.1292 379.653 61.0227 380.091 61.0227V58.0227ZM377.38 58.7858C376.539 59.3123 375.91 60.0674 375.469 60.9746L378.167 62.2867C378.4 61.8076 378.677 61.5134 378.973 61.3279L377.38 58.7858ZM375.466 60.9806C375.01 61.9294 374.818 63.0161 374.818 64.1818H377.818C377.818 63.3324 377.96 62.7184 378.17 62.2807L375.466 60.9806ZM374.818 64.1818C374.818 65.3475 375.01 66.4343 375.466 67.383L378.17 66.0829C377.96 65.6453 377.818 65.0313 377.818 64.1818H374.818ZM375.469 67.389C375.91 68.2963 376.539 69.0513 377.38 69.5779L378.973 67.0358C378.677 66.8502 378.4 66.556 378.167 66.0769L375.469 67.389ZM377.383 69.5802C378.204 70.0913 379.12 70.3409 380.091 70.3409V67.3409C379.653 67.3409 379.292 67.2344 378.969 67.0334L377.383 69.5802ZM380.091 70.3409C380.616 70.3409 381.132 70.2685 381.633 70.1194L380.776 67.2442C380.565 67.3073 380.338 67.3409 380.091 67.3409V70.3409ZM381.633 70.1194C382.142 69.9678 382.617 69.739 383.048 69.4308L381.304 66.9896C381.152 67.0981 380.979 67.1837 380.776 67.2442L381.633 70.1194ZM383.051 69.4287C383.495 69.1098 383.871 68.7188 384.174 68.2639L381.678 66.5998C381.572 66.7585 381.448 66.8864 381.301 66.9917L383.051 69.4287ZM384.172 68.2674C384.498 67.781 384.713 67.2413 384.832 66.6685L381.895 66.0588C381.847 66.289 381.771 66.4614 381.68 66.5963L384.172 68.2674ZM383.364 67.8636H384.773V64.8636H383.364V67.8636ZM383.296 66.1003C383.218 66.5351 383.083 66.8929 382.905 67.1915L385.481 68.7289C385.864 68.0881 386.115 67.3816 386.249 66.627L383.296 66.1003ZM382.905 67.1915C382.715 67.5094 382.487 67.7695 382.217 67.9826L384.078 70.3356C384.642 69.8896 385.11 69.3504 385.481 68.7289L382.905 67.1915ZM382.224 67.9774C381.948 68.1928 381.636 68.3602 381.276 68.4783L382.212 71.3285C382.891 71.1057 383.514 70.7769 384.072 70.3408L382.224 67.9774ZM381.273 68.4793C380.922 68.5955 380.531 68.6591 380.091 68.6591V71.6591C380.825 71.6591 381.536 71.5522 382.216 71.3275L381.273 68.4793ZM380.091 68.6591C379.355 68.6591 378.753 68.4831 378.24 68.1612L376.646 70.7024C377.678 71.3503 378.842 71.6591 380.091 71.6591V68.6591ZM378.24 68.1612C377.724 67.8372 377.295 67.3673 376.963 66.6974L374.275 68.0299C374.83 69.1478 375.617 70.0568 376.646 70.7024L378.24 68.1612ZM376.963 66.6974C376.644 66.0527 376.455 65.2301 376.455 64.1818H373.455C373.455 65.5881 373.709 66.8867 374.275 68.0299L376.963 66.6974ZM376.455 64.1818C376.455 63.1335 376.644 62.3109 376.963 61.6663L374.275 60.3337C373.709 61.4769 373.455 62.7756 373.455 64.1818H376.455ZM376.963 61.6663C377.295 60.9963 377.724 60.5265 378.24 60.2024L376.646 57.6612C375.617 58.3069 374.83 59.2158 374.275 60.3337L376.963 61.6663ZM378.24 60.2024C378.753 59.8806 379.355 59.7045 380.091 59.7045V56.7045C378.842 56.7045 377.678 57.0134 376.646 57.6612L378.24 60.2024ZM380.091 59.7045C380.531 59.7045 380.922 59.7681 381.273 59.8843L382.216 57.0362C381.536 56.8114 380.825 56.7045 380.091 56.7045V59.7045ZM381.276 59.8853C381.632 60.0023 381.943 60.1697 382.217 60.3867L384.078 58.0337C383.519 57.5917 382.894 57.259 382.212 57.0351L381.276 59.8853ZM382.224 60.3919C382.49 60.5998 382.716 60.8558 382.905 61.1721L385.481 59.6347C385.109 59.0116 384.639 58.4722 384.072 58.0285L382.224 60.3919ZM382.908 61.1767C383.083 61.4678 383.218 61.8229 383.296 62.2617L386.25 61.7383C386.115 60.9802 385.864 60.2708 385.478 59.6301L382.908 61.1767Z" fill="white"/>
<path d="M384.773 62H383.364C383.28 61.5947 383.134 61.2386 382.926 60.9318C382.722 60.625 382.472 60.3674 382.176 60.1591C381.884 59.947 381.561 59.7879 381.205 59.6818C380.848 59.5758 380.477 59.5227 380.091 59.5227C379.386 59.5227 378.748 59.7008 378.176 60.0568C377.608 60.4129 377.155 60.9375 376.818 61.6307C376.485 62.3239 376.318 63.1742 376.318 64.1818C376.318 65.1894 376.485 66.0398 376.818 66.733C377.155 67.4261 377.608 67.9508 378.176 68.3068C378.748 68.6629 379.386 68.8409 380.091 68.8409C380.477 68.8409 380.848 68.7879 381.205 68.6818C381.561 68.5758 381.884 68.4186 382.176 68.2102C382.472 67.9981 382.722 67.7386 382.926 67.4318C383.134 67.1212 383.28 66.7652 383.364 66.3636H384.773C384.667 66.9583 384.473 67.4905 384.193 67.9602C383.913 68.4299 383.564 68.8295 383.148 69.1591C382.731 69.4848 382.263 69.733 381.744 69.9034C381.229 70.0739 380.678 70.1591 380.091 70.1591C379.098 70.1591 378.216 69.9167 377.443 69.4318C376.67 68.947 376.063 68.2576 375.619 67.3636C375.176 66.4697 374.955 65.4091 374.955 64.1818C374.955 62.9545 375.176 61.8939 375.619 61C376.063 60.1061 376.67 59.4167 377.443 58.9318C378.216 58.447 379.098 58.2045 380.091 58.2045C380.678 58.2045 381.229 58.2898 381.744 58.4602C382.263 58.6307 382.731 58.8807 383.148 59.2102C383.564 59.536 383.913 59.9337 384.193 60.4034C384.473 60.8693 384.667 61.4015 384.773 62Z" fill="#1565C0"/>
<path d="M210 371C210 373.761 207.761 376 205 376C202.239 376 200 373.761 200 371C200 368.239 202.239 366 205 366C207.761 366 210 368.239 210 371Z" fill="#1565C0"/>
<path d="M210 371C210 373.761 207.761 376 205 376C202.239 376 200 373.761 200 371C200 368.239 202.239 366 205 366C207.761 366 210 368.239 210 371Z" stroke="black" stroke-miterlimit="10" stroke-linecap="round" stroke-linejoin="round"/>
<path d="M210.409 360V348.364H211.818V354.136H211.955L217.182 348.364H219.023L214.136 353.614L219.023 360H217.318L213.273 354.591L211.818 356.227V360H210.409Z" fill="#1565C0"/>
<path d="M210.409 360H208.909L210.409 361.5V360ZM210.409 348.364V346.864L208.909 348.364H210.409ZM211.818 348.364H213.318L211.818 346.864V348.364ZM211.818 354.136H210.318L211.818 355.636V354.136ZM211.955 354.136V355.636L213.066 355.143L211.955 354.136ZM217.182 348.364V346.864L216.07 347.357L217.182 348.364ZM219.023 348.364L220.121 349.386L219.023 346.864V348.364ZM214.136 353.614L213.038 352.592L212.945 354.525L214.136 353.614ZM219.023 360V361.5L220.214 359.089L219.023 360ZM217.318 360L216.117 360.898L217.318 361.5V360ZM213.273 354.591L214.474 353.693L212.152 353.594L213.273 354.591ZM211.818 356.227L210.697 355.231L210.318 356.227H211.818ZM211.818 360V361.5L213.318 360H211.818ZM211.909 360V348.364H208.909V360H211.909ZM210.409 349.864H211.818V346.864H210.409V349.864ZM210.318 348.364V354.136H213.318V348.364H210.318ZM211.818 355.636H211.955V352.636H211.818V355.636ZM213.066 355.143L218.294 349.37L216.07 347.357L210.843 353.13L213.066 355.143ZM217.182 349.864H219.023V346.864H217.182V349.864ZM217.925 347.342L213.038 352.592L215.234 354.636L220.121 349.386L217.925 347.342ZM212.945 354.525L217.831 360.911L220.214 359.089L215.328 352.702L212.945 354.525ZM219.023 358.5H217.318V361.5H219.023V358.5ZM218.519 359.102L214.474 353.693L212.072 355.489L216.117 360.898L218.519 359.102ZM212.152 353.594L210.697 355.231L212.939 357.224L214.394 355.587L212.152 353.594ZM210.318 356.227V360H213.318V356.227H210.318ZM211.818 358.5H210.409V361.5H211.818V358.5Z" fill="white"/>
<path d="M210.409 360V348.364H211.818V354.136H211.955L217.182 348.364H219.023L214.136 353.614L219.023 360H217.318L213.273 354.591L211.818 356.227V360H210.409Z" fill="#1565C0"/>
<path d="M250 81C250 83.7614 247.761 86 245 86C242.239 86 240 83.7614 240 81C240 78.2386 242.239 76 245 76C247.761 76 250 78.2386 250 81Z" fill="#1565C0"/>
<path d="M250 81C250 83.7614 247.761 86 245 86C242.239 86 240 83.7614 240 81C240 78.2386 242.239 76 245 76C247.761 76 250 78.2386 250 81Z" stroke="black" stroke-miterlimit="10" stroke-linecap="round" stroke-linejoin="round"/>
<path d="M259.636 58.3636V70H258.273L251.932 60.8636H251.818V70H250.409V58.3636H251.773L258.136 67.5227H258.25V58.3636H259.636Z" fill="#1565C0"/>
<path d="M259.636 58.3636H261.136L259.636 56.8636V58.3636ZM259.636 70V71.5L261.136 70H259.636ZM258.273 70L257.04 70.8552L258.273 71.5V70ZM251.932 60.8636L253.164 60.0084L251.932 59.3636V60.8636ZM251.818 60.8636V59.3636L250.318 60.8636H251.818ZM251.818 70V71.5L253.318 70H251.818ZM250.409 70H248.909L250.409 71.5V70ZM250.409 58.3636V56.8636L248.909 58.3636H250.409ZM251.773 58.3636L253.005 57.5078L251.773 56.8636V58.3636ZM258.136 67.5227L256.905 68.3786L258.136 69.0227V67.5227ZM258.25 67.5227V69.0227L259.75 67.5227H258.25ZM258.25 58.3636V56.8636L256.75 58.3636H258.25ZM258.136 58.3636V70H261.136V58.3636H258.136ZM259.636 68.5H258.273V71.5H259.636V68.5ZM259.505 69.1448L253.164 60.0084L250.7 61.7189L257.04 70.8552L259.505 69.1448ZM251.932 59.3636H251.818V62.3636H251.932V59.3636ZM250.318 60.8636V70H253.318V60.8636H250.318ZM251.818 68.5H250.409V71.5H251.818V68.5ZM251.909 70V58.3636H248.909V70H251.909ZM250.409 59.8636H251.773V56.8636H250.409V59.8636ZM250.541 59.2195L256.905 68.3786L259.368 66.6668L253.005 57.5078L250.541 59.2195ZM258.136 69.0227H258.25V66.0227H258.136V69.0227ZM259.75 67.5227V58.3636H256.75V67.5227H259.75ZM258.25 59.8636H259.636V56.8636H258.25V59.8636Z" fill="white"/>
<path d="M259.636 58.3636V70H258.273L251.932 60.8636H251.818V70H250.409V58.3636H251.773L258.136 67.5227H258.25V58.3636H259.636Z" fill="#1565C0"/>
<path d="M84 206C84 208.209 82.2091 210 80 210C77.7909 210 76 208.209 76 206C76 203.791 77.7909 202 80 202C82.2091 202 84 203.791 84 206Z" fill="#616161"/>
<path d="M84 206C84 208.209 82.2091 210 80 210C77.7909 210 76 208.209 76 206C76 203.791 77.7909 202 80 202C82.2091 202 84 203.791 84 206Z" stroke="black" stroke-miterlimit="10" stroke-linecap="round" stroke-linejoin="round"/>
<path d="M85.4091 197V185.364H86.8182V195.75H92.2273V197H85.4091Z" fill="#616161"/>
<path d="M85.4091 197H83.9091L85.4091 198.5V197ZM85.4091 185.364V183.864L83.9091 185.364H85.4091ZM86.8182 185.364H88.3182L86.8182 183.864V185.364ZM86.8182 195.75H85.3182L86.8182 197.25V195.75ZM92.2273 195.75H93.7273L92.2273 194.25V195.75ZM92.2273 197V198.5L93.7273 197H92.2273ZM86.9091 197V185.364H83.9091V197H86.9091ZM85.4091 186.864H86.8182V183.864H85.4091V186.864ZM85.3182 185.364V195.75H88.3182V185.364H85.3182ZM86.8182 197.25H92.2273V194.25H86.8182V197.25ZM90.7273 195.75V197H93.7273V195.75H90.7273ZM92.2273 195.5H85.4091V198.5H92.2273V195.5Z" fill="white"/>
<path d="M85.4091 197V185.364H86.8182V195.75H92.2273V197H85.4091Z" fill="#616161"/>
<path d="M374 246C374 248.209 372.209 250 370 250C367.791 250 366 248.209 366 246C366 243.791 367.791 242 370 242C372.209 242 374 243.791 374 246Z" fill="#616161"/>
<path d="M374 246C374 248.209 372.209 250 370 250C367.791 250 366 248.209 366 246C366 243.791 367.791 242 370 242C372.209 242 374 243.791 374 246Z" stroke="black" stroke-miterlimit="10" stroke-linecap="round" stroke-linejoin="round"/>
<path d="M375.409 225.364H377.091L381.045 235.023H381.182L385.136 225.364H386.818V237H385.5V228.159H385.386L381.75 237H380.477L376.841 228.159H376.727V237H375.409V225.364Z" fill="#616161"/>
<path d="M375.409 225.364V223.864L373.909 225.364H375.409ZM377.091 225.364L378.479 224.795L377.091 223.864V225.364ZM381.045 235.023L379.657 235.591L381.045 236.523V235.023ZM381.182 235.023V236.523L382.57 235.591L381.182 235.023ZM385.136 225.364V223.864L383.748 224.795L385.136 225.364ZM386.818 225.364H388.318L386.818 223.864V225.364ZM386.818 237V238.5L388.318 237H386.818ZM385.5 237H384L385.5 238.5V237ZM385.5 228.159H387L385.5 226.659V228.159ZM385.386 228.159V226.659L383.999 227.589L385.386 228.159ZM381.75 237V238.5L383.137 237.571L381.75 237ZM380.477 237L379.09 237.571L380.477 238.5V237ZM376.841 228.159L378.228 227.589L376.841 226.659V228.159ZM376.727 228.159V226.659L375.227 228.159H376.727ZM376.727 237V238.5L378.227 237H376.727ZM375.409 237H373.909L375.409 238.5V237ZM375.409 226.864H377.091V223.864H375.409V226.864ZM375.703 225.932L379.657 235.591L382.434 234.454L378.479 224.795L375.703 225.932ZM381.045 236.523H381.182V233.523H381.045V236.523ZM382.57 235.591L386.525 225.932L383.748 224.795L379.794 234.454L382.57 235.591ZM385.136 226.864H386.818V223.864H385.136V226.864ZM385.318 225.364V237H388.318V225.364H385.318ZM386.818 235.5H385.5V238.5H386.818V235.5ZM387 237V228.159H384V237H387ZM385.5 226.659H385.386V229.659H385.5V226.659ZM383.999 227.589L380.363 236.429L383.137 237.571L386.774 228.73L383.999 227.589ZM381.75 235.5H380.477V238.5H381.75V235.5ZM381.865 236.429L378.228 227.589L375.454 228.73L379.09 237.571L381.865 236.429ZM376.841 226.659H376.727V229.659H376.841V226.659ZM375.227 228.159V237H378.227V228.159H375.227ZM376.727 235.5H375.409V238.5H376.727V235.5ZM376.909 237V225.364H373.909V237H376.909Z" fill="white"/>
<path d="M375.409 225.364H377.091L381.045 235.023H381.182L385.136 225.364H386.818V237H385.5V228.159H385.386L381.75 237H380.477L376.841 228.159H376.727V237H375.409V225.364Z" fill="#616161"/>
<path d="M61.2188 128.281C60.4583 128.281 59.7682 128.138 59.1484 127.852C58.5286 127.56 58.0365 127.141 57.6719 126.594C57.3073 126.042 57.125 125.375 57.125 124.594C57.125 123.906 57.2604 123.349 57.5313 122.922C57.8021 122.49 58.1641 122.151 58.6172 121.906C59.0703 121.661 59.5703 121.479 60.1172 121.359C60.6693 121.234 61.224 121.135 61.7813 121.063C62.5104 120.969 63.1016 120.898 63.5547 120.852C64.013 120.799 64.3464 120.714 64.5547 120.594C64.7682 120.474 64.875 120.266 64.875 119.969V119.906C64.875 119.135 64.6641 118.536 64.2422 118.109C63.8255 117.682 63.1927 117.469 62.3438 117.469C61.4635 117.469 60.7734 117.661 60.2734 118.047C59.7734 118.432 59.4219 118.844 59.2188 119.281L57.4688 118.656C57.7813 117.927 58.1979 117.359 58.7188 116.953C59.2448 116.542 59.8177 116.255 60.4375 116.094C61.0625 115.927 61.6771 115.844 62.2813 115.844C62.6667 115.844 63.1094 115.891 63.6094 115.984C64.1146 116.073 64.6016 116.258 65.0703 116.539C65.5443 116.82 65.9375 117.245 66.25 117.812C66.5625 118.38 66.7188 119.141 66.7188 120.094V128H64.875V126.375H64.7813C64.6563 126.635 64.4479 126.914 64.1563 127.211C63.8646 127.508 63.4766 127.76 62.9922 127.969C62.5078 128.177 61.9167 128.281 61.2188 128.281ZM61.5 126.625C62.2292 126.625 62.8438 126.482 63.3438 126.195C63.849 125.909 64.2292 125.539 64.4844 125.086C64.7448 124.633 64.875 124.156 64.875 123.656V121.969C64.7969 122.062 64.625 122.148 64.3594 122.227C64.099 122.299 63.7969 122.365 63.4531 122.422C63.1146 122.474 62.7839 122.521 62.4609 122.562C62.1432 122.599 61.8854 122.63 61.6875 122.656C61.2083 122.719 60.7604 122.82 60.3438 122.961C59.9323 123.096 59.599 123.302 59.3438 123.578C59.0938 123.849 58.9688 124.219 58.9688 124.687C58.9688 125.328 59.2057 125.812 59.6797 126.141C60.1589 126.464 60.7656 126.625 61.5 126.625Z" fill="black"/>
<path d="M138.219 390.281C137.458 390.281 136.768 390.138 136.148 389.852C135.529 389.56 135.036 389.141 134.672 388.594C134.307 388.042 134.125 387.375 134.125 386.594C134.125 385.906 134.26 385.349 134.531 384.922C134.802 384.49 135.164 384.151 135.617 383.906C136.07 383.661 136.57 383.479 137.117 383.359C137.669 383.234 138.224 383.135 138.781 383.063C139.51 382.969 140.102 382.898 140.555 382.852C141.013 382.799 141.346 382.714 141.555 382.594C141.768 382.474 141.875 382.266 141.875 381.969V381.906C141.875 381.135 141.664 380.536 141.242 380.109C140.826 379.682 140.193 379.469 139.344 379.469C138.464 379.469 137.773 379.661 137.273 380.047C136.773 380.432 136.422 380.844 136.219 381.281L134.469 380.656C134.781 379.927 135.198 379.359 135.719 378.953C136.245 378.542 136.818 378.255 137.438 378.094C138.063 377.927 138.677 377.844 139.281 377.844C139.667 377.844 140.109 377.891 140.609 377.984C141.115 378.073 141.602 378.258 142.07 378.539C142.544 378.82 142.938 379.245 143.25 379.812C143.563 380.38 143.719 381.141 143.719 382.094V390H141.875V388.375H141.781C141.656 388.635 141.448 388.914 141.156 389.211C140.865 389.508 140.477 389.76 139.992 389.969C139.508 390.177 138.917 390.281 138.219 390.281ZM138.5 388.625C139.229 388.625 139.844 388.482 140.344 388.195C140.849 387.909 141.229 387.539 141.484 387.086C141.745 386.633 141.875 386.156 141.875 385.656V383.969C141.797 384.062 141.625 384.148 141.359 384.227C141.099 384.299 140.797 384.365 140.453 384.422C140.115 384.474 139.784 384.521 139.461 384.562C139.143 384.599 138.885 384.63 138.688 384.656C138.208 384.719 137.76 384.82 137.344 384.961C136.932 385.096 136.599 385.302 136.344 385.578C136.094 385.849 135.969 386.219 135.969 386.687C135.969 387.328 136.206 387.812 136.68 388.141C137.159 388.464 137.766 388.625 138.5 388.625Z" fill="black"/>
<path d="M386.219 313.281C385.458 313.281 384.768 313.138 384.148 312.852C383.529 312.56 383.036 312.141 382.672 311.594C382.307 311.042 382.125 310.375 382.125 309.594C382.125 308.906 382.26 308.349 382.531 307.922C382.802 307.49 383.164 307.151 383.617 306.906C384.07 306.661 384.57 306.479 385.117 306.359C385.669 306.234 386.224 306.135 386.781 306.063C387.51 305.969 388.102 305.898 388.555 305.852C389.013 305.799 389.346 305.714 389.555 305.594C389.768 305.474 389.875 305.266 389.875 304.969V304.906C389.875 304.135 389.664 303.536 389.242 303.109C388.826 302.682 388.193 302.469 387.344 302.469C386.464 302.469 385.773 302.661 385.273 303.047C384.773 303.432 384.422 303.844 384.219 304.281L382.469 303.656C382.781 302.927 383.198 302.359 383.719 301.953C384.245 301.542 384.818 301.255 385.438 301.094C386.063 300.927 386.677 300.844 387.281 300.844C387.667 300.844 388.109 300.891 388.609 300.984C389.115 301.073 389.602 301.258 390.07 301.539C390.544 301.82 390.938 302.245 391.25 302.812C391.563 303.38 391.719 304.141 391.719 305.094V313H389.875V311.375H389.781C389.656 311.635 389.448 311.914 389.156 312.211C388.865 312.508 388.477 312.76 387.992 312.969C387.508 313.177 386.917 313.281 386.219 313.281ZM386.5 311.625C387.229 311.625 387.844 311.482 388.344 311.195C388.849 310.909 389.229 310.539 389.484 310.086C389.745 309.633 389.875 309.156 389.875 308.656V306.969C389.797 307.062 389.625 307.148 389.359 307.227C389.099 307.299 388.797 307.365 388.453 307.422C388.115 307.474 387.784 307.521 387.461 307.562C387.143 307.599 386.885 307.63 386.688 307.656C386.208 307.719 385.76 307.82 385.344 307.961C384.932 308.096 384.599 308.302 384.344 308.578C384.094 308.849 383.969 309.219 383.969 309.687C383.969 310.328 384.206 310.812 384.68 311.141C385.159 311.464 385.766 311.625 386.5 311.625Z" fill="black"/>
<path d="M309.219 73.2813C308.458 73.2813 307.768 73.138 307.148 72.8516C306.529 72.5599 306.036 72.1406 305.672 71.5938C305.307 71.0417 305.125 70.375 305.125 69.5937C305.125 68.9062 305.26 68.349 305.531 67.9219C305.802 67.4896 306.164 67.151 306.617 66.9062C307.07 66.6615 307.57 66.4792 308.117 66.3594C308.669 66.2344 309.224 66.1354 309.781 66.0625C310.51 65.9687 311.102 65.8984 311.555 65.8516C312.013 65.7995 312.346 65.7135 312.555 65.5937C312.768 65.474 312.875 65.2656 312.875 64.9687V64.9062C312.875 64.1354 312.664 63.5365 312.242 63.1094C311.826 62.6823 311.193 62.4687 310.344 62.4687C309.464 62.4687 308.773 62.6615 308.273 63.0469C307.773 63.4323 307.422 63.8437 307.219 64.2812L305.469 63.6562C305.781 62.9271 306.198 62.3594 306.719 61.9531C307.245 61.5417 307.818 61.2552 308.438 61.0937C309.063 60.9271 309.677 60.8438 310.281 60.8438C310.667 60.8438 311.109 60.8906 311.609 60.9844C312.115 61.0729 312.602 61.2578 313.07 61.5391C313.544 61.8203 313.938 62.2448 314.25 62.8125C314.563 63.3802 314.719 64.1406 314.719 65.0938V73H312.875V71.375H312.781C312.656 71.6354 312.448 71.9141 312.156 72.2109C311.865 72.5078 311.477 72.7604 310.992 72.9687C310.508 73.1771 309.917 73.2813 309.219 73.2813ZM309.5 71.625C310.229 71.625 310.844 71.4818 311.344 71.1953C311.849 70.9089 312.229 70.5391 312.484 70.0859C312.745 69.6328 312.875 69.1562 312.875 68.6562V66.9687C312.797 67.0625 312.625 67.1484 312.359 67.2266C312.099 67.2995 311.797 67.3646 311.453 67.4219C311.115 67.474 310.784 67.5208 310.461 67.5625C310.143 67.599 309.885 67.6302 309.688 67.6562C309.208 67.7187 308.76 67.8203 308.344 67.9609C307.932 68.0964 307.599 68.3021 307.344 68.5781C307.094 68.849 306.969 69.2187 306.969 69.6875C306.969 70.3281 307.206 70.8125 307.68 71.1406C308.159 71.4635 308.766 71.625 309.5 71.625Z" fill="black"/>
<path d="M64.9375 296V280H66.7812V285.906H66.9375C67.0729 285.698 67.2604 285.432 67.5 285.109C67.7448 284.781 68.0938 284.49 68.5469 284.234C69.0052 283.974 69.625 283.844 70.4063 283.844C71.4167 283.844 72.3073 284.096 73.0781 284.602C73.849 285.107 74.4505 285.823 74.8828 286.75C75.3151 287.677 75.5313 288.771 75.5313 290.031C75.5313 291.302 75.3151 292.404 74.8828 293.336C74.4505 294.263 73.8516 294.982 73.0859 295.492C72.3203 295.997 71.4375 296.25 70.4375 296.25C69.6667 296.25 69.0495 296.122 68.5859 295.867C68.1224 295.607 67.7656 295.312 67.5156 294.984C67.2656 294.651 67.0729 294.375 66.9375 294.156H66.7188V296H64.9375ZM66.75 290C66.75 290.906 66.8828 291.706 67.1484 292.398C67.4141 293.086 67.8021 293.625 68.3125 294.016C68.8229 294.401 69.4479 294.594 70.1875 294.594C70.9583 294.594 71.6016 294.391 72.1172 293.984C72.638 293.573 73.0286 293.021 73.2891 292.328C73.5547 291.63 73.6875 290.854 73.6875 290C73.6875 289.156 73.5573 288.396 73.2969 287.719C73.0417 287.036 72.6536 286.497 72.1328 286.102C71.6172 285.701 70.9688 285.5 70.1875 285.5C69.4375 285.5 68.8073 285.69 68.2969 286.07C67.7865 286.445 67.401 286.971 67.1406 287.648C66.8802 288.32 66.75 289.104 66.75 290Z" fill="black"/>
<path d="M161.938 74V58H163.781V63.9062H163.938C164.073 63.6979 164.26 63.4323 164.5 63.1094C164.745 62.7812 165.094 62.4896 165.547 62.2344C166.005 61.974 166.625 61.8438 167.406 61.8438C168.417 61.8438 169.307 62.0964 170.078 62.6016C170.849 63.1068 171.451 63.8229 171.883 64.75C172.315 65.6771 172.531 66.7708 172.531 68.0313C172.531 69.3021 172.315 70.4036 171.883 71.3359C171.451 72.263 170.852 72.9818 170.086 73.4922C169.32 73.9974 168.438 74.25 167.438 74.25C166.667 74.25 166.049 74.1224 165.586 73.8672C165.122 73.6068 164.766 73.3125 164.516 72.9844C164.266 72.651 164.073 72.375 163.938 72.1562H163.719V74H161.938ZM163.75 68C163.75 68.9062 163.883 69.7057 164.148 70.3984C164.414 71.0859 164.802 71.625 165.313 72.0156C165.823 72.401 166.448 72.5938 167.188 72.5938C167.958 72.5938 168.602 72.3906 169.117 71.9844C169.638 71.5729 170.029 71.0208 170.289 70.3281C170.555 69.6302 170.688 68.8542 170.688 68C170.688 67.1562 170.557 66.3958 170.297 65.7187C170.042 65.0365 169.654 64.4974 169.133 64.1016C168.617 63.7005 167.969 63.5 167.188 63.5C166.438 63.5 165.807 63.6901 165.297 64.0703C164.786 64.4453 164.401 64.9714 164.141 65.6484C163.88 66.3203 163.75 67.1042 163.75 68Z" fill="black"/>
<path d="M377.938 187V171H379.781V176.906H379.938C380.073 176.698 380.26 176.432 380.5 176.109C380.745 175.781 381.094 175.49 381.547 175.234C382.005 174.974 382.625 174.844 383.406 174.844C384.417 174.844 385.307 175.096 386.078 175.602C386.849 176.107 387.451 176.823 387.883 177.75C388.315 178.677 388.531 179.771 388.531 181.031C388.531 182.302 388.315 183.404 387.883 184.336C387.451 185.263 386.852 185.982 386.086 186.492C385.32 186.997 384.438 187.25 383.438 187.25C382.667 187.25 382.049 187.122 381.586 186.867C381.122 186.607 380.766 186.312 380.516 185.984C380.266 185.651 380.073 185.375 379.938 185.156H379.719V187H377.938ZM379.75 181C379.75 181.906 379.883 182.706 380.148 183.398C380.414 184.086 380.802 184.625 381.313 185.016C381.823 185.401 382.448 185.594 383.188 185.594C383.958 185.594 384.602 185.391 385.117 184.984C385.638 184.573 386.029 184.021 386.289 183.328C386.555 182.63 386.688 181.854 386.688 181C386.688 180.156 386.557 179.396 386.297 178.719C386.042 178.036 385.654 177.497 385.133 177.102C384.617 176.701 383.969 176.5 383.188 176.5C382.438 176.5 381.807 176.69 381.297 177.07C380.786 177.445 380.401 177.971 380.141 178.648C379.88 179.32 379.75 180.104 379.75 181Z" fill="black"/>
<path d="M283.938 393V377H285.781V382.906H285.938C286.073 382.698 286.26 382.432 286.5 382.109C286.745 381.781 287.094 381.49 287.547 381.234C288.005 380.974 288.625 380.844 289.406 380.844C290.417 380.844 291.307 381.096 292.078 381.602C292.849 382.107 293.451 382.823 293.883 383.75C294.315 384.677 294.531 385.771 294.531 387.031C294.531 388.302 294.315 389.404 293.883 390.336C293.451 391.263 292.852 391.982 292.086 392.492C291.32 392.997 290.438 393.25 289.438 393.25C288.667 393.25 288.049 393.122 287.586 392.867C287.122 392.607 286.766 392.312 286.516 391.984C286.266 391.651 286.073 391.375 285.938 391.156H285.719V393H283.938ZM285.75 387C285.75 387.906 285.883 388.706 286.148 389.398C286.414 390.086 286.802 390.625 287.313 391.016C287.823 391.401 288.448 391.594 289.188 391.594C289.958 391.594 290.602 391.391 291.117 390.984C291.638 390.573 292.029 390.021 292.289 389.328C292.555 388.63 292.688 387.854 292.688 387C292.688 386.156 292.557 385.396 292.297 384.719C292.042 384.036 291.654 383.497 291.133 383.102C290.617 382.701 289.969 382.5 289.188 382.5C288.438 382.5 287.807 382.69 287.297 383.07C286.786 383.445 286.401 383.971 286.141 384.648C285.88 385.32 285.75 386.104 285.75 387Z" fill="black"/>
<path d="M150.563 285.25C149.438 285.25 148.469 284.984 147.656 284.453C146.844 283.922 146.219 283.19 145.781 282.258C145.344 281.326 145.125 280.26 145.125 279.062C145.125 277.844 145.349 276.768 145.797 275.836C146.25 274.898 146.88 274.167 147.688 273.641C148.5 273.109 149.448 272.844 150.531 272.844C151.375 272.844 152.135 273 152.813 273.312C153.49 273.625 154.044 274.062 154.477 274.625C154.909 275.187 155.177 275.844 155.281 276.594H153.438C153.297 276.047 152.984 275.562 152.5 275.141C152.021 274.714 151.375 274.5 150.563 274.5C149.844 274.5 149.214 274.687 148.672 275.062C148.135 275.432 147.716 275.956 147.414 276.633C147.117 277.305 146.969 278.094 146.969 279C146.969 279.927 147.115 280.734 147.406 281.422C147.703 282.109 148.12 282.643 148.656 283.023C149.198 283.404 149.833 283.594 150.563 283.594C151.042 283.594 151.477 283.51 151.867 283.344C152.258 283.177 152.589 282.938 152.859 282.625C153.13 282.312 153.323 281.937 153.438 281.5H155.281C155.177 282.208 154.919 282.846 154.508 283.414C154.102 283.977 153.563 284.424 152.891 284.758C152.224 285.086 151.448 285.25 150.563 285.25Z" fill="black"/>
<path d="M168.563 165.25C167.438 165.25 166.469 164.984 165.656 164.453C164.844 163.922 164.219 163.19 163.781 162.258C163.344 161.326 163.125 160.26 163.125 159.062C163.125 157.844 163.349 156.768 163.797 155.836C164.25 154.898 164.88 154.167 165.688 153.641C166.5 153.109 167.448 152.844 168.531 152.844C169.375 152.844 170.135 153 170.813 153.312C171.49 153.625 172.044 154.062 172.477 154.625C172.909 155.187 173.177 155.844 173.281 156.594H171.438C171.297 156.047 170.984 155.562 170.5 155.141C170.021 154.714 169.375 154.5 168.563 154.5C167.844 154.5 167.214 154.687 166.672 155.062C166.135 155.432 165.716 155.956 165.414 156.633C165.117 157.305 164.969 158.094 164.969 159C164.969 159.927 165.115 160.734 165.406 161.422C165.703 162.109 166.12 162.643 166.656 163.023C167.198 163.404 167.833 163.594 168.563 163.594C169.042 163.594 169.477 163.51 169.867 163.344C170.258 163.177 170.589 162.938 170.859 162.625C171.13 162.312 171.323 161.937 171.438 161.5H173.281C173.177 162.208 172.919 162.846 172.508 163.414C172.102 163.977 171.563 164.424 170.891 164.758C170.224 165.086 169.448 165.25 168.563 165.25Z" fill="black"/>
<path d="M307.563 189.25C306.438 189.25 305.469 188.984 304.656 188.453C303.844 187.922 303.219 187.19 302.781 186.258C302.344 185.326 302.125 184.26 302.125 183.062C302.125 181.844 302.349 180.768 302.797 179.836C303.25 178.898 303.88 178.167 304.688 177.641C305.5 177.109 306.448 176.844 307.531 176.844C308.375 176.844 309.135 177 309.813 177.312C310.49 177.625 311.044 178.062 311.477 178.625C311.909 179.187 312.177 179.844 312.281 180.594H310.438C310.297 180.047 309.984 179.562 309.5 179.141C309.021 178.714 308.375 178.5 307.563 178.5C306.844 178.5 306.214 178.687 305.672 179.062C305.135 179.432 304.716 179.956 304.414 180.633C304.117 181.305 303.969 182.094 303.969 183C303.969 183.927 304.115 184.734 304.406 185.422C304.703 186.109 305.12 186.643 305.656 187.023C306.198 187.404 306.833 187.594 307.563 187.594C308.042 187.594 308.477 187.51 308.867 187.344C309.258 187.177 309.589 186.938 309.859 186.625C310.13 186.312 310.323 185.937 310.438 185.5H312.281C312.177 186.208 311.919 186.846 311.508 187.414C311.102 187.977 310.563 188.424 309.891 188.758C309.224 189.086 308.448 189.25 307.563 189.25Z" fill="black"/>
<path d="M282.563 304.25C281.438 304.25 280.469 303.984 279.656 303.453C278.844 302.922 278.219 302.19 277.781 301.258C277.344 300.326 277.125 299.26 277.125 298.062C277.125 296.844 277.349 295.768 277.797 294.836C278.25 293.898 278.88 293.167 279.688 292.641C280.5 292.109 281.448 291.844 282.531 291.844C283.375 291.844 284.135 292 284.813 292.312C285.49 292.625 286.044 293.062 286.477 293.625C286.909 294.187 287.177 294.844 287.281 295.594H285.438C285.297 295.047 284.984 294.562 284.5 294.141C284.021 293.714 283.375 293.5 282.563 293.5C281.844 293.5 281.214 293.687 280.672 294.062C280.135 294.432 279.716 294.956 279.414 295.633C279.117 296.305 278.969 297.094 278.969 298C278.969 298.927 279.115 299.734 279.406 300.422C279.703 301.109 280.12 301.643 280.656 302.023C281.198 302.404 281.833 302.594 282.563 302.594C283.042 302.594 283.477 302.51 283.867 302.344C284.258 302.177 284.589 301.938 284.859 301.625C285.13 301.312 285.323 300.937 285.438 300.5H287.281C287.177 301.208 286.919 301.846 286.508 302.414C286.102 302.977 285.563 303.424 284.891 303.758C284.224 304.086 283.448 304.25 282.563 304.25Z" fill="black"/>
</g>
<defs>
<clipPath id="clip0_402_1026">
<rect width="450" height="452" fill="white"/>
</clipPath>
</defs>
</svg>
