<svg width="430" height="430" viewBox="0 0 430 430" fill="none" xmlns="http://www.w3.org/2000/svg">
<g clip-path="url(#clip0_402_1113)">
<path d="M430 0H0V430H430V0Z" fill="white"/>
<path fill-rule="evenodd" clip-rule="evenodd" d="M124 237.5L140.909 250.31L153.719 233.401L136.81 220.591L124 237.5Z" fill="black" fill-opacity="0.0980392"/>
<path d="M124 237.5L140.909 250.31L153.719 233.401L136.81 220.591L124 237.5Z" stroke="black" stroke-opacity="0.6" stroke-width="2" stroke-miterlimit="10" stroke-linecap="round" stroke-linejoin="round"/>
<path fill-rule="evenodd" clip-rule="evenodd" d="M124 375H145.213V353.787H124V375Z" fill="black" fill-opacity="0.0980392"/>
<path d="M124 375H145.213V353.787H124V375Z" stroke="black" stroke-opacity="0.6" stroke-width="2" stroke-miterlimit="10" stroke-linecap="round" stroke-linejoin="round"/>
<path fill-rule="evenodd" clip-rule="evenodd" d="M124 56V77.2132H145.213V56H124Z" fill="black" fill-opacity="0.0980392"/>
<path d="M124 56V77.2132H145.213V56H124Z" stroke="black" stroke-opacity="0.6" stroke-width="2" stroke-miterlimit="10" stroke-linecap="round" stroke-linejoin="round"/>
<path d="M124 375H305.5" stroke="#616161" stroke-opacity="0.8" stroke-width="2.5" stroke-miterlimit="10" stroke-linecap="round" stroke-linejoin="round"/>
<path d="M124 56H261.5" stroke="#616161" stroke-opacity="0.8" stroke-width="2.5" stroke-miterlimit="10" stroke-linecap="round" stroke-linejoin="round"/>
<path d="M124 375V56" stroke="#616161" stroke-opacity="0.8" stroke-width="2.5" stroke-miterlimit="10" stroke-linecap="round" stroke-linejoin="round"/>
<path d="M124 237.5L261.5 56" stroke="#616161" stroke-opacity="0.8" stroke-width="2.5" stroke-miterlimit="10" stroke-linecap="round" stroke-linejoin="round"/>
<path d="M124 237.5L305.5 375" stroke="#616161" stroke-opacity="0.8" stroke-width="2.5" stroke-miterlimit="10" stroke-linecap="round" stroke-linejoin="round"/>
<path d="M305.5 375L261.5 56" stroke="#616161" stroke-opacity="0.8" stroke-width="2.5" stroke-miterlimit="10" stroke-linecap="round" stroke-linejoin="round"/>
<path d="M129 375C129 377.761 126.761 380 124 380C121.239 380 119 377.761 119 375C119 372.239 121.239 370 124 370C126.761 370 129 372.239 129 375Z" fill="#1565C0"/>
<path d="M129 375C129 377.761 126.761 380 124 380C121.239 380 119 377.761 119 375C119 372.239 121.239 370 124 370C126.761 370 129 372.239 129 375Z" stroke="black" stroke-miterlimit="10" stroke-linecap="round" stroke-linejoin="round"/>
<path d="M129.886 364H128.409L132.682 352.364H134.136L138.409 364H136.932L133.455 354.205H133.364L129.886 364ZM130.432 359.455H136.386V360.705H130.432V359.455Z" fill="#1565C0"/>
<path d="M129.886 364V365.5L131.3 364.502L129.886 364ZM128.409 364L127.001 363.483L128.409 365.5V364ZM132.682 352.364V350.864L131.274 351.847L132.682 352.364ZM134.136 352.364L135.544 351.847L134.136 350.864V352.364ZM138.409 364V365.5L139.817 363.483L138.409 364ZM136.932 364L135.518 364.502L136.932 365.5V364ZM133.455 354.205L134.868 353.703L133.455 352.705V354.205ZM133.364 354.205V352.705L131.95 353.703L133.364 354.205ZM130.432 359.455V357.955L128.932 359.455H130.432ZM136.386 359.455H137.886L136.386 357.955V359.455ZM136.386 360.705V362.205L137.886 360.705H136.386ZM130.432 360.705H128.932L130.432 362.205V360.705ZM129.886 362.5H128.409V365.5H129.886V362.5ZM129.817 364.517L134.09 352.881L131.274 351.847L127.001 363.483L129.817 364.517ZM132.682 353.864H134.136V350.864H132.682V353.864ZM132.728 352.881L137.001 364.517L139.817 363.483L135.544 351.847L132.728 352.881ZM138.409 362.5H136.932V365.5H138.409V362.5ZM138.345 363.498L134.868 353.703L132.041 354.706L135.518 364.502L138.345 363.498ZM133.455 352.705H133.364V355.705H133.455V352.705ZM131.95 353.703L128.473 363.498L131.3 364.502L134.777 354.706L131.95 353.703ZM130.432 360.955H136.386V357.955H130.432V360.955ZM134.886 359.455V360.705H137.886V359.455H134.886ZM136.386 359.205H130.432V362.205H136.386V359.205ZM131.932 360.705V359.455H128.932V360.705H131.932Z" fill="white"/>
<path d="M129.886 364H128.409L132.682 352.364H134.136L138.409 364H136.932L133.455 354.205H133.364L129.886 364ZM130.432 359.455H136.386V360.705H130.432V359.455Z" fill="#1565C0"/>
<path d="M310.5 375C310.5 377.761 308.261 380 305.5 380C302.739 380 300.5 377.761 300.5 375C300.5 372.239 302.739 370 305.5 370C308.261 370 310.5 372.239 310.5 375Z" fill="#1565C0"/>
<path d="M310.5 375C310.5 377.761 308.261 380 305.5 380C302.739 380 300.5 377.761 300.5 375C300.5 372.239 302.739 370 305.5 370C308.261 370 310.5 372.239 310.5 375Z" stroke="black" stroke-miterlimit="10" stroke-linecap="round" stroke-linejoin="round"/>
<path d="M310.409 364V352.364H314.477C315.288 352.364 315.956 352.504 316.483 352.784C317.009 353.061 317.402 353.434 317.659 353.903C317.917 354.369 318.045 354.886 318.045 355.455C318.045 355.955 317.956 356.367 317.778 356.693C317.604 357.019 317.373 357.277 317.085 357.466C316.801 357.655 316.492 357.795 316.159 357.886V358C316.515 358.023 316.873 358.148 317.233 358.375C317.593 358.602 317.894 358.928 318.136 359.352C318.379 359.777 318.5 360.295 318.5 360.909C318.5 361.492 318.367 362.017 318.102 362.483C317.837 362.949 317.419 363.318 316.847 363.591C316.275 363.864 315.53 364 314.614 364H310.409ZM311.818 362.75H314.614C315.534 362.75 316.188 362.572 316.574 362.216C316.964 361.856 317.159 361.42 317.159 360.909C317.159 360.515 317.059 360.152 316.858 359.818C316.657 359.481 316.371 359.212 316 359.011C315.629 358.807 315.189 358.705 314.682 358.705H311.818V362.75ZM311.818 357.477H314.432C314.856 357.477 315.239 357.394 315.58 357.227C315.924 357.061 316.197 356.826 316.398 356.523C316.602 356.22 316.705 355.864 316.705 355.455C316.705 354.943 316.527 354.509 316.17 354.153C315.814 353.794 315.25 353.614 314.477 353.614H311.818V357.477Z" fill="#1565C0"/>
<path d="M310.409 364H308.909L310.409 365.5V364ZM310.409 352.364V350.864L308.909 352.364H310.409ZM316.483 352.784L315.778 354.108L315.786 354.112L316.483 352.784ZM317.659 353.903L316.344 354.625L316.346 354.629L317.659 353.903ZM317.778 356.693L316.462 355.974L316.456 355.986L317.778 356.693ZM317.085 357.466L316.261 356.213L316.253 356.218L317.085 357.466ZM316.159 357.886L315.764 356.439L314.659 357.886H316.159ZM316.159 358H314.659L316.064 359.497L316.159 358ZM317.233 358.375L316.432 359.643L316.432 359.643L317.233 358.375ZM318.102 362.483L319.406 363.225L319.406 363.225L318.102 362.483ZM316.847 363.591L316.201 362.237L316.201 362.237L316.847 363.591ZM311.818 362.75H310.318L311.818 364.25V362.75ZM316.574 362.216L317.59 363.319L317.591 363.319L316.574 362.216ZM316.858 359.818L315.569 360.586L315.573 360.592L316.858 359.818ZM316 359.011L315.276 360.325L315.286 360.331L316 359.011ZM311.818 358.705V357.205L310.318 358.705H311.818ZM311.818 357.477H310.318L311.818 358.977V357.477ZM315.58 357.227L314.927 355.877L314.921 355.88L315.58 357.227ZM316.398 356.523L315.154 355.683L315.147 355.694L316.398 356.523ZM316.17 354.153L315.104 355.208L315.11 355.214L316.17 354.153ZM311.818 353.614V352.114L310.318 353.614H311.818ZM311.909 364V352.364H308.909V364H311.909ZM310.409 353.864H314.477V350.864H310.409V353.864ZM314.477 353.864C315.126 353.864 315.532 353.977 315.778 354.108L317.188 351.46C316.381 351.03 315.45 350.864 314.477 350.864V353.864ZM315.786 354.112C316.081 354.267 316.243 354.442 316.344 354.625L318.974 353.182C318.56 352.426 317.938 351.854 317.18 351.456L315.786 354.112ZM316.346 354.629C316.473 354.858 316.545 355.123 316.545 355.455H319.545C319.545 354.65 319.36 353.881 318.972 353.178L316.346 354.629ZM316.545 355.455C316.545 355.787 316.485 355.932 316.462 355.974L319.095 357.413C319.428 356.803 319.545 356.122 319.545 355.455H316.545ZM316.456 355.986C316.391 356.107 316.325 356.171 316.261 356.213L317.91 358.719C318.421 358.382 318.818 357.931 319.101 357.401L316.456 355.986ZM316.253 356.218C316.105 356.317 315.944 356.39 315.764 356.439L316.554 359.334C317.041 359.201 317.497 358.994 317.917 358.714L316.253 356.218ZM314.659 357.886V358H317.659V357.886H314.659ZM316.064 359.497C316.125 359.501 316.244 359.524 316.432 359.643L318.034 357.107C317.503 356.771 316.905 356.545 316.255 356.503L316.064 359.497ZM316.432 359.643C316.555 359.721 316.695 359.854 316.834 360.096L319.439 358.608C319.093 358.003 318.63 357.483 318.034 357.107L316.432 359.643ZM316.834 360.096C316.918 360.243 317 360.491 317 360.909H320C320 360.1 319.84 359.31 319.439 358.608L316.834 360.096ZM317 360.909C317 361.256 316.924 361.521 316.799 361.741L319.406 363.225C319.811 362.513 320 361.729 320 360.909H317ZM316.799 361.741C316.711 361.895 316.548 362.072 316.201 362.237L317.492 364.945C318.289 364.565 318.963 364.003 319.406 363.225L316.799 361.741ZM316.201 362.237C315.9 362.38 315.399 362.5 314.614 362.5V365.5C315.661 365.5 316.649 365.347 317.492 364.945L316.201 362.237ZM314.614 362.5H310.409V365.5H314.614V362.5ZM311.818 364.25H314.614V361.25H311.818V364.25ZM314.614 364.25C315.652 364.25 316.782 364.064 317.59 363.319L315.557 361.113C315.585 361.088 315.559 361.126 315.4 361.169C315.238 361.213 314.985 361.25 314.614 361.25V364.25ZM317.591 363.319C318.276 362.687 318.659 361.857 318.659 360.909H315.659C315.659 360.969 315.649 360.995 315.644 361.006C315.638 361.019 315.619 361.056 315.557 361.113L317.591 363.319ZM318.659 360.909C318.659 360.246 318.486 359.614 318.143 359.044L315.573 360.592C315.631 360.689 315.659 360.784 315.659 360.909H318.659ZM318.147 359.051C317.797 358.464 317.304 358.011 316.714 357.692L315.286 360.331C315.438 360.413 315.517 360.499 315.569 360.586L318.147 359.051ZM316.724 357.698C316.091 357.349 315.393 357.205 314.682 357.205V360.205C314.986 360.205 315.167 360.265 315.276 360.325L316.724 357.698ZM314.682 357.205H311.818V360.205H314.682V357.205ZM310.318 358.705V362.75H313.318V358.705H310.318ZM311.818 358.977H314.432V355.977H311.818V358.977ZM314.432 358.977C315.057 358.977 315.669 358.853 316.238 358.575L314.921 355.88C314.808 355.935 314.655 355.977 314.432 355.977V358.977ZM316.232 358.578C316.806 358.3 317.291 357.891 317.648 357.351L315.147 355.694C315.103 355.761 315.042 355.821 314.927 355.877L316.232 358.578ZM317.641 357.362C318.032 356.782 318.205 356.126 318.205 355.455H315.205C315.205 355.601 315.172 355.657 315.154 355.684L317.641 357.362ZM318.205 355.455C318.205 354.552 317.873 353.735 317.231 353.093L315.11 355.214C315.18 355.284 315.205 355.334 315.205 355.455H318.205ZM317.237 353.098C316.481 352.334 315.443 352.114 314.477 352.114V355.114C315.057 355.114 315.148 355.253 315.104 355.208L317.237 353.098ZM314.477 352.114H311.818V355.114H314.477V352.114ZM310.318 353.614V357.477H313.318V353.614H310.318Z" fill="white"/>
<path d="M310.409 364V352.364H314.477C315.288 352.364 315.956 352.504 316.483 352.784C317.009 353.061 317.402 353.434 317.659 353.903C317.917 354.369 318.045 354.886 318.045 355.455C318.045 355.955 317.956 356.367 317.778 356.693C317.604 357.019 317.373 357.277 317.085 357.466C316.801 357.655 316.492 357.795 316.159 357.886V358C316.515 358.023 316.873 358.148 317.233 358.375C317.593 358.602 317.894 358.928 318.136 359.352C318.379 359.777 318.5 360.295 318.5 360.909C318.5 361.492 318.367 362.017 318.102 362.483C317.837 362.949 317.419 363.318 316.847 363.591C316.275 363.864 315.53 364 314.614 364H310.409ZM311.818 362.75H314.614C315.534 362.75 316.188 362.572 316.574 362.216C316.964 361.856 317.159 361.42 317.159 360.909C317.159 360.515 317.059 360.152 316.858 359.818C316.657 359.481 316.371 359.212 316 359.011C315.629 358.807 315.189 358.705 314.682 358.705H311.818V362.75ZM311.818 357.477H314.432C314.856 357.477 315.239 357.394 315.58 357.227C315.924 357.061 316.197 356.826 316.398 356.523C316.602 356.22 316.705 355.864 316.705 355.455C316.705 354.943 316.527 354.509 316.17 354.153C315.814 353.794 315.25 353.614 314.477 353.614H311.818V357.477Z" fill="#1565C0"/>
<path d="M128 56C128 58.2091 126.209 60 124 60C121.791 60 120 58.2091 120 56C120 53.7909 121.791 52 124 52C126.209 52 128 53.7909 128 56Z" fill="#616161"/>
<path d="M128 56C128 58.2091 126.209 60 124 60C121.791 60 120 58.2091 120 56C120 53.7909 121.791 52 124 52C126.209 52 128 53.7909 128 56Z" stroke="black" stroke-miterlimit="10" stroke-linecap="round" stroke-linejoin="round"/>
<path d="M133 47H129.409V35.3636H133.159C134.288 35.3636 135.254 35.5966 136.057 36.0625C136.86 36.5246 137.475 37.1894 137.903 38.0568C138.331 38.9205 138.545 39.9545 138.545 41.1591C138.545 42.3712 138.33 43.4148 137.898 44.2898C137.466 45.161 136.837 45.8314 136.011 46.3011C135.186 46.767 134.182 47 133 47ZM130.818 45.75H132.909C133.871 45.75 134.669 45.5644 135.301 45.1932C135.934 44.822 136.405 44.2936 136.716 43.608C137.027 42.9223 137.182 42.1061 137.182 41.1591C137.182 40.2197 137.028 39.411 136.722 38.733C136.415 38.0511 135.956 37.5284 135.347 37.1648C134.737 36.7973 133.977 36.6136 133.068 36.6136H130.818V45.75Z" fill="#616161"/>
<path d="M129.409 47H127.909L129.409 48.5V47ZM129.409 35.3636V33.8636L127.909 35.3636H129.409ZM136.057 36.0625L135.304 37.3599L135.309 37.3626L136.057 36.0625ZM137.903 38.0568L136.558 38.7206L136.559 38.7229L137.903 38.0568ZM137.898 44.2898L139.242 44.9559L139.243 44.9536L137.898 44.2898ZM136.011 46.3011L136.748 47.6075L136.753 47.605L136.011 46.3011ZM130.818 45.75H129.318L130.818 47.25V45.75ZM135.301 45.1932L134.542 43.8995L135.301 45.1932ZM136.722 38.733L135.354 39.3485L135.355 39.3514L136.722 38.733ZM135.347 37.1648L134.572 38.4496L134.578 38.4531L135.347 37.1648ZM130.818 36.6136V35.1136L129.318 36.6136H130.818ZM133 45.5H129.409V48.5H133V45.5ZM130.909 47V35.3636H127.909V47H130.909ZM129.409 36.8636H133.159V33.8636H129.409V36.8636ZM133.159 36.8636C134.08 36.8636 134.774 37.0526 135.304 37.3599L136.81 34.7651C135.733 34.1406 134.495 33.8636 133.159 33.8636V36.8636ZM135.309 37.3626C135.842 37.6697 136.256 38.1073 136.558 38.7206L139.249 37.3931C138.695 36.2715 137.877 35.3795 136.805 34.7624L135.309 37.3626ZM136.559 38.7229C136.862 39.3343 137.045 40.1293 137.045 41.1591H140.045C140.045 39.7798 139.8 38.5066 139.247 37.3907L136.559 38.7229ZM137.045 41.1591C137.045 42.1955 136.861 43.0013 136.553 43.6259L139.243 44.9536C139.798 43.8282 140.045 42.5469 140.045 41.1591H137.045ZM136.554 43.6236C136.251 44.2337 135.829 44.6791 135.27 44.9973L136.753 47.605C137.845 46.9838 138.68 46.0883 139.242 44.9559L136.554 43.6236ZM135.274 44.9947C134.722 45.3061 133.986 45.5 133 45.5V48.5C134.377 48.5 135.649 48.228 136.748 47.6075L135.274 44.9947ZM130.818 47.25H132.909V44.25H130.818V47.25ZM132.909 47.25C134.057 47.25 135.136 47.029 136.06 46.4869L134.542 43.8995C134.201 44.0998 133.685 44.25 132.909 44.25V47.25ZM136.06 46.4869C136.967 45.9545 137.647 45.1869 138.082 44.227L135.35 42.989C135.163 43.4003 134.9 43.6894 134.542 43.8995L136.06 46.4869ZM138.082 44.227C138.501 43.3035 138.682 42.2662 138.682 41.1591H135.682C135.682 41.9459 135.552 42.5412 135.35 42.989L138.082 44.227ZM138.682 41.1591C138.682 40.0605 138.503 39.0308 138.088 38.1146L135.355 39.3514C135.554 39.7912 135.682 40.3789 135.682 41.1591H138.682ZM138.089 38.1174C137.664 37.1709 137.003 36.4062 136.115 35.8764L134.578 38.4531C134.91 38.6506 135.166 38.9314 135.354 39.3485L138.089 38.1174ZM136.121 35.8799C135.221 35.3378 134.176 35.1136 133.068 35.1136V38.1136C133.779 38.1136 134.253 38.2569 134.573 38.4496L136.121 35.8799ZM133.068 35.1136H130.818V38.1136H133.068V35.1136ZM129.318 36.6136V45.75H132.318V36.6136H129.318Z" fill="white"/>
<path d="M133 47H129.409V35.3636H133.159C134.288 35.3636 135.254 35.5966 136.057 36.0625C136.86 36.5246 137.475 37.1894 137.903 38.0568C138.331 38.9205 138.545 39.9545 138.545 41.1591C138.545 42.3712 138.33 43.4148 137.898 44.2898C137.466 45.161 136.837 45.8314 136.011 46.3011C135.186 46.767 134.182 47 133 47ZM130.818 45.75H132.909C133.871 45.75 134.669 45.5644 135.301 45.1932C135.934 44.822 136.405 44.2936 136.716 43.608C137.027 42.9223 137.182 42.1061 137.182 41.1591C137.182 40.2197 137.028 39.411 136.722 38.733C136.415 38.0511 135.956 37.5284 135.347 37.1648C134.737 36.7973 133.977 36.6136 133.068 36.6136H130.818V45.75Z" fill="#616161"/>
<path d="M128 237.5C128 239.709 126.209 241.5 124 241.5C121.791 241.5 120 239.709 120 237.5C120 235.291 121.791 233.5 124 233.5C126.209 233.5 128 235.291 128 237.5Z" fill="#616161"/>
<path d="M128 237.5C128 239.709 126.209 241.5 124 241.5C121.791 241.5 120 239.709 120 237.5C120 235.291 121.791 233.5 124 233.5C126.209 233.5 128 235.291 128 237.5Z" stroke="black" stroke-miterlimit="10" stroke-linecap="round" stroke-linejoin="round"/>
<path d="M129.409 229V217.364H130.818V223.136H130.955L136.182 217.364H138.023L133.136 222.614L138.023 229H136.318L132.273 223.591L130.818 225.227V229H129.409Z" fill="#616161"/>
<path d="M129.409 229H127.909L129.409 230.5V229ZM129.409 217.364V215.864L127.909 217.364H129.409ZM130.818 217.364H132.318L130.818 215.864V217.364ZM130.818 223.136H129.318L130.818 224.636V223.136ZM130.955 223.136V224.636L132.066 224.143L130.955 223.136ZM136.182 217.364V215.864L135.07 216.357L136.182 217.364ZM138.023 217.364L139.121 218.386L138.023 215.864V217.364ZM133.136 222.614L132.038 221.592L131.945 223.525L133.136 222.614ZM138.023 229V230.5L139.214 228.089L138.023 229ZM136.318 229L135.117 229.898L136.318 230.5V229ZM132.273 223.591L133.474 222.693L131.152 222.594L132.273 223.591ZM130.818 225.227L129.697 224.231L129.318 225.227H130.818ZM130.818 229V230.5L132.318 229H130.818ZM130.909 229V217.364H127.909V229H130.909ZM129.409 218.864H130.818V215.864H129.409V218.864ZM129.318 217.364V223.136H132.318V217.364H129.318ZM130.818 224.636H130.955V221.636H130.818V224.636ZM132.066 224.143L137.294 218.37L135.07 216.357L129.843 222.13L132.066 224.143ZM136.182 218.864H138.023V215.864H136.182V218.864ZM136.925 216.342L132.038 221.592L134.234 223.636L139.121 218.386L136.925 216.342ZM131.945 223.525L136.831 229.911L139.214 228.089L134.328 221.702L131.945 223.525ZM138.023 227.5H136.318V230.5H138.023V227.5ZM137.519 228.102L133.474 222.693L131.072 224.489L135.117 229.898L137.519 228.102ZM131.152 222.594L129.697 224.231L131.939 226.224L133.394 224.587L131.152 222.594ZM129.318 225.227V229H132.318V225.227H129.318ZM130.818 227.5H129.409V230.5H130.818V227.5Z" fill="white"/>
<path d="M129.409 229V217.364H130.818V223.136H130.955L136.182 217.364H138.023L133.136 222.614L138.023 229H136.318L132.273 223.591L130.818 225.227V229H129.409Z" fill="#616161"/>
<path d="M266.5 56C266.5 58.7614 264.261 61 261.5 61C258.739 61 256.5 58.7614 256.5 56C256.5 53.2386 258.739 51 261.5 51C264.261 51 266.5 53.2386 266.5 56Z" fill="#1565C0"/>
<path d="M266.5 56C266.5 58.7614 264.261 61 261.5 61C258.739 61 256.5 58.7614 256.5 56C256.5 53.2386 258.739 51 261.5 51C264.261 51 266.5 53.2386 266.5 56Z" stroke="black" stroke-miterlimit="10" stroke-linecap="round" stroke-linejoin="round"/>
<path d="M276.773 37H275.364C275.28 36.5947 275.134 36.2386 274.926 35.9318C274.722 35.625 274.472 35.3674 274.176 35.1591C273.884 34.947 273.561 34.7879 273.205 34.6818C272.848 34.5758 272.477 34.5227 272.091 34.5227C271.386 34.5227 270.748 34.7008 270.176 35.0568C269.608 35.4129 269.155 35.9375 268.818 36.6307C268.485 37.3239 268.318 38.1742 268.318 39.1818C268.318 40.1894 268.485 41.0398 268.818 41.733C269.155 42.4261 269.608 42.9508 270.176 43.3068C270.748 43.6629 271.386 43.8409 272.091 43.8409C272.477 43.8409 272.848 43.7879 273.205 43.6818C273.561 43.5758 273.884 43.4186 274.176 43.2102C274.472 42.9981 274.722 42.7386 274.926 42.4318C275.134 42.1212 275.28 41.7652 275.364 41.3636H276.773C276.667 41.9583 276.473 42.4905 276.193 42.9602C275.913 43.4299 275.564 43.8295 275.148 44.1591C274.731 44.4848 274.263 44.733 273.744 44.9034C273.229 45.0739 272.678 45.1591 272.091 45.1591C271.098 45.1591 270.216 44.9167 269.443 44.4318C268.67 43.947 268.063 43.2576 267.619 42.3636C267.176 41.4697 266.955 40.4091 266.955 39.1818C266.955 37.9545 267.176 36.8939 267.619 36C268.063 35.1061 268.67 34.4167 269.443 33.9318C270.216 33.447 271.098 33.2045 272.091 33.2045C272.678 33.2045 273.229 33.2898 273.744 33.4602C274.263 33.6307 274.731 33.8807 275.148 34.2102C275.564 34.536 275.913 34.9337 276.193 35.4034C276.473 35.8693 276.667 36.4015 276.773 37Z" fill="#1565C0"/>
<path d="M276.773 37V38.5L278.25 36.7383L276.773 37ZM275.364 37L273.894 37.3021L275.364 38.5V37ZM274.926 35.9318L273.678 36.7639L273.685 36.7744L274.926 35.9318ZM274.176 35.1591L273.294 36.3722L273.312 36.385L274.176 35.1591ZM273.205 34.6818L272.776 36.1194L272.776 36.1194L273.205 34.6818ZM270.176 35.0568L269.383 33.7834L269.38 33.7858L270.176 35.0568ZM268.818 36.6307L267.469 35.9746L267.466 35.9806L268.818 36.6307ZM268.818 41.733L267.466 42.383L267.469 42.389L268.818 41.733ZM270.176 43.3068L269.38 44.5779L269.383 44.5802L270.176 43.3068ZM273.205 43.6818L272.776 42.2442L272.776 42.2442L273.205 43.6818ZM274.176 43.2102L275.048 44.4308L275.051 44.4287L274.176 43.2102ZM274.926 42.4318L273.68 41.5963L273.678 41.5998L274.926 42.4318ZM275.364 41.3636V39.8636L273.895 41.0588L275.364 41.3636ZM276.773 41.3636L278.249 41.627L276.773 39.8636V41.3636ZM276.193 42.9602L274.905 42.1915L274.905 42.1915L276.193 42.9602ZM275.148 44.1591L276.072 45.3408L276.078 45.3356L275.148 44.1591ZM273.744 44.9034L273.276 43.4783L273.273 43.4793L273.744 44.9034ZM269.443 44.4318L268.646 45.7024L268.646 45.7024L269.443 44.4318ZM267.619 42.3636L268.963 41.6974L268.963 41.6974L267.619 42.3636ZM267.619 36L266.275 35.3337L267.619 36ZM273.744 33.4602L273.273 34.8843L273.276 34.8853L273.744 33.4602ZM275.148 34.2102L274.217 35.3867L274.224 35.3919L275.148 34.2102ZM276.193 35.4034L274.905 36.1721L274.908 36.1767L276.193 35.4034ZM276.773 35.5H275.364V38.5H276.773V35.5ZM276.833 36.6979C276.714 36.1215 276.499 35.5773 276.167 35.0892L273.685 36.7744C273.77 36.9 273.846 37.0679 273.894 37.3021L276.833 36.6979ZM276.174 35.0998C275.869 34.6423 275.49 34.2502 275.041 33.9332L273.312 36.385C273.453 36.4846 273.574 36.6077 273.678 36.7639L276.174 35.0998ZM275.058 33.946C274.625 33.6308 274.147 33.3974 273.633 33.2442L272.776 36.1194C272.974 36.1784 273.144 36.2631 273.294 36.3722L275.058 33.946ZM273.633 33.2442C273.132 33.0952 272.616 33.0227 272.091 33.0227V36.0227C272.338 36.0227 272.565 36.0564 272.776 36.1194L273.633 33.2442ZM272.091 33.0227C271.12 33.0227 270.204 33.2723 269.383 33.7834L270.969 36.3302C271.292 36.1292 271.653 36.0227 272.091 36.0227V33.0227ZM269.38 33.7858C268.539 34.3123 267.91 35.0674 267.469 35.9746L270.167 37.2867C270.4 36.8076 270.677 36.5134 270.973 36.3279L269.38 33.7858ZM267.466 35.9806C267.01 36.9294 266.818 38.0161 266.818 39.1818H269.818C269.818 38.3324 269.96 37.7184 270.17 37.2807L267.466 35.9806ZM266.818 39.1818C266.818 40.3475 267.01 41.4343 267.466 42.383L270.17 41.0829C269.96 40.6453 269.818 40.0313 269.818 39.1818H266.818ZM267.469 42.389C267.91 43.2963 268.539 44.0513 269.38 44.5779L270.973 42.0358C270.677 41.8502 270.4 41.556 270.167 41.0769L267.469 42.389ZM269.383 44.5802C270.204 45.0913 271.12 45.3409 272.091 45.3409V42.3409C271.653 42.3409 271.292 42.2344 270.969 42.0334L269.383 44.5802ZM272.091 45.3409C272.616 45.3409 273.132 45.2685 273.633 45.1194L272.776 42.2442C272.565 42.3073 272.338 42.3409 272.091 42.3409V45.3409ZM273.633 45.1194C274.142 44.9678 274.617 44.739 275.048 44.4308L273.304 41.9896C273.152 42.0981 272.979 42.1837 272.776 42.2442L273.633 45.1194ZM275.051 44.4287C275.495 44.1098 275.871 43.7188 276.174 43.2639L273.678 41.5998C273.572 41.7585 273.448 41.8864 273.301 41.9917L275.051 44.4287ZM276.172 43.2674C276.498 42.781 276.713 42.2413 276.832 41.6685L273.895 41.0588C273.847 41.289 273.771 41.4614 273.68 41.5963L276.172 43.2674ZM275.364 42.8636H276.773V39.8636H275.364V42.8636ZM275.296 41.1003C275.218 41.5351 275.083 41.8929 274.905 42.1915L277.481 43.7289C277.864 43.0881 278.115 42.3816 278.249 41.627L275.296 41.1003ZM274.905 42.1915C274.715 42.5094 274.487 42.7695 274.217 42.9826L276.078 45.3356C276.642 44.8896 277.11 44.3504 277.481 43.7289L274.905 42.1915ZM274.224 42.9774C273.948 43.1928 273.636 43.3602 273.276 43.4783L274.212 46.3285C274.891 46.1057 275.514 45.7769 276.072 45.3408L274.224 42.9774ZM273.273 43.4793C272.922 43.5955 272.531 43.6591 272.091 43.6591V46.6591C272.825 46.6591 273.536 46.5522 274.216 46.3275L273.273 43.4793ZM272.091 43.6591C271.355 43.6591 270.753 43.4831 270.24 43.1612L268.646 45.7024C269.678 46.3503 270.842 46.6591 272.091 46.6591V43.6591ZM270.24 43.1612C269.724 42.8372 269.295 42.3673 268.963 41.6974L266.275 43.0299C266.83 44.1478 267.617 45.0568 268.646 45.7024L270.24 43.1612ZM268.963 41.6974C268.644 41.0527 268.455 40.2301 268.455 39.1818H265.455C265.455 40.5881 265.709 41.8867 266.275 43.0299L268.963 41.6974ZM268.455 39.1818C268.455 38.1335 268.644 37.3109 268.963 36.6663L266.275 35.3337C265.709 36.4769 265.455 37.7756 265.455 39.1818H268.455ZM268.963 36.6663C269.295 35.9963 269.724 35.5265 270.24 35.2024L268.646 32.6612C267.617 33.3069 266.83 34.2158 266.275 35.3337L268.963 36.6663ZM270.24 35.2024C270.753 34.8806 271.355 34.7045 272.091 34.7045V31.7045C270.842 31.7045 269.678 32.0134 268.646 32.6612L270.24 35.2024ZM272.091 34.7045C272.531 34.7045 272.922 34.7681 273.273 34.8843L274.216 32.0362C273.536 31.8114 272.825 31.7045 272.091 31.7045V34.7045ZM273.276 34.8853C273.632 35.0023 273.943 35.1697 274.217 35.3867L276.078 33.0337C275.519 32.5917 274.894 32.259 274.212 32.0351L273.276 34.8853ZM274.224 35.3919C274.49 35.5998 274.716 35.8558 274.905 36.1721L277.481 34.6347C277.109 34.0116 276.639 33.4722 276.072 33.0285L274.224 35.3919ZM274.908 36.1767C275.083 36.4678 275.218 36.8229 275.296 37.2617L278.25 36.7383C278.115 35.9802 277.864 35.2708 277.478 34.6301L274.908 36.1767Z" fill="white"/>
<path d="M276.773 37H275.364C275.28 36.5947 275.134 36.2386 274.926 35.9318C274.722 35.625 274.472 35.3674 274.176 35.1591C273.884 34.947 273.561 34.7879 273.205 34.6818C272.848 34.5758 272.477 34.5227 272.091 34.5227C271.386 34.5227 270.748 34.7008 270.176 35.0568C269.608 35.4129 269.155 35.9375 268.818 36.6307C268.485 37.3239 268.318 38.1742 268.318 39.1818C268.318 40.1894 268.485 41.0398 268.818 41.733C269.155 42.4261 269.608 42.9508 270.176 43.3068C270.748 43.6629 271.386 43.8409 272.091 43.8409C272.477 43.8409 272.848 43.7879 273.205 43.6818C273.561 43.5758 273.884 43.4186 274.176 43.2102C274.472 42.9981 274.722 42.7386 274.926 42.4318C275.134 42.1212 275.28 41.7652 275.364 41.3636H276.773C276.667 41.9583 276.473 42.4905 276.193 42.9602C275.913 43.4299 275.564 43.8295 275.148 44.1591C274.731 44.4848 274.263 44.733 273.744 44.9034C273.229 45.0739 272.678 45.1591 272.091 45.1591C271.098 45.1591 270.216 44.9167 269.443 44.4318C268.67 43.947 268.063 43.2576 267.619 42.3636C267.176 41.4697 266.955 40.4091 266.955 39.1818C266.955 37.9545 267.176 36.8939 267.619 36C268.063 35.1061 268.67 34.4167 269.443 33.9318C270.216 33.447 271.098 33.2045 272.091 33.2045C272.678 33.2045 273.229 33.2898 273.744 33.4602C274.263 33.6307 274.731 33.8807 275.148 34.2102C275.564 34.536 275.913 34.9337 276.193 35.4034C276.473 35.8693 276.667 36.4015 276.773 37Z" fill="#1565C0"/>
<path d="M199.219 48.2813C198.458 48.2813 197.768 48.138 197.148 47.8516C196.529 47.5599 196.036 47.1406 195.672 46.5938C195.307 46.0417 195.125 45.375 195.125 44.5937C195.125 43.9062 195.26 43.349 195.531 42.9219C195.802 42.4896 196.164 42.151 196.617 41.9062C197.07 41.6615 197.57 41.4792 198.117 41.3594C198.669 41.2344 199.224 41.1354 199.781 41.0625C200.51 40.9687 201.102 40.8984 201.555 40.8516C202.013 40.7995 202.346 40.7135 202.555 40.5937C202.768 40.474 202.875 40.2656 202.875 39.9687V39.9062C202.875 39.1354 202.664 38.5365 202.242 38.1094C201.826 37.6823 201.193 37.4687 200.344 37.4687C199.464 37.4687 198.773 37.6615 198.273 38.0469C197.773 38.4323 197.422 38.8437 197.219 39.2812L195.469 38.6562C195.781 37.9271 196.198 37.3594 196.719 36.9531C197.245 36.5417 197.818 36.2552 198.438 36.0937C199.063 35.9271 199.677 35.8438 200.281 35.8438C200.667 35.8438 201.109 35.8906 201.609 35.9844C202.115 36.0729 202.602 36.2578 203.07 36.5391C203.544 36.8203 203.938 37.2448 204.25 37.8125C204.563 38.3802 204.719 39.1406 204.719 40.0938V48H202.875V46.375H202.781C202.656 46.6354 202.448 46.9141 202.156 47.2109C201.865 47.5078 201.477 47.7604 200.992 47.9687C200.508 48.1771 199.917 48.2813 199.219 48.2813ZM199.5 46.625C200.229 46.625 200.844 46.4818 201.344 46.1953C201.849 45.9089 202.229 45.5391 202.484 45.0859C202.745 44.6328 202.875 44.1562 202.875 43.6562V41.9687C202.797 42.0625 202.625 42.1484 202.359 42.2266C202.099 42.2995 201.797 42.3646 201.453 42.4219C201.115 42.474 200.784 42.5208 200.461 42.5625C200.143 42.599 199.885 42.6302 199.688 42.6562C199.208 42.7187 198.76 42.8203 198.344 42.9609C197.932 43.0964 197.599 43.3021 197.344 43.5781C197.094 43.849 196.969 44.2187 196.969 44.6875C196.969 45.3281 197.206 45.8125 197.68 46.1406C198.159 46.4635 198.766 46.625 199.5 46.625Z" fill="black"/>
<path d="M104.938 152V136H106.781V141.906H106.938C107.073 141.698 107.26 141.432 107.5 141.109C107.745 140.781 108.094 140.49 108.547 140.234C109.005 139.974 109.625 139.844 110.406 139.844C111.417 139.844 112.307 140.096 113.078 140.602C113.849 141.107 114.451 141.823 114.883 142.75C115.315 143.677 115.531 144.771 115.531 146.031C115.531 147.302 115.315 148.404 114.883 149.336C114.451 150.263 113.852 150.982 113.086 151.492C112.32 151.997 111.438 152.25 110.438 152.25C109.667 152.25 109.049 152.122 108.586 151.867C108.122 151.607 107.766 151.312 107.516 150.984C107.266 150.651 107.073 150.375 106.938 150.156H106.719V152H104.938ZM106.75 146C106.75 146.906 106.883 147.706 107.148 148.398C107.414 149.086 107.802 149.625 108.313 150.016C108.823 150.401 109.448 150.594 110.188 150.594C110.958 150.594 111.602 150.391 112.117 149.984C112.638 149.573 113.029 149.021 113.289 148.328C113.555 147.63 113.688 146.854 113.688 146C113.688 145.156 113.557 144.396 113.297 143.719C113.042 143.036 112.654 142.497 112.133 142.102C111.617 141.701 110.969 141.5 110.188 141.5C109.438 141.5 108.807 141.69 108.297 142.07C107.786 142.445 107.401 142.971 107.141 143.648C106.88 144.32 106.75 145.104 106.75 146Z" fill="black"/>
<path d="M201.563 163.25C200.438 163.25 199.469 162.984 198.656 162.453C197.844 161.922 197.219 161.19 196.781 160.258C196.344 159.326 196.125 158.26 196.125 157.062C196.125 155.844 196.349 154.768 196.797 153.836C197.25 152.898 197.88 152.167 198.688 151.641C199.5 151.109 200.448 150.844 201.531 150.844C202.375 150.844 203.135 151 203.813 151.312C204.49 151.625 205.044 152.062 205.477 152.625C205.909 153.187 206.177 153.844 206.281 154.594H204.438C204.297 154.047 203.984 153.562 203.5 153.141C203.021 152.714 202.375 152.5 201.563 152.5C200.844 152.5 200.214 152.687 199.672 153.062C199.135 153.432 198.716 153.956 198.414 154.633C198.117 155.305 197.969 156.094 197.969 157C197.969 157.927 198.115 158.734 198.406 159.422C198.703 160.109 199.12 160.643 199.656 161.023C200.198 161.404 200.833 161.594 201.563 161.594C202.042 161.594 202.477 161.51 202.867 161.344C203.258 161.177 203.589 160.938 203.859 160.625C204.13 160.312 204.323 159.937 204.438 159.5H206.281C206.177 160.208 205.919 160.846 205.508 161.414C205.102 161.977 204.563 162.424 203.891 162.758C203.224 163.086 202.448 163.25 201.563 163.25Z" fill="black"/>
<path d="M214.563 296.25C213.438 296.25 212.469 295.984 211.656 295.453C210.844 294.922 210.219 294.19 209.781 293.258C209.344 292.326 209.125 291.26 209.125 290.062C209.125 288.844 209.349 287.768 209.797 286.836C210.25 285.898 210.88 285.167 211.688 284.641C212.5 284.109 213.448 283.844 214.531 283.844C215.375 283.844 216.135 284 216.813 284.312C217.49 284.625 218.044 285.062 218.477 285.625C218.909 286.187 219.177 286.844 219.281 287.594H217.438C217.297 287.047 216.984 286.562 216.5 286.141C216.021 285.714 215.375 285.5 214.563 285.5C213.844 285.5 213.214 285.687 212.672 286.062C212.135 286.432 211.716 286.956 211.414 287.633C211.117 288.305 210.969 289.094 210.969 290C210.969 290.927 211.115 291.734 211.406 292.422C211.703 293.109 212.12 293.643 212.656 294.023C213.198 294.404 213.833 294.594 214.563 294.594C215.042 294.594 215.477 294.51 215.867 294.344C216.258 294.177 216.589 293.938 216.859 293.625C217.13 293.312 217.323 292.937 217.438 292.5H219.281C219.177 293.208 218.919 293.846 218.508 294.414C218.102 294.977 217.563 295.424 216.891 295.758C216.224 296.086 215.448 296.25 214.563 296.25Z" fill="black"/>
<path d="M111.219 315.281C110.458 315.281 109.768 315.138 109.148 314.852C108.529 314.56 108.036 314.141 107.672 313.594C107.307 313.042 107.125 312.375 107.125 311.594C107.125 310.906 107.26 310.349 107.531 309.922C107.802 309.49 108.164 309.151 108.617 308.906C109.07 308.661 109.57 308.479 110.117 308.359C110.669 308.234 111.224 308.135 111.781 308.063C112.51 307.969 113.102 307.898 113.555 307.852C114.013 307.799 114.346 307.714 114.555 307.594C114.768 307.474 114.875 307.266 114.875 306.969V306.906C114.875 306.135 114.664 305.536 114.242 305.109C113.826 304.682 113.193 304.469 112.344 304.469C111.464 304.469 110.773 304.661 110.273 305.047C109.773 305.432 109.422 305.844 109.219 306.281L107.469 305.656C107.781 304.927 108.198 304.359 108.719 303.953C109.245 303.542 109.818 303.255 110.438 303.094C111.063 302.927 111.677 302.844 112.281 302.844C112.667 302.844 113.109 302.891 113.609 302.984C114.115 303.073 114.602 303.258 115.07 303.539C115.544 303.82 115.938 304.245 116.25 304.812C116.563 305.38 116.719 306.141 116.719 307.094V315H114.875V313.375H114.781C114.656 313.635 114.448 313.914 114.156 314.211C113.865 314.508 113.477 314.76 112.992 314.969C112.508 315.177 111.917 315.281 111.219 315.281ZM111.5 313.625C112.229 313.625 112.844 313.482 113.344 313.195C113.849 312.909 114.229 312.539 114.484 312.086C114.745 311.633 114.875 311.156 114.875 310.656V308.969C114.797 309.062 114.625 309.148 114.359 309.227C114.099 309.299 113.797 309.365 113.453 309.422C113.115 309.474 112.784 309.521 112.461 309.562C112.143 309.599 111.885 309.63 111.688 309.656C111.208 309.719 110.76 309.82 110.344 309.961C109.932 310.096 109.599 310.302 109.344 310.578C109.094 310.849 108.969 311.219 108.969 311.687C108.969 312.328 109.206 312.812 109.68 313.141C110.159 313.464 110.766 313.625 111.5 313.625Z" fill="black"/>
<path d="M213.938 396V380H215.781V385.906H215.938C216.073 385.698 216.26 385.432 216.5 385.109C216.745 384.781 217.094 384.49 217.547 384.234C218.005 383.974 218.625 383.844 219.406 383.844C220.417 383.844 221.307 384.096 222.078 384.602C222.849 385.107 223.451 385.823 223.883 386.75C224.315 387.677 224.531 388.771 224.531 390.031C224.531 391.302 224.315 392.404 223.883 393.336C223.451 394.263 222.852 394.982 222.086 395.492C221.32 395.997 220.438 396.25 219.438 396.25C218.667 396.25 218.049 396.122 217.586 395.867C217.122 395.607 216.766 395.312 216.516 394.984C216.266 394.651 216.073 394.375 215.938 394.156H215.719V396H213.938ZM215.75 390C215.75 390.906 215.883 391.706 216.148 392.398C216.414 393.086 216.802 393.625 217.313 394.016C217.823 394.401 218.448 394.594 219.188 394.594C219.958 394.594 220.602 394.391 221.117 393.984C221.638 393.573 222.029 393.021 222.289 392.328C222.555 391.63 222.688 390.854 222.688 390C222.688 389.156 222.557 388.396 222.297 387.719C222.042 387.036 221.654 386.497 221.133 386.102C220.617 385.701 219.969 385.5 219.188 385.5C218.438 385.5 217.807 385.69 217.297 386.07C216.786 386.445 216.401 386.971 216.141 387.648C215.88 388.32 215.75 389.104 215.75 390Z" fill="black"/>
</g>
<defs>
<clipPath id="clip0_402_1113">
<rect width="430" height="430" fill="white"/>
</clipPath>
</defs>
</svg>
