<svg width="340" height="340" viewBox="0 0 340 340" fill="none" xmlns="http://www.w3.org/2000/svg">
<g clip-path="url(#clip0_402_1191)">
<path d="M340 0H0V340H340V0Z" fill="white"/>
<path fill-rule="evenodd" clip-rule="evenodd" d="M65 283H79.1421V268.858H65V283Z" fill="black" fill-opacity="0.0980392"/>
<path d="M65 283H79.1421V268.858H65V283Z" stroke="black" stroke-opacity="0.6" stroke-width="2" stroke-miterlimit="10" stroke-linecap="round" stroke-linejoin="round"/>
<path fill-rule="evenodd" clip-rule="evenodd" d="M275 283V268.858H260.857V283H275Z" fill="black" fill-opacity="0.0980392"/>
<path d="M275 283V268.858H260.857V283H275Z" stroke="black" stroke-opacity="0.6" stroke-width="2" stroke-miterlimit="10" stroke-linecap="round" stroke-linejoin="round"/>
<path fill-rule="evenodd" clip-rule="evenodd" d="M172.934 153.357L181.682 164.469L192.793 155.721L184.045 144.609L172.934 153.357Z" fill="black" fill-opacity="0.0980392"/>
<path d="M172.934 153.357L181.682 164.469L192.793 155.721L184.045 144.609L172.934 153.357Z" stroke="black" stroke-opacity="0.6" stroke-width="2" stroke-miterlimit="10" stroke-linecap="round" stroke-linejoin="round"/>
<path fill-rule="evenodd" clip-rule="evenodd" d="M194.643 180.933L183.531 189.681L192.279 200.793L203.391 192.044L194.643 180.933Z" fill="black" fill-opacity="0.0980392"/>
<path d="M194.643 180.933L183.531 189.681L192.279 200.793L203.391 192.044L194.643 180.933Z" stroke="black" stroke-opacity="0.6" stroke-width="2" stroke-miterlimit="10" stroke-linecap="round" stroke-linejoin="round"/>
<path fill-rule="evenodd" clip-rule="evenodd" d="M167.067 202.643L158.319 191.531L147.207 200.279L155.955 211.391L167.067 202.643Z" fill="black" fill-opacity="0.0980392"/>
<path d="M167.067 202.643L158.319 191.531L147.207 200.279L155.955 211.391L167.067 202.643Z" stroke="black" stroke-opacity="0.6" stroke-width="2" stroke-miterlimit="10" stroke-linecap="round" stroke-linejoin="round"/>
<path fill-rule="evenodd" clip-rule="evenodd" d="M145.358 175.067L156.469 166.319L147.721 155.207L136.609 163.956L145.358 175.067Z" fill="black" fill-opacity="0.0980392"/>
<path d="M145.358 175.067L156.469 166.319L147.721 155.207L136.609 163.956L145.358 175.067Z" stroke="black" stroke-opacity="0.6" stroke-width="2" stroke-miterlimit="10" stroke-linecap="round" stroke-linejoin="round"/>
<path d="M65 283H275" stroke="#616161" stroke-opacity="0.8" stroke-width="2.5" stroke-miterlimit="10" stroke-linecap="round" stroke-linejoin="round"/>
<path d="M65 283V73" stroke="#616161" stroke-opacity="0.8" stroke-width="2.5" stroke-miterlimit="10" stroke-linecap="round" stroke-linejoin="round"/>
<path d="M65 73H275" stroke="#616161" stroke-opacity="0.8" stroke-width="2.5" stroke-miterlimit="10" stroke-linecap="round" stroke-linejoin="round"/>
<path d="M275 73V283" stroke="#616161" stroke-opacity="0.8" stroke-width="2.5" stroke-miterlimit="10" stroke-linecap="round" stroke-linejoin="round"/>
<path d="M65 283L194.643 180.933" stroke="#616161" stroke-opacity="0.8" stroke-width="2.5" stroke-miterlimit="10" stroke-linecap="round" stroke-linejoin="round"/>
<path d="M194.643 180.933L275 283" stroke="#616161" stroke-opacity="0.8" stroke-width="2.5" stroke-miterlimit="10" stroke-linecap="round" stroke-linejoin="round"/>
<path d="M275.001 283L172.934 153.357" stroke="#616161" stroke-opacity="0.8" stroke-width="2.5" stroke-miterlimit="10" stroke-linecap="round" stroke-linejoin="round"/>
<path d="M172.934 153.357L275.001 73" stroke="#616161" stroke-opacity="0.8" stroke-width="2.5" stroke-miterlimit="10" stroke-linecap="round" stroke-linejoin="round"/>
<path d="M145.357 175.067L275 73" stroke="#616161" stroke-opacity="0.8" stroke-width="2.5" stroke-miterlimit="10" stroke-linecap="round" stroke-linejoin="round"/>
<path d="M167.067 202.643L65 73" stroke="#616161" stroke-opacity="0.8" stroke-width="2.5" stroke-miterlimit="10" stroke-linecap="round" stroke-linejoin="round"/>
<path d="M70 283C70 285.761 67.7614 288 65 288C62.2386 288 60 285.761 60 283C60 280.239 62.2386 278 65 278C67.7614 278 70 280.239 70 283Z" fill="#1565C0"/>
<path d="M70 283C70 285.761 67.7614 288 65 288C62.2386 288 60 285.761 60 283C60 280.239 62.2386 278 65 278C67.7614 278 70 280.239 70 283Z" stroke="black" stroke-miterlimit="10" stroke-linecap="round" stroke-linejoin="round"/>
<path d="M70.8864 272H69.4091L73.6818 260.364H75.1364L79.4091 272H77.9318L74.4545 262.205H74.3636L70.8864 272ZM71.4318 267.455H77.3864V268.705H71.4318V267.455Z" fill="#1565C0"/>
<path d="M70.8864 272V273.5L72.2999 272.502L70.8864 272ZM69.4091 272L68.001 271.483L69.4091 273.5V272ZM73.6818 260.364V258.864L72.2737 259.847L73.6818 260.364ZM75.1364 260.364L76.5444 259.847L75.1364 258.864V260.364ZM79.4091 272V273.5L80.8172 271.483L79.4091 272ZM77.9318 272L76.5182 272.502L77.9318 273.5V272ZM74.4545 262.205L75.8681 261.703L74.4545 260.705V262.205ZM74.3636 262.205V260.705L72.9501 261.703L74.3636 262.205ZM71.4318 267.455V265.955L69.9318 267.455H71.4318ZM77.3864 267.455H78.8864L77.3864 265.955V267.455ZM77.3864 268.705V270.205L78.8864 268.705H77.3864ZM71.4318 268.705H69.9318L71.4318 270.205V268.705ZM70.8864 270.5H69.4091V273.5H70.8864V270.5ZM70.8172 272.517L75.0899 260.881L72.2737 259.847L68.001 271.483L70.8172 272.517ZM73.6818 261.864H75.1364V258.864H73.6818V261.864ZM73.7283 260.881L78.001 272.517L80.8172 271.483L76.5444 259.847L73.7283 260.881ZM79.4091 270.5H77.9318V273.5H79.4091V270.5ZM79.3454 271.498L75.8681 261.703L73.041 262.706L76.5182 272.502L79.3454 271.498ZM74.4545 260.705H74.3636V263.705H74.4545V260.705ZM72.9501 261.703L69.4728 271.498L72.2999 272.502L75.7772 262.706L72.9501 261.703ZM71.4318 268.955H77.3864V265.955H71.4318V268.955ZM75.8864 267.455V268.705H78.8864V267.455H75.8864ZM77.3864 267.205H71.4318V270.205H77.3864V267.205ZM72.9318 268.705V267.455H69.9318V268.705H72.9318Z" fill="white"/>
<path d="M70.8864 272H69.4091L73.6818 260.364H75.1364L79.4091 272H77.9318L74.4545 262.205H74.3636L70.8864 272ZM71.4318 267.455H77.3864V268.705H71.4318V267.455Z" fill="#1565C0"/>
<path d="M280 283C280 285.761 277.761 288 275 288C272.239 288 270 285.761 270 283C270 280.239 272.239 278 275 278C277.761 278 280 280.239 280 283Z" fill="#1565C0"/>
<path d="M280 283C280 285.761 277.761 288 275 288C272.239 288 270 285.761 270 283C270 280.239 272.239 278 275 278C277.761 278 280 280.239 280 283Z" stroke="black" stroke-miterlimit="10" stroke-linecap="round" stroke-linejoin="round"/>
<path d="M280.409 272V260.364H284.477C285.288 260.364 285.956 260.504 286.483 260.784C287.009 261.061 287.402 261.434 287.659 261.903C287.917 262.369 288.045 262.886 288.045 263.455C288.045 263.955 287.956 264.367 287.778 264.693C287.604 265.019 287.373 265.277 287.085 265.466C286.801 265.655 286.492 265.795 286.159 265.886V266C286.515 266.023 286.873 266.148 287.233 266.375C287.593 266.602 287.894 266.928 288.136 267.352C288.379 267.777 288.5 268.295 288.5 268.909C288.5 269.492 288.367 270.017 288.102 270.483C287.837 270.949 287.419 271.318 286.847 271.591C286.275 271.864 285.53 272 284.614 272H280.409ZM281.818 270.75H284.614C285.534 270.75 286.188 270.572 286.574 270.216C286.964 269.856 287.159 269.42 287.159 268.909C287.159 268.515 287.059 268.152 286.858 267.818C286.657 267.481 286.371 267.212 286 267.011C285.629 266.807 285.189 266.705 284.682 266.705H281.818V270.75ZM281.818 265.477H284.432C284.856 265.477 285.239 265.394 285.58 265.227C285.924 265.061 286.197 264.826 286.398 264.523C286.602 264.22 286.705 263.864 286.705 263.455C286.705 262.943 286.527 262.509 286.17 262.153C285.814 261.794 285.25 261.614 284.477 261.614H281.818V265.477Z" fill="#1565C0"/>
<path d="M280.409 272H278.909L280.409 273.5V272ZM280.409 260.364V258.864L278.909 260.364H280.409ZM286.483 260.784L285.778 262.108L285.786 262.112L286.483 260.784ZM287.659 261.903L286.344 262.625L286.346 262.629L287.659 261.903ZM287.778 264.693L286.462 263.974L286.456 263.986L287.778 264.693ZM287.085 265.466L286.261 264.213L286.253 264.218L287.085 265.466ZM286.159 265.886L285.764 264.439L284.659 265.886H286.159ZM286.159 266H284.659L286.064 267.497L286.159 266ZM287.233 266.375L286.432 267.643L286.432 267.643L287.233 266.375ZM288.102 270.483L289.406 271.225L289.406 271.225L288.102 270.483ZM286.847 271.591L286.201 270.237L286.201 270.237L286.847 271.591ZM281.818 270.75H280.318L281.818 272.25V270.75ZM286.574 270.216L287.59 271.319L287.591 271.319L286.574 270.216ZM286.858 267.818L285.569 268.586L285.573 268.592L286.858 267.818ZM286 267.011L285.276 268.325L285.286 268.331L286 267.011ZM281.818 266.705V265.205L280.318 266.705H281.818ZM281.818 265.477H280.318L281.818 266.977V265.477ZM285.58 265.227L284.927 263.877L284.921 263.88L285.58 265.227ZM286.398 264.523L285.154 263.683L285.147 263.694L286.398 264.523ZM286.17 262.153L285.104 263.208L285.11 263.214L286.17 262.153ZM281.818 261.614V260.114L280.318 261.614H281.818ZM281.909 272V260.364H278.909V272H281.909ZM280.409 261.864H284.477V258.864H280.409V261.864ZM284.477 261.864C285.126 261.864 285.532 261.977 285.778 262.108L287.188 259.46C286.381 259.03 285.45 258.864 284.477 258.864V261.864ZM285.786 262.112C286.081 262.267 286.243 262.442 286.344 262.625L288.974 261.182C288.56 260.426 287.938 259.854 287.18 259.456L285.786 262.112ZM286.346 262.629C286.473 262.858 286.545 263.123 286.545 263.455H289.545C289.545 262.65 289.36 261.881 288.972 261.178L286.346 262.629ZM286.545 263.455C286.545 263.787 286.485 263.932 286.462 263.974L289.095 265.413C289.428 264.803 289.545 264.122 289.545 263.455H286.545ZM286.456 263.986C286.391 264.107 286.325 264.171 286.261 264.213L287.91 266.719C288.421 266.382 288.818 265.931 289.101 265.401L286.456 263.986ZM286.253 264.218C286.105 264.317 285.944 264.39 285.764 264.439L286.554 267.334C287.041 267.201 287.497 266.994 287.917 266.714L286.253 264.218ZM284.659 265.886V266H287.659V265.886H284.659ZM286.064 267.497C286.125 267.501 286.244 267.524 286.432 267.643L288.034 265.107C287.503 264.771 286.905 264.545 286.255 264.503L286.064 267.497ZM286.432 267.643C286.555 267.721 286.695 267.854 286.834 268.096L289.439 266.608C289.093 266.003 288.63 265.483 288.034 265.107L286.432 267.643ZM286.834 268.096C286.918 268.243 287 268.491 287 268.909H290C290 268.1 289.84 267.31 289.439 266.608L286.834 268.096ZM287 268.909C287 269.256 286.924 269.521 286.799 269.741L289.406 271.225C289.811 270.513 290 269.729 290 268.909H287ZM286.799 269.741C286.711 269.895 286.548 270.072 286.201 270.237L287.492 272.945C288.289 272.565 288.963 272.003 289.406 271.225L286.799 269.741ZM286.201 270.237C285.9 270.38 285.399 270.5 284.614 270.5V273.5C285.661 273.5 286.649 273.347 287.492 272.945L286.201 270.237ZM284.614 270.5H280.409V273.5H284.614V270.5ZM281.818 272.25H284.614V269.25H281.818V272.25ZM284.614 272.25C285.652 272.25 286.782 272.064 287.59 271.319L285.557 269.113C285.585 269.088 285.559 269.126 285.4 269.169C285.238 269.213 284.985 269.25 284.614 269.25V272.25ZM287.591 271.319C288.276 270.687 288.659 269.857 288.659 268.909H285.659C285.659 268.969 285.649 268.995 285.644 269.006C285.638 269.019 285.619 269.056 285.557 269.113L287.591 271.319ZM288.659 268.909C288.659 268.246 288.486 267.614 288.143 267.044L285.573 268.592C285.631 268.689 285.659 268.784 285.659 268.909H288.659ZM288.147 267.051C287.797 266.464 287.304 266.011 286.714 265.692L285.286 268.331C285.438 268.413 285.517 268.499 285.569 268.586L288.147 267.051ZM286.724 265.698C286.091 265.349 285.393 265.205 284.682 265.205V268.205C284.986 268.205 285.167 268.265 285.276 268.325L286.724 265.698ZM284.682 265.205H281.818V268.205H284.682V265.205ZM280.318 266.705V270.75H283.318V266.705H280.318ZM281.818 266.977H284.432V263.977H281.818V266.977ZM284.432 266.977C285.057 266.977 285.669 266.853 286.238 266.575L284.921 263.88C284.808 263.935 284.655 263.977 284.432 263.977V266.977ZM286.232 266.578C286.806 266.3 287.291 265.891 287.648 265.351L285.147 263.694C285.103 263.761 285.042 263.821 284.927 263.877L286.232 266.578ZM287.641 265.362C288.032 264.782 288.205 264.126 288.205 263.455H285.205C285.205 263.601 285.172 263.657 285.154 263.684L287.641 265.362ZM288.205 263.455C288.205 262.552 287.873 261.735 287.231 261.093L285.11 263.214C285.18 263.284 285.205 263.334 285.205 263.455H288.205ZM287.237 261.098C286.481 260.334 285.443 260.114 284.477 260.114V263.114C285.057 263.114 285.148 263.253 285.104 263.208L287.237 261.098ZM284.477 260.114H281.818V263.114H284.477V260.114ZM280.318 261.614V265.477H283.318V261.614H280.318Z" fill="white"/>
<path d="M280.409 272V260.364H284.477C285.288 260.364 285.956 260.504 286.483 260.784C287.009 261.061 287.402 261.434 287.659 261.903C287.917 262.369 288.045 262.886 288.045 263.455C288.045 263.955 287.956 264.367 287.778 264.693C287.604 265.019 287.373 265.277 287.085 265.466C286.801 265.655 286.492 265.795 286.159 265.886V266C286.515 266.023 286.873 266.148 287.233 266.375C287.593 266.602 287.894 266.928 288.136 267.352C288.379 267.777 288.5 268.295 288.5 268.909C288.5 269.492 288.367 270.017 288.102 270.483C287.837 270.949 287.419 271.318 286.847 271.591C286.275 271.864 285.53 272 284.614 272H280.409ZM281.818 270.75H284.614C285.534 270.75 286.188 270.572 286.574 270.216C286.964 269.856 287.159 269.42 287.159 268.909C287.159 268.515 287.059 268.152 286.858 267.818C286.657 267.481 286.371 267.212 286 267.011C285.629 266.807 285.189 266.705 284.682 266.705H281.818V270.75ZM281.818 265.477H284.432C284.856 265.477 285.239 265.394 285.58 265.227C285.924 265.061 286.197 264.826 286.398 264.523C286.602 264.22 286.705 263.864 286.705 263.455C286.705 262.943 286.527 262.509 286.17 262.153C285.814 261.794 285.25 261.614 284.477 261.614H281.818V265.477Z" fill="#1565C0"/>
<path d="M279 73C279 75.2091 277.209 77 275 77C272.791 77 271 75.2091 271 73C271 70.7909 272.791 69 275 69C277.209 69 279 70.7909 279 73Z" fill="#616161"/>
<path d="M279 73C279 75.2091 277.209 77 275 77C272.791 77 271 75.2091 271 73C271 70.7909 272.791 69 275 69C277.209 69 279 70.7909 279 73Z" stroke="black" stroke-miterlimit="10" stroke-linecap="round" stroke-linejoin="round"/>
<path d="M289.773 56H288.364C288.28 55.5947 288.134 55.2386 287.926 54.9318C287.722 54.625 287.472 54.3674 287.176 54.1591C286.884 53.947 286.561 53.7879 286.205 53.6818C285.848 53.5758 285.477 53.5227 285.091 53.5227C284.386 53.5227 283.748 53.7008 283.176 54.0568C282.608 54.4129 282.155 54.9375 281.818 55.6307C281.485 56.3239 281.318 57.1742 281.318 58.1818C281.318 59.1894 281.485 60.0398 281.818 60.733C282.155 61.4261 282.608 61.9508 283.176 62.3068C283.748 62.6629 284.386 62.8409 285.091 62.8409C285.477 62.8409 285.848 62.7879 286.205 62.6818C286.561 62.5758 286.884 62.4186 287.176 62.2102C287.472 61.9981 287.722 61.7386 287.926 61.4318C288.134 61.1212 288.28 60.7652 288.364 60.3636H289.773C289.667 60.9583 289.473 61.4905 289.193 61.9602C288.913 62.4299 288.564 62.8295 288.148 63.1591C287.731 63.4848 287.263 63.733 286.744 63.9034C286.229 64.0739 285.678 64.1591 285.091 64.1591C284.098 64.1591 283.216 63.9167 282.443 63.4318C281.67 62.947 281.063 62.2576 280.619 61.3636C280.176 60.4697 279.955 59.4091 279.955 58.1818C279.955 56.9545 280.176 55.8939 280.619 55C281.063 54.1061 281.67 53.4167 282.443 52.9318C283.216 52.447 284.098 52.2045 285.091 52.2045C285.678 52.2045 286.229 52.2898 286.744 52.4602C287.263 52.6307 287.731 52.8807 288.148 53.2102C288.564 53.536 288.913 53.9337 289.193 54.4034C289.473 54.8693 289.667 55.4015 289.773 56Z" fill="#616161"/>
<path d="M289.773 56V57.5L291.25 55.7383L289.773 56ZM288.364 56L286.894 56.3021L288.364 57.5V56ZM287.926 54.9318L286.678 55.7639L286.685 55.7744L287.926 54.9318ZM287.176 54.1591L286.294 55.3722L286.312 55.385L287.176 54.1591ZM286.205 53.6818L285.776 55.1194L285.776 55.1194L286.205 53.6818ZM283.176 54.0568L282.383 52.7834L282.38 52.7858L283.176 54.0568ZM281.818 55.6307L280.469 54.9746L280.466 54.9806L281.818 55.6307ZM281.818 60.733L280.466 61.383L280.469 61.389L281.818 60.733ZM283.176 62.3068L282.38 63.5779L282.383 63.5802L283.176 62.3068ZM286.205 62.6818L285.776 61.2442L285.776 61.2442L286.205 62.6818ZM287.176 62.2102L288.048 63.4308L288.051 63.4287L287.176 62.2102ZM287.926 61.4318L286.68 60.5963L286.678 60.5998L287.926 61.4318ZM288.364 60.3636V58.8636L286.895 60.0588L288.364 60.3636ZM289.773 60.3636L291.249 60.627L289.773 58.8636V60.3636ZM289.193 61.9602L287.905 61.1915L287.905 61.1915L289.193 61.9602ZM288.148 63.1591L289.072 64.3408L289.078 64.3356L288.148 63.1591ZM286.744 63.9034L286.276 62.4783L286.273 62.4793L286.744 63.9034ZM282.443 63.4318L281.646 64.7024L281.646 64.7024L282.443 63.4318ZM280.619 61.3636L281.963 60.6974L281.963 60.6974L280.619 61.3636ZM280.619 55L279.275 54.3337L280.619 55ZM286.744 52.4602L286.273 53.8843L286.276 53.8853L286.744 52.4602ZM288.148 53.2102L287.217 54.3867L287.224 54.3919L288.148 53.2102ZM289.193 54.4034L287.905 55.1721L287.908 55.1767L289.193 54.4034ZM289.773 54.5H288.364V57.5H289.773V54.5ZM289.833 55.6979C289.714 55.1215 289.499 54.5773 289.167 54.0892L286.685 55.7744C286.77 55.9 286.846 56.0679 286.894 56.3021L289.833 55.6979ZM289.174 54.0998C288.869 53.6423 288.49 53.2502 288.041 52.9332L286.312 55.385C286.453 55.4846 286.574 55.6077 286.678 55.7639L289.174 54.0998ZM288.058 52.946C287.625 52.6308 287.147 52.3974 286.633 52.2442L285.776 55.1194C285.974 55.1784 286.144 55.2631 286.294 55.3722L288.058 52.946ZM286.633 52.2442C286.132 52.0952 285.616 52.0227 285.091 52.0227V55.0227C285.338 55.0227 285.565 55.0564 285.776 55.1194L286.633 52.2442ZM285.091 52.0227C284.12 52.0227 283.204 52.2723 282.383 52.7834L283.969 55.3302C284.292 55.1292 284.653 55.0227 285.091 55.0227V52.0227ZM282.38 52.7858C281.539 53.3123 280.91 54.0674 280.469 54.9746L283.167 56.2867C283.4 55.8076 283.677 55.5134 283.973 55.3279L282.38 52.7858ZM280.466 54.9806C280.01 55.9294 279.818 57.0161 279.818 58.1818H282.818C282.818 57.3324 282.96 56.7184 283.17 56.2807L280.466 54.9806ZM279.818 58.1818C279.818 59.3475 280.01 60.4343 280.466 61.383L283.17 60.0829C282.96 59.6453 282.818 59.0313 282.818 58.1818H279.818ZM280.469 61.389C280.91 62.2963 281.539 63.0513 282.38 63.5779L283.973 61.0358C283.677 60.8502 283.4 60.556 283.167 60.0769L280.469 61.389ZM282.383 63.5802C283.204 64.0913 284.12 64.3409 285.091 64.3409V61.3409C284.653 61.3409 284.292 61.2344 283.969 61.0334L282.383 63.5802ZM285.091 64.3409C285.616 64.3409 286.132 64.2685 286.633 64.1194L285.776 61.2442C285.565 61.3073 285.338 61.3409 285.091 61.3409V64.3409ZM286.633 64.1194C287.142 63.9678 287.617 63.739 288.048 63.4308L286.304 60.9896C286.152 61.0981 285.979 61.1837 285.776 61.2442L286.633 64.1194ZM288.051 63.4287C288.495 63.1098 288.871 62.7188 289.174 62.2639L286.678 60.5998C286.572 60.7585 286.448 60.8864 286.301 60.9917L288.051 63.4287ZM289.172 62.2674C289.498 61.781 289.713 61.2413 289.832 60.6685L286.895 60.0588C286.847 60.289 286.771 60.4614 286.68 60.5963L289.172 62.2674ZM288.364 61.8636H289.773V58.8636H288.364V61.8636ZM288.296 60.1003C288.218 60.5351 288.083 60.8929 287.905 61.1915L290.481 62.7289C290.864 62.0881 291.115 61.3816 291.249 60.627L288.296 60.1003ZM287.905 61.1915C287.715 61.5094 287.487 61.7695 287.217 61.9826L289.078 64.3356C289.642 63.8896 290.11 63.3504 290.481 62.7289L287.905 61.1915ZM287.224 61.9774C286.948 62.1928 286.636 62.3602 286.276 62.4783L287.212 65.3285C287.891 65.1057 288.514 64.7769 289.072 64.3408L287.224 61.9774ZM286.273 62.4793C285.922 62.5955 285.531 62.6591 285.091 62.6591V65.6591C285.825 65.6591 286.536 65.5522 287.216 65.3275L286.273 62.4793ZM285.091 62.6591C284.355 62.6591 283.753 62.4831 283.24 62.1612L281.646 64.7024C282.678 65.3503 283.842 65.6591 285.091 65.6591V62.6591ZM283.24 62.1612C282.724 61.8372 282.295 61.3673 281.963 60.6974L279.275 62.0299C279.83 63.1478 280.617 64.0568 281.646 64.7024L283.24 62.1612ZM281.963 60.6974C281.644 60.0527 281.455 59.2301 281.455 58.1818H278.455C278.455 59.5881 278.709 60.8867 279.275 62.0299L281.963 60.6974ZM281.455 58.1818C281.455 57.1335 281.644 56.3109 281.963 55.6663L279.275 54.3337C278.709 55.4769 278.455 56.7756 278.455 58.1818H281.455ZM281.963 55.6663C282.295 54.9963 282.724 54.5265 283.24 54.2024L281.646 51.6612C280.617 52.3069 279.83 53.2158 279.275 54.3337L281.963 55.6663ZM283.24 54.2024C283.753 53.8806 284.355 53.7045 285.091 53.7045V50.7045C283.842 50.7045 282.678 51.0134 281.646 51.6612L283.24 54.2024ZM285.091 53.7045C285.531 53.7045 285.922 53.7681 286.273 53.8843L287.216 51.0362C286.536 50.8114 285.825 50.7045 285.091 50.7045V53.7045ZM286.276 53.8853C286.632 54.0023 286.943 54.1697 287.217 54.3867L289.078 52.0337C288.519 51.5917 287.894 51.259 287.212 51.0351L286.276 53.8853ZM287.224 54.3919C287.49 54.5998 287.716 54.8558 287.905 55.1721L290.481 53.6347C290.109 53.0116 289.639 52.4722 289.072 52.0285L287.224 54.3919ZM287.908 55.1767C288.083 55.4678 288.218 55.8229 288.296 56.2617L291.25 55.7383C291.115 54.9802 290.864 54.2708 290.478 53.6301L287.908 55.1767Z" fill="white"/>
<path d="M289.773 56H288.364C288.28 55.5947 288.134 55.2386 287.926 54.9318C287.722 54.625 287.472 54.3674 287.176 54.1591C286.884 53.947 286.561 53.7879 286.205 53.6818C285.848 53.5758 285.477 53.5227 285.091 53.5227C284.386 53.5227 283.748 53.7008 283.176 54.0568C282.608 54.4129 282.155 54.9375 281.818 55.6307C281.485 56.3239 281.318 57.1742 281.318 58.1818C281.318 59.1894 281.485 60.0398 281.818 60.733C282.155 61.4261 282.608 61.9508 283.176 62.3068C283.748 62.6629 284.386 62.8409 285.091 62.8409C285.477 62.8409 285.848 62.7879 286.205 62.6818C286.561 62.5758 286.884 62.4186 287.176 62.2102C287.472 61.9981 287.722 61.7386 287.926 61.4318C288.134 61.1212 288.28 60.7652 288.364 60.3636H289.773C289.667 60.9583 289.473 61.4905 289.193 61.9602C288.913 62.4299 288.564 62.8295 288.148 63.1591C287.731 63.4848 287.263 63.733 286.744 63.9034C286.229 64.0739 285.678 64.1591 285.091 64.1591C284.098 64.1591 283.216 63.9167 282.443 63.4318C281.67 62.947 281.063 62.2576 280.619 61.3636C280.176 60.4697 279.955 59.4091 279.955 58.1818C279.955 56.9545 280.176 55.8939 280.619 55C281.063 54.1061 281.67 53.4167 282.443 52.9318C283.216 52.447 284.098 52.2045 285.091 52.2045C285.678 52.2045 286.229 52.2898 286.744 52.4602C287.263 52.6307 287.731 52.8807 288.148 53.2102C288.564 53.536 288.913 53.9337 289.193 54.4034C289.473 54.8693 289.667 55.4015 289.773 56Z" fill="#616161"/>
<path d="M69 73C69 75.2091 67.2091 77 65 77C62.7909 77 61 75.2091 61 73C61 70.7909 62.7909 69 65 69C67.2091 69 69 70.7909 69 73Z" fill="#616161"/>
<path d="M69 73C69 75.2091 67.2091 77 65 77C62.7909 77 61 75.2091 61 73C61 70.7909 62.7909 69 65 69C67.2091 69 69 70.7909 69 73Z" stroke="black" stroke-miterlimit="10" stroke-linecap="round" stroke-linejoin="round"/>
<path d="M74 64H70.4091V52.3636H74.1591C75.2879 52.3636 76.2538 52.5966 77.0568 53.0625C77.8598 53.5246 78.4754 54.1894 78.9034 55.0568C79.3314 55.9205 79.5455 56.9545 79.5455 58.1591C79.5455 59.3712 79.3295 60.4148 78.8977 61.2898C78.4659 62.161 77.8371 62.8314 77.0114 63.3011C76.1856 63.767 75.1818 64 74 64ZM71.8182 62.75H73.9091C74.8712 62.75 75.6686 62.5644 76.3011 62.1932C76.9337 61.822 77.4053 61.2936 77.7159 60.608C78.0265 59.9223 78.1818 59.1061 78.1818 58.1591C78.1818 57.2197 78.0284 56.411 77.7216 55.733C77.4148 55.0511 76.9564 54.5284 76.3466 54.1648C75.7367 53.7973 74.9773 53.6136 74.0682 53.6136H71.8182V62.75Z" fill="#616161"/>
<path d="M70.4091 64H68.9091L70.4091 65.5V64ZM70.4091 52.3636V50.8636L68.9091 52.3636H70.4091ZM77.0568 53.0625L76.3041 54.3599L76.3087 54.3626L77.0568 53.0625ZM78.9034 55.0568L77.5583 55.7206L77.5594 55.7229L78.9034 55.0568ZM78.8977 61.2898L80.2417 61.9559L80.2428 61.9536L78.8977 61.2898ZM77.0114 63.3011L77.7485 64.6075L77.753 64.605L77.0114 63.3011ZM71.8182 62.75H70.3182L71.8182 64.25V62.75ZM76.3011 62.1932L75.542 60.8995L76.3011 62.1932ZM77.7216 55.733L76.3537 56.3485L76.355 56.3514L77.7216 55.733ZM76.3466 54.1648L75.5725 55.4496L75.5784 55.4531L76.3466 54.1648ZM71.8182 53.6136V52.1136L70.3182 53.6136H71.8182ZM74 62.5H70.4091V65.5H74V62.5ZM71.9091 64V52.3636H68.9091V64H71.9091ZM70.4091 53.8636H74.1591V50.8636H70.4091V53.8636ZM74.1591 53.8636C75.0804 53.8636 75.7744 54.0526 76.3041 54.3599L77.8096 51.7651C76.7332 51.1406 75.4954 50.8636 74.1591 50.8636V53.8636ZM76.3087 54.3626C76.8423 54.6697 77.2557 55.1073 77.5583 55.7206L80.2486 54.3931C79.6951 53.2715 78.8774 52.3795 77.805 51.7624L76.3087 54.3626ZM77.5594 55.7229C77.8624 56.3343 78.0455 57.1293 78.0455 58.1591H81.0455C81.0455 56.7798 80.8004 55.5066 80.2474 54.3907L77.5594 55.7229ZM78.0455 58.1591C78.0455 59.1955 77.8609 60.0013 77.5526 60.6259L80.2428 61.9536C80.7982 60.8282 81.0455 59.5469 81.0455 58.1591H78.0455ZM77.5538 60.6236C77.2514 61.2337 76.8292 61.6791 76.2697 61.9973L77.753 64.605C78.845 63.9838 79.6804 63.0883 80.2417 61.9559L77.5538 60.6236ZM76.2743 61.9947C75.7225 62.3061 74.9864 62.5 74 62.5V65.5C75.3773 65.5 76.6487 65.228 77.7485 64.6075L76.2743 61.9947ZM71.8182 64.25H73.9091V61.25H71.8182V64.25ZM73.9091 64.25C75.0571 64.25 76.1365 64.029 77.0603 63.4869L75.542 60.8995C75.2006 61.0998 74.6853 61.25 73.9091 61.25V64.25ZM77.0603 63.4869C77.9675 62.9545 78.6474 62.1869 79.0822 61.227L76.3496 59.989C76.1632 60.4003 75.8999 60.6894 75.542 60.8995L77.0603 63.4869ZM79.0822 61.227C79.5006 60.3035 79.6818 59.2662 79.6818 58.1591H76.6818C76.6818 58.9459 76.5524 59.5412 76.3496 59.989L79.0822 61.227ZM79.6818 58.1591C79.6818 57.0605 79.5028 56.0308 79.0882 55.1146L76.355 56.3514C76.554 56.7912 76.6818 57.3789 76.6818 58.1591H79.6818ZM79.0895 55.1174C78.6635 54.1709 78.0032 53.4062 77.1148 52.8764L75.5784 55.4531C75.9096 55.6506 76.166 55.9314 76.3537 56.3485L79.0895 55.1174ZM77.1207 52.8799C76.2208 52.3378 75.1757 52.1136 74.0682 52.1136V55.1136C74.7789 55.1136 75.2527 55.2569 75.5725 55.4496L77.1207 52.8799ZM74.0682 52.1136H71.8182V55.1136H74.0682V52.1136ZM70.3182 53.6136V62.75H73.3182V53.6136H70.3182Z" fill="white"/>
<path d="M74 64H70.4091V52.3636H74.1591C75.2879 52.3636 76.2538 52.5966 77.0568 53.0625C77.8598 53.5246 78.4754 54.1894 78.9034 55.0568C79.3314 55.9205 79.5455 56.9545 79.5455 58.1591C79.5455 59.3712 79.3295 60.4148 78.8977 61.2898C78.4659 62.161 77.8371 62.8314 77.0114 63.3011C76.1856 63.767 75.1818 64 74 64ZM71.8182 62.75H73.9091C74.8712 62.75 75.6686 62.5644 76.3011 62.1932C76.9337 61.822 77.4053 61.2936 77.7159 60.608C78.0265 59.9223 78.1818 59.1061 78.1818 58.1591C78.1818 57.2197 78.0284 56.411 77.7216 55.733C77.4148 55.0511 76.9564 54.5284 76.3466 54.1648C75.7367 53.7973 74.9773 53.6136 74.0682 53.6136H71.8182V62.75Z" fill="#616161"/>
<path d="M196.643 180.933C196.643 182.037 195.747 182.933 194.643 182.933C193.538 182.933 192.643 182.037 192.643 180.933C192.643 179.828 193.538 178.933 194.643 178.933C195.747 178.933 196.643 179.828 196.643 180.933Z" fill="#616161"/>
<path d="M196.643 180.933C196.643 182.037 195.747 182.933 194.643 182.933C193.538 182.933 192.643 182.037 192.643 180.933C192.643 179.828 193.538 178.933 194.643 178.933C195.747 178.933 196.643 179.828 196.643 180.933Z" stroke="black" stroke-miterlimit="10" stroke-linecap="round" stroke-linejoin="round"/>
<path d="M201.818 164.364V176H200.409V164.364H201.818Z" fill="#616161"/>
<path d="M201.818 164.364H203.318L201.818 162.864V164.364ZM201.818 176V177.5L203.318 176H201.818ZM200.409 176H198.909L200.409 177.5V176ZM200.409 164.364V162.864L198.909 164.364H200.409ZM200.318 164.364V176H203.318V164.364H200.318ZM201.818 174.5H200.409V177.5H201.818V174.5ZM201.909 176V164.364H198.909V176H201.909ZM200.409 165.864H201.818V162.864H200.409V165.864Z" fill="white"/>
<path d="M201.818 164.364V176H200.409V164.364H201.818Z" fill="#616161"/>
<path d="M174.934 153.357C174.934 154.462 174.038 155.357 172.934 155.357C171.829 155.357 170.934 154.462 170.934 153.357C170.934 152.253 171.829 151.357 172.934 151.357C174.038 151.357 174.934 152.253 174.934 153.357Z" fill="#616161"/>
<path d="M174.934 153.357C174.934 154.462 174.038 155.357 172.934 155.357C171.829 155.357 170.934 154.462 170.934 153.357C170.934 152.253 171.829 151.357 172.934 151.357C174.038 151.357 174.934 152.253 174.934 153.357Z" stroke="black" stroke-miterlimit="10" stroke-linecap="round" stroke-linejoin="round"/>
<path d="M182.864 136.364H184.273V144.682C184.273 145.424 184.136 146.055 183.864 146.574C183.591 147.093 183.206 147.487 182.71 147.756C182.214 148.025 181.629 148.159 180.955 148.159C180.318 148.159 179.752 148.044 179.256 147.812C178.759 147.578 178.369 147.244 178.085 146.812C177.801 146.381 177.659 145.867 177.659 145.273H179.045C179.045 145.602 179.127 145.89 179.29 146.136C179.456 146.379 179.684 146.568 179.972 146.705C180.259 146.841 180.587 146.909 180.955 146.909C181.36 146.909 181.705 146.824 181.989 146.653C182.273 146.483 182.489 146.233 182.636 145.903C182.788 145.57 182.864 145.163 182.864 144.682V136.364Z" fill="#616161"/>
<path d="M182.864 136.364V134.864L181.364 136.364H182.864ZM184.273 136.364H185.773L184.273 134.864V136.364ZM183.864 146.574L185.191 147.272L185.191 147.272L183.864 146.574ZM182.71 147.756L183.425 149.074L183.425 149.074L182.71 147.756ZM179.256 147.812L178.614 149.168L178.622 149.172L179.256 147.812ZM178.085 146.812L176.832 147.637L176.832 147.637L178.085 146.812ZM177.659 145.273V143.773L176.159 145.273H177.659ZM179.045 145.273H180.545L179.045 143.773V145.273ZM179.29 146.136L178.039 146.964L178.054 146.986L179.29 146.136ZM179.972 146.705L180.614 145.349L180.614 145.349L179.972 146.705ZM181.989 146.653L181.217 145.367L181.217 145.367L181.989 146.653ZM182.636 145.903L181.271 145.283L181.268 145.29L182.636 145.903ZM182.864 137.864H184.273V134.864H182.864V137.864ZM182.773 136.364V144.682H185.773V136.364H182.773ZM182.773 144.682C182.773 145.244 182.669 145.622 182.536 145.876L185.191 147.272C185.603 146.488 185.773 145.604 185.773 144.682H182.773ZM182.536 145.876C182.396 146.143 182.22 146.315 181.995 146.437L183.425 149.074C184.193 148.658 184.786 148.043 185.191 147.272L182.536 145.876ZM181.995 146.437C181.758 146.566 181.428 146.659 180.955 146.659V149.659C181.83 149.659 182.67 149.483 183.425 149.074L181.995 146.437ZM180.955 146.659C180.502 146.659 180.157 146.578 179.889 146.453L178.622 149.172C179.347 149.51 180.135 149.659 180.955 149.659V146.659ZM179.897 146.457C179.634 146.332 179.462 146.176 179.338 145.988L176.832 147.637C177.277 148.313 177.885 148.823 178.614 149.168L179.897 146.457ZM179.338 145.988C179.239 145.836 179.159 145.62 179.159 145.273H176.159C176.159 146.115 176.364 146.925 176.832 147.637L179.338 145.988ZM177.659 146.773H179.045V143.773H177.659V146.773ZM177.545 145.273C177.545 145.861 177.695 146.444 178.039 146.964L180.541 145.309C180.543 145.312 180.545 145.316 180.547 145.32C180.549 145.324 180.55 145.327 180.55 145.327C180.55 145.329 180.545 145.313 180.545 145.273H177.545ZM178.054 146.986C178.383 147.465 178.823 147.82 179.329 148.06L180.614 145.349C180.545 145.316 180.53 145.293 180.526 145.287L178.054 146.986ZM179.329 148.06C179.847 148.305 180.399 148.409 180.955 148.409V145.409C180.775 145.409 180.672 145.377 180.614 145.349L179.329 148.06ZM180.955 148.409C181.571 148.409 182.196 148.278 182.76 147.94L181.217 145.367C181.213 145.37 181.149 145.409 180.955 145.409V148.409ZM182.76 147.94C183.331 147.597 183.744 147.1 184.005 146.517L181.268 145.29C181.248 145.334 181.233 145.353 181.228 145.358C181.225 145.362 181.223 145.364 181.217 145.367L182.76 147.94ZM184.002 146.524C184.265 145.945 184.364 145.313 184.364 144.682H181.364C181.364 145.013 181.311 145.195 181.271 145.283L184.002 146.524ZM184.364 144.682V136.364H181.364V144.682H184.364Z" fill="white"/>
<path d="M182.864 136.364H184.273V144.682C184.273 145.424 184.136 146.055 183.864 146.574C183.591 147.093 183.206 147.487 182.71 147.756C182.214 148.025 181.629 148.159 180.955 148.159C180.318 148.159 179.752 148.044 179.256 147.812C178.759 147.578 178.369 147.244 178.085 146.812C177.801 146.381 177.659 145.867 177.659 145.273H179.045C179.045 145.602 179.127 145.89 179.29 146.136C179.456 146.379 179.684 146.568 179.972 146.705C180.259 146.841 180.587 146.909 180.955 146.909C181.36 146.909 181.705 146.824 181.989 146.653C182.273 146.483 182.489 146.233 182.636 145.903C182.788 145.57 182.864 145.163 182.864 144.682V136.364Z" fill="#616161"/>
<path d="M169.066 202.643C169.066 203.747 168.171 204.643 167.066 204.643C165.962 204.643 165.066 203.747 165.066 202.643C165.066 201.538 165.962 200.643 167.066 200.643C168.171 200.643 169.066 201.538 169.066 202.643Z" fill="#616161"/>
<path d="M169.066 202.643C169.066 203.747 168.171 204.643 167.066 204.643C165.962 204.643 165.066 203.747 165.066 202.643C165.066 201.538 165.962 200.643 167.066 200.643C168.171 200.643 169.066 201.538 169.066 202.643Z" stroke="black" stroke-miterlimit="10" stroke-linecap="round" stroke-linejoin="round"/>
<path d="M172.409 198V186.364H173.818V192.136H173.955L179.182 186.364H181.023L176.136 191.614L181.023 198H179.318L175.273 192.591L173.818 194.227V198H172.409Z" fill="#616161"/>
<path d="M172.409 198H170.909L172.409 199.5V198ZM172.409 186.364V184.864L170.909 186.364H172.409ZM173.818 186.364H175.318L173.818 184.864V186.364ZM173.818 192.136H172.318L173.818 193.636V192.136ZM173.955 192.136V193.636L175.066 193.143L173.955 192.136ZM179.182 186.364V184.864L178.07 185.357L179.182 186.364ZM181.023 186.364L182.121 187.386L181.023 184.864V186.364ZM176.136 191.614L175.038 190.592L174.945 192.525L176.136 191.614ZM181.023 198V199.5L182.214 197.089L181.023 198ZM179.318 198L178.117 198.898L179.318 199.5V198ZM175.273 192.591L176.474 191.693L174.152 191.594L175.273 192.591ZM173.818 194.227L172.697 193.231L172.318 194.227H173.818ZM173.818 198V199.5L175.318 198H173.818ZM173.909 198V186.364H170.909V198H173.909ZM172.409 187.864H173.818V184.864H172.409V187.864ZM172.318 186.364V192.136H175.318V186.364H172.318ZM173.818 193.636H173.955V190.636H173.818V193.636ZM175.066 193.143L180.294 187.37L178.07 185.357L172.843 191.13L175.066 193.143ZM179.182 187.864H181.023V184.864H179.182V187.864ZM179.925 185.342L175.038 190.592L177.234 192.636L182.121 187.386L179.925 185.342ZM174.945 192.525L179.831 198.911L182.214 197.089L177.328 190.702L174.945 192.525ZM181.023 196.5H179.318V199.5H181.023V196.5ZM180.519 197.102L176.474 191.693L174.072 193.489L178.117 198.898L180.519 197.102ZM174.152 191.594L172.697 193.231L174.939 195.224L176.394 193.587L174.152 191.594ZM172.318 194.227V198H175.318V194.227H172.318ZM173.818 196.5H172.409V199.5H173.818V196.5Z" fill="white"/>
<path d="M172.409 198V186.364H173.818V192.136H173.955L179.182 186.364H181.023L176.136 191.614L181.023 198H179.318L175.273 192.591L173.818 194.227V198H172.409Z" fill="#616161"/>
<path d="M147.357 175.067C147.357 176.172 146.462 177.067 145.357 177.067C144.253 177.067 143.357 176.172 143.357 175.067C143.357 173.963 144.253 173.067 145.357 173.067C146.462 173.067 147.357 173.963 147.357 175.067Z" fill="#616161"/>
<path d="M147.357 175.067C147.357 176.172 146.462 177.067 145.357 177.067C144.253 177.067 143.357 176.172 143.357 175.067C143.357 173.963 144.253 173.067 145.357 173.067C146.462 173.067 147.357 173.963 147.357 175.067Z" stroke="black" stroke-miterlimit="10" stroke-linecap="round" stroke-linejoin="round"/>
<path d="M150.409 170V158.364H151.818V168.75H157.227V170H150.409Z" fill="#616161"/>
<path d="M150.409 170H148.909L150.409 171.5V170ZM150.409 158.364V156.864L148.909 158.364H150.409ZM151.818 158.364H153.318L151.818 156.864V158.364ZM151.818 168.75H150.318L151.818 170.25V168.75ZM157.227 168.75H158.727L157.227 167.25V168.75ZM157.227 170V171.5L158.727 170H157.227ZM151.909 170V158.364H148.909V170H151.909ZM150.409 159.864H151.818V156.864H150.409V159.864ZM150.318 158.364V168.75H153.318V158.364H150.318ZM151.818 170.25H157.227V167.25H151.818V170.25ZM155.727 168.75V170H158.727V168.75H155.727ZM157.227 168.5H150.409V171.5H157.227V168.5Z" fill="white"/>
<path d="M150.409 170V158.364H151.818V168.75H157.227V170H150.409Z" fill="#616161"/>
<path d="M56.7727 189.182C55.9545 189.182 55.25 188.989 54.6591 188.602C54.0682 188.216 53.6136 187.684 53.2955 187.006C52.9773 186.328 52.8182 185.553 52.8182 184.682C52.8182 183.795 52.9811 183.013 53.3068 182.335C53.6364 181.653 54.0947 181.121 54.6818 180.739C55.2727 180.352 55.9621 180.159 56.75 180.159C57.3636 180.159 57.9167 180.273 58.4091 180.5C58.9015 180.727 59.3049 181.045 59.6193 181.455C59.9337 181.864 60.1288 182.341 60.2045 182.886H58.8636C58.7614 182.489 58.5341 182.136 58.1818 181.83C57.8333 181.519 57.3636 181.364 56.7727 181.364C56.25 181.364 55.7917 181.5 55.3977 181.773C55.0076 182.042 54.7027 182.422 54.483 182.915C54.267 183.403 54.1591 183.977 54.1591 184.636C54.1591 185.311 54.2652 185.898 54.4773 186.398C54.6932 186.898 54.9962 187.286 55.3864 187.562C55.7803 187.839 56.2424 187.977 56.7727 187.977C57.1212 187.977 57.4375 187.917 57.7216 187.795C58.0057 187.674 58.2462 187.5 58.4432 187.273C58.6402 187.045 58.7803 186.773 58.8636 186.455H60.2045C60.1288 186.97 59.9413 187.434 59.642 187.847C59.3466 188.256 58.9545 188.581 58.4659 188.824C57.9811 189.062 57.4167 189.182 56.7727 189.182Z" fill="black"/>
<path d="M119.409 165V153.364H120.75V157.659H120.864C120.962 157.508 121.098 157.314 121.273 157.08C121.451 156.841 121.705 156.629 122.034 156.443C122.367 156.254 122.818 156.159 123.386 156.159C124.121 156.159 124.769 156.343 125.33 156.71C125.89 157.078 126.328 157.598 126.642 158.273C126.956 158.947 127.114 159.742 127.114 160.659C127.114 161.583 126.956 162.384 126.642 163.062C126.328 163.737 125.892 164.259 125.335 164.631C124.778 164.998 124.136 165.182 123.409 165.182C122.848 165.182 122.4 165.089 122.062 164.903C121.725 164.714 121.466 164.5 121.284 164.261C121.102 164.019 120.962 163.818 120.864 163.659H120.705V165H119.409ZM120.727 160.636C120.727 161.295 120.824 161.877 121.017 162.381C121.21 162.881 121.492 163.273 121.864 163.557C122.235 163.837 122.689 163.977 123.227 163.977C123.788 163.977 124.256 163.83 124.631 163.534C125.009 163.235 125.294 162.833 125.483 162.33C125.676 161.822 125.773 161.258 125.773 160.636C125.773 160.023 125.678 159.47 125.489 158.977C125.303 158.481 125.021 158.089 124.642 157.801C124.267 157.509 123.795 157.364 123.227 157.364C122.682 157.364 122.223 157.502 121.852 157.778C121.481 158.051 121.201 158.434 121.011 158.926C120.822 159.415 120.727 159.985 120.727 160.636Z" fill="black"/>
<path d="M116.795 232.205C116.242 232.205 115.741 232.1 115.29 231.892C114.839 231.68 114.481 231.375 114.216 230.977C113.951 230.576 113.818 230.091 113.818 229.523C113.818 229.023 113.917 228.617 114.114 228.307C114.311 227.992 114.574 227.746 114.903 227.568C115.233 227.39 115.597 227.258 115.994 227.17C116.396 227.08 116.799 227.008 117.205 226.955C117.735 226.886 118.165 226.835 118.494 226.801C118.828 226.763 119.07 226.701 119.222 226.614C119.377 226.527 119.455 226.375 119.455 226.159V226.114C119.455 225.553 119.301 225.117 118.994 224.807C118.691 224.496 118.231 224.341 117.614 224.341C116.973 224.341 116.472 224.481 116.108 224.761C115.744 225.042 115.489 225.341 115.341 225.659L114.068 225.205C114.295 224.674 114.598 224.261 114.977 223.966C115.36 223.667 115.777 223.458 116.227 223.341C116.682 223.22 117.129 223.159 117.568 223.159C117.848 223.159 118.17 223.193 118.534 223.261C118.902 223.326 119.256 223.46 119.597 223.665C119.941 223.869 120.227 224.178 120.455 224.591C120.682 225.004 120.795 225.557 120.795 226.25V232H119.455V230.818H119.386C119.295 231.008 119.144 231.21 118.932 231.426C118.72 231.642 118.438 231.826 118.085 231.977C117.733 232.129 117.303 232.205 116.795 232.205ZM117 231C117.53 231 117.977 230.896 118.341 230.688C118.708 230.479 118.985 230.21 119.17 229.881C119.36 229.551 119.455 229.205 119.455 228.841V227.614C119.398 227.682 119.273 227.744 119.08 227.801C118.89 227.854 118.67 227.902 118.42 227.943C118.174 227.981 117.934 228.015 117.699 228.045C117.468 228.072 117.28 228.095 117.136 228.114C116.788 228.159 116.462 228.233 116.159 228.335C115.86 228.434 115.617 228.583 115.432 228.784C115.25 228.981 115.159 229.25 115.159 229.591C115.159 230.057 115.331 230.409 115.676 230.648C116.025 230.883 116.466 231 117 231Z" fill="black"/>
<path d="M171.773 295.182C170.955 295.182 170.25 294.989 169.659 294.602C169.068 294.216 168.614 293.684 168.295 293.006C167.977 292.328 167.818 291.553 167.818 290.682C167.818 289.795 167.981 289.013 168.307 288.335C168.636 287.653 169.095 287.121 169.682 286.739C170.273 286.352 170.962 286.159 171.75 286.159C172.364 286.159 172.917 286.273 173.409 286.5C173.902 286.727 174.305 287.045 174.619 287.455C174.934 287.864 175.129 288.341 175.205 288.886H173.864C173.761 288.489 173.534 288.136 173.182 287.83C172.833 287.519 172.364 287.364 171.773 287.364C171.25 287.364 170.792 287.5 170.398 287.773C170.008 288.042 169.703 288.422 169.483 288.915C169.267 289.403 169.159 289.977 169.159 290.636C169.159 291.311 169.265 291.898 169.477 292.398C169.693 292.898 169.996 293.286 170.386 293.562C170.78 293.839 171.242 293.977 171.773 293.977C172.121 293.977 172.438 293.917 172.722 293.795C173.006 293.674 173.246 293.5 173.443 293.273C173.64 293.045 173.78 292.773 173.864 292.455H175.205C175.129 292.97 174.941 293.434 174.642 293.847C174.347 294.256 173.955 294.581 173.466 294.824C172.981 295.062 172.417 295.182 171.773 295.182Z" fill="black"/>
<path d="M285.773 184.182C284.955 184.182 284.25 183.989 283.659 183.602C283.068 183.216 282.614 182.684 282.295 182.006C281.977 181.328 281.818 180.553 281.818 179.682C281.818 178.795 281.981 178.013 282.307 177.335C282.636 176.653 283.095 176.121 283.682 175.739C284.273 175.352 284.962 175.159 285.75 175.159C286.364 175.159 286.917 175.273 287.409 175.5C287.902 175.727 288.305 176.045 288.619 176.455C288.934 176.864 289.129 177.341 289.205 177.886H287.864C287.761 177.489 287.534 177.136 287.182 176.83C286.833 176.519 286.364 176.364 285.773 176.364C285.25 176.364 284.792 176.5 284.398 176.773C284.008 177.042 283.703 177.422 283.483 177.915C283.267 178.403 283.159 178.977 283.159 179.636C283.159 180.311 283.265 180.898 283.477 181.398C283.693 181.898 283.996 182.286 284.386 182.562C284.78 182.839 285.242 182.977 285.773 182.977C286.121 182.977 286.438 182.917 286.722 182.795C287.006 182.674 287.246 182.5 287.443 182.273C287.64 182.045 287.78 181.773 287.864 181.455H289.205C289.129 181.97 288.941 182.434 288.642 182.847C288.347 183.256 287.955 183.581 287.466 183.824C286.981 184.062 286.417 184.182 285.773 184.182Z" fill="black"/>
<path d="M165.773 66.1818C164.955 66.1818 164.25 65.9886 163.659 65.6023C163.068 65.2159 162.614 64.6837 162.295 64.0057C161.977 63.3277 161.818 62.553 161.818 61.6818C161.818 60.7955 161.981 60.0133 162.307 59.3352C162.636 58.6534 163.095 58.1212 163.682 57.7386C164.273 57.3523 164.962 57.1591 165.75 57.1591C166.364 57.1591 166.917 57.2727 167.409 57.5C167.902 57.7273 168.305 58.0455 168.619 58.4545C168.934 58.8636 169.129 59.3409 169.205 59.8864H167.864C167.761 59.4886 167.534 59.1364 167.182 58.8295C166.833 58.5189 166.364 58.3636 165.773 58.3636C165.25 58.3636 164.792 58.5 164.398 58.7727C164.008 59.0417 163.703 59.4223 163.483 59.9148C163.267 60.4034 163.159 60.9773 163.159 61.6364C163.159 62.3106 163.265 62.8977 163.477 63.3977C163.693 63.8977 163.996 64.286 164.386 64.5625C164.78 64.839 165.242 64.9773 165.773 64.9773C166.121 64.9773 166.438 64.9167 166.722 64.7955C167.006 64.6742 167.246 64.5 167.443 64.2727C167.64 64.0455 167.78 63.7727 167.864 63.4545H169.205C169.129 63.9697 168.941 64.4337 168.642 64.8466C168.347 65.2557 167.955 65.5814 167.466 65.8239C166.981 66.0625 166.417 66.1818 165.773 66.1818Z" fill="black"/>
<path d="M160.409 225V213.364H161.75V217.659H161.864C161.962 217.508 162.098 217.314 162.273 217.08C162.451 216.841 162.705 216.629 163.034 216.443C163.367 216.254 163.818 216.159 164.386 216.159C165.121 216.159 165.769 216.343 166.33 216.71C166.89 217.078 167.328 217.598 167.642 218.273C167.956 218.947 168.114 219.742 168.114 220.659C168.114 221.583 167.956 222.384 167.642 223.062C167.328 223.737 166.892 224.259 166.335 224.631C165.778 224.998 165.136 225.182 164.409 225.182C163.848 225.182 163.4 225.089 163.062 224.903C162.725 224.714 162.466 224.5 162.284 224.261C162.102 224.019 161.962 223.818 161.864 223.659H161.705V225H160.409ZM161.727 220.636C161.727 221.295 161.824 221.877 162.017 222.381C162.21 222.881 162.492 223.273 162.864 223.557C163.235 223.837 163.689 223.977 164.227 223.977C164.788 223.977 165.256 223.83 165.631 223.534C166.009 223.235 166.294 222.833 166.483 222.33C166.676 221.822 166.773 221.258 166.773 220.636C166.773 220.023 166.678 219.47 166.489 218.977C166.303 218.481 166.021 218.089 165.642 217.801C165.267 217.509 164.795 217.364 164.227 217.364C163.682 217.364 163.223 217.502 162.852 217.778C162.481 218.051 162.201 218.434 162.011 218.926C161.822 219.415 161.727 219.985 161.727 220.636Z" fill="black"/>
<path d="M207.409 185V173.364H208.75V177.659H208.864C208.962 177.508 209.098 177.314 209.273 177.08C209.451 176.841 209.705 176.629 210.034 176.443C210.367 176.254 210.818 176.159 211.386 176.159C212.121 176.159 212.769 176.343 213.33 176.71C213.89 177.078 214.328 177.598 214.642 178.273C214.956 178.947 215.114 179.742 215.114 180.659C215.114 181.583 214.956 182.384 214.642 183.062C214.328 183.737 213.892 184.259 213.335 184.631C212.778 184.998 212.136 185.182 211.409 185.182C210.848 185.182 210.4 185.089 210.062 184.903C209.725 184.714 209.466 184.5 209.284 184.261C209.102 184.019 208.962 183.818 208.864 183.659H208.705V185H207.409ZM208.727 180.636C208.727 181.295 208.824 181.877 209.017 182.381C209.21 182.881 209.492 183.273 209.864 183.557C210.235 183.837 210.689 183.977 211.227 183.977C211.788 183.977 212.256 183.83 212.631 183.534C213.009 183.235 213.294 182.833 213.483 182.33C213.676 181.822 213.773 181.258 213.773 180.636C213.773 180.023 213.678 179.47 213.489 178.977C213.303 178.481 213.021 178.089 212.642 177.801C212.267 177.509 211.795 177.364 211.227 177.364C210.682 177.364 210.223 177.502 209.852 177.778C209.481 178.051 209.201 178.434 209.011 178.926C208.822 179.415 208.727 179.985 208.727 180.636Z" fill="black"/>
<path d="M179.409 132V120.364H180.75V124.659H180.864C180.962 124.508 181.098 124.314 181.273 124.08C181.451 123.841 181.705 123.629 182.034 123.443C182.367 123.254 182.818 123.159 183.386 123.159C184.121 123.159 184.769 123.343 185.33 123.71C185.89 124.078 186.328 124.598 186.642 125.273C186.956 125.947 187.114 126.742 187.114 127.659C187.114 128.583 186.956 129.384 186.642 130.062C186.328 130.737 185.892 131.259 185.335 131.631C184.778 131.998 184.136 132.182 183.409 132.182C182.848 132.182 182.4 132.089 182.062 131.903C181.725 131.714 181.466 131.5 181.284 131.261C181.102 131.019 180.962 130.818 180.864 130.659H180.705V132H179.409ZM180.727 127.636C180.727 128.295 180.824 128.877 181.017 129.381C181.21 129.881 181.492 130.273 181.864 130.557C182.235 130.837 182.689 130.977 183.227 130.977C183.788 130.977 184.256 130.83 184.631 130.534C185.009 130.235 185.294 129.833 185.483 129.33C185.676 128.822 185.773 128.258 185.773 127.636C185.773 127.023 185.678 126.47 185.489 125.977C185.303 125.481 185.021 125.089 184.642 124.801C184.267 124.509 183.795 124.364 183.227 124.364C182.682 124.364 182.223 124.502 181.852 124.778C181.481 125.051 181.201 125.434 181.011 125.926C180.822 126.415 180.727 126.985 180.727 127.636Z" fill="black"/>
<path d="M115.795 124.205C115.242 124.205 114.741 124.1 114.29 123.892C113.839 123.68 113.481 123.375 113.216 122.977C112.951 122.576 112.818 122.091 112.818 121.523C112.818 121.023 112.917 120.617 113.114 120.307C113.311 119.992 113.574 119.746 113.903 119.568C114.233 119.39 114.597 119.258 114.994 119.17C115.396 119.08 115.799 119.008 116.205 118.955C116.735 118.886 117.165 118.835 117.494 118.801C117.828 118.763 118.07 118.701 118.222 118.614C118.377 118.527 118.455 118.375 118.455 118.159V118.114C118.455 117.553 118.301 117.117 117.994 116.807C117.691 116.496 117.231 116.341 116.614 116.341C115.973 116.341 115.472 116.481 115.108 116.761C114.744 117.042 114.489 117.341 114.341 117.659L113.068 117.205C113.295 116.674 113.598 116.261 113.977 115.966C114.36 115.667 114.777 115.458 115.227 115.341C115.682 115.22 116.129 115.159 116.568 115.159C116.848 115.159 117.17 115.193 117.534 115.261C117.902 115.326 118.256 115.46 118.597 115.665C118.941 115.869 119.227 116.178 119.455 116.591C119.682 117.004 119.795 117.557 119.795 118.25V124H118.455V122.818H118.386C118.295 123.008 118.144 123.21 117.932 123.426C117.72 123.642 117.438 123.826 117.085 123.977C116.733 124.129 116.303 124.205 115.795 124.205ZM116 123C116.53 123 116.977 122.896 117.341 122.688C117.708 122.479 117.985 122.21 118.17 121.881C118.36 121.551 118.455 121.205 118.455 120.841V119.614C118.398 119.682 118.273 119.744 118.08 119.801C117.89 119.854 117.67 119.902 117.42 119.943C117.174 119.981 116.934 120.015 116.699 120.045C116.468 120.072 116.28 120.095 116.136 120.114C115.788 120.159 115.462 120.233 115.159 120.335C114.86 120.434 114.617 120.583 114.432 120.784C114.25 120.981 114.159 121.25 114.159 121.591C114.159 122.057 114.331 122.409 114.676 122.648C115.025 122.883 115.466 123 116 123Z" fill="black"/>
<path d="M225.795 238.205C225.242 238.205 224.741 238.1 224.29 237.892C223.839 237.68 223.481 237.375 223.216 236.977C222.951 236.576 222.818 236.091 222.818 235.523C222.818 235.023 222.917 234.617 223.114 234.307C223.311 233.992 223.574 233.746 223.903 233.568C224.233 233.39 224.597 233.258 224.994 233.17C225.396 233.08 225.799 233.008 226.205 232.955C226.735 232.886 227.165 232.835 227.494 232.801C227.828 232.763 228.07 232.701 228.222 232.614C228.377 232.527 228.455 232.375 228.455 232.159V232.114C228.455 231.553 228.301 231.117 227.994 230.807C227.691 230.496 227.231 230.341 226.614 230.341C225.973 230.341 225.472 230.481 225.108 230.761C224.744 231.042 224.489 231.341 224.341 231.659L223.068 231.205C223.295 230.674 223.598 230.261 223.977 229.966C224.36 229.667 224.777 229.458 225.227 229.341C225.682 229.22 226.129 229.159 226.568 229.159C226.848 229.159 227.17 229.193 227.534 229.261C227.902 229.326 228.256 229.46 228.597 229.665C228.941 229.869 229.227 230.178 229.455 230.591C229.682 231.004 229.795 231.557 229.795 232.25V238H228.455V236.818H228.386C228.295 237.008 228.144 237.21 227.932 237.426C227.72 237.642 227.438 237.826 227.085 237.977C226.733 238.129 226.303 238.205 225.795 238.205ZM226 237C226.53 237 226.977 236.896 227.341 236.688C227.708 236.479 227.985 236.21 228.17 235.881C228.36 235.551 228.455 235.205 228.455 234.841V233.614C228.398 233.682 228.273 233.744 228.08 233.801C227.89 233.854 227.67 233.902 227.42 233.943C227.174 233.981 226.934 234.015 226.699 234.045C226.468 234.072 226.28 234.095 226.136 234.114C225.788 234.159 225.462 234.233 225.159 234.335C224.86 234.434 224.617 234.583 224.432 234.784C224.25 234.981 224.159 235.25 224.159 235.591C224.159 236.057 224.331 236.409 224.676 236.648C225.025 236.883 225.466 237 226 237Z" fill="black"/>
<path d="M230.795 124.205C230.242 124.205 229.741 124.1 229.29 123.892C228.839 123.68 228.481 123.375 228.216 122.977C227.951 122.576 227.818 122.091 227.818 121.523C227.818 121.023 227.917 120.617 228.114 120.307C228.311 119.992 228.574 119.746 228.903 119.568C229.233 119.39 229.597 119.258 229.994 119.17C230.396 119.08 230.799 119.008 231.205 118.955C231.735 118.886 232.165 118.835 232.494 118.801C232.828 118.763 233.07 118.701 233.222 118.614C233.377 118.527 233.455 118.375 233.455 118.159V118.114C233.455 117.553 233.301 117.117 232.994 116.807C232.691 116.496 232.231 116.341 231.614 116.341C230.973 116.341 230.472 116.481 230.108 116.761C229.744 117.042 229.489 117.341 229.341 117.659L228.068 117.205C228.295 116.674 228.598 116.261 228.977 115.966C229.36 115.667 229.777 115.458 230.227 115.341C230.682 115.22 231.129 115.159 231.568 115.159C231.848 115.159 232.17 115.193 232.534 115.261C232.902 115.326 233.256 115.46 233.597 115.665C233.941 115.869 234.227 116.178 234.455 116.591C234.682 117.004 234.795 117.557 234.795 118.25V124H233.455V122.818H233.386C233.295 123.008 233.144 123.21 232.932 123.426C232.72 123.642 232.438 123.826 232.085 123.977C231.733 124.129 231.303 124.205 230.795 124.205ZM231 123C231.53 123 231.977 122.896 232.341 122.688C232.708 122.479 232.985 122.21 233.17 121.881C233.36 121.551 233.455 121.205 233.455 120.841V119.614C233.398 119.682 233.273 119.744 233.08 119.801C232.89 119.854 232.67 119.902 232.42 119.943C232.174 119.981 231.934 120.015 231.699 120.045C231.468 120.072 231.28 120.095 231.136 120.114C230.788 120.159 230.462 120.233 230.159 120.335C229.86 120.434 229.617 120.583 229.432 120.784C229.25 120.981 229.159 121.25 229.159 121.591C229.159 122.057 229.331 122.409 229.676 122.648C230.025 122.883 230.466 123 231 123Z" fill="black"/>
</g>
<defs>
<clipPath id="clip0_402_1191">
<rect width="340" height="340" fill="white"/>
</clipPath>
</defs>
</svg>
