<svg width="524" height="373" viewBox="0 0 524 373" fill="none" xmlns="http://www.w3.org/2000/svg">
<g clip-path="url(#clip0_358_32)">
<path d="M524 0H0V373H524V0Z" fill="white"/>
<path d="M154.673 285.757C154.725 276.286 150.3 267.347 142.739 261.644L124.674 285.595L154.673 285.757Z" fill="black" fill-opacity="0.0980392"/>
<path d="M154.673 285.757C154.725 276.286 150.3 267.347 142.739 261.644L124.674 285.595L154.673 285.757Z" stroke="black" stroke-opacity="0.6" stroke-width="2" stroke-miterlimit="10" stroke-linecap="round" stroke-linejoin="round"/>
<path d="M414.167 263.113C406.544 268.734 402.023 277.625 401.972 287.096L431.971 287.259L414.167 263.113Z" fill="black" fill-opacity="0.0980392"/>
<path d="M414.167 263.113C406.544 268.734 402.023 277.625 401.972 287.096L431.971 287.259L414.167 263.113Z" stroke="black" stroke-opacity="0.6" stroke-width="2" stroke-miterlimit="10" stroke-linecap="round" stroke-linejoin="round"/>
<path fill-rule="evenodd" clip-rule="evenodd" d="M278.322 286.427L278.437 265.214L257.224 265.099L257.11 286.312L278.322 286.427Z" fill="black" fill-opacity="0.0980392"/>
<path d="M278.322 286.427L278.437 265.214L257.224 265.099L257.11 286.312L278.322 286.427Z" stroke="black" stroke-opacity="0.6" stroke-width="2" stroke-miterlimit="10" stroke-linecap="round" stroke-linejoin="round"/>
<path fill-rule="evenodd" clip-rule="evenodd" d="M125.789 79.5686L125.674 100.781L146.887 100.896L147.002 79.6834L125.789 79.5686Z" fill="black" fill-opacity="0.0980392"/>
<path d="M125.789 79.5686L125.674 100.781L146.887 100.896L147.002 79.6834L125.789 79.5686Z" stroke="black" stroke-opacity="0.6" stroke-width="2" stroke-miterlimit="10" stroke-linecap="round" stroke-linejoin="round"/>
<path d="M124.675 285.595L431.971 287.259" stroke="#616161" stroke-opacity="0.8" stroke-width="2.5" stroke-miterlimit="10" stroke-linecap="round" stroke-linejoin="round"/>
<path d="M124.674 285.595L279.437 80.4" stroke="#616161" stroke-opacity="0.8" stroke-width="2.5" stroke-miterlimit="10" stroke-linecap="round" stroke-linejoin="round"/>
<path d="M279.438 80.3999L431.97 287.258" stroke="#616161" stroke-opacity="0.8" stroke-width="2.5" stroke-miterlimit="10" stroke-linecap="round" stroke-linejoin="round"/>
<path d="M125.789 79.5688L124.674 285.595" stroke="#616161" stroke-opacity="0.8" stroke-width="2.5" stroke-miterlimit="10" stroke-linecap="round" stroke-linejoin="round"/>
<path d="M279.438 80.3999L125.79 79.5681" stroke="#616161" stroke-opacity="0.8" stroke-width="2.5" stroke-miterlimit="10" stroke-linecap="round" stroke-linejoin="round"/>
<path d="M279.438 80.3999L278.322 286.426" stroke="#616161" stroke-opacity="0.8" stroke-width="2.5" stroke-miterlimit="10" stroke-linecap="round" stroke-linejoin="round"/>
<path d="M135.673 285.812C135.553 291.886 130.531 296.713 124.458 296.593C118.384 296.472 113.557 291.451 113.677 285.377C113.797 279.303 118.818 274.477 124.892 274.597C130.966 274.717 135.793 279.738 135.673 285.812Z" fill="#1565C0" fill-opacity="0.2"/>
<path d="M135.673 285.812C135.553 291.886 130.531 296.713 124.458 296.593C118.384 296.472 113.557 291.451 113.677 285.377C113.797 279.303 118.818 274.477 124.892 274.597C130.966 274.717 135.793 279.738 135.673 285.812Z" stroke="#1565C0" stroke-width="2" stroke-miterlimit="10" stroke-linecap="square"/>
<path d="M129.673 285.693C129.618 288.454 127.336 290.648 124.575 290.593C121.814 290.539 119.62 288.256 119.675 285.496C119.729 282.735 122.012 280.541 124.772 280.595C127.533 280.65 129.727 282.932 129.673 285.693Z" fill="#1565C0"/>
<path d="M129.673 285.693C129.618 288.454 127.336 290.648 124.575 290.593C121.814 290.539 119.62 288.256 119.675 285.496C119.729 282.735 122.012 280.541 124.772 280.595C127.533 280.65 129.727 282.932 129.673 285.693Z" stroke="black" stroke-miterlimit="10" stroke-linecap="round" stroke-linejoin="round"/>
<path d="M130.931 274.525L129.454 274.495L133.956 262.946L135.41 262.974L139.452 274.693L137.975 274.664L134.692 264.802L134.602 264.8L130.931 274.525ZM131.567 269.991L137.52 270.108L137.495 271.358L131.542 271.241L131.567 269.991Z" fill="#1565C0"/>
<path d="M130.931 274.525L130.902 276.024L132.335 275.054L130.931 274.525ZM129.454 274.495L128.057 273.951L129.425 275.995L129.454 274.495ZM133.956 262.946L133.986 261.446L132.559 262.401L133.956 262.946ZM135.41 262.974L136.829 262.485L135.44 261.475L135.41 262.974ZM139.452 274.693L139.423 276.193L140.87 274.204L139.452 274.693ZM137.975 274.664L136.552 275.138L137.946 276.164L137.975 274.664ZM134.692 264.802L136.116 264.328L134.722 263.302L134.692 264.802ZM134.602 264.8L134.631 263.3L133.198 264.27L134.602 264.8ZM131.567 269.991L131.596 268.491L130.067 269.961L131.567 269.991ZM137.52 270.108L139.02 270.138L137.55 268.609L137.52 270.108ZM137.495 271.358L137.466 272.858L138.995 271.388L137.495 271.358ZM131.542 271.241L130.042 271.211L131.512 272.74L131.542 271.241ZM130.961 273.025L129.484 272.996L129.425 275.995L130.902 276.024L130.961 273.025ZM130.852 275.04L135.354 263.491L132.559 262.401L128.057 273.951L130.852 275.04ZM133.927 264.445L135.381 264.474L135.44 261.475L133.986 261.446L133.927 264.445ZM133.992 263.464L138.034 275.182L140.87 274.204L136.829 262.485L133.992 263.464ZM139.482 273.193L138.005 273.164L137.946 276.164L139.423 276.193L139.482 273.193ZM139.399 274.19L136.116 264.328L133.269 265.275L136.552 275.138L139.399 274.19ZM134.722 263.302L134.631 263.3L134.572 266.299L134.663 266.301L134.722 263.302ZM133.198 264.27L129.528 273.995L132.335 275.054L136.005 265.329L133.198 264.27ZM131.537 271.491L137.49 271.608L137.55 268.609L131.596 268.491L131.537 271.491ZM136.02 270.079L135.995 271.329L138.995 271.388L139.02 270.138L136.02 270.079ZM137.525 269.859L131.571 269.741L131.512 272.74L137.466 272.858L137.525 269.859ZM133.042 271.27L133.066 270.02L130.067 269.961L130.042 271.211L133.042 271.27Z" fill="white"/>
<path d="M130.931 274.525L129.454 274.495L133.956 262.946L135.41 262.974L139.452 274.693L137.975 274.664L134.692 264.802L134.602 264.8L130.931 274.525ZM131.567 269.991L137.52 270.108L137.495 271.358L131.542 271.241L131.567 269.991Z" fill="#1565C0"/>
<path d="M436.97 287.357C436.915 290.118 434.633 292.312 431.872 292.258C429.111 292.203 426.917 289.921 426.971 287.16C427.026 284.399 429.308 282.205 432.069 282.259C434.83 282.314 437.024 284.596 436.97 287.357Z" fill="#1565C0"/>
<path d="M436.97 287.357C436.915 290.118 434.633 292.312 431.872 292.258C429.111 292.203 426.917 289.921 426.971 287.16C427.026 284.399 429.308 282.205 432.069 282.259C434.83 282.314 437.024 284.596 436.97 287.357Z" stroke="black" stroke-miterlimit="10" stroke-linecap="round" stroke-linejoin="round"/>
<path d="M437.474 276.584L437.704 264.95L441.771 265.03C442.581 265.046 443.247 265.2 443.768 265.49C444.289 265.777 444.674 266.158 444.922 266.633C445.17 267.104 445.289 267.623 445.277 268.191C445.268 268.691 445.17 269.102 444.986 269.424C444.805 269.747 444.569 269.999 444.278 270.183C443.99 270.367 443.678 270.501 443.343 270.585L443.341 270.699C443.697 270.729 444.052 270.861 444.407 271.095C444.763 271.329 445.057 271.661 445.291 272.09C445.525 272.519 445.636 273.04 445.624 273.654C445.613 274.237 445.47 274.759 445.195 275.219C444.921 275.68 444.495 276.041 443.918 276.302C443.341 276.564 442.594 276.685 441.677 276.667L437.474 276.584ZM438.907 275.362L441.702 275.417C442.622 275.436 443.279 275.27 443.672 274.922C444.07 274.57 444.273 274.138 444.283 273.627C444.291 273.233 444.198 272.868 444.004 272.53C443.81 272.189 443.529 271.915 443.162 271.707C442.795 271.495 442.358 271.384 441.85 271.374L438.987 271.317L438.907 275.362ZM439.011 270.09L441.625 270.142C442.049 270.15 442.433 270.075 442.777 269.915C443.125 269.755 443.402 269.526 443.609 269.227C443.819 268.928 443.929 268.574 443.937 268.165C443.947 267.653 443.777 267.216 443.429 266.853C443.08 266.486 442.519 266.295 441.746 266.28L439.088 266.228L439.011 270.09Z" fill="#1565C0"/>
<path d="M437.474 276.584L435.974 276.554L437.444 278.084L437.474 276.584ZM437.704 264.95L437.733 263.45L436.204 264.92L437.704 264.95ZM443.768 265.49L443.037 266.8L443.044 266.804L443.768 265.49ZM444.922 266.633L443.593 267.328L443.595 267.332L444.922 266.633ZM444.986 269.424L443.684 268.679L443.678 268.691L444.986 269.424ZM444.278 270.183L443.478 268.914L443.47 268.919L444.278 270.183ZM443.343 270.585L442.977 269.131L441.844 270.556L443.343 270.585ZM443.341 270.699L441.841 270.669L443.216 272.194L443.341 270.699ZM444.407 271.095L443.581 272.347L443.581 272.347L444.407 271.095ZM445.195 275.219L446.484 275.987L446.484 275.987L445.195 275.219ZM443.918 276.302L443.299 274.936L443.299 274.936L443.918 276.302ZM438.907 275.362L437.407 275.332L438.878 276.862L438.907 275.362ZM443.672 274.922L444.667 276.045L444.667 276.045L443.672 274.922ZM444.004 272.53L442.7 273.272L442.704 273.279L444.004 272.53ZM443.162 271.707L442.412 273.006L442.423 273.012L443.162 271.707ZM438.987 271.317L439.017 269.818L437.487 271.288L438.987 271.317ZM439.011 270.09L437.512 270.061L438.982 271.59L439.011 270.09ZM442.777 269.915L442.151 268.552L442.145 268.554L442.777 269.915ZM443.609 269.227L442.382 268.363L442.375 268.374L443.609 269.227ZM443.429 266.853L442.342 267.887L442.347 267.893L443.429 266.853ZM439.088 266.228L439.117 264.728L437.588 266.198L439.088 266.228ZM438.973 276.614L439.203 264.98L436.204 264.92L435.974 276.554L438.973 276.614ZM437.674 266.45L441.741 266.53L441.801 263.531L437.733 263.45L437.674 266.45ZM441.741 266.53C442.39 266.543 442.794 266.665 443.037 266.8L444.499 264.18C443.7 263.735 442.773 263.55 441.801 263.531L441.741 266.53ZM443.044 266.804C443.337 266.965 443.496 267.143 443.593 267.328L446.251 265.938C445.851 265.173 445.241 264.589 444.492 264.176L443.044 266.804ZM443.595 267.332C443.717 267.564 443.784 267.83 443.778 268.162L446.777 268.221C446.793 267.417 446.623 266.644 446.249 265.933L443.595 267.332ZM443.778 268.162C443.771 268.494 443.708 268.638 443.684 268.679L446.288 270.169C446.633 269.567 446.764 268.888 446.777 268.221L443.778 268.162ZM443.678 268.691C443.61 268.811 443.543 268.873 443.478 268.914L445.077 271.452C445.596 271.126 446.001 270.682 446.294 270.158L443.678 268.691ZM443.47 268.919C443.32 269.015 443.158 269.085 442.977 269.131L443.709 272.04C444.199 271.917 444.66 271.719 445.085 271.447L443.47 268.919ZM441.844 270.556L441.841 270.669L444.841 270.728L444.843 270.615L441.844 270.556ZM443.216 272.194C443.277 272.199 443.395 272.224 443.581 272.347L445.233 269.843C444.709 269.497 444.116 269.258 443.466 269.204L443.216 272.194ZM443.581 272.347C443.703 272.428 443.84 272.563 443.974 272.808L446.608 271.372C446.274 270.759 445.822 270.231 445.233 269.843L443.581 272.347ZM443.974 272.808C444.055 272.956 444.133 273.206 444.124 273.624L447.124 273.683C447.14 272.875 446.995 272.081 446.608 271.372L443.974 272.808ZM444.124 273.624C444.118 273.971 444.036 274.234 443.907 274.452L446.484 275.987C446.903 275.283 447.108 274.503 447.124 273.683L444.124 273.624ZM443.907 274.452C443.816 274.604 443.649 274.777 443.299 274.936L444.537 277.669C445.341 277.304 446.026 276.756 446.484 275.987L443.907 274.452ZM443.299 274.936C442.996 275.073 442.492 275.183 441.707 275.167L441.648 278.167C442.695 278.188 443.686 278.054 444.537 277.669L443.299 274.936ZM441.707 275.167L437.503 275.084L437.444 278.084L441.648 278.167L441.707 275.167ZM438.878 276.862L441.672 276.917L441.732 273.918L438.937 273.862L438.878 276.862ZM441.672 276.917C442.711 276.938 443.844 276.774 444.667 276.045L442.678 273.799C442.706 273.775 442.68 273.812 442.519 273.852C442.357 273.893 442.103 273.925 441.732 273.918L441.672 276.917ZM444.667 276.045C445.365 275.427 445.764 274.604 445.783 273.657L442.784 273.597C442.783 273.657 442.772 273.683 442.767 273.694C442.761 273.707 442.741 273.743 442.678 273.8L444.667 276.045ZM445.783 273.657C445.796 272.994 445.636 272.359 445.304 271.782L442.704 273.279C442.76 273.377 442.786 273.473 442.784 273.597L445.783 273.657ZM445.308 271.789C444.97 271.195 444.486 270.733 443.902 270.402L442.423 273.012C442.573 273.097 442.65 273.184 442.7 273.272L445.308 271.789ZM443.912 270.408C443.286 270.046 442.591 269.888 441.88 269.874L441.821 272.874C442.125 272.88 442.304 272.944 442.412 273.006L443.912 270.408ZM441.88 269.874L439.017 269.818L438.957 272.817L441.821 272.874L441.88 269.874ZM437.487 271.288L437.407 275.332L440.407 275.392L440.487 271.347L437.487 271.288ZM438.982 271.59L441.595 271.642L441.654 268.642L439.041 268.591L438.982 271.59ZM441.595 271.642C442.22 271.654 442.834 271.542 443.409 271.275L442.145 268.554C442.031 268.607 441.877 268.647 441.654 268.642L441.595 271.642ZM443.403 271.278C443.982 271.012 444.475 270.612 444.843 270.08L442.375 268.374C442.33 268.439 442.268 268.498 442.151 268.552L443.403 271.278ZM444.835 270.09C445.238 269.518 445.423 268.865 445.437 268.194L442.437 268.135C442.434 268.282 442.401 268.337 442.382 268.363L444.835 270.09ZM445.437 268.194C445.454 267.292 445.139 266.469 444.51 265.814L442.347 267.893C442.416 267.964 442.439 268.015 442.437 268.135L445.437 268.194ZM444.515 265.819C443.775 265.04 442.742 264.799 441.776 264.78L441.717 267.78C442.296 267.791 442.385 267.932 442.342 267.887L444.515 265.819ZM441.776 264.78L439.117 264.728L439.058 267.727L441.717 267.78L441.776 264.78ZM437.588 266.198L437.512 270.061L440.511 270.12L440.587 266.257L437.588 266.198Z" fill="white"/>
<path d="M437.474 276.584L437.704 264.95L441.771 265.03C442.581 265.046 443.247 265.2 443.768 265.49C444.289 265.777 444.674 266.158 444.922 266.633C445.17 267.104 445.289 267.623 445.277 268.191C445.268 268.691 445.17 269.102 444.986 269.424C444.805 269.747 444.569 269.999 444.278 270.183C443.99 270.367 443.678 270.501 443.343 270.585L443.341 270.699C443.697 270.729 444.052 270.861 444.407 271.095C444.763 271.329 445.057 271.661 445.291 272.09C445.525 272.519 445.636 273.04 445.624 273.654C445.613 274.237 445.47 274.759 445.195 275.219C444.921 275.68 444.495 276.041 443.918 276.302C443.341 276.564 442.594 276.685 441.677 276.667L437.474 276.584ZM438.907 275.362L441.702 275.417C442.622 275.436 443.279 275.27 443.672 274.922C444.07 274.57 444.273 274.138 444.283 273.627C444.291 273.233 444.198 272.868 444.004 272.53C443.81 272.189 443.529 271.915 443.162 271.707C442.795 271.495 442.358 271.384 441.85 271.374L438.987 271.317L438.907 275.362ZM439.011 270.09L441.625 270.142C442.049 270.15 442.433 270.075 442.777 269.915C443.125 269.755 443.402 269.526 443.609 269.227C443.819 268.928 443.929 268.574 443.937 268.165C443.947 267.653 443.777 267.216 443.429 266.853C443.08 266.486 442.519 266.295 441.746 266.28L439.088 266.228L439.011 270.09Z" fill="#1565C0"/>
<path d="M282.322 286.505C282.278 288.714 280.452 290.469 278.243 290.426C276.035 290.382 274.28 288.556 274.323 286.347C274.367 284.139 276.193 282.384 278.402 282.427C280.61 282.471 282.365 284.297 282.322 286.505Z" fill="#616161"/>
<path d="M282.322 286.505C282.278 288.714 280.452 290.469 278.243 290.426C276.035 290.382 274.28 288.556 274.323 286.347C274.367 284.139 276.193 282.384 278.402 282.427C280.61 282.471 282.365 284.297 282.322 286.505Z" stroke="black" stroke-miterlimit="10" stroke-linecap="round" stroke-linejoin="round"/>
<path d="M283.425 277.54L283.655 265.905L285.064 265.933L284.961 271.114L291.165 271.237L291.267 266.056L292.676 266.084L292.446 277.718L291.037 277.69L291.14 272.487L284.937 272.364L284.834 277.567L283.425 277.54Z" fill="#616161"/>
<path d="M283.425 277.54L281.925 277.51L283.395 279.039L283.425 277.54ZM283.655 265.905L283.684 264.406L282.155 265.876L283.655 265.905ZM285.064 265.933L286.563 265.963L285.093 264.434L285.064 265.933ZM284.961 271.114L283.462 271.084L284.932 272.614L284.961 271.114ZM291.165 271.237L291.135 272.736L292.664 271.266L291.165 271.237ZM291.267 266.056L291.297 264.556L289.767 266.026L291.267 266.056ZM292.676 266.084L294.176 266.113L292.705 264.584L292.676 266.084ZM292.446 277.718L292.416 279.218L293.946 277.748L292.446 277.718ZM291.037 277.69L289.537 277.66L291.007 279.19L291.037 277.69ZM291.14 272.487L292.64 272.516L291.17 270.987L291.14 272.487ZM284.937 272.364L284.966 270.864L283.437 272.334L284.937 272.364ZM284.834 277.567L284.804 279.067L286.333 277.597L284.834 277.567ZM284.925 277.569L285.155 265.935L282.155 265.876L281.925 277.51L284.925 277.569ZM283.625 267.405L285.034 267.433L285.093 264.434L283.684 264.406L283.625 267.405ZM283.564 265.904L283.462 271.084L286.461 271.144L286.563 265.963L283.564 265.904ZM284.932 272.614L291.135 272.736L291.194 269.737L284.991 269.614L284.932 272.614ZM292.664 271.266L292.767 266.086L289.767 266.026L289.665 271.207L292.664 271.266ZM291.237 267.556L292.646 267.584L292.705 264.584L291.297 264.556L291.237 267.556ZM291.176 266.054L290.946 277.688L293.946 277.748L294.176 266.113L291.176 266.054ZM292.475 276.218L291.067 276.19L291.007 279.19L292.416 279.218L292.475 276.218ZM292.537 277.72L292.64 272.516L289.64 272.457L289.537 277.66L292.537 277.72ZM291.17 270.987L284.966 270.864L284.907 273.864L291.11 273.986L291.17 270.987ZM283.437 272.334L283.334 277.538L286.333 277.597L286.436 272.394L283.437 272.334ZM284.863 276.068L283.454 276.04L283.395 279.039L284.804 279.067L284.863 276.068Z" fill="white"/>
<path d="M283.425 277.54L283.655 265.905L285.064 265.933L284.961 271.114L291.165 271.237L291.267 266.056L292.676 266.084L292.446 277.718L291.037 277.69L291.14 272.487L284.937 272.364L284.834 277.567L283.425 277.54Z" fill="#616161"/>
<path d="M284.436 80.4989C284.382 83.2598 282.099 85.4537 279.338 85.3991C276.578 85.3445 274.384 83.0622 274.438 80.3013C274.493 77.5404 276.775 75.3465 279.536 75.4011C282.297 75.4557 284.491 77.738 284.436 80.4989Z" fill="#1565C0"/>
<path d="M284.436 80.4989C284.382 83.2598 282.099 85.4537 279.338 85.3991C276.578 85.3445 274.384 83.0622 274.438 80.3013C274.493 77.5404 276.775 75.3465 279.536 75.4011C282.297 75.4557 284.491 77.738 284.436 80.4989Z" stroke="black" stroke-miterlimit="10" stroke-linecap="round" stroke-linejoin="round"/>
<path d="M295.056 61.7272L293.647 61.6993C293.572 61.2925 293.433 60.9336 293.231 60.6227C293.033 60.3119 292.788 60.0494 292.496 59.8353C292.209 59.6175 291.888 59.452 291.534 59.3389C291.181 59.2259 290.81 59.1655 290.424 59.1579C289.72 59.1439 289.078 59.3093 288.499 59.654C287.924 59.9988 287.461 60.5143 287.11 61.2007C286.763 61.8872 286.58 62.7341 286.56 63.7415C286.54 64.7488 286.69 65.6024 287.01 66.302C287.333 67.0017 287.775 67.5352 288.336 67.9024C288.901 68.2697 289.536 68.4603 290.24 68.4742C290.626 68.4819 290.998 68.4362 291.357 68.3372C291.715 68.2382 292.042 68.0874 292.337 67.8849C292.637 67.6786 292.892 67.4242 293.103 67.1214C293.317 66.815 293.47 66.4619 293.561 66.0621L294.97 66.09C294.852 66.6825 294.648 67.2107 294.359 67.6748C294.069 68.1389 293.713 68.5315 293.29 68.8528C292.867 69.1702 292.394 69.409 291.872 69.5692C291.354 69.7294 290.801 69.8037 290.214 69.7921C289.222 69.7725 288.344 69.5127 287.581 69.0127C286.818 68.5127 286.224 67.8114 285.798 66.9089C285.373 66.0063 285.172 64.9415 285.197 63.7145C285.221 62.4875 285.463 61.4315 285.924 60.5465C286.385 59.6615 287.006 58.9842 287.789 58.5147C288.571 58.0452 289.458 57.8203 290.45 57.8399C291.037 57.8515 291.587 57.9476 292.098 58.1282C292.614 58.3089 293.076 58.5681 293.487 58.9058C293.897 59.2398 294.237 59.6443 294.508 60.1194C294.779 60.5908 294.962 61.1267 295.056 61.7272Z" fill="#1565C0"/>
<path d="M295.056 61.7272L295.026 63.2269L296.538 61.4947L295.056 61.7272ZM293.647 61.6993L292.172 61.9723L293.618 63.199L293.647 61.6993ZM293.231 60.6227L291.967 61.43L291.974 61.4406L293.231 60.6227ZM292.496 59.8353L291.59 61.0307L291.608 61.0439L292.496 59.8353ZM291.534 59.3389L291.078 60.7678L291.078 60.7678L291.534 59.3389ZM288.499 59.654L287.732 58.3652L287.728 58.3675L288.499 59.654ZM287.11 61.2007L285.775 60.5181L285.772 60.5241L287.11 61.2007ZM287.01 66.302L285.645 66.9252L285.648 66.9312L287.01 66.302ZM288.336 67.9024L287.515 69.1574L287.518 69.1599L288.336 67.9024ZM291.357 68.3372L290.957 66.8914L290.957 66.8914L291.357 68.3372ZM292.337 67.8849L293.185 69.1225L293.188 69.1204L292.337 67.8849ZM293.103 67.1214L291.874 66.2614L291.871 66.2649L293.103 67.1214ZM293.561 66.0621L293.591 64.5624L292.099 65.7283L293.561 66.0621ZM294.97 66.09L296.441 66.3825L294.999 64.5903L294.97 66.09ZM294.359 67.6748L293.086 66.8808L293.086 66.8808L294.359 67.6748ZM293.29 68.8528L294.19 70.0525L294.197 70.0474L293.29 68.8528ZM291.872 69.5692L291.432 68.1351L291.429 68.1361L291.872 69.5692ZM287.581 69.0127L286.759 70.2673L286.759 70.2673L287.581 69.0127ZM285.798 66.9089L287.155 66.2693L287.155 66.2693L285.798 66.9089ZM285.924 60.5465L284.594 59.8538L285.924 60.5465ZM292.098 58.1282L291.599 59.5427L291.602 59.5438L292.098 58.1282ZM293.487 58.9058L292.533 60.0637L292.539 60.0691L293.487 58.9058ZM294.508 60.1194L293.205 60.8625L293.208 60.8672L294.508 60.1194ZM295.086 60.2275L293.677 60.1996L293.618 63.199L295.026 63.2269L295.086 60.2275ZM295.122 61.4263C295.015 60.8477 294.81 60.2993 294.488 59.8048L291.974 61.4406C292.056 61.5678 292.129 61.7372 292.172 61.9723L295.122 61.4263ZM294.495 59.8155C294.199 59.3521 293.828 58.9526 293.385 58.6267L291.608 61.0439C291.747 61.1463 291.866 61.2717 291.967 61.4299L294.495 59.8155ZM293.402 58.6399C292.975 58.3162 292.502 58.0733 291.991 57.9101L291.078 60.7678C291.275 60.8307 291.443 60.9187 291.59 61.0307L293.402 58.6399ZM291.991 57.9101C291.494 57.7511 290.979 57.6685 290.454 57.6581L290.395 60.6576C290.642 60.6624 290.868 60.7006 291.078 60.7678L291.991 57.9101ZM290.454 57.6581C289.483 57.639 288.563 57.8704 287.732 58.3652L289.267 60.9428C289.593 60.7482 289.957 60.6489 290.395 60.6576L290.454 57.6581ZM287.728 58.3675C286.877 58.8773 286.234 59.6198 285.775 60.5181L288.446 61.8833C288.689 61.4089 288.971 61.1202 289.27 60.9405L287.728 58.3675ZM285.772 60.5241C285.297 61.4636 285.083 62.5463 285.06 63.7118L288.06 63.7711C288.077 62.9218 288.23 62.3107 288.449 61.8774L285.772 60.5241ZM285.06 63.7118C285.037 64.8773 285.208 65.9676 285.645 66.9252L288.374 65.6788C288.172 65.2371 288.043 64.6204 288.06 63.7711L285.06 63.7118ZM285.648 66.9312C286.071 67.8471 286.685 68.6144 287.515 69.1574L289.158 66.6473C288.865 66.4559 288.595 66.1563 288.371 65.6727L285.648 66.9312ZM287.518 69.1599C288.329 69.6871 289.239 69.9547 290.21 69.9739L290.27 66.9745C289.832 66.9659 289.473 66.8523 289.154 66.6449L287.518 69.1599ZM290.21 69.9739C290.736 69.9843 291.253 69.9221 291.756 69.7829L290.957 66.8914C290.744 66.9502 290.517 66.9794 290.27 66.9745L290.21 69.9739ZM291.756 69.7829C292.268 69.6414 292.747 69.4221 293.185 69.1225L291.49 66.6473C291.336 66.7528 291.161 66.8349 290.957 66.8914L291.756 69.7829ZM293.188 69.1204C293.638 68.8104 294.022 68.4268 294.334 67.978L291.871 66.2649C291.762 66.4215 291.635 66.5469 291.487 66.6493L293.188 69.1204ZM294.331 67.9815C294.667 67.5017 294.893 66.9663 295.023 66.3959L292.099 65.7283C292.046 65.9576 291.967 66.1284 291.874 66.2614L294.331 67.9815ZM293.531 67.5618L294.94 67.5897L294.999 64.5903L293.591 64.5624L293.531 67.5618ZM293.499 65.7975C293.413 66.2307 293.27 66.5858 293.086 66.8808L295.631 68.4688C296.026 67.8357 296.292 67.1342 296.441 66.3825L293.499 65.7975ZM293.086 66.8808C292.89 67.1949 292.656 67.4504 292.383 67.6581L294.197 70.0474C294.77 69.6127 295.248 69.0828 295.631 68.4688L293.086 66.8808ZM292.39 67.653C292.11 67.8629 291.794 68.0242 291.432 68.1351L292.312 71.0033C292.994 70.7939 293.624 70.4775 294.19 70.0525L292.39 67.653ZM291.429 68.1361C291.076 68.2453 290.684 68.3011 290.244 68.2924L290.184 71.2918C290.918 71.3064 291.632 71.2135 292.315 71.0023L291.429 68.1361ZM290.244 68.2924C289.508 68.2779 288.91 68.09 288.403 67.7581L286.759 70.2673C287.778 70.9354 288.936 71.2672 290.184 71.2918L290.244 68.2924ZM288.403 67.7581C287.893 67.4239 287.474 66.9457 287.155 66.2693L284.442 67.5484C284.974 68.6771 285.743 69.6014 286.759 70.2673L288.403 67.7581ZM287.155 66.2693C286.848 65.6184 286.676 64.7923 286.696 63.7442L283.697 63.6849C283.669 65.0908 283.898 66.3942 284.442 67.5484L287.155 66.2693ZM286.696 63.7442C286.717 62.6961 286.922 61.8774 287.255 61.2392L284.594 59.8538C284.005 60.9855 283.725 62.2789 283.697 63.6849L286.696 63.7442ZM287.255 61.2392C287.6 60.5759 288.038 60.1146 288.561 59.8008L287.017 57.2286C285.975 57.8538 285.17 58.747 284.594 59.8538L287.255 61.2392ZM288.561 59.8008C289.08 59.4892 289.685 59.3251 290.421 59.3396L290.48 56.3402C289.231 56.3155 288.062 56.6013 287.017 57.2286L288.561 59.8008ZM290.421 59.3396C290.861 59.3483 291.25 59.4196 291.599 59.5427L292.597 56.7138C291.923 56.4757 291.214 56.3547 290.48 56.3402L290.421 59.3396ZM291.602 59.5438C291.956 59.6678 292.263 59.8413 292.533 60.0637L294.44 57.748C293.89 57.295 293.272 56.95 292.594 56.7127L291.602 59.5438ZM292.539 60.0691C292.801 60.2821 293.023 60.5426 293.205 60.8625L295.811 59.3764C295.452 58.746 294.992 58.1974 294.434 57.7426L292.539 60.0691ZM293.208 60.8672C293.377 61.1617 293.505 61.5193 293.574 61.9597L296.538 61.4947C296.419 60.7341 296.181 60.0199 295.809 59.3717L293.208 60.8672Z" fill="white"/>
<path d="M295.056 61.7272L293.647 61.6993C293.572 61.2925 293.433 60.9336 293.231 60.6227C293.033 60.3119 292.788 60.0494 292.496 59.8353C292.209 59.6175 291.888 59.452 291.534 59.3389C291.181 59.2259 290.81 59.1655 290.424 59.1579C289.72 59.1439 289.078 59.3093 288.499 59.654C287.924 59.9988 287.461 60.5143 287.11 61.2007C286.763 61.8872 286.58 62.7341 286.56 63.7415C286.54 64.7488 286.69 65.6024 287.01 66.302C287.333 67.0017 287.775 67.5352 288.336 67.9024C288.901 68.2697 289.536 68.4603 290.24 68.4742C290.626 68.4819 290.998 68.4362 291.357 68.3372C291.715 68.2382 292.042 68.0874 292.337 67.8849C292.637 67.6786 292.892 67.4242 293.103 67.1214C293.317 66.815 293.47 66.4619 293.561 66.0621L294.97 66.09C294.852 66.6825 294.648 67.2107 294.359 67.6748C294.069 68.1389 293.713 68.5315 293.29 68.8528C292.867 69.1702 292.394 69.409 291.872 69.5692C291.354 69.7294 290.801 69.8037 290.214 69.7921C289.222 69.7725 288.344 69.5127 287.581 69.0127C286.818 68.5127 286.224 67.8114 285.798 66.9089C285.373 66.0063 285.172 64.9415 285.197 63.7145C285.221 62.4875 285.463 61.4315 285.924 60.5465C286.385 59.6615 287.006 58.9842 287.789 58.5147C288.571 58.0452 289.458 57.8203 290.45 57.8399C291.037 57.8515 291.587 57.9476 292.098 58.1282C292.614 58.3089 293.076 58.5681 293.487 58.9058C293.897 59.2398 294.237 59.6443 294.508 60.1194C294.779 60.5908 294.962 61.1267 295.056 61.7272Z" fill="#1565C0"/>
<path d="M129.789 79.6476C129.745 81.8563 127.919 83.6114 125.71 83.5677C123.502 83.5241 121.746 81.6982 121.79 79.4895C121.834 77.2807 123.66 75.5256 125.868 75.5693C128.077 75.613 129.832 77.4389 129.789 79.6476Z" fill="#616161"/>
<path d="M129.789 79.6476C129.745 81.8563 127.919 83.6114 125.71 83.5677C123.502 83.5241 121.746 81.6982 121.79 79.4895C121.834 77.2807 123.66 75.5256 125.868 75.5693C128.077 75.613 129.832 77.4389 129.789 79.6476Z" stroke="black" stroke-miterlimit="10" stroke-linecap="round" stroke-linejoin="round"/>
<path d="M135.078 70.5666L131.487 70.4956L131.717 58.8615L135.467 58.9357C136.595 58.958 137.556 59.21 138.35 59.6917C139.144 60.1696 139.746 60.8464 140.157 61.7221C140.568 62.594 140.761 63.6321 140.737 64.8364C140.713 66.0483 140.477 67.0874 140.028 67.9537C139.579 68.8162 138.937 69.4741 138.102 69.9274C137.267 70.3769 136.259 70.59 135.078 70.5666ZM132.921 69.2737L135.011 69.315C135.973 69.3341 136.774 69.1643 137.414 68.8056C138.054 68.447 138.536 67.928 138.86 67.2487C139.184 66.5693 139.355 65.7563 139.374 64.8095C139.393 63.8703 139.255 63.0587 138.962 62.3747C138.669 61.687 138.221 61.1553 137.618 60.7797C137.016 60.4003 136.26 60.2016 135.351 60.1836L133.101 60.1391L132.921 69.2737Z" fill="#616161"/>
<path d="M131.487 70.4956L129.988 70.466L131.458 71.9953L131.487 70.4956ZM131.717 58.8615L131.747 57.3618L130.218 58.8319L131.717 58.8615ZM138.35 59.6917L137.572 60.974L137.576 60.9767L138.35 59.6917ZM140.157 61.7221L138.799 62.3591L138.8 62.3615L140.157 61.7221ZM140.028 67.9537L141.358 68.6463L141.36 68.644L140.028 67.9537ZM138.102 69.9274L138.813 71.2481L138.818 71.2456L138.102 69.9274ZM132.921 69.2737L131.421 69.2441L132.891 70.7734L132.921 69.2737ZM137.414 68.8056L136.68 67.4972L137.414 68.8056ZM138.962 62.3747L137.582 62.9631L137.583 62.966L138.962 62.3747ZM137.618 60.7797L136.819 62.049L136.825 62.0526L137.618 60.7797ZM133.101 60.1391L133.131 58.6394L131.602 60.1095L133.101 60.1391ZM135.107 69.0669L131.517 68.9959L131.458 71.9953L135.048 72.0663L135.107 69.0669ZM132.987 70.5253L133.217 58.8912L130.218 58.8319L129.988 70.466L132.987 70.5253ZM131.688 60.3612L135.437 60.4354L135.496 57.4359L131.747 57.3618L131.688 60.3612ZM135.437 60.4354C136.358 60.4536 137.048 60.6562 137.572 60.974L139.128 58.4093C138.064 57.7637 136.832 57.4624 135.496 57.4359L135.437 60.4354ZM137.576 60.9767C138.104 61.2943 138.508 61.74 138.799 62.3591L141.515 61.085C140.984 59.9527 140.184 59.0448 139.124 58.4066L137.576 60.9767ZM138.8 62.3615C139.091 62.9788 139.258 63.7772 139.238 64.8068L142.237 64.8661C142.264 63.4871 142.045 62.2092 141.514 61.0827L138.8 62.3615ZM139.238 64.8068C139.217 65.843 139.017 66.645 138.696 67.2634L141.36 68.644C141.937 67.5298 142.21 66.2536 142.237 64.8661L139.238 64.8068ZM138.697 67.2611C138.383 67.8651 137.952 68.302 137.386 68.6092L138.818 71.2456C139.922 70.6462 140.775 69.7673 141.358 68.6463L138.697 67.2611ZM137.391 68.6067C136.833 68.907 136.093 69.0864 135.107 69.0669L135.048 72.0663C136.425 72.0935 137.701 71.8467 138.813 71.2481L137.391 68.6067ZM132.891 70.7734L134.982 70.8148L135.041 67.8153L132.951 67.774L132.891 70.7734ZM134.982 70.8148C136.129 70.8374 137.213 70.6378 138.147 70.1141L136.68 67.4972C136.335 67.6907 135.817 67.8307 135.041 67.8153L134.982 70.8148ZM138.147 70.1141C139.065 69.5998 139.76 68.8457 140.214 67.8945L137.506 66.6028C137.312 67.0103 137.043 67.2942 136.68 67.4972L138.147 70.1141ZM140.214 67.8945C140.65 66.9796 140.852 65.946 140.874 64.8391L137.874 64.7798C137.859 65.5665 137.718 66.1591 137.506 66.6028L140.214 67.8945ZM140.874 64.8391C140.895 63.7408 140.737 62.7077 140.34 61.7835L137.583 62.966C137.774 63.4097 137.89 63.9998 137.874 64.7798L140.874 64.8391ZM140.342 61.7863C139.934 60.8316 139.289 60.054 138.412 59.5068L136.825 62.0526C137.152 62.2566 137.403 62.5424 137.582 62.9631L140.342 61.7863ZM138.417 59.5104C137.528 58.9505 136.488 58.7058 135.381 58.6839L135.321 61.6833C136.032 61.6974 136.503 61.85 136.819 62.049L138.417 59.5104ZM135.381 58.6839L133.131 58.6394L133.072 61.6388L135.321 61.6833L135.381 58.6839ZM131.602 60.1095L131.421 69.2441L134.421 69.3034L134.601 60.1688L131.602 60.1095Z" fill="white"/>
<path d="M135.078 70.5666L131.487 70.4956L131.717 58.8615L135.467 58.9357C136.595 58.958 137.556 59.21 138.35 59.6917C139.144 60.1696 139.746 60.8464 140.157 61.7221C140.568 62.594 140.761 63.6321 140.737 64.8364C140.713 66.0483 140.477 67.0874 140.028 67.9537C139.579 68.8162 138.937 69.4741 138.102 69.9274C137.267 70.3769 136.259 70.59 135.078 70.5666ZM132.921 69.2737L135.011 69.315C135.973 69.3341 136.774 69.1643 137.414 68.8056C138.054 68.447 138.536 67.928 138.86 67.2487C139.184 66.5693 139.355 65.7563 139.374 64.8095C139.393 63.8703 139.255 63.0587 138.962 62.3747C138.669 61.687 138.221 61.1553 137.618 60.7797C137.016 60.4003 136.26 60.2016 135.351 60.1836L133.101 60.1391L132.921 69.2737Z" fill="#616161"/>
</g>
<defs>
<clipPath id="clip0_358_32">
<rect width="524" height="373" fill="white"/>
</clipPath>
</defs>
</svg>
