<svg version="1.1" xmlns="http://www.w3.org/2000/svg" xmlns:xlink="http://www.w3.org/1999/xlink" width="1140" height="673"><defs><clipPath id="uiIxVJNnJZvQ"><path fill="none" stroke="none" d=" M 0 0 L 1140 0 L 1140 673 L 0 673 L 0 0 Z"/></clipPath></defs><g transform="scale(1,1)" clip-path="url(#uiIxVJNnJZvQ)"><g><rect fill="rgb(255,255,255)" stroke="none" x="0" y="0" width="1140" height="674" fill-opacity="1"/><path fill="rgb(0,0,0)" stroke="none" paint-order="stroke fill markers" d=" M 496.8462712713389 338.7610417709947 C 496.7103325663516 329.29064532354744 492.1101357330513 320.44061498754536 484.4371592971518 314.88792907733335 L 466.8493613824194 339.1916194249026 Z" fill-opacity="0.09803921568627451"/><path fill="none" stroke="rgb(0,0,0)" paint-order="fill stroke markers" d=" M 496.8462712713389 338.7610417709947 C 496.7103325663516 329.29064532354744 492.1101357330513 320.44061498754536 484.4371592971518 314.88792907733335 L 466.8493613824194 339.1916194249026 Z" stroke-opacity="0.6" stroke-linecap="round" stroke-linejoin="round" stroke-miterlimit="10" stroke-width="2"/><path fill="rgb(0,0,0)" stroke="none" paint-order="stroke fill markers" d=" M 755.8402103547048 310.99219150234455 C 748.3297695495505 316.7628212007056 743.9854834872355 325.7412412433434 744.1214221922227 335.2116376907906 L 774.1183320811422 334.7810600368827 Z" fill-opacity="0.09803921568627451"/><path fill="none" stroke="rgb(0,0,0)" paint-order="fill stroke markers" d=" M 755.8402103547048 310.99219150234455 C 748.3297695495505 316.7628212007056 743.9854834872355 325.7412412433434 744.1214221922227 335.2116376907906 L 774.1183320811422 334.7810600368827 Z" stroke-opacity="0.6" stroke-linecap="round" stroke-linejoin="round" stroke-miterlimit="10" stroke-width="2"/><path fill="rgb(0,0,0)" stroke="none" paint-order="stroke fill markers" fill-rule="evenodd" d=" M 620.4838467317808 336.98633973089267 L 620.1793823528751 315.7753213337973 L 598.9683639557783 316.07978571270155 L 599.2728283346854 337.29080410979833 L 620.4838467317808 336.98633973089267" fill-opacity="0.09803921568627451"/><path fill="none" stroke="rgb(0,0,0)" paint-order="fill stroke markers" d=" M 620.4838467317808 336.98633973089267 L 620.1793823528751 315.7753213337973 L 598.9683639557783 316.07978571270155 L 599.2728283346854 337.29080410979833 L 620.4838467317808 336.98633973089267" stroke-opacity="0.6" stroke-linecap="round" stroke-linejoin="round" stroke-miterlimit="10" stroke-width="2"/><path fill="rgb(0,0,0)" stroke="none" paint-order="stroke fill markers" fill-rule="evenodd" d=" M 463.8923050850549 133.1833640418413 L 464.19676946396055 154.39438243893665 L 485.40778786105733 154.08991806003237 L 485.10332348215024 132.87889966293562 L 463.8923050850549 133.1833640418413" fill-opacity="0.09803921568627451"/><path fill="none" stroke="rgb(0,0,0)" paint-order="fill stroke markers" d=" M 463.8923050850549 133.1833640418413 L 464.19676946396055 154.39438243893665 L 485.40778786105733 154.08991806003237 L 485.10332348215024 132.87889966293562 L 463.8923050850549 133.1833640418413" stroke-opacity="0.6" stroke-linecap="round" stroke-linejoin="round" stroke-miterlimit="10" stroke-width="2"/><path fill="none" stroke="rgb(97,97,97)" paint-order="fill stroke markers" d=" M 466.8493613824194 339.1916194249026 L 774.1183320811422 334.7810600368827" stroke-opacity="0.8" stroke-linecap="round" stroke-linejoin="round" stroke-miterlimit="10" stroke-width="2.5"/><path fill="none" stroke="rgb(97,97,97)" paint-order="fill stroke markers" d=" M 466.8493613824194 339.1916194249026 L 617.5267904344163 130.97808434783133" stroke-opacity="0.8" stroke-linecap="round" stroke-linejoin="round" stroke-miterlimit="10" stroke-width="2.5"/><path fill="none" stroke="rgb(97,97,97)" paint-order="fill stroke markers" d=" M 617.5267904344163 130.97808434783133 L 774.1183320811422 334.7810600368827" stroke-opacity="0.8" stroke-linecap="round" stroke-linejoin="round" stroke-miterlimit="10" stroke-width="2.5"/><path fill="none" stroke="rgb(97,97,97)" paint-order="fill stroke markers" d=" M 463.8923050850549 133.1833640418413 L 466.8493613824194 339.1916194249026" stroke-opacity="0.8" stroke-linecap="round" stroke-linejoin="round" stroke-miterlimit="10" stroke-width="2.5"/><path fill="none" stroke="rgb(97,97,97)" paint-order="fill stroke markers" d=" M 617.5267904344163 130.97808434783133 L 463.8923050850549 133.1833640418413" stroke-opacity="0.8" stroke-linecap="round" stroke-linejoin="round" stroke-miterlimit="10" stroke-width="2.5"/><path fill="none" stroke="rgb(97,97,97)" paint-order="fill stroke markers" d=" M 617.5267904344163 130.97808434783133 L 620.4838467317808 336.98633973089267" stroke-opacity="0.8" stroke-linecap="round" stroke-linejoin="round" stroke-miterlimit="10" stroke-width="2.5"/><path fill="rgb(21,101,192)" stroke="none" paint-order="stroke fill markers" d=" M 477.8493613824194 339.1916194249026 C 477.8493613824194 345.26675167304137 472.9244936305581 350.1916194249026 466.8493613824194 350.1916194249026 C 460.77422913428063 350.1916194249026 455.8493613824194 345.26675167304137 455.8493613824194 339.1916194249026 C 455.8493613824194 333.1164871767639 460.77422913428063 328.1916194249026 466.8493613824194 328.1916194249026 C 472.9244936305581 328.1916194249026 477.8493613824194 333.1164871767639 477.8493613824194 339.1916194249026 Z" fill-opacity="0.2"/><path fill="none" stroke="rgb(21,101,192)" paint-order="fill stroke markers" d=" M 477.8493613824194 339.1916194249026 C 477.8493613824194 345.26675167304137 472.9244936305581 350.1916194249026 466.8493613824194 350.1916194249026 C 460.77422913428063 350.1916194249026 455.8493613824194 345.26675167304137 455.8493613824194 339.1916194249026 C 455.8493613824194 333.1164871767639 460.77422913428063 328.1916194249026 466.8493613824194 328.1916194249026 C 472.9244936305581 328.1916194249026 477.8493613824194 333.1164871767639 477.8493613824194 339.1916194249026 Z" stroke-opacity="1" stroke-linecap="square" stroke-miterlimit="10" stroke-width="2"/><path fill="rgb(21,101,192)" stroke="none" paint-order="stroke fill markers" d=" M 471.8493613824194 339.1916194249026 C 471.8493613824194 341.9530431740566 469.6107851315733 344.1916194249026 466.8493613824194 344.1916194249026 C 464.0879376332654 344.1916194249026 461.8493613824194 341.9530431740566 461.8493613824194 339.1916194249026 C 461.8493613824194 336.4301956757487 464.0879376332654 334.1916194249026 466.8493613824194 334.1916194249026 C 469.6107851315733 334.1916194249026 471.8493613824194 336.4301956757487 471.8493613824194 339.1916194249026 Z" fill-opacity="1"/><path fill="none" stroke="rgb(0,0,0)" paint-order="fill stroke markers" d=" M 471.8493613824194 339.1916194249026 C 471.8493613824194 341.9530431740566 469.6107851315733 344.1916194249026 466.8493613824194 344.1916194249026 C 464.0879376332654 344.1916194249026 461.8493613824194 341.9530431740566 461.8493613824194 339.1916194249026 C 461.8493613824194 336.4301956757487 464.0879376332654 334.1916194249026 466.8493613824194 334.1916194249026 C 469.6107851315733 334.1916194249026 471.8493613824194 336.4301956757487 471.8493613824194 339.1916194249026 Z" stroke-opacity="1" stroke-linecap="round" stroke-linejoin="round" stroke-miterlimit="10"/><text fill="rgb(21,101,192)" stroke="none" font-family="geogebra-sans-serif, sans-serif" font-size="16px" font-style="normal" font-weight="normal" text-decoration="normal" x="471" y="329" text-anchor="start" dominant-baseline="alphabetic" fill-opacity="1">A</text><text fill="none" stroke="rgb(255,255,255)" font-family="geogebra-sans-serif, sans-serif" font-size="16px" font-style="normal" font-weight="normal" text-decoration="normal" x="471" y="329" text-anchor="start" dominant-baseline="alphabetic" stroke-opacity="1" stroke-linejoin="bevel" stroke-miterlimit="10" stroke-width="3">A</text><text fill="rgb(21,101,192)" stroke="none" font-family="geogebra-sans-serif, sans-serif" font-size="16px" font-style="normal" font-weight="normal" text-decoration="normal" x="471" y="329" text-anchor="start" dominant-baseline="alphabetic" fill-opacity="1">A</text><path fill="rgb(21,101,192)" stroke="none" paint-order="stroke fill markers" d=" M 779.1183320811422 334.7810600368827 C 779.1183320811422 337.54248378603666 776.8797558302962 339.7810600368827 774.1183320811422 339.7810600368827 C 771.3569083319882 339.7810600368827 769.1183320811422 337.54248378603666 769.1183320811422 334.7810600368827 C 769.1183320811422 332.01963628772876 771.3569083319882 329.7810600368827 774.1183320811422 329.7810600368827 C 776.8797558302962 329.7810600368827 779.1183320811422 332.01963628772876 779.1183320811422 334.7810600368827 Z" fill-opacity="1"/><path fill="none" stroke="rgb(0,0,0)" paint-order="fill stroke markers" d=" M 779.1183320811422 334.7810600368827 C 779.1183320811422 337.54248378603666 776.8797558302962 339.7810600368827 774.1183320811422 339.7810600368827 C 771.3569083319882 339.7810600368827 769.1183320811422 337.54248378603666 769.1183320811422 334.7810600368827 C 769.1183320811422 332.01963628772876 771.3569083319882 329.7810600368827 774.1183320811422 329.7810600368827 C 776.8797558302962 329.7810600368827 779.1183320811422 332.01963628772876 779.1183320811422 334.7810600368827 Z" stroke-opacity="1" stroke-linecap="round" stroke-linejoin="round" stroke-miterlimit="10"/><text fill="rgb(21,101,192)" stroke="none" font-family="geogebra-sans-serif, sans-serif" font-size="16px" font-style="normal" font-weight="normal" text-decoration="normal" x="778" y="325" text-anchor="start" dominant-baseline="alphabetic" fill-opacity="1">B</text><text fill="none" stroke="rgb(255,255,255)" font-family="geogebra-sans-serif, sans-serif" font-size="16px" font-style="normal" font-weight="normal" text-decoration="normal" x="778" y="325" text-anchor="start" dominant-baseline="alphabetic" stroke-opacity="1" stroke-linejoin="bevel" stroke-miterlimit="10" stroke-width="3">B</text><text fill="rgb(21,101,192)" stroke="none" font-family="geogebra-sans-serif, sans-serif" font-size="16px" font-style="normal" font-weight="normal" text-decoration="normal" x="778" y="325" text-anchor="start" dominant-baseline="alphabetic" fill-opacity="1">B</text><path fill="rgb(97,97,97)" stroke="none" paint-order="stroke fill markers" d=" M 624.4838467317808 336.98633973089267 C 624.4838467317808 339.1954787302158 622.6929857311039 340.98633973089267 620.4838467317808 340.98633973089267 C 618.2747077324576 340.98633973089267 616.4838467317808 339.1954787302158 616.4838467317808 336.98633973089267 C 616.4838467317808 334.7772007315695 618.2747077324576 332.98633973089267 620.4838467317808 332.98633973089267 C 622.6929857311039 332.98633973089267 624.4838467317808 334.7772007315695 624.4838467317808 336.98633973089267 Z" fill-opacity="1"/><path fill="none" stroke="rgb(0,0,0)" paint-order="fill stroke markers" d=" M 624.4838467317808 336.98633973089267 C 624.4838467317808 339.1954787302158 622.6929857311039 340.98633973089267 620.4838467317808 340.98633973089267 C 618.2747077324576 340.98633973089267 616.4838467317808 339.1954787302158 616.4838467317808 336.98633973089267 C 616.4838467317808 334.7772007315695 618.2747077324576 332.98633973089267 620.4838467317808 332.98633973089267 C 622.6929857311039 332.98633973089267 624.4838467317808 334.7772007315695 624.4838467317808 336.98633973089267 Z" stroke-opacity="1" stroke-linecap="round" stroke-linejoin="round" stroke-miterlimit="10"/><text fill="rgb(97,97,97)" stroke="none" font-family="geogebra-sans-serif, sans-serif" font-size="16px" font-style="normal" font-weight="normal" text-decoration="normal" x="624" y="329" text-anchor="start" dominant-baseline="alphabetic" fill-opacity="1">H</text><text fill="none" stroke="rgb(255,255,255)" font-family="geogebra-sans-serif, sans-serif" font-size="16px" font-style="normal" font-weight="normal" text-decoration="normal" x="624" y="329" text-anchor="start" dominant-baseline="alphabetic" stroke-opacity="1" stroke-linejoin="bevel" stroke-miterlimit="10" stroke-width="3">H</text><text fill="rgb(97,97,97)" stroke="none" font-family="geogebra-sans-serif, sans-serif" font-size="16px" font-style="normal" font-weight="normal" text-decoration="normal" x="624" y="329" text-anchor="start" dominant-baseline="alphabetic" fill-opacity="1">H</text><path fill="rgb(21,101,192)" stroke="none" paint-order="stroke fill markers" d=" M 622.5267904344163 130.97808434783133 C 622.5267904344163 133.7395080969853 620.2882141835703 135.97808434783133 617.5267904344163 135.97808434783133 C 614.7653666852623 135.97808434783133 612.5267904344163 133.7395080969853 612.5267904344163 130.97808434783133 C 612.5267904344163 128.21666059867735 614.7653666852623 125.97808434783133 617.5267904344163 125.97808434783133 C 620.2882141835703 125.97808434783133 622.5267904344163 128.21666059867735 622.5267904344163 130.97808434783133 Z" fill-opacity="1"/><path fill="none" stroke="rgb(0,0,0)" paint-order="fill stroke markers" d=" M 622.5267904344163 130.97808434783133 C 622.5267904344163 133.7395080969853 620.2882141835703 135.97808434783133 617.5267904344163 135.97808434783133 C 614.7653666852623 135.97808434783133 612.5267904344163 133.7395080969853 612.5267904344163 130.97808434783133 C 612.5267904344163 128.21666059867735 614.7653666852623 125.97808434783133 617.5267904344163 125.97808434783133 C 620.2882141835703 125.97808434783133 622.5267904344163 128.21666059867735 622.5267904344163 130.97808434783133 Z" stroke-opacity="1" stroke-linecap="round" stroke-linejoin="round" stroke-miterlimit="10"/><text fill="rgb(21,101,192)" stroke="none" font-family="geogebra-sans-serif, sans-serif" font-size="16px" font-style="normal" font-weight="normal" text-decoration="normal" x="622" y="121" text-anchor="start" dominant-baseline="alphabetic" fill-opacity="1">C</text><text fill="none" stroke="rgb(255,255,255)" font-family="geogebra-sans-serif, sans-serif" font-size="16px" font-style="normal" font-weight="normal" text-decoration="normal" x="622" y="121" text-anchor="start" dominant-baseline="alphabetic" stroke-opacity="1" stroke-linejoin="bevel" stroke-miterlimit="10" stroke-width="3">C</text><text fill="rgb(21,101,192)" stroke="none" font-family="geogebra-sans-serif, sans-serif" font-size="16px" font-style="normal" font-weight="normal" text-decoration="normal" x="622" y="121" text-anchor="start" dominant-baseline="alphabetic" fill-opacity="1">C</text><path fill="rgb(97,97,97)" stroke="none" paint-order="stroke fill markers" d=" M 467.8923050850549 133.1833640418413 C 467.8923050850549 135.39250304116445 466.10144408437804 137.1833640418413 463.8923050850549 137.1833640418413 C 461.6831660857317 137.1833640418413 459.8923050850549 135.39250304116445 459.8923050850549 133.1833640418413 C 459.8923050850549 130.9742250425181 461.6831660857317 129.1833640418413 463.8923050850549 129.1833640418413 C 466.10144408437804 129.1833640418413 467.8923050850549 130.9742250425181 467.8923050850549 133.1833640418413 Z" fill-opacity="1"/><path fill="none" stroke="rgb(0,0,0)" paint-order="fill stroke markers" d=" M 467.8923050850549 133.1833640418413 C 467.8923050850549 135.39250304116445 466.10144408437804 137.1833640418413 463.8923050850549 137.1833640418413 C 461.6831660857317 137.1833640418413 459.8923050850549 135.39250304116445 459.8923050850549 133.1833640418413 C 459.8923050850549 130.9742250425181 461.6831660857317 129.1833640418413 463.8923050850549 129.1833640418413 C 466.10144408437804 129.1833640418413 467.8923050850549 130.9742250425181 467.8923050850549 133.1833640418413 Z" stroke-opacity="1" stroke-linecap="round" stroke-linejoin="round" stroke-miterlimit="10"/><text fill="rgb(97,97,97)" stroke="none" font-family="geogebra-sans-serif, sans-serif" font-size="16px" font-style="normal" font-weight="normal" text-decoration="normal" x="468" y="125" text-anchor="start" dominant-baseline="alphabetic" fill-opacity="1">D</text><text fill="none" stroke="rgb(255,255,255)" font-family="geogebra-sans-serif, sans-serif" font-size="16px" font-style="normal" font-weight="normal" text-decoration="normal" x="468" y="125" text-anchor="start" dominant-baseline="alphabetic" stroke-opacity="1" stroke-linejoin="bevel" stroke-miterlimit="10" stroke-width="3">D</text><text fill="rgb(97,97,97)" stroke="none" font-family="geogebra-sans-serif, sans-serif" font-size="16px" font-style="normal" font-weight="normal" text-decoration="normal" x="468" y="125" text-anchor="start" dominant-baseline="alphabetic" fill-opacity="1">D</text></g></g></svg>