<svg version="1.1" xmlns="http://www.w3.org/2000/svg" xmlns:xlink="http://www.w3.org/1999/xlink" width="1140" height="673"><defs><clipPath id="LayWTGRxlJqZ"><path fill="none" stroke="none" d=" M 0 0 L 1140 0 L 1140 673 L 0 673 L 0 0 Z"/></clipPath></defs><g transform="scale(1,1)" clip-path="url(#LayWTGRxlJqZ)"><g><rect fill="rgb(255,255,255)" stroke="none" x="0" y="0" width="1140" height="674" fill-opacity="1"/><path fill="rgb(0,0,0)" stroke="none" paint-order="stroke fill markers" d=" M 250.28210186233045 212.26103709024744 C 250.20664417487495 224.52291130176417 257.601127307905 235.59642462467366 268.95583967513437 240.2256535128518 L 280.28153383112647 212.44564897928618 Z" fill-opacity="0.09803921568627451"/><path fill="none" stroke="rgb(0,0,0)" paint-order="fill stroke markers" d=" M 250.28210186233045 212.26103709024744 C 250.20664417487495 224.52291130176417 257.601127307905 235.59642462467366 268.95583967513437 240.2256535128518 L 280.28153383112647 212.44564897928618 Z" stroke-opacity="0.6" stroke-linecap="round" stroke-linejoin="round" stroke-miterlimit="10" stroke-width="2"/><path fill="rgb(0,0,0)" stroke="none" paint-order="stroke fill markers" d=" M 310.2809657999225 212.6302608683249 C 310.356423487378 200.36838665680813 302.961940354348 189.2948733338987 291.60722798711856 184.66564444572055 L 280.28153383112647 212.44564897928618 Z" fill-opacity="0.09803921568627451"/><path fill="none" stroke="rgb(0,0,0)" paint-order="fill stroke markers" d=" M 310.2809657999225 212.6302608683249 C 310.356423487378 200.36838665680813 302.961940354348 189.2948733338987 291.60722798711856 184.66564444572055 L 280.28153383112647 212.44564897928618 Z" stroke-opacity="0.6" stroke-linecap="round" stroke-linejoin="round" stroke-miterlimit="10" stroke-width="2"/><path fill="none" stroke="rgb(97,97,97)" paint-order="fill stroke markers" d=" M 214.01120476815248 374.99551271865676 L 620.3858641165779 377.4962798531086" stroke-opacity="0.8" stroke-linecap="round" stroke-linejoin="round" stroke-miterlimit="10" stroke-width="2.5"/><path fill="none" stroke="rgb(97,97,97)" paint-order="fill stroke markers" d=" M 214.01120476815248 374.99551271865676 L 346.5518628941005 49.895785239915625" stroke-opacity="0.8" stroke-linecap="round" stroke-linejoin="round" stroke-miterlimit="10" stroke-width="2.5"/><path fill="none" stroke="rgb(97,97,97)" paint-order="fill stroke markers" d=" M 620.3858641165779 377.4962798531086 L 346.5518628941005 49.895785239915625" stroke-opacity="0.8" stroke-linecap="round" stroke-linejoin="round" stroke-miterlimit="10" stroke-width="2.5"/><path fill="none" stroke="rgb(97,97,97)" paint-order="fill stroke markers" d=" M 280.28153383112647 212.44564897928618 L 483.4688635053392 213.69603254651213" stroke-opacity="0.8" stroke-linecap="round" stroke-linejoin="round" stroke-miterlimit="10" stroke-width="2.5"/><path fill="none" stroke="rgb(97,97,97)" paint-order="fill stroke markers" d=" M 280.28153383112647 212.44564897928618 L 77.09420415691386 211.19526541206028" stroke-opacity="0.8" stroke-linecap="round" stroke-linejoin="round" stroke-miterlimit="10" stroke-width="2.5"/><path fill="none" stroke="rgb(97,97,97)" paint-order="fill stroke markers" d=" M 77.09420415691386 211.19526541206028 L 214.01120476815248 374.99551271865676" stroke-opacity="0.8" stroke-linecap="round" stroke-linejoin="round" stroke-miterlimit="10" stroke-width="2.5"/><path fill="none" stroke="rgb(97,97,97)" paint-order="fill stroke markers" d=" M 175.37435254087148 201.31723523097543 L 173.99893061692296 224.69940793810028" stroke-opacity="0.8" stroke-linecap="round" stroke-linejoin="round" stroke-miterlimit="10" stroke-width="2.5"/><path fill="none" stroke="rgb(97,97,97)" paint-order="fill stroke markers" d=" M 374.67862360806714 200.62289684244593 L 374.0121965065747 222.61499119169568" stroke-opacity="0.8" stroke-linecap="round" stroke-linejoin="round" stroke-miterlimit="10" stroke-width="2.5"/><path fill="none" stroke="rgb(97,97,97)" paint-order="fill stroke markers" d=" M 229.92890508832687 306.24647228147825 L 249.77887708951542 317.7385613347979" stroke-opacity="0.8" stroke-linecap="round" stroke-linejoin="round" stroke-miterlimit="10" stroke-width="2.5"/><path fill="none" stroke="rgb(97,97,97)" paint-order="fill stroke markers" d=" M 253.43176290051278 308.4629411368766 L 234.94942778230228 297.6284688262015" stroke-opacity="0.8" stroke-linecap="round" stroke-linejoin="round" stroke-miterlimit="10" stroke-width="2.5"/><path fill="none" stroke="rgb(97,97,97)" paint-order="fill stroke markers" d=" M 312.7026996589119 147.22050027800591 L 299.31893974572506 141.48460317235438" stroke-opacity="0.8" stroke-linecap="round" stroke-linejoin="round" stroke-miterlimit="10" stroke-width="2.5"/><path fill="none" stroke="rgb(97,97,97)" paint-order="fill stroke markers" d=" M 318.1199358142495 135.1113841660749 L 302.1868882985508 128.73816515979544" stroke-opacity="0.8" stroke-linecap="round" stroke-linejoin="round" stroke-miterlimit="10" stroke-width="2.5"/><path fill="none" stroke="rgb(97,97,97)" paint-order="fill stroke markers" d=" M 413.08089900781374 119.17833665037622 L 401.92776574682466 127.78218230885352" stroke-opacity="0.8" stroke-linecap="round" stroke-linejoin="round" stroke-miterlimit="10" stroke-width="2.5"/><path fill="none" stroke="rgb(97,97,97)" paint-order="fill stroke markers" d=" M 423.5967103681749 125.5515556566557 L 409.57562855436004 136.38602796733082" stroke-opacity="0.8" stroke-linecap="round" stroke-linejoin="round" stroke-miterlimit="10" stroke-width="2.5"/><path fill="none" stroke="rgb(97,97,97)" paint-order="fill stroke markers" d=" M 428.0579636725705 133.836740364819 L 416.58616946126745 143.07790792392427" stroke-opacity="0.8" stroke-linecap="round" stroke-linejoin="round" stroke-miterlimit="10" stroke-width="2.5"/><path fill="none" stroke="rgb(97,97,97)" paint-order="fill stroke markers" d=" M 552.0170733447064 282.01408226081685 L 537.6773305805776 293.4858764721199" stroke-opacity="0.8" stroke-linecap="round" stroke-linejoin="round" stroke-miterlimit="10" stroke-width="2.5"/><path fill="none" stroke="rgb(97,97,97)" paint-order="fill stroke markers" d=" M 562.8515456553815 292.529893621178 L 548.1931419409387 303.6830268821671" stroke-opacity="0.8" stroke-linecap="round" stroke-linejoin="round" stroke-miterlimit="10" stroke-width="2.5"/><path fill="none" stroke="rgb(97,97,97)" paint-order="fill stroke markers" d=" M 569.8620865622889 301.77106118028325 L 554.2476999969042 311.3308896897025" stroke-opacity="0.8" stroke-linecap="round" stroke-linejoin="round" stroke-miterlimit="10" stroke-width="2.5"/><path fill="rgb(21,101,192)" stroke="none" paint-order="stroke fill markers" d=" M 225.01120476815248 374.99551271865676 C 225.01120476815248 381.0706449667955 220.0863370162912 385.99551271865676 214.01120476815248 385.99551271865676 C 207.93607252001377 385.99551271865676 203.01120476815248 381.0706449667955 203.01120476815248 374.99551271865676 C 203.01120476815248 368.920380470518 207.93607252001377 363.99551271865676 214.01120476815248 363.99551271865676 C 220.0863370162912 363.99551271865676 225.01120476815248 368.920380470518 225.01120476815248 374.99551271865676 Z" fill-opacity="0.2"/><path fill="none" stroke="rgb(21,101,192)" paint-order="fill stroke markers" d=" M 225.01120476815248 374.99551271865676 C 225.01120476815248 381.0706449667955 220.0863370162912 385.99551271865676 214.01120476815248 385.99551271865676 C 207.93607252001377 385.99551271865676 203.01120476815248 381.0706449667955 203.01120476815248 374.99551271865676 C 203.01120476815248 368.920380470518 207.93607252001377 363.99551271865676 214.01120476815248 363.99551271865676 C 220.0863370162912 363.99551271865676 225.01120476815248 368.920380470518 225.01120476815248 374.99551271865676 Z" stroke-opacity="1" stroke-linecap="square" stroke-miterlimit="10" stroke-width="2"/><path fill="rgb(21,101,192)" stroke="none" paint-order="stroke fill markers" d=" M 219.01120476815248 374.99551271865676 C 219.01120476815248 377.7569364678107 216.77262851730646 379.99551271865676 214.01120476815248 379.99551271865676 C 211.2497810189985 379.99551271865676 209.01120476815248 377.7569364678107 209.01120476815248 374.99551271865676 C 209.01120476815248 372.2340889695028 211.2497810189985 369.99551271865676 214.01120476815248 369.99551271865676 C 216.77262851730646 369.99551271865676 219.01120476815248 372.2340889695028 219.01120476815248 374.99551271865676 Z" fill-opacity="1"/><path fill="none" stroke="rgb(0,0,0)" paint-order="fill stroke markers" d=" M 219.01120476815248 374.99551271865676 C 219.01120476815248 377.7569364678107 216.77262851730646 379.99551271865676 214.01120476815248 379.99551271865676 C 211.2497810189985 379.99551271865676 209.01120476815248 377.7569364678107 209.01120476815248 374.99551271865676 C 209.01120476815248 372.2340889695028 211.2497810189985 369.99551271865676 214.01120476815248 369.99551271865676 C 216.77262851730646 369.99551271865676 219.01120476815248 372.2340889695028 219.01120476815248 374.99551271865676 Z" stroke-opacity="1" stroke-linecap="round" stroke-linejoin="round" stroke-miterlimit="10"/><text fill="rgb(21,101,192)" stroke="none" font-family="geogebra-sans-serif, sans-serif" font-size="16px" font-style="normal" font-weight="normal" text-decoration="normal" x="218" y="365" text-anchor="start" dominant-baseline="alphabetic" fill-opacity="1">A</text><text fill="none" stroke="rgb(255,255,255)" font-family="geogebra-sans-serif, sans-serif" font-size="16px" font-style="normal" font-weight="normal" text-decoration="normal" x="218" y="365" text-anchor="start" dominant-baseline="alphabetic" stroke-opacity="1" stroke-linejoin="bevel" stroke-miterlimit="10" stroke-width="3">A</text><text fill="rgb(21,101,192)" stroke="none" font-family="geogebra-sans-serif, sans-serif" font-size="16px" font-style="normal" font-weight="normal" text-decoration="normal" x="218" y="365" text-anchor="start" dominant-baseline="alphabetic" fill-opacity="1">A</text><path fill="rgb(21,101,192)" stroke="none" paint-order="stroke fill markers" d=" M 625.3858641165779 377.4962798531086 C 625.3858641165779 380.25770360226255 623.1472878657319 382.4962798531086 620.3858641165779 382.4962798531086 C 617.6244403674239 382.4962798531086 615.3858641165779 380.25770360226255 615.3858641165779 377.4962798531086 C 615.3858641165779 374.73485610395466 617.6244403674239 372.4962798531086 620.3858641165779 372.4962798531086 C 623.1472878657319 372.4962798531086 625.3858641165779 374.73485610395466 625.3858641165779 377.4962798531086 Z" fill-opacity="1"/><path fill="none" stroke="rgb(0,0,0)" paint-order="fill stroke markers" d=" M 625.3858641165779 377.4962798531086 C 625.3858641165779 380.25770360226255 623.1472878657319 382.4962798531086 620.3858641165779 382.4962798531086 C 617.6244403674239 382.4962798531086 615.3858641165779 380.25770360226255 615.3858641165779 377.4962798531086 C 615.3858641165779 374.73485610395466 617.6244403674239 372.4962798531086 620.3858641165779 372.4962798531086 C 623.1472878657319 372.4962798531086 625.3858641165779 374.73485610395466 625.3858641165779 377.4962798531086 Z" stroke-opacity="1" stroke-linecap="round" stroke-linejoin="round" stroke-miterlimit="10"/><text fill="rgb(21,101,192)" stroke="none" font-family="geogebra-sans-serif, sans-serif" font-size="16px" font-style="normal" font-weight="normal" text-decoration="normal" x="624" y="367" text-anchor="start" dominant-baseline="alphabetic" fill-opacity="1">B</text><text fill="none" stroke="rgb(255,255,255)" font-family="geogebra-sans-serif, sans-serif" font-size="16px" font-style="normal" font-weight="normal" text-decoration="normal" x="624" y="367" text-anchor="start" dominant-baseline="alphabetic" stroke-opacity="1" stroke-linejoin="bevel" stroke-miterlimit="10" stroke-width="3">B</text><text fill="rgb(21,101,192)" stroke="none" font-family="geogebra-sans-serif, sans-serif" font-size="16px" font-style="normal" font-weight="normal" text-decoration="normal" x="624" y="367" text-anchor="start" dominant-baseline="alphabetic" fill-opacity="1">B</text><path fill="rgb(21,101,192)" stroke="none" paint-order="stroke fill markers" d=" M 351.5518628941005 49.895785239915625 C 351.5518628941005 52.65720898906959 349.31328664325446 54.895785239915625 346.5518628941005 54.895785239915625 C 343.79043914494656 54.895785239915625 341.5518628941005 52.65720898906959 341.5518628941005 49.895785239915625 C 341.5518628941005 47.134361490761655 343.79043914494656 44.895785239915625 346.5518628941005 44.895785239915625 C 349.31328664325446 44.895785239915625 351.5518628941005 47.134361490761655 351.5518628941005 49.895785239915625 Z" fill-opacity="1"/><path fill="none" stroke="rgb(0,0,0)" paint-order="fill stroke markers" d=" M 351.5518628941005 49.895785239915625 C 351.5518628941005 52.65720898906959 349.31328664325446 54.895785239915625 346.5518628941005 54.895785239915625 C 343.79043914494656 54.895785239915625 341.5518628941005 52.65720898906959 341.5518628941005 49.895785239915625 C 341.5518628941005 47.134361490761655 343.79043914494656 44.895785239915625 346.5518628941005 44.895785239915625 C 349.31328664325446 44.895785239915625 351.5518628941005 47.134361490761655 351.5518628941005 49.895785239915625 Z" stroke-opacity="1" stroke-linecap="round" stroke-linejoin="round" stroke-miterlimit="10"/><text fill="rgb(21,101,192)" stroke="none" font-family="geogebra-sans-serif, sans-serif" font-size="16px" font-style="normal" font-weight="normal" text-decoration="normal" x="351" y="40" text-anchor="start" dominant-baseline="alphabetic" fill-opacity="1">C</text><text fill="none" stroke="rgb(255,255,255)" font-family="geogebra-sans-serif, sans-serif" font-size="16px" font-style="normal" font-weight="normal" text-decoration="normal" x="351" y="40" text-anchor="start" dominant-baseline="alphabetic" stroke-opacity="1" stroke-linejoin="bevel" stroke-miterlimit="10" stroke-width="3">C</text><text fill="rgb(21,101,192)" stroke="none" font-family="geogebra-sans-serif, sans-serif" font-size="16px" font-style="normal" font-weight="normal" text-decoration="normal" x="351" y="40" text-anchor="start" dominant-baseline="alphabetic" fill-opacity="1">C</text><path fill="rgb(97,97,97)" stroke="none" paint-order="stroke fill markers" d=" M 284.28153383112647 212.44564897928618 C 284.28153383112647 214.65478797860936 282.4906728304496 216.44564897928618 280.28153383112647 216.44564897928618 C 278.0723948318033 216.44564897928618 276.28153383112647 214.65478797860936 276.28153383112647 212.44564897928618 C 276.28153383112647 210.236509979963 278.0723948318033 208.44564897928618 280.28153383112647 208.44564897928618 C 282.4906728304496 208.44564897928618 284.28153383112647 210.236509979963 284.28153383112647 212.44564897928618 Z" fill-opacity="1"/><path fill="none" stroke="rgb(0,0,0)" paint-order="fill stroke markers" d=" M 284.28153383112647 212.44564897928618 C 284.28153383112647 214.65478797860936 282.4906728304496 216.44564897928618 280.28153383112647 216.44564897928618 C 278.0723948318033 216.44564897928618 276.28153383112647 214.65478797860936 276.28153383112647 212.44564897928618 C 276.28153383112647 210.236509979963 278.0723948318033 208.44564897928618 280.28153383112647 208.44564897928618 C 282.4906728304496 208.44564897928618 284.28153383112647 210.236509979963 284.28153383112647 212.44564897928618 Z" stroke-opacity="1" stroke-linecap="round" stroke-linejoin="round" stroke-miterlimit="10"/><text fill="rgb(97,97,97)" stroke="none" font-family="geogebra-sans-serif, sans-serif" font-size="16px" font-style="normal" font-weight="normal" text-decoration="normal" x="284" y="204" text-anchor="start" dominant-baseline="alphabetic" fill-opacity="1">D</text><text fill="none" stroke="rgb(255,255,255)" font-family="geogebra-sans-serif, sans-serif" font-size="16px" font-style="normal" font-weight="normal" text-decoration="normal" x="284" y="204" text-anchor="start" dominant-baseline="alphabetic" stroke-opacity="1" stroke-linejoin="bevel" stroke-miterlimit="10" stroke-width="3">D</text><text fill="rgb(97,97,97)" stroke="none" font-family="geogebra-sans-serif, sans-serif" font-size="16px" font-style="normal" font-weight="normal" text-decoration="normal" x="284" y="204" text-anchor="start" dominant-baseline="alphabetic" fill-opacity="1">D</text><path fill="rgb(97,97,97)" stroke="none" paint-order="stroke fill markers" d=" M 487.4688635053392 213.69603254651213 C 487.4688635053392 215.9051715458353 485.67800250466235 217.69603254651213 483.4688635053392 217.69603254651213 C 481.259724506016 217.69603254651213 479.4688635053392 215.9051715458353 479.4688635053392 213.69603254651213 C 479.4688635053392 211.48689354718894 481.259724506016 209.69603254651213 483.4688635053392 209.69603254651213 C 485.67800250466235 209.69603254651213 487.4688635053392 211.48689354718894 487.4688635053392 213.69603254651213 Z" fill-opacity="1"/><path fill="none" stroke="rgb(0,0,0)" paint-order="fill stroke markers" d=" M 487.4688635053392 213.69603254651213 C 487.4688635053392 215.9051715458353 485.67800250466235 217.69603254651213 483.4688635053392 217.69603254651213 C 481.259724506016 217.69603254651213 479.4688635053392 215.9051715458353 479.4688635053392 213.69603254651213 C 479.4688635053392 211.48689354718894 481.259724506016 209.69603254651213 483.4688635053392 209.69603254651213 C 485.67800250466235 209.69603254651213 487.4688635053392 211.48689354718894 487.4688635053392 213.69603254651213 Z" stroke-opacity="1" stroke-linecap="round" stroke-linejoin="round" stroke-miterlimit="10"/><text fill="rgb(97,97,97)" stroke="none" font-family="geogebra-sans-serif, sans-serif" font-size="16px" font-style="normal" font-weight="normal" text-decoration="normal" x="487" y="206" text-anchor="start" dominant-baseline="alphabetic" fill-opacity="1">E</text><text fill="none" stroke="rgb(255,255,255)" font-family="geogebra-sans-serif, sans-serif" font-size="16px" font-style="normal" font-weight="normal" text-decoration="normal" x="487" y="206" text-anchor="start" dominant-baseline="alphabetic" stroke-opacity="1" stroke-linejoin="bevel" stroke-miterlimit="10" stroke-width="3">E</text><text fill="rgb(97,97,97)" stroke="none" font-family="geogebra-sans-serif, sans-serif" font-size="16px" font-style="normal" font-weight="normal" text-decoration="normal" x="487" y="206" text-anchor="start" dominant-baseline="alphabetic" fill-opacity="1">E</text><path fill="rgb(97,97,97)" stroke="none" paint-order="stroke fill markers" d=" M 81.09420415691386 211.19526541206028 C 81.09420415691386 213.40440441138344 79.30334315623703 215.19526541206028 77.09420415691386 215.19526541206028 C 74.88506515759069 215.19526541206028 73.09420415691386 213.40440441138344 73.09420415691386 211.19526541206028 C 73.09420415691386 208.9861264127371 74.88506515759069 207.19526541206028 77.09420415691386 207.19526541206028 C 79.30334315623703 207.19526541206028 81.09420415691386 208.9861264127371 81.09420415691386 211.19526541206028 Z" fill-opacity="1"/><path fill="none" stroke="rgb(0,0,0)" paint-order="fill stroke markers" d=" M 81.09420415691386 211.19526541206028 C 81.09420415691386 213.40440441138344 79.30334315623703 215.19526541206028 77.09420415691386 215.19526541206028 C 74.88506515759069 215.19526541206028 73.09420415691386 213.40440441138344 73.09420415691386 211.19526541206028 C 73.09420415691386 208.9861264127371 74.88506515759069 207.19526541206028 77.09420415691386 207.19526541206028 C 79.30334315623703 207.19526541206028 81.09420415691386 208.9861264127371 81.09420415691386 211.19526541206028 Z" stroke-opacity="1" stroke-linecap="round" stroke-linejoin="round" stroke-miterlimit="10"/><text fill="rgb(97,97,97)" stroke="none" font-family="geogebra-sans-serif, sans-serif" font-size="16px" font-style="normal" font-weight="normal" text-decoration="normal" x="81" y="203" text-anchor="start" dominant-baseline="alphabetic" fill-opacity="1">F</text><text fill="none" stroke="rgb(255,255,255)" font-family="geogebra-sans-serif, sans-serif" font-size="16px" font-style="normal" font-weight="normal" text-decoration="normal" x="81" y="203" text-anchor="start" dominant-baseline="alphabetic" stroke-opacity="1" stroke-linejoin="bevel" stroke-miterlimit="10" stroke-width="3">F</text><text fill="rgb(97,97,97)" stroke="none" font-family="geogebra-sans-serif, sans-serif" font-size="16px" font-style="normal" font-weight="normal" text-decoration="normal" x="81" y="203" text-anchor="start" dominant-baseline="alphabetic" fill-opacity="1">F</text></g></g></svg>