<svg version="1.1" xmlns="http://www.w3.org/2000/svg" xmlns:xlink="http://www.w3.org/1999/xlink" width="1140" height="673"><defs><clipPath id="aPGOScQgMKLe"><path fill="none" stroke="none" d=" M 0 0 L 1140 0 L 1140 673 L 0 673 L 0 0 Z"/></clipPath></defs><g transform="scale(1,1)" clip-path="url(#aPGOScQgMKLe)"><g><rect fill="rgb(255,255,255)" stroke="none" x="0" y="0" width="1140" height="674" fill-opacity="1"/><path fill="rgb(0,0,0)" stroke="none" paint-order="stroke fill markers" d=" M 135.38209134217135 500.49883341044074 C 135.27011879200177 490.7292284081416 130.40771655006552 481.6261363408214 122.34991224178162 476.1007848151409 L 105.38406157523582 500.8426503705202 Z" fill-opacity="0.09803921568627451"/><path fill="none" stroke="rgb(0,0,0)" paint-order="fill stroke markers" d=" M 135.38209134217135 500.49883341044074 C 135.27011879200177 490.7292284081416 130.40771655006552 481.6261363408214 122.34991224178162 476.1007848151409 L 105.38406157523582 500.8426503705202 Z" stroke-opacity="0.6" stroke-linecap="round" stroke-linejoin="round" stroke-miterlimit="10" stroke-width="2"/><path fill="rgb(0,0,0)" stroke="none" paint-order="stroke fill markers" d=" M 789.9717406425118 492.9963732465399 C 789.8597680923422 483.2267682442408 784.9973658504059 474.1236761769206 776.939561542122 468.59832465124015 L 759.9737108755762 493.3401902066194 Z" fill-opacity="0.09803921568627451"/><path fill="none" stroke="rgb(0,0,0)" paint-order="fill stroke markers" d=" M 789.9717406425118 492.9963732465399 C 789.8597680923422 483.2267682442408 784.9973658504059 474.1236761769206 776.939561542122 468.59832465124015 L 759.9737108755762 493.3401902066194 Z" stroke-opacity="0.6" stroke-linecap="round" stroke-linejoin="round" stroke-miterlimit="10" stroke-width="2"/><path fill="rgb(0,0,0)" stroke="none" paint-order="stroke fill markers" fill-rule="evenodd" d=" M 288.4286433147861 498.7447182015855 L 288.18552801082694 477.53290793115065 L 266.9737177403908 477.77602323510837 L 267.21683304435135 498.98783350554464 L 288.4286433147861 498.7447182015855" fill-opacity="0.09803921568627451"/><path fill="none" stroke="rgb(0,0,0)" paint-order="fill stroke markers" d=" M 288.4286433147861 498.7447182015855 L 288.18552801082694 477.53290793115065 L 266.9737177403908 477.77602323510837 L 267.21683304435135 498.98783350554464 L 288.4286433147861 498.7447182015855" stroke-opacity="0.6" stroke-linecap="round" stroke-linejoin="round" stroke-miterlimit="10" stroke-width="2"/><path fill="rgb(0,0,0)" stroke="none" paint-order="stroke fill markers" fill-rule="evenodd" d=" M 943.0182926151265 491.24225803768473 L 942.7751773111673 470.0304477672499 L 921.5633670407312 470.2735630712076 L 921.8064823446917 491.4853733416439 L 943.0182926151265 491.24225803768473" fill-opacity="0.09803921568627451"/><path fill="none" stroke="rgb(0,0,0)" paint-order="fill stroke markers" d=" M 943.0182926151265 491.24225803768473 L 942.7751773111673 470.0304477672499 L 921.5633670407312 470.2735630712076 L 921.8064823446917 491.4853733416439 L 943.0182926151265 491.24225803768473" stroke-opacity="0.6" stroke-linecap="round" stroke-linejoin="round" stroke-miterlimit="10" stroke-width="2"/><path fill="none" stroke="rgb(97,97,97)" paint-order="fill stroke markers" d=" M 105.38406157523582 500.8426503705202 L 759.9737108755762 493.3401902066194" stroke-opacity="0.8" stroke-linecap="round" stroke-linejoin="round" stroke-miterlimit="10" stroke-width="2.5"/><path fill="none" stroke="rgb(97,97,97)" paint-order="fill stroke markers" d=" M 105.38406157523582 500.8426503705202 L 285.4431055088538 238.2565446339936" stroke-opacity="0.8" stroke-linecap="round" stroke-linejoin="round" stroke-miterlimit="10" stroke-width="2.5"/><path fill="none" stroke="rgb(97,97,97)" paint-order="fill stroke markers" d=" M 285.4431055088538 238.2565446339936 L 940.0327548091943 230.7540844700929" stroke-opacity="0.8" stroke-linecap="round" stroke-linejoin="round" stroke-miterlimit="10" stroke-width="2.5"/><path fill="none" stroke="rgb(97,97,97)" paint-order="fill stroke markers" d=" M 759.9737108755762 493.3401902066194 L 940.0327548091943 230.7540844700929" stroke-opacity="0.8" stroke-linecap="round" stroke-linejoin="round" stroke-miterlimit="10" stroke-width="2.5"/><path fill="none" stroke="rgb(97,97,97)" paint-order="fill stroke markers" d=" M 285.4431055088538 238.2565446339936 L 288.4286433147861 498.7447182015855" stroke-opacity="0.8" stroke-linecap="round" stroke-linejoin="round" stroke-miterlimit="10" stroke-width="2.5"/><path fill="none" stroke="rgb(97,97,97)" paint-order="fill stroke markers" d=" M 940.0327548091943 230.7540844700929 L 943.0182926151265 491.24225803768473" stroke-opacity="0.8" stroke-linecap="round" stroke-linejoin="round" stroke-miterlimit="10" stroke-width="2.5"/><path fill="none" stroke="rgb(97,97,97)" paint-order="fill stroke markers" d=" M 759.9737108755762 493.3401902066194 L 943.0182926151265 491.24225803768473" stroke-opacity="0.8" stroke-linecap="round" stroke-linejoin="round" stroke-miterlimit="10" stroke-width="2.5"/><path fill="none" stroke="rgb(97,97,97)" paint-order="fill stroke markers" d=" M 185.97747412720503 355.8697826118338 L 207.1108302400943 372.77646750214524" stroke-opacity="0.8" stroke-linecap="round" stroke-linejoin="round" stroke-miterlimit="10" stroke-width="2.5"/><path fill="none" stroke="rgb(97,97,97)" paint-order="fill stroke markers" d=" M 825.3838970616766 369.46475645828934 L 847.0810317491113 383.2062750936646" stroke-opacity="0.8" stroke-linecap="round" stroke-linejoin="round" stroke-miterlimit="10" stroke-width="2.5"/><path fill="rgb(21,101,192)" stroke="none" paint-order="stroke fill markers" d=" M 116.38406157523582 500.8426503705202 C 116.38406157523582 506.9177826186589 111.45919382337455 511.8426503705202 105.38406157523582 511.8426503705202 C 99.30892932709709 511.8426503705202 94.38406157523582 506.9177826186589 94.38406157523582 500.8426503705202 C 94.38406157523582 494.76751812238143 99.30892932709709 489.8426503705202 105.38406157523582 489.8426503705202 C 111.45919382337455 489.8426503705202 116.38406157523582 494.76751812238143 116.38406157523582 500.8426503705202 Z" fill-opacity="0.2"/><path fill="none" stroke="rgb(21,101,192)" paint-order="fill stroke markers" d=" M 116.38406157523582 500.8426503705202 C 116.38406157523582 506.9177826186589 111.45919382337455 511.8426503705202 105.38406157523582 511.8426503705202 C 99.30892932709709 511.8426503705202 94.38406157523582 506.9177826186589 94.38406157523582 500.8426503705202 C 94.38406157523582 494.76751812238143 99.30892932709709 489.8426503705202 105.38406157523582 489.8426503705202 C 111.45919382337455 489.8426503705202 116.38406157523582 494.76751812238143 116.38406157523582 500.8426503705202 Z" stroke-opacity="1" stroke-linecap="square" stroke-miterlimit="10" stroke-width="2"/><path fill="rgb(21,101,192)" stroke="none" paint-order="stroke fill markers" d=" M 110.38406157523582 500.8426503705202 C 110.38406157523582 503.6040741196741 108.14548532438978 505.8426503705202 105.38406157523582 505.8426503705202 C 102.62263782608186 505.8426503705202 100.38406157523582 503.6040741196741 100.38406157523582 500.8426503705202 C 100.38406157523582 498.0812266213662 102.62263782608186 495.8426503705202 105.38406157523582 495.8426503705202 C 108.14548532438978 495.8426503705202 110.38406157523582 498.0812266213662 110.38406157523582 500.8426503705202 Z" fill-opacity="1"/><path fill="none" stroke="rgb(0,0,0)" paint-order="fill stroke markers" d=" M 110.38406157523582 500.8426503705202 C 110.38406157523582 503.6040741196741 108.14548532438978 505.8426503705202 105.38406157523582 505.8426503705202 C 102.62263782608186 505.8426503705202 100.38406157523582 503.6040741196741 100.38406157523582 500.8426503705202 C 100.38406157523582 498.0812266213662 102.62263782608186 495.8426503705202 105.38406157523582 495.8426503705202 C 108.14548532438978 495.8426503705202 110.38406157523582 498.0812266213662 110.38406157523582 500.8426503705202 Z" stroke-opacity="1" stroke-linecap="round" stroke-linejoin="round" stroke-miterlimit="10"/><text fill="rgb(21,101,192)" stroke="none" font-family="geogebra-sans-serif, sans-serif" font-size="16px" font-style="normal" font-weight="normal" text-decoration="normal" x="109" y="491" text-anchor="start" dominant-baseline="alphabetic" fill-opacity="1">A</text><text fill="none" stroke="rgb(255,255,255)" font-family="geogebra-sans-serif, sans-serif" font-size="16px" font-style="normal" font-weight="normal" text-decoration="normal" x="109" y="491" text-anchor="start" dominant-baseline="alphabetic" stroke-opacity="1" stroke-linejoin="bevel" stroke-miterlimit="10" stroke-width="3">A</text><text fill="rgb(21,101,192)" stroke="none" font-family="geogebra-sans-serif, sans-serif" font-size="16px" font-style="normal" font-weight="normal" text-decoration="normal" x="109" y="491" text-anchor="start" dominant-baseline="alphabetic" fill-opacity="1">A</text><path fill="rgb(21,101,192)" stroke="none" paint-order="stroke fill markers" d=" M 764.9737108755762 493.3401902066194 C 764.9737108755762 496.10161395577336 762.7351346247302 498.3401902066194 759.9737108755762 498.3401902066194 C 757.2122871264222 498.3401902066194 754.9737108755762 496.10161395577336 754.9737108755762 493.3401902066194 C 754.9737108755762 490.57876645746546 757.2122871264222 488.3401902066194 759.9737108755762 488.3401902066194 C 762.7351346247302 488.3401902066194 764.9737108755762 490.57876645746546 764.9737108755762 493.3401902066194 Z" fill-opacity="1"/><path fill="none" stroke="rgb(0,0,0)" paint-order="fill stroke markers" d=" M 764.9737108755762 493.3401902066194 C 764.9737108755762 496.10161395577336 762.7351346247302 498.3401902066194 759.9737108755762 498.3401902066194 C 757.2122871264222 498.3401902066194 754.9737108755762 496.10161395577336 754.9737108755762 493.3401902066194 C 754.9737108755762 490.57876645746546 757.2122871264222 488.3401902066194 759.9737108755762 488.3401902066194 C 762.7351346247302 488.3401902066194 764.9737108755762 490.57876645746546 764.9737108755762 493.3401902066194 Z" stroke-opacity="1" stroke-linecap="round" stroke-linejoin="round" stroke-miterlimit="10"/><text fill="rgb(21,101,192)" stroke="none" font-family="geogebra-sans-serif, sans-serif" font-size="16px" font-style="normal" font-weight="normal" text-decoration="normal" x="764" y="483" text-anchor="start" dominant-baseline="alphabetic" fill-opacity="1">B</text><text fill="none" stroke="rgb(255,255,255)" font-family="geogebra-sans-serif, sans-serif" font-size="16px" font-style="normal" font-weight="normal" text-decoration="normal" x="764" y="483" text-anchor="start" dominant-baseline="alphabetic" stroke-opacity="1" stroke-linejoin="bevel" stroke-miterlimit="10" stroke-width="3">B</text><text fill="rgb(21,101,192)" stroke="none" font-family="geogebra-sans-serif, sans-serif" font-size="16px" font-style="normal" font-weight="normal" text-decoration="normal" x="764" y="483" text-anchor="start" dominant-baseline="alphabetic" fill-opacity="1">B</text><path fill="rgb(21,101,192)" stroke="none" paint-order="stroke fill markers" d=" M 290.4431055088538 238.2565446339936 C 290.4431055088538 241.01796838314758 288.20452925800777 243.2565446339936 285.4431055088538 243.2565446339936 C 282.68168175969987 243.2565446339936 280.4431055088538 241.01796838314758 280.4431055088538 238.2565446339936 C 280.4431055088538 235.49512088483962 282.68168175969987 233.2565446339936 285.4431055088538 233.2565446339936 C 288.20452925800777 233.2565446339936 290.4431055088538 235.49512088483962 290.4431055088538 238.2565446339936 Z" fill-opacity="1"/><path fill="none" stroke="rgb(0,0,0)" paint-order="fill stroke markers" d=" M 290.4431055088538 238.2565446339936 C 290.4431055088538 241.01796838314758 288.20452925800777 243.2565446339936 285.4431055088538 243.2565446339936 C 282.68168175969987 243.2565446339936 280.4431055088538 241.01796838314758 280.4431055088538 238.2565446339936 C 280.4431055088538 235.49512088483962 282.68168175969987 233.2565446339936 285.4431055088538 233.2565446339936 C 288.20452925800777 233.2565446339936 290.4431055088538 235.49512088483962 290.4431055088538 238.2565446339936 Z" stroke-opacity="1" stroke-linecap="round" stroke-linejoin="round" stroke-miterlimit="10"/><text fill="rgb(21,101,192)" stroke="none" font-family="geogebra-sans-serif, sans-serif" font-size="16px" font-style="normal" font-weight="normal" text-decoration="normal" x="289" y="228" text-anchor="start" dominant-baseline="alphabetic" fill-opacity="1">D</text><text fill="none" stroke="rgb(255,255,255)" font-family="geogebra-sans-serif, sans-serif" font-size="16px" font-style="normal" font-weight="normal" text-decoration="normal" x="289" y="228" text-anchor="start" dominant-baseline="alphabetic" stroke-opacity="1" stroke-linejoin="bevel" stroke-miterlimit="10" stroke-width="3">D</text><text fill="rgb(21,101,192)" stroke="none" font-family="geogebra-sans-serif, sans-serif" font-size="16px" font-style="normal" font-weight="normal" text-decoration="normal" x="289" y="228" text-anchor="start" dominant-baseline="alphabetic" fill-opacity="1">D</text><path fill="rgb(97,97,97)" stroke="none" paint-order="stroke fill markers" d=" M 944.0327548091943 230.7540844700929 C 944.0327548091943 232.96322346941605 942.2418938085175 234.7540844700929 940.0327548091943 234.7540844700929 C 937.8236158098712 234.7540844700929 936.0327548091943 232.96322346941605 936.0327548091943 230.7540844700929 C 936.0327548091943 228.5449454707697 937.8236158098712 226.7540844700929 940.0327548091943 226.7540844700929 C 942.2418938085175 226.7540844700929 944.0327548091943 228.5449454707697 944.0327548091943 230.7540844700929 Z" fill-opacity="1"/><path fill="none" stroke="rgb(0,0,0)" paint-order="fill stroke markers" d=" M 944.0327548091943 230.7540844700929 C 944.0327548091943 232.96322346941605 942.2418938085175 234.7540844700929 940.0327548091943 234.7540844700929 C 937.8236158098712 234.7540844700929 936.0327548091943 232.96322346941605 936.0327548091943 230.7540844700929 C 936.0327548091943 228.5449454707697 937.8236158098712 226.7540844700929 940.0327548091943 226.7540844700929 C 942.2418938085175 226.7540844700929 944.0327548091943 228.5449454707697 944.0327548091943 230.7540844700929 Z" stroke-opacity="1" stroke-linecap="round" stroke-linejoin="round" stroke-miterlimit="10"/><text fill="rgb(97,97,97)" stroke="none" font-family="geogebra-sans-serif, sans-serif" font-size="16px" font-style="normal" font-weight="normal" text-decoration="normal" x="944" y="223" text-anchor="start" dominant-baseline="alphabetic" fill-opacity="1">C</text><text fill="none" stroke="rgb(255,255,255)" font-family="geogebra-sans-serif, sans-serif" font-size="16px" font-style="normal" font-weight="normal" text-decoration="normal" x="944" y="223" text-anchor="start" dominant-baseline="alphabetic" stroke-opacity="1" stroke-linejoin="bevel" stroke-miterlimit="10" stroke-width="3">C</text><text fill="rgb(97,97,97)" stroke="none" font-family="geogebra-sans-serif, sans-serif" font-size="16px" font-style="normal" font-weight="normal" text-decoration="normal" x="944" y="223" text-anchor="start" dominant-baseline="alphabetic" fill-opacity="1">C</text><path fill="rgb(97,97,97)" stroke="none" paint-order="stroke fill markers" d=" M 292.4286433147861 498.7447182015855 C 292.4286433147861 500.95385720090866 290.63778231410924 502.7447182015855 288.4286433147861 502.7447182015855 C 286.2195043154629 502.7447182015855 284.4286433147861 500.95385720090866 284.4286433147861 498.7447182015855 C 284.4286433147861 496.53557920226234 286.2195043154629 494.7447182015855 288.4286433147861 494.7447182015855 C 290.63778231410924 494.7447182015855 292.4286433147861 496.53557920226234 292.4286433147861 498.7447182015855 Z" fill-opacity="1"/><path fill="none" stroke="rgb(0,0,0)" paint-order="fill stroke markers" d=" M 292.4286433147861 498.7447182015855 C 292.4286433147861 500.95385720090866 290.63778231410924 502.7447182015855 288.4286433147861 502.7447182015855 C 286.2195043154629 502.7447182015855 284.4286433147861 500.95385720090866 284.4286433147861 498.7447182015855 C 284.4286433147861 496.53557920226234 286.2195043154629 494.7447182015855 288.4286433147861 494.7447182015855 C 290.63778231410924 494.7447182015855 292.4286433147861 496.53557920226234 292.4286433147861 498.7447182015855 Z" stroke-opacity="1" stroke-linecap="round" stroke-linejoin="round" stroke-miterlimit="10"/><text fill="rgb(97,97,97)" stroke="none" font-family="geogebra-sans-serif, sans-serif" font-size="16px" font-style="normal" font-weight="normal" text-decoration="normal" x="292" y="491" text-anchor="start" dominant-baseline="alphabetic" fill-opacity="1">E</text><text fill="none" stroke="rgb(255,255,255)" font-family="geogebra-sans-serif, sans-serif" font-size="16px" font-style="normal" font-weight="normal" text-decoration="normal" x="292" y="491" text-anchor="start" dominant-baseline="alphabetic" stroke-opacity="1" stroke-linejoin="bevel" stroke-miterlimit="10" stroke-width="3">E</text><text fill="rgb(97,97,97)" stroke="none" font-family="geogebra-sans-serif, sans-serif" font-size="16px" font-style="normal" font-weight="normal" text-decoration="normal" x="292" y="491" text-anchor="start" dominant-baseline="alphabetic" fill-opacity="1">E</text><path fill="rgb(97,97,97)" stroke="none" paint-order="stroke fill markers" d=" M 947.0182926151265 491.24225803768473 C 947.0182926151265 493.4513970370079 945.2274316144496 495.24225803768473 943.0182926151265 495.24225803768473 C 940.8091536158033 495.24225803768473 939.0182926151265 493.4513970370079 939.0182926151265 491.24225803768473 C 939.0182926151265 489.0331190383616 940.8091536158033 487.24225803768473 943.0182926151265 487.24225803768473 C 945.2274316144496 487.24225803768473 947.0182926151265 489.0331190383616 947.0182926151265 491.24225803768473 Z" fill-opacity="1"/><path fill="none" stroke="rgb(0,0,0)" paint-order="fill stroke markers" d=" M 947.0182926151265 491.24225803768473 C 947.0182926151265 493.4513970370079 945.2274316144496 495.24225803768473 943.0182926151265 495.24225803768473 C 940.8091536158033 495.24225803768473 939.0182926151265 493.4513970370079 939.0182926151265 491.24225803768473 C 939.0182926151265 489.0331190383616 940.8091536158033 487.24225803768473 943.0182926151265 487.24225803768473 C 945.2274316144496 487.24225803768473 947.0182926151265 489.0331190383616 947.0182926151265 491.24225803768473 Z" stroke-opacity="1" stroke-linecap="round" stroke-linejoin="round" stroke-miterlimit="10"/><text fill="rgb(97,97,97)" stroke="none" font-family="geogebra-sans-serif, sans-serif" font-size="16px" font-style="normal" font-weight="normal" text-decoration="normal" x="947" y="483" text-anchor="start" dominant-baseline="alphabetic" fill-opacity="1">F</text><text fill="none" stroke="rgb(255,255,255)" font-family="geogebra-sans-serif, sans-serif" font-size="16px" font-style="normal" font-weight="normal" text-decoration="normal" x="947" y="483" text-anchor="start" dominant-baseline="alphabetic" stroke-opacity="1" stroke-linejoin="bevel" stroke-miterlimit="10" stroke-width="3">F</text><text fill="rgb(97,97,97)" stroke="none" font-family="geogebra-sans-serif, sans-serif" font-size="16px" font-style="normal" font-weight="normal" text-decoration="normal" x="947" y="483" text-anchor="start" dominant-baseline="alphabetic" fill-opacity="1">F</text></g></g></svg>