<svg version="1.1" xmlns="http://www.w3.org/2000/svg" xmlns:xlink="http://www.w3.org/1999/xlink" width="1140" height="673"><defs><clipPath id="PdzBUsUsWQnP"><path fill="none" stroke="none" d=" M 0 0 L 1140 0 L 1140 673 L 0 673 L 0 0 Z"/></clipPath></defs><g transform="scale(1,1)" clip-path="url(#PdzBUsUsWQnP)"><g><rect fill="rgb(255,255,255)" stroke="none" x="0" y="0" width="1140" height="674" fill-opacity="1"/><path fill="none" stroke="rgb(97,97,97)" paint-order="fill stroke markers" d=" M 165.06907703078588 102.6115426673731 C 117.70086113593857 161.3028380589967 85.07460246528296 230.48311017664827 69.91907591947921 304.3663020874417" stroke-opacity="0.8" stroke-linecap="round" stroke-linejoin="round" stroke-miterlimit="10" stroke-width="2.5"/><path fill="rgb(0,0,0)" stroke="none" paint-order="stroke fill markers" fill-rule="evenodd" d=" M 532.664841963116 399.28851050664923 L 541.1044254044384 379.8264080678864 L 521.6423229656749 371.3868246265622 L 513.2027395243532 390.84892706532685 L 532.664841963116 399.28851050664923" fill-opacity="0.09803921568627451"/><path fill="none" stroke="rgb(0,0,0)" paint-order="fill stroke markers" d=" M 532.664841963116 399.28851050664923 L 541.1044254044384 379.8264080678864 L 521.6423229656749 371.3868246265622 L 513.2027395243532 390.84892706532685 L 532.664841963116 399.28851050664923" stroke-opacity="0.6" stroke-linecap="round" stroke-linejoin="round" stroke-miterlimit="10" stroke-width="2"/><path fill="rgb(0,0,0)" stroke="none" paint-order="stroke fill markers" fill-rule="evenodd" d=" M 574.5719447714672 302.6486308919152 L 555.1098423327044 294.20904745059283 L 546.6702588913802 313.6711498893564 L 566.1323613301448 322.11073333067804 L 574.5719447714672 302.6486308919152" fill-opacity="0.09803921568627451"/><path fill="none" stroke="rgb(0,0,0)" paint-order="fill stroke markers" d=" M 574.5719447714672 302.6486308919152 L 555.1098423327044 294.20904745059283 L 546.6702588913802 313.6711498893564 L 566.1323613301448 322.11073333067804 L 574.5719447714672 302.6486308919152" stroke-opacity="0.6" stroke-linecap="round" stroke-linejoin="round" stroke-miterlimit="10" stroke-width="2"/><path fill="rgb(0,0,0)" stroke="none" paint-order="stroke fill markers" fill-rule="evenodd" d=" M 797.4283511105178 211.35369821005597 L 776.2151476749228 211.35369821005597 L 776.2151476749214 232.5669016456524 L 797.4283511105178 232.56690164565097 L 797.4283511105178 211.35369821005597" fill-opacity="0.09803921568627451"/><path fill="none" stroke="rgb(0,0,0)" paint-order="fill stroke markers" d=" M 797.4283511105178 211.35369821005597 L 776.2151476749228 211.35369821005597 L 776.2151476749214 232.5669016456524 L 797.4283511105178 232.56690164565097 L 797.4283511105178 211.35369821005597" stroke-opacity="0.6" stroke-linecap="round" stroke-linejoin="round" stroke-miterlimit="10" stroke-width="2"/><path fill="rgb(0,0,0)" stroke="none" paint-order="stroke fill markers" fill-rule="evenodd" d=" M 532.664841963116 211.35369821005597 L 532.664841963116 232.56690164565097 L 553.8780453987124 232.5669016456524 L 553.878045398711 211.35369821005597 L 532.664841963116 211.35369821005597" fill-opacity="0.09803921568627451"/><path fill="none" stroke="rgb(0,0,0)" paint-order="fill stroke markers" d=" M 532.664841963116 211.35369821005597 L 532.664841963116 232.56690164565097 L 553.8780453987124 232.5669016456524 L 553.878045398711 211.35369821005597 L 532.664841963116 211.35369821005597" stroke-opacity="0.6" stroke-linecap="round" stroke-linejoin="round" stroke-miterlimit="10" stroke-width="2"/><path fill="none" stroke="rgb(0,204,0)" paint-order="fill stroke markers" d=" M 532.664841963116 399.28851050664923 L 797.4283511105178 399.28851050664923" stroke-opacity="0.8" stroke-linecap="round" stroke-linejoin="round" stroke-miterlimit="10" stroke-width="2.5"/><path fill="none" stroke="rgb(255,0,0)" paint-order="fill stroke markers" d=" M 99.27774482069299 211.35369821005597 L 532.664841963116 399.28851050664923" stroke-opacity="0.8" stroke-linecap="round" stroke-linejoin="round" stroke-miterlimit="10" stroke-width="2.5"/><path fill="none" stroke="rgb(255,0,0)" paint-order="fill stroke markers" d=" M 99.27774482069299 211.35369821005597 L 141.1848476290442 114.71381859532198" stroke-opacity="0.8" stroke-linecap="round" stroke-linejoin="round" stroke-miterlimit="10" stroke-width="2.5"/><path fill="none" stroke="rgb(255,0,0)" paint-order="fill stroke markers" d=" M 141.1848476290442 114.71381859532198 L 364.0412539680948 211.35369821005597" stroke-opacity="0.8" stroke-linecap="round" stroke-linejoin="round" stroke-miterlimit="10" stroke-width="2.5"/><path fill="none" stroke="rgb(255,0,0)" paint-order="fill stroke markers" d=" M 364.0412539680948 211.35369821005597 L 574.5719447714672 302.6486308919152" stroke-opacity="0.8" stroke-linecap="round" stroke-linejoin="round" stroke-miterlimit="10" stroke-width="2.5"/><path fill="none" stroke="rgb(97,97,97)" paint-order="fill stroke markers" d=" M 574.5719447714672 302.6486308919152 L 797.4283511105178 399.28851050664923" stroke-opacity="0.8" stroke-linecap="round" stroke-linejoin="round" stroke-miterlimit="10" stroke-width="2.5"/><path fill="none" stroke="rgb(0,204,0)" paint-order="fill stroke markers" d=" M 532.664841963116 399.28851050664923 L 532.664841963116 211.35369821005597" stroke-opacity="0.8" stroke-linecap="round" stroke-linejoin="round" stroke-miterlimit="10" stroke-width="2.5"/><path fill="none" stroke="rgb(0,204,0)" paint-order="fill stroke markers" d=" M 797.4283511105178 399.28851050664923 L 797.4283511105178 211.35369821005597" stroke-opacity="0.8" stroke-linecap="round" stroke-linejoin="round" stroke-miterlimit="10" stroke-width="2.5"/><path fill="none" stroke="rgb(255,0,0)" paint-order="fill stroke markers" d=" M 574.5719447714672 302.6486308919152 L 532.664841963116 399.28851050664923" stroke-opacity="0.8" stroke-linecap="round" stroke-linejoin="round" stroke-miterlimit="10" stroke-width="2.5"/><path fill="none" stroke="rgb(97,97,97)" paint-order="fill stroke markers" d=" M -3.954056040992782 211.35369821005597 L 532.664841963116 211.35369821005597" stroke-opacity="0.8" stroke-linecap="round" stroke-linejoin="round" stroke-miterlimit="10" stroke-width="2.5"/><path fill="none" stroke="rgb(0,204,0)" paint-order="fill stroke markers" d=" M 532.664841963116 211.35369821005597 L 797.4283511105178 211.35369821005597" stroke-opacity="0.8" stroke-linecap="round" stroke-linejoin="round" stroke-miterlimit="10" stroke-width="2.5"/><path fill="none" stroke="rgb(97,97,97)" paint-order="fill stroke markers" d=" M 797.4283511105178 211.35369821005597 L 1010.18474238968 211.35369821005597" stroke-opacity="0.8" stroke-linecap="round" stroke-linejoin="round" stroke-miterlimit="10" stroke-width="2.5"/><path fill="none" stroke="rgb(97,97,97)" paint-order="fill stroke markers" d=" M 652.7265311210532 395.44225527697165 L 652.3569649795564 404.31184267289296" stroke-opacity="0.8" stroke-linecap="round" stroke-linejoin="round" stroke-miterlimit="10" stroke-width="2.5"/><path fill="none" stroke="rgb(97,97,97)" paint-order="fill stroke markers" d=" M 236.13852676363683 205.91342216927933 L 235.76896062214013 215.89170798969076" stroke-opacity="0.8" stroke-linecap="round" stroke-linejoin="round" stroke-miterlimit="10" stroke-width="2.5"/><path fill="none" stroke="rgb(97,97,97)" paint-order="fill stroke markers" d=" M 231.13917723664304 205.91342216927933 L 230.76961109514627 214.7830095652006" stroke-opacity="0.8" stroke-linecap="round" stroke-linejoin="round" stroke-miterlimit="10" stroke-width="2.5"/><path fill="none" stroke="rgb(97,97,97)" paint-order="fill stroke markers" d=" M 648.5406772039555 395.1133596599841 L 648.1711110624589 405.09164548039547" stroke-opacity="0.8" stroke-linecap="round" stroke-linejoin="round" stroke-miterlimit="10" stroke-width="2.5"/><path fill="none" stroke="rgb(97,97,97)" paint-order="fill stroke markers" d=" M 116.84834068488476 160.15678914764604 L 122.72819068630542 164.56354041942936" stroke-opacity="0.8" stroke-linecap="round" stroke-linejoin="round" stroke-miterlimit="10" stroke-width="2.5"/><path fill="none" stroke="rgb(97,97,97)" paint-order="fill stroke markers" d=" M 116.84834068488476 160.15678914764604 L 122.72819068630542 164.56354041942936" stroke-opacity="0.8" stroke-linecap="round" stroke-linejoin="round" stroke-miterlimit="10" stroke-width="2.5"/><path fill="none" stroke="rgb(97,97,97)" paint-order="fill stroke markers" d=" M 116.84834068488476 160.15678914764604 L 122.72819068630542 164.56354041942936" stroke-opacity="0.8" stroke-linecap="round" stroke-linejoin="round" stroke-miterlimit="10" stroke-width="2.5"/><path fill="none" stroke="rgb(97,97,97)" paint-order="fill stroke markers" d=" M 116.84834068488476 160.15678914764604 L 122.72819068630542 164.56354041942936" stroke-opacity="0.8" stroke-linecap="round" stroke-linejoin="round" stroke-miterlimit="10" stroke-width="2.5"/><path fill="none" stroke="rgb(97,97,97)" paint-order="fill stroke markers" d=" M 116.84834068488476 160.15678914764604 L 122.72819068630542 164.56354041942936" stroke-opacity="0.8" stroke-linecap="round" stroke-linejoin="round" stroke-miterlimit="10" stroke-width="2.5"/><path fill="none" stroke="rgb(97,97,97)" paint-order="fill stroke markers" d=" M 547.6156311517001 352.19709909245626 L 557.6090605744213 357.86004243199824" stroke-opacity="0.8" stroke-linecap="round" stroke-linejoin="round" stroke-miterlimit="10" stroke-width="2.5"/><path fill="rgb(21,101,192)" stroke="none" paint-order="stroke fill markers" d=" M 543.664841963116 399.28851050664923 C 543.664841963116 405.363642754788 538.7399742112548 410.28851050664923 532.664841963116 410.28851050664923 C 526.5897097149773 410.28851050664923 521.664841963116 405.363642754788 521.664841963116 399.28851050664923 C 521.664841963116 393.2133782585105 526.5897097149773 388.28851050664923 532.664841963116 388.28851050664923 C 538.7399742112548 388.28851050664923 543.664841963116 393.2133782585105 543.664841963116 399.28851050664923 Z" fill-opacity="0.2"/><path fill="none" stroke="rgb(21,101,192)" paint-order="fill stroke markers" d=" M 543.664841963116 399.28851050664923 C 543.664841963116 405.363642754788 538.7399742112548 410.28851050664923 532.664841963116 410.28851050664923 C 526.5897097149773 410.28851050664923 521.664841963116 405.363642754788 521.664841963116 399.28851050664923 C 521.664841963116 393.2133782585105 526.5897097149773 388.28851050664923 532.664841963116 388.28851050664923 C 538.7399742112548 388.28851050664923 543.664841963116 393.2133782585105 543.664841963116 399.28851050664923 Z" stroke-opacity="1" stroke-linecap="square" stroke-miterlimit="10" stroke-width="2"/><path fill="rgb(21,101,192)" stroke="none" paint-order="stroke fill markers" d=" M 537.664841963116 399.28851050664923 C 537.664841963116 402.0499342558032 535.42626571227 404.28851050664923 532.664841963116 404.28851050664923 C 529.903418213962 404.28851050664923 527.664841963116 402.0499342558032 527.664841963116 399.28851050664923 C 527.664841963116 396.5270867574953 529.903418213962 394.28851050664923 532.664841963116 394.28851050664923 C 535.42626571227 394.28851050664923 537.664841963116 396.5270867574953 537.664841963116 399.28851050664923 Z" fill-opacity="1"/><path fill="none" stroke="rgb(0,0,0)" paint-order="fill stroke markers" d=" M 537.664841963116 399.28851050664923 C 537.664841963116 402.0499342558032 535.42626571227 404.28851050664923 532.664841963116 404.28851050664923 C 529.903418213962 404.28851050664923 527.664841963116 402.0499342558032 527.664841963116 399.28851050664923 C 527.664841963116 396.5270867574953 529.903418213962 394.28851050664923 532.664841963116 394.28851050664923 C 535.42626571227 394.28851050664923 537.664841963116 396.5270867574953 537.664841963116 399.28851050664923 Z" stroke-opacity="1" stroke-linecap="round" stroke-linejoin="round" stroke-miterlimit="10"/><text fill="rgb(21,101,192)" stroke="none" font-family="geogebra-sans-serif, sans-serif" font-size="16px" font-style="normal" font-weight="normal" text-decoration="normal" x="537" y="389" text-anchor="start" dominant-baseline="alphabetic" fill-opacity="1">A</text><text fill="none" stroke="rgb(255,255,255)" font-family="geogebra-sans-serif, sans-serif" font-size="16px" font-style="normal" font-weight="normal" text-decoration="normal" x="537" y="389" text-anchor="start" dominant-baseline="alphabetic" stroke-opacity="1" stroke-linejoin="bevel" stroke-miterlimit="10" stroke-width="3">A</text><text fill="rgb(21,101,192)" stroke="none" font-family="geogebra-sans-serif, sans-serif" font-size="16px" font-style="normal" font-weight="normal" text-decoration="normal" x="537" y="389" text-anchor="start" dominant-baseline="alphabetic" fill-opacity="1">A</text><path fill="rgb(21,101,192)" stroke="none" paint-order="stroke fill markers" d=" M 802.4283511105178 399.28851050664923 C 802.4283511105178 402.0499342558032 800.1897748596718 404.28851050664923 797.4283511105178 404.28851050664923 C 794.6669273613638 404.28851050664923 792.4283511105178 402.0499342558032 792.4283511105178 399.28851050664923 C 792.4283511105178 396.5270867574953 794.6669273613638 394.28851050664923 797.4283511105178 394.28851050664923 C 800.1897748596718 394.28851050664923 802.4283511105178 396.5270867574953 802.4283511105178 399.28851050664923 Z" fill-opacity="1"/><path fill="none" stroke="rgb(0,0,0)" paint-order="fill stroke markers" d=" M 802.4283511105178 399.28851050664923 C 802.4283511105178 402.0499342558032 800.1897748596718 404.28851050664923 797.4283511105178 404.28851050664923 C 794.6669273613638 404.28851050664923 792.4283511105178 402.0499342558032 792.4283511105178 399.28851050664923 C 792.4283511105178 396.5270867574953 794.6669273613638 394.28851050664923 797.4283511105178 394.28851050664923 C 800.1897748596718 394.28851050664923 802.4283511105178 396.5270867574953 802.4283511105178 399.28851050664923 Z" stroke-opacity="1" stroke-linecap="round" stroke-linejoin="round" stroke-miterlimit="10"/><text fill="rgb(21,101,192)" stroke="none" font-family="geogebra-sans-serif, sans-serif" font-size="16px" font-style="normal" font-weight="normal" text-decoration="normal" x="801" y="389" text-anchor="start" dominant-baseline="alphabetic" fill-opacity="1">B</text><text fill="none" stroke="rgb(255,255,255)" font-family="geogebra-sans-serif, sans-serif" font-size="16px" font-style="normal" font-weight="normal" text-decoration="normal" x="801" y="389" text-anchor="start" dominant-baseline="alphabetic" stroke-opacity="1" stroke-linejoin="bevel" stroke-miterlimit="10" stroke-width="3">B</text><text fill="rgb(21,101,192)" stroke="none" font-family="geogebra-sans-serif, sans-serif" font-size="16px" font-style="normal" font-weight="normal" text-decoration="normal" x="801" y="389" text-anchor="start" dominant-baseline="alphabetic" fill-opacity="1">B</text><path fill="rgb(97,97,97)" stroke="none" paint-order="stroke fill markers" d=" M 536.664841963116 211.35369821005597 C 536.664841963116 213.56283720937915 534.8739809624392 215.35369821005597 532.664841963116 215.35369821005597 C 530.4557029637929 215.35369821005597 528.664841963116 213.56283720937915 528.664841963116 211.35369821005597 C 528.664841963116 209.14455921073278 530.4557029637929 207.35369821005597 532.664841963116 207.35369821005597 C 534.8739809624392 207.35369821005597 536.664841963116 209.14455921073278 536.664841963116 211.35369821005597 Z" fill-opacity="1"/><path fill="none" stroke="rgb(0,0,0)" paint-order="fill stroke markers" d=" M 536.664841963116 211.35369821005597 C 536.664841963116 213.56283720937915 534.8739809624392 215.35369821005597 532.664841963116 215.35369821005597 C 530.4557029637929 215.35369821005597 528.664841963116 213.56283720937915 528.664841963116 211.35369821005597 C 528.664841963116 209.14455921073278 530.4557029637929 207.35369821005597 532.664841963116 207.35369821005597 C 534.8739809624392 207.35369821005597 536.664841963116 209.14455921073278 536.664841963116 211.35369821005597 Z" stroke-opacity="1" stroke-linecap="round" stroke-linejoin="round" stroke-miterlimit="10"/><text fill="rgb(97,97,97)" stroke="none" font-family="geogebra-sans-serif, sans-serif" font-size="16px" font-style="normal" font-weight="normal" text-decoration="normal" x="537" y="203" text-anchor="start" dominant-baseline="alphabetic" fill-opacity="1">D</text><text fill="none" stroke="rgb(255,255,255)" font-family="geogebra-sans-serif, sans-serif" font-size="16px" font-style="normal" font-weight="normal" text-decoration="normal" x="537" y="203" text-anchor="start" dominant-baseline="alphabetic" stroke-opacity="1" stroke-linejoin="bevel" stroke-miterlimit="10" stroke-width="3">D</text><text fill="rgb(97,97,97)" stroke="none" font-family="geogebra-sans-serif, sans-serif" font-size="16px" font-style="normal" font-weight="normal" text-decoration="normal" x="537" y="203" text-anchor="start" dominant-baseline="alphabetic" fill-opacity="1">D</text><path fill="rgb(97,97,97)" stroke="none" paint-order="stroke fill markers" d=" M 801.4283511105178 211.35369821005597 C 801.4283511105178 213.56283720937915 799.637490109841 215.35369821005597 797.4283511105178 215.35369821005597 C 795.2192121111947 215.35369821005597 793.4283511105178 213.56283720937915 793.4283511105178 211.35369821005597 C 793.4283511105178 209.14455921073278 795.2192121111947 207.35369821005597 797.4283511105178 207.35369821005597 C 799.637490109841 207.35369821005597 801.4283511105178 209.14455921073278 801.4283511105178 211.35369821005597 Z" fill-opacity="1"/><path fill="none" stroke="rgb(0,0,0)" paint-order="fill stroke markers" d=" M 801.4283511105178 211.35369821005597 C 801.4283511105178 213.56283720937915 799.637490109841 215.35369821005597 797.4283511105178 215.35369821005597 C 795.2192121111947 215.35369821005597 793.4283511105178 213.56283720937915 793.4283511105178 211.35369821005597 C 793.4283511105178 209.14455921073278 795.2192121111947 207.35369821005597 797.4283511105178 207.35369821005597 C 799.637490109841 207.35369821005597 801.4283511105178 209.14455921073278 801.4283511105178 211.35369821005597 Z" stroke-opacity="1" stroke-linecap="round" stroke-linejoin="round" stroke-miterlimit="10"/><text fill="rgb(97,97,97)" stroke="none" font-family="geogebra-sans-serif, sans-serif" font-size="16px" font-style="normal" font-weight="normal" text-decoration="normal" x="801" y="203" text-anchor="start" dominant-baseline="alphabetic" fill-opacity="1">C</text><text fill="none" stroke="rgb(255,255,255)" font-family="geogebra-sans-serif, sans-serif" font-size="16px" font-style="normal" font-weight="normal" text-decoration="normal" x="801" y="203" text-anchor="start" dominant-baseline="alphabetic" stroke-opacity="1" stroke-linejoin="bevel" stroke-miterlimit="10" stroke-width="3">C</text><text fill="rgb(97,97,97)" stroke="none" font-family="geogebra-sans-serif, sans-serif" font-size="16px" font-style="normal" font-weight="normal" text-decoration="normal" x="801" y="203" text-anchor="start" dominant-baseline="alphabetic" fill-opacity="1">C</text><path fill="rgb(97,97,97)" stroke="none" paint-order="stroke fill markers" d=" M 103.27774482069299 211.35369821005597 C 103.27774482069299 213.56283720937915 101.48688382001616 215.35369821005597 99.27774482069299 215.35369821005597 C 97.06860582136981 215.35369821005597 95.27774482069299 213.56283720937915 95.27774482069299 211.35369821005597 C 95.27774482069299 209.14455921073278 97.06860582136981 207.35369821005597 99.27774482069299 207.35369821005597 C 101.48688382001616 207.35369821005597 103.27774482069299 209.14455921073278 103.27774482069299 211.35369821005597 Z" fill-opacity="1"/><path fill="none" stroke="rgb(0,0,0)" paint-order="fill stroke markers" d=" M 103.27774482069299 211.35369821005597 C 103.27774482069299 213.56283720937915 101.48688382001616 215.35369821005597 99.27774482069299 215.35369821005597 C 97.06860582136981 215.35369821005597 95.27774482069299 213.56283720937915 95.27774482069299 211.35369821005597 C 95.27774482069299 209.14455921073278 97.06860582136981 207.35369821005597 99.27774482069299 207.35369821005597 C 101.48688382001616 207.35369821005597 103.27774482069299 209.14455921073278 103.27774482069299 211.35369821005597 Z" stroke-opacity="1" stroke-linecap="round" stroke-linejoin="round" stroke-miterlimit="10"/><text fill="rgb(97,97,97)" stroke="none" font-family="geogebra-sans-serif, sans-serif" font-size="16px" font-style="normal" font-weight="normal" text-decoration="normal" x="103" y="203" text-anchor="start" dominant-baseline="alphabetic" fill-opacity="1">K</text><text fill="none" stroke="rgb(255,255,255)" font-family="geogebra-sans-serif, sans-serif" font-size="16px" font-style="normal" font-weight="normal" text-decoration="normal" x="103" y="203" text-anchor="start" dominant-baseline="alphabetic" stroke-opacity="1" stroke-linejoin="bevel" stroke-miterlimit="10" stroke-width="3">K</text><text fill="rgb(97,97,97)" stroke="none" font-family="geogebra-sans-serif, sans-serif" font-size="16px" font-style="normal" font-weight="normal" text-decoration="normal" x="103" y="203" text-anchor="start" dominant-baseline="alphabetic" fill-opacity="1">K</text><path fill="rgb(97,97,97)" stroke="none" paint-order="stroke fill markers" d=" M 368.0412539680948 211.35369821005597 C 368.0412539680948 213.56283720937915 366.25039296741795 215.35369821005597 364.0412539680948 215.35369821005597 C 361.83211496877163 215.35369821005597 360.0412539680948 213.56283720937915 360.0412539680948 211.35369821005597 C 360.0412539680948 209.14455921073278 361.83211496877163 207.35369821005597 364.0412539680948 207.35369821005597 C 366.25039296741795 207.35369821005597 368.0412539680948 209.14455921073278 368.0412539680948 211.35369821005597 Z" fill-opacity="1"/><path fill="none" stroke="rgb(0,0,0)" paint-order="fill stroke markers" d=" M 368.0412539680948 211.35369821005597 C 368.0412539680948 213.56283720937915 366.25039296741795 215.35369821005597 364.0412539680948 215.35369821005597 C 361.83211496877163 215.35369821005597 360.0412539680948 213.56283720937915 360.0412539680948 211.35369821005597 C 360.0412539680948 209.14455921073278 361.83211496877163 207.35369821005597 364.0412539680948 207.35369821005597 C 366.25039296741795 207.35369821005597 368.0412539680948 209.14455921073278 368.0412539680948 211.35369821005597 Z" stroke-opacity="1" stroke-linecap="round" stroke-linejoin="round" stroke-miterlimit="10"/><text fill="rgb(97,97,97)" stroke="none" font-family="geogebra-sans-serif, sans-serif" font-size="16px" font-style="normal" font-weight="normal" text-decoration="normal" x="368" y="203" text-anchor="start" dominant-baseline="alphabetic" fill-opacity="1">H</text><text fill="none" stroke="rgb(255,255,255)" font-family="geogebra-sans-serif, sans-serif" font-size="16px" font-style="normal" font-weight="normal" text-decoration="normal" x="368" y="203" text-anchor="start" dominant-baseline="alphabetic" stroke-opacity="1" stroke-linejoin="bevel" stroke-miterlimit="10" stroke-width="3">H</text><text fill="rgb(97,97,97)" stroke="none" font-family="geogebra-sans-serif, sans-serif" font-size="16px" font-style="normal" font-weight="normal" text-decoration="normal" x="368" y="203" text-anchor="start" dominant-baseline="alphabetic" fill-opacity="1">H</text><path fill="rgb(97,97,97)" stroke="none" paint-order="stroke fill markers" d=" M 145.1848476290442 114.71381859532198 C 145.1848476290442 116.92295759464515 143.39398662836737 118.71381859532198 141.1848476290442 118.71381859532198 C 138.97570862972103 118.71381859532198 137.1848476290442 116.92295759464515 137.1848476290442 114.71381859532198 C 137.1848476290442 112.50467959599881 138.97570862972103 110.71381859532198 141.1848476290442 110.71381859532198 C 143.39398662836737 110.71381859532198 145.1848476290442 112.50467959599881 145.1848476290442 114.71381859532198 Z" fill-opacity="1"/><path fill="none" stroke="rgb(0,0,0)" paint-order="fill stroke markers" d=" M 145.1848476290442 114.71381859532198 C 145.1848476290442 116.92295759464515 143.39398662836737 118.71381859532198 141.1848476290442 118.71381859532198 C 138.97570862972103 118.71381859532198 137.1848476290442 116.92295759464515 137.1848476290442 114.71381859532198 C 137.1848476290442 112.50467959599881 138.97570862972103 110.71381859532198 141.1848476290442 110.71381859532198 C 143.39398662836737 110.71381859532198 145.1848476290442 112.50467959599881 145.1848476290442 114.71381859532198 Z" stroke-opacity="1" stroke-linecap="round" stroke-linejoin="round" stroke-miterlimit="10"/><text fill="rgb(97,97,97)" stroke="none" font-family="geogebra-sans-serif, sans-serif" font-size="16px" font-style="normal" font-weight="normal" text-decoration="normal" x="145" y="107" text-anchor="start" dominant-baseline="alphabetic" fill-opacity="1">M</text><text fill="none" stroke="rgb(255,255,255)" font-family="geogebra-sans-serif, sans-serif" font-size="16px" font-style="normal" font-weight="normal" text-decoration="normal" x="145" y="107" text-anchor="start" dominant-baseline="alphabetic" stroke-opacity="1" stroke-linejoin="bevel" stroke-miterlimit="10" stroke-width="3">M</text><text fill="rgb(97,97,97)" stroke="none" font-family="geogebra-sans-serif, sans-serif" font-size="16px" font-style="normal" font-weight="normal" text-decoration="normal" x="145" y="107" text-anchor="start" dominant-baseline="alphabetic" fill-opacity="1">M</text><path fill="rgb(97,97,97)" stroke="none" paint-order="stroke fill markers" d=" M 578.5719447714672 302.6486308919152 C 578.5719447714672 304.8577698912384 576.7810837707904 306.6486308919152 574.5719447714672 306.6486308919152 C 572.362805772144 306.6486308919152 570.5719447714672 304.8577698912384 570.5719447714672 302.6486308919152 C 570.5719447714672 300.43949189259206 572.362805772144 298.6486308919152 574.5719447714672 298.6486308919152 C 576.7810837707904 298.6486308919152 578.5719447714672 300.43949189259206 578.5719447714672 302.6486308919152 Z" fill-opacity="1"/><path fill="none" stroke="rgb(0,0,0)" paint-order="fill stroke markers" d=" M 578.5719447714672 302.6486308919152 C 578.5719447714672 304.8577698912384 576.7810837707904 306.6486308919152 574.5719447714672 306.6486308919152 C 572.362805772144 306.6486308919152 570.5719447714672 304.8577698912384 570.5719447714672 302.6486308919152 C 570.5719447714672 300.43949189259206 572.362805772144 298.6486308919152 574.5719447714672 298.6486308919152 C 576.7810837707904 298.6486308919152 578.5719447714672 300.43949189259206 578.5719447714672 302.6486308919152 Z" stroke-opacity="1" stroke-linecap="round" stroke-linejoin="round" stroke-miterlimit="10"/><text fill="rgb(97,97,97)" stroke="none" font-family="geogebra-sans-serif, sans-serif" font-size="16px" font-style="normal" font-weight="normal" text-decoration="normal" x="579" y="295" text-anchor="start" dominant-baseline="alphabetic" fill-opacity="1">N</text><text fill="none" stroke="rgb(255,255,255)" font-family="geogebra-sans-serif, sans-serif" font-size="16px" font-style="normal" font-weight="normal" text-decoration="normal" x="579" y="295" text-anchor="start" dominant-baseline="alphabetic" stroke-opacity="1" stroke-linejoin="bevel" stroke-miterlimit="10" stroke-width="3">N</text><text fill="rgb(97,97,97)" stroke="none" font-family="geogebra-sans-serif, sans-serif" font-size="16px" font-style="normal" font-weight="normal" text-decoration="normal" x="579" y="295" text-anchor="start" dominant-baseline="alphabetic" fill-opacity="1">N</text></g></g></svg>