<svg width="679" height="443" viewBox="0 0 679 443" fill="none" xmlns="http://www.w3.org/2000/svg">
<g clip-path="url(#clip0_358_80)">
<path d="M679 0H0V443H679V0Z" fill="white"/>
<path d="M225.282 196.761C225.206 209.023 232.601 220.097 243.956 224.726L255.281 196.946L225.282 196.761Z" fill="black" fill-opacity="0.0980392"/>
<path d="M225.282 196.761C225.206 209.023 232.601 220.097 243.956 224.726L255.281 196.946L225.282 196.761Z" stroke="black" stroke-opacity="0.6" stroke-width="2" stroke-miterlimit="10" stroke-linecap="round" stroke-linejoin="round"/>
<path d="M285.281 197.13C285.356 184.868 277.962 173.795 266.607 169.166L255.281 196.946L285.281 197.13Z" fill="black" fill-opacity="0.0980392"/>
<path d="M285.281 197.13C285.356 184.868 277.962 173.795 266.607 169.166L255.281 196.946L285.281 197.13Z" stroke="black" stroke-opacity="0.6" stroke-width="2" stroke-miterlimit="10" stroke-linecap="round" stroke-linejoin="round"/>
<path d="M189.012 359.496L595.386 361.996" stroke="#616161" stroke-opacity="0.8" stroke-width="2.5" stroke-miterlimit="10" stroke-linecap="round" stroke-linejoin="round"/>
<path d="M189.012 359.496L321.552 34.396" stroke="#616161" stroke-opacity="0.8" stroke-width="2.5" stroke-miterlimit="10" stroke-linecap="round" stroke-linejoin="round"/>
<path d="M595.387 361.996L321.553 34.396" stroke="#616161" stroke-opacity="0.8" stroke-width="2.5" stroke-miterlimit="10" stroke-linecap="round" stroke-linejoin="round"/>
<path d="M255.281 196.946L458.469 198.196" stroke="#616161" stroke-opacity="0.8" stroke-width="2.5" stroke-miterlimit="10" stroke-linecap="round" stroke-linejoin="round"/>
<path d="M255.281 196.946L52.0938 195.695" stroke="#616161" stroke-opacity="0.8" stroke-width="2.5" stroke-miterlimit="10" stroke-linecap="round" stroke-linejoin="round"/>
<path d="M52.0938 195.695L189.011 359.496" stroke="#616161" stroke-opacity="0.8" stroke-width="2.5" stroke-miterlimit="10" stroke-linecap="round" stroke-linejoin="round"/>
<path d="M150.373 185.817L148.998 209.2" stroke="#616161" stroke-opacity="0.8" stroke-width="2.5" stroke-miterlimit="10" stroke-linecap="round" stroke-linejoin="round"/>
<path d="M349.678 185.123L349.012 207.115" stroke="#616161" stroke-opacity="0.8" stroke-width="2.5" stroke-miterlimit="10" stroke-linecap="round" stroke-linejoin="round"/>
<path d="M204.93 290.747L224.78 302.239" stroke="#616161" stroke-opacity="0.8" stroke-width="2.5" stroke-miterlimit="10" stroke-linecap="round" stroke-linejoin="round"/>
<path d="M228.432 292.963L209.949 282.128" stroke="#616161" stroke-opacity="0.8" stroke-width="2.5" stroke-miterlimit="10" stroke-linecap="round" stroke-linejoin="round"/>
<path d="M287.702 131.72L274.318 125.984" stroke="#616161" stroke-opacity="0.8" stroke-width="2.5" stroke-miterlimit="10" stroke-linecap="round" stroke-linejoin="round"/>
<path d="M293.121 119.612L277.188 113.238" stroke="#616161" stroke-opacity="0.8" stroke-width="2.5" stroke-miterlimit="10" stroke-linecap="round" stroke-linejoin="round"/>
<path d="M388.081 103.678L376.928 112.282" stroke="#616161" stroke-opacity="0.8" stroke-width="2.5" stroke-miterlimit="10" stroke-linecap="round" stroke-linejoin="round"/>
<path d="M398.597 110.052L384.576 120.886" stroke="#616161" stroke-opacity="0.8" stroke-width="2.5" stroke-miterlimit="10" stroke-linecap="round" stroke-linejoin="round"/>
<path d="M403.058 118.337L391.586 127.578" stroke="#616161" stroke-opacity="0.8" stroke-width="2.5" stroke-miterlimit="10" stroke-linecap="round" stroke-linejoin="round"/>
<path d="M527.018 266.514L512.678 277.986" stroke="#616161" stroke-opacity="0.8" stroke-width="2.5" stroke-miterlimit="10" stroke-linecap="round" stroke-linejoin="round"/>
<path d="M537.852 277.03L523.193 288.183" stroke="#616161" stroke-opacity="0.8" stroke-width="2.5" stroke-miterlimit="10" stroke-linecap="round" stroke-linejoin="round"/>
<path d="M544.862 286.271L529.248 295.831" stroke="#616161" stroke-opacity="0.8" stroke-width="2.5" stroke-miterlimit="10" stroke-linecap="round" stroke-linejoin="round"/>
<path d="M200.012 359.496C200.012 365.571 195.087 370.496 189.012 370.496C182.937 370.496 178.012 365.571 178.012 359.496C178.012 353.42 182.937 348.496 189.012 348.496C195.087 348.496 200.012 353.42 200.012 359.496Z" fill="#1565C0" fill-opacity="0.2"/>
<path d="M200.012 359.496C200.012 365.571 195.087 370.496 189.012 370.496C182.937 370.496 178.012 365.571 178.012 359.496C178.012 353.42 182.937 348.496 189.012 348.496C195.087 348.496 200.012 353.42 200.012 359.496Z" stroke="#1565C0" stroke-width="2" stroke-miterlimit="10" stroke-linecap="square"/>
<path d="M194.012 359.496C194.012 362.257 191.773 364.496 189.012 364.496C186.25 364.496 184.012 362.257 184.012 359.496C184.012 356.734 186.25 354.496 189.012 354.496C191.773 354.496 194.012 356.734 194.012 359.496Z" fill="#1565C0"/>
<path d="M194.012 359.496C194.012 362.257 191.773 364.496 189.012 364.496C186.25 364.496 184.012 362.257 184.012 359.496C184.012 356.734 186.25 354.496 189.012 354.496C191.773 354.496 194.012 356.734 194.012 359.496Z" stroke="black" stroke-miterlimit="10" stroke-linecap="round" stroke-linejoin="round"/>
<path d="M194.886 348.5H193.409L197.682 336.864H199.136L203.409 348.5H201.932L198.455 338.705H198.364L194.886 348.5ZM195.432 343.955H201.386V345.205H195.432V343.955Z" fill="#1565C0"/>
<path d="M194.886 348.5V350L196.3 349.002L194.886 348.5ZM193.409 348.5L192.001 347.983L193.409 350V348.5ZM197.682 336.864V335.364L196.274 336.347L197.682 336.864ZM199.136 336.864L200.544 336.347L199.136 335.364V336.864ZM203.409 348.5V350L204.817 347.983L203.409 348.5ZM201.932 348.5L200.518 349.002L201.932 350V348.5ZM198.455 338.705L199.868 338.203L198.455 337.205V338.705ZM198.364 338.705V337.205L196.95 338.203L198.364 338.705ZM195.432 343.955V342.455L193.932 343.955H195.432ZM201.386 343.955H202.886L201.386 342.455V343.955ZM201.386 345.205V346.705L202.886 345.205H201.386ZM195.432 345.205H193.932L195.432 346.705V345.205ZM194.886 347H193.409V350H194.886V347ZM194.817 349.017L199.09 337.381L196.274 336.347L192.001 347.983L194.817 349.017ZM197.682 338.364H199.136V335.364H197.682V338.364ZM197.728 337.381L202.001 349.017L204.817 347.983L200.544 336.347L197.728 337.381ZM203.409 347H201.932V350H203.409V347ZM203.345 347.998L199.868 338.203L197.041 339.206L200.518 349.002L203.345 347.998ZM198.455 337.205H198.364V340.205H198.455V337.205ZM196.95 338.203L193.473 347.998L196.3 349.002L199.777 339.206L196.95 338.203ZM195.432 345.455H201.386V342.455H195.432V345.455ZM199.886 343.955V345.205H202.886V343.955H199.886ZM201.386 343.705H195.432V346.705H201.386V343.705ZM196.932 345.205V343.955H193.932V345.205H196.932Z" fill="white"/>
<path d="M194.886 348.5H193.409L197.682 336.864H199.136L203.409 348.5H201.932L198.455 338.705H198.364L194.886 348.5ZM195.432 343.955H201.386V345.205H195.432V343.955Z" fill="#1565C0"/>
<path d="M600.387 361.996C600.387 364.758 598.148 366.996 595.387 366.996C592.625 366.996 590.387 364.758 590.387 361.996C590.387 359.235 592.625 356.996 595.387 356.996C598.148 356.996 600.387 359.235 600.387 361.996Z" fill="#1565C0"/>
<path d="M600.387 361.996C600.387 364.758 598.148 366.996 595.387 366.996C592.625 366.996 590.387 364.758 590.387 361.996C590.387 359.235 592.625 356.996 595.387 356.996C598.148 356.996 600.387 359.235 600.387 361.996Z" stroke="black" stroke-miterlimit="10" stroke-linecap="round" stroke-linejoin="round"/>
<path d="M600.409 350.5V338.864H604.477C605.288 338.864 605.956 339.004 606.483 339.284C607.009 339.561 607.402 339.934 607.659 340.403C607.917 340.869 608.045 341.386 608.045 341.955C608.045 342.455 607.956 342.867 607.778 343.193C607.604 343.519 607.373 343.777 607.085 343.966C606.801 344.155 606.492 344.295 606.159 344.386V344.5C606.515 344.523 606.873 344.648 607.233 344.875C607.593 345.102 607.894 345.428 608.136 345.852C608.379 346.277 608.5 346.795 608.5 347.409C608.5 347.992 608.367 348.517 608.102 348.983C607.837 349.449 607.419 349.818 606.847 350.091C606.275 350.364 605.53 350.5 604.614 350.5H600.409ZM601.818 349.25H604.614C605.534 349.25 606.188 349.072 606.574 348.716C606.964 348.356 607.159 347.92 607.159 347.409C607.159 347.015 607.059 346.652 606.858 346.318C606.657 345.981 606.371 345.712 606 345.511C605.629 345.307 605.189 345.205 604.682 345.205H601.818V349.25ZM601.818 343.977H604.432C604.856 343.977 605.239 343.894 605.58 343.727C605.924 343.561 606.197 343.326 606.398 343.023C606.602 342.72 606.705 342.364 606.705 341.955C606.705 341.443 606.527 341.009 606.17 340.653C605.814 340.294 605.25 340.114 604.477 340.114H601.818V343.977Z" fill="#1565C0"/>
<path d="M600.409 350.5H598.909L600.409 352V350.5ZM600.409 338.864V337.364L598.909 338.864H600.409ZM606.483 339.284L605.778 340.608L605.786 340.612L606.483 339.284ZM607.659 340.403L606.344 341.125L606.346 341.129L607.659 340.403ZM607.778 343.193L606.462 342.474L606.456 342.486L607.778 343.193ZM607.085 343.966L606.261 342.713L606.253 342.718L607.085 343.966ZM606.159 344.386L605.764 342.939L604.659 344.386H606.159ZM606.159 344.5H604.659L606.064 345.997L606.159 344.5ZM607.233 344.875L606.432 346.143L606.432 346.143L607.233 344.875ZM608.102 348.983L609.406 349.725L609.406 349.725L608.102 348.983ZM606.847 350.091L606.201 348.737L606.201 348.737L606.847 350.091ZM601.818 349.25H600.318L601.818 350.75V349.25ZM606.574 348.716L607.59 349.819L607.591 349.819L606.574 348.716ZM606.858 346.318L605.569 347.086L605.573 347.092L606.858 346.318ZM606 345.511L605.276 346.825L605.286 346.831L606 345.511ZM601.818 345.205V343.705L600.318 345.205H601.818ZM601.818 343.977H600.318L601.818 345.477V343.977ZM605.58 343.727L604.927 342.377L604.921 342.38L605.58 343.727ZM606.398 343.023L605.154 342.183L605.147 342.194L606.398 343.023ZM606.17 340.653L605.104 341.708L605.11 341.714L606.17 340.653ZM601.818 340.114V338.614L600.318 340.114H601.818ZM601.909 350.5V338.864H598.909V350.5H601.909ZM600.409 340.364H604.477V337.364H600.409V340.364ZM604.477 340.364C605.126 340.364 605.532 340.477 605.778 340.608L607.188 337.96C606.381 337.53 605.45 337.364 604.477 337.364V340.364ZM605.786 340.612C606.081 340.767 606.243 340.942 606.344 341.125L608.974 339.682C608.56 338.926 607.938 338.354 607.18 337.956L605.786 340.612ZM606.346 341.129C606.473 341.358 606.545 341.623 606.545 341.955H609.545C609.545 341.15 609.36 340.381 608.972 339.678L606.346 341.129ZM606.545 341.955C606.545 342.287 606.485 342.432 606.462 342.474L609.095 343.913C609.428 343.303 609.545 342.622 609.545 341.955H606.545ZM606.456 342.486C606.391 342.607 606.325 342.671 606.261 342.713L607.91 345.219C608.421 344.882 608.818 344.431 609.101 343.901L606.456 342.486ZM606.253 342.718C606.105 342.817 605.944 342.89 605.764 342.939L606.554 345.834C607.041 345.701 607.497 345.494 607.917 345.214L606.253 342.718ZM604.659 344.386V344.5H607.659V344.386H604.659ZM606.064 345.997C606.125 346.001 606.244 346.024 606.432 346.143L608.034 343.607C607.503 343.271 606.905 343.045 606.255 343.003L606.064 345.997ZM606.432 346.143C606.555 346.221 606.695 346.354 606.834 346.596L609.439 345.108C609.093 344.503 608.63 343.983 608.034 343.607L606.432 346.143ZM606.834 346.596C606.918 346.743 607 346.991 607 347.409H610C610 346.6 609.84 345.81 609.439 345.108L606.834 346.596ZM607 347.409C607 347.756 606.924 348.021 606.799 348.241L609.406 349.725C609.811 349.013 610 348.229 610 347.409H607ZM606.799 348.241C606.711 348.395 606.548 348.572 606.201 348.737L607.492 351.445C608.289 351.065 608.963 350.503 609.406 349.725L606.799 348.241ZM606.201 348.737C605.9 348.88 605.399 349 604.614 349V352C605.661 352 606.649 351.847 607.492 351.445L606.201 348.737ZM604.614 349H600.409V352H604.614V349ZM601.818 350.75H604.614V347.75H601.818V350.75ZM604.614 350.75C605.652 350.75 606.782 350.564 607.59 349.819L605.557 347.613C605.585 347.588 605.559 347.626 605.4 347.669C605.238 347.713 604.985 347.75 604.614 347.75V350.75ZM607.591 349.819C608.276 349.187 608.659 348.357 608.659 347.409H605.659C605.659 347.469 605.649 347.495 605.644 347.506C605.638 347.519 605.619 347.556 605.557 347.613L607.591 349.819ZM608.659 347.409C608.659 346.746 608.486 346.114 608.143 345.544L605.573 347.092C605.631 347.189 605.659 347.284 605.659 347.409H608.659ZM608.147 345.551C607.797 344.964 607.304 344.511 606.714 344.192L605.286 346.831C605.438 346.913 605.517 346.999 605.569 347.086L608.147 345.551ZM606.724 344.198C606.091 343.849 605.393 343.705 604.682 343.705V346.705C604.986 346.705 605.167 346.765 605.276 346.825L606.724 344.198ZM604.682 343.705H601.818V346.705H604.682V343.705ZM600.318 345.205V349.25H603.318V345.205H600.318ZM601.818 345.477H604.432V342.477H601.818V345.477ZM604.432 345.477C605.057 345.477 605.669 345.353 606.238 345.075L604.921 342.38C604.808 342.435 604.655 342.477 604.432 342.477V345.477ZM606.232 345.078C606.806 344.8 607.291 344.391 607.648 343.851L605.147 342.194C605.103 342.261 605.042 342.321 604.927 342.377L606.232 345.078ZM607.641 343.862C608.032 343.282 608.205 342.626 608.205 341.955H605.205C605.205 342.101 605.172 342.157 605.154 342.184L607.641 343.862ZM608.205 341.955C608.205 341.052 607.873 340.235 607.231 339.593L605.11 341.714C605.18 341.784 605.205 341.834 605.205 341.955H608.205ZM607.237 339.598C606.481 338.834 605.443 338.614 604.477 338.614V341.614C605.057 341.614 605.148 341.753 605.104 341.708L607.237 339.598ZM604.477 338.614H601.818V341.614H604.477V338.614ZM600.318 340.114V343.977H603.318V340.114H600.318Z" fill="white"/>
<path d="M600.409 350.5V338.864H604.477C605.288 338.864 605.956 339.004 606.483 339.284C607.009 339.561 607.402 339.934 607.659 340.403C607.917 340.869 608.045 341.386 608.045 341.955C608.045 342.455 607.956 342.867 607.778 343.193C607.604 343.519 607.373 343.777 607.085 343.966C606.801 344.155 606.492 344.295 606.159 344.386V344.5C606.515 344.523 606.873 344.648 607.233 344.875C607.593 345.102 607.894 345.428 608.136 345.852C608.379 346.277 608.5 346.795 608.5 347.409C608.5 347.992 608.367 348.517 608.102 348.983C607.837 349.449 607.419 349.818 606.847 350.091C606.275 350.364 605.53 350.5 604.614 350.5H600.409ZM601.818 349.25H604.614C605.534 349.25 606.188 349.072 606.574 348.716C606.964 348.356 607.159 347.92 607.159 347.409C607.159 347.015 607.059 346.652 606.858 346.318C606.657 345.981 606.371 345.712 606 345.511C605.629 345.307 605.189 345.205 604.682 345.205H601.818V349.25ZM601.818 343.977H604.432C604.856 343.977 605.239 343.894 605.58 343.727C605.924 343.561 606.197 343.326 606.398 343.023C606.602 342.72 606.705 342.364 606.705 341.955C606.705 341.443 606.527 341.009 606.17 340.653C605.814 340.294 605.25 340.114 604.477 340.114H601.818V343.977Z" fill="#1565C0"/>
<path d="M326.553 34.396C326.553 37.1574 324.314 39.396 321.553 39.396C318.791 39.396 316.553 37.1574 316.553 34.396C316.553 31.6346 318.791 29.396 321.553 29.396C324.314 29.396 326.553 31.6346 326.553 34.396Z" fill="#1565C0"/>
<path d="M326.553 34.396C326.553 37.1574 324.314 39.396 321.553 39.396C318.791 39.396 316.553 37.1574 316.553 34.396C316.553 31.6346 318.791 29.396 321.553 29.396C324.314 29.396 326.553 31.6346 326.553 34.396Z" stroke="black" stroke-miterlimit="10" stroke-linecap="round" stroke-linejoin="round"/>
<path d="M336.773 15.5H335.364C335.28 15.0947 335.134 14.7386 334.926 14.4318C334.722 14.125 334.472 13.8674 334.176 13.6591C333.884 13.447 333.561 13.2879 333.205 13.1818C332.848 13.0758 332.477 13.0227 332.091 13.0227C331.386 13.0227 330.748 13.2008 330.176 13.5568C329.608 13.9129 329.155 14.4375 328.818 15.1307C328.485 15.8239 328.318 16.6742 328.318 17.6818C328.318 18.6894 328.485 19.5398 328.818 20.233C329.155 20.9261 329.608 21.4508 330.176 21.8068C330.748 22.1629 331.386 22.3409 332.091 22.3409C332.477 22.3409 332.848 22.2879 333.205 22.1818C333.561 22.0758 333.884 21.9186 334.176 21.7102C334.472 21.4981 334.722 21.2386 334.926 20.9318C335.134 20.6212 335.28 20.2652 335.364 19.8636H336.773C336.667 20.4583 336.473 20.9905 336.193 21.4602C335.913 21.9299 335.564 22.3295 335.148 22.6591C334.731 22.9848 334.263 23.233 333.744 23.4034C333.229 23.5739 332.678 23.6591 332.091 23.6591C331.098 23.6591 330.216 23.4167 329.443 22.9318C328.67 22.447 328.063 21.7576 327.619 20.8636C327.176 19.9697 326.955 18.9091 326.955 17.6818C326.955 16.4545 327.176 15.3939 327.619 14.5C328.063 13.6061 328.67 12.9167 329.443 12.4318C330.216 11.947 331.098 11.7045 332.091 11.7045C332.678 11.7045 333.229 11.7898 333.744 11.9602C334.263 12.1307 334.731 12.3807 335.148 12.7102C335.564 13.036 335.913 13.4337 336.193 13.9034C336.473 14.3693 336.667 14.9015 336.773 15.5Z" fill="#1565C0"/>
<path d="M336.773 15.5V17L338.25 15.2383L336.773 15.5ZM335.364 15.5L333.894 15.8021L335.364 17V15.5ZM334.926 14.4318L333.678 15.2639L333.685 15.2744L334.926 14.4318ZM334.176 13.6591L333.294 14.8722L333.312 14.885L334.176 13.6591ZM333.205 13.1818L332.776 14.6194L332.776 14.6194L333.205 13.1818ZM330.176 13.5568L329.383 12.2834L329.38 12.2858L330.176 13.5568ZM328.818 15.1307L327.469 14.4746L327.466 14.4806L328.818 15.1307ZM328.818 20.233L327.466 20.883L327.469 20.889L328.818 20.233ZM330.176 21.8068L329.38 23.0779L329.383 23.0802L330.176 21.8068ZM333.205 22.1818L332.776 20.7442L332.776 20.7442L333.205 22.1818ZM334.176 21.7102L335.048 22.9308L335.051 22.9287L334.176 21.7102ZM334.926 20.9318L333.68 20.0963L333.678 20.0998L334.926 20.9318ZM335.364 19.8636V18.3636L333.895 19.5588L335.364 19.8636ZM336.773 19.8636L338.249 20.127L336.773 18.3636V19.8636ZM336.193 21.4602L334.905 20.6915L334.905 20.6915L336.193 21.4602ZM335.148 22.6591L336.072 23.8408L336.078 23.8356L335.148 22.6591ZM333.744 23.4034L333.276 21.9783L333.273 21.9793L333.744 23.4034ZM329.443 22.9318L328.646 24.2024L328.646 24.2024L329.443 22.9318ZM327.619 20.8636L328.963 20.1974L328.963 20.1974L327.619 20.8636ZM327.619 14.5L326.275 13.8337L327.619 14.5ZM333.744 11.9602L333.273 13.3843L333.276 13.3853L333.744 11.9602ZM335.148 12.7102L334.217 13.8867L334.224 13.8919L335.148 12.7102ZM336.193 13.9034L334.905 14.6721L334.908 14.6767L336.193 13.9034ZM336.773 14H335.364V17H336.773V14ZM336.833 15.1979C336.714 14.6215 336.499 14.0773 336.167 13.5892L333.685 15.2744C333.77 15.4 333.846 15.5679 333.894 15.8021L336.833 15.1979ZM336.174 13.5998C335.869 13.1423 335.49 12.7502 335.041 12.4332L333.312 14.885C333.453 14.9846 333.574 15.1077 333.678 15.2639L336.174 13.5998ZM335.058 12.446C334.625 12.1308 334.147 11.8974 333.633 11.7442L332.776 14.6194C332.974 14.6784 333.144 14.7631 333.294 14.8722L335.058 12.446ZM333.633 11.7442C333.132 11.5952 332.616 11.5227 332.091 11.5227V14.5227C332.338 14.5227 332.565 14.5564 332.776 14.6194L333.633 11.7442ZM332.091 11.5227C331.12 11.5227 330.204 11.7723 329.383 12.2834L330.969 14.8302C331.292 14.6292 331.653 14.5227 332.091 14.5227V11.5227ZM329.38 12.2858C328.539 12.8123 327.91 13.5674 327.469 14.4746L330.167 15.7867C330.4 15.3076 330.677 15.0134 330.973 14.8279L329.38 12.2858ZM327.466 14.4806C327.01 15.4294 326.818 16.5161 326.818 17.6818H329.818C329.818 16.8324 329.96 16.2184 330.17 15.7807L327.466 14.4806ZM326.818 17.6818C326.818 18.8475 327.01 19.9343 327.466 20.883L330.17 19.5829C329.96 19.1453 329.818 18.5313 329.818 17.6818H326.818ZM327.469 20.889C327.91 21.7963 328.539 22.5513 329.38 23.0779L330.973 20.5358C330.677 20.3502 330.4 20.056 330.167 19.5769L327.469 20.889ZM329.383 23.0802C330.204 23.5913 331.12 23.8409 332.091 23.8409V20.8409C331.653 20.8409 331.292 20.7344 330.969 20.5334L329.383 23.0802ZM332.091 23.8409C332.616 23.8409 333.132 23.7685 333.633 23.6194L332.776 20.7442C332.565 20.8073 332.338 20.8409 332.091 20.8409V23.8409ZM333.633 23.6194C334.142 23.4678 334.617 23.239 335.048 22.9308L333.304 20.4896C333.152 20.5981 332.979 20.6837 332.776 20.7442L333.633 23.6194ZM335.051 22.9287C335.495 22.6098 335.871 22.2188 336.174 21.7639L333.678 20.0998C333.572 20.2585 333.448 20.3864 333.301 20.4917L335.051 22.9287ZM336.172 21.7674C336.498 21.281 336.713 20.7413 336.832 20.1685L333.895 19.5588C333.847 19.789 333.771 19.9614 333.68 20.0963L336.172 21.7674ZM335.364 21.3636H336.773V18.3636H335.364V21.3636ZM335.296 19.6003C335.218 20.0351 335.083 20.3929 334.905 20.6915L337.481 22.2289C337.864 21.5881 338.115 20.8816 338.249 20.127L335.296 19.6003ZM334.905 20.6915C334.715 21.0094 334.487 21.2695 334.217 21.4826L336.078 23.8356C336.642 23.3896 337.11 22.8504 337.481 22.2289L334.905 20.6915ZM334.224 21.4774C333.948 21.6928 333.636 21.8602 333.276 21.9783L334.212 24.8285C334.891 24.6057 335.514 24.2769 336.072 23.8408L334.224 21.4774ZM333.273 21.9793C332.922 22.0955 332.531 22.1591 332.091 22.1591V25.1591C332.825 25.1591 333.536 25.0522 334.216 24.8275L333.273 21.9793ZM332.091 22.1591C331.355 22.1591 330.753 21.9831 330.24 21.6612L328.646 24.2024C329.678 24.8503 330.842 25.1591 332.091 25.1591V22.1591ZM330.24 21.6612C329.724 21.3372 329.295 20.8673 328.963 20.1974L326.275 21.5299C326.83 22.6478 327.617 23.5568 328.646 24.2024L330.24 21.6612ZM328.963 20.1974C328.644 19.5527 328.455 18.7301 328.455 17.6818H325.455C325.455 19.0881 325.709 20.3867 326.275 21.5299L328.963 20.1974ZM328.455 17.6818C328.455 16.6335 328.644 15.8109 328.963 15.1663L326.275 13.8337C325.709 14.9769 325.455 16.2756 325.455 17.6818H328.455ZM328.963 15.1663C329.295 14.4963 329.724 14.0265 330.24 13.7024L328.646 11.1612C327.617 11.8069 326.83 12.7158 326.275 13.8337L328.963 15.1663ZM330.24 13.7024C330.753 13.3806 331.355 13.2045 332.091 13.2045V10.2045C330.842 10.2045 329.678 10.5134 328.646 11.1612L330.24 13.7024ZM332.091 13.2045C332.531 13.2045 332.922 13.2681 333.273 13.3843L334.216 10.5362C333.536 10.3114 332.825 10.2045 332.091 10.2045V13.2045ZM333.276 13.3853C333.632 13.5023 333.943 13.6697 334.217 13.8867L336.078 11.5337C335.519 11.0917 334.894 10.759 334.212 10.5351L333.276 13.3853ZM334.224 13.8919C334.49 14.0998 334.716 14.3558 334.905 14.6721L337.481 13.1347C337.109 12.5116 336.639 11.9722 336.072 11.5285L334.224 13.8919ZM334.908 14.6767C335.083 14.9678 335.218 15.3229 335.296 15.7617L338.25 15.2383C338.115 14.4802 337.864 13.7708 337.478 13.1301L334.908 14.6767Z" fill="white"/>
<path d="M336.773 15.5H335.364C335.28 15.0947 335.134 14.7386 334.926 14.4318C334.722 14.125 334.472 13.8674 334.176 13.6591C333.884 13.447 333.561 13.2879 333.205 13.1818C332.848 13.0758 332.477 13.0227 332.091 13.0227C331.386 13.0227 330.748 13.2008 330.176 13.5568C329.608 13.9129 329.155 14.4375 328.818 15.1307C328.485 15.8239 328.318 16.6742 328.318 17.6818C328.318 18.6894 328.485 19.5398 328.818 20.233C329.155 20.9261 329.608 21.4508 330.176 21.8068C330.748 22.1629 331.386 22.3409 332.091 22.3409C332.477 22.3409 332.848 22.2879 333.205 22.1818C333.561 22.0758 333.884 21.9186 334.176 21.7102C334.472 21.4981 334.722 21.2386 334.926 20.9318C335.134 20.6212 335.28 20.2652 335.364 19.8636H336.773C336.667 20.4583 336.473 20.9905 336.193 21.4602C335.913 21.9299 335.564 22.3295 335.148 22.6591C334.731 22.9848 334.263 23.233 333.744 23.4034C333.229 23.5739 332.678 23.6591 332.091 23.6591C331.098 23.6591 330.216 23.4167 329.443 22.9318C328.67 22.447 328.063 21.7576 327.619 20.8636C327.176 19.9697 326.955 18.9091 326.955 17.6818C326.955 16.4545 327.176 15.3939 327.619 14.5C328.063 13.6061 328.67 12.9167 329.443 12.4318C330.216 11.947 331.098 11.7045 332.091 11.7045C332.678 11.7045 333.229 11.7898 333.744 11.9602C334.263 12.1307 334.731 12.3807 335.148 12.7102C335.564 13.036 335.913 13.4337 336.193 13.9034C336.473 14.3693 336.667 14.9015 336.773 15.5Z" fill="#1565C0"/>
<path d="M259.281 196.946C259.281 199.155 257.49 200.946 255.281 200.946C253.072 200.946 251.281 199.155 251.281 196.946C251.281 194.737 253.072 192.946 255.281 192.946C257.49 192.946 259.281 194.737 259.281 196.946Z" fill="#616161"/>
<path d="M259.281 196.946C259.281 199.155 257.49 200.946 255.281 200.946C253.072 200.946 251.281 199.155 251.281 196.946C251.281 194.737 253.072 192.946 255.281 192.946C257.49 192.946 259.281 194.737 259.281 196.946Z" stroke="black" stroke-miterlimit="10" stroke-linecap="round" stroke-linejoin="round"/>
<path d="M264 187.5H260.409V175.864H264.159C265.288 175.864 266.254 176.097 267.057 176.562C267.86 177.025 268.475 177.689 268.903 178.557C269.331 179.42 269.545 180.455 269.545 181.659C269.545 182.871 269.33 183.915 268.898 184.79C268.466 185.661 267.837 186.331 267.011 186.801C266.186 187.267 265.182 187.5 264 187.5ZM261.818 186.25H263.909C264.871 186.25 265.669 186.064 266.301 185.693C266.934 185.322 267.405 184.794 267.716 184.108C268.027 183.422 268.182 182.606 268.182 181.659C268.182 180.72 268.028 179.911 267.722 179.233C267.415 178.551 266.956 178.028 266.347 177.665C265.737 177.297 264.977 177.114 264.068 177.114H261.818V186.25Z" fill="#616161"/>
<path d="M260.409 187.5H258.909L260.409 189V187.5ZM260.409 175.864V174.364L258.909 175.864H260.409ZM267.057 176.562L266.304 177.86L266.309 177.863L267.057 176.562ZM268.903 178.557L267.558 179.221L267.559 179.223L268.903 178.557ZM268.898 184.79L270.242 185.456L270.243 185.454L268.898 184.79ZM267.011 186.801L267.748 188.108L267.753 188.105L267.011 186.801ZM261.818 186.25H260.318L261.818 187.75V186.25ZM266.301 185.693L265.542 184.399L266.301 185.693ZM267.722 179.233L266.354 179.849L266.355 179.851L267.722 179.233ZM266.347 177.665L265.572 178.95L265.578 178.953L266.347 177.665ZM261.818 177.114V175.614L260.318 177.114H261.818ZM264 186H260.409V189H264V186ZM261.909 187.5V175.864H258.909V187.5H261.909ZM260.409 177.364H264.159V174.364H260.409V177.364ZM264.159 177.364C265.08 177.364 265.774 177.553 266.304 177.86L267.81 175.265C266.733 174.641 265.495 174.364 264.159 174.364V177.364ZM266.309 177.863C266.842 178.17 267.256 178.607 267.558 179.221L270.249 177.893C269.695 176.771 268.877 175.88 267.805 175.262L266.309 177.863ZM267.559 179.223C267.862 179.834 268.045 180.629 268.045 181.659H271.045C271.045 180.28 270.8 179.007 270.247 177.891L267.559 179.223ZM268.045 181.659C268.045 182.696 267.861 183.501 267.553 184.126L270.243 185.454C270.798 184.328 271.045 183.047 271.045 181.659H268.045ZM267.554 184.124C267.251 184.734 266.829 185.179 266.27 185.497L267.753 188.105C268.845 187.484 269.68 186.588 270.242 185.456L267.554 184.124ZM266.274 185.495C265.722 185.806 264.986 186 264 186V189C265.377 189 266.649 188.728 267.748 188.108L266.274 185.495ZM261.818 187.75H263.909V184.75H261.818V187.75ZM263.909 187.75C265.057 187.75 266.136 187.529 267.06 186.987L265.542 184.399C265.201 184.6 264.685 184.75 263.909 184.75V187.75ZM267.06 186.987C267.967 186.455 268.647 185.687 269.082 184.727L266.35 183.489C266.163 183.9 265.9 184.189 265.542 184.399L267.06 186.987ZM269.082 184.727C269.501 183.804 269.682 182.766 269.682 181.659H266.682C266.682 182.446 266.552 183.041 266.35 183.489L269.082 184.727ZM269.682 181.659C269.682 180.561 269.503 179.531 269.088 178.615L266.355 179.851C266.554 180.291 266.682 180.879 266.682 181.659H269.682ZM269.089 178.617C268.664 177.671 268.003 176.906 267.115 176.376L265.578 178.953C265.91 179.151 266.166 179.431 266.354 179.849L269.089 178.617ZM267.121 176.38C266.221 175.838 265.176 175.614 264.068 175.614V178.614C264.779 178.614 265.253 178.757 265.573 178.95L267.121 176.38ZM264.068 175.614H261.818V178.614H264.068V175.614ZM260.318 177.114V186.25H263.318V177.114H260.318Z" fill="white"/>
<path d="M264 187.5H260.409V175.864H264.159C265.288 175.864 266.254 176.097 267.057 176.562C267.86 177.025 268.475 177.689 268.903 178.557C269.331 179.42 269.545 180.455 269.545 181.659C269.545 182.871 269.33 183.915 268.898 184.79C268.466 185.661 267.837 186.331 267.011 186.801C266.186 187.267 265.182 187.5 264 187.5ZM261.818 186.25H263.909C264.871 186.25 265.669 186.064 266.301 185.693C266.934 185.322 267.405 184.794 267.716 184.108C268.027 183.422 268.182 182.606 268.182 181.659C268.182 180.72 268.028 179.911 267.722 179.233C267.415 178.551 266.956 178.028 266.347 177.665C265.737 177.297 264.977 177.114 264.068 177.114H261.818V186.25Z" fill="#616161"/>
<path d="M462.469 198.196C462.469 200.405 460.678 202.196 458.469 202.196C456.26 202.196 454.469 200.405 454.469 198.196C454.469 195.987 456.26 194.196 458.469 194.196C460.678 194.196 462.469 195.987 462.469 198.196Z" fill="#616161"/>
<path d="M462.469 198.196C462.469 200.405 460.678 202.196 458.469 202.196C456.26 202.196 454.469 200.405 454.469 198.196C454.469 195.987 456.26 194.196 458.469 194.196C460.678 194.196 462.469 195.987 462.469 198.196Z" stroke="black" stroke-miterlimit="10" stroke-linecap="round" stroke-linejoin="round"/>
<path d="M463.409 189.5V177.864H470.432V179.114H464.818V183.045H470.068V184.295H464.818V188.25H470.523V189.5H463.409Z" fill="#616161"/>
<path d="M463.409 189.5H461.909L463.409 191V189.5ZM463.409 177.864V176.364L461.909 177.864H463.409ZM470.432 177.864H471.932L470.432 176.364V177.864ZM470.432 179.114V180.614L471.932 179.114H470.432ZM464.818 179.114V177.614L463.318 179.114H464.818ZM464.818 183.045H463.318L464.818 184.545V183.045ZM470.068 183.045H471.568L470.068 181.545V183.045ZM470.068 184.295V185.795L471.568 184.295H470.068ZM464.818 184.295V182.795L463.318 184.295H464.818ZM464.818 188.25H463.318L464.818 189.75V188.25ZM470.523 188.25H472.023L470.523 186.75V188.25ZM470.523 189.5V191L472.023 189.5H470.523ZM464.909 189.5V177.864H461.909V189.5H464.909ZM463.409 179.364H470.432V176.364H463.409V179.364ZM468.932 177.864V179.114H471.932V177.864H468.932ZM470.432 177.614H464.818V180.614H470.432V177.614ZM463.318 179.114V183.045H466.318V179.114H463.318ZM464.818 184.545H470.068V181.545H464.818V184.545ZM468.568 183.045V184.295H471.568V183.045H468.568ZM470.068 182.795H464.818V185.795H470.068V182.795ZM463.318 184.295V188.25H466.318V184.295H463.318ZM464.818 189.75H470.523V186.75H464.818V189.75ZM469.023 188.25V189.5H472.023V188.25H469.023ZM470.523 188H463.409V191H470.523V188Z" fill="white"/>
<path d="M463.409 189.5V177.864H470.432V179.114H464.818V183.045H470.068V184.295H464.818V188.25H470.523V189.5H463.409Z" fill="#616161"/>
<path d="M56.0938 195.695C56.0938 197.904 54.3029 199.695 52.0938 199.695C49.8846 199.695 48.0938 197.904 48.0938 195.695C48.0938 193.486 49.8846 191.695 52.0938 191.695C54.3029 191.695 56.0938 193.486 56.0938 195.695Z" fill="#616161"/>
<path d="M56.0938 195.695C56.0938 197.904 54.3029 199.695 52.0938 199.695C49.8846 199.695 48.0938 197.904 48.0938 195.695C48.0938 193.486 49.8846 191.695 52.0938 191.695C54.3029 191.695 56.0938 193.486 56.0938 195.695Z" stroke="black" stroke-miterlimit="10" stroke-linecap="round" stroke-linejoin="round"/>
<path d="M57.4091 186.5V174.864H64.3864V176.114H58.8182V180.045H63.8636V181.295H58.8182V186.5H57.4091Z" fill="#616161"/>
<path d="M57.4091 186.5H55.9091L57.4091 188V186.5ZM57.4091 174.864V173.364L55.9091 174.864H57.4091ZM64.3864 174.864H65.8864L64.3864 173.364V174.864ZM64.3864 176.114V177.614L65.8864 176.114H64.3864ZM58.8182 176.114V174.614L57.3182 176.114H58.8182ZM58.8182 180.045H57.3182L58.8182 181.545V180.045ZM63.8636 180.045H65.3636L63.8636 178.545V180.045ZM63.8636 181.295V182.795L65.3636 181.295H63.8636ZM58.8182 181.295V179.795L57.3182 181.295H58.8182ZM58.8182 186.5V188L60.3182 186.5H58.8182ZM58.9091 186.5V174.864H55.9091V186.5H58.9091ZM57.4091 176.364H64.3864V173.364H57.4091V176.364ZM62.8864 174.864V176.114H65.8864V174.864H62.8864ZM64.3864 174.614H58.8182V177.614H64.3864V174.614ZM57.3182 176.114V180.045H60.3182V176.114H57.3182ZM58.8182 181.545H63.8636V178.545H58.8182V181.545ZM62.3636 180.045V181.295H65.3636V180.045H62.3636ZM63.8636 179.795H58.8182V182.795H63.8636V179.795ZM57.3182 181.295V186.5H60.3182V181.295H57.3182ZM58.8182 185H57.4091V188H58.8182V185Z" fill="white"/>
<path d="M57.4091 186.5V174.864H64.3864V176.114H58.8182V180.045H63.8636V181.295H58.8182V186.5H57.4091Z" fill="#616161"/>
</g>
<defs>
<clipPath id="clip0_358_80">
<rect width="679" height="443" fill="white"/>
</clipPath>
</defs>
</svg>
