<svg width="999" height="452" viewBox="0 0 999 452" fill="none" xmlns="http://www.w3.org/2000/svg">
<g clip-path="url(#clip0_358_141)">
<path d="M999 0H0V452H999V0Z" fill="white"/>
<path d="M105.383 374.499C105.271 364.729 100.408 355.626 92.3506 350.101L75.3848 374.842L105.383 374.499Z" fill="black" fill-opacity="0.0980392"/>
<path d="M105.383 374.499C105.271 364.729 100.408 355.626 92.3506 350.101L75.3848 374.842L105.383 374.499Z" stroke="black" stroke-opacity="0.6" stroke-width="2" stroke-miterlimit="10" stroke-linecap="round" stroke-linejoin="round"/>
<path d="M759.973 366.996C759.861 357.227 754.998 348.123 746.94 342.598L729.975 367.34L759.973 366.996Z" fill="black" fill-opacity="0.0980392"/>
<path d="M759.973 366.996C759.861 357.227 754.998 348.123 746.94 342.598L729.975 367.34L759.973 366.996Z" stroke="black" stroke-opacity="0.6" stroke-width="2" stroke-miterlimit="10" stroke-linecap="round" stroke-linejoin="round"/>
<path fill-rule="evenodd" clip-rule="evenodd" d="M258.43 372.745L258.186 351.533L236.975 351.776L237.218 372.988L258.43 372.745Z" fill="black" fill-opacity="0.0980392"/>
<path d="M258.43 372.745L258.186 351.533L236.975 351.776L237.218 372.988L258.43 372.745Z" stroke="black" stroke-opacity="0.6" stroke-width="2" stroke-miterlimit="10" stroke-linecap="round" stroke-linejoin="round"/>
<path fill-rule="evenodd" clip-rule="evenodd" d="M913.017 365.242L912.774 344.03L891.562 344.273L891.806 365.485L913.017 365.242Z" fill="black" fill-opacity="0.0980392"/>
<path d="M913.017 365.242L912.774 344.03L891.562 344.273L891.806 365.485L913.017 365.242Z" stroke="black" stroke-opacity="0.6" stroke-width="2" stroke-miterlimit="10" stroke-linecap="round" stroke-linejoin="round"/>
<path d="M75.3848 374.843L729.974 367.34" stroke="#616161" stroke-opacity="0.8" stroke-width="2.5" stroke-miterlimit="10" stroke-linecap="round" stroke-linejoin="round"/>
<path d="M75.3848 374.842L255.444 112.256" stroke="#616161" stroke-opacity="0.8" stroke-width="2.5" stroke-miterlimit="10" stroke-linecap="round" stroke-linejoin="round"/>
<path d="M255.443 112.256L910.033 104.754" stroke="#616161" stroke-opacity="0.8" stroke-width="2.5" stroke-miterlimit="10" stroke-linecap="round" stroke-linejoin="round"/>
<path d="M729.975 367.34L910.034 104.754" stroke="#616161" stroke-opacity="0.8" stroke-width="2.5" stroke-miterlimit="10" stroke-linecap="round" stroke-linejoin="round"/>
<path d="M255.443 112.256L258.429 372.745" stroke="#616161" stroke-opacity="0.8" stroke-width="2.5" stroke-miterlimit="10" stroke-linecap="round" stroke-linejoin="round"/>
<path d="M910.033 104.754L913.019 365.242" stroke="#616161" stroke-opacity="0.8" stroke-width="2.5" stroke-miterlimit="10" stroke-linecap="round" stroke-linejoin="round"/>
<path d="M729.975 367.34L913.019 365.242" stroke="#616161" stroke-opacity="0.8" stroke-width="2.5" stroke-miterlimit="10" stroke-linecap="round" stroke-linejoin="round"/>
<path d="M155.977 229.87L177.11 246.776" stroke="#616161" stroke-opacity="0.8" stroke-width="2.5" stroke-miterlimit="10" stroke-linecap="round" stroke-linejoin="round"/>
<path d="M795.385 243.465L817.082 257.206" stroke="#616161" stroke-opacity="0.8" stroke-width="2.5" stroke-miterlimit="10" stroke-linecap="round" stroke-linejoin="round"/>
<path d="M80.3848 374.843C80.3848 377.604 78.1462 379.843 75.3848 379.843C72.6233 379.843 70.3848 377.604 70.3848 374.843C70.3848 372.081 72.6233 369.843 75.3848 369.843C78.1462 369.843 80.3848 372.081 80.3848 374.843Z" fill="#1565C0"/>
<path d="M80.3848 374.843C80.3848 377.604 78.1462 379.843 75.3848 379.843C72.6233 379.843 70.3848 377.604 70.3848 374.843C70.3848 372.081 72.6233 369.843 75.3848 369.843C78.1462 369.843 80.3848 372.081 80.3848 374.843Z" stroke="black" stroke-miterlimit="10" stroke-linecap="round" stroke-linejoin="round"/>
<path d="M80.8864 364H79.4091L83.6818 352.364H85.1364L89.4091 364H87.9318L84.4545 354.205H84.3636L80.8864 364ZM81.4318 359.455H87.3864V360.705H81.4318V359.455Z" fill="#1565C0"/>
<path d="M80.8864 364V365.5L82.2999 364.502L80.8864 364ZM79.4091 364L78.001 363.483L79.4091 365.5V364ZM83.6818 352.364V350.864L82.2737 351.847L83.6818 352.364ZM85.1364 352.364L86.5444 351.847L85.1364 350.864V352.364ZM89.4091 364V365.5L90.8172 363.483L89.4091 364ZM87.9318 364L86.5182 364.502L87.9318 365.5V364ZM84.4545 354.205L85.8681 353.703L84.4545 352.705V354.205ZM84.3636 354.205V352.705L82.9501 353.703L84.3636 354.205ZM81.4318 359.455V357.955L79.9318 359.455H81.4318ZM87.3864 359.455H88.8864L87.3864 357.955V359.455ZM87.3864 360.705V362.205L88.8864 360.705H87.3864ZM81.4318 360.705H79.9318L81.4318 362.205V360.705ZM80.8864 362.5H79.4091V365.5H80.8864V362.5ZM80.8172 364.517L85.0899 352.881L82.2737 351.847L78.001 363.483L80.8172 364.517ZM83.6818 353.864H85.1364V350.864H83.6818V353.864ZM83.7283 352.881L88.001 364.517L90.8172 363.483L86.5444 351.847L83.7283 352.881ZM89.4091 362.5H87.9318V365.5H89.4091V362.5ZM89.3454 363.498L85.8681 353.703L83.041 354.706L86.5182 364.502L89.3454 363.498ZM84.4545 352.705H84.3636V355.705H84.4545V352.705ZM82.9501 353.703L79.4728 363.498L82.2999 364.502L85.7772 354.706L82.9501 353.703ZM81.4318 360.955H87.3864V357.955H81.4318V360.955ZM85.8864 359.455V360.705H88.8864V359.455H85.8864ZM87.3864 359.205H81.4318V362.205H87.3864V359.205ZM82.9318 360.705V359.455H79.9318V360.705H82.9318Z" fill="white"/>
<path d="M80.8864 364H79.4091L83.6818 352.364H85.1364L89.4091 364H87.9318L84.4545 354.205H84.3636L80.8864 364ZM81.4318 359.455H87.3864V360.705H81.4318V359.455Z" fill="#1565C0"/>
<path d="M734.975 367.34C734.975 370.102 732.736 372.34 729.975 372.34C727.213 372.34 724.975 370.102 724.975 367.34C724.975 364.579 727.213 362.34 729.975 362.34C732.736 362.34 734.975 364.579 734.975 367.34Z" fill="#1565C0"/>
<path d="M734.975 367.34C734.975 370.102 732.736 372.34 729.975 372.34C727.213 372.34 724.975 370.102 724.975 367.34C724.975 364.579 727.213 362.34 729.975 362.34C732.736 362.34 734.975 364.579 734.975 367.34Z" stroke="black" stroke-miterlimit="10" stroke-linecap="round" stroke-linejoin="round"/>
<path d="M735.409 356V344.364H739.477C740.288 344.364 740.956 344.504 741.483 344.784C742.009 345.061 742.402 345.434 742.659 345.903C742.917 346.369 743.045 346.886 743.045 347.455C743.045 347.955 742.956 348.367 742.778 348.693C742.604 349.019 742.373 349.277 742.085 349.466C741.801 349.655 741.492 349.795 741.159 349.886V350C741.515 350.023 741.873 350.148 742.233 350.375C742.593 350.602 742.894 350.928 743.136 351.352C743.379 351.777 743.5 352.295 743.5 352.909C743.5 353.492 743.367 354.017 743.102 354.483C742.837 354.949 742.419 355.318 741.847 355.591C741.275 355.864 740.53 356 739.614 356H735.409ZM736.818 354.75H739.614C740.534 354.75 741.188 354.572 741.574 354.216C741.964 353.856 742.159 353.42 742.159 352.909C742.159 352.515 742.059 352.152 741.858 351.818C741.657 351.481 741.371 351.212 741 351.011C740.629 350.807 740.189 350.705 739.682 350.705H736.818V354.75ZM736.818 349.477H739.432C739.856 349.477 740.239 349.394 740.58 349.227C740.924 349.061 741.197 348.826 741.398 348.523C741.602 348.22 741.705 347.864 741.705 347.455C741.705 346.943 741.527 346.509 741.17 346.153C740.814 345.794 740.25 345.614 739.477 345.614H736.818V349.477Z" fill="#1565C0"/>
<path d="M735.409 356H733.909L735.409 357.5V356ZM735.409 344.364V342.864L733.909 344.364H735.409ZM741.483 344.784L740.778 346.108L740.786 346.112L741.483 344.784ZM742.659 345.903L741.344 346.625L741.346 346.629L742.659 345.903ZM742.778 348.693L741.462 347.974L741.456 347.986L742.778 348.693ZM742.085 349.466L741.261 348.213L741.253 348.218L742.085 349.466ZM741.159 349.886L740.764 348.439L739.659 349.886H741.159ZM741.159 350H739.659L741.064 351.497L741.159 350ZM742.233 350.375L741.432 351.643L741.432 351.643L742.233 350.375ZM743.102 354.483L744.406 355.225L744.406 355.225L743.102 354.483ZM741.847 355.591L741.201 354.237L741.201 354.237L741.847 355.591ZM736.818 354.75H735.318L736.818 356.25V354.75ZM741.574 354.216L742.59 355.319L742.591 355.319L741.574 354.216ZM741.858 351.818L740.569 352.586L740.573 352.592L741.858 351.818ZM741 351.011L740.276 352.325L740.286 352.331L741 351.011ZM736.818 350.705V349.205L735.318 350.705H736.818ZM736.818 349.477H735.318L736.818 350.977V349.477ZM740.58 349.227L739.927 347.877L739.921 347.88L740.58 349.227ZM741.398 348.523L740.154 347.683L740.147 347.694L741.398 348.523ZM741.17 346.153L740.104 347.208L740.11 347.214L741.17 346.153ZM736.818 345.614V344.114L735.318 345.614H736.818ZM736.909 356V344.364H733.909V356H736.909ZM735.409 345.864H739.477V342.864H735.409V345.864ZM739.477 345.864C740.126 345.864 740.532 345.977 740.778 346.108L742.188 343.46C741.381 343.03 740.45 342.864 739.477 342.864V345.864ZM740.786 346.112C741.081 346.267 741.243 346.442 741.344 346.625L743.974 345.182C743.56 344.426 742.938 343.854 742.18 343.456L740.786 346.112ZM741.346 346.629C741.473 346.858 741.545 347.123 741.545 347.455H744.545C744.545 346.65 744.36 345.881 743.972 345.178L741.346 346.629ZM741.545 347.455C741.545 347.787 741.485 347.932 741.462 347.974L744.095 349.413C744.428 348.803 744.545 348.122 744.545 347.455H741.545ZM741.456 347.986C741.391 348.107 741.325 348.171 741.261 348.213L742.91 350.719C743.421 350.382 743.818 349.931 744.101 349.401L741.456 347.986ZM741.253 348.218C741.105 348.317 740.944 348.39 740.764 348.439L741.554 351.334C742.041 351.201 742.497 350.994 742.917 350.714L741.253 348.218ZM739.659 349.886V350H742.659V349.886H739.659ZM741.064 351.497C741.125 351.501 741.244 351.524 741.432 351.643L743.034 349.107C742.503 348.771 741.905 348.545 741.255 348.503L741.064 351.497ZM741.432 351.643C741.555 351.721 741.695 351.854 741.834 352.096L744.439 350.608C744.093 350.003 743.63 349.483 743.034 349.107L741.432 351.643ZM741.834 352.096C741.918 352.243 742 352.491 742 352.909H745C745 352.1 744.84 351.31 744.439 350.608L741.834 352.096ZM742 352.909C742 353.256 741.924 353.521 741.799 353.741L744.406 355.225C744.811 354.513 745 353.729 745 352.909H742ZM741.799 353.741C741.711 353.895 741.548 354.072 741.201 354.237L742.492 356.945C743.289 356.565 743.963 356.003 744.406 355.225L741.799 353.741ZM741.201 354.237C740.9 354.38 740.399 354.5 739.614 354.5V357.5C740.661 357.5 741.649 357.347 742.492 356.945L741.201 354.237ZM739.614 354.5H735.409V357.5H739.614V354.5ZM736.818 356.25H739.614V353.25H736.818V356.25ZM739.614 356.25C740.652 356.25 741.782 356.064 742.59 355.319L740.557 353.113C740.585 353.088 740.559 353.126 740.4 353.169C740.238 353.213 739.985 353.25 739.614 353.25V356.25ZM742.591 355.319C743.276 354.687 743.659 353.857 743.659 352.909H740.659C740.659 352.969 740.649 352.995 740.644 353.006C740.638 353.019 740.619 353.056 740.557 353.113L742.591 355.319ZM743.659 352.909C743.659 352.246 743.486 351.614 743.143 351.044L740.573 352.592C740.631 352.689 740.659 352.784 740.659 352.909H743.659ZM743.147 351.051C742.797 350.464 742.304 350.011 741.714 349.692L740.286 352.331C740.438 352.413 740.517 352.499 740.569 352.586L743.147 351.051ZM741.724 349.698C741.091 349.349 740.393 349.205 739.682 349.205V352.205C739.986 352.205 740.167 352.265 740.276 352.325L741.724 349.698ZM739.682 349.205H736.818V352.205H739.682V349.205ZM735.318 350.705V354.75H738.318V350.705H735.318ZM736.818 350.977H739.432V347.977H736.818V350.977ZM739.432 350.977C740.057 350.977 740.669 350.853 741.238 350.575L739.921 347.88C739.808 347.935 739.655 347.977 739.432 347.977V350.977ZM741.232 350.578C741.806 350.3 742.291 349.891 742.648 349.351L740.147 347.694C740.103 347.761 740.042 347.821 739.927 347.877L741.232 350.578ZM742.641 349.362C743.032 348.782 743.205 348.126 743.205 347.455H740.205C740.205 347.601 740.172 347.657 740.154 347.684L742.641 349.362ZM743.205 347.455C743.205 346.552 742.873 345.735 742.231 345.093L740.11 347.214C740.18 347.284 740.205 347.334 740.205 347.455H743.205ZM742.237 345.098C741.481 344.334 740.443 344.114 739.477 344.114V347.114C740.057 347.114 740.148 347.253 740.104 347.208L742.237 345.098ZM739.477 344.114H736.818V347.114H739.477V344.114ZM735.318 345.614V349.477H738.318V345.614H735.318Z" fill="white"/>
<path d="M735.409 356V344.364H739.477C740.288 344.364 740.956 344.504 741.483 344.784C742.009 345.061 742.402 345.434 742.659 345.903C742.917 346.369 743.045 346.886 743.045 347.455C743.045 347.955 742.956 348.367 742.778 348.693C742.604 349.019 742.373 349.277 742.085 349.466C741.801 349.655 741.492 349.795 741.159 349.886V350C741.515 350.023 741.873 350.148 742.233 350.375C742.593 350.602 742.894 350.928 743.136 351.352C743.379 351.777 743.5 352.295 743.5 352.909C743.5 353.492 743.367 354.017 743.102 354.483C742.837 354.949 742.419 355.318 741.847 355.591C741.275 355.864 740.53 356 739.614 356H735.409ZM736.818 354.75H739.614C740.534 354.75 741.188 354.572 741.574 354.216C741.964 353.856 742.159 353.42 742.159 352.909C742.159 352.515 742.059 352.152 741.858 351.818C741.657 351.481 741.371 351.212 741 351.011C740.629 350.807 740.189 350.705 739.682 350.705H736.818V354.75ZM736.818 349.477H739.432C739.856 349.477 740.239 349.394 740.58 349.227C740.924 349.061 741.197 348.826 741.398 348.523C741.602 348.22 741.705 347.864 741.705 347.455C741.705 346.943 741.527 346.509 741.17 346.153C740.814 345.794 740.25 345.614 739.477 345.614H736.818V349.477Z" fill="#1565C0"/>
<path d="M260.443 112.256C260.443 115.018 258.205 117.256 255.443 117.256C252.682 117.256 250.443 115.018 250.443 112.256C250.443 109.495 252.682 107.256 255.443 107.256C258.205 107.256 260.443 109.495 260.443 112.256Z" fill="#1565C0"/>
<path d="M260.443 112.256C260.443 115.018 258.205 117.256 255.443 117.256C252.682 117.256 250.443 115.018 250.443 112.256C250.443 109.495 252.682 107.256 255.443 107.256C258.205 107.256 260.443 109.495 260.443 112.256Z" stroke="black" stroke-miterlimit="10" stroke-linecap="round" stroke-linejoin="round"/>
<path d="M264 101H260.409V89.3636H264.159C265.288 89.3636 266.254 89.5966 267.057 90.0625C267.86 90.5246 268.475 91.1894 268.903 92.0568C269.331 92.9205 269.545 93.9545 269.545 95.1591C269.545 96.3712 269.33 97.4148 268.898 98.2898C268.466 99.161 267.837 99.8314 267.011 100.301C266.186 100.767 265.182 101 264 101ZM261.818 99.75H263.909C264.871 99.75 265.669 99.5644 266.301 99.1932C266.934 98.822 267.405 98.2936 267.716 97.608C268.027 96.9223 268.182 96.1061 268.182 95.1591C268.182 94.2197 268.028 93.411 267.722 92.733C267.415 92.0511 266.956 91.5284 266.347 91.1648C265.737 90.7973 264.977 90.6136 264.068 90.6136H261.818V99.75Z" fill="#1565C0"/>
<path d="M260.409 101H258.909L260.409 102.5V101ZM260.409 89.3636V87.8636L258.909 89.3636H260.409ZM267.057 90.0625L266.304 91.3599L266.309 91.3626L267.057 90.0625ZM268.903 92.0568L267.558 92.7206L267.559 92.7229L268.903 92.0568ZM268.898 98.2898L270.242 98.9559L270.243 98.9536L268.898 98.2898ZM267.011 100.301L267.748 101.608L267.753 101.605L267.011 100.301ZM261.818 99.75H260.318L261.818 101.25V99.75ZM266.301 99.1932L265.542 97.8995L266.301 99.1932ZM267.722 92.733L266.354 93.3485L266.355 93.3514L267.722 92.733ZM266.347 91.1648L265.572 92.4496L265.578 92.4531L266.347 91.1648ZM261.818 90.6136V89.1136L260.318 90.6136H261.818ZM264 99.5H260.409V102.5H264V99.5ZM261.909 101V89.3636H258.909V101H261.909ZM260.409 90.8636H264.159V87.8636H260.409V90.8636ZM264.159 90.8636C265.08 90.8636 265.774 91.0526 266.304 91.3599L267.81 88.7651C266.733 88.1406 265.495 87.8636 264.159 87.8636V90.8636ZM266.309 91.3626C266.842 91.6697 267.256 92.1073 267.558 92.7206L270.249 91.3931C269.695 90.2715 268.877 89.3795 267.805 88.7624L266.309 91.3626ZM267.559 92.7229C267.862 93.3343 268.045 94.1293 268.045 95.1591H271.045C271.045 93.7798 270.8 92.5066 270.247 91.3907L267.559 92.7229ZM268.045 95.1591C268.045 96.1955 267.861 97.0013 267.553 97.6259L270.243 98.9536C270.798 97.8282 271.045 96.5469 271.045 95.1591H268.045ZM267.554 97.6236C267.251 98.2337 266.829 98.6791 266.27 98.9973L267.753 101.605C268.845 100.984 269.68 100.088 270.242 98.9559L267.554 97.6236ZM266.274 98.9947C265.722 99.3061 264.986 99.5 264 99.5V102.5C265.377 102.5 266.649 102.228 267.748 101.608L266.274 98.9947ZM261.818 101.25H263.909V98.25H261.818V101.25ZM263.909 101.25C265.057 101.25 266.136 101.029 267.06 100.487L265.542 97.8995C265.201 98.0998 264.685 98.25 263.909 98.25V101.25ZM267.06 100.487C267.967 99.9545 268.647 99.1869 269.082 98.227L266.35 96.989C266.163 97.4003 265.9 97.6894 265.542 97.8995L267.06 100.487ZM269.082 98.227C269.501 97.3035 269.682 96.2662 269.682 95.1591H266.682C266.682 95.9459 266.552 96.5412 266.35 96.989L269.082 98.227ZM269.682 95.1591C269.682 94.0605 269.503 93.0308 269.088 92.1146L266.355 93.3514C266.554 93.7912 266.682 94.3789 266.682 95.1591H269.682ZM269.089 92.1174C268.664 91.1709 268.003 90.4062 267.115 89.8764L265.578 92.4531C265.91 92.6506 266.166 92.9314 266.354 93.3485L269.089 92.1174ZM267.121 89.8799C266.221 89.3378 265.176 89.1136 264.068 89.1136V92.1136C264.779 92.1136 265.253 92.2569 265.573 92.4496L267.121 89.8799ZM264.068 89.1136H261.818V92.1136H264.068V89.1136ZM260.318 90.6136V99.75H263.318V90.6136H260.318Z" fill="white"/>
<path d="M264 101H260.409V89.3636H264.159C265.288 89.3636 266.254 89.5966 267.057 90.0625C267.86 90.5246 268.475 91.1894 268.903 92.0568C269.331 92.9205 269.545 93.9545 269.545 95.1591C269.545 96.3712 269.33 97.4148 268.898 98.2898C268.466 99.161 267.837 99.8314 267.011 100.301C266.186 100.767 265.182 101 264 101ZM261.818 99.75H263.909C264.871 99.75 265.669 99.5644 266.301 99.1932C266.934 98.822 267.405 98.2936 267.716 97.608C268.027 96.9223 268.182 96.1061 268.182 95.1591C268.182 94.2197 268.028 93.411 267.722 92.733C267.415 92.0511 266.956 91.5284 266.347 91.1648C265.737 90.7973 264.977 90.6136 264.068 90.6136H261.818V99.75Z" fill="#1565C0"/>
<path d="M914.033 104.754C914.033 106.963 912.242 108.754 910.033 108.754C907.824 108.754 906.033 106.963 906.033 104.754C906.033 102.545 907.824 100.754 910.033 100.754C912.242 100.754 914.033 102.545 914.033 104.754Z" fill="#616161"/>
<path d="M914.033 104.754C914.033 106.963 912.242 108.754 910.033 108.754C907.824 108.754 906.033 106.963 906.033 104.754C906.033 102.545 907.824 100.754 910.033 100.754C912.242 100.754 914.033 102.545 914.033 104.754Z" stroke="black" stroke-miterlimit="10" stroke-linecap="round" stroke-linejoin="round"/>
<path d="M924.773 88H923.364C923.28 87.5947 923.134 87.2386 922.926 86.9318C922.722 86.625 922.472 86.3674 922.176 86.1591C921.884 85.947 921.561 85.7879 921.205 85.6818C920.848 85.5758 920.477 85.5227 920.091 85.5227C919.386 85.5227 918.748 85.7008 918.176 86.0568C917.608 86.4129 917.155 86.9375 916.818 87.6307C916.485 88.3239 916.318 89.1742 916.318 90.1818C916.318 91.1894 916.485 92.0398 916.818 92.733C917.155 93.4261 917.608 93.9508 918.176 94.3068C918.748 94.6629 919.386 94.8409 920.091 94.8409C920.477 94.8409 920.848 94.7879 921.205 94.6818C921.561 94.5758 921.884 94.4186 922.176 94.2102C922.472 93.9981 922.722 93.7386 922.926 93.4318C923.134 93.1212 923.28 92.7652 923.364 92.3636H924.773C924.667 92.9583 924.473 93.4905 924.193 93.9602C923.913 94.4299 923.564 94.8295 923.148 95.1591C922.731 95.4848 922.263 95.733 921.744 95.9034C921.229 96.0739 920.678 96.1591 920.091 96.1591C919.098 96.1591 918.216 95.9167 917.443 95.4318C916.67 94.947 916.063 94.2576 915.619 93.3636C915.176 92.4697 914.955 91.4091 914.955 90.1818C914.955 88.9545 915.176 87.8939 915.619 87C916.063 86.1061 916.67 85.4167 917.443 84.9318C918.216 84.447 919.098 84.2045 920.091 84.2045C920.678 84.2045 921.229 84.2898 921.744 84.4602C922.263 84.6307 922.731 84.8807 923.148 85.2102C923.564 85.536 923.913 85.9337 924.193 86.4034C924.473 86.8693 924.667 87.4015 924.773 88Z" fill="#616161"/>
<path d="M924.773 88V89.5L926.25 87.7383L924.773 88ZM923.364 88L921.894 88.3021L923.364 89.5V88ZM922.926 86.9318L921.678 87.7639L921.685 87.7744L922.926 86.9318ZM922.176 86.1591L921.294 87.3722L921.312 87.385L922.176 86.1591ZM921.205 85.6818L920.776 87.1194L920.776 87.1194L921.205 85.6818ZM918.176 86.0568L917.383 84.7834L917.38 84.7858L918.176 86.0568ZM916.818 87.6307L915.469 86.9746L915.466 86.9806L916.818 87.6307ZM916.818 92.733L915.466 93.383L915.469 93.389L916.818 92.733ZM918.176 94.3068L917.38 95.5779L917.383 95.5802L918.176 94.3068ZM921.205 94.6818L920.776 93.2442L920.776 93.2442L921.205 94.6818ZM922.176 94.2102L923.048 95.4308L923.051 95.4287L922.176 94.2102ZM922.926 93.4318L921.68 92.5963L921.678 92.5998L922.926 93.4318ZM923.364 92.3636V90.8636L921.895 92.0588L923.364 92.3636ZM924.773 92.3636L926.249 92.627L924.773 90.8636V92.3636ZM924.193 93.9602L922.905 93.1915L922.905 93.1915L924.193 93.9602ZM923.148 95.1591L924.072 96.3408L924.078 96.3356L923.148 95.1591ZM921.744 95.9034L921.276 94.4783L921.273 94.4793L921.744 95.9034ZM917.443 95.4318L916.646 96.7024L916.646 96.7024L917.443 95.4318ZM915.619 93.3636L916.963 92.6974L916.963 92.6974L915.619 93.3636ZM915.619 87L914.275 86.3337L915.619 87ZM921.744 84.4602L921.273 85.8843L921.276 85.8853L921.744 84.4602ZM923.148 85.2102L922.217 86.3867L922.224 86.3919L923.148 85.2102ZM924.193 86.4034L922.905 87.1721L922.908 87.1767L924.193 86.4034ZM924.773 86.5H923.364V89.5H924.773V86.5ZM924.833 87.6979C924.714 87.1215 924.499 86.5773 924.167 86.0892L921.685 87.7744C921.77 87.9 921.846 88.0679 921.894 88.3021L924.833 87.6979ZM924.174 86.0998C923.869 85.6423 923.49 85.2502 923.041 84.9332L921.312 87.385C921.453 87.4846 921.574 87.6077 921.678 87.7639L924.174 86.0998ZM923.058 84.946C922.625 84.6308 922.147 84.3974 921.633 84.2442L920.776 87.1194C920.974 87.1784 921.144 87.2631 921.294 87.3722L923.058 84.946ZM921.633 84.2442C921.132 84.0952 920.616 84.0227 920.091 84.0227V87.0227C920.338 87.0227 920.565 87.0564 920.776 87.1194L921.633 84.2442ZM920.091 84.0227C919.12 84.0227 918.204 84.2723 917.383 84.7834L918.969 87.3302C919.292 87.1292 919.653 87.0227 920.091 87.0227V84.0227ZM917.38 84.7858C916.539 85.3123 915.91 86.0674 915.469 86.9746L918.167 88.2867C918.4 87.8076 918.677 87.5134 918.973 87.3279L917.38 84.7858ZM915.466 86.9806C915.01 87.9294 914.818 89.0161 914.818 90.1818H917.818C917.818 89.3324 917.96 88.7184 918.17 88.2807L915.466 86.9806ZM914.818 90.1818C914.818 91.3475 915.01 92.4343 915.466 93.383L918.17 92.0829C917.96 91.6453 917.818 91.0313 917.818 90.1818H914.818ZM915.469 93.389C915.91 94.2963 916.539 95.0513 917.38 95.5779L918.973 93.0358C918.677 92.8502 918.4 92.556 918.167 92.0769L915.469 93.389ZM917.383 95.5802C918.204 96.0913 919.12 96.3409 920.091 96.3409V93.3409C919.653 93.3409 919.292 93.2344 918.969 93.0334L917.383 95.5802ZM920.091 96.3409C920.616 96.3409 921.132 96.2685 921.633 96.1194L920.776 93.2442C920.565 93.3073 920.338 93.3409 920.091 93.3409V96.3409ZM921.633 96.1194C922.142 95.9678 922.617 95.739 923.048 95.4308L921.304 92.9896C921.152 93.0981 920.979 93.1837 920.776 93.2442L921.633 96.1194ZM923.051 95.4287C923.495 95.1098 923.871 94.7188 924.174 94.2639L921.678 92.5998C921.572 92.7585 921.448 92.8864 921.301 92.9917L923.051 95.4287ZM924.172 94.2674C924.498 93.781 924.713 93.2413 924.832 92.6685L921.895 92.0588C921.847 92.289 921.771 92.4614 921.68 92.5963L924.172 94.2674ZM923.364 93.8636H924.773V90.8636H923.364V93.8636ZM923.296 92.1003C923.218 92.5351 923.083 92.8929 922.905 93.1915L925.481 94.7289C925.864 94.0881 926.115 93.3816 926.249 92.627L923.296 92.1003ZM922.905 93.1915C922.715 93.5094 922.487 93.7695 922.217 93.9826L924.078 96.3356C924.642 95.8896 925.11 95.3504 925.481 94.7289L922.905 93.1915ZM922.224 93.9774C921.948 94.1928 921.636 94.3602 921.276 94.4783L922.212 97.3285C922.891 97.1057 923.514 96.7769 924.072 96.3408L922.224 93.9774ZM921.273 94.4793C920.922 94.5955 920.531 94.6591 920.091 94.6591V97.6591C920.825 97.6591 921.536 97.5522 922.216 97.3275L921.273 94.4793ZM920.091 94.6591C919.355 94.6591 918.753 94.4831 918.24 94.1612L916.646 96.7024C917.678 97.3503 918.842 97.6591 920.091 97.6591V94.6591ZM918.24 94.1612C917.724 93.8372 917.295 93.3673 916.963 92.6974L914.275 94.0299C914.83 95.1478 915.617 96.0568 916.646 96.7024L918.24 94.1612ZM916.963 92.6974C916.644 92.0527 916.455 91.2301 916.455 90.1818H913.455C913.455 91.5881 913.709 92.8867 914.275 94.0299L916.963 92.6974ZM916.455 90.1818C916.455 89.1335 916.644 88.3109 916.963 87.6663L914.275 86.3337C913.709 87.4769 913.455 88.7756 913.455 90.1818H916.455ZM916.963 87.6663C917.295 86.9963 917.724 86.5265 918.24 86.2024L916.646 83.6612C915.617 84.3069 914.83 85.2158 914.275 86.3337L916.963 87.6663ZM918.24 86.2024C918.753 85.8806 919.355 85.7045 920.091 85.7045V82.7045C918.842 82.7045 917.678 83.0134 916.646 83.6612L918.24 86.2024ZM920.091 85.7045C920.531 85.7045 920.922 85.7681 921.273 85.8843L922.216 83.0362C921.536 82.8114 920.825 82.7045 920.091 82.7045V85.7045ZM921.276 85.8853C921.632 86.0023 921.943 86.1697 922.217 86.3867L924.078 84.0337C923.519 83.5917 922.894 83.259 922.212 83.0351L921.276 85.8853ZM922.224 86.3919C922.49 86.5998 922.716 86.8558 922.905 87.1721L925.481 85.6347C925.109 85.0116 924.639 84.4722 924.072 84.0285L922.224 86.3919ZM922.908 87.1767C923.083 87.4678 923.218 87.8229 923.296 88.2617L926.25 87.7383C926.115 86.9802 925.864 86.2708 925.478 85.6301L922.908 87.1767Z" fill="white"/>
<path d="M924.773 88H923.364C923.28 87.5947 923.134 87.2386 922.926 86.9318C922.722 86.625 922.472 86.3674 922.176 86.1591C921.884 85.947 921.561 85.7879 921.205 85.6818C920.848 85.5758 920.477 85.5227 920.091 85.5227C919.386 85.5227 918.748 85.7008 918.176 86.0568C917.608 86.4129 917.155 86.9375 916.818 87.6307C916.485 88.3239 916.318 89.1742 916.318 90.1818C916.318 91.1894 916.485 92.0398 916.818 92.733C917.155 93.4261 917.608 93.9508 918.176 94.3068C918.748 94.6629 919.386 94.8409 920.091 94.8409C920.477 94.8409 920.848 94.7879 921.205 94.6818C921.561 94.5758 921.884 94.4186 922.176 94.2102C922.472 93.9981 922.722 93.7386 922.926 93.4318C923.134 93.1212 923.28 92.7652 923.364 92.3636H924.773C924.667 92.9583 924.473 93.4905 924.193 93.9602C923.913 94.4299 923.564 94.8295 923.148 95.1591C922.731 95.4848 922.263 95.733 921.744 95.9034C921.229 96.0739 920.678 96.1591 920.091 96.1591C919.098 96.1591 918.216 95.9167 917.443 95.4318C916.67 94.947 916.063 94.2576 915.619 93.3636C915.176 92.4697 914.955 91.4091 914.955 90.1818C914.955 88.9545 915.176 87.8939 915.619 87C916.063 86.1061 916.67 85.4167 917.443 84.9318C918.216 84.447 919.098 84.2045 920.091 84.2045C920.678 84.2045 921.229 84.2898 921.744 84.4602C922.263 84.6307 922.731 84.8807 923.148 85.2102C923.564 85.536 923.913 85.9337 924.193 86.4034C924.473 86.8693 924.667 87.4015 924.773 88Z" fill="#616161"/>
<path d="M262.428 372.745C262.428 374.954 260.637 376.745 258.428 376.745C256.219 376.745 254.428 374.954 254.428 372.745C254.428 370.535 256.219 368.745 258.428 368.745C260.637 368.745 262.428 370.535 262.428 372.745Z" fill="#616161"/>
<path d="M262.428 372.745C262.428 374.954 260.637 376.745 258.428 376.745C256.219 376.745 254.428 374.954 254.428 372.745C254.428 370.535 256.219 368.745 258.428 368.745C260.637 368.745 262.428 370.535 262.428 372.745Z" stroke="black" stroke-miterlimit="10" stroke-linecap="round" stroke-linejoin="round"/>
<path d="M263.409 364V352.364H270.432V353.614H264.818V357.545H270.068V358.795H264.818V362.75H270.523V364H263.409Z" fill="#616161"/>
<path d="M263.409 364H261.909L263.409 365.5V364ZM263.409 352.364V350.864L261.909 352.364H263.409ZM270.432 352.364H271.932L270.432 350.864V352.364ZM270.432 353.614V355.114L271.932 353.614H270.432ZM264.818 353.614V352.114L263.318 353.614H264.818ZM264.818 357.545H263.318L264.818 359.045V357.545ZM270.068 357.545H271.568L270.068 356.045V357.545ZM270.068 358.795V360.295L271.568 358.795H270.068ZM264.818 358.795V357.295L263.318 358.795H264.818ZM264.818 362.75H263.318L264.818 364.25V362.75ZM270.523 362.75H272.023L270.523 361.25V362.75ZM270.523 364V365.5L272.023 364H270.523ZM264.909 364V352.364H261.909V364H264.909ZM263.409 353.864H270.432V350.864H263.409V353.864ZM268.932 352.364V353.614H271.932V352.364H268.932ZM270.432 352.114H264.818V355.114H270.432V352.114ZM263.318 353.614V357.545H266.318V353.614H263.318ZM264.818 359.045H270.068V356.045H264.818V359.045ZM268.568 357.545V358.795H271.568V357.545H268.568ZM270.068 357.295H264.818V360.295H270.068V357.295ZM263.318 358.795V362.75H266.318V358.795H263.318ZM264.818 364.25H270.523V361.25H264.818V364.25ZM269.023 362.75V364H272.023V362.75H269.023ZM270.523 362.5H263.409V365.5H270.523V362.5Z" fill="white"/>
<path d="M263.409 364V352.364H270.432V353.614H264.818V357.545H270.068V358.795H264.818V362.75H270.523V364H263.409Z" fill="#616161"/>
<path d="M917.018 365.242C917.018 367.451 915.227 369.242 913.018 369.242C910.808 369.242 909.018 367.451 909.018 365.242C909.018 363.033 910.808 361.242 913.018 361.242C915.227 361.242 917.018 363.033 917.018 365.242Z" fill="#616161"/>
<path d="M917.018 365.242C917.018 367.451 915.227 369.242 913.018 369.242C910.808 369.242 909.018 367.451 909.018 365.242C909.018 363.033 910.808 361.242 913.018 361.242C915.227 361.242 917.018 363.033 917.018 365.242Z" stroke="black" stroke-miterlimit="10" stroke-linecap="round" stroke-linejoin="round"/>
<path d="M918.409 356V344.364H925.386V345.614H919.818V349.545H924.864V350.795H919.818V356H918.409Z" fill="#616161"/>
<path d="M918.409 356H916.909L918.409 357.5V356ZM918.409 344.364V342.864L916.909 344.364H918.409ZM925.386 344.364H926.886L925.386 342.864V344.364ZM925.386 345.614V347.114L926.886 345.614H925.386ZM919.818 345.614V344.114L918.318 345.614H919.818ZM919.818 349.545H918.318L919.818 351.045V349.545ZM924.864 349.545H926.364L924.864 348.045V349.545ZM924.864 350.795V352.295L926.364 350.795H924.864ZM919.818 350.795V349.295L918.318 350.795H919.818ZM919.818 356V357.5L921.318 356H919.818ZM919.909 356V344.364H916.909V356H919.909ZM918.409 345.864H925.386V342.864H918.409V345.864ZM923.886 344.364V345.614H926.886V344.364H923.886ZM925.386 344.114H919.818V347.114H925.386V344.114ZM918.318 345.614V349.545H921.318V345.614H918.318ZM919.818 351.045H924.864V348.045H919.818V351.045ZM923.364 349.545V350.795H926.364V349.545H923.364ZM924.864 349.295H919.818V352.295H924.864V349.295ZM918.318 350.795V356H921.318V350.795H918.318ZM919.818 354.5H918.409V357.5H919.818V354.5Z" fill="white"/>
<path d="M918.409 356V344.364H925.386V345.614H919.818V349.545H924.864V350.795H919.818V356H918.409Z" fill="#616161"/>
</g>
<defs>
<clipPath id="clip0_358_141">
<rect width="999" height="452" fill="white"/>
</clipPath>
</defs>
</svg>
