<svg width="1014" height="484" viewBox="0 0 1014 484" fill="none" xmlns="http://www.w3.org/2000/svg">
<g clip-path="url(#clip0_358_265)">
<path d="M1014 0H0V484H1014V0Z" fill="white"/>
<path d="M169.07 47.1113C121.702 105.803 89.0754 174.983 73.9199 248.866" stroke="#616161" stroke-opacity="0.8" stroke-width="2.5" stroke-miterlimit="10" stroke-linecap="round" stroke-linejoin="round"/>
<path fill-rule="evenodd" clip-rule="evenodd" d="M536.665 343.788L545.105 324.326L525.643 315.887L517.203 335.349L536.665 343.788Z" fill="black" fill-opacity="0.0980392"/>
<path d="M536.665 343.788L545.105 324.326L525.643 315.887L517.203 335.349L536.665 343.788Z" stroke="black" stroke-opacity="0.6" stroke-width="2" stroke-miterlimit="10" stroke-linecap="round" stroke-linejoin="round"/>
<path fill-rule="evenodd" clip-rule="evenodd" d="M578.574 247.149L559.111 238.709L550.672 258.171L570.134 266.611L578.574 247.149Z" fill="black" fill-opacity="0.0980392"/>
<path d="M578.574 247.149L559.111 238.709L550.672 258.171L570.134 266.611L578.574 247.149Z" stroke="black" stroke-opacity="0.6" stroke-width="2" stroke-miterlimit="10" stroke-linecap="round" stroke-linejoin="round"/>
<path fill-rule="evenodd" clip-rule="evenodd" d="M801.43 155.854H780.217V177.067H801.43V155.854Z" fill="black" fill-opacity="0.0980392"/>
<path d="M801.43 155.854H780.217V177.067H801.43V155.854Z" stroke="black" stroke-opacity="0.6" stroke-width="2" stroke-miterlimit="10" stroke-linecap="round" stroke-linejoin="round"/>
<path fill-rule="evenodd" clip-rule="evenodd" d="M536.666 155.854V177.067H557.879V155.854H536.666Z" fill="black" fill-opacity="0.0980392"/>
<path d="M536.666 155.854V177.067H557.879V155.854H536.666Z" stroke="black" stroke-opacity="0.6" stroke-width="2" stroke-miterlimit="10" stroke-linecap="round" stroke-linejoin="round"/>
<path d="M536.666 343.789H801.43" stroke="#00CC00" stroke-opacity="0.8" stroke-width="2.5" stroke-miterlimit="10" stroke-linecap="round" stroke-linejoin="round"/>
<path d="M103.279 155.854L536.666 343.789" stroke="#FF0000" stroke-opacity="0.8" stroke-width="2.5" stroke-miterlimit="10" stroke-linecap="round" stroke-linejoin="round"/>
<path d="M103.279 155.854L145.186 59.2139" stroke="#FF0000" stroke-opacity="0.8" stroke-width="2.5" stroke-miterlimit="10" stroke-linecap="round" stroke-linejoin="round"/>
<path d="M145.186 59.2139L368.042 155.854" stroke="#FF0000" stroke-opacity="0.8" stroke-width="2.5" stroke-miterlimit="10" stroke-linecap="round" stroke-linejoin="round"/>
<path d="M368.043 155.854L578.574 247.149" stroke="#FF0000" stroke-opacity="0.8" stroke-width="2.5" stroke-miterlimit="10" stroke-linecap="round" stroke-linejoin="round"/>
<path d="M578.572 247.149L801.429 343.789" stroke="#616161" stroke-opacity="0.8" stroke-width="2.5" stroke-miterlimit="10" stroke-linecap="round" stroke-linejoin="round"/>
<path d="M536.666 343.789V155.854" stroke="#00CC00" stroke-opacity="0.8" stroke-width="2.5" stroke-miterlimit="10" stroke-linecap="round" stroke-linejoin="round"/>
<path d="M801.43 343.789V155.854" stroke="#00CC00" stroke-opacity="0.8" stroke-width="2.5" stroke-miterlimit="10" stroke-linecap="round" stroke-linejoin="round"/>
<path d="M578.573 247.149L536.666 343.789" stroke="#FF0000" stroke-opacity="0.8" stroke-width="2.5" stroke-miterlimit="10" stroke-linecap="round" stroke-linejoin="round"/>
<path d="M0.046875 155.854H536.666" stroke="#616161" stroke-opacity="0.8" stroke-width="2.5" stroke-miterlimit="10" stroke-linecap="round" stroke-linejoin="round"/>
<path d="M536.666 155.854H801.43" stroke="#00CC00" stroke-opacity="0.8" stroke-width="2.5" stroke-miterlimit="10" stroke-linecap="round" stroke-linejoin="round"/>
<path d="M801.43 155.854H1014.19" stroke="#616161" stroke-opacity="0.8" stroke-width="2.5" stroke-miterlimit="10" stroke-linecap="round" stroke-linejoin="round"/>
<path d="M656.727 339.942L656.357 348.812" stroke="#616161" stroke-opacity="0.8" stroke-width="2.5" stroke-miterlimit="10" stroke-linecap="round" stroke-linejoin="round"/>
<path d="M240.139 150.413L239.77 160.392" stroke="#616161" stroke-opacity="0.8" stroke-width="2.5" stroke-miterlimit="10" stroke-linecap="round" stroke-linejoin="round"/>
<path d="M235.139 150.413L234.77 159.283" stroke="#616161" stroke-opacity="0.8" stroke-width="2.5" stroke-miterlimit="10" stroke-linecap="round" stroke-linejoin="round"/>
<path d="M652.541 339.613L652.172 349.592" stroke="#616161" stroke-opacity="0.8" stroke-width="2.5" stroke-miterlimit="10" stroke-linecap="round" stroke-linejoin="round"/>
<path d="M120.85 104.657L126.729 109.063" stroke="#616161" stroke-opacity="0.8" stroke-width="2.5" stroke-miterlimit="10" stroke-linecap="round" stroke-linejoin="round"/>
<path d="M120.85 104.657L126.729 109.063" stroke="#616161" stroke-opacity="0.8" stroke-width="2.5" stroke-miterlimit="10" stroke-linecap="round" stroke-linejoin="round"/>
<path d="M120.85 104.657L126.729 109.063" stroke="#616161" stroke-opacity="0.8" stroke-width="2.5" stroke-miterlimit="10" stroke-linecap="round" stroke-linejoin="round"/>
<path d="M120.85 104.657L126.729 109.063" stroke="#616161" stroke-opacity="0.8" stroke-width="2.5" stroke-miterlimit="10" stroke-linecap="round" stroke-linejoin="round"/>
<path d="M120.85 104.657L126.729 109.063" stroke="#616161" stroke-opacity="0.8" stroke-width="2.5" stroke-miterlimit="10" stroke-linecap="round" stroke-linejoin="round"/>
<path d="M551.617 296.697L561.611 302.36" stroke="#616161" stroke-opacity="0.8" stroke-width="2.5" stroke-miterlimit="10" stroke-linecap="round" stroke-linejoin="round"/>
<path d="M541.666 343.789C541.666 346.55 539.427 348.789 536.666 348.789C533.905 348.789 531.666 346.55 531.666 343.789C531.666 341.027 533.905 338.789 536.666 338.789C539.427 338.789 541.666 341.027 541.666 343.789Z" fill="#1565C0"/>
<path d="M541.666 343.789C541.666 346.55 539.427 348.789 536.666 348.789C533.905 348.789 531.666 346.55 531.666 343.789C531.666 341.027 533.905 338.789 536.666 338.789C539.427 338.789 541.666 341.027 541.666 343.789Z" stroke="black" stroke-miterlimit="10" stroke-linecap="round" stroke-linejoin="round"/>
<path d="M542.886 332.5H541.409L545.682 320.864H547.136L551.409 332.5H549.932L546.455 322.705H546.364L542.886 332.5ZM543.432 327.955H549.386V329.205H543.432V327.955Z" fill="#1565C0"/>
<path d="M542.886 332.5V334L544.3 333.002L542.886 332.5ZM541.409 332.5L540.001 331.983L541.409 334V332.5ZM545.682 320.864V319.364L544.274 320.347L545.682 320.864ZM547.136 320.864L548.544 320.347L547.136 319.364V320.864ZM551.409 332.5V334L552.817 331.983L551.409 332.5ZM549.932 332.5L548.518 333.002L549.932 334V332.5ZM546.455 322.705L547.868 322.203L546.455 321.205V322.705ZM546.364 322.705V321.205L544.95 322.203L546.364 322.705ZM543.432 327.955V326.455L541.932 327.955H543.432ZM549.386 327.955H550.886L549.386 326.455V327.955ZM549.386 329.205V330.705L550.886 329.205H549.386ZM543.432 329.205H541.932L543.432 330.705V329.205ZM542.886 331H541.409V334H542.886V331ZM542.817 333.017L547.09 321.381L544.274 320.347L540.001 331.983L542.817 333.017ZM545.682 322.364H547.136V319.364H545.682V322.364ZM545.728 321.381L550.001 333.017L552.817 331.983L548.544 320.347L545.728 321.381ZM551.409 331H549.932V334H551.409V331ZM551.345 331.998L547.868 322.203L545.041 323.206L548.518 333.002L551.345 331.998ZM546.455 321.205H546.364V324.205H546.455V321.205ZM544.95 322.203L541.473 331.998L544.3 333.002L547.777 323.206L544.95 322.203ZM543.432 329.455H549.386V326.455H543.432V329.455ZM547.886 327.955V329.205H550.886V327.955H547.886ZM549.386 327.705H543.432V330.705H549.386V327.705ZM544.932 329.205V327.955H541.932V329.205H544.932Z" fill="white"/>
<path d="M542.886 332.5H541.409L545.682 320.864H547.136L551.409 332.5H549.932L546.455 322.705H546.364L542.886 332.5ZM543.432 327.955H549.386V329.205H543.432V327.955Z" fill="#1565C0"/>
<path d="M806.43 343.789C806.43 346.55 804.191 348.789 801.43 348.789C798.668 348.789 796.43 346.55 796.43 343.789C796.43 341.027 798.668 338.789 801.43 338.789C804.191 338.789 806.43 341.027 806.43 343.789Z" fill="#1565C0"/>
<path d="M806.43 343.789C806.43 346.55 804.191 348.789 801.43 348.789C798.668 348.789 796.43 346.55 796.43 343.789C796.43 341.027 798.668 338.789 801.43 338.789C804.191 338.789 806.43 341.027 806.43 343.789Z" stroke="black" stroke-miterlimit="10" stroke-linecap="round" stroke-linejoin="round"/>
<path d="M806.409 332.5V320.864H810.477C811.288 320.864 811.956 321.004 812.483 321.284C813.009 321.561 813.402 321.934 813.659 322.403C813.917 322.869 814.045 323.386 814.045 323.955C814.045 324.455 813.956 324.867 813.778 325.193C813.604 325.519 813.373 325.777 813.085 325.966C812.801 326.155 812.492 326.295 812.159 326.386V326.5C812.515 326.523 812.873 326.648 813.233 326.875C813.593 327.102 813.894 327.428 814.136 327.852C814.379 328.277 814.5 328.795 814.5 329.409C814.5 329.992 814.367 330.517 814.102 330.983C813.837 331.449 813.419 331.818 812.847 332.091C812.275 332.364 811.53 332.5 810.614 332.5H806.409ZM807.818 331.25H810.614C811.534 331.25 812.188 331.072 812.574 330.716C812.964 330.356 813.159 329.92 813.159 329.409C813.159 329.015 813.059 328.652 812.858 328.318C812.657 327.981 812.371 327.712 812 327.511C811.629 327.307 811.189 327.205 810.682 327.205H807.818V331.25ZM807.818 325.977H810.432C810.856 325.977 811.239 325.894 811.58 325.727C811.924 325.561 812.197 325.326 812.398 325.023C812.602 324.72 812.705 324.364 812.705 323.955C812.705 323.443 812.527 323.009 812.17 322.653C811.814 322.294 811.25 322.114 810.477 322.114H807.818V325.977Z" fill="#1565C0"/>
<path d="M806.409 332.5H804.909L806.409 334V332.5ZM806.409 320.864V319.364L804.909 320.864H806.409ZM812.483 321.284L811.778 322.608L811.786 322.612L812.483 321.284ZM813.659 322.403L812.344 323.125L812.346 323.129L813.659 322.403ZM813.778 325.193L812.462 324.474L812.456 324.486L813.778 325.193ZM813.085 325.966L812.261 324.713L812.253 324.718L813.085 325.966ZM812.159 326.386L811.764 324.939L810.659 326.386H812.159ZM812.159 326.5H810.659L812.064 327.997L812.159 326.5ZM813.233 326.875L812.432 328.143L812.432 328.143L813.233 326.875ZM814.102 330.983L815.406 331.725L815.406 331.725L814.102 330.983ZM812.847 332.091L812.201 330.737L812.201 330.737L812.847 332.091ZM807.818 331.25H806.318L807.818 332.75V331.25ZM812.574 330.716L813.59 331.819L813.591 331.819L812.574 330.716ZM812.858 328.318L811.569 329.086L811.573 329.092L812.858 328.318ZM812 327.511L811.276 328.825L811.286 328.831L812 327.511ZM807.818 327.205V325.705L806.318 327.205H807.818ZM807.818 325.977H806.318L807.818 327.477V325.977ZM811.58 325.727L810.927 324.377L810.921 324.38L811.58 325.727ZM812.398 325.023L811.154 324.183L811.147 324.194L812.398 325.023ZM812.17 322.653L811.104 323.708L811.11 323.714L812.17 322.653ZM807.818 322.114V320.614L806.318 322.114H807.818ZM807.909 332.5V320.864H804.909V332.5H807.909ZM806.409 322.364H810.477V319.364H806.409V322.364ZM810.477 322.364C811.126 322.364 811.532 322.477 811.778 322.608L813.188 319.96C812.381 319.53 811.45 319.364 810.477 319.364V322.364ZM811.786 322.612C812.081 322.767 812.243 322.942 812.344 323.125L814.974 321.682C814.56 320.926 813.938 320.354 813.18 319.956L811.786 322.612ZM812.346 323.129C812.473 323.358 812.545 323.623 812.545 323.955H815.545C815.545 323.15 815.36 322.381 814.972 321.678L812.346 323.129ZM812.545 323.955C812.545 324.287 812.485 324.432 812.462 324.474L815.095 325.913C815.428 325.303 815.545 324.622 815.545 323.955H812.545ZM812.456 324.486C812.391 324.607 812.325 324.671 812.261 324.713L813.91 327.219C814.421 326.882 814.818 326.431 815.101 325.901L812.456 324.486ZM812.253 324.718C812.105 324.817 811.944 324.89 811.764 324.939L812.554 327.834C813.041 327.701 813.497 327.494 813.917 327.214L812.253 324.718ZM810.659 326.386V326.5H813.659V326.386H810.659ZM812.064 327.997C812.125 328.001 812.244 328.024 812.432 328.143L814.034 325.607C813.503 325.271 812.905 325.045 812.255 325.003L812.064 327.997ZM812.432 328.143C812.555 328.221 812.695 328.354 812.834 328.596L815.439 327.108C815.093 326.503 814.63 325.983 814.034 325.607L812.432 328.143ZM812.834 328.596C812.918 328.743 813 328.991 813 329.409H816C816 328.6 815.84 327.81 815.439 327.108L812.834 328.596ZM813 329.409C813 329.756 812.924 330.021 812.799 330.241L815.406 331.725C815.811 331.013 816 330.229 816 329.409H813ZM812.799 330.241C812.711 330.395 812.548 330.572 812.201 330.737L813.492 333.445C814.289 333.065 814.963 332.503 815.406 331.725L812.799 330.241ZM812.201 330.737C811.9 330.88 811.399 331 810.614 331V334C811.661 334 812.649 333.847 813.492 333.445L812.201 330.737ZM810.614 331H806.409V334H810.614V331ZM807.818 332.75H810.614V329.75H807.818V332.75ZM810.614 332.75C811.652 332.75 812.782 332.564 813.59 331.819L811.557 329.613C811.585 329.588 811.559 329.626 811.4 329.669C811.238 329.713 810.985 329.75 810.614 329.75V332.75ZM813.591 331.819C814.276 331.187 814.659 330.357 814.659 329.409H811.659C811.659 329.469 811.649 329.495 811.644 329.506C811.638 329.519 811.619 329.556 811.557 329.613L813.591 331.819ZM814.659 329.409C814.659 328.746 814.486 328.114 814.143 327.544L811.573 329.092C811.631 329.189 811.659 329.284 811.659 329.409H814.659ZM814.147 327.551C813.797 326.964 813.304 326.511 812.714 326.192L811.286 328.831C811.438 328.913 811.517 328.999 811.569 329.086L814.147 327.551ZM812.724 326.198C812.091 325.849 811.393 325.705 810.682 325.705V328.705C810.986 328.705 811.167 328.765 811.276 328.825L812.724 326.198ZM810.682 325.705H807.818V328.705H810.682V325.705ZM806.318 327.205V331.25H809.318V327.205H806.318ZM807.818 327.477H810.432V324.477H807.818V327.477ZM810.432 327.477C811.057 327.477 811.669 327.353 812.238 327.075L810.921 324.38C810.808 324.435 810.655 324.477 810.432 324.477V327.477ZM812.232 327.078C812.806 326.8 813.291 326.391 813.648 325.851L811.147 324.194C811.103 324.261 811.042 324.321 810.927 324.377L812.232 327.078ZM813.641 325.862C814.032 325.282 814.205 324.626 814.205 323.955H811.205C811.205 324.101 811.172 324.157 811.154 324.184L813.641 325.862ZM814.205 323.955C814.205 323.052 813.873 322.235 813.231 321.593L811.11 323.714C811.18 323.784 811.205 323.834 811.205 323.955H814.205ZM813.237 321.598C812.481 320.834 811.443 320.614 810.477 320.614V323.614C811.057 323.614 811.148 323.753 811.104 323.708L813.237 321.598ZM810.477 320.614H807.818V323.614H810.477V320.614ZM806.318 322.114V325.977H809.318V322.114H806.318Z" fill="white"/>
<path d="M806.409 332.5V320.864H810.477C811.288 320.864 811.956 321.004 812.483 321.284C813.009 321.561 813.402 321.934 813.659 322.403C813.917 322.869 814.045 323.386 814.045 323.955C814.045 324.455 813.956 324.867 813.778 325.193C813.604 325.519 813.373 325.777 813.085 325.966C812.801 326.155 812.492 326.295 812.159 326.386V326.5C812.515 326.523 812.873 326.648 813.233 326.875C813.593 327.102 813.894 327.428 814.136 327.852C814.379 328.277 814.5 328.795 814.5 329.409C814.5 329.992 814.367 330.517 814.102 330.983C813.837 331.449 813.419 331.818 812.847 332.091C812.275 332.364 811.53 332.5 810.614 332.5H806.409ZM807.818 331.25H810.614C811.534 331.25 812.188 331.072 812.574 330.716C812.964 330.356 813.159 329.92 813.159 329.409C813.159 329.015 813.059 328.652 812.858 328.318C812.657 327.981 812.371 327.712 812 327.511C811.629 327.307 811.189 327.205 810.682 327.205H807.818V331.25ZM807.818 325.977H810.432C810.856 325.977 811.239 325.894 811.58 325.727C811.924 325.561 812.197 325.326 812.398 325.023C812.602 324.72 812.705 324.364 812.705 323.955C812.705 323.443 812.527 323.009 812.17 322.653C811.814 322.294 811.25 322.114 810.477 322.114H807.818V325.977Z" fill="#1565C0"/>
<path d="M540.666 155.854C540.666 158.063 538.875 159.854 536.666 159.854C534.457 159.854 532.666 158.063 532.666 155.854C532.666 153.645 534.457 151.854 536.666 151.854C538.875 151.854 540.666 153.645 540.666 155.854Z" fill="#616161"/>
<path d="M540.666 155.854C540.666 158.063 538.875 159.854 536.666 159.854C534.457 159.854 532.666 158.063 532.666 155.854C532.666 153.645 534.457 151.854 536.666 151.854C538.875 151.854 540.666 153.645 540.666 155.854Z" stroke="black" stroke-miterlimit="10" stroke-linecap="round" stroke-linejoin="round"/>
<path d="M546 146.5H542.409V134.864H546.159C547.288 134.864 548.254 135.097 549.057 135.562C549.86 136.025 550.475 136.689 550.903 137.557C551.331 138.42 551.545 139.455 551.545 140.659C551.545 141.871 551.33 142.915 550.898 143.79C550.466 144.661 549.837 145.331 549.011 145.801C548.186 146.267 547.182 146.5 546 146.5ZM543.818 145.25H545.909C546.871 145.25 547.669 145.064 548.301 144.693C548.934 144.322 549.405 143.794 549.716 143.108C550.027 142.422 550.182 141.606 550.182 140.659C550.182 139.72 550.028 138.911 549.722 138.233C549.415 137.551 548.956 137.028 548.347 136.665C547.737 136.297 546.977 136.114 546.068 136.114H543.818V145.25Z" fill="#616161"/>
<path d="M542.409 146.5H540.909L542.409 148V146.5ZM542.409 134.864V133.364L540.909 134.864H542.409ZM549.057 135.562L548.304 136.86L548.309 136.863L549.057 135.562ZM550.903 137.557L549.558 138.221L549.559 138.223L550.903 137.557ZM550.898 143.79L552.242 144.456L552.243 144.454L550.898 143.79ZM549.011 145.801L549.748 147.108L549.753 147.105L549.011 145.801ZM543.818 145.25H542.318L543.818 146.75V145.25ZM548.301 144.693L547.542 143.399L548.301 144.693ZM549.722 138.233L548.354 138.849L548.355 138.851L549.722 138.233ZM548.347 136.665L547.572 137.95L547.578 137.953L548.347 136.665ZM543.818 136.114V134.614L542.318 136.114H543.818ZM546 145H542.409V148H546V145ZM543.909 146.5V134.864H540.909V146.5H543.909ZM542.409 136.364H546.159V133.364H542.409V136.364ZM546.159 136.364C547.08 136.364 547.774 136.553 548.304 136.86L549.81 134.265C548.733 133.641 547.495 133.364 546.159 133.364V136.364ZM548.309 136.863C548.842 137.17 549.256 137.607 549.558 138.221L552.249 136.893C551.695 135.771 550.877 134.88 549.805 134.262L548.309 136.863ZM549.559 138.223C549.862 138.834 550.045 139.629 550.045 140.659H553.045C553.045 139.28 552.8 138.007 552.247 136.891L549.559 138.223ZM550.045 140.659C550.045 141.696 549.861 142.501 549.553 143.126L552.243 144.454C552.798 143.328 553.045 142.047 553.045 140.659H550.045ZM549.554 143.124C549.251 143.734 548.829 144.179 548.27 144.497L549.753 147.105C550.845 146.484 551.68 145.588 552.242 144.456L549.554 143.124ZM548.274 144.495C547.722 144.806 546.986 145 546 145V148C547.377 148 548.649 147.728 549.748 147.108L548.274 144.495ZM543.818 146.75H545.909V143.75H543.818V146.75ZM545.909 146.75C547.057 146.75 548.136 146.529 549.06 145.987L547.542 143.399C547.201 143.6 546.685 143.75 545.909 143.75V146.75ZM549.06 145.987C549.967 145.455 550.647 144.687 551.082 143.727L548.35 142.489C548.163 142.9 547.9 143.189 547.542 143.399L549.06 145.987ZM551.082 143.727C551.501 142.804 551.682 141.766 551.682 140.659H548.682C548.682 141.446 548.552 142.041 548.35 142.489L551.082 143.727ZM551.682 140.659C551.682 139.561 551.503 138.531 551.088 137.615L548.355 138.851C548.554 139.291 548.682 139.879 548.682 140.659H551.682ZM551.089 137.617C550.664 136.671 550.003 135.906 549.115 135.376L547.578 137.953C547.91 138.151 548.166 138.431 548.354 138.849L551.089 137.617ZM549.121 135.38C548.221 134.838 547.176 134.614 546.068 134.614V137.614C546.779 137.614 547.253 137.757 547.573 137.95L549.121 135.38ZM546.068 134.614H543.818V137.614H546.068V134.614ZM542.318 136.114V145.25H545.318V136.114H542.318Z" fill="white"/>
<path d="M546 146.5H542.409V134.864H546.159C547.288 134.864 548.254 135.097 549.057 135.562C549.86 136.025 550.475 136.689 550.903 137.557C551.331 138.42 551.545 139.455 551.545 140.659C551.545 141.871 551.33 142.915 550.898 143.79C550.466 144.661 549.837 145.331 549.011 145.801C548.186 146.267 547.182 146.5 546 146.5ZM543.818 145.25H545.909C546.871 145.25 547.669 145.064 548.301 144.693C548.934 144.322 549.405 143.794 549.716 143.108C550.027 142.422 550.182 141.606 550.182 140.659C550.182 139.72 550.028 138.911 549.722 138.233C549.415 137.551 548.956 137.028 548.347 136.665C547.737 136.297 546.977 136.114 546.068 136.114H543.818V145.25Z" fill="#616161"/>
<path d="M805.43 155.854C805.43 158.063 803.639 159.854 801.43 159.854C799.221 159.854 797.43 158.063 797.43 155.854C797.43 153.645 799.221 151.854 801.43 151.854C803.639 151.854 805.43 153.645 805.43 155.854Z" fill="#616161"/>
<path d="M805.43 155.854C805.43 158.063 803.639 159.854 801.43 159.854C799.221 159.854 797.43 158.063 797.43 155.854C797.43 153.645 799.221 151.854 801.43 151.854C803.639 151.854 805.43 153.645 805.43 155.854Z" stroke="black" stroke-miterlimit="10" stroke-linecap="round" stroke-linejoin="round"/>
<path d="M815.773 138.5H814.364C814.28 138.095 814.134 137.739 813.926 137.432C813.722 137.125 813.472 136.867 813.176 136.659C812.884 136.447 812.561 136.288 812.205 136.182C811.848 136.076 811.477 136.023 811.091 136.023C810.386 136.023 809.748 136.201 809.176 136.557C808.608 136.913 808.155 137.438 807.818 138.131C807.485 138.824 807.318 139.674 807.318 140.682C807.318 141.689 807.485 142.54 807.818 143.233C808.155 143.926 808.608 144.451 809.176 144.807C809.748 145.163 810.386 145.341 811.091 145.341C811.477 145.341 811.848 145.288 812.205 145.182C812.561 145.076 812.884 144.919 813.176 144.71C813.472 144.498 813.722 144.239 813.926 143.932C814.134 143.621 814.28 143.265 814.364 142.864H815.773C815.667 143.458 815.473 143.991 815.193 144.46C814.913 144.93 814.564 145.33 814.148 145.659C813.731 145.985 813.263 146.233 812.744 146.403C812.229 146.574 811.678 146.659 811.091 146.659C810.098 146.659 809.216 146.417 808.443 145.932C807.67 145.447 807.063 144.758 806.619 143.864C806.176 142.97 805.955 141.909 805.955 140.682C805.955 139.455 806.176 138.394 806.619 137.5C807.063 136.606 807.67 135.917 808.443 135.432C809.216 134.947 810.098 134.705 811.091 134.705C811.678 134.705 812.229 134.79 812.744 134.96C813.263 135.131 813.731 135.381 814.148 135.71C814.564 136.036 814.913 136.434 815.193 136.903C815.473 137.369 815.667 137.902 815.773 138.5Z" fill="#616161"/>
<path d="M815.773 138.5V140L817.25 138.238L815.773 138.5ZM814.364 138.5L812.894 138.802L814.364 140V138.5ZM813.926 137.432L812.678 138.264L812.685 138.274L813.926 137.432ZM813.176 136.659L812.294 137.872L812.312 137.885L813.176 136.659ZM812.205 136.182L811.776 137.619L811.776 137.619L812.205 136.182ZM809.176 136.557L808.383 135.283L808.38 135.286L809.176 136.557ZM807.818 138.131L806.469 137.475L806.466 137.481L807.818 138.131ZM807.818 143.233L806.466 143.883L806.469 143.889L807.818 143.233ZM809.176 144.807L808.38 146.078L808.383 146.08L809.176 144.807ZM812.205 145.182L811.776 143.744L811.776 143.744L812.205 145.182ZM813.176 144.71L814.048 145.931L814.051 145.929L813.176 144.71ZM813.926 143.932L812.68 143.096L812.678 143.1L813.926 143.932ZM814.364 142.864V141.364L812.895 142.559L814.364 142.864ZM815.773 142.864L817.249 143.127L815.773 141.364V142.864ZM815.193 144.46L813.905 143.692L813.905 143.692L815.193 144.46ZM814.148 145.659L815.072 146.841L815.078 146.836L814.148 145.659ZM812.744 146.403L812.276 144.978L812.273 144.979L812.744 146.403ZM808.443 145.932L807.646 147.202L807.646 147.202L808.443 145.932ZM806.619 143.864L807.963 143.197L807.963 143.197L806.619 143.864ZM806.619 137.5L805.275 136.834L806.619 137.5ZM812.744 134.96L812.273 136.384L812.276 136.385L812.744 134.96ZM814.148 135.71L813.217 136.887L813.224 136.892L814.148 135.71ZM815.193 136.903L813.905 137.672L813.908 137.677L815.193 136.903ZM815.773 137H814.364V140H815.773V137ZM815.833 138.198C815.714 137.622 815.499 137.077 815.167 136.589L812.685 138.274C812.77 138.4 812.846 138.568 812.894 138.802L815.833 138.198ZM815.174 136.6C814.869 136.142 814.49 135.75 814.041 135.433L812.312 137.885C812.453 137.985 812.574 138.108 812.678 138.264L815.174 136.6ZM814.058 135.446C813.625 135.131 813.147 134.897 812.633 134.744L811.776 137.619C811.974 137.678 812.144 137.763 812.294 137.872L814.058 135.446ZM812.633 134.744C812.132 134.595 811.616 134.523 811.091 134.523V137.523C811.338 137.523 811.565 137.556 811.776 137.619L812.633 134.744ZM811.091 134.523C810.12 134.523 809.204 134.772 808.383 135.283L809.969 137.83C810.292 137.629 810.653 137.523 811.091 137.523V134.523ZM808.38 135.286C807.539 135.812 806.91 136.567 806.469 137.475L809.167 138.787C809.4 138.308 809.677 138.013 809.973 137.828L808.38 135.286ZM806.466 137.481C806.01 138.429 805.818 139.516 805.818 140.682H808.818C808.818 139.832 808.96 139.218 809.17 138.781L806.466 137.481ZM805.818 140.682C805.818 141.848 806.01 142.934 806.466 143.883L809.17 142.583C808.96 142.145 808.818 141.531 808.818 140.682H805.818ZM806.469 143.889C806.91 144.796 807.539 145.551 808.38 146.078L809.973 143.536C809.677 143.35 809.4 143.056 809.167 142.577L806.469 143.889ZM808.383 146.08C809.204 146.591 810.12 146.841 811.091 146.841V143.841C810.653 143.841 810.292 143.734 809.969 143.533L808.383 146.08ZM811.091 146.841C811.616 146.841 812.132 146.768 812.633 146.619L811.776 143.744C811.565 143.807 811.338 143.841 811.091 143.841V146.841ZM812.633 146.619C813.142 146.468 813.617 146.239 814.048 145.931L812.304 143.49C812.152 143.598 811.979 143.684 811.776 143.744L812.633 146.619ZM814.051 145.929C814.495 145.61 814.871 145.219 815.174 144.764L812.678 143.1C812.572 143.258 812.448 143.386 812.301 143.492L814.051 145.929ZM815.172 144.767C815.498 144.281 815.713 143.741 815.832 143.168L812.895 142.559C812.847 142.789 812.771 142.961 812.68 143.096L815.172 144.767ZM814.364 144.364H815.773V141.364H814.364V144.364ZM814.296 142.6C814.218 143.035 814.083 143.393 813.905 143.692L816.481 145.229C816.864 144.588 817.115 143.882 817.249 143.127L814.296 142.6ZM813.905 143.692C813.715 144.009 813.487 144.269 813.217 144.483L815.078 146.836C815.642 146.39 816.11 145.85 816.481 145.229L813.905 143.692ZM813.224 144.477C812.948 144.693 812.636 144.86 812.276 144.978L813.212 147.829C813.891 147.606 814.514 147.277 815.072 146.841L813.224 144.477ZM812.273 144.979C811.922 145.096 811.531 145.159 811.091 145.159V148.159C811.825 148.159 812.536 148.052 813.216 147.827L812.273 144.979ZM811.091 145.159C810.355 145.159 809.753 144.983 809.24 144.661L807.646 147.202C808.678 147.85 809.842 148.159 811.091 148.159V145.159ZM809.24 144.661C808.724 144.337 808.295 143.867 807.963 143.197L805.275 144.53C805.83 145.648 806.617 146.557 807.646 147.202L809.24 144.661ZM807.963 143.197C807.644 142.553 807.455 141.73 807.455 140.682H804.455C804.455 142.088 804.709 143.387 805.275 144.53L807.963 143.197ZM807.455 140.682C807.455 139.634 807.644 138.811 807.963 138.166L805.275 136.834C804.709 137.977 804.455 139.276 804.455 140.682H807.455ZM807.963 138.166C808.295 137.496 808.724 137.026 809.24 136.702L807.646 134.161C806.617 134.807 805.83 135.716 805.275 136.834L807.963 138.166ZM809.24 136.702C809.753 136.381 810.355 136.205 811.091 136.205V133.205C809.842 133.205 808.678 133.513 807.646 134.161L809.24 136.702ZM811.091 136.205C811.531 136.205 811.922 136.268 812.273 136.384L813.216 133.536C812.536 133.311 811.825 133.205 811.091 133.205V136.205ZM812.276 136.385C812.632 136.502 812.943 136.67 813.217 136.887L815.078 134.534C814.519 134.092 813.894 133.759 813.212 133.535L812.276 136.385ZM813.224 136.892C813.49 137.1 813.716 137.356 813.905 137.672L816.481 136.135C816.109 135.512 815.639 134.972 815.072 134.529L813.224 136.892ZM813.908 137.677C814.083 137.968 814.218 138.323 814.296 138.762L817.25 138.238C817.115 137.48 816.864 136.771 816.478 136.13L813.908 137.677Z" fill="white"/>
<path d="M815.773 138.5H814.364C814.28 138.095 814.134 137.739 813.926 137.432C813.722 137.125 813.472 136.867 813.176 136.659C812.884 136.447 812.561 136.288 812.205 136.182C811.848 136.076 811.477 136.023 811.091 136.023C810.386 136.023 809.748 136.201 809.176 136.557C808.608 136.913 808.155 137.438 807.818 138.131C807.485 138.824 807.318 139.674 807.318 140.682C807.318 141.689 807.485 142.54 807.818 143.233C808.155 143.926 808.608 144.451 809.176 144.807C809.748 145.163 810.386 145.341 811.091 145.341C811.477 145.341 811.848 145.288 812.205 145.182C812.561 145.076 812.884 144.919 813.176 144.71C813.472 144.498 813.722 144.239 813.926 143.932C814.134 143.621 814.28 143.265 814.364 142.864H815.773C815.667 143.458 815.473 143.991 815.193 144.46C814.913 144.93 814.564 145.33 814.148 145.659C813.731 145.985 813.263 146.233 812.744 146.403C812.229 146.574 811.678 146.659 811.091 146.659C810.098 146.659 809.216 146.417 808.443 145.932C807.67 145.447 807.063 144.758 806.619 143.864C806.176 142.97 805.955 141.909 805.955 140.682C805.955 139.455 806.176 138.394 806.619 137.5C807.063 136.606 807.67 135.917 808.443 135.432C809.216 134.947 810.098 134.705 811.091 134.705C811.678 134.705 812.229 134.79 812.744 134.96C813.263 135.131 813.731 135.381 814.148 135.71C814.564 136.036 814.913 136.434 815.193 136.903C815.473 137.369 815.667 137.902 815.773 138.5Z" fill="#616161"/>
<path d="M107.279 155.854C107.279 158.063 105.488 159.854 103.279 159.854C101.07 159.854 99.2793 158.063 99.2793 155.854C99.2793 153.645 101.07 151.854 103.279 151.854C105.488 151.854 107.279 153.645 107.279 155.854Z" fill="#616161"/>
<path d="M107.279 155.854C107.279 158.063 105.488 159.854 103.279 159.854C101.07 159.854 99.2793 158.063 99.2793 155.854C99.2793 153.645 101.07 151.854 103.279 151.854C105.488 151.854 107.279 153.645 107.279 155.854Z" stroke="black" stroke-miterlimit="10" stroke-linecap="round" stroke-linejoin="round"/>
<path d="M108.409 146.5V134.864H109.818V140.636H109.955L115.182 134.864H117.023L112.136 140.114L117.023 146.5H115.318L111.273 141.091L109.818 142.727V146.5H108.409Z" fill="#616161"/>
<path d="M108.409 146.5H106.909L108.409 148V146.5ZM108.409 134.864V133.364L106.909 134.864H108.409ZM109.818 134.864H111.318L109.818 133.364V134.864ZM109.818 140.636H108.318L109.818 142.136V140.636ZM109.955 140.636V142.136L111.066 141.643L109.955 140.636ZM115.182 134.864V133.364L114.07 133.857L115.182 134.864ZM117.023 134.864L118.121 135.886L117.023 133.364V134.864ZM112.136 140.114L111.038 139.092L110.945 141.025L112.136 140.114ZM117.023 146.5V148L118.214 145.589L117.023 146.5ZM115.318 146.5L114.117 147.398L115.318 148V146.5ZM111.273 141.091L112.474 140.193L110.152 140.094L111.273 141.091ZM109.818 142.727L108.697 141.731L108.318 142.727H109.818ZM109.818 146.5V148L111.318 146.5H109.818ZM109.909 146.5V134.864H106.909V146.5H109.909ZM108.409 136.364H109.818V133.364H108.409V136.364ZM108.318 134.864V140.636H111.318V134.864H108.318ZM109.818 142.136H109.955V139.136H109.818V142.136ZM111.066 141.643L116.294 135.87L114.07 133.857L108.843 139.63L111.066 141.643ZM115.182 136.364H117.023V133.364H115.182V136.364ZM115.925 133.842L111.038 139.092L113.234 141.136L118.121 135.886L115.925 133.842ZM110.945 141.025L115.831 147.411L118.214 145.589L113.328 139.202L110.945 141.025ZM117.023 145H115.318V148H117.023V145ZM116.519 145.602L112.474 140.193L110.072 141.989L114.117 147.398L116.519 145.602ZM110.152 140.094L108.697 141.731L110.939 143.724L112.394 142.087L110.152 140.094ZM108.318 142.727V146.5H111.318V142.727H108.318ZM109.818 145H108.409V148H109.818V145Z" fill="white"/>
<path d="M108.409 146.5V134.864H109.818V140.636H109.955L115.182 134.864H117.023L112.136 140.114L117.023 146.5H115.318L111.273 141.091L109.818 142.727V146.5H108.409Z" fill="#616161"/>
<path d="M372.043 155.854C372.043 158.063 370.252 159.854 368.043 159.854C365.834 159.854 364.043 158.063 364.043 155.854C364.043 153.645 365.834 151.854 368.043 151.854C370.252 151.854 372.043 153.645 372.043 155.854Z" fill="#616161"/>
<path d="M372.043 155.854C372.043 158.063 370.252 159.854 368.043 159.854C365.834 159.854 364.043 158.063 364.043 155.854C364.043 153.645 365.834 151.854 368.043 151.854C370.252 151.854 372.043 153.645 372.043 155.854Z" stroke="black" stroke-miterlimit="10" stroke-linecap="round" stroke-linejoin="round"/>
<path d="M373.409 146.5V134.864H374.818V140.045H381.023V134.864H382.432V146.5H381.023V141.295H374.818V146.5H373.409Z" fill="#616161"/>
<path d="M373.409 146.5H371.909L373.409 148V146.5ZM373.409 134.864V133.364L371.909 134.864H373.409ZM374.818 134.864H376.318L374.818 133.364V134.864ZM374.818 140.045H373.318L374.818 141.545V140.045ZM381.023 140.045V141.545L382.523 140.045H381.023ZM381.023 134.864V133.364L379.523 134.864H381.023ZM382.432 134.864H383.932L382.432 133.364V134.864ZM382.432 146.5V148L383.932 146.5H382.432ZM381.023 146.5H379.523L381.023 148V146.5ZM381.023 141.295H382.523L381.023 139.795V141.295ZM374.818 141.295V139.795L373.318 141.295H374.818ZM374.818 146.5V148L376.318 146.5H374.818ZM374.909 146.5V134.864H371.909V146.5H374.909ZM373.409 136.364H374.818V133.364H373.409V136.364ZM373.318 134.864V140.045H376.318V134.864H373.318ZM374.818 141.545H381.023V138.545H374.818V141.545ZM382.523 140.045V134.864H379.523V140.045H382.523ZM381.023 136.364H382.432V133.364H381.023V136.364ZM380.932 134.864V146.5H383.932V134.864H380.932ZM382.432 145H381.023V148H382.432V145ZM382.523 146.5V141.295H379.523V146.5H382.523ZM381.023 139.795H374.818V142.795H381.023V139.795ZM373.318 141.295V146.5H376.318V141.295H373.318ZM374.818 145H373.409V148H374.818V145Z" fill="white"/>
<path d="M373.409 146.5V134.864H374.818V140.045H381.023V134.864H382.432V146.5H381.023V141.295H374.818V146.5H373.409Z" fill="#616161"/>
<path d="M149.186 59.2139C149.186 61.423 147.395 63.2139 145.186 63.2139C142.976 63.2139 141.186 61.423 141.186 59.2139C141.186 57.0047 142.976 55.2139 145.186 55.2139C147.395 55.2139 149.186 57.0047 149.186 59.2139Z" fill="#616161"/>
<path d="M149.186 59.2139C149.186 61.423 147.395 63.2139 145.186 63.2139C142.976 63.2139 141.186 61.423 141.186 59.2139C141.186 57.0047 142.976 55.2139 145.186 55.2139C147.395 55.2139 149.186 57.0047 149.186 59.2139Z" stroke="black" stroke-miterlimit="10" stroke-linecap="round" stroke-linejoin="round"/>
<path d="M150.409 38.8636H152.091L156.045 48.5227H156.182L160.136 38.8636H161.818V50.5H160.5V41.6591H160.386L156.75 50.5H155.477L151.841 41.6591H151.727V50.5H150.409V38.8636Z" fill="#616161"/>
<path d="M150.409 38.8636V37.3636L148.909 38.8636H150.409ZM152.091 38.8636L153.479 38.2953L152.091 37.3636V38.8636ZM156.045 48.5227L154.657 49.0911L156.045 50.0227V48.5227ZM156.182 48.5227V50.0227L157.57 49.0911L156.182 48.5227ZM160.136 38.8636V37.3636L158.748 38.2953L160.136 38.8636ZM161.818 38.8636H163.318L161.818 37.3636V38.8636ZM161.818 50.5V52L163.318 50.5H161.818ZM160.5 50.5H159L160.5 52V50.5ZM160.5 41.6591H162L160.5 40.1591V41.6591ZM160.386 41.6591V40.1591L158.999 41.0885L160.386 41.6591ZM156.75 50.5V52L158.137 51.0706L156.75 50.5ZM155.477 50.5L154.09 51.0706L155.477 52V50.5ZM151.841 41.6591L153.228 41.0885L151.841 40.1591V41.6591ZM151.727 41.6591V40.1591L150.227 41.6591H151.727ZM151.727 50.5V52L153.227 50.5H151.727ZM150.409 50.5H148.909L150.409 52V50.5ZM150.409 40.3636H152.091V37.3636H150.409V40.3636ZM150.703 39.432L154.657 49.0911L157.434 47.9544L153.479 38.2953L150.703 39.432ZM156.045 50.0227H156.182V47.0227H156.045V50.0227ZM157.57 49.0911L161.525 39.432L158.748 38.2953L154.794 47.9544L157.57 49.0911ZM160.136 40.3636H161.818V37.3636H160.136V40.3636ZM160.318 38.8636V50.5H163.318V38.8636H160.318ZM161.818 49H160.5V52H161.818V49ZM162 50.5V41.6591H159V50.5H162ZM160.5 40.1591H160.386V43.1591H160.5V40.1591ZM158.999 41.0885L155.363 49.9294L158.137 51.0706L161.774 42.2297L158.999 41.0885ZM156.75 49H155.477V52H156.75V49ZM156.865 49.9294L153.228 41.0885L150.454 42.2297L154.09 51.0706L156.865 49.9294ZM151.841 40.1591H151.727V43.1591H151.841V40.1591ZM150.227 41.6591V50.5H153.227V41.6591H150.227ZM151.727 49H150.409V52H151.727V49ZM151.909 50.5V38.8636H148.909V50.5H151.909Z" fill="white"/>
<path d="M150.409 38.8636H152.091L156.045 48.5227H156.182L160.136 38.8636H161.818V50.5H160.5V41.6591H160.386L156.75 50.5H155.477L151.841 41.6591H151.727V50.5H150.409V38.8636Z" fill="#616161"/>
<path d="M582.572 247.149C582.572 249.358 580.781 251.149 578.572 251.149C576.363 251.149 574.572 249.358 574.572 247.149C574.572 244.94 576.363 243.149 578.572 243.149C580.781 243.149 582.572 244.94 582.572 247.149Z" fill="#616161"/>
<path d="M582.572 247.149C582.572 249.358 580.781 251.149 578.572 251.149C576.363 251.149 574.572 249.358 574.572 247.149C574.572 244.94 576.363 243.149 578.572 243.149C580.781 243.149 582.572 244.94 582.572 247.149Z" stroke="black" stroke-miterlimit="10" stroke-linecap="round" stroke-linejoin="round"/>
<path d="M593.636 226.864V238.5H592.273L585.932 229.364H585.818V238.5H584.409V226.864H585.773L592.136 236.023H592.25V226.864H593.636Z" fill="#616161"/>
<path d="M593.636 226.864H595.136L593.636 225.364V226.864ZM593.636 238.5V240L595.136 238.5H593.636ZM592.273 238.5L591.04 239.355L592.273 240V238.5ZM585.932 229.364L587.164 228.508L585.932 227.864V229.364ZM585.818 229.364V227.864L584.318 229.364H585.818ZM585.818 238.5V240L587.318 238.5H585.818ZM584.409 238.5H582.909L584.409 240V238.5ZM584.409 226.864V225.364L582.909 226.864H584.409ZM585.773 226.864L587.005 226.008L585.773 225.364V226.864ZM592.136 236.023L590.905 236.879L592.136 237.523V236.023ZM592.25 236.023V237.523L593.75 236.023H592.25ZM592.25 226.864V225.364L590.75 226.864H592.25ZM592.136 226.864V238.5H595.136V226.864H592.136ZM593.636 237H592.273V240H593.636V237ZM593.505 237.645L587.164 228.508L584.7 230.219L591.04 239.355L593.505 237.645ZM585.932 227.864H585.818V230.864H585.932V227.864ZM584.318 229.364V238.5H587.318V229.364H584.318ZM585.818 237H584.409V240H585.818V237ZM585.909 238.5V226.864H582.909V238.5H585.909ZM584.409 228.364H585.773V225.364H584.409V228.364ZM584.541 227.72L590.905 236.879L593.368 235.167L587.005 226.008L584.541 227.72ZM592.136 237.523H592.25V234.523H592.136V237.523ZM593.75 236.023V226.864H590.75V236.023H593.75ZM592.25 228.364H593.636V225.364H592.25V228.364Z" fill="white"/>
<path d="M593.636 226.864V238.5H592.273L585.932 229.364H585.818V238.5H584.409V226.864H585.773L592.136 236.023H592.25V226.864H593.636Z" fill="#616161"/>
</g>
<defs>
<clipPath id="clip0_358_265">
<rect width="1014" height="484" fill="white"/>
</clipPath>
</defs>
</svg>
