<svg width="678" height="446" viewBox="0 0 678 446" fill="none" xmlns="http://www.w3.org/2000/svg">
<g clip-path="url(#clip0_358_508)">
<path d="M678 0H0V446H678V0Z" fill="white"/>
<path fill-rule="evenodd" clip-rule="evenodd" d="M107.383 128.852L173.464 189.059L251.146 144.817L233.074 57.2664L144.223 47.3992L107.383 128.852Z" fill="#1565C0" fill-opacity="0.0980392"/>
<path d="M107.383 128.852L173.464 189.059L251.146 144.817L233.074 57.2664L144.223 47.3992L107.383 128.852Z" stroke="#1565C0" stroke-opacity="0.8" stroke-width="2.5" stroke-miterlimit="10" stroke-linecap="round" stroke-linejoin="round"/>
<path d="M107.383 128.852L173.464 189.059" stroke="#1565C0" stroke-opacity="0.8" stroke-width="2.5" stroke-miterlimit="10" stroke-linecap="round" stroke-linejoin="round"/>
<path d="M173.465 189.059L251.146 144.817" stroke="#1565C0" stroke-opacity="0.8" stroke-width="2.5" stroke-miterlimit="10" stroke-linecap="round" stroke-linejoin="round"/>
<path d="M251.146 144.817L233.074 57.2664" stroke="#1565C0" stroke-opacity="0.8" stroke-width="2.5" stroke-miterlimit="10" stroke-linecap="round" stroke-linejoin="round"/>
<path d="M233.073 57.2664L144.223 47.3992" stroke="#1565C0" stroke-opacity="0.8" stroke-width="2.5" stroke-miterlimit="10" stroke-linecap="round" stroke-linejoin="round"/>
<path d="M144.223 47.3992L107.383 128.852" stroke="#1565C0" stroke-opacity="0.8" stroke-width="2.5" stroke-miterlimit="10" stroke-linecap="round" stroke-linejoin="round"/>
<path d="M107.383 128.851L181.858 113.479" stroke="#616161" stroke-opacity="0.8" stroke-width="2.5" stroke-miterlimit="10" stroke-linecap="round" stroke-linejoin="round"/>
<path d="M144.223 47.3992L181.857 113.479" stroke="#616161" stroke-opacity="0.8" stroke-width="2.5" stroke-miterlimit="10" stroke-linecap="round" stroke-linejoin="round"/>
<path d="M233.073 57.2664L181.857 113.479" stroke="#616161" stroke-opacity="0.8" stroke-width="2.5" stroke-miterlimit="10" stroke-linecap="round" stroke-linejoin="round"/>
<path d="M251.145 144.817L181.857 113.479" stroke="#616161" stroke-opacity="0.8" stroke-width="2.5" stroke-miterlimit="10" stroke-linecap="round" stroke-linejoin="round"/>
<path d="M173.465 189.059L181.858 113.479" stroke="#616161" stroke-opacity="0.8" stroke-width="2.5" stroke-miterlimit="10" stroke-linecap="round" stroke-linejoin="round"/>
<path d="M387.451 161.2H652.136" stroke="#616161" stroke-opacity="0.8" stroke-width="2.5" stroke-miterlimit="10" stroke-linecap="round" stroke-linejoin="round"/>
<path d="M387.451 161.2H563.908" stroke="#616161" stroke-opacity="0.8" stroke-width="2.5" stroke-miterlimit="10" stroke-linecap="round" stroke-linejoin="round"/>
<path d="M387.451 161.2H475.68" stroke="#616161" stroke-opacity="0.8" stroke-width="2.5" stroke-miterlimit="10" stroke-linecap="round" stroke-linejoin="round"/>
<path d="M387.451 161.2L431.565 100.973" stroke="#616161" stroke-opacity="0.8" stroke-width="2.5" stroke-miterlimit="10" stroke-linecap="round" stroke-linejoin="round"/>
<path d="M431.564 100.973L475.679 161.2" stroke="#616161" stroke-opacity="0.8" stroke-width="2.5" stroke-miterlimit="10" stroke-linecap="round" stroke-linejoin="round"/>
<path d="M431.564 100.973H608.021" stroke="#616161" stroke-opacity="0.8" stroke-width="2.5" stroke-miterlimit="10" stroke-linecap="round" stroke-linejoin="round"/>
<path d="M431.564 100.973H519.793" stroke="#616161" stroke-opacity="0.8" stroke-width="2.5" stroke-miterlimit="10" stroke-linecap="round" stroke-linejoin="round"/>
<path d="M475.68 161.2L519.794 100.973" stroke="#616161" stroke-opacity="0.8" stroke-width="2.5" stroke-miterlimit="10" stroke-linecap="round" stroke-linejoin="round"/>
<path d="M519.793 100.973L563.907 161.2" stroke="#616161" stroke-opacity="0.8" stroke-width="2.5" stroke-miterlimit="10" stroke-linecap="round" stroke-linejoin="round"/>
<path d="M563.908 161.2L608.022 100.973" stroke="#616161" stroke-opacity="0.8" stroke-width="2.5" stroke-miterlimit="10" stroke-linecap="round" stroke-linejoin="round"/>
<path d="M652.136 161.2L608.021 100.973" stroke="#616161" stroke-opacity="0.8" stroke-width="2.5" stroke-miterlimit="10" stroke-linecap="round" stroke-linejoin="round"/>
<path d="M387.451 161.2L608.022 100.973" stroke="#FF0000" stroke-opacity="0.8" stroke-width="2.5" stroke-miterlimit="10" stroke-linecap="round" stroke-linejoin="round"/>
<path d="M278.399 208.251L255.367 279.264" stroke="#616161" stroke-opacity="0.8" stroke-width="2.5" stroke-miterlimit="10" stroke-linecap="round" stroke-linejoin="round"/>
<path d="M86.3398 329.924L278.4 208.251" stroke="#616161" stroke-opacity="0.8" stroke-width="2.5" stroke-miterlimit="10" stroke-linecap="round" stroke-linejoin="round"/>
<path d="M255.368 279.264L86.3398 329.924" stroke="#616161" stroke-opacity="0.8" stroke-width="2.5" stroke-miterlimit="10" stroke-linecap="round" stroke-linejoin="round"/>
<path d="M278.4 208.251L429.255 425.739" stroke="#616161" stroke-opacity="0.8" stroke-width="2.5" stroke-miterlimit="10" stroke-linecap="round" stroke-linejoin="round"/>
<path d="M255.367 279.264L429.254 425.739" stroke="#616161" stroke-opacity="0.8" stroke-width="2.5" stroke-miterlimit="10" stroke-linecap="round" stroke-linejoin="round"/>
<path d="M112.383 128.852C112.383 131.613 110.144 133.852 107.383 133.852C104.621 133.852 102.383 131.613 102.383 128.852C102.383 126.09 104.621 123.852 107.383 123.852C110.144 123.852 112.383 126.09 112.383 128.852Z" fill="#1565C0"/>
<path d="M112.383 128.852C112.383 131.613 110.144 133.852 107.383 133.852C104.621 133.852 102.383 131.613 102.383 128.852C102.383 126.09 104.621 123.852 107.383 123.852C110.144 123.852 112.383 126.09 112.383 128.852Z" stroke="black" stroke-miterlimit="10" stroke-linecap="round" stroke-linejoin="round"/>
<path d="M178.465 189.059C178.465 191.821 176.226 194.059 173.465 194.059C170.703 194.059 168.465 191.821 168.465 189.059C168.465 186.298 170.703 184.059 173.465 184.059C176.226 184.059 178.465 186.298 178.465 189.059Z" fill="#1565C0"/>
<path d="M178.465 189.059C178.465 191.821 176.226 194.059 173.465 194.059C170.703 194.059 168.465 191.821 168.465 189.059C168.465 186.298 170.703 184.059 173.465 184.059C176.226 184.059 178.465 186.298 178.465 189.059Z" stroke="black" stroke-miterlimit="10" stroke-linecap="round" stroke-linejoin="round"/>
<path d="M256.145 144.817C256.145 147.579 253.906 149.817 251.145 149.817C248.383 149.817 246.145 147.579 246.145 144.817C246.145 142.056 248.383 139.817 251.145 139.817C253.906 139.817 256.145 142.056 256.145 144.817Z" fill="#616161"/>
<path d="M256.145 144.817C256.145 147.579 253.906 149.817 251.145 149.817C248.383 149.817 246.145 147.579 246.145 144.817C246.145 142.056 248.383 139.817 251.145 139.817C253.906 139.817 256.145 142.056 256.145 144.817Z" stroke="black" stroke-miterlimit="10" stroke-linecap="round" stroke-linejoin="round"/>
<path d="M238.074 57.2664C238.074 60.0278 235.836 62.2664 233.074 62.2664C230.313 62.2664 228.074 60.0278 228.074 57.2664C228.074 54.5049 230.313 52.2664 233.074 52.2664C235.836 52.2664 238.074 54.5049 238.074 57.2664Z" fill="#616161"/>
<path d="M238.074 57.2664C238.074 60.0278 235.836 62.2664 233.074 62.2664C230.313 62.2664 228.074 60.0278 228.074 57.2664C228.074 54.5049 230.313 52.2664 233.074 52.2664C235.836 52.2664 238.074 54.5049 238.074 57.2664Z" stroke="black" stroke-miterlimit="10" stroke-linecap="round" stroke-linejoin="round"/>
<path d="M149.223 47.3992C149.223 50.1606 146.984 52.3992 144.223 52.3992C141.461 52.3992 139.223 50.1606 139.223 47.3992C139.223 44.6377 141.461 42.3992 144.223 42.3992C146.984 42.3992 149.223 44.6377 149.223 47.3992Z" fill="#616161"/>
<path d="M149.223 47.3992C149.223 50.1606 146.984 52.3992 144.223 52.3992C141.461 52.3992 139.223 50.1606 139.223 47.3992C139.223 44.6377 141.461 42.3992 144.223 42.3992C146.984 42.3992 149.223 44.6377 149.223 47.3992Z" stroke="black" stroke-miterlimit="10" stroke-linecap="round" stroke-linejoin="round"/>
<path d="M185.857 113.479C185.857 115.688 184.067 117.479 181.857 117.479C179.648 117.479 177.857 115.688 177.857 113.479C177.857 111.269 179.648 109.479 181.857 109.479C184.067 109.479 185.857 111.269 185.857 113.479Z" fill="#616161"/>
<path d="M185.857 113.479C185.857 115.688 184.067 117.479 181.857 117.479C179.648 117.479 177.857 115.688 177.857 113.479C177.857 111.269 179.648 109.479 181.857 109.479C184.067 109.479 185.857 111.269 185.857 113.479Z" stroke="black" stroke-miterlimit="10" stroke-linecap="round" stroke-linejoin="round"/>
<path d="M392.451 161.2C392.451 163.961 390.213 166.2 387.451 166.2C384.69 166.2 382.451 163.961 382.451 161.2C382.451 158.439 384.69 156.2 387.451 156.2C390.213 156.2 392.451 158.439 392.451 161.2Z" fill="#1565C0"/>
<path d="M392.451 161.2C392.451 163.961 390.213 166.2 387.451 166.2C384.69 166.2 382.451 163.961 382.451 161.2C382.451 158.439 384.69 156.2 387.451 156.2C390.213 156.2 392.451 158.439 392.451 161.2Z" stroke="black" stroke-miterlimit="10" stroke-linecap="round" stroke-linejoin="round"/>
<path d="M657.137 161.2C657.137 163.961 654.898 166.2 652.137 166.2C649.375 166.2 647.137 163.961 647.137 161.2C647.137 158.439 649.375 156.2 652.137 156.2C654.898 156.2 657.137 158.439 657.137 161.2Z" fill="#1565C0"/>
<path d="M657.137 161.2C657.137 163.961 654.898 166.2 652.137 166.2C649.375 166.2 647.137 163.961 647.137 161.2C647.137 158.439 649.375 156.2 652.137 156.2C654.898 156.2 657.137 158.439 657.137 161.2Z" stroke="black" stroke-miterlimit="10" stroke-linecap="round" stroke-linejoin="round"/>
<path d="M568.908 161.2C568.908 163.961 566.67 166.2 563.908 166.2C561.147 166.2 558.908 163.961 558.908 161.2C558.908 158.439 561.147 156.2 563.908 156.2C566.67 156.2 568.908 158.439 568.908 161.2Z" fill="#1565C0"/>
<path d="M568.908 161.2C568.908 163.961 566.67 166.2 563.908 166.2C561.147 166.2 558.908 163.961 558.908 161.2C558.908 158.439 561.147 156.2 563.908 156.2C566.67 156.2 568.908 158.439 568.908 161.2Z" stroke="black" stroke-miterlimit="10" stroke-linecap="round" stroke-linejoin="round"/>
<path d="M480.68 161.2C480.68 163.961 478.441 166.2 475.68 166.2C472.918 166.2 470.68 163.961 470.68 161.2C470.68 158.439 472.918 156.2 475.68 156.2C478.441 156.2 480.68 158.439 480.68 161.2Z" fill="#1565C0"/>
<path d="M480.68 161.2C480.68 163.961 478.441 166.2 475.68 166.2C472.918 166.2 470.68 163.961 470.68 161.2C470.68 158.439 472.918 156.2 475.68 156.2C478.441 156.2 480.68 158.439 480.68 161.2Z" stroke="black" stroke-miterlimit="10" stroke-linecap="round" stroke-linejoin="round"/>
<path d="M435.564 100.973C435.564 103.182 433.774 104.973 431.564 104.973C429.355 104.973 427.564 103.182 427.564 100.973C427.564 98.764 429.355 96.9731 431.564 96.9731C433.774 96.9731 435.564 98.764 435.564 100.973Z" fill="#616161"/>
<path d="M435.564 100.973C435.564 103.182 433.774 104.973 431.564 104.973C429.355 104.973 427.564 103.182 427.564 100.973C427.564 98.764 429.355 96.9731 431.564 96.9731C433.774 96.9731 435.564 98.764 435.564 100.973Z" stroke="black" stroke-miterlimit="10" stroke-linecap="round" stroke-linejoin="round"/>
<path d="M613.021 100.973C613.021 103.735 610.783 105.973 608.021 105.973C605.26 105.973 603.021 103.735 603.021 100.973C603.021 98.2117 605.26 95.9731 608.021 95.9731C610.783 95.9731 613.021 98.2117 613.021 100.973Z" fill="#1565C0"/>
<path d="M613.021 100.973C613.021 103.735 610.783 105.973 608.021 105.973C605.26 105.973 603.021 103.735 603.021 100.973C603.021 98.2117 605.26 95.9731 608.021 95.9731C610.783 95.9731 613.021 98.2117 613.021 100.973Z" stroke="black" stroke-miterlimit="10" stroke-linecap="round" stroke-linejoin="round"/>
<path d="M524.793 100.973C524.793 103.735 522.554 105.973 519.793 105.973C517.032 105.973 514.793 103.735 514.793 100.973C514.793 98.2117 517.032 95.9731 519.793 95.9731C522.554 95.9731 524.793 98.2117 524.793 100.973Z" fill="#1565C0"/>
<path d="M524.793 100.973C524.793 103.735 522.554 105.973 519.793 105.973C517.032 105.973 514.793 103.735 514.793 100.973C514.793 98.2117 517.032 95.9731 519.793 95.9731C522.554 95.9731 524.793 98.2117 524.793 100.973Z" stroke="black" stroke-miterlimit="10" stroke-linecap="round" stroke-linejoin="round"/>
<path d="M283.4 208.251C283.4 211.012 281.162 213.251 278.4 213.251C275.639 213.251 273.4 211.012 273.4 208.251C273.4 205.489 275.639 203.251 278.4 203.251C281.162 203.251 283.4 205.489 283.4 208.251Z" fill="#1565C0"/>
<path d="M283.4 208.251C283.4 211.012 281.162 213.251 278.4 213.251C275.639 213.251 273.4 211.012 273.4 208.251C273.4 205.489 275.639 203.251 278.4 203.251C281.162 203.251 283.4 205.489 283.4 208.251Z" stroke="black" stroke-miterlimit="10" stroke-linecap="round" stroke-linejoin="round"/>
<path d="M260.367 279.264C260.367 282.025 258.129 284.264 255.367 284.264C252.606 284.264 250.367 282.025 250.367 279.264C250.367 276.502 252.606 274.264 255.367 274.264C258.129 274.264 260.367 276.502 260.367 279.264Z" fill="#1565C0"/>
<path d="M260.367 279.264C260.367 282.025 258.129 284.264 255.367 284.264C252.606 284.264 250.367 282.025 250.367 279.264C250.367 276.502 252.606 274.264 255.367 274.264C258.129 274.264 260.367 276.502 260.367 279.264Z" stroke="black" stroke-miterlimit="10" stroke-linecap="round" stroke-linejoin="round"/>
<path d="M90.3398 329.924C90.3398 332.133 88.549 333.924 86.3398 333.924C84.1307 333.924 82.3398 332.133 82.3398 329.924C82.3398 327.715 84.1307 325.924 86.3398 325.924C88.549 325.924 90.3398 327.715 90.3398 329.924Z" fill="#616161"/>
<path d="M90.3398 329.924C90.3398 332.133 88.549 333.924 86.3398 333.924C84.1307 333.924 82.3398 332.133 82.3398 329.924C82.3398 327.715 84.1307 325.924 86.3398 325.924C88.549 325.924 90.3398 327.715 90.3398 329.924Z" stroke="black" stroke-miterlimit="10" stroke-linecap="round" stroke-linejoin="round"/>
<path d="M433.256 425.739C433.256 427.948 431.465 429.739 429.256 429.739C427.047 429.739 425.256 427.948 425.256 425.739C425.256 423.53 427.047 421.739 429.256 421.739C431.465 421.739 433.256 423.53 433.256 425.739Z" fill="#616161"/>
<path d="M433.256 425.739C433.256 427.948 431.465 429.739 429.256 429.739C427.047 429.739 425.256 427.948 425.256 425.739C425.256 423.53 427.047 421.739 429.256 421.739C431.465 421.739 433.256 423.53 433.256 425.739Z" stroke="black" stroke-miterlimit="10" stroke-linecap="round" stroke-linejoin="round"/>
<path d="M373.205 114.5V113.477L377.045 109.273C377.496 108.78 377.867 108.352 378.159 107.989C378.451 107.621 378.667 107.277 378.807 106.955C378.951 106.629 379.023 106.288 379.023 105.932C379.023 105.523 378.924 105.169 378.727 104.869C378.534 104.57 378.269 104.339 377.932 104.176C377.595 104.013 377.216 103.932 376.795 103.932C376.348 103.932 375.958 104.025 375.625 104.21C375.295 104.392 375.04 104.648 374.858 104.977C374.68 105.307 374.591 105.693 374.591 106.136H373.25C373.25 105.455 373.407 104.856 373.722 104.341C374.036 103.826 374.464 103.424 375.006 103.136C375.551 102.848 376.163 102.705 376.841 102.705C377.523 102.705 378.127 102.848 378.653 103.136C379.18 103.424 379.593 103.812 379.892 104.301C380.191 104.79 380.341 105.333 380.341 105.932C380.341 106.36 380.263 106.778 380.108 107.188C379.956 107.593 379.691 108.045 379.312 108.545C378.938 109.042 378.417 109.648 377.75 110.364L375.136 113.159V113.25H380.545V114.5H373.205ZM385.778 108.682C385.778 110.114 385.591 111.432 385.216 112.636C384.845 113.837 384.313 114.943 383.619 115.955H382.438C382.71 115.58 382.964 115.117 383.199 114.568C383.438 114.023 383.646 113.424 383.824 112.773C384.002 112.117 384.14 111.441 384.239 110.744C384.341 110.044 384.392 109.356 384.392 108.682C384.392 107.78 384.305 106.866 384.131 105.938C383.956 105.009 383.722 104.148 383.426 103.352C383.131 102.557 382.801 101.909 382.438 101.409H383.619C384.313 102.42 384.845 103.528 385.216 104.733C385.591 105.934 385.778 107.25 385.778 108.682Z" fill="black"/>
<path d="M96.2955 47.8636V59.5H94.8864V49.3409H94.8182L91.9773 51.2273V49.7955L94.8864 47.8636H96.2955ZM102.528 53.6818C102.528 55.1136 102.341 56.4318 101.966 57.6364C101.595 58.8371 101.063 59.9432 100.369 60.9545H99.1875C99.4602 60.5795 99.714 60.1174 99.9489 59.5682C100.188 59.0227 100.396 58.4242 100.574 57.7727C100.752 57.1174 100.89 56.4413 100.989 55.7443C101.091 55.0436 101.142 54.3561 101.142 53.6818C101.142 52.7803 101.055 51.8655 100.881 50.9375C100.706 50.0095 100.472 49.1477 100.176 48.3523C99.8807 47.5568 99.5511 46.9091 99.1875 46.4091H100.369C101.063 47.4205 101.595 48.5284 101.966 49.733C102.341 50.9337 102.528 52.25 102.528 53.6818Z" fill="black"/>
<path d="M132.136 238.659C131.386 238.659 130.718 238.53 130.131 238.273C129.547 238.015 129.083 237.657 128.739 237.199C128.398 236.737 128.212 236.201 128.182 235.591H129.614C129.644 235.966 129.773 236.29 130 236.562C130.227 236.831 130.525 237.04 130.892 237.188C131.259 237.335 131.667 237.409 132.114 237.409C132.614 237.409 133.057 237.322 133.443 237.148C133.83 236.973 134.133 236.731 134.352 236.42C134.572 236.11 134.682 235.75 134.682 235.341C134.682 234.913 134.576 234.536 134.364 234.21C134.152 233.881 133.841 233.623 133.432 233.438C133.023 233.252 132.523 233.159 131.932 233.159H131V231.909H131.932C132.394 231.909 132.799 231.826 133.148 231.659C133.5 231.492 133.775 231.258 133.972 230.955C134.172 230.652 134.273 230.295 134.273 229.886C134.273 229.492 134.186 229.15 134.011 228.858C133.837 228.566 133.591 228.339 133.273 228.176C132.958 228.013 132.587 227.932 132.159 227.932C131.758 227.932 131.379 228.006 131.023 228.153C130.67 228.297 130.383 228.508 130.159 228.784C129.936 229.057 129.814 229.386 129.795 229.773H128.432C128.455 229.163 128.638 228.629 128.983 228.17C129.328 227.708 129.778 227.348 130.335 227.091C130.896 226.833 131.511 226.705 132.182 226.705C132.902 226.705 133.519 226.85 134.034 227.142C134.549 227.43 134.945 227.811 135.222 228.284C135.498 228.758 135.636 229.269 135.636 229.818C135.636 230.473 135.464 231.032 135.119 231.494C134.778 231.956 134.314 232.277 133.727 232.455V232.545C134.462 232.667 135.036 232.979 135.449 233.483C135.862 233.983 136.068 234.602 136.068 235.341C136.068 235.973 135.896 236.542 135.551 237.045C135.21 237.545 134.744 237.939 134.153 238.227C133.563 238.515 132.89 238.659 132.136 238.659ZM141.278 232.682C141.278 234.114 141.091 235.432 140.716 236.636C140.345 237.837 139.813 238.943 139.119 239.955H137.938C138.21 239.58 138.464 239.117 138.699 238.568C138.938 238.023 139.146 237.424 139.324 236.773C139.502 236.117 139.64 235.441 139.739 234.744C139.841 234.044 139.892 233.356 139.892 232.682C139.892 231.78 139.805 230.866 139.631 229.938C139.456 229.009 139.222 228.148 138.926 227.352C138.631 226.557 138.301 225.909 137.938 225.409H139.119C139.813 226.42 140.345 227.528 140.716 228.733C141.091 229.934 141.278 231.25 141.278 232.682Z" fill="black"/>
</g>
<defs>
<clipPath id="clip0_358_508">
<rect width="678" height="446" fill="white"/>
</clipPath>
</defs>
</svg>
