<svg width="799" height="433" viewBox="0 0 799 433" fill="none" xmlns="http://www.w3.org/2000/svg">
<g clip-path="url(#clip0_358_345)">
<path d="M799 0H0V433H799V0Z" fill="white"/>
<path fill-rule="evenodd" clip-rule="evenodd" d="M145.681 81.5669L198.691 39.0586L262.204 87.068L295.71 171.084L109.174 157.582L145.681 81.5669Z" fill="#1565C0" fill-opacity="0.0980392"/>
<path fill-rule="evenodd" clip-rule="evenodd" d="M113.377 308.396L95.7969 259.842L163.605 212.963L316.8 303.373L146.862 374.529L113.377 308.396Z" fill="#FF0000" fill-opacity="0.0980392"/>
<path fill-rule="evenodd" clip-rule="evenodd" d="M520.528 99.8147L524.714 157.577L491.229 156.74L520.528 99.8147Z" fill="#1565C0" fill-opacity="0.0980392"/>
<path fill-rule="evenodd" clip-rule="evenodd" d="M559.52 57.1682L539.782 156.74L525.551 62.9809L559.52 57.1682Z" fill="#1565C0" fill-opacity="0.0980392"/>
<path fill-rule="evenodd" clip-rule="evenodd" d="M643.722 101.237L683.232 179.004L552.785 173.359L643.722 101.237Z" fill="#1565C0" fill-opacity="0.0980392"/>
<path fill-rule="evenodd" clip-rule="evenodd" d="M567.836 54.8279L624.907 98.1013L549.021 162.071L567.836 54.8279Z" fill="#1565C0" fill-opacity="0.0980392"/>
<path fill-rule="evenodd" clip-rule="evenodd" d="M546.415 197.773L500.635 283.744L480.141 234.504L546.415 197.773Z" fill="#FF0000" fill-opacity="0.0980392"/>
<path fill-rule="evenodd" clip-rule="evenodd" d="M550.408 200.701L501.434 290.664L530.712 350.019L550.408 200.701Z" fill="#FF0000" fill-opacity="0.0980392"/>
<path fill-rule="evenodd" clip-rule="evenodd" d="M559.191 196.708L696.532 277.888L537.1 347.623L559.191 196.708Z" fill="#FF0000" fill-opacity="0.0980392"/>
<path d="M145.68 81.5669L198.69 39.0586" stroke="#1565C0" stroke-opacity="0.8" stroke-width="2.5" stroke-miterlimit="10" stroke-linecap="round" stroke-linejoin="round"/>
<path d="M198.691 39.0586L262.204 87.068" stroke="#1565C0" stroke-opacity="0.8" stroke-width="2.5" stroke-miterlimit="10" stroke-linecap="round" stroke-linejoin="round"/>
<path d="M262.203 87.0679L295.71 171.084" stroke="#1565C0" stroke-opacity="0.8" stroke-width="2.5" stroke-miterlimit="10" stroke-linecap="round" stroke-linejoin="round"/>
<path d="M295.71 171.084L109.174 157.582" stroke="#1565C0" stroke-opacity="0.8" stroke-width="2.5" stroke-miterlimit="10" stroke-linecap="round" stroke-linejoin="round"/>
<path d="M109.174 157.582L145.681 81.5667" stroke="#1565C0" stroke-opacity="0.8" stroke-width="2.5" stroke-miterlimit="10" stroke-linecap="round" stroke-linejoin="round"/>
<path d="M113.377 308.396L95.7969 259.842" stroke="#FF0000" stroke-opacity="0.8" stroke-width="2.5" stroke-miterlimit="10" stroke-linecap="round" stroke-linejoin="round"/>
<path d="M95.7969 259.842L163.605 212.963" stroke="#FF0000" stroke-opacity="0.8" stroke-width="2.5" stroke-miterlimit="10" stroke-linecap="round" stroke-linejoin="round"/>
<path d="M163.605 212.963L316.801 303.373" stroke="#FF0000" stroke-opacity="0.8" stroke-width="2.5" stroke-miterlimit="10" stroke-linecap="round" stroke-linejoin="round"/>
<path d="M316.801 303.373L146.863 374.529" stroke="#FF0000" stroke-opacity="0.8" stroke-width="2.5" stroke-miterlimit="10" stroke-linecap="round" stroke-linejoin="round"/>
<path d="M146.862 374.529L113.377 308.396" stroke="#FF0000" stroke-opacity="0.8" stroke-width="2.5" stroke-miterlimit="10" stroke-linecap="round" stroke-linejoin="round"/>
<path d="M520.527 99.8147L524.713 157.577" stroke="#1565C0" stroke-opacity="0.8" stroke-width="2.5" stroke-miterlimit="10" stroke-linecap="round" stroke-linejoin="round"/>
<path d="M524.714 157.577L491.229 156.74" stroke="#1565C0" stroke-opacity="0.8" stroke-width="2.5" stroke-miterlimit="10" stroke-linecap="round" stroke-linejoin="round"/>
<path d="M491.229 156.74L520.528 99.8147" stroke="#1565C0" stroke-opacity="0.8" stroke-width="2.5" stroke-miterlimit="10" stroke-linecap="round" stroke-linejoin="round"/>
<path d="M559.52 57.1682L539.781 156.74" stroke="#1565C0" stroke-opacity="0.8" stroke-width="2.5" stroke-miterlimit="10" stroke-linecap="round" stroke-linejoin="round"/>
<path d="M539.782 156.74L525.551 62.9807" stroke="#1565C0" stroke-opacity="0.8" stroke-width="2.5" stroke-miterlimit="10" stroke-linecap="round" stroke-linejoin="round"/>
<path d="M525.551 62.9809L559.52 57.1682" stroke="#1565C0" stroke-opacity="0.8" stroke-width="2.5" stroke-miterlimit="10" stroke-linecap="round" stroke-linejoin="round"/>
<path d="M643.721 101.237L683.231 179.004" stroke="#1565C0" stroke-opacity="0.8" stroke-width="2.5" stroke-miterlimit="10" stroke-linecap="round" stroke-linejoin="round"/>
<path d="M683.232 179.004L552.785 173.359" stroke="#1565C0" stroke-opacity="0.8" stroke-width="2.5" stroke-miterlimit="10" stroke-linecap="round" stroke-linejoin="round"/>
<path d="M552.785 173.359L643.722 101.237" stroke="#1565C0" stroke-opacity="0.8" stroke-width="2.5" stroke-miterlimit="10" stroke-linecap="round" stroke-linejoin="round"/>
<path d="M567.836 54.8279L624.907 98.1013" stroke="#1565C0" stroke-opacity="0.8" stroke-width="2.5" stroke-miterlimit="10" stroke-linecap="round" stroke-linejoin="round"/>
<path d="M624.907 98.1013L549.021 162.071" stroke="#1565C0" stroke-opacity="0.8" stroke-width="2.5" stroke-miterlimit="10" stroke-linecap="round" stroke-linejoin="round"/>
<path d="M549.021 162.071L567.836 54.8279" stroke="#1565C0" stroke-opacity="0.8" stroke-width="2.5" stroke-miterlimit="10" stroke-linecap="round" stroke-linejoin="round"/>
<path d="M546.415 197.773L500.635 283.744" stroke="#FF0000" stroke-opacity="0.8" stroke-width="2.5" stroke-miterlimit="10" stroke-linecap="round" stroke-linejoin="round"/>
<path d="M500.635 283.744L480.141 234.504" stroke="#FF0000" stroke-opacity="0.8" stroke-width="2.5" stroke-miterlimit="10" stroke-linecap="round" stroke-linejoin="round"/>
<path d="M480.141 234.504L546.415 197.773" stroke="#FF0000" stroke-opacity="0.8" stroke-width="2.5" stroke-miterlimit="10" stroke-linecap="round" stroke-linejoin="round"/>
<path d="M550.408 200.701L501.434 290.664" stroke="#FF0000" stroke-opacity="0.8" stroke-width="2.5" stroke-miterlimit="10" stroke-linecap="round" stroke-linejoin="round"/>
<path d="M501.434 290.664L530.712 350.019" stroke="#FF0000" stroke-opacity="0.8" stroke-width="2.5" stroke-miterlimit="10" stroke-linecap="round" stroke-linejoin="round"/>
<path d="M530.711 350.019L550.407 200.701" stroke="#FF0000" stroke-opacity="0.8" stroke-width="2.5" stroke-miterlimit="10" stroke-linecap="round" stroke-linejoin="round"/>
<path d="M559.191 196.708L696.532 277.888" stroke="#FF0000" stroke-opacity="0.8" stroke-width="2.5" stroke-miterlimit="10" stroke-linecap="round" stroke-linejoin="round"/>
<path d="M696.532 277.888L537.1 347.623" stroke="#FF0000" stroke-opacity="0.8" stroke-width="2.5" stroke-miterlimit="10" stroke-linecap="round" stroke-linejoin="round"/>
<path d="M537.1 347.623L559.191 196.708" stroke="#FF0000" stroke-opacity="0.8" stroke-width="2.5" stroke-miterlimit="10" stroke-linecap="round" stroke-linejoin="round"/>
</g>
<defs>
<clipPath id="clip0_358_345">
<rect width="799" height="433" fill="white"/>
</clipPath>
</defs>
</svg>
