<svg width="832" height="487" viewBox="0 0 832 487" fill="none" xmlns="http://www.w3.org/2000/svg">
<g clip-path="url(#clip0_358_392)">
<path d="M832 0H0V487H832V0Z" fill="white"/>
<path fill-rule="evenodd" clip-rule="evenodd" d="M154.63 375.194L142.383 348.076L153.317 228.232L169.938 257.537L154.63 375.194Z" fill="#FF0000" fill-opacity="0.0980392"/>
<path fill-rule="evenodd" clip-rule="evenodd" d="M126.041 284.39L98.9234 227.968L82.3027 253.773L110.733 315.445L126.041 284.39Z" fill="#FF0000" fill-opacity="0.0980392"/>
<path fill-rule="evenodd" clip-rule="evenodd" d="M191.523 359.188L198.602 296.264L333.89 237.272L322.878 304.129L191.523 359.188Z" fill="#FF0000" fill-opacity="0.0980392"/>
<path fill-rule="evenodd" clip-rule="evenodd" d="M165.822 171.347L272.973 176.968L315.833 144.648L204.467 139.729L165.822 171.347Z" fill="#1565C0" fill-opacity="0.0980392"/>
<path fill-rule="evenodd" clip-rule="evenodd" d="M161.256 157.295L171.444 103.896L230.465 57.1709L224.141 104.598L161.256 157.295Z" fill="#1565C0" fill-opacity="0.0980392"/>
<path fill-rule="evenodd" clip-rule="evenodd" d="M161.247 85.4512L154.22 120.934L120.846 125.501L128.926 88.613L161.247 85.4512Z" fill="#1565C0" fill-opacity="0.0980392"/>
<path fill-rule="evenodd" clip-rule="evenodd" d="M146.853 158.7L113.478 157.646L98.7227 133.757L135.611 135.162L146.853 158.7Z" fill="#1565C0" fill-opacity="0.0980392"/>
<path fill-rule="evenodd" clip-rule="evenodd" d="M609.626 389.289L587.395 337.588L752.837 265.207L777.136 318.976L609.626 389.289Z" fill="#FF0000" fill-opacity="0.0980392"/>
<path fill-rule="evenodd" clip-rule="evenodd" d="M567.152 399.193L549.057 394.023L576.547 252.282L595.159 255.384L567.152 399.193Z" fill="#FF0000" fill-opacity="0.0980392"/>
<path fill-rule="evenodd" clip-rule="evenodd" d="M504.157 256.935L533.955 316.068L513.275 336.748L483.477 273.996L504.157 256.935Z" fill="#FF0000" fill-opacity="0.0980392"/>
<path fill-rule="evenodd" clip-rule="evenodd" d="M717.534 169.931L714.766 204.534L562.514 199.689L564.59 161.626L717.534 169.931Z" fill="#1565C0" fill-opacity="0.0980392"/>
<path fill-rule="evenodd" clip-rule="evenodd" d="M618.382 102.798L595.544 71.6558L515.266 140.861L537.411 172.696L618.382 102.798Z" fill="#1565C0" fill-opacity="0.0980392"/>
<path fill-rule="evenodd" clip-rule="evenodd" d="M500.195 178.287L499.331 153.797L447.18 152.068L446.604 177.135L500.195 178.287Z" fill="#1565C0" fill-opacity="0.0980392"/>
<path fill-rule="evenodd" clip-rule="evenodd" d="M491.839 133.628L488.67 98.4766L454.959 102.222L460.433 137.085L491.839 133.628Z" fill="#1565C0" fill-opacity="0.0980392"/>
<path d="M154.63 375.194L142.383 348.076" stroke="#FF0000" stroke-opacity="0.8" stroke-width="2.5" stroke-miterlimit="10" stroke-linecap="round" stroke-linejoin="round"/>
<path d="M142.383 348.076L153.317 228.232" stroke="#FF0000" stroke-opacity="0.8" stroke-width="2.5" stroke-miterlimit="10" stroke-linecap="round" stroke-linejoin="round"/>
<path d="M153.316 228.232L169.937 257.537" stroke="#FF0000" stroke-opacity="0.8" stroke-width="2.5" stroke-miterlimit="10" stroke-linecap="round" stroke-linejoin="round"/>
<path d="M169.937 257.537L154.629 375.194" stroke="#FF0000" stroke-opacity="0.8" stroke-width="2.5" stroke-miterlimit="10" stroke-linecap="round" stroke-linejoin="round"/>
<path d="M126.042 284.39L98.9238 227.968" stroke="#FF0000" stroke-opacity="0.8" stroke-width="2.5" stroke-miterlimit="10" stroke-linecap="round" stroke-linejoin="round"/>
<path d="M98.9234 227.968L82.3027 253.773" stroke="#FF0000" stroke-opacity="0.8" stroke-width="2.5" stroke-miterlimit="10" stroke-linecap="round" stroke-linejoin="round"/>
<path d="M82.3027 253.773L110.733 315.445" stroke="#FF0000" stroke-opacity="0.8" stroke-width="2.5" stroke-miterlimit="10" stroke-linecap="round" stroke-linejoin="round"/>
<path d="M110.732 315.445L126.041 284.391" stroke="#FF0000" stroke-opacity="0.8" stroke-width="2.5" stroke-miterlimit="10" stroke-linecap="round" stroke-linejoin="round"/>
<path d="M191.523 359.188L198.602 296.264" stroke="#FF0000" stroke-opacity="0.8" stroke-width="2.5" stroke-miterlimit="10" stroke-linecap="round" stroke-linejoin="round"/>
<path d="M198.604 296.264L333.891 237.272" stroke="#FF0000" stroke-opacity="0.8" stroke-width="2.5" stroke-miterlimit="10" stroke-linecap="round" stroke-linejoin="round"/>
<path d="M333.891 237.272L322.879 304.129" stroke="#FF0000" stroke-opacity="0.8" stroke-width="2.5" stroke-miterlimit="10" stroke-linecap="round" stroke-linejoin="round"/>
<path d="M322.878 304.129L191.523 359.188" stroke="#FF0000" stroke-opacity="0.8" stroke-width="2.5" stroke-miterlimit="10" stroke-linecap="round" stroke-linejoin="round"/>
<path d="M165.822 171.347L272.973 176.968" stroke="#1565C0" stroke-opacity="0.8" stroke-width="2.5" stroke-miterlimit="10" stroke-linecap="round" stroke-linejoin="round"/>
<path d="M272.973 176.969L315.833 144.648" stroke="#1565C0" stroke-opacity="0.8" stroke-width="2.5" stroke-miterlimit="10" stroke-linecap="round" stroke-linejoin="round"/>
<path d="M315.833 144.648L204.467 139.729" stroke="#1565C0" stroke-opacity="0.8" stroke-width="2.5" stroke-miterlimit="10" stroke-linecap="round" stroke-linejoin="round"/>
<path d="M204.467 139.729L165.822 171.347" stroke="#1565C0" stroke-opacity="0.8" stroke-width="2.5" stroke-miterlimit="10" stroke-linecap="round" stroke-linejoin="round"/>
<path d="M161.256 157.295L171.444 103.895" stroke="#1565C0" stroke-opacity="0.8" stroke-width="2.5" stroke-miterlimit="10" stroke-linecap="round" stroke-linejoin="round"/>
<path d="M171.443 103.896L230.464 57.1709" stroke="#1565C0" stroke-opacity="0.8" stroke-width="2.5" stroke-miterlimit="10" stroke-linecap="round" stroke-linejoin="round"/>
<path d="M230.464 57.1709L224.141 104.598" stroke="#1565C0" stroke-opacity="0.8" stroke-width="2.5" stroke-miterlimit="10" stroke-linecap="round" stroke-linejoin="round"/>
<path d="M224.141 104.598L161.256 157.295" stroke="#1565C0" stroke-opacity="0.8" stroke-width="2.5" stroke-miterlimit="10" stroke-linecap="round" stroke-linejoin="round"/>
<path d="M161.247 85.4512L154.221 120.934" stroke="#1565C0" stroke-opacity="0.8" stroke-width="2.5" stroke-miterlimit="10" stroke-linecap="round" stroke-linejoin="round"/>
<path d="M154.22 120.934L120.846 125.501" stroke="#1565C0" stroke-opacity="0.8" stroke-width="2.5" stroke-miterlimit="10" stroke-linecap="round" stroke-linejoin="round"/>
<path d="M120.846 125.501L128.926 88.613" stroke="#1565C0" stroke-opacity="0.8" stroke-width="2.5" stroke-miterlimit="10" stroke-linecap="round" stroke-linejoin="round"/>
<path d="M128.928 88.613L161.249 85.4512" stroke="#1565C0" stroke-opacity="0.8" stroke-width="2.5" stroke-miterlimit="10" stroke-linecap="round" stroke-linejoin="round"/>
<path d="M146.851 158.7L113.477 157.646" stroke="#1565C0" stroke-opacity="0.8" stroke-width="2.5" stroke-miterlimit="10" stroke-linecap="round" stroke-linejoin="round"/>
<path d="M113.478 157.646L98.7227 133.757" stroke="#1565C0" stroke-opacity="0.8" stroke-width="2.5" stroke-miterlimit="10" stroke-linecap="round" stroke-linejoin="round"/>
<path d="M98.7227 133.757L135.611 135.162" stroke="#1565C0" stroke-opacity="0.8" stroke-width="2.5" stroke-miterlimit="10" stroke-linecap="round" stroke-linejoin="round"/>
<path d="M135.609 135.162L146.851 158.7" stroke="#1565C0" stroke-opacity="0.8" stroke-width="2.5" stroke-miterlimit="10" stroke-linecap="round" stroke-linejoin="round"/>
<path d="M609.626 389.289L587.395 337.588" stroke="#FF0000" stroke-opacity="0.8" stroke-width="2.5" stroke-miterlimit="10" stroke-linecap="round" stroke-linejoin="round"/>
<path d="M587.395 337.588L752.837 265.207" stroke="#FF0000" stroke-opacity="0.8" stroke-width="2.5" stroke-miterlimit="10" stroke-linecap="round" stroke-linejoin="round"/>
<path d="M752.838 265.207L777.137 318.976" stroke="#FF0000" stroke-opacity="0.8" stroke-width="2.5" stroke-miterlimit="10" stroke-linecap="round" stroke-linejoin="round"/>
<path d="M777.137 318.976L609.627 389.289" stroke="#FF0000" stroke-opacity="0.8" stroke-width="2.5" stroke-miterlimit="10" stroke-linecap="round" stroke-linejoin="round"/>
<path d="M567.152 399.193L549.057 394.022" stroke="#FF0000" stroke-opacity="0.8" stroke-width="2.5" stroke-miterlimit="10" stroke-linecap="round" stroke-linejoin="round"/>
<path d="M549.057 394.023L576.547 252.282" stroke="#FF0000" stroke-opacity="0.8" stroke-width="2.5" stroke-miterlimit="10" stroke-linecap="round" stroke-linejoin="round"/>
<path d="M576.547 252.282L595.159 255.384" stroke="#FF0000" stroke-opacity="0.8" stroke-width="2.5" stroke-miterlimit="10" stroke-linecap="round" stroke-linejoin="round"/>
<path d="M595.157 255.384L567.15 399.193" stroke="#FF0000" stroke-opacity="0.8" stroke-width="2.5" stroke-miterlimit="10" stroke-linecap="round" stroke-linejoin="round"/>
<path d="M504.156 256.935L533.954 316.068" stroke="#FF0000" stroke-opacity="0.8" stroke-width="2.5" stroke-miterlimit="10" stroke-linecap="round" stroke-linejoin="round"/>
<path d="M533.956 316.068L513.275 336.748" stroke="#FF0000" stroke-opacity="0.8" stroke-width="2.5" stroke-miterlimit="10" stroke-linecap="round" stroke-linejoin="round"/>
<path d="M513.275 336.748L483.477 273.996" stroke="#FF0000" stroke-opacity="0.8" stroke-width="2.5" stroke-miterlimit="10" stroke-linecap="round" stroke-linejoin="round"/>
<path d="M483.477 273.996L504.157 256.935" stroke="#FF0000" stroke-opacity="0.8" stroke-width="2.5" stroke-miterlimit="10" stroke-linecap="round" stroke-linejoin="round"/>
<path d="M717.534 169.931L714.766 204.534" stroke="#1565C0" stroke-opacity="0.8" stroke-width="2.5" stroke-miterlimit="10" stroke-linecap="round" stroke-linejoin="round"/>
<path d="M714.766 204.534L562.514 199.689" stroke="#1565C0" stroke-opacity="0.8" stroke-width="2.5" stroke-miterlimit="10" stroke-linecap="round" stroke-linejoin="round"/>
<path d="M562.514 199.689L564.59 161.626" stroke="#1565C0" stroke-opacity="0.8" stroke-width="2.5" stroke-miterlimit="10" stroke-linecap="round" stroke-linejoin="round"/>
<path d="M564.59 161.626L717.534 169.931" stroke="#1565C0" stroke-opacity="0.8" stroke-width="2.5" stroke-miterlimit="10" stroke-linecap="round" stroke-linejoin="round"/>
<path d="M618.383 102.798L595.545 71.6558" stroke="#1565C0" stroke-opacity="0.8" stroke-width="2.5" stroke-miterlimit="10" stroke-linecap="round" stroke-linejoin="round"/>
<path d="M595.544 71.6558L515.266 140.861" stroke="#1565C0" stroke-opacity="0.8" stroke-width="2.5" stroke-miterlimit="10" stroke-linecap="round" stroke-linejoin="round"/>
<path d="M515.266 140.861L537.411 172.696" stroke="#1565C0" stroke-opacity="0.8" stroke-width="2.5" stroke-miterlimit="10" stroke-linecap="round" stroke-linejoin="round"/>
<path d="M537.412 172.696L618.382 102.798" stroke="#1565C0" stroke-opacity="0.8" stroke-width="2.5" stroke-miterlimit="10" stroke-linecap="round" stroke-linejoin="round"/>
<path d="M500.196 178.287L499.332 153.797" stroke="#1565C0" stroke-opacity="0.8" stroke-width="2.5" stroke-miterlimit="10" stroke-linecap="round" stroke-linejoin="round"/>
<path d="M499.33 153.797L447.18 152.068" stroke="#1565C0" stroke-opacity="0.8" stroke-width="2.5" stroke-miterlimit="10" stroke-linecap="round" stroke-linejoin="round"/>
<path d="M447.18 152.068L446.604 177.135" stroke="#1565C0" stroke-opacity="0.8" stroke-width="2.5" stroke-miterlimit="10" stroke-linecap="round" stroke-linejoin="round"/>
<path d="M446.604 177.135L500.195 178.287" stroke="#1565C0" stroke-opacity="0.8" stroke-width="2.5" stroke-miterlimit="10" stroke-linecap="round" stroke-linejoin="round"/>
<path d="M491.839 133.628L488.67 98.4766" stroke="#1565C0" stroke-opacity="0.8" stroke-width="2.5" stroke-miterlimit="10" stroke-linecap="round" stroke-linejoin="round"/>
<path d="M488.67 98.4766L454.959 102.222" stroke="#1565C0" stroke-opacity="0.8" stroke-width="2.5" stroke-miterlimit="10" stroke-linecap="round" stroke-linejoin="round"/>
<path d="M454.959 102.222L460.433 137.085" stroke="#1565C0" stroke-opacity="0.8" stroke-width="2.5" stroke-miterlimit="10" stroke-linecap="round" stroke-linejoin="round"/>
<path d="M460.434 137.085L491.839 133.628" stroke="#1565C0" stroke-opacity="0.8" stroke-width="2.5" stroke-miterlimit="10" stroke-linecap="round" stroke-linejoin="round"/>
</g>
<defs>
<clipPath id="clip0_358_392">
<rect width="832" height="487" fill="white"/>
</clipPath>
</defs>
</svg>
