<svg width="862" height="434" viewBox="0 0 862 434" fill="none" xmlns="http://www.w3.org/2000/svg">
<g clip-path="url(#clip0_358_469)">
<path d="M862 0H0V434H862V0Z" fill="white"/>
<path fill-rule="evenodd" clip-rule="evenodd" d="M536.123 284.855V152.341H747.387V284.855H536.123Z" fill="#1565C0" fill-opacity="0.0980392"/>
<path fill-rule="evenodd" clip-rule="evenodd" d="M172.748 286.545V152.341H384.012V286.545H172.748Z" fill="#FF0000" fill-opacity="0.0980392"/>
<path fill-rule="evenodd" clip-rule="evenodd" d="M172.748 286.545H193.961V265.332H172.748V286.545Z" fill="black" fill-opacity="0.0980392"/>
<path d="M172.748 286.545H193.961V265.332H172.748V286.545Z" stroke="black" stroke-opacity="0.6" stroke-width="2" stroke-miterlimit="10" stroke-linecap="round" stroke-linejoin="round"/>
<path fill-rule="evenodd" clip-rule="evenodd" d="M384.012 286.545V265.332H362.799V286.545H384.012Z" fill="black" fill-opacity="0.0980392"/>
<path d="M384.012 286.545V265.332H362.799V286.545H384.012Z" stroke="black" stroke-opacity="0.6" stroke-width="2" stroke-miterlimit="10" stroke-linecap="round" stroke-linejoin="round"/>
<path fill-rule="evenodd" clip-rule="evenodd" d="M536.123 284.855H557.336V263.642H536.123V284.855Z" fill="black" fill-opacity="0.0980392"/>
<path d="M536.123 284.855H557.336V263.642H536.123V284.855Z" stroke="black" stroke-opacity="0.6" stroke-width="2" stroke-miterlimit="10" stroke-linecap="round" stroke-linejoin="round"/>
<path fill-rule="evenodd" clip-rule="evenodd" d="M747.385 284.855V263.642H726.172V284.855H747.385Z" fill="black" fill-opacity="0.0980392"/>
<path d="M747.385 284.855V263.642H726.172V284.855H747.385Z" stroke="black" stroke-opacity="0.6" stroke-width="2" stroke-miterlimit="10" stroke-linecap="round" stroke-linejoin="round"/>
<path d="M172.748 286.545H384.012" stroke="#616161" stroke-opacity="0.8" stroke-width="2.5" stroke-miterlimit="10" stroke-linecap="round" stroke-linejoin="round"/>
<path d="M536.123 284.855H747.387" stroke="#616161" stroke-opacity="0.8" stroke-width="2.5" stroke-miterlimit="10" stroke-linecap="round" stroke-linejoin="round"/>
<path d="M172.748 251.669H384.012" stroke="#616161" stroke-opacity="0.8" stroke-width="2.5" stroke-miterlimit="10" stroke-linecap="round" stroke-linejoin="round"/>
<path d="M384.012 201.119H172.748" stroke="#616161" stroke-opacity="0.8" stroke-width="2.5" stroke-miterlimit="10" stroke-linecap="round" stroke-linejoin="round"/>
<path d="M536.123 224.45H747.387" stroke="#616161" stroke-opacity="0.8" stroke-width="2.5" stroke-miterlimit="10" stroke-linecap="round" stroke-linejoin="round"/>
<path d="M172.748 286.545V152.341" stroke="#616161" stroke-opacity="0.8" stroke-width="2.5" stroke-miterlimit="10" stroke-linecap="round" stroke-linejoin="round"/>
<path d="M384.012 286.545V152.341" stroke="#616161" stroke-opacity="0.8" stroke-width="2.5" stroke-miterlimit="10" stroke-linecap="round" stroke-linejoin="round"/>
<path d="M536.123 209.187H747.387" stroke="#616161" stroke-opacity="0.8" stroke-width="2.5" stroke-miterlimit="10" stroke-linecap="round" stroke-linejoin="round"/>
<path d="M536.123 173.347H747.387" stroke="#616161" stroke-opacity="0.8" stroke-width="2.5" stroke-miterlimit="10" stroke-linecap="round" stroke-linejoin="round"/>
<path d="M536.123 284.855V152.341" stroke="#616161" stroke-opacity="0.8" stroke-width="2.5" stroke-miterlimit="10" stroke-linecap="round" stroke-linejoin="round"/>
<path d="M747.387 152.341V284.855" stroke="#616161" stroke-opacity="0.8" stroke-width="2.5" stroke-miterlimit="10" stroke-linecap="round" stroke-linejoin="round"/>
<path d="M249.1 280.899L249.838 290.873" stroke="#616161" stroke-opacity="0.8" stroke-width="2.5" stroke-miterlimit="10" stroke-linecap="round" stroke-linejoin="round"/>
<path d="M637.486 277.132L639.112 290.947" stroke="#616161" stroke-opacity="0.8" stroke-width="2.5" stroke-miterlimit="10" stroke-linecap="round" stroke-linejoin="round"/>
<path d="M536.123 284.855V152.341" stroke="#1565C0" stroke-opacity="0.8" stroke-width="2.5" stroke-miterlimit="10" stroke-linecap="round" stroke-linejoin="round"/>
<path d="M536.123 152.341H747.387" stroke="#FF0000" stroke-opacity="0.8" stroke-width="2.5" stroke-miterlimit="10" stroke-linecap="round" stroke-linejoin="round"/>
<path d="M747.387 152.341V284.855" stroke="#1565C0" stroke-opacity="0.8" stroke-width="2.5" stroke-miterlimit="10" stroke-linecap="round" stroke-linejoin="round"/>
<path d="M747.387 284.855H536.123" stroke="#1565C0" stroke-opacity="0.8" stroke-width="2.5" stroke-miterlimit="10" stroke-linecap="round" stroke-linejoin="round"/>
<path d="M172.748 286.545V152.341" stroke="#FF0000" stroke-opacity="0.8" stroke-width="2.5" stroke-miterlimit="10" stroke-linecap="round" stroke-linejoin="round"/>
<path d="M172.748 152.341H384.012" stroke="#FF0000" stroke-opacity="0.8" stroke-width="2.5" stroke-miterlimit="10" stroke-linecap="round" stroke-linejoin="round"/>
<path d="M384.012 152.341V286.545" stroke="#FF0000" stroke-opacity="0.8" stroke-width="2.5" stroke-miterlimit="10" stroke-linecap="round" stroke-linejoin="round"/>
<path d="M384.012 286.545H172.748" stroke="#FF0000" stroke-opacity="0.8" stroke-width="2.5" stroke-miterlimit="10" stroke-linecap="round" stroke-linejoin="round"/>
<path d="M23 152.341H837" stroke="#FF0000" stroke-opacity="0.8" stroke-width="2.5" stroke-miterlimit="10" stroke-linecap="round" stroke-linejoin="round"/>
</g>
<defs>
<clipPath id="clip0_358_469">
<rect width="862" height="434" fill="white"/>
</clipPath>
</defs>
</svg>
