<svg version="1.1" xmlns="http://www.w3.org/2000/svg" xmlns:xlink="http://www.w3.org/1999/xlink" width="1140" height="673"><defs><clipPath id="EcMpgGbIfLzE"><path fill="none" stroke="none" d=" M 0 0 L 1140 0 L 1140 673 L 0 673 L 0 0 Z"/></clipPath></defs><g transform="scale(1,1)" clip-path="url(#EcMpgGbIfLzE)"><g><rect fill="rgb(255,255,255)" stroke="none" x="0" y="0" width="1140" height="674" fill-opacity="1"/><path fill="none" stroke="rgb(255,0,0)" paint-order="fill stroke markers" d=" M 666.4906398017946 341.4988887826745 C 721.3661358860822 248.22893620802967 700.3726071926861 128.91326938999825 616.9567663334844 59.97560466652857 C 533.5409254742829 -8.962060056941084 412.4066605560558 -7.10559622677664 331.1425309675309 64.35589946140925 C 249.87840137900622 135.8173951495947 232.5510585352107 255.7203550180045 290.2589605825017 347.26489152933016" stroke-opacity="0.8" stroke-linecap="round" stroke-linejoin="round" stroke-miterlimit="10" stroke-width="2.5"/><path fill="none" stroke="rgb(255,0,0)" paint-order="fill stroke markers" d=" M 290.2589605825017 347.26489152933044 C 235.38346449821404 440.5348441039753 256.37699319161015 559.8505109220066 339.7928340508118 628.7881756454763 C 423.2086749100134 697.7258403689459 544.3429398282406 695.8693765387814 625.6070694167654 624.4078808505956 C 706.8711990052902 552.9463851624097 724.1985418490856 433.04342529399986 666.4906398017944 341.49888878267427" stroke-opacity="0.8" stroke-linecap="round" stroke-linejoin="round" stroke-miterlimit="10" stroke-width="2.5"/><path fill="rgb(0,0,0)" stroke="none" paint-order="stroke fill markers" d=" M 637.599777164693 128.3079708410995 C 643.1810172557213 137.16173296318993 652.9730057595423 142.46678541504932 663.4378814170626 142.3064041789187 L 662.9781652871337 112.30992670105672 Z" fill-opacity="0.09803921568627451"/><path fill="none" stroke="rgb(0,0,0)" paint-order="fill stroke markers" d=" M 637.599777164693 128.3079708410995 C 643.1810172557213 137.16173296318993 652.9730057595423 142.46678541504932 663.4378814170626 142.3064041789187 L 662.9781652871337 112.30992670105672 Z" stroke-opacity="0.6" stroke-linecap="round" stroke-linejoin="round" stroke-miterlimit="10" stroke-width="2"/><text fill="rgb(0,0,0)" stroke="none" font-family="geogebra-sans-serif, sans-serif" font-size="16px" font-style="normal" font-weight="normal" text-decoration="normal" x="651" y="132" text-anchor="start" dominant-baseline="alphabetic" fill-opacity="1">α</text><text fill="none" stroke="rgb(255,255,255)" font-family="geogebra-sans-serif, sans-serif" font-size="16px" font-style="normal" font-weight="normal" text-decoration="normal" x="651" y="132" text-anchor="start" dominant-baseline="alphabetic" stroke-opacity="1" stroke-linejoin="bevel" stroke-miterlimit="10" stroke-width="3">α</text><text fill="rgb(0,0,0)" stroke="none" font-family="geogebra-sans-serif, sans-serif" font-size="16px" font-style="normal" font-weight="normal" text-decoration="normal" x="651" y="132" text-anchor="start" dominant-baseline="alphabetic" fill-opacity="1">α</text><path fill="rgb(51,255,0)" stroke="none" paint-order="stroke fill markers" d=" M 345.75557900053485 77.64421380362651 C 356.00678035268106 79.75424117454375 366.6166115361913 76.36925924942835 373.75172341110107 68.71226746408695 L 351.80375296654904 48.26021149494113 Z" fill-opacity="0.09803921568627451"/><path fill="none" stroke="rgb(51,255,0)" paint-order="fill stroke markers" d=" M 345.75557900053485 77.64421380362651 C 356.00678035268106 79.75424117454375 366.6166115361913 76.36925924942835 373.75172341110107 68.71226746408695 L 351.80375296654904 48.26021149494113 Z" stroke-opacity="0.6" stroke-linecap="round" stroke-linejoin="round" stroke-miterlimit="10" stroke-width="2"/><text fill="rgb(51,255,0)" stroke="none" font-family="geogebra-sans-serif, sans-serif" font-size="16px" font-style="normal" font-weight="normal" text-decoration="normal" x="354" y="70" text-anchor="start" dominant-baseline="alphabetic" fill-opacity="1">α</text><text fill="none" stroke="rgb(255,255,255)" font-family="geogebra-sans-serif, sans-serif" font-size="16px" font-style="normal" font-weight="normal" text-decoration="normal" x="354" y="70" text-anchor="start" dominant-baseline="alphabetic" stroke-opacity="1" stroke-linejoin="bevel" stroke-miterlimit="10" stroke-width="3">α</text><text fill="rgb(51,255,0)" stroke="none" font-family="geogebra-sans-serif, sans-serif" font-size="16px" font-style="normal" font-weight="normal" text-decoration="normal" x="354" y="70" text-anchor="start" dominant-baseline="alphabetic" fill-opacity="1">α</text><path fill="none" stroke="rgb(97,97,97)" paint-order="fill stroke markers" d=" M 290.25896058250174 347.2648915293303 L 666.4906398017946 341.4988887826745" stroke-opacity="0.8" stroke-linecap="round" stroke-linejoin="round" stroke-miterlimit="10" stroke-width="2.5"/><path fill="none" stroke="rgb(97,97,97)" paint-order="fill stroke markers" d=" M 290.25896058250174 347.2648915293303 L 662.9781652871337 112.30992670105672" stroke-opacity="0.8" stroke-linecap="round" stroke-linejoin="round" stroke-miterlimit="10" stroke-width="2.5"/><path fill="none" stroke="rgb(97,97,97)" paint-order="fill stroke markers" d=" M 662.9781652871337 112.30992670105672 L 666.4906398017946 341.4988887826745" stroke-opacity="0.8" stroke-linecap="round" stroke-linejoin="round" stroke-miterlimit="10" stroke-width="2.5"/><path fill="none" stroke="rgb(97,97,97)" paint-order="fill stroke markers" d=" M 380.0618319098239 280.89292889152546 L 385.8476896928752 293.62181601423816" stroke-opacity="0.8" stroke-linecap="round" stroke-linejoin="round" stroke-miterlimit="10" stroke-width="2.5"/><path fill="none" stroke="rgb(97,97,97)" paint-order="fill stroke markers" d=" M 560.0020089627168 165.75435900880623 L 568.6807956372936 179.06183190982406" stroke-opacity="0.8" stroke-linecap="round" stroke-linejoin="round" stroke-miterlimit="10" stroke-width="2.5"/><path fill="none" stroke="rgb(51,255,0)" paint-order="fill stroke markers" d=" M 290.25896058250174 347.2648915293303 L 351.80375296654904 48.26021149494113" stroke-opacity="0.8" stroke-linecap="round" stroke-linejoin="round" stroke-miterlimit="10" stroke-width="2.5"/><path fill="none" stroke="rgb(51,255,0)" paint-order="fill stroke markers" d=" M 351.80375296654904 48.26021149494113 L 666.4906398017946 341.4988887826745" stroke-opacity="0.8" stroke-linecap="round" stroke-linejoin="round" stroke-miterlimit="10" stroke-width="2.5"/><path fill="rgb(21,101,192)" stroke="none" paint-order="stroke fill markers" d=" M 295.25896058250174 347.2648915293303 C 295.25896058250174 350.0263152784843 293.0203843316557 352.2648915293303 290.25896058250174 352.2648915293303 C 287.4975368333478 352.2648915293303 285.25896058250174 350.0263152784843 285.25896058250174 347.2648915293303 C 285.25896058250174 344.5034677801764 287.4975368333478 342.2648915293303 290.25896058250174 342.2648915293303 C 293.0203843316557 342.2648915293303 295.25896058250174 344.5034677801764 295.25896058250174 347.2648915293303 Z" fill-opacity="1"/><path fill="none" stroke="rgb(0,0,0)" paint-order="fill stroke markers" d=" M 295.25896058250174 347.2648915293303 C 295.25896058250174 350.0263152784843 293.0203843316557 352.2648915293303 290.25896058250174 352.2648915293303 C 287.4975368333478 352.2648915293303 285.25896058250174 350.0263152784843 285.25896058250174 347.2648915293303 C 285.25896058250174 344.5034677801764 287.4975368333478 342.2648915293303 290.25896058250174 342.2648915293303 C 293.0203843316557 342.2648915293303 295.25896058250174 344.5034677801764 295.25896058250174 347.2648915293303 Z" stroke-opacity="1" stroke-linecap="round" stroke-linejoin="round" stroke-miterlimit="10"/><text fill="rgb(21,101,192)" stroke="none" font-family="geogebra-sans-serif, sans-serif" font-size="16px" font-style="normal" font-weight="normal" text-decoration="normal" x="294" y="337" text-anchor="start" dominant-baseline="alphabetic" fill-opacity="1">A</text><text fill="none" stroke="rgb(255,255,255)" font-family="geogebra-sans-serif, sans-serif" font-size="16px" font-style="normal" font-weight="normal" text-decoration="normal" x="294" y="337" text-anchor="start" dominant-baseline="alphabetic" stroke-opacity="1" stroke-linejoin="bevel" stroke-miterlimit="10" stroke-width="3">A</text><text fill="rgb(21,101,192)" stroke="none" font-family="geogebra-sans-serif, sans-serif" font-size="16px" font-style="normal" font-weight="normal" text-decoration="normal" x="294" y="337" text-anchor="start" dominant-baseline="alphabetic" fill-opacity="1">A</text><path fill="rgb(21,101,192)" stroke="none" paint-order="stroke fill markers" d=" M 671.4906398017946 341.4988887826745 C 671.4906398017946 344.26031253182845 669.2520635509486 346.4988887826745 666.4906398017946 346.4988887826745 C 663.7292160526406 346.4988887826745 661.4906398017946 344.26031253182845 661.4906398017946 341.4988887826745 C 661.4906398017946 338.73746503352055 663.7292160526406 336.4988887826745 666.4906398017946 336.4988887826745 C 669.2520635509486 336.4988887826745 671.4906398017946 338.73746503352055 671.4906398017946 341.4988887826745 Z" fill-opacity="1"/><path fill="none" stroke="rgb(0,0,0)" paint-order="fill stroke markers" d=" M 671.4906398017946 341.4988887826745 C 671.4906398017946 344.26031253182845 669.2520635509486 346.4988887826745 666.4906398017946 346.4988887826745 C 663.7292160526406 346.4988887826745 661.4906398017946 344.26031253182845 661.4906398017946 341.4988887826745 C 661.4906398017946 338.73746503352055 663.7292160526406 336.4988887826745 666.4906398017946 336.4988887826745 C 669.2520635509486 336.4988887826745 671.4906398017946 338.73746503352055 671.4906398017946 341.4988887826745 Z" stroke-opacity="1" stroke-linecap="round" stroke-linejoin="round" stroke-miterlimit="10"/><text fill="rgb(21,101,192)" stroke="none" font-family="geogebra-sans-serif, sans-serif" font-size="16px" font-style="normal" font-weight="normal" text-decoration="normal" x="670" y="331" text-anchor="start" dominant-baseline="alphabetic" fill-opacity="1">B</text><text fill="none" stroke="rgb(255,255,255)" font-family="geogebra-sans-serif, sans-serif" font-size="16px" font-style="normal" font-weight="normal" text-decoration="normal" x="670" y="331" text-anchor="start" dominant-baseline="alphabetic" stroke-opacity="1" stroke-linejoin="bevel" stroke-miterlimit="10" stroke-width="3">B</text><text fill="rgb(21,101,192)" stroke="none" font-family="geogebra-sans-serif, sans-serif" font-size="16px" font-style="normal" font-weight="normal" text-decoration="normal" x="670" y="331" text-anchor="start" dominant-baseline="alphabetic" fill-opacity="1">B</text><path fill="rgb(21,101,192)" stroke="none" paint-order="stroke fill markers" d=" M 667.9781652871337 112.30992670105672 C 667.9781652871337 115.07135045021069 665.7395890362877 117.30992670105672 662.9781652871337 117.30992670105672 C 660.2167415379797 117.30992670105672 657.9781652871337 115.07135045021069 657.9781652871337 112.30992670105672 C 657.9781652871337 109.54850295190276 660.2167415379797 107.30992670105672 662.9781652871337 107.30992670105672 C 665.7395890362877 107.30992670105672 667.9781652871337 109.54850295190276 667.9781652871337 112.30992670105672 Z" fill-opacity="1"/><path fill="none" stroke="rgb(0,0,0)" paint-order="fill stroke markers" d=" M 667.9781652871337 112.30992670105672 C 667.9781652871337 115.07135045021069 665.7395890362877 117.30992670105672 662.9781652871337 117.30992670105672 C 660.2167415379797 117.30992670105672 657.9781652871337 115.07135045021069 657.9781652871337 112.30992670105672 C 657.9781652871337 109.54850295190276 660.2167415379797 107.30992670105672 662.9781652871337 107.30992670105672 C 665.7395890362877 107.30992670105672 667.9781652871337 109.54850295190276 667.9781652871337 112.30992670105672 Z" stroke-opacity="1" stroke-linecap="round" stroke-linejoin="round" stroke-miterlimit="10"/><text fill="rgb(21,101,192)" stroke="none" font-family="geogebra-sans-serif, sans-serif" font-size="16px" font-style="normal" font-weight="normal" text-decoration="normal" x="667" y="102" text-anchor="start" dominant-baseline="alphabetic" fill-opacity="1">C</text><text fill="none" stroke="rgb(255,255,255)" font-family="geogebra-sans-serif, sans-serif" font-size="16px" font-style="normal" font-weight="normal" text-decoration="normal" x="667" y="102" text-anchor="start" dominant-baseline="alphabetic" stroke-opacity="1" stroke-linejoin="bevel" stroke-miterlimit="10" stroke-width="3">C</text><text fill="rgb(21,101,192)" stroke="none" font-family="geogebra-sans-serif, sans-serif" font-size="16px" font-style="normal" font-weight="normal" text-decoration="normal" x="667" y="102" text-anchor="start" dominant-baseline="alphabetic" fill-opacity="1">C</text><path fill="rgb(97,97,97)" stroke="none" paint-order="stroke fill markers" d=" M 480.61856293481776 229.7874091151935 C 480.61856293481776 231.99654811451666 478.8277019341409 233.7874091151935 476.61856293481776 233.7874091151935 C 474.4094239354946 233.7874091151935 472.61856293481776 231.99654811451666 472.61856293481776 229.7874091151935 C 472.61856293481776 227.5782701158703 474.4094239354946 225.7874091151935 476.61856293481776 225.7874091151935 C 478.8277019341409 225.7874091151935 480.61856293481776 227.5782701158703 480.61856293481776 229.7874091151935 Z" fill-opacity="1"/><path fill="none" stroke="rgb(0,0,0)" paint-order="fill stroke markers" d=" M 480.61856293481776 229.7874091151935 C 480.61856293481776 231.99654811451666 478.8277019341409 233.7874091151935 476.61856293481776 233.7874091151935 C 474.4094239354946 233.7874091151935 472.61856293481776 231.99654811451666 472.61856293481776 229.7874091151935 C 472.61856293481776 227.5782701158703 474.4094239354946 225.7874091151935 476.61856293481776 225.7874091151935 C 478.8277019341409 225.7874091151935 480.61856293481776 227.5782701158703 480.61856293481776 229.7874091151935 Z" stroke-opacity="1" stroke-linecap="round" stroke-linejoin="round" stroke-miterlimit="10"/><text fill="rgb(97,97,97)" stroke="none" font-family="geogebra-sans-serif, sans-serif" font-size="16px" font-style="normal" font-weight="normal" text-decoration="normal" x="481" y="222" text-anchor="start" dominant-baseline="alphabetic" fill-opacity="1">M</text><text fill="none" stroke="rgb(255,255,255)" font-family="geogebra-sans-serif, sans-serif" font-size="16px" font-style="normal" font-weight="normal" text-decoration="normal" x="481" y="222" text-anchor="start" dominant-baseline="alphabetic" stroke-opacity="1" stroke-linejoin="bevel" stroke-miterlimit="10" stroke-width="3">M</text><text fill="rgb(97,97,97)" stroke="none" font-family="geogebra-sans-serif, sans-serif" font-size="16px" font-style="normal" font-weight="normal" text-decoration="normal" x="481" y="222" text-anchor="start" dominant-baseline="alphabetic" fill-opacity="1">M</text><path fill="rgb(21,101,192)" stroke="none" paint-order="stroke fill markers" d=" M 356.80375296654904 48.26021149494113 C 356.80375296654904 51.021635244095094 354.565176715703 53.26021149494113 351.80375296654904 53.26021149494113 C 349.0423292173951 53.26021149494113 346.80375296654904 51.021635244095094 346.80375296654904 48.26021149494113 C 346.80375296654904 45.49878774578716 349.0423292173951 43.26021149494113 351.80375296654904 43.26021149494113 C 354.565176715703 43.26021149494113 356.80375296654904 45.49878774578716 356.80375296654904 48.26021149494113 Z" fill-opacity="1"/><path fill="none" stroke="rgb(0,0,0)" paint-order="fill stroke markers" d=" M 356.80375296654904 48.26021149494113 C 356.80375296654904 51.021635244095094 354.565176715703 53.26021149494113 351.80375296654904 53.26021149494113 C 349.0423292173951 53.26021149494113 346.80375296654904 51.021635244095094 346.80375296654904 48.26021149494113 C 346.80375296654904 45.49878774578716 349.0423292173951 43.26021149494113 351.80375296654904 43.26021149494113 C 354.565176715703 43.26021149494113 356.80375296654904 45.49878774578716 356.80375296654904 48.26021149494113 Z" stroke-opacity="1" stroke-linecap="round" stroke-linejoin="round" stroke-miterlimit="10"/><text fill="rgb(21,101,192)" stroke="none" font-family="geogebra-sans-serif, sans-serif" font-size="16px" font-style="normal" font-weight="normal" text-decoration="normal" x="356" y="38" text-anchor="start" dominant-baseline="alphabetic" fill-opacity="1">D</text><text fill="none" stroke="rgb(255,255,255)" font-family="geogebra-sans-serif, sans-serif" font-size="16px" font-style="normal" font-weight="normal" text-decoration="normal" x="356" y="38" text-anchor="start" dominant-baseline="alphabetic" stroke-opacity="1" stroke-linejoin="bevel" stroke-miterlimit="10" stroke-width="3">D</text><text fill="rgb(21,101,192)" stroke="none" font-family="geogebra-sans-serif, sans-serif" font-size="16px" font-style="normal" font-weight="normal" text-decoration="normal" x="356" y="38" text-anchor="start" dominant-baseline="alphabetic" fill-opacity="1">D</text></g></g></svg>