<svg version="1.1" xmlns="http://www.w3.org/2000/svg" xmlns:xlink="http://www.w3.org/1999/xlink" width="1140" height="673"><defs><clipPath id="EUMOWNlQgZoR"><path fill="none" stroke="none" d=" M 0 0 L 1140 0 L 1140 673 L 0 673 L 0 0 Z"/></clipPath></defs><g transform="scale(1,1)" clip-path="url(#EUMOWNlQgZoR)"><g><rect fill="rgb(255,255,255)" stroke="none" x="0" y="0" width="1140" height="674" fill-opacity="1"/><path fill="none" stroke="rgb(255,0,0)" paint-order="fill stroke markers" d=" M 280 357.99999999999994 C 308.43174999980977 403.1025125433519 358.313741206241 430.1273175306169 411.6235296441179 429.3103092786954 C 464.93331808199486 428.4933010267739 513.9637306082374 399.95259713172857 541 354" stroke-opacity="0.8" stroke-linecap="round" stroke-linejoin="round" stroke-miterlimit="10" stroke-width="2.5"/><path fill="none" stroke="rgb(255,0,0)" paint-order="fill stroke markers" d=" M 541 354.00000000000006 C 512.5682500001902 308.89748745664804 462.68625879375895 281.8726824693831 409.376470355882 282.6896907213046 C 356.0666819180051 283.5066989732261 307.0362693917625 312.0474028682715 280 358" stroke-opacity="0.8" stroke-linecap="round" stroke-linejoin="round" stroke-miterlimit="10" stroke-width="2.5"/><path fill="none" stroke="rgb(97,97,97)" paint-order="fill stroke markers" d=" M 280 358 L 541 354" stroke-opacity="0.8" stroke-linecap="round" stroke-linejoin="round" stroke-miterlimit="10" stroke-width="2.5"/><path fill="rgb(21,101,192)" stroke="none" paint-order="stroke fill markers" d=" M 285 358 C 285 360.76142374915395 282.76142374915395 363 280 363 C 277.23857625084605 363 275 360.76142374915395 275 358 C 275 355.23857625084605 277.23857625084605 353 280 353 C 282.76142374915395 353 285 355.23857625084605 285 358 Z" fill-opacity="1"/><path fill="none" stroke="rgb(0,0,0)" paint-order="fill stroke markers" d=" M 285 358 C 285 360.76142374915395 282.76142374915395 363 280 363 C 277.23857625084605 363 275 360.76142374915395 275 358 C 275 355.23857625084605 277.23857625084605 353 280 353 C 282.76142374915395 353 285 355.23857625084605 285 358 Z" stroke-opacity="1" stroke-linecap="round" stroke-linejoin="round" stroke-miterlimit="10"/><text fill="rgb(21,101,192)" stroke="none" font-family="geogebra-sans-serif, sans-serif" font-size="16px" font-style="normal" font-weight="normal" text-decoration="normal" x="284" y="348" text-anchor="start" dominant-baseline="alphabetic" fill-opacity="1">A</text><text fill="none" stroke="rgb(255,255,255)" font-family="geogebra-sans-serif, sans-serif" font-size="16px" font-style="normal" font-weight="normal" text-decoration="normal" x="284" y="348" text-anchor="start" dominant-baseline="alphabetic" stroke-opacity="1" stroke-linejoin="bevel" stroke-miterlimit="10" stroke-width="3">A</text><text fill="rgb(21,101,192)" stroke="none" font-family="geogebra-sans-serif, sans-serif" font-size="16px" font-style="normal" font-weight="normal" text-decoration="normal" x="284" y="348" text-anchor="start" dominant-baseline="alphabetic" fill-opacity="1">A</text><path fill="rgb(21,101,192)" stroke="none" paint-order="stroke fill markers" d=" M 546 354 C 546 356.76142374915395 543.761423749154 359 541 359 C 538.238576250846 359 536 356.76142374915395 536 354 C 536 351.23857625084605 538.238576250846 349 541 349 C 543.761423749154 349 546 351.23857625084605 546 354 Z" fill-opacity="1"/><path fill="none" stroke="rgb(0,0,0)" paint-order="fill stroke markers" d=" M 546 354 C 546 356.76142374915395 543.761423749154 359 541 359 C 538.238576250846 359 536 356.76142374915395 536 354 C 536 351.23857625084605 538.238576250846 349 541 349 C 543.761423749154 349 546 351.23857625084605 546 354 Z" stroke-opacity="1" stroke-linecap="round" stroke-linejoin="round" stroke-miterlimit="10"/><text fill="rgb(21,101,192)" stroke="none" font-family="geogebra-sans-serif, sans-serif" font-size="16px" font-style="normal" font-weight="normal" text-decoration="normal" x="545" y="344" text-anchor="start" dominant-baseline="alphabetic" fill-opacity="1">B</text><text fill="none" stroke="rgb(255,255,255)" font-family="geogebra-sans-serif, sans-serif" font-size="16px" font-style="normal" font-weight="normal" text-decoration="normal" x="545" y="344" text-anchor="start" dominant-baseline="alphabetic" stroke-opacity="1" stroke-linejoin="bevel" stroke-miterlimit="10" stroke-width="3">B</text><text fill="rgb(21,101,192)" stroke="none" font-family="geogebra-sans-serif, sans-serif" font-size="16px" font-style="normal" font-weight="normal" text-decoration="normal" x="545" y="344" text-anchor="start" dominant-baseline="alphabetic" fill-opacity="1">B</text></g></g></svg>