<svg version="1.1" xmlns="http://www.w3.org/2000/svg" xmlns:xlink="http://www.w3.org/1999/xlink" width="1136" height="673"><defs><clipPath id="ghorbPnIgzBO"><path fill="none" stroke="none" d=" M 0 0 L 1136 0 L 1136 673 L 0 673 L 0 0 Z"/></clipPath></defs><g transform="scale(1,1)" clip-path="url(#ghorbPnIgzBO)"><g><rect fill="rgb(255,255,255)" stroke="none" x="0" y="0" width="1136" height="674" fill-opacity="1"/><path fill="none" stroke="rgb(255,0,0)" paint-order="fill stroke markers" d=" M 612.2796241662495 309.8429731424051 C 660.0664401113672 228.62140113058334 641.784803255293 124.71863548005436 569.1444133092375 64.68616687573075 C 496.5040233631819 4.653698271407137 391.01758159319326 6.270348719989386 320.2509502059839 68.50062608037845 C 249.48431881877468 130.73090344076712 234.39527904002554 235.14509708569952 284.6486177884724 314.86413799110653" stroke-opacity="0.8" stroke-linecap="round" stroke-linejoin="round" stroke-miterlimit="10" stroke-width="2.5"/><path fill="none" stroke="rgb(255,0,0)" paint-order="fill stroke markers" d=" M 284.6486177884724 314.86413799110676 C 236.86180184335473 396.0857100029285 255.1434386994289 499.98847565345744 327.7838286454845 560.020944257781 C 400.42421859154007 620.0534128621047 505.91066036152876 618.4367624135224 576.6772917487381 556.2064850531333 C 647.4439231359474 493.97620769274425 662.5329629146963 389.56201404781183 612.2796241662494 309.8429731424049" stroke-opacity="0.8" stroke-linecap="round" stroke-linejoin="round" stroke-miterlimit="10" stroke-width="2.5"/><path fill="rgb(0,0,0)" stroke="none" paint-order="stroke fill markers" d=" M 583.842494253371 126.25811545638572 C 589.4237343443992 135.1118775784762 599.2157228482204 140.41693003033555 609.6805985057406 140.25654879420497 L 609.2208823758117 110.26007131634296 Z" fill-opacity="0.09803921568627451"/><path fill="none" stroke="rgb(0,0,0)" paint-order="fill stroke markers" d=" M 583.842494253371 126.25811545638572 C 589.4237343443992 135.1118775784762 599.2157228482204 140.41693003033555 609.6805985057406 140.25654879420497 L 609.2208823758117 110.26007131634296 Z" stroke-opacity="0.6" stroke-linecap="round" stroke-linejoin="round" stroke-miterlimit="10" stroke-width="2"/><path fill="rgb(0,0,0)" stroke="none" paint-order="stroke fill markers" d=" M 647.3350755661091 86.23362243083145 C 651.444420253587 92.7524533263327 657.904662034164 97.4400129212988 665.3766247476166 99.32459330255563 L 672.7134636885498 70.23557829078862 Z" fill-opacity="0.09803921568627451"/><path fill="none" stroke="rgb(0,0,0)" paint-order="fill stroke markers" d=" M 647.3350755661091 86.23362243083145 C 651.444420253587 92.7524533263327 657.904662034164 97.4400129212988 665.3766247476166 99.32459330255563 L 672.7134636885498 70.23557829078862 Z" stroke-opacity="0.6" stroke-linecap="round" stroke-linejoin="round" stroke-miterlimit="10" stroke-width="2"/><path fill="rgb(0,0,0)" stroke="none" paint-order="stroke fill markers" d=" M 414.04823958786983 437.87275257925666 C 409.53708990697123 430.8880381540794 402.3294140934993 426.08886060559945 394.1452464084066 424.620492005065 C 385.9610787233139 423.1521234045306 377.53457135695504 425.14628221933003 370.8766196028193 430.1270839102581 L 388.84736785430647 454.1489948933932 Z" fill-opacity="0.09803921568627451"/><path fill="none" stroke="rgb(0,0,0)" paint-order="fill stroke markers" d=" M 414.04823958786983 437.87275257925666 C 409.53708990697123 430.8880381540794 402.3294140934993 426.08886060559945 394.1452464084066 424.620492005065 C 385.9610787233139 423.1521234045306 377.53457135695504 425.14628221933003 370.8766196028193 430.1270839102581 L 388.84736785430647 454.1489948933932 Z" stroke-opacity="0.6" stroke-linecap="round" stroke-linejoin="round" stroke-miterlimit="10" stroke-width="2"/><path fill="rgb(0,0,0)" stroke="none" paint-order="stroke fill markers" d=" M 315.19804517476933 501.7161677625629 C 309.5197500444556 492.9243358100447 299.66999761000267 487.72731768847416 289.2075193319219 488.0028044376169 L 289.99717344120603 517.9924100766995 Z" fill-opacity="0.09803921568627451"/><path fill="none" stroke="rgb(0,0,0)" paint-order="fill stroke markers" d=" M 315.19804517476933 501.7161677625629 C 309.5197500444556 492.9243358100447 299.66999761000267 487.72731768847416 289.2075193319219 488.0028044376169 L 289.99717344120603 517.9924100766995 Z" stroke-opacity="0.6" stroke-linecap="round" stroke-linejoin="round" stroke-miterlimit="10" stroke-width="2"/><path fill="none" stroke="rgb(97,97,97)" paint-order="fill stroke markers" d=" M 284.64861778847245 314.86413799110665 L 612.2796241662495 309.84297314240507" stroke-opacity="0.8" stroke-linecap="round" stroke-linejoin="round" stroke-miterlimit="10" stroke-width="2.5"/><path fill="none" stroke="rgb(97,97,97)" paint-order="fill stroke markers" d=" M 284.64861778847245 314.86413799110665 L 609.2208823758117 110.26007131634296" stroke-opacity="0.8" stroke-linecap="round" stroke-linejoin="round" stroke-miterlimit="10" stroke-width="2.5"/><path fill="none" stroke="rgb(97,97,97)" paint-order="fill stroke markers" d=" M 609.2208823758117 110.26007131634296 L 612.2796241662495 309.84297314240507" stroke-opacity="0.8" stroke-linecap="round" stroke-linejoin="round" stroke-miterlimit="10" stroke-width="2.5"/><path fill="none" stroke="rgb(97,97,97)" paint-order="fill stroke markers" d=" M 672.7134636885498 70.23557829078862 L 612.2796241662495 309.84297314240507" stroke-opacity="0.8" stroke-linecap="round" stroke-linejoin="round" stroke-miterlimit="10" stroke-width="2.5"/><path fill="none" stroke="rgb(97,97,97)" paint-order="fill stroke markers" d=" M 609.2208823758117 110.26007131634296 L 672.7134636885498 70.23557829078862" stroke-opacity="0.8" stroke-linecap="round" stroke-linejoin="round" stroke-miterlimit="10" stroke-width="2.5"/><path fill="none" stroke="rgb(97,97,97)" paint-order="fill stroke markers" d=" M 284.64861778847245 314.86413799110665 L 289.99717344120603 517.9924100766995" stroke-opacity="0.8" stroke-linecap="round" stroke-linejoin="round" stroke-miterlimit="10" stroke-width="2.5"/><path fill="none" stroke="rgb(97,97,97)" paint-order="fill stroke markers" d=" M 612.2796241662495 309.84297314240507 L 289.99717344120603 517.9924100766995" stroke-opacity="0.8" stroke-linecap="round" stroke-linejoin="round" stroke-miterlimit="10" stroke-width="2.5"/><path fill="none" stroke="rgb(97,97,97)" paint-order="fill stroke markers" d=" M 284.64861778847245 314.86413799110665 L 388.84736785430647 454.1489948933932" stroke-opacity="0.8" stroke-linecap="round" stroke-linejoin="round" stroke-miterlimit="10" stroke-width="2.5"/><path fill="rgb(21,101,192)" stroke="none" paint-order="stroke fill markers" d=" M 289.64861778847245 314.86413799110665 C 289.64861778847245 317.6255617402606 287.4100415376264 319.86413799110665 284.64861778847245 319.86413799110665 C 281.8871940393185 319.86413799110665 279.64861778847245 317.6255617402606 279.64861778847245 314.86413799110665 C 279.64861778847245 312.1027142419527 281.8871940393185 309.86413799110665 284.64861778847245 309.86413799110665 C 287.4100415376264 309.86413799110665 289.64861778847245 312.1027142419527 289.64861778847245 314.86413799110665 Z" fill-opacity="1"/><path fill="none" stroke="rgb(0,0,0)" paint-order="fill stroke markers" d=" M 289.64861778847245 314.86413799110665 C 289.64861778847245 317.6255617402606 287.4100415376264 319.86413799110665 284.64861778847245 319.86413799110665 C 281.8871940393185 319.86413799110665 279.64861778847245 317.6255617402606 279.64861778847245 314.86413799110665 C 279.64861778847245 312.1027142419527 281.8871940393185 309.86413799110665 284.64861778847245 309.86413799110665 C 287.4100415376264 309.86413799110665 289.64861778847245 312.1027142419527 289.64861778847245 314.86413799110665 Z" stroke-opacity="1" stroke-linecap="round" stroke-linejoin="round" stroke-miterlimit="10"/><text fill="rgb(21,101,192)" stroke="none" font-family="geogebra-sans-serif, sans-serif" font-size="16px" font-style="normal" font-weight="normal" text-decoration="normal" x="289" y="305" text-anchor="start" dominant-baseline="alphabetic" fill-opacity="1">A</text><text fill="none" stroke="rgb(255,255,255)" font-family="geogebra-sans-serif, sans-serif" font-size="16px" font-style="normal" font-weight="normal" text-decoration="normal" x="289" y="305" text-anchor="start" dominant-baseline="alphabetic" stroke-opacity="1" stroke-linejoin="bevel" stroke-miterlimit="10" stroke-width="3">A</text><text fill="rgb(21,101,192)" stroke="none" font-family="geogebra-sans-serif, sans-serif" font-size="16px" font-style="normal" font-weight="normal" text-decoration="normal" x="289" y="305" text-anchor="start" dominant-baseline="alphabetic" fill-opacity="1">A</text><path fill="rgb(21,101,192)" stroke="none" paint-order="stroke fill markers" d=" M 617.2796241662495 309.84297314240507 C 617.2796241662495 312.604396891559 615.0410479154035 314.84297314240507 612.2796241662495 314.84297314240507 C 609.5182004170955 314.84297314240507 607.2796241662495 312.604396891559 607.2796241662495 309.84297314240507 C 607.2796241662495 307.0815493932511 609.5182004170955 304.84297314240507 612.2796241662495 304.84297314240507 C 615.0410479154035 304.84297314240507 617.2796241662495 307.0815493932511 617.2796241662495 309.84297314240507 Z" fill-opacity="1"/><path fill="none" stroke="rgb(0,0,0)" paint-order="fill stroke markers" d=" M 617.2796241662495 309.84297314240507 C 617.2796241662495 312.604396891559 615.0410479154035 314.84297314240507 612.2796241662495 314.84297314240507 C 609.5182004170955 314.84297314240507 607.2796241662495 312.604396891559 607.2796241662495 309.84297314240507 C 607.2796241662495 307.0815493932511 609.5182004170955 304.84297314240507 612.2796241662495 304.84297314240507 C 615.0410479154035 304.84297314240507 617.2796241662495 307.0815493932511 617.2796241662495 309.84297314240507 Z" stroke-opacity="1" stroke-linecap="round" stroke-linejoin="round" stroke-miterlimit="10"/><text fill="rgb(21,101,192)" stroke="none" font-family="geogebra-sans-serif, sans-serif" font-size="16px" font-style="normal" font-weight="normal" text-decoration="normal" x="616" y="300" text-anchor="start" dominant-baseline="alphabetic" fill-opacity="1">B</text><text fill="none" stroke="rgb(255,255,255)" font-family="geogebra-sans-serif, sans-serif" font-size="16px" font-style="normal" font-weight="normal" text-decoration="normal" x="616" y="300" text-anchor="start" dominant-baseline="alphabetic" stroke-opacity="1" stroke-linejoin="bevel" stroke-miterlimit="10" stroke-width="3">B</text><text fill="rgb(21,101,192)" stroke="none" font-family="geogebra-sans-serif, sans-serif" font-size="16px" font-style="normal" font-weight="normal" text-decoration="normal" x="616" y="300" text-anchor="start" dominant-baseline="alphabetic" fill-opacity="1">B</text><path fill="rgb(21,101,192)" stroke="none" paint-order="stroke fill markers" d=" M 614.2208823758117 110.26007131634296 C 614.2208823758117 113.02149506549692 611.9823061249657 115.26007131634296 609.2208823758117 115.26007131634296 C 606.4594586266577 115.26007131634296 604.2208823758117 113.02149506549692 604.2208823758117 110.26007131634296 C 604.2208823758117 107.498647567189 606.4594586266577 105.26007131634296 609.2208823758117 105.26007131634296 C 611.9823061249657 105.26007131634296 614.2208823758117 107.498647567189 614.2208823758117 110.26007131634296 Z" fill-opacity="1"/><path fill="none" stroke="rgb(0,0,0)" paint-order="fill stroke markers" d=" M 614.2208823758117 110.26007131634296 C 614.2208823758117 113.02149506549692 611.9823061249657 115.26007131634296 609.2208823758117 115.26007131634296 C 606.4594586266577 115.26007131634296 604.2208823758117 113.02149506549692 604.2208823758117 110.26007131634296 C 604.2208823758117 107.498647567189 606.4594586266577 105.26007131634296 609.2208823758117 105.26007131634296 C 611.9823061249657 105.26007131634296 614.2208823758117 107.498647567189 614.2208823758117 110.26007131634296 Z" stroke-opacity="1" stroke-linecap="round" stroke-linejoin="round" stroke-miterlimit="10"/><text fill="rgb(21,101,192)" stroke="none" font-family="geogebra-sans-serif, sans-serif" font-size="16px" font-style="normal" font-weight="normal" text-decoration="normal" x="613" y="100" text-anchor="start" dominant-baseline="alphabetic" fill-opacity="1">C</text><text fill="none" stroke="rgb(255,255,255)" font-family="geogebra-sans-serif, sans-serif" font-size="16px" font-style="normal" font-weight="normal" text-decoration="normal" x="613" y="100" text-anchor="start" dominant-baseline="alphabetic" stroke-opacity="1" stroke-linejoin="bevel" stroke-miterlimit="10" stroke-width="3">C</text><text fill="rgb(21,101,192)" stroke="none" font-family="geogebra-sans-serif, sans-serif" font-size="16px" font-style="normal" font-weight="normal" text-decoration="normal" x="613" y="100" text-anchor="start" dominant-baseline="alphabetic" fill-opacity="1">C</text><path fill="rgb(21,101,192)" stroke="none" paint-order="stroke fill markers" d=" M 677.7134636885498 70.23557829078862 C 677.7134636885498 72.99700203994259 675.4748874377038 75.23557829078862 672.7134636885498 75.23557829078862 C 669.9520399393958 75.23557829078862 667.7134636885498 72.99700203994259 667.7134636885498 70.23557829078862 C 667.7134636885498 67.47415454163466 669.9520399393958 65.23557829078862 672.7134636885498 65.23557829078862 C 675.4748874377038 65.23557829078862 677.7134636885498 67.47415454163466 677.7134636885498 70.23557829078862 Z" fill-opacity="1"/><path fill="none" stroke="rgb(0,0,0)" paint-order="fill stroke markers" d=" M 677.7134636885498 70.23557829078862 C 677.7134636885498 72.99700203994259 675.4748874377038 75.23557829078862 672.7134636885498 75.23557829078862 C 669.9520399393958 75.23557829078862 667.7134636885498 72.99700203994259 667.7134636885498 70.23557829078862 C 667.7134636885498 67.47415454163466 669.9520399393958 65.23557829078862 672.7134636885498 65.23557829078862 C 675.4748874377038 65.23557829078862 677.7134636885498 67.47415454163466 677.7134636885498 70.23557829078862 Z" stroke-opacity="1" stroke-linecap="round" stroke-linejoin="round" stroke-miterlimit="10"/><text fill="rgb(21,101,192)" stroke="none" font-family="geogebra-sans-serif, sans-serif" font-size="16px" font-style="normal" font-weight="normal" text-decoration="normal" x="677" y="60" text-anchor="start" dominant-baseline="alphabetic" fill-opacity="1">D</text><text fill="none" stroke="rgb(255,255,255)" font-family="geogebra-sans-serif, sans-serif" font-size="16px" font-style="normal" font-weight="normal" text-decoration="normal" x="677" y="60" text-anchor="start" dominant-baseline="alphabetic" stroke-opacity="1" stroke-linejoin="bevel" stroke-miterlimit="10" stroke-width="3">D</text><text fill="rgb(21,101,192)" stroke="none" font-family="geogebra-sans-serif, sans-serif" font-size="16px" font-style="normal" font-weight="normal" text-decoration="normal" x="677" y="60" text-anchor="start" dominant-baseline="alphabetic" fill-opacity="1">D</text><path fill="rgb(21,101,192)" stroke="none" paint-order="stroke fill markers" d=" M 294.99717344120603 517.9924100766995 C 294.99717344120603 520.7538338258535 292.75859719036 522.9924100766995 289.99717344120603 522.9924100766995 C 287.2357496920521 522.9924100766995 284.99717344120603 520.7538338258535 284.99717344120603 517.9924100766995 C 284.99717344120603 515.2309863275455 287.2357496920521 512.9924100766995 289.99717344120603 512.9924100766995 C 292.75859719036 512.9924100766995 294.99717344120603 515.2309863275455 294.99717344120603 517.9924100766995 Z" fill-opacity="1"/><path fill="none" stroke="rgb(0,0,0)" paint-order="fill stroke markers" d=" M 294.99717344120603 517.9924100766995 C 294.99717344120603 520.7538338258535 292.75859719036 522.9924100766995 289.99717344120603 522.9924100766995 C 287.2357496920521 522.9924100766995 284.99717344120603 520.7538338258535 284.99717344120603 517.9924100766995 C 284.99717344120603 515.2309863275455 287.2357496920521 512.9924100766995 289.99717344120603 512.9924100766995 C 292.75859719036 512.9924100766995 294.99717344120603 515.2309863275455 294.99717344120603 517.9924100766995 Z" stroke-opacity="1" stroke-linecap="round" stroke-linejoin="round" stroke-miterlimit="10"/><text fill="rgb(21,101,192)" stroke="none" font-family="geogebra-sans-serif, sans-serif" font-size="16px" font-style="normal" font-weight="normal" text-decoration="normal" x="294" y="508" text-anchor="start" dominant-baseline="alphabetic" fill-opacity="1">C</text><text fill="none" stroke="rgb(255,255,255)" font-family="geogebra-sans-serif, sans-serif" font-size="16px" font-style="normal" font-weight="normal" text-decoration="normal" x="294" y="508" text-anchor="start" dominant-baseline="alphabetic" stroke-opacity="1" stroke-linejoin="bevel" stroke-miterlimit="10" stroke-width="3">C</text><text fill="rgb(21,101,192)" stroke="none" font-family="geogebra-sans-serif, sans-serif" font-size="16px" font-style="normal" font-weight="normal" text-decoration="normal" x="294" y="508" text-anchor="start" dominant-baseline="alphabetic" fill-opacity="1">C</text><text fill="rgb(21,101,192)" stroke="none" font-family="geogebra-sans-serif, sans-serif" font-size="14px" font-style="normal" font-weight="normal" text-decoration="normal" x="306" y="515" text-anchor="start" dominant-baseline="alphabetic" fill-opacity="1">1</text><text fill="none" stroke="rgb(255,255,255)" font-family="geogebra-sans-serif, sans-serif" font-size="14px" font-style="normal" font-weight="normal" text-decoration="normal" x="306" y="515" text-anchor="start" dominant-baseline="alphabetic" stroke-opacity="1" stroke-linejoin="bevel" stroke-miterlimit="10" stroke-width="3">1</text><text fill="rgb(21,101,192)" stroke="none" font-family="geogebra-sans-serif, sans-serif" font-size="14px" font-style="normal" font-weight="normal" text-decoration="normal" x="306" y="515" text-anchor="start" dominant-baseline="alphabetic" fill-opacity="1">1</text><path fill="rgb(21,101,192)" stroke="none" paint-order="stroke fill markers" d=" M 393.84736785430647 454.1489948933932 C 393.84736785430647 456.91041864254714 391.6087916034604 459.1489948933932 388.84736785430647 459.1489948933932 C 386.0859441051525 459.1489948933932 383.84736785430647 456.91041864254714 383.84736785430647 454.1489948933932 C 383.84736785430647 451.38757114423925 386.0859441051525 449.1489948933932 388.84736785430647 449.1489948933932 C 391.6087916034604 449.1489948933932 393.84736785430647 451.38757114423925 393.84736785430647 454.1489948933932 Z" fill-opacity="1"/><path fill="none" stroke="rgb(0,0,0)" paint-order="fill stroke markers" d=" M 393.84736785430647 454.1489948933932 C 393.84736785430647 456.91041864254714 391.6087916034604 459.1489948933932 388.84736785430647 459.1489948933932 C 386.0859441051525 459.1489948933932 383.84736785430647 456.91041864254714 383.84736785430647 454.1489948933932 C 383.84736785430647 451.38757114423925 386.0859441051525 449.1489948933932 388.84736785430647 449.1489948933932 C 391.6087916034604 449.1489948933932 393.84736785430647 451.38757114423925 393.84736785430647 454.1489948933932 Z" stroke-opacity="1" stroke-linecap="round" stroke-linejoin="round" stroke-miterlimit="10"/><text fill="rgb(21,101,192)" stroke="none" font-family="geogebra-sans-serif, sans-serif" font-size="16px" font-style="normal" font-weight="normal" text-decoration="normal" x="393" y="444" text-anchor="start" dominant-baseline="alphabetic" fill-opacity="1">D</text><text fill="none" stroke="rgb(255,255,255)" font-family="geogebra-sans-serif, sans-serif" font-size="16px" font-style="normal" font-weight="normal" text-decoration="normal" x="393" y="444" text-anchor="start" dominant-baseline="alphabetic" stroke-opacity="1" stroke-linejoin="bevel" stroke-miterlimit="10" stroke-width="3">D</text><text fill="rgb(21,101,192)" stroke="none" font-family="geogebra-sans-serif, sans-serif" font-size="16px" font-style="normal" font-weight="normal" text-decoration="normal" x="393" y="444" text-anchor="start" dominant-baseline="alphabetic" fill-opacity="1">D</text><text fill="rgb(21,101,192)" stroke="none" font-family="geogebra-sans-serif, sans-serif" font-size="14px" font-style="normal" font-weight="normal" text-decoration="normal" x="405" y="451" text-anchor="start" dominant-baseline="alphabetic" fill-opacity="1">1</text><text fill="none" stroke="rgb(255,255,255)" font-family="geogebra-sans-serif, sans-serif" font-size="14px" font-style="normal" font-weight="normal" text-decoration="normal" x="405" y="451" text-anchor="start" dominant-baseline="alphabetic" stroke-opacity="1" stroke-linejoin="bevel" stroke-miterlimit="10" stroke-width="3">1</text><text fill="rgb(21,101,192)" stroke="none" font-family="geogebra-sans-serif, sans-serif" font-size="14px" font-style="normal" font-weight="normal" text-decoration="normal" x="405" y="451" text-anchor="start" dominant-baseline="alphabetic" fill-opacity="1">1</text></g></g></svg>