<svg width="420" height="420" viewBox="0 0 420 420" fill="none" xmlns="http://www.w3.org/2000/svg">
<g clip-path="url(#clip0_483_43)">
<path d="M420 0H0V420H420V0Z" fill="white"/>
<path d="M155.391 267.746C158.9 271.228 163.363 273.592 168.216 274.538L173 250L155.391 267.746Z" fill="black" fill-opacity="0.0980392"/>
<path d="M155.391 267.746C158.9 271.228 163.363 273.592 168.216 274.538L173 250L155.391 267.746Z" stroke="black" stroke-opacity="0.6" stroke-width="2" stroke-miterlimit="10" stroke-linecap="round" stroke-linejoin="round"/>
<path d="M168.217 274.538C173.069 275.484 178.094 274.97 182.654 273.061L173.001 250L168.217 274.538Z" fill="black" fill-opacity="0.0980392"/>
<path d="M168.217 274.538C173.069 275.484 178.094 274.97 182.654 273.061L173.001 250L168.217 274.538Z" stroke="black" stroke-opacity="0.6" stroke-width="2" stroke-miterlimit="10" stroke-linecap="round" stroke-linejoin="round"/>
<path d="M231.783 354.462C226.93 353.516 221.906 354.03 217.346 355.939L226.999 379L231.783 354.462Z" fill="black" fill-opacity="0.0980392"/>
<path d="M231.783 354.462C226.93 353.516 221.906 354.03 217.346 355.939L226.999 379L231.783 354.462Z" stroke="black" stroke-opacity="0.6" stroke-width="2" stroke-miterlimit="10" stroke-linecap="round" stroke-linejoin="round"/>
<path d="M253.895 168.478C257.404 171.961 261.867 174.325 266.72 175.271L271.504 150.733L253.895 168.478Z" fill="black" fill-opacity="0.0980392"/>
<path d="M253.895 168.478C257.404 171.961 261.867 174.325 266.72 175.271L271.504 150.733L253.895 168.478Z" stroke="black" stroke-opacity="0.6" stroke-width="2" stroke-miterlimit="10" stroke-linecap="round" stroke-linejoin="round"/>
<path d="M44 380L227 379" stroke="#616161" stroke-opacity="0.8" stroke-width="2.5" stroke-miterlimit="10" stroke-linecap="round" stroke-linejoin="round"/>
<path d="M44 380L173 250" stroke="#616161" stroke-opacity="0.8" stroke-width="2.5" stroke-miterlimit="10" stroke-linecap="round" stroke-linejoin="round"/>
<path d="M173 250L227 379" stroke="#616161" stroke-opacity="0.8" stroke-width="2.5" stroke-miterlimit="10" stroke-linecap="round" stroke-linejoin="round"/>
<path d="M173 250L147.766 379.433" stroke="#616161" stroke-opacity="0.8" stroke-width="2.5" stroke-miterlimit="10" stroke-linecap="round" stroke-linejoin="round"/>
<path d="M227 379L291.816 46.549" stroke="#616161" stroke-opacity="0.8" stroke-width="2.5" stroke-miterlimit="10" stroke-linecap="round" stroke-linejoin="round"/>
<path d="M173 250L394.647 26.6346" stroke="#616161" stroke-opacity="0.8" stroke-width="2.5" stroke-miterlimit="10" stroke-linecap="round" stroke-linejoin="round"/>
<path d="M214 192L226 204" stroke="#616161" stroke-opacity="0.8" stroke-width="2.5" stroke-miterlimit="10" stroke-linecap="round" stroke-linejoin="round"/>
<path d="M208 309L190 319" stroke="#616161" stroke-opacity="0.8" stroke-width="2.5" stroke-miterlimit="10" stroke-linecap="round" stroke-linejoin="round"/>
<path d="M55 380C55 386.075 50.0751 391 44 391C37.9249 391 33 386.075 33 380C33 373.925 37.9249 369 44 369C50.0751 369 55 373.925 55 380Z" fill="#1565C0" fill-opacity="0.2"/>
<path d="M55 380C55 386.075 50.0751 391 44 391C37.9249 391 33 386.075 33 380C33 373.925 37.9249 369 44 369C50.0751 369 55 373.925 55 380Z" stroke="#1565C0" stroke-width="2" stroke-miterlimit="10" stroke-linecap="square"/>
<path d="M49 380C49 382.761 46.7614 385 44 385C41.2386 385 39 382.761 39 380C39 377.239 41.2386 375 44 375C46.7614 375 49 377.239 49 380Z" fill="#1565C0"/>
<path d="M49 380C49 382.761 46.7614 385 44 385C41.2386 385 39 382.761 39 380C39 377.239 41.2386 375 44 375C46.7614 375 49 377.239 49 380Z" stroke="black" stroke-miterlimit="10" stroke-linecap="round" stroke-linejoin="round"/>
<path d="M49.8864 369H48.4091L52.6818 357.364H54.1364L58.4091 369H56.9318L53.4545 359.205H53.3636L49.8864 369ZM50.4318 364.455H56.3864V365.705H50.4318V364.455Z" fill="#1565C0"/>
<path d="M49.8864 369V370.5L51.2999 369.502L49.8864 369ZM48.4091 369L47.001 368.483L48.4091 370.5V369ZM52.6818 357.364V355.864L51.2737 356.847L52.6818 357.364ZM54.1364 357.364L55.5444 356.847L54.1364 355.864V357.364ZM58.4091 369V370.5L59.8172 368.483L58.4091 369ZM56.9318 369L55.5182 369.502L56.9318 370.5V369ZM53.4545 359.205L54.8681 358.703L53.4545 357.705V359.205ZM53.3636 359.205V357.705L51.9501 358.703L53.3636 359.205ZM50.4318 364.455V362.955L48.9318 364.455H50.4318ZM56.3864 364.455H57.8864L56.3864 362.955V364.455ZM56.3864 365.705V367.205L57.8864 365.705H56.3864ZM50.4318 365.705H48.9318L50.4318 367.205V365.705ZM49.8864 367.5H48.4091V370.5H49.8864V367.5ZM49.8172 369.517L54.0899 357.881L51.2737 356.847L47.001 368.483L49.8172 369.517ZM52.6818 358.864H54.1364V355.864H52.6818V358.864ZM52.7283 357.881L57.001 369.517L59.8172 368.483L55.5444 356.847L52.7283 357.881ZM58.4091 367.5H56.9318V370.5H58.4091V367.5ZM58.3454 368.498L54.8681 358.703L52.041 359.706L55.5182 369.502L58.3454 368.498ZM53.4545 357.705H53.3636V360.705H53.4545V357.705ZM51.9501 358.703L48.4728 368.498L51.2999 369.502L54.7772 359.706L51.9501 358.703ZM50.4318 365.955H56.3864V362.955H50.4318V365.955ZM54.8864 364.455V365.705H57.8864V364.455H54.8864ZM56.3864 364.205H50.4318V367.205H56.3864V364.205ZM51.9318 365.705V364.455H48.9318V365.705H51.9318Z" fill="white"/>
<path d="M49.8864 369H48.4091L52.6818 357.364H54.1364L58.4091 369H56.9318L53.4545 359.205H53.3636L49.8864 369ZM50.4318 364.455H56.3864V365.705H50.4318V364.455Z" fill="#1565C0"/>
<path d="M232 379C232 381.761 229.761 384 227 384C224.239 384 222 381.761 222 379C222 376.239 224.239 374 227 374C229.761 374 232 376.239 232 379Z" fill="#1565C0"/>
<path d="M232 379C232 381.761 229.761 384 227 384C224.239 384 222 381.761 222 379C222 376.239 224.239 374 227 374C229.761 374 232 376.239 232 379Z" stroke="black" stroke-miterlimit="10" stroke-linecap="round" stroke-linejoin="round"/>
<path d="M232.409 368V356.364H236.477C237.288 356.364 237.956 356.504 238.483 356.784C239.009 357.061 239.402 357.434 239.659 357.903C239.917 358.369 240.045 358.886 240.045 359.455C240.045 359.955 239.956 360.367 239.778 360.693C239.604 361.019 239.373 361.277 239.085 361.466C238.801 361.655 238.492 361.795 238.159 361.886V362C238.515 362.023 238.873 362.148 239.233 362.375C239.593 362.602 239.894 362.928 240.136 363.352C240.379 363.777 240.5 364.295 240.5 364.909C240.5 365.492 240.367 366.017 240.102 366.483C239.837 366.949 239.419 367.318 238.847 367.591C238.275 367.864 237.53 368 236.614 368H232.409ZM233.818 366.75H236.614C237.534 366.75 238.188 366.572 238.574 366.216C238.964 365.856 239.159 365.42 239.159 364.909C239.159 364.515 239.059 364.152 238.858 363.818C238.657 363.481 238.371 363.212 238 363.011C237.629 362.807 237.189 362.705 236.682 362.705H233.818V366.75ZM233.818 361.477H236.432C236.856 361.477 237.239 361.394 237.58 361.227C237.924 361.061 238.197 360.826 238.398 360.523C238.602 360.22 238.705 359.864 238.705 359.455C238.705 358.943 238.527 358.509 238.17 358.153C237.814 357.794 237.25 357.614 236.477 357.614H233.818V361.477Z" fill="#1565C0"/>
<path d="M232.409 368H230.909L232.409 369.5V368ZM232.409 356.364V354.864L230.909 356.364H232.409ZM238.483 356.784L237.778 358.108L237.786 358.112L238.483 356.784ZM239.659 357.903L238.344 358.625L238.346 358.629L239.659 357.903ZM239.778 360.693L238.462 359.974L238.456 359.986L239.778 360.693ZM239.085 361.466L238.261 360.213L238.253 360.218L239.085 361.466ZM238.159 361.886L237.764 360.439L236.659 361.886H238.159ZM238.159 362H236.659L238.064 363.497L238.159 362ZM239.233 362.375L238.432 363.643L238.432 363.643L239.233 362.375ZM240.102 366.483L241.406 367.225L241.406 367.225L240.102 366.483ZM238.847 367.591L238.201 366.237L238.201 366.237L238.847 367.591ZM233.818 366.75H232.318L233.818 368.25V366.75ZM238.574 366.216L239.59 367.319L239.591 367.319L238.574 366.216ZM238.858 363.818L237.569 364.586L237.573 364.592L238.858 363.818ZM238 363.011L237.276 364.325L237.286 364.331L238 363.011ZM233.818 362.705V361.205L232.318 362.705H233.818ZM233.818 361.477H232.318L233.818 362.977V361.477ZM237.58 361.227L236.927 359.877L236.921 359.88L237.58 361.227ZM238.398 360.523L237.154 359.683L237.147 359.694L238.398 360.523ZM238.17 358.153L237.104 359.208L237.11 359.214L238.17 358.153ZM233.818 357.614V356.114L232.318 357.614H233.818ZM233.909 368V356.364H230.909V368H233.909ZM232.409 357.864H236.477V354.864H232.409V357.864ZM236.477 357.864C237.126 357.864 237.532 357.977 237.778 358.108L239.188 355.46C238.381 355.03 237.45 354.864 236.477 354.864V357.864ZM237.786 358.112C238.081 358.267 238.243 358.442 238.344 358.625L240.974 357.182C240.56 356.426 239.938 355.854 239.18 355.456L237.786 358.112ZM238.346 358.629C238.473 358.858 238.545 359.123 238.545 359.455H241.545C241.545 358.65 241.36 357.881 240.972 357.178L238.346 358.629ZM238.545 359.455C238.545 359.787 238.485 359.932 238.462 359.974L241.095 361.413C241.428 360.803 241.545 360.122 241.545 359.455H238.545ZM238.456 359.986C238.391 360.107 238.325 360.171 238.261 360.213L239.91 362.719C240.421 362.382 240.818 361.931 241.101 361.401L238.456 359.986ZM238.253 360.218C238.105 360.317 237.944 360.39 237.764 360.439L238.554 363.334C239.041 363.201 239.497 362.994 239.917 362.714L238.253 360.218ZM236.659 361.886V362H239.659V361.886H236.659ZM238.064 363.497C238.125 363.501 238.244 363.524 238.432 363.643L240.034 361.107C239.503 360.771 238.905 360.545 238.255 360.503L238.064 363.497ZM238.432 363.643C238.555 363.721 238.695 363.854 238.834 364.096L241.439 362.608C241.093 362.003 240.63 361.483 240.034 361.107L238.432 363.643ZM238.834 364.096C238.918 364.243 239 364.491 239 364.909H242C242 364.1 241.84 363.31 241.439 362.608L238.834 364.096ZM239 364.909C239 365.256 238.924 365.521 238.799 365.741L241.406 367.225C241.811 366.513 242 365.729 242 364.909H239ZM238.799 365.741C238.711 365.895 238.548 366.072 238.201 366.237L239.492 368.945C240.289 368.565 240.963 368.003 241.406 367.225L238.799 365.741ZM238.201 366.237C237.9 366.38 237.399 366.5 236.614 366.5V369.5C237.661 369.5 238.649 369.347 239.492 368.945L238.201 366.237ZM236.614 366.5H232.409V369.5H236.614V366.5ZM233.818 368.25H236.614V365.25H233.818V368.25ZM236.614 368.25C237.652 368.25 238.782 368.064 239.59 367.319L237.557 365.113C237.585 365.088 237.559 365.126 237.4 365.169C237.238 365.213 236.985 365.25 236.614 365.25V368.25ZM239.591 367.319C240.276 366.687 240.659 365.857 240.659 364.909H237.659C237.659 364.969 237.649 364.995 237.644 365.006C237.638 365.019 237.619 365.056 237.557 365.113L239.591 367.319ZM240.659 364.909C240.659 364.246 240.486 363.614 240.143 363.044L237.573 364.592C237.631 364.689 237.659 364.784 237.659 364.909H240.659ZM240.147 363.051C239.797 362.464 239.304 362.011 238.714 361.692L237.286 364.331C237.438 364.413 237.517 364.499 237.569 364.586L240.147 363.051ZM238.724 361.698C238.091 361.349 237.393 361.205 236.682 361.205V364.205C236.986 364.205 237.167 364.265 237.276 364.325L238.724 361.698ZM236.682 361.205H233.818V364.205H236.682V361.205ZM232.318 362.705V366.75H235.318V362.705H232.318ZM233.818 362.977H236.432V359.977H233.818V362.977ZM236.432 362.977C237.057 362.977 237.669 362.853 238.238 362.575L236.921 359.88C236.808 359.935 236.655 359.977 236.432 359.977V362.977ZM238.232 362.578C238.806 362.3 239.291 361.891 239.648 361.351L237.147 359.694C237.103 359.761 237.042 359.821 236.927 359.877L238.232 362.578ZM239.641 361.362C240.032 360.782 240.205 360.126 240.205 359.455H237.205C237.205 359.601 237.172 359.657 237.154 359.684L239.641 361.362ZM240.205 359.455C240.205 358.552 239.873 357.735 239.231 357.093L237.11 359.214C237.18 359.284 237.205 359.334 237.205 359.455H240.205ZM239.237 357.098C238.481 356.334 237.443 356.114 236.477 356.114V359.114C237.057 359.114 237.148 359.253 237.104 359.208L239.237 357.098ZM236.477 356.114H233.818V359.114H236.477V356.114ZM232.318 357.614V361.477H235.318V357.614H232.318Z" fill="white"/>
<path d="M232.409 368V356.364H236.477C237.288 356.364 237.956 356.504 238.483 356.784C239.009 357.061 239.402 357.434 239.659 357.903C239.917 358.369 240.045 358.886 240.045 359.455C240.045 359.955 239.956 360.367 239.778 360.693C239.604 361.019 239.373 361.277 239.085 361.466C238.801 361.655 238.492 361.795 238.159 361.886V362C238.515 362.023 238.873 362.148 239.233 362.375C239.593 362.602 239.894 362.928 240.136 363.352C240.379 363.777 240.5 364.295 240.5 364.909C240.5 365.492 240.367 366.017 240.102 366.483C239.837 366.949 239.419 367.318 238.847 367.591C238.275 367.864 237.53 368 236.614 368H232.409ZM233.818 366.75H236.614C237.534 366.75 238.188 366.572 238.574 366.216C238.964 365.856 239.159 365.42 239.159 364.909C239.159 364.515 239.059 364.152 238.858 363.818C238.657 363.481 238.371 363.212 238 363.011C237.629 362.807 237.189 362.705 236.682 362.705H233.818V366.75ZM233.818 361.477H236.432C236.856 361.477 237.239 361.394 237.58 361.227C237.924 361.061 238.197 360.826 238.398 360.523C238.602 360.22 238.705 359.864 238.705 359.455C238.705 358.943 238.527 358.509 238.17 358.153C237.814 357.794 237.25 357.614 236.477 357.614H233.818V361.477Z" fill="#1565C0"/>
<path d="M178 250C178 252.761 175.761 255 173 255C170.239 255 168 252.761 168 250C168 247.239 170.239 245 173 245C175.761 245 178 247.239 178 250Z" fill="#1565C0"/>
<path d="M178 250C178 252.761 175.761 255 173 255C170.239 255 168 252.761 168 250C168 247.239 170.239 245 173 245C175.761 245 178 247.239 178 250Z" stroke="black" stroke-miterlimit="10" stroke-linecap="round" stroke-linejoin="round"/>
<path d="M187.773 231H186.364C186.28 230.595 186.134 230.239 185.926 229.932C185.722 229.625 185.472 229.367 185.176 229.159C184.884 228.947 184.561 228.788 184.205 228.682C183.848 228.576 183.477 228.523 183.091 228.523C182.386 228.523 181.748 228.701 181.176 229.057C180.608 229.413 180.155 229.938 179.818 230.631C179.485 231.324 179.318 232.174 179.318 233.182C179.318 234.189 179.485 235.04 179.818 235.733C180.155 236.426 180.608 236.951 181.176 237.307C181.748 237.663 182.386 237.841 183.091 237.841C183.477 237.841 183.848 237.788 184.205 237.682C184.561 237.576 184.884 237.419 185.176 237.21C185.472 236.998 185.722 236.739 185.926 236.432C186.134 236.121 186.28 235.765 186.364 235.364H187.773C187.667 235.958 187.473 236.491 187.193 236.96C186.913 237.43 186.564 237.83 186.148 238.159C185.731 238.485 185.263 238.733 184.744 238.903C184.229 239.074 183.678 239.159 183.091 239.159C182.098 239.159 181.216 238.917 180.443 238.432C179.67 237.947 179.063 237.258 178.619 236.364C178.176 235.47 177.955 234.409 177.955 233.182C177.955 231.955 178.176 230.894 178.619 230C179.063 229.106 179.67 228.417 180.443 227.932C181.216 227.447 182.098 227.205 183.091 227.205C183.678 227.205 184.229 227.29 184.744 227.46C185.263 227.631 185.731 227.881 186.148 228.21C186.564 228.536 186.913 228.934 187.193 229.403C187.473 229.869 187.667 230.402 187.773 231Z" fill="#1565C0"/>
<path d="M187.773 231V232.5L189.25 230.738L187.773 231ZM186.364 231L184.894 231.302L186.364 232.5V231ZM185.926 229.932L184.678 230.764L184.685 230.774L185.926 229.932ZM185.176 229.159L184.294 230.372L184.312 230.385L185.176 229.159ZM184.205 228.682L183.776 230.119L183.776 230.119L184.205 228.682ZM181.176 229.057L180.383 227.783L180.38 227.786L181.176 229.057ZM179.818 230.631L178.469 229.975L178.466 229.981L179.818 230.631ZM179.818 235.733L178.466 236.383L178.469 236.389L179.818 235.733ZM181.176 237.307L180.38 238.578L180.383 238.58L181.176 237.307ZM184.205 237.682L183.776 236.244L183.776 236.244L184.205 237.682ZM185.176 237.21L186.048 238.431L186.051 238.429L185.176 237.21ZM185.926 236.432L184.68 235.596L184.678 235.6L185.926 236.432ZM186.364 235.364V233.864L184.895 235.059L186.364 235.364ZM187.773 235.364L189.249 235.627L187.773 233.864V235.364ZM187.193 236.96L185.905 236.192L185.905 236.192L187.193 236.96ZM186.148 238.159L187.072 239.341L187.078 239.336L186.148 238.159ZM184.744 238.903L184.276 237.478L184.273 237.479L184.744 238.903ZM180.443 238.432L179.646 239.702L179.646 239.702L180.443 238.432ZM178.619 236.364L179.963 235.697L179.963 235.697L178.619 236.364ZM178.619 230L177.275 229.334L178.619 230ZM184.744 227.46L184.273 228.884L184.276 228.885L184.744 227.46ZM186.148 228.21L185.217 229.387L185.224 229.392L186.148 228.21ZM187.193 229.403L185.905 230.172L185.908 230.177L187.193 229.403ZM187.773 229.5H186.364V232.5H187.773V229.5ZM187.833 230.698C187.714 230.122 187.499 229.577 187.167 229.089L184.685 230.774C184.77 230.9 184.846 231.068 184.894 231.302L187.833 230.698ZM187.174 229.1C186.869 228.642 186.49 228.25 186.041 227.933L184.312 230.385C184.453 230.485 184.574 230.608 184.678 230.764L187.174 229.1ZM186.058 227.946C185.625 227.631 185.147 227.397 184.633 227.244L183.776 230.119C183.974 230.178 184.144 230.263 184.294 230.372L186.058 227.946ZM184.633 227.244C184.132 227.095 183.616 227.023 183.091 227.023V230.023C183.338 230.023 183.565 230.056 183.776 230.119L184.633 227.244ZM183.091 227.023C182.12 227.023 181.204 227.272 180.383 227.783L181.969 230.33C182.292 230.129 182.653 230.023 183.091 230.023V227.023ZM180.38 227.786C179.539 228.312 178.91 229.067 178.469 229.975L181.167 231.287C181.4 230.808 181.677 230.513 181.973 230.328L180.38 227.786ZM178.466 229.981C178.01 230.929 177.818 232.016 177.818 233.182H180.818C180.818 232.332 180.96 231.718 181.17 231.281L178.466 229.981ZM177.818 233.182C177.818 234.348 178.01 235.434 178.466 236.383L181.17 235.083C180.96 234.645 180.818 234.031 180.818 233.182H177.818ZM178.469 236.389C178.91 237.296 179.539 238.051 180.38 238.578L181.973 236.036C181.677 235.85 181.4 235.556 181.167 235.077L178.469 236.389ZM180.383 238.58C181.204 239.091 182.12 239.341 183.091 239.341V236.341C182.653 236.341 182.292 236.234 181.969 236.033L180.383 238.58ZM183.091 239.341C183.616 239.341 184.132 239.268 184.633 239.119L183.776 236.244C183.565 236.307 183.338 236.341 183.091 236.341V239.341ZM184.633 239.119C185.142 238.968 185.617 238.739 186.048 238.431L184.304 235.99C184.152 236.098 183.979 236.184 183.776 236.244L184.633 239.119ZM186.051 238.429C186.495 238.11 186.871 237.719 187.174 237.264L184.678 235.6C184.572 235.758 184.448 235.886 184.301 235.992L186.051 238.429ZM187.172 237.267C187.498 236.781 187.713 236.241 187.832 235.668L184.895 235.059C184.847 235.289 184.771 235.461 184.68 235.596L187.172 237.267ZM186.364 236.864H187.773V233.864H186.364V236.864ZM186.296 235.1C186.218 235.535 186.083 235.893 185.905 236.192L188.481 237.729C188.864 237.088 189.115 236.382 189.249 235.627L186.296 235.1ZM185.905 236.192C185.715 236.509 185.487 236.769 185.217 236.983L187.078 239.336C187.642 238.89 188.11 238.35 188.481 237.729L185.905 236.192ZM185.224 236.977C184.948 237.193 184.636 237.36 184.276 237.478L185.212 240.329C185.891 240.106 186.514 239.777 187.072 239.341L185.224 236.977ZM184.273 237.479C183.922 237.596 183.531 237.659 183.091 237.659V240.659C183.825 240.659 184.536 240.552 185.216 240.327L184.273 237.479ZM183.091 237.659C182.355 237.659 181.753 237.483 181.24 237.161L179.646 239.702C180.678 240.35 181.842 240.659 183.091 240.659V237.659ZM181.24 237.161C180.724 236.837 180.295 236.367 179.963 235.697L177.275 237.03C177.83 238.148 178.617 239.057 179.646 239.702L181.24 237.161ZM179.963 235.697C179.644 235.053 179.455 234.23 179.455 233.182H176.455C176.455 234.588 176.709 235.887 177.275 237.03L179.963 235.697ZM179.455 233.182C179.455 232.134 179.644 231.311 179.963 230.666L177.275 229.334C176.709 230.477 176.455 231.776 176.455 233.182H179.455ZM179.963 230.666C180.295 229.996 180.724 229.526 181.24 229.202L179.646 226.661C178.617 227.307 177.83 228.216 177.275 229.334L179.963 230.666ZM181.24 229.202C181.753 228.881 182.355 228.705 183.091 228.705V225.705C181.842 225.705 180.678 226.013 179.646 226.661L181.24 229.202ZM183.091 228.705C183.531 228.705 183.922 228.768 184.273 228.884L185.216 226.036C184.536 225.811 183.825 225.705 183.091 225.705V228.705ZM184.276 228.885C184.632 229.002 184.943 229.17 185.217 229.387L187.078 227.034C186.519 226.592 185.894 226.259 185.212 226.035L184.276 228.885ZM185.224 229.392C185.49 229.6 185.716 229.856 185.905 230.172L188.481 228.635C188.109 228.012 187.639 227.472 187.072 227.029L185.224 229.392ZM185.908 230.177C186.083 230.468 186.218 230.823 186.296 231.262L189.25 230.738C189.115 229.98 188.864 229.271 188.478 228.63L185.908 230.177Z" fill="white"/>
<path d="M187.773 231H186.364C186.28 230.595 186.134 230.239 185.926 229.932C185.722 229.625 185.472 229.367 185.176 229.159C184.884 228.947 184.561 228.788 184.205 228.682C183.848 228.576 183.477 228.523 183.091 228.523C182.386 228.523 181.748 228.701 181.176 229.057C180.608 229.413 180.155 229.938 179.818 230.631C179.485 231.324 179.318 232.174 179.318 233.182C179.318 234.189 179.485 235.04 179.818 235.733C180.155 236.426 180.608 236.951 181.176 237.307C181.748 237.663 182.386 237.841 183.091 237.841C183.477 237.841 183.848 237.788 184.205 237.682C184.561 237.576 184.884 237.419 185.176 237.21C185.472 236.998 185.722 236.739 185.926 236.432C186.134 236.121 186.28 235.765 186.364 235.364H187.773C187.667 235.958 187.473 236.491 187.193 236.96C186.913 237.43 186.564 237.83 186.148 238.159C185.731 238.485 185.263 238.733 184.744 238.903C184.229 239.074 183.678 239.159 183.091 239.159C182.098 239.159 181.216 238.917 180.443 238.432C179.67 237.947 179.063 237.258 178.619 236.364C178.176 235.47 177.955 234.409 177.955 233.182C177.955 231.955 178.176 230.894 178.619 230C179.063 229.106 179.67 228.417 180.443 227.932C181.216 227.447 182.098 227.205 183.091 227.205C183.678 227.205 184.229 227.29 184.744 227.46C185.263 227.631 185.731 227.881 186.148 228.21C186.564 228.536 186.913 228.934 187.193 229.403C187.473 229.869 187.667 230.402 187.773 231Z" fill="#1565C0"/>
<path d="M151.766 379.433C151.766 381.642 149.975 383.433 147.766 383.433C145.556 383.433 143.766 381.642 143.766 379.433C143.766 377.224 145.556 375.433 147.766 375.433C149.975 375.433 151.766 377.224 151.766 379.433Z" fill="#616161"/>
<path d="M151.766 379.433C151.766 381.642 149.975 383.433 147.766 383.433C145.556 383.433 143.766 381.642 143.766 379.433C143.766 377.224 145.556 375.433 147.766 375.433C149.975 375.433 151.766 377.224 151.766 379.433Z" stroke="black" stroke-miterlimit="10" stroke-linecap="round" stroke-linejoin="round"/>
<path d="M157 370H153.409V358.364H157.159C158.288 358.364 159.254 358.597 160.057 359.062C160.86 359.525 161.475 360.189 161.903 361.057C162.331 361.92 162.545 362.955 162.545 364.159C162.545 365.371 162.33 366.415 161.898 367.29C161.466 368.161 160.837 368.831 160.011 369.301C159.186 369.767 158.182 370 157 370ZM154.818 368.75H156.909C157.871 368.75 158.669 368.564 159.301 368.193C159.934 367.822 160.405 367.294 160.716 366.608C161.027 365.922 161.182 365.106 161.182 364.159C161.182 363.22 161.028 362.411 160.722 361.733C160.415 361.051 159.956 360.528 159.347 360.165C158.737 359.797 157.977 359.614 157.068 359.614H154.818V368.75Z" fill="#616161"/>
<path d="M153.409 370H151.909L153.409 371.5V370ZM153.409 358.364V356.864L151.909 358.364H153.409ZM160.057 359.062L159.304 360.36L159.309 360.363L160.057 359.062ZM161.903 361.057L160.558 361.721L160.559 361.723L161.903 361.057ZM161.898 367.29L163.242 367.956L163.243 367.954L161.898 367.29ZM160.011 369.301L160.748 370.608L160.753 370.605L160.011 369.301ZM154.818 368.75H153.318L154.818 370.25V368.75ZM159.301 368.193L158.542 366.899L159.301 368.193ZM160.722 361.733L159.354 362.349L159.355 362.351L160.722 361.733ZM159.347 360.165L158.572 361.45L158.578 361.453L159.347 360.165ZM154.818 359.614V358.114L153.318 359.614H154.818ZM157 368.5H153.409V371.5H157V368.5ZM154.909 370V358.364H151.909V370H154.909ZM153.409 359.864H157.159V356.864H153.409V359.864ZM157.159 359.864C158.08 359.864 158.774 360.053 159.304 360.36L160.81 357.765C159.733 357.141 158.495 356.864 157.159 356.864V359.864ZM159.309 360.363C159.842 360.67 160.256 361.107 160.558 361.721L163.249 360.393C162.695 359.271 161.877 358.38 160.805 357.762L159.309 360.363ZM160.559 361.723C160.862 362.334 161.045 363.129 161.045 364.159H164.045C164.045 362.78 163.8 361.507 163.247 360.391L160.559 361.723ZM161.045 364.159C161.045 365.196 160.861 366.001 160.553 366.626L163.243 367.954C163.798 366.828 164.045 365.547 164.045 364.159H161.045ZM160.554 366.624C160.251 367.234 159.829 367.679 159.27 367.997L160.753 370.605C161.845 369.984 162.68 369.088 163.242 367.956L160.554 366.624ZM159.274 367.995C158.722 368.306 157.986 368.5 157 368.5V371.5C158.377 371.5 159.649 371.228 160.748 370.608L159.274 367.995ZM154.818 370.25H156.909V367.25H154.818V370.25ZM156.909 370.25C158.057 370.25 159.136 370.029 160.06 369.487L158.542 366.899C158.201 367.1 157.685 367.25 156.909 367.25V370.25ZM160.06 369.487C160.967 368.955 161.647 368.187 162.082 367.227L159.35 365.989C159.163 366.4 158.9 366.689 158.542 366.899L160.06 369.487ZM162.082 367.227C162.501 366.304 162.682 365.266 162.682 364.159H159.682C159.682 364.946 159.552 365.541 159.35 365.989L162.082 367.227ZM162.682 364.159C162.682 363.061 162.503 362.031 162.088 361.115L159.355 362.351C159.554 362.791 159.682 363.379 159.682 364.159H162.682ZM162.089 361.117C161.664 360.171 161.003 359.406 160.115 358.876L158.578 361.453C158.91 361.651 159.166 361.931 159.354 362.349L162.089 361.117ZM160.121 358.88C159.221 358.338 158.176 358.114 157.068 358.114V361.114C157.779 361.114 158.253 361.257 158.573 361.45L160.121 358.88ZM157.068 358.114H154.818V361.114H157.068V358.114ZM153.318 359.614V368.75H156.318V359.614H153.318Z" fill="white"/>
<path d="M157 370H153.409V358.364H157.159C158.288 358.364 159.254 358.597 160.057 359.062C160.86 359.525 161.475 360.189 161.903 361.057C162.331 361.92 162.545 362.955 162.545 364.159C162.545 365.371 162.33 366.415 161.898 367.29C161.466 368.161 160.837 368.831 160.011 369.301C159.186 369.767 158.182 370 157 370ZM154.818 368.75H156.909C157.871 368.75 158.669 368.564 159.301 368.193C159.934 367.822 160.405 367.294 160.716 366.608C161.027 365.922 161.182 365.106 161.182 364.159C161.182 363.22 161.028 362.411 160.722 361.733C160.415 361.051 159.956 360.528 159.347 360.165C158.737 359.797 157.977 359.614 157.068 359.614H154.818V368.75Z" fill="#616161"/>
<path d="M275.504 150.733C275.504 152.942 273.713 154.733 271.504 154.733C269.295 154.733 267.504 152.942 267.504 150.733C267.504 148.524 269.295 146.733 271.504 146.733C273.713 146.733 275.504 148.524 275.504 150.733Z" fill="#616161"/>
<path d="M275.504 150.733C275.504 152.942 273.713 154.733 271.504 154.733C269.295 154.733 267.504 152.942 267.504 150.733C267.504 148.524 269.295 146.733 271.504 146.733C273.713 146.733 275.504 148.524 275.504 150.733Z" stroke="black" stroke-miterlimit="10" stroke-linecap="round" stroke-linejoin="round"/>
<path d="M287.227 136.182C287.227 137.409 287.006 138.47 286.562 139.364C286.119 140.258 285.511 140.947 284.739 141.432C283.966 141.917 283.083 142.159 282.091 142.159C281.098 142.159 280.216 141.917 279.443 141.432C278.67 140.947 278.063 140.258 277.619 139.364C277.176 138.47 276.955 137.409 276.955 136.182C276.955 134.955 277.176 133.894 277.619 133C278.063 132.106 278.67 131.417 279.443 130.932C280.216 130.447 281.098 130.205 282.091 130.205C283.083 130.205 283.966 130.447 284.739 130.932C285.511 131.417 286.119 132.106 286.562 133C287.006 133.894 287.227 134.955 287.227 136.182ZM285.864 136.182C285.864 135.174 285.695 134.324 285.358 133.631C285.025 132.938 284.572 132.413 284 132.057C283.432 131.701 282.795 131.523 282.091 131.523C281.386 131.523 280.748 131.701 280.176 132.057C279.608 132.413 279.155 132.938 278.818 133.631C278.485 134.324 278.318 135.174 278.318 136.182C278.318 137.189 278.485 138.04 278.818 138.733C279.155 139.426 279.608 139.951 280.176 140.307C280.748 140.663 281.386 140.841 282.091 140.841C282.795 140.841 283.432 140.663 284 140.307C284.572 139.951 285.025 139.426 285.358 138.733C285.695 138.04 285.864 137.189 285.864 136.182Z" fill="#616161"/>
<path d="M286.562 139.364L285.219 138.697L285.219 138.697L286.562 139.364ZM284.739 141.432L285.536 142.702L285.536 142.702L284.739 141.432ZM279.443 141.432L278.646 142.702L278.646 142.702L279.443 141.432ZM277.619 139.364L278.963 138.697L278.963 138.697L277.619 139.364ZM277.619 133L276.275 132.334L277.619 133ZM284.739 130.932L285.536 129.661L285.536 129.661L284.739 130.932ZM286.562 133L285.219 133.666L285.219 133.666L286.562 133ZM285.358 133.631L284.006 134.281L284.009 134.287L285.358 133.631ZM284 132.057L283.203 133.328L283.207 133.33L284 132.057ZM280.176 132.057L279.383 130.783L279.38 130.786L280.176 132.057ZM278.818 133.631L277.469 132.975L277.466 132.981L278.818 133.631ZM278.818 138.733L277.466 139.383L277.469 139.389L278.818 138.733ZM280.176 140.307L279.38 141.578L279.383 141.58L280.176 140.307ZM284 140.307L283.207 139.033L283.203 139.036L284 140.307ZM285.358 138.733L284.009 138.077L284.006 138.083L285.358 138.733ZM285.727 136.182C285.727 137.23 285.538 138.053 285.219 138.697L287.906 140.03C288.473 138.887 288.727 137.588 288.727 136.182H285.727ZM285.219 138.697C284.886 139.367 284.458 139.837 283.941 140.161L285.536 142.702C286.565 142.057 287.352 141.148 287.906 140.03L285.219 138.697ZM283.941 140.161C283.428 140.483 282.827 140.659 282.091 140.659V143.659C283.34 143.659 284.503 143.35 285.536 142.702L283.941 140.161ZM282.091 140.659C281.355 140.659 280.753 140.483 280.24 140.161L278.646 142.702C279.678 143.35 280.842 143.659 282.091 143.659V140.659ZM280.24 140.161C279.724 139.837 279.295 139.367 278.963 138.697L276.275 140.03C276.83 141.148 277.617 142.057 278.646 142.702L280.24 140.161ZM278.963 138.697C278.644 138.053 278.455 137.23 278.455 136.182H275.455C275.455 137.588 275.709 138.887 276.275 140.03L278.963 138.697ZM278.455 136.182C278.455 135.134 278.644 134.311 278.963 133.666L276.275 132.334C275.709 133.477 275.455 134.776 275.455 136.182H278.455ZM278.963 133.666C279.295 132.996 279.724 132.526 280.24 132.202L278.646 129.661C277.617 130.307 276.83 131.216 276.275 132.334L278.963 133.666ZM280.24 132.202C280.753 131.881 281.355 131.705 282.091 131.705V128.705C280.842 128.705 279.678 129.013 278.646 129.661L280.24 132.202ZM282.091 131.705C282.827 131.705 283.428 131.881 283.941 132.202L285.536 129.661C284.503 129.013 283.34 128.705 282.091 128.705V131.705ZM283.941 132.202C284.458 132.526 284.886 132.996 285.219 133.666L287.906 132.334C287.352 131.216 286.565 130.307 285.536 129.661L283.941 132.202ZM285.219 133.666C285.538 134.311 285.727 135.134 285.727 136.182H288.727C288.727 134.776 288.473 133.477 287.906 132.334L285.219 133.666ZM287.364 136.182C287.364 135.014 287.169 133.925 286.707 132.975L284.009 134.287C284.221 134.723 284.364 135.334 284.364 136.182H287.364ZM286.71 132.981C286.271 132.068 285.639 131.31 284.793 130.783L283.207 133.33C283.505 133.515 283.778 133.807 284.006 134.281L286.71 132.981ZM284.797 130.786C283.977 130.272 283.062 130.023 282.091 130.023V133.023C282.529 133.023 282.886 133.129 283.203 133.328L284.797 130.786ZM282.091 130.023C281.12 130.023 280.204 130.272 279.383 130.783L280.969 133.33C281.292 133.129 281.653 133.023 282.091 133.023V130.023ZM279.38 130.786C278.539 131.312 277.91 132.067 277.469 132.975L280.167 134.287C280.4 133.808 280.677 133.513 280.973 133.328L279.38 130.786ZM277.466 132.981C277.01 133.929 276.818 135.016 276.818 136.182H279.818C279.818 135.332 279.96 134.718 280.17 134.281L277.466 132.981ZM276.818 136.182C276.818 137.348 277.01 138.434 277.466 139.383L280.17 138.083C279.96 137.645 279.818 137.031 279.818 136.182H276.818ZM277.469 139.389C277.91 140.296 278.539 141.051 279.38 141.578L280.973 139.036C280.677 138.85 280.4 138.556 280.167 138.077L277.469 139.389ZM279.383 141.58C280.204 142.091 281.12 142.341 282.091 142.341V139.341C281.653 139.341 281.292 139.234 280.969 139.033L279.383 141.58ZM282.091 142.341C283.062 142.341 283.977 142.091 284.797 141.578L283.203 139.036C282.886 139.234 282.529 139.341 282.091 139.341V142.341ZM284.793 141.58C285.639 141.053 286.271 140.296 286.71 139.383L284.006 138.083C283.778 138.557 283.505 138.848 283.207 139.033L284.793 141.58ZM286.707 139.389C287.169 138.439 287.364 137.35 287.364 136.182H284.364C284.364 137.029 284.221 137.641 284.009 138.077L286.707 139.389Z" fill="white"/>
<path d="M287.227 136.182C287.227 137.409 287.006 138.47 286.562 139.364C286.119 140.258 285.511 140.947 284.739 141.432C283.966 141.917 283.083 142.159 282.091 142.159C281.098 142.159 280.216 141.917 279.443 141.432C278.67 140.947 278.063 140.258 277.619 139.364C277.176 138.47 276.955 137.409 276.955 136.182C276.955 134.955 277.176 133.894 277.619 133C278.063 132.106 278.67 131.417 279.443 130.932C280.216 130.447 281.098 130.205 282.091 130.205C283.083 130.205 283.966 130.447 284.739 130.932C285.511 131.417 286.119 132.106 286.562 133C287.006 133.894 287.227 134.955 287.227 136.182ZM285.864 136.182C285.864 135.174 285.695 134.324 285.358 133.631C285.025 132.938 284.572 132.413 284 132.057C283.432 131.701 282.795 131.523 282.091 131.523C281.386 131.523 280.748 131.701 280.176 132.057C279.608 132.413 279.155 132.938 278.818 133.631C278.485 134.324 278.318 135.174 278.318 136.182C278.318 137.189 278.485 138.04 278.818 138.733C279.155 139.426 279.608 139.951 280.176 140.307C280.748 140.663 281.386 140.841 282.091 140.841C282.795 140.841 283.432 140.663 284 140.307C284.572 139.951 285.025 139.426 285.358 138.733C285.695 138.04 285.864 137.189 285.864 136.182Z" fill="#616161"/>
<path d="M93.2273 384.273L95.3182 387.841L97.4091 384.273H98.9545L96.1364 388.636L98.9545 393H97.4091L95.3182 389.614L93.2273 393H91.6818L94.4545 388.636L91.6818 384.273H93.2273Z" fill="black"/>
<path d="M190.091 398.273C189.864 398.273 189.661 398.254 189.483 398.216C189.305 398.182 189.182 398.148 189.114 398.114L189.455 396.932C189.78 397.015 190.068 397.045 190.318 397.023C190.568 397 190.79 396.888 190.983 396.688C191.18 396.491 191.36 396.17 191.523 395.727L191.773 395.045L188.545 386.273H190L192.409 393.227H192.5L194.909 386.273H196.364L192.659 396.273C192.492 396.723 192.286 397.097 192.04 397.392C191.794 397.691 191.508 397.913 191.182 398.057C190.86 398.201 190.496 398.273 190.091 398.273Z" fill="black"/>
<path d="M98.7955 306.205C98.2424 306.205 97.7405 306.1 97.2898 305.892C96.839 305.68 96.4811 305.375 96.2159 304.977C95.9508 304.576 95.8182 304.091 95.8182 303.523C95.8182 303.023 95.9167 302.617 96.1136 302.307C96.3106 301.992 96.5739 301.746 96.9034 301.568C97.233 301.39 97.5966 301.258 97.9943 301.17C98.3958 301.08 98.7992 301.008 99.2045 300.955C99.7348 300.886 100.165 300.835 100.494 300.801C100.828 300.763 101.07 300.701 101.222 300.614C101.377 300.527 101.455 300.375 101.455 300.159V300.114C101.455 299.553 101.301 299.117 100.994 298.807C100.691 298.496 100.231 298.341 99.6136 298.341C98.9735 298.341 98.4716 298.481 98.108 298.761C97.7443 299.042 97.4886 299.341 97.3409 299.659L96.0682 299.205C96.2955 298.674 96.5985 298.261 96.9773 297.966C97.3598 297.667 97.7765 297.458 98.2273 297.341C98.6818 297.22 99.1288 297.159 99.5682 297.159C99.8485 297.159 100.17 297.193 100.534 297.261C100.902 297.326 101.256 297.46 101.597 297.665C101.941 297.869 102.227 298.178 102.455 298.591C102.682 299.004 102.795 299.557 102.795 300.25V306H101.455V304.818H101.386C101.295 305.008 101.144 305.21 100.932 305.426C100.72 305.642 100.438 305.826 100.085 305.977C99.733 306.129 99.303 306.205 98.7955 306.205ZM99 305C99.5303 305 99.9773 304.896 100.341 304.688C100.708 304.479 100.985 304.21 101.17 303.881C101.36 303.551 101.455 303.205 101.455 302.841V301.614C101.398 301.682 101.273 301.744 101.08 301.801C100.89 301.854 100.67 301.902 100.42 301.943C100.174 301.981 99.9337 302.015 99.6989 302.045C99.4678 302.072 99.2803 302.095 99.1364 302.114C98.7879 302.159 98.4621 302.233 98.1591 302.335C97.8598 302.434 97.6174 302.583 97.4318 302.784C97.25 302.981 97.1591 303.25 97.1591 303.591C97.1591 304.057 97.3314 304.409 97.6761 304.648C98.0246 304.883 98.4659 305 99 305Z" fill="black"/>
<path d="M202.409 295V283.364H203.75V287.659H203.864C203.962 287.508 204.098 287.314 204.273 287.08C204.451 286.841 204.705 286.629 205.034 286.443C205.367 286.254 205.818 286.159 206.386 286.159C207.121 286.159 207.769 286.343 208.33 286.71C208.89 287.078 209.328 287.598 209.642 288.273C209.956 288.947 210.114 289.742 210.114 290.659C210.114 291.583 209.956 292.384 209.642 293.062C209.328 293.737 208.892 294.259 208.335 294.631C207.778 294.998 207.136 295.182 206.409 295.182C205.848 295.182 205.4 295.089 205.062 294.903C204.725 294.714 204.466 294.5 204.284 294.261C204.102 294.019 203.962 293.818 203.864 293.659H203.705V295H202.409ZM203.727 290.636C203.727 291.295 203.824 291.877 204.017 292.381C204.21 292.881 204.492 293.273 204.864 293.557C205.235 293.837 205.689 293.977 206.227 293.977C206.788 293.977 207.256 293.83 207.631 293.534C208.009 293.235 208.294 292.833 208.483 292.33C208.676 291.822 208.773 291.258 208.773 290.636C208.773 290.023 208.678 289.47 208.489 288.977C208.303 288.481 208.021 288.089 207.642 287.801C207.267 287.509 206.795 287.364 206.227 287.364C205.682 287.364 205.223 287.502 204.852 287.778C204.481 288.051 204.201 288.434 204.011 288.926C203.822 289.415 203.727 289.985 203.727 290.636Z" fill="black"/>
<path d="M197.409 207V195.364H198.75V199.659H198.864C198.962 199.508 199.098 199.314 199.273 199.08C199.451 198.841 199.705 198.629 200.034 198.443C200.367 198.254 200.818 198.159 201.386 198.159C202.121 198.159 202.769 198.343 203.33 198.71C203.89 199.078 204.328 199.598 204.642 200.273C204.956 200.947 205.114 201.742 205.114 202.659C205.114 203.583 204.956 204.384 204.642 205.062C204.328 205.737 203.892 206.259 203.335 206.631C202.778 206.998 202.136 207.182 201.409 207.182C200.848 207.182 200.4 207.089 200.062 206.903C199.725 206.714 199.466 206.5 199.284 206.261C199.102 206.019 198.962 205.818 198.864 205.659H198.705V207H197.409ZM198.727 202.636C198.727 203.295 198.824 203.877 199.017 204.381C199.21 204.881 199.492 205.273 199.864 205.557C200.235 205.837 200.689 205.977 201.227 205.977C201.788 205.977 202.256 205.83 202.631 205.534C203.009 205.235 203.294 204.833 203.483 204.33C203.676 203.822 203.773 203.258 203.773 202.636C203.773 202.023 203.678 201.47 203.489 200.977C203.303 200.481 203.021 200.089 202.642 199.801C202.267 199.509 201.795 199.364 201.227 199.364C200.682 199.364 200.223 199.502 199.852 199.778C199.481 200.051 199.201 200.434 199.011 200.926C198.822 201.415 198.727 201.985 198.727 202.636Z" fill="black"/>
</g>
<defs>
<clipPath id="clip0_483_43">
<rect width="420" height="420" fill="white"/>
</clipPath>
</defs>
</svg>
