<svg width="620" height="397" viewBox="0 0 620 397" fill="none" xmlns="http://www.w3.org/2000/svg">
<g clip-path="url(#clip0_483_98)">
<path d="M620 0H0V410H620V0Z" fill="white"/>
<path d="M357.402 57.8179C360.912 61.3003 365.375 63.664 370.228 64.6101L375.012 40.0721L357.402 57.8179Z" fill="black" fill-opacity="0.0980392"/>
<path d="M357.402 57.8179C360.912 61.3003 365.375 63.664 370.228 64.6101L375.012 40.0721L357.402 57.8179Z" stroke="black" stroke-opacity="0.6" stroke-width="2" stroke-miterlimit="10" stroke-linecap="round" stroke-linejoin="round"/>
<path d="M370.229 64.6101C375.081 65.5562 380.105 65.0422 384.666 63.1331L375.013 40.0721L370.229 64.6101Z" fill="black" fill-opacity="0.0980392"/>
<path d="M370.229 64.6101C375.081 65.5562 380.105 65.0422 384.666 63.1331L375.013 40.0721L370.229 64.6101Z" stroke="black" stroke-opacity="0.6" stroke-width="2" stroke-miterlimit="10" stroke-linecap="round" stroke-linejoin="round"/>
<path fill-rule="evenodd" clip-rule="evenodd" d="M187.756 228.78L177.795 238.818L187.833 248.779L197.795 238.741L187.756 228.78Z" fill="black" fill-opacity="0.0980392"/>
<path d="M187.756 228.78L177.795 238.818L187.833 248.779L197.795 238.741L187.756 228.78Z" stroke="black" stroke-opacity="0.6" stroke-width="2" stroke-miterlimit="10" stroke-linecap="round" stroke-linejoin="round"/>
<path fill-rule="evenodd" clip-rule="evenodd" d="M477.666 285.301L472.205 272.256L459.16 277.717L464.621 290.762L477.666 285.301Z" fill="black" fill-opacity="0.0980392"/>
<path d="M477.666 285.301L472.205 272.256L459.16 277.717L464.621 290.762L477.666 285.301Z" stroke="black" stroke-opacity="0.6" stroke-width="2" stroke-miterlimit="10" stroke-linecap="round" stroke-linejoin="round"/>
<path fill-rule="evenodd" clip-rule="evenodd" d="M376.725 353.54L376.648 339.398L362.506 339.475L362.583 353.617L376.725 353.54Z" fill="black" fill-opacity="0.0980392"/>
<path d="M376.725 353.54L376.648 339.398L362.506 339.475L362.583 353.617L376.725 353.54Z" stroke="black" stroke-opacity="0.6" stroke-width="2" stroke-miterlimit="10" stroke-linecap="round" stroke-linejoin="round"/>
<path d="M62.25 355.259L505.936 352.834" stroke="#616161" stroke-opacity="0.8" stroke-width="2.5" stroke-miterlimit="10" stroke-linecap="round" stroke-linejoin="round"/>
<path d="M62.25 355.259L375.012 40.0721" stroke="#616161" stroke-opacity="0.8" stroke-width="2.5" stroke-miterlimit="10" stroke-linecap="round" stroke-linejoin="round"/>
<path d="M375.012 40.0721L505.935 352.834" stroke="#616161" stroke-opacity="0.8" stroke-width="2.5" stroke-miterlimit="10" stroke-linecap="round" stroke-linejoin="round"/>
<path d="M375.012 40.0721L313.83 353.884" stroke="#616161" stroke-opacity="0.8" stroke-width="2.5" stroke-miterlimit="10" stroke-linecap="round" stroke-linejoin="round"/>
<path d="M375.012 40.0721L376.725 353.54" stroke="#FF0000" stroke-opacity="0.8" stroke-width="3.5" stroke-miterlimit="10" stroke-linecap="round" stroke-linejoin="round"/>
<path d="M313.83 353.884L477.666 285.301" stroke="#FF0000" stroke-opacity="0.8" stroke-width="3.5" stroke-miterlimit="10" stroke-linecap="round" stroke-linejoin="round"/>
<path d="M313.83 353.884L187.756 228.78" stroke="#FF0000" stroke-opacity="0.8" stroke-width="3.5" stroke-miterlimit="10" stroke-linecap="round" stroke-linejoin="round"/>
<path d="M405.501 321.621L399.744 311.342" stroke="#616161" stroke-opacity="0.8" stroke-width="2.5" stroke-miterlimit="10" stroke-linecap="round" stroke-linejoin="round"/>
<path d="M405.501 321.621L399.744 311.342" stroke="#616161" stroke-opacity="0.8" stroke-width="2.5" stroke-miterlimit="10" stroke-linecap="round" stroke-linejoin="round"/>
<path d="M236.893 284.976L243.938 277.93" stroke="#616161" stroke-opacity="0.8" stroke-width="2.5" stroke-miterlimit="10" stroke-linecap="round" stroke-linejoin="round"/>
<path d="M67.25 355.259C67.25 358.02 65.0114 360.259 62.25 360.259C59.4886 360.259 57.25 358.02 57.25 355.259C57.25 352.497 59.4886 350.259 62.25 350.259C65.0114 350.259 67.25 352.497 67.25 355.259Z" fill="#1565C0"/>
<path d="M67.25 355.259C67.25 358.02 65.0114 360.259 62.25 360.259C59.4886 360.259 57.25 358.02 57.25 355.259C57.25 352.497 59.4886 350.259 62.25 350.259C65.0114 350.259 67.25 352.497 67.25 355.259Z" stroke="black" stroke-miterlimit="10" stroke-linecap="round" stroke-linejoin="round"/>
<path d="M67.8864 344H66.4091L70.6818 332.364H72.1364L76.4091 344H74.9318L71.4545 334.205H71.3636L67.8864 344ZM68.4318 339.455H74.3864V340.705H68.4318V339.455Z" fill="#1565C0"/>
<path d="M67.8864 344V345.5L69.2999 344.502L67.8864 344ZM66.4091 344L65.001 343.483L66.4091 345.5V344ZM70.6818 332.364V330.864L69.2737 331.847L70.6818 332.364ZM72.1364 332.364L73.5444 331.847L72.1364 330.864V332.364ZM76.4091 344V345.5L77.8172 343.483L76.4091 344ZM74.9318 344L73.5182 344.502L74.9318 345.5V344ZM71.4545 334.205L72.8681 333.703L71.4545 332.705V334.205ZM71.3636 334.205V332.705L69.9501 333.703L71.3636 334.205ZM68.4318 339.455V337.955L66.9318 339.455H68.4318ZM74.3864 339.455H75.8864L74.3864 337.955V339.455ZM74.3864 340.705V342.205L75.8864 340.705H74.3864ZM68.4318 340.705H66.9318L68.4318 342.205V340.705ZM67.8864 342.5H66.4091V345.5H67.8864V342.5ZM67.8172 344.517L72.0899 332.881L69.2737 331.847L65.001 343.483L67.8172 344.517ZM70.6818 333.864H72.1364V330.864H70.6818V333.864ZM70.7283 332.881L75.001 344.517L77.8172 343.483L73.5444 331.847L70.7283 332.881ZM76.4091 342.5H74.9318V345.5H76.4091V342.5ZM76.3454 343.498L72.8681 333.703L70.041 334.706L73.5182 344.502L76.3454 343.498ZM71.4545 332.705H71.3636V335.705H71.4545V332.705ZM69.9501 333.703L66.4728 343.498L69.2999 344.502L72.7772 334.706L69.9501 333.703ZM68.4318 340.955H74.3864V337.955H68.4318V340.955ZM72.8864 339.455V340.705H75.8864V339.455H72.8864ZM74.3864 339.205H68.4318V342.205H74.3864V339.205ZM69.9318 340.705V339.455H66.9318V340.705H69.9318Z" fill="white"/>
<path d="M67.8864 344H66.4091L70.6818 332.364H72.1364L76.4091 344H74.9318L71.4545 334.205H71.3636L67.8864 344ZM68.4318 339.455H74.3864V340.705H68.4318V339.455Z" fill="#1565C0"/>
<path d="M510.936 352.834C510.936 355.595 508.697 357.834 505.936 357.834C503.174 357.834 500.936 355.595 500.936 352.834C500.936 350.073 503.174 347.834 505.936 347.834C508.697 347.834 510.936 350.073 510.936 352.834Z" fill="#1565C0"/>
<path d="M510.936 352.834C510.936 355.595 508.697 357.834 505.936 357.834C503.174 357.834 500.936 355.595 500.936 352.834C500.936 350.073 503.174 347.834 505.936 347.834C508.697 347.834 510.936 350.073 510.936 352.834Z" stroke="black" stroke-miterlimit="10" stroke-linecap="round" stroke-linejoin="round"/>
<path d="M511.409 342V330.364H515.477C516.288 330.364 516.956 330.504 517.483 330.784C518.009 331.061 518.402 331.434 518.659 331.903C518.917 332.369 519.045 332.886 519.045 333.455C519.045 333.955 518.956 334.367 518.778 334.693C518.604 335.019 518.373 335.277 518.085 335.466C517.801 335.655 517.492 335.795 517.159 335.886V336C517.515 336.023 517.873 336.148 518.233 336.375C518.593 336.602 518.894 336.928 519.136 337.352C519.379 337.777 519.5 338.295 519.5 338.909C519.5 339.492 519.367 340.017 519.102 340.483C518.837 340.949 518.419 341.318 517.847 341.591C517.275 341.864 516.53 342 515.614 342H511.409ZM512.818 340.75H515.614C516.534 340.75 517.188 340.572 517.574 340.216C517.964 339.856 518.159 339.42 518.159 338.909C518.159 338.515 518.059 338.152 517.858 337.818C517.657 337.481 517.371 337.212 517 337.011C516.629 336.807 516.189 336.705 515.682 336.705H512.818V340.75ZM512.818 335.477H515.432C515.856 335.477 516.239 335.394 516.58 335.227C516.924 335.061 517.197 334.826 517.398 334.523C517.602 334.22 517.705 333.864 517.705 333.455C517.705 332.943 517.527 332.509 517.17 332.153C516.814 331.794 516.25 331.614 515.477 331.614H512.818V335.477Z" fill="#1565C0"/>
<path d="M511.409 342H509.909L511.409 343.5V342ZM511.409 330.364V328.864L509.909 330.364H511.409ZM517.483 330.784L516.778 332.108L516.786 332.112L517.483 330.784ZM518.659 331.903L517.344 332.625L517.346 332.629L518.659 331.903ZM518.778 334.693L517.462 333.974L517.456 333.986L518.778 334.693ZM518.085 335.466L517.261 334.213L517.253 334.218L518.085 335.466ZM517.159 335.886L516.764 334.439L515.659 335.886H517.159ZM517.159 336H515.659L517.064 337.497L517.159 336ZM518.233 336.375L517.432 337.643L517.432 337.643L518.233 336.375ZM519.102 340.483L520.406 341.225L520.406 341.225L519.102 340.483ZM517.847 341.591L517.201 340.237L517.201 340.237L517.847 341.591ZM512.818 340.75H511.318L512.818 342.25V340.75ZM517.574 340.216L518.59 341.319L518.591 341.319L517.574 340.216ZM517.858 337.818L516.569 338.586L516.573 338.592L517.858 337.818ZM517 337.011L516.276 338.325L516.286 338.331L517 337.011ZM512.818 336.705V335.205L511.318 336.705H512.818ZM512.818 335.477H511.318L512.818 336.977V335.477ZM516.58 335.227L515.927 333.877L515.921 333.88L516.58 335.227ZM517.398 334.523L516.154 333.683L516.147 333.694L517.398 334.523ZM517.17 332.153L516.104 333.208L516.11 333.214L517.17 332.153ZM512.818 331.614V330.114L511.318 331.614H512.818ZM512.909 342V330.364H509.909V342H512.909ZM511.409 331.864H515.477V328.864H511.409V331.864ZM515.477 331.864C516.126 331.864 516.532 331.977 516.778 332.108L518.188 329.46C517.381 329.03 516.45 328.864 515.477 328.864V331.864ZM516.786 332.112C517.081 332.267 517.243 332.442 517.344 332.625L519.974 331.182C519.56 330.426 518.938 329.854 518.18 329.456L516.786 332.112ZM517.346 332.629C517.473 332.858 517.545 333.123 517.545 333.455H520.545C520.545 332.65 520.36 331.881 519.972 331.178L517.346 332.629ZM517.545 333.455C517.545 333.787 517.485 333.932 517.462 333.974L520.095 335.413C520.428 334.803 520.545 334.122 520.545 333.455H517.545ZM517.456 333.986C517.391 334.107 517.325 334.171 517.261 334.213L518.91 336.719C519.421 336.382 519.818 335.931 520.101 335.401L517.456 333.986ZM517.253 334.218C517.105 334.317 516.944 334.39 516.764 334.439L517.554 337.334C518.041 337.201 518.497 336.994 518.917 336.714L517.253 334.218ZM515.659 335.886V336H518.659V335.886H515.659ZM517.064 337.497C517.125 337.501 517.244 337.524 517.432 337.643L519.034 335.107C518.503 334.771 517.905 334.545 517.255 334.503L517.064 337.497ZM517.432 337.643C517.555 337.721 517.695 337.854 517.834 338.096L520.439 336.608C520.093 336.003 519.63 335.483 519.034 335.107L517.432 337.643ZM517.834 338.096C517.918 338.243 518 338.491 518 338.909H521C521 338.1 520.84 337.31 520.439 336.608L517.834 338.096ZM518 338.909C518 339.256 517.924 339.521 517.799 339.741L520.406 341.225C520.811 340.513 521 339.729 521 338.909H518ZM517.799 339.741C517.711 339.895 517.548 340.072 517.201 340.237L518.492 342.945C519.289 342.565 519.963 342.003 520.406 341.225L517.799 339.741ZM517.201 340.237C516.9 340.38 516.399 340.5 515.614 340.5V343.5C516.661 343.5 517.649 343.347 518.492 342.945L517.201 340.237ZM515.614 340.5H511.409V343.5H515.614V340.5ZM512.818 342.25H515.614V339.25H512.818V342.25ZM515.614 342.25C516.652 342.25 517.782 342.064 518.59 341.319L516.557 339.113C516.585 339.088 516.559 339.126 516.4 339.169C516.238 339.213 515.985 339.25 515.614 339.25V342.25ZM518.591 341.319C519.276 340.687 519.659 339.857 519.659 338.909H516.659C516.659 338.969 516.649 338.995 516.644 339.006C516.638 339.019 516.619 339.056 516.557 339.113L518.591 341.319ZM519.659 338.909C519.659 338.246 519.486 337.614 519.143 337.044L516.573 338.592C516.631 338.689 516.659 338.784 516.659 338.909H519.659ZM519.147 337.051C518.797 336.464 518.304 336.011 517.714 335.692L516.286 338.331C516.438 338.413 516.517 338.499 516.569 338.586L519.147 337.051ZM517.724 335.698C517.091 335.349 516.393 335.205 515.682 335.205V338.205C515.986 338.205 516.167 338.265 516.276 338.325L517.724 335.698ZM515.682 335.205H512.818V338.205H515.682V335.205ZM511.318 336.705V340.75H514.318V336.705H511.318ZM512.818 336.977H515.432V333.977H512.818V336.977ZM515.432 336.977C516.057 336.977 516.669 336.853 517.238 336.575L515.921 333.88C515.808 333.935 515.655 333.977 515.432 333.977V336.977ZM517.232 336.578C517.806 336.3 518.291 335.891 518.648 335.351L516.147 333.694C516.103 333.761 516.042 333.821 515.927 333.877L517.232 336.578ZM518.641 335.362C519.032 334.782 519.205 334.126 519.205 333.455H516.205C516.205 333.601 516.172 333.657 516.154 333.684L518.641 335.362ZM519.205 333.455C519.205 332.552 518.873 331.735 518.231 331.093L516.11 333.214C516.18 333.284 516.205 333.334 516.205 333.455H519.205ZM518.237 331.098C517.481 330.334 516.443 330.114 515.477 330.114V333.114C516.057 333.114 516.148 333.253 516.104 333.208L518.237 331.098ZM515.477 330.114H512.818V333.114H515.477V330.114ZM511.318 331.614V335.477H514.318V331.614H511.318Z" fill="white"/>
<path d="M511.409 342V330.364H515.477C516.288 330.364 516.956 330.504 517.483 330.784C518.009 331.061 518.402 331.434 518.659 331.903C518.917 332.369 519.045 332.886 519.045 333.455C519.045 333.955 518.956 334.367 518.778 334.693C518.604 335.019 518.373 335.277 518.085 335.466C517.801 335.655 517.492 335.795 517.159 335.886V336C517.515 336.023 517.873 336.148 518.233 336.375C518.593 336.602 518.894 336.928 519.136 337.352C519.379 337.777 519.5 338.295 519.5 338.909C519.5 339.492 519.367 340.017 519.102 340.483C518.837 340.949 518.419 341.318 517.847 341.591C517.275 341.864 516.53 342 515.614 342H511.409ZM512.818 340.75H515.614C516.534 340.75 517.188 340.572 517.574 340.216C517.964 339.856 518.159 339.42 518.159 338.909C518.159 338.515 518.059 338.152 517.858 337.818C517.657 337.481 517.371 337.212 517 337.011C516.629 336.807 516.189 336.705 515.682 336.705H512.818V340.75ZM512.818 335.477H515.432C515.856 335.477 516.239 335.394 516.58 335.227C516.924 335.061 517.197 334.826 517.398 334.523C517.602 334.22 517.705 333.864 517.705 333.455C517.705 332.943 517.527 332.509 517.17 332.153C516.814 331.794 516.25 331.614 515.477 331.614H512.818V335.477Z" fill="#1565C0"/>
<path d="M380.012 40.0721C380.012 42.8335 377.773 45.0721 375.012 45.0721C372.25 45.0721 370.012 42.8335 370.012 40.0721C370.012 37.3107 372.25 35.0721 375.012 35.0721C377.773 35.0721 380.012 37.3107 380.012 40.0721Z" fill="#1565C0"/>
<path d="M380.012 40.0721C380.012 42.8335 377.773 45.0721 375.012 45.0721C372.25 45.0721 370.012 42.8335 370.012 40.0721C370.012 37.3107 372.25 35.0721 375.012 35.0721C377.773 35.0721 380.012 37.3107 380.012 40.0721Z" stroke="black" stroke-miterlimit="10" stroke-linecap="round" stroke-linejoin="round"/>
<path d="M389.773 21H388.364C388.28 20.5947 388.134 20.2386 387.926 19.9318C387.722 19.625 387.472 19.3674 387.176 19.1591C386.884 18.947 386.561 18.7879 386.205 18.6818C385.848 18.5758 385.477 18.5227 385.091 18.5227C384.386 18.5227 383.748 18.7008 383.176 19.0568C382.608 19.4129 382.155 19.9375 381.818 20.6307C381.485 21.3239 381.318 22.1742 381.318 23.1818C381.318 24.1894 381.485 25.0398 381.818 25.733C382.155 26.4261 382.608 26.9508 383.176 27.3068C383.748 27.6629 384.386 27.8409 385.091 27.8409C385.477 27.8409 385.848 27.7879 386.205 27.6818C386.561 27.5758 386.884 27.4186 387.176 27.2102C387.472 26.9981 387.722 26.7386 387.926 26.4318C388.134 26.1212 388.28 25.7652 388.364 25.3636H389.773C389.667 25.9583 389.473 26.4905 389.193 26.9602C388.913 27.4299 388.564 27.8295 388.148 28.1591C387.731 28.4848 387.263 28.733 386.744 28.9034C386.229 29.0739 385.678 29.1591 385.091 29.1591C384.098 29.1591 383.216 28.9167 382.443 28.4318C381.67 27.947 381.063 27.2576 380.619 26.3636C380.176 25.4697 379.955 24.4091 379.955 23.1818C379.955 21.9545 380.176 20.8939 380.619 20C381.063 19.1061 381.67 18.4167 382.443 17.9318C383.216 17.447 384.098 17.2045 385.091 17.2045C385.678 17.2045 386.229 17.2898 386.744 17.4602C387.263 17.6307 387.731 17.8807 388.148 18.2102C388.564 18.536 388.913 18.9337 389.193 19.4034C389.473 19.8693 389.667 20.4015 389.773 21Z" fill="#1565C0"/>
<path d="M389.773 21V22.5L391.25 20.7383L389.773 21ZM388.364 21L386.894 21.3021L388.364 22.5V21ZM387.926 19.9318L386.678 20.7639L386.685 20.7744L387.926 19.9318ZM387.176 19.1591L386.294 20.3722L386.312 20.385L387.176 19.1591ZM386.205 18.6818L385.776 20.1194L385.776 20.1194L386.205 18.6818ZM383.176 19.0568L382.383 17.7834L382.38 17.7858L383.176 19.0568ZM381.818 20.6307L380.469 19.9746L380.466 19.9806L381.818 20.6307ZM381.818 25.733L380.466 26.383L380.469 26.389L381.818 25.733ZM383.176 27.3068L382.38 28.5779L382.383 28.5802L383.176 27.3068ZM386.205 27.6818L385.776 26.2442L385.776 26.2442L386.205 27.6818ZM387.176 27.2102L388.048 28.4308L388.051 28.4287L387.176 27.2102ZM387.926 26.4318L386.68 25.5963L386.678 25.5998L387.926 26.4318ZM388.364 25.3636V23.8636L386.895 25.0588L388.364 25.3636ZM389.773 25.3636L391.249 25.627L389.773 23.8636V25.3636ZM389.193 26.9602L387.905 26.1915L387.905 26.1915L389.193 26.9602ZM388.148 28.1591L389.072 29.3408L389.078 29.3356L388.148 28.1591ZM386.744 28.9034L386.276 27.4783L386.273 27.4793L386.744 28.9034ZM382.443 28.4318L381.646 29.7024L381.646 29.7024L382.443 28.4318ZM380.619 26.3636L381.963 25.6974L381.963 25.6974L380.619 26.3636ZM380.619 20L379.275 19.3337L380.619 20ZM386.744 17.4602L386.273 18.8843L386.276 18.8853L386.744 17.4602ZM388.148 18.2102L387.217 19.3867L387.224 19.3919L388.148 18.2102ZM389.193 19.4034L387.905 20.1721L387.908 20.1767L389.193 19.4034ZM389.773 19.5H388.364V22.5H389.773V19.5ZM389.833 20.6979C389.714 20.1215 389.499 19.5773 389.167 19.0892L386.685 20.7744C386.77 20.9 386.846 21.0679 386.894 21.3021L389.833 20.6979ZM389.174 19.0998C388.869 18.6423 388.49 18.2502 388.041 17.9332L386.312 20.385C386.453 20.4846 386.574 20.6077 386.678 20.7639L389.174 19.0998ZM388.058 17.946C387.625 17.6308 387.147 17.3974 386.633 17.2442L385.776 20.1194C385.974 20.1784 386.144 20.2631 386.294 20.3722L388.058 17.946ZM386.633 17.2442C386.132 17.0952 385.616 17.0227 385.091 17.0227V20.0227C385.338 20.0227 385.565 20.0564 385.776 20.1194L386.633 17.2442ZM385.091 17.0227C384.12 17.0227 383.204 17.2723 382.383 17.7834L383.969 20.3302C384.292 20.1292 384.653 20.0227 385.091 20.0227V17.0227ZM382.38 17.7858C381.539 18.3123 380.91 19.0674 380.469 19.9746L383.167 21.2867C383.4 20.8076 383.677 20.5134 383.973 20.3279L382.38 17.7858ZM380.466 19.9806C380.01 20.9294 379.818 22.0161 379.818 23.1818H382.818C382.818 22.3324 382.96 21.7184 383.17 21.2807L380.466 19.9806ZM379.818 23.1818C379.818 24.3475 380.01 25.4343 380.466 26.383L383.17 25.0829C382.96 24.6453 382.818 24.0313 382.818 23.1818H379.818ZM380.469 26.389C380.91 27.2963 381.539 28.0513 382.38 28.5779L383.973 26.0358C383.677 25.8502 383.4 25.556 383.167 25.0769L380.469 26.389ZM382.383 28.5802C383.204 29.0913 384.12 29.3409 385.091 29.3409V26.3409C384.653 26.3409 384.292 26.2344 383.969 26.0334L382.383 28.5802ZM385.091 29.3409C385.616 29.3409 386.132 29.2685 386.633 29.1194L385.776 26.2442C385.565 26.3073 385.338 26.3409 385.091 26.3409V29.3409ZM386.633 29.1194C387.142 28.9678 387.617 28.739 388.048 28.4308L386.304 25.9896C386.152 26.0981 385.979 26.1837 385.776 26.2442L386.633 29.1194ZM388.051 28.4287C388.495 28.1098 388.871 27.7188 389.174 27.2639L386.678 25.5998C386.572 25.7585 386.448 25.8864 386.301 25.9917L388.051 28.4287ZM389.172 27.2674C389.498 26.781 389.713 26.2413 389.832 25.6685L386.895 25.0588C386.847 25.289 386.771 25.4614 386.68 25.5963L389.172 27.2674ZM388.364 26.8636H389.773V23.8636H388.364V26.8636ZM388.296 25.1003C388.218 25.5351 388.083 25.8929 387.905 26.1915L390.481 27.7289C390.864 27.0881 391.115 26.3816 391.249 25.627L388.296 25.1003ZM387.905 26.1915C387.715 26.5094 387.487 26.7695 387.217 26.9826L389.078 29.3356C389.642 28.8896 390.11 28.3504 390.481 27.7289L387.905 26.1915ZM387.224 26.9774C386.948 27.1928 386.636 27.3602 386.276 27.4783L387.212 30.3285C387.891 30.1057 388.514 29.7769 389.072 29.3408L387.224 26.9774ZM386.273 27.4793C385.922 27.5955 385.531 27.6591 385.091 27.6591V30.6591C385.825 30.6591 386.536 30.5522 387.216 30.3275L386.273 27.4793ZM385.091 27.6591C384.355 27.6591 383.753 27.4831 383.24 27.1612L381.646 29.7024C382.678 30.3503 383.842 30.6591 385.091 30.6591V27.6591ZM383.24 27.1612C382.724 26.8372 382.295 26.3673 381.963 25.6974L379.275 27.0299C379.83 28.1478 380.617 29.0568 381.646 29.7024L383.24 27.1612ZM381.963 25.6974C381.644 25.0527 381.455 24.2301 381.455 23.1818H378.455C378.455 24.5881 378.709 25.8867 379.275 27.0299L381.963 25.6974ZM381.455 23.1818C381.455 22.1335 381.644 21.3109 381.963 20.6663L379.275 19.3337C378.709 20.4769 378.455 21.7756 378.455 23.1818H381.455ZM381.963 20.6663C382.295 19.9963 382.724 19.5265 383.24 19.2024L381.646 16.6612C380.617 17.3069 379.83 18.2158 379.275 19.3337L381.963 20.6663ZM383.24 19.2024C383.753 18.8806 384.355 18.7045 385.091 18.7045V15.7045C383.842 15.7045 382.678 16.0134 381.646 16.6612L383.24 19.2024ZM385.091 18.7045C385.531 18.7045 385.922 18.7681 386.273 18.8843L387.216 16.0362C386.536 15.8114 385.825 15.7045 385.091 15.7045V18.7045ZM386.276 18.8853C386.632 19.0023 386.943 19.1697 387.217 19.3867L389.078 17.0337C388.519 16.5917 387.894 16.259 387.212 16.0351L386.276 18.8853ZM387.224 19.3919C387.49 19.5998 387.716 19.8558 387.905 20.1721L390.481 18.6347C390.109 18.0116 389.639 17.4722 389.072 17.0285L387.224 19.3919ZM387.908 20.1767C388.083 20.4678 388.218 20.8229 388.296 21.2617L391.25 20.7383C391.115 19.9802 390.864 19.2708 390.478 18.6301L387.908 20.1767Z" fill="white"/>
<path d="M389.773 21H388.364C388.28 20.5947 388.134 20.2386 387.926 19.9318C387.722 19.625 387.472 19.3674 387.176 19.1591C386.884 18.947 386.561 18.7879 386.205 18.6818C385.848 18.5758 385.477 18.5227 385.091 18.5227C384.386 18.5227 383.748 18.7008 383.176 19.0568C382.608 19.4129 382.155 19.9375 381.818 20.6307C381.485 21.3239 381.318 22.1742 381.318 23.1818C381.318 24.1894 381.485 25.0398 381.818 25.733C382.155 26.4261 382.608 26.9508 383.176 27.3068C383.748 27.6629 384.386 27.8409 385.091 27.8409C385.477 27.8409 385.848 27.7879 386.205 27.6818C386.561 27.5758 386.884 27.4186 387.176 27.2102C387.472 26.9981 387.722 26.7386 387.926 26.4318C388.134 26.1212 388.28 25.7652 388.364 25.3636H389.773C389.667 25.9583 389.473 26.4905 389.193 26.9602C388.913 27.4299 388.564 27.8295 388.148 28.1591C387.731 28.4848 387.263 28.733 386.744 28.9034C386.229 29.0739 385.678 29.1591 385.091 29.1591C384.098 29.1591 383.216 28.9167 382.443 28.4318C381.67 27.947 381.063 27.2576 380.619 26.3636C380.176 25.4697 379.955 24.4091 379.955 23.1818C379.955 21.9545 380.176 20.8939 380.619 20C381.063 19.1061 381.67 18.4167 382.443 17.9318C383.216 17.447 384.098 17.2045 385.091 17.2045C385.678 17.2045 386.229 17.2898 386.744 17.4602C387.263 17.6307 387.731 17.8807 388.148 18.2102C388.564 18.536 388.913 18.9337 389.193 19.4034C389.473 19.8693 389.667 20.4015 389.773 21Z" fill="#1565C0"/>
<path d="M317.83 353.884C317.83 356.093 316.039 357.884 313.83 357.884C311.621 357.884 309.83 356.093 309.83 353.884C309.83 351.675 311.621 349.884 313.83 349.884C316.039 349.884 317.83 351.675 317.83 353.884Z" fill="#616161"/>
<path d="M317.83 353.884C317.83 356.093 316.039 357.884 313.83 357.884C311.621 357.884 309.83 356.093 309.83 353.884C309.83 351.675 311.621 349.884 313.83 349.884C316.039 349.884 317.83 351.675 317.83 353.884Z" stroke="black" stroke-miterlimit="10" stroke-linecap="round" stroke-linejoin="round"/>
<path d="M323 345H319.409V333.364H323.159C324.288 333.364 325.254 333.597 326.057 334.062C326.86 334.525 327.475 335.189 327.903 336.057C328.331 336.92 328.545 337.955 328.545 339.159C328.545 340.371 328.33 341.415 327.898 342.29C327.466 343.161 326.837 343.831 326.011 344.301C325.186 344.767 324.182 345 323 345ZM320.818 343.75H322.909C323.871 343.75 324.669 343.564 325.301 343.193C325.934 342.822 326.405 342.294 326.716 341.608C327.027 340.922 327.182 340.106 327.182 339.159C327.182 338.22 327.028 337.411 326.722 336.733C326.415 336.051 325.956 335.528 325.347 335.165C324.737 334.797 323.977 334.614 323.068 334.614H320.818V343.75Z" fill="#616161"/>
<path d="M319.409 345H317.909L319.409 346.5V345ZM319.409 333.364V331.864L317.909 333.364H319.409ZM326.057 334.062L325.304 335.36L325.309 335.363L326.057 334.062ZM327.903 336.057L326.558 336.721L326.559 336.723L327.903 336.057ZM327.898 342.29L329.242 342.956L329.243 342.954L327.898 342.29ZM326.011 344.301L326.748 345.608L326.753 345.605L326.011 344.301ZM320.818 343.75H319.318L320.818 345.25V343.75ZM325.301 343.193L324.542 341.899L325.301 343.193ZM326.722 336.733L325.354 337.349L325.355 337.351L326.722 336.733ZM325.347 335.165L324.572 336.45L324.578 336.453L325.347 335.165ZM320.818 334.614V333.114L319.318 334.614H320.818ZM323 343.5H319.409V346.5H323V343.5ZM320.909 345V333.364H317.909V345H320.909ZM319.409 334.864H323.159V331.864H319.409V334.864ZM323.159 334.864C324.08 334.864 324.774 335.053 325.304 335.36L326.81 332.765C325.733 332.141 324.495 331.864 323.159 331.864V334.864ZM325.309 335.363C325.842 335.67 326.256 336.107 326.558 336.721L329.249 335.393C328.695 334.271 327.877 333.38 326.805 332.762L325.309 335.363ZM326.559 336.723C326.862 337.334 327.045 338.129 327.045 339.159H330.045C330.045 337.78 329.8 336.507 329.247 335.391L326.559 336.723ZM327.045 339.159C327.045 340.196 326.861 341.001 326.553 341.626L329.243 342.954C329.798 341.828 330.045 340.547 330.045 339.159H327.045ZM326.554 341.624C326.251 342.234 325.829 342.679 325.27 342.997L326.753 345.605C327.845 344.984 328.68 344.088 329.242 342.956L326.554 341.624ZM325.274 342.995C324.722 343.306 323.986 343.5 323 343.5V346.5C324.377 346.5 325.649 346.228 326.748 345.608L325.274 342.995ZM320.818 345.25H322.909V342.25H320.818V345.25ZM322.909 345.25C324.057 345.25 325.136 345.029 326.06 344.487L324.542 341.899C324.201 342.1 323.685 342.25 322.909 342.25V345.25ZM326.06 344.487C326.967 343.955 327.647 343.187 328.082 342.227L325.35 340.989C325.163 341.4 324.9 341.689 324.542 341.899L326.06 344.487ZM328.082 342.227C328.501 341.304 328.682 340.266 328.682 339.159H325.682C325.682 339.946 325.552 340.541 325.35 340.989L328.082 342.227ZM328.682 339.159C328.682 338.061 328.503 337.031 328.088 336.115L325.355 337.351C325.554 337.791 325.682 338.379 325.682 339.159H328.682ZM328.089 336.117C327.664 335.171 327.003 334.406 326.115 333.876L324.578 336.453C324.91 336.651 325.166 336.931 325.354 337.349L328.089 336.117ZM326.121 333.88C325.221 333.338 324.176 333.114 323.068 333.114V336.114C323.779 336.114 324.253 336.257 324.573 336.45L326.121 333.88ZM323.068 333.114H320.818V336.114H323.068V333.114ZM319.318 334.614V343.75H322.318V334.614H319.318Z" fill="white"/>
<path d="M323 345H319.409V333.364H323.159C324.288 333.364 325.254 333.597 326.057 334.062C326.86 334.525 327.475 335.189 327.903 336.057C328.331 336.92 328.545 337.955 328.545 339.159C328.545 340.371 328.33 341.415 327.898 342.29C327.466 343.161 326.837 343.831 326.011 344.301C325.186 344.767 324.182 345 323 345ZM320.818 343.75H322.909C323.871 343.75 324.669 343.564 325.301 343.193C325.934 342.822 326.405 342.294 326.716 341.608C327.027 340.922 327.182 340.106 327.182 339.159C327.182 338.22 327.028 337.411 326.722 336.733C326.415 336.051 325.956 335.528 325.347 335.165C324.737 334.797 323.977 334.614 323.068 334.614H320.818V343.75Z" fill="#616161"/>
<path d="M191.756 228.78C191.756 230.989 189.965 232.78 187.756 232.78C185.547 232.78 183.756 230.989 183.756 228.78C183.756 226.57 185.547 224.78 187.756 224.78C189.965 224.78 191.756 226.57 191.756 228.78Z" fill="#616161"/>
<path d="M191.756 228.78C191.756 230.989 189.965 232.78 187.756 232.78C185.547 232.78 183.756 230.989 183.756 228.78C183.756 226.57 185.547 224.78 187.756 224.78C189.965 224.78 191.756 226.57 191.756 228.78Z" stroke="black" stroke-miterlimit="10" stroke-linecap="round" stroke-linejoin="round"/>
<path d="M193.409 220V208.364H194.818V213.545H201.023V208.364H202.432V220H201.023V214.795H194.818V220H193.409Z" fill="#616161"/>
<path d="M193.409 220H191.909L193.409 221.5V220ZM193.409 208.364V206.864L191.909 208.364H193.409ZM194.818 208.364H196.318L194.818 206.864V208.364ZM194.818 213.545H193.318L194.818 215.045V213.545ZM201.023 213.545V215.045L202.523 213.545H201.023ZM201.023 208.364V206.864L199.523 208.364H201.023ZM202.432 208.364H203.932L202.432 206.864V208.364ZM202.432 220V221.5L203.932 220H202.432ZM201.023 220H199.523L201.023 221.5V220ZM201.023 214.795H202.523L201.023 213.295V214.795ZM194.818 214.795V213.295L193.318 214.795H194.818ZM194.818 220V221.5L196.318 220H194.818ZM194.909 220V208.364H191.909V220H194.909ZM193.409 209.864H194.818V206.864H193.409V209.864ZM193.318 208.364V213.545H196.318V208.364H193.318ZM194.818 215.045H201.023V212.045H194.818V215.045ZM202.523 213.545V208.364H199.523V213.545H202.523ZM201.023 209.864H202.432V206.864H201.023V209.864ZM200.932 208.364V220H203.932V208.364H200.932ZM202.432 218.5H201.023V221.5H202.432V218.5ZM202.523 220V214.795H199.523V220H202.523ZM201.023 213.295H194.818V216.295H201.023V213.295ZM193.318 214.795V220H196.318V214.795H193.318ZM194.818 218.5H193.409V221.5H194.818V218.5Z" fill="white"/>
<path d="M193.409 220V208.364H194.818V213.545H201.023V208.364H202.432V220H201.023V214.795H194.818V220H193.409Z" fill="#616161"/>
<path d="M207.321 228.179C206.837 228.179 206.398 228.088 206.004 227.906C205.609 227.72 205.296 227.453 205.064 227.105C204.832 226.754 204.716 226.33 204.716 225.832C204.716 225.395 204.802 225.04 204.974 224.768C205.147 224.493 205.377 224.278 205.665 224.122C205.954 223.966 206.272 223.85 206.62 223.774C206.971 223.695 207.324 223.632 207.679 223.585C208.143 223.526 208.519 223.481 208.808 223.451C209.099 223.418 209.311 223.363 209.444 223.287C209.58 223.211 209.648 223.078 209.648 222.889V222.849C209.648 222.359 209.513 221.978 209.245 221.706C208.98 221.434 208.577 221.298 208.037 221.298C207.477 221.298 207.038 221.421 206.719 221.666C206.401 221.911 206.178 222.173 206.048 222.452L204.935 222.054C205.134 221.59 205.399 221.229 205.73 220.97C206.065 220.708 206.429 220.526 206.824 220.423C207.222 220.317 207.613 220.264 207.997 220.264C208.242 220.264 208.524 220.294 208.842 220.354C209.164 220.41 209.474 220.528 209.772 220.707C210.074 220.886 210.324 221.156 210.523 221.517C210.722 221.878 210.821 222.362 210.821 222.969V228H209.648V226.966H209.588C209.509 227.132 209.376 227.309 209.19 227.498C209.005 227.687 208.758 227.848 208.45 227.98C208.141 228.113 207.765 228.179 207.321 228.179ZM207.5 227.125C207.964 227.125 208.355 227.034 208.673 226.852C208.995 226.669 209.237 226.434 209.399 226.146C209.565 225.857 209.648 225.554 209.648 225.236V224.162C209.598 224.222 209.489 224.276 209.32 224.326C209.154 224.372 208.962 224.414 208.743 224.45C208.527 224.483 208.317 224.513 208.112 224.54C207.909 224.563 207.745 224.583 207.619 224.599C207.314 224.639 207.029 224.704 206.764 224.793C206.502 224.879 206.29 225.01 206.128 225.186C205.969 225.358 205.889 225.594 205.889 225.892C205.889 226.3 206.04 226.608 206.342 226.817C206.647 227.022 207.033 227.125 207.5 227.125Z" fill="#616161"/>
<path d="M206.004 227.906L205.365 229.263L205.374 229.267L206.004 227.906ZM205.064 227.105L203.812 227.932L203.816 227.937L205.064 227.105ZM204.974 224.768L206.241 225.572L206.246 225.565L204.974 224.768ZM205.665 224.122L204.953 222.802L205.665 224.122ZM206.62 223.774L206.941 225.239L206.951 225.237L206.62 223.774ZM207.679 223.585L207.488 222.097L207.484 222.098L207.679 223.585ZM208.808 223.451L208.962 224.943L208.977 224.941L208.808 223.451ZM209.444 223.287L208.71 221.979L208.696 221.987L209.444 223.287ZM209.245 221.706L208.171 222.753L208.178 222.76L209.245 221.706ZM206.719 221.666L207.635 222.854L207.635 222.854L206.719 221.666ZM206.048 222.452L205.544 223.864L207.409 223.083L206.048 222.452ZM204.935 222.054L203.556 221.463L204.43 223.467L204.935 222.054ZM205.73 220.97L206.653 222.153L206.654 222.152L205.73 220.97ZM206.824 220.423L207.202 221.875L207.21 221.873L206.824 220.423ZM208.842 220.354L208.566 221.828L208.583 221.831L208.842 220.354ZM209.772 220.707L209 221.993L209.007 221.997L209.772 220.707ZM210.523 221.517L209.209 222.24L209.209 222.24L210.523 221.517ZM210.821 228V229.5L212.321 228H210.821ZM209.648 228H208.148L209.648 229.5V228ZM209.648 226.966H211.148L209.648 225.466V226.966ZM209.588 226.966V225.466L208.236 226.317L209.588 226.966ZM209.19 227.498L210.26 228.549L210.26 228.549L209.19 227.498ZM208.45 227.98L207.857 226.602L208.45 227.98ZM208.673 226.852L207.933 225.547L207.928 225.55L208.673 226.852ZM209.399 226.146L208.099 225.398L208.092 225.409L209.399 226.146ZM209.648 224.162H211.148L208.495 223.202L209.648 224.162ZM209.32 224.326L209.724 225.77L209.743 225.765L209.32 224.326ZM208.743 224.45L208.971 225.933L208.989 225.93L208.743 224.45ZM208.112 224.54L208.283 226.03L208.303 226.027L208.112 224.54ZM207.619 224.599L207.813 226.087L207.815 226.087L207.619 224.599ZM206.764 224.793L207.233 226.218L207.244 226.215L206.764 224.793ZM206.128 225.186L205.026 224.168L205.026 224.169L206.128 225.186ZM206.342 226.817L205.488 228.05L205.503 228.061L206.342 226.817ZM207.321 226.679C207.03 226.679 206.809 226.625 206.633 226.544L205.374 229.267C205.987 229.55 206.645 229.679 207.321 229.679V226.679ZM206.642 226.548C206.484 226.474 206.386 226.384 206.312 226.273L203.816 227.937C204.206 228.522 204.734 228.966 205.365 229.263L206.642 226.548ZM206.316 226.279C206.273 226.214 206.216 226.09 206.216 225.832H203.216C203.216 226.569 203.391 227.294 203.812 227.932L206.316 226.279ZM206.216 225.832C206.216 225.58 206.267 225.532 206.241 225.572L203.708 223.965C203.337 224.549 203.216 225.209 203.216 225.832H206.216ZM206.246 225.565C206.279 225.512 206.316 225.476 206.378 225.442L204.953 222.802C204.438 223.08 204.015 223.475 203.703 223.972L206.246 225.565ZM206.378 225.442C206.533 225.358 206.718 225.288 206.941 225.239L206.299 222.309C205.826 222.412 205.374 222.575 204.953 222.802L206.378 225.442ZM206.951 225.237C207.258 225.168 207.565 225.113 207.874 225.073L207.484 222.098C207.084 222.15 206.685 222.221 206.289 222.311L206.951 225.237ZM207.87 225.073C208.328 225.014 208.691 224.971 208.962 224.943L208.653 221.959C208.347 221.991 207.958 222.037 207.488 222.097L207.87 225.073ZM208.977 224.941C209.319 224.902 209.784 224.822 210.192 224.587L208.696 221.987C208.744 221.959 208.78 221.944 208.797 221.938C208.814 221.931 208.82 221.93 208.811 221.933C208.802 221.935 208.784 221.939 208.754 221.944C208.724 221.95 208.686 221.955 208.638 221.961L208.977 224.941ZM210.178 224.595C210.895 224.193 211.148 223.484 211.148 222.889H208.148C208.148 222.808 208.162 222.641 208.262 222.446C208.369 222.237 208.533 222.078 208.71 221.979L210.178 224.595ZM211.148 222.889V222.849H208.148V222.889H211.148ZM211.148 222.849C211.148 222.081 210.931 221.278 210.312 220.652L208.178 222.76C208.165 222.747 208.153 222.732 208.145 222.718C208.14 222.711 208.137 222.705 208.135 222.701C208.133 222.696 208.132 222.694 208.132 222.694C208.132 222.694 208.148 222.739 208.148 222.849H211.148ZM210.319 220.658C209.67 219.993 208.808 219.798 208.037 219.798V222.798C208.186 222.798 208.253 222.818 208.265 222.821C208.269 222.823 208.258 222.82 208.239 222.808C208.219 222.796 208.195 222.778 208.171 222.753L210.319 220.658ZM208.037 219.798C207.274 219.798 206.47 219.964 205.804 220.478L207.635 222.854C207.605 222.878 207.68 222.798 208.037 222.798V219.798ZM205.804 220.478C205.352 220.827 204.945 221.266 204.688 221.82L207.409 223.083C207.41 223.08 207.451 222.996 207.635 222.854L205.804 220.478ZM206.553 221.039L205.439 220.641L204.43 223.467L205.544 223.864L206.553 221.039ZM206.313 222.645C206.433 222.367 206.557 222.227 206.653 222.153L204.808 219.787C204.24 220.23 203.835 220.813 203.556 221.463L206.313 222.645ZM206.654 222.152C206.834 222.011 207.015 221.924 207.202 221.875L206.446 218.972C205.844 219.128 205.295 219.406 204.806 219.789L206.654 222.152ZM207.21 221.873C207.491 221.798 207.752 221.764 207.997 221.764V218.764C207.473 218.764 206.952 218.837 206.437 218.974L207.21 221.873ZM207.997 221.764C208.126 221.764 208.312 221.78 208.566 221.828L209.119 218.879C208.736 218.808 208.359 218.764 207.997 218.764V221.764ZM208.583 221.831C208.712 221.854 208.849 221.902 209 221.993L210.544 219.42C210.098 219.153 209.616 218.966 209.101 218.876L208.583 221.831ZM209.007 221.997C209.04 222.017 209.116 222.072 209.209 222.24L211.837 220.794C211.532 220.24 211.107 219.755 210.537 219.417L209.007 221.997ZM209.209 222.24C209.241 222.3 209.321 222.505 209.321 222.969H212.321C212.321 222.22 212.202 221.457 211.837 220.794L209.209 222.24ZM209.321 222.969V228H212.321V222.969H209.321ZM210.821 226.5H209.648V229.5H210.821V226.5ZM211.148 228V226.966H208.148V228H211.148ZM209.648 225.466H209.588V228.466H209.648V225.466ZM208.236 226.317C208.246 226.296 208.247 226.299 208.228 226.325C208.209 226.351 208.175 226.391 208.12 226.447L210.26 228.549C210.515 228.29 210.766 227.979 210.94 227.615L208.236 226.317ZM208.12 226.447C208.102 226.465 208.032 226.527 207.857 226.602L209.042 229.358C209.483 229.168 209.907 228.909 210.26 228.549L208.12 226.447ZM207.857 226.602C207.786 226.633 207.624 226.679 207.321 226.679V229.679C207.906 229.679 208.497 229.593 209.042 229.358L207.857 226.602ZM207.5 228.625C208.157 228.625 208.821 228.496 209.419 228.153L207.928 225.55C207.889 225.572 207.771 225.625 207.5 225.625V228.625ZM209.413 228.156C209.943 227.856 210.395 227.435 210.706 226.882L208.092 225.409C208.079 225.433 208.046 225.483 207.933 225.547L209.413 228.156ZM210.7 226.893C210.99 226.388 211.148 225.828 211.148 225.236H208.148C208.148 225.28 208.14 225.327 208.099 225.398L210.7 226.893ZM211.148 225.236V224.162H208.148V225.236H211.148ZM208.495 223.202C208.582 223.098 208.666 223.029 208.724 222.988C208.782 222.946 208.83 222.92 208.858 222.906C208.909 222.881 208.929 222.877 208.896 222.887L209.743 225.765C209.879 225.725 210.039 225.67 210.199 225.589C210.344 225.517 210.589 225.376 210.8 225.122L208.495 223.202ZM208.915 222.882C208.814 222.91 208.676 222.941 208.496 222.971L208.989 225.93C209.247 225.887 209.494 225.835 209.724 225.77L208.915 222.882ZM208.515 222.968C208.311 222.999 208.112 223.027 207.92 223.052L208.303 226.027C208.522 225.999 208.744 225.968 208.971 225.933L208.515 222.968ZM207.94 223.05C207.734 223.073 207.561 223.094 207.424 223.112L207.815 226.087C207.929 226.072 208.084 226.053 208.283 226.03L207.94 223.05ZM207.425 223.112C207.033 223.163 206.651 223.248 206.285 223.372L207.244 226.215C207.408 226.159 207.596 226.115 207.813 226.087L207.425 223.112ZM206.295 223.369C205.829 223.522 205.387 223.778 205.026 224.168L207.229 226.204C207.222 226.212 207.215 226.218 207.209 226.223C207.203 226.228 207.198 226.231 207.197 226.233C207.193 226.235 207.202 226.228 207.233 226.218L206.295 223.369ZM205.026 224.169C204.547 224.687 204.389 225.323 204.389 225.892H207.389C207.389 225.874 207.392 225.908 207.37 225.972C207.346 226.042 207.302 226.126 207.23 226.203L205.026 224.169ZM204.389 225.892C204.389 226.728 204.732 227.527 205.488 228.05L207.195 225.583C207.241 225.615 207.305 225.678 207.35 225.77C207.392 225.856 207.389 225.91 207.389 225.892H204.389ZM205.503 228.061C206.115 228.473 206.815 228.625 207.5 228.625V225.625C207.375 225.625 207.294 225.611 207.246 225.598C207.2 225.586 207.183 225.575 207.18 225.573L205.503 228.061Z" fill="white"/>
<path d="M207.321 228.179C206.837 228.179 206.398 228.088 206.004 227.906C205.609 227.72 205.296 227.453 205.064 227.105C204.832 226.754 204.716 226.33 204.716 225.832C204.716 225.395 204.802 225.04 204.974 224.768C205.147 224.493 205.377 224.278 205.665 224.122C205.954 223.966 206.272 223.85 206.62 223.774C206.971 223.695 207.324 223.632 207.679 223.585C208.143 223.526 208.519 223.481 208.808 223.451C209.099 223.418 209.311 223.363 209.444 223.287C209.58 223.211 209.648 223.078 209.648 222.889V222.849C209.648 222.359 209.513 221.978 209.245 221.706C208.98 221.434 208.577 221.298 208.037 221.298C207.477 221.298 207.038 221.421 206.719 221.666C206.401 221.911 206.178 222.173 206.048 222.452L204.935 222.054C205.134 221.59 205.399 221.229 205.73 220.97C206.065 220.708 206.429 220.526 206.824 220.423C207.222 220.317 207.613 220.264 207.997 220.264C208.242 220.264 208.524 220.294 208.842 220.354C209.164 220.41 209.474 220.528 209.772 220.707C210.074 220.886 210.324 221.156 210.523 221.517C210.722 221.878 210.821 222.362 210.821 222.969V228H209.648V226.966H209.588C209.509 227.132 209.376 227.309 209.19 227.498C209.005 227.687 208.758 227.848 208.45 227.98C208.141 228.113 207.765 228.179 207.321 228.179ZM207.5 227.125C207.964 227.125 208.355 227.034 208.673 226.852C208.995 226.669 209.237 226.434 209.399 226.146C209.565 225.857 209.648 225.554 209.648 225.236V224.162C209.598 224.222 209.489 224.276 209.32 224.326C209.154 224.372 208.962 224.414 208.743 224.45C208.527 224.483 208.317 224.513 208.112 224.54C207.909 224.563 207.745 224.583 207.619 224.599C207.314 224.639 207.029 224.704 206.764 224.793C206.502 224.879 206.29 225.01 206.128 225.186C205.969 225.358 205.889 225.594 205.889 225.892C205.889 226.3 206.04 226.608 206.342 226.817C206.647 227.022 207.033 227.125 207.5 227.125Z" fill="#616161"/>
<path d="M481.666 285.301C481.666 287.51 479.875 289.301 477.666 289.301C475.457 289.301 473.666 287.51 473.666 285.301C473.666 283.092 475.457 281.301 477.666 281.301C479.875 281.301 481.666 283.092 481.666 285.301Z" fill="#616161"/>
<path d="M481.666 285.301C481.666 287.51 479.875 289.301 477.666 289.301C475.457 289.301 473.666 287.51 473.666 285.301C473.666 283.092 475.457 281.301 477.666 281.301C479.875 281.301 481.666 283.092 481.666 285.301Z" stroke="black" stroke-miterlimit="10" stroke-linecap="round" stroke-linejoin="round"/>
<path d="M483.409 276V264.364H484.818V269.545H491.023V264.364H492.432V276H491.023V270.795H484.818V276H483.409Z" fill="#616161"/>
<path d="M483.409 276H481.909L483.409 277.5V276ZM483.409 264.364V262.864L481.909 264.364H483.409ZM484.818 264.364H486.318L484.818 262.864V264.364ZM484.818 269.545H483.318L484.818 271.045V269.545ZM491.023 269.545V271.045L492.523 269.545H491.023ZM491.023 264.364V262.864L489.523 264.364H491.023ZM492.432 264.364H493.932L492.432 262.864V264.364ZM492.432 276V277.5L493.932 276H492.432ZM491.023 276H489.523L491.023 277.5V276ZM491.023 270.795H492.523L491.023 269.295V270.795ZM484.818 270.795V269.295L483.318 270.795H484.818ZM484.818 276V277.5L486.318 276H484.818ZM484.909 276V264.364H481.909V276H484.909ZM483.409 265.864H484.818V262.864H483.409V265.864ZM483.318 264.364V269.545H486.318V264.364H483.318ZM484.818 271.045H491.023V268.045H484.818V271.045ZM492.523 269.545V264.364H489.523V269.545H492.523ZM491.023 265.864H492.432V262.864H491.023V265.864ZM490.932 264.364V276H493.932V264.364H490.932ZM492.432 274.5H491.023V277.5H492.432V274.5ZM492.523 276V270.795H489.523V276H492.523ZM491.023 269.295H484.818V272.295H491.023V269.295ZM483.318 270.795V276H486.318V270.795H483.318ZM484.818 274.5H483.409V277.5H484.818V274.5Z" fill="white"/>
<path d="M483.409 276V264.364H484.818V269.545H491.023V264.364H492.432V276H491.023V270.795H484.818V276H483.409Z" fill="#616161"/>
<path d="M495.233 284V273.818H496.406V277.577H496.506C496.592 277.444 496.711 277.275 496.864 277.07C497.019 276.861 497.241 276.675 497.53 276.513C497.821 276.347 498.216 276.264 498.713 276.264C499.356 276.264 499.923 276.425 500.413 276.746C500.904 277.068 501.287 277.524 501.562 278.114C501.837 278.704 501.974 279.4 501.974 280.202C501.974 281.01 501.837 281.711 501.562 282.305C501.287 282.895 500.906 283.352 500.418 283.677C499.931 283.998 499.369 284.159 498.733 284.159C498.242 284.159 497.85 284.078 497.555 283.915C497.26 283.75 497.033 283.562 496.874 283.354C496.714 283.142 496.592 282.966 496.506 282.827H496.366V284H495.233ZM496.386 280.182C496.386 280.759 496.471 281.267 496.64 281.708C496.809 282.146 497.056 282.489 497.381 282.737C497.705 282.982 498.103 283.105 498.574 283.105C499.064 283.105 499.474 282.976 499.802 282.717C500.133 282.455 500.382 282.104 500.548 281.663C500.717 281.219 500.801 280.725 500.801 280.182C500.801 279.645 500.718 279.161 500.553 278.73C500.39 278.296 500.143 277.953 499.812 277.701C499.484 277.446 499.071 277.318 498.574 277.318C498.097 277.318 497.696 277.439 497.371 277.681C497.046 277.92 496.801 278.254 496.635 278.685C496.469 279.113 496.386 279.612 496.386 280.182Z" fill="#616161"/>
<path d="M495.233 284H493.733L495.233 285.5V284ZM495.233 273.818V272.318L493.733 273.818H495.233ZM496.406 273.818H497.906L496.406 272.318V273.818ZM496.406 277.577H494.906L496.406 279.077V277.577ZM496.506 277.577V279.077L497.763 278.394L496.506 277.577ZM496.864 277.07L495.661 276.173L495.659 276.176L496.864 277.07ZM497.53 276.513L498.266 277.82L498.271 277.817L497.53 276.513ZM500.413 276.746L501.236 275.492L501.236 275.492L500.413 276.746ZM501.562 282.305L502.921 282.939L502.923 282.936L501.562 282.305ZM500.418 283.677L501.244 284.929L501.25 284.925L500.418 283.677ZM497.555 283.915L496.82 285.223L496.831 285.229L497.555 283.915ZM496.874 283.354L495.674 284.254L495.68 284.263L496.874 283.354ZM496.506 282.827L497.781 282.037L496.506 281.327V282.827ZM496.366 282.827V281.327L494.866 282.827H496.366ZM496.366 284V285.5L497.866 284H496.366ZM496.64 281.708L495.239 282.245L495.241 282.249L496.64 281.708ZM497.381 282.737L496.469 283.928L496.477 283.934L497.381 282.737ZM499.802 282.717L500.73 283.896L500.732 283.894L499.802 282.717ZM500.548 281.663L499.146 281.13L499.144 281.136L500.548 281.663ZM500.553 278.73L499.148 279.256L499.153 279.269L500.553 278.73ZM499.812 277.701L498.891 278.885L498.904 278.895L499.812 277.701ZM497.371 277.681L498.259 278.89L498.267 278.884L497.371 277.681ZM496.635 278.685L498.034 279.227L498.035 279.224L496.635 278.685ZM496.733 284V273.818H493.733V284H496.733ZM495.233 275.318H496.406V272.318H495.233V275.318ZM494.906 273.818V277.577H497.906V273.818H494.906ZM496.406 279.077H496.506V276.077H496.406V279.077ZM497.763 278.394C497.826 278.298 497.925 278.157 498.068 277.963L495.659 276.176C495.498 276.393 495.358 276.59 495.248 276.759L497.763 278.394ZM498.066 277.967C498.068 277.964 498.112 277.906 498.266 277.82L496.794 275.206C496.371 275.444 495.971 275.757 495.661 276.173L498.066 277.967ZM498.271 277.817C498.258 277.824 498.278 277.81 498.353 277.794C498.428 277.778 498.545 277.764 498.713 277.764V274.764C498.072 274.764 497.39 274.867 496.789 275.209L498.271 277.817ZM498.713 277.764C499.093 277.764 499.368 277.855 499.591 278.001L501.236 275.492C500.477 274.995 499.619 274.764 498.713 274.764V277.764ZM499.591 278.001C499.823 278.153 500.032 278.382 500.202 278.748L502.921 277.48C502.542 276.666 501.985 275.983 501.236 275.492L499.591 278.001ZM500.202 278.748C500.366 279.098 500.474 279.569 500.474 280.202H503.474C503.474 279.23 503.308 278.309 502.921 277.48L500.202 278.748ZM500.474 280.202C500.474 280.843 500.365 281.319 500.201 281.674L502.923 282.936C503.308 282.104 503.474 281.178 503.474 280.202H500.474ZM500.202 281.671C500.03 282.04 499.82 282.273 499.586 282.429L501.25 284.925C501.991 284.431 502.543 283.749 502.921 282.939L500.202 281.671ZM499.592 282.425C499.372 282.57 499.103 282.659 498.733 282.659V285.659C499.635 285.659 500.49 285.427 501.244 284.929L499.592 282.425ZM498.733 282.659C498.388 282.659 498.273 282.599 498.278 282.601L496.831 285.229C497.426 285.557 498.097 285.659 498.733 285.659V282.659ZM498.289 282.608C498.123 282.514 498.072 282.451 498.067 282.445L495.68 284.263C495.994 284.674 496.396 284.985 496.82 285.223L498.289 282.608ZM498.074 282.454C497.927 282.258 497.834 282.123 497.781 282.037L495.23 283.616C495.35 283.809 495.502 284.025 495.674 284.254L498.074 282.454ZM496.506 281.327H496.366V284.327H496.506V281.327ZM494.866 282.827V284H497.866V282.827H494.866ZM496.366 282.5H495.233V285.5H496.366V282.5ZM494.886 280.182C494.886 280.903 494.992 281.6 495.239 282.245L498.04 281.171C497.95 280.935 497.886 280.614 497.886 280.182H494.886ZM495.241 282.249C495.494 282.905 495.894 283.489 496.469 283.928L498.292 281.546C498.217 281.489 498.124 281.386 498.039 281.167L495.241 282.249ZM496.477 283.934C497.101 284.406 497.83 284.605 498.574 284.605V281.605C498.376 281.605 498.31 281.559 498.285 281.54L496.477 283.934ZM498.574 284.605C499.34 284.605 500.093 284.397 500.73 283.896L498.874 281.539C498.854 281.554 498.789 281.605 498.574 281.605V284.605ZM500.732 283.894C501.301 283.444 501.701 282.857 501.952 282.191L499.144 281.136C499.063 281.351 498.965 281.467 498.872 281.54L500.732 283.894ZM501.949 282.197C502.192 281.56 502.301 280.882 502.301 280.182H499.301C499.301 280.569 499.241 280.879 499.146 281.13L501.949 282.197ZM502.301 280.182C502.301 279.49 502.194 278.82 501.953 278.192L499.153 279.269C499.242 279.502 499.301 279.799 499.301 280.182H502.301ZM501.957 278.205C501.707 277.536 501.302 276.949 500.719 276.507L498.904 278.895C498.985 278.957 499.073 279.056 499.148 279.256L501.957 278.205ZM500.733 276.517C500.092 276.019 499.337 275.818 498.574 275.818V278.818C498.805 278.818 498.875 278.873 498.891 278.885L500.733 276.517ZM498.574 275.818C497.833 275.818 497.102 276.011 496.475 276.478L498.267 278.884C498.289 278.868 498.36 278.818 498.574 278.818V275.818ZM496.483 276.472C495.894 276.904 495.488 277.488 495.235 278.147L498.035 279.224C498.113 279.021 498.197 278.935 498.259 278.89L496.483 276.472ZM495.236 278.143C494.989 278.78 494.886 279.47 494.886 280.182H497.886C497.886 279.754 497.949 279.446 498.034 279.227L495.236 278.143Z" fill="white"/>
<path d="M495.233 284V273.818H496.406V277.577H496.506C496.592 277.444 496.711 277.275 496.864 277.07C497.019 276.861 497.241 276.675 497.53 276.513C497.821 276.347 498.216 276.264 498.713 276.264C499.356 276.264 499.923 276.425 500.413 276.746C500.904 277.068 501.287 277.524 501.562 278.114C501.837 278.704 501.974 279.4 501.974 280.202C501.974 281.01 501.837 281.711 501.562 282.305C501.287 282.895 500.906 283.352 500.418 283.677C499.931 283.998 499.369 284.159 498.733 284.159C498.242 284.159 497.85 284.078 497.555 283.915C497.26 283.75 497.033 283.562 496.874 283.354C496.714 283.142 496.592 282.966 496.506 282.827H496.366V284H495.233ZM496.386 280.182C496.386 280.759 496.471 281.267 496.64 281.708C496.809 282.146 497.056 282.489 497.381 282.737C497.705 282.982 498.103 283.105 498.574 283.105C499.064 283.105 499.474 282.976 499.802 282.717C500.133 282.455 500.382 282.104 500.548 281.663C500.717 281.219 500.801 280.725 500.801 280.182C500.801 279.645 500.718 279.161 500.553 278.73C500.39 278.296 500.143 277.953 499.812 277.701C499.484 277.446 499.071 277.318 498.574 277.318C498.097 277.318 497.696 277.439 497.371 277.681C497.046 277.92 496.801 278.254 496.635 278.685C496.469 279.113 496.386 279.612 496.386 280.182Z" fill="#616161"/>
<path d="M380.725 353.54C380.725 355.749 378.934 357.54 376.725 357.54C374.515 357.54 372.725 355.749 372.725 353.54C372.725 351.331 374.515 349.54 376.725 349.54C378.934 349.54 380.725 351.331 380.725 353.54Z" fill="#616161"/>
<path d="M380.725 353.54C380.725 355.749 378.934 357.54 376.725 357.54C374.515 357.54 372.725 355.749 372.725 353.54C372.725 351.331 374.515 349.54 376.725 349.54C378.934 349.54 380.725 351.331 380.725 353.54Z" stroke="black" stroke-miterlimit="10" stroke-linecap="round" stroke-linejoin="round"/>
<path d="M382.409 345V333.364H383.818V338.545H390.023V333.364H391.432V345H390.023V339.795H383.818V345H382.409Z" fill="#616161"/>
<path d="M382.409 345H380.909L382.409 346.5V345ZM382.409 333.364V331.864L380.909 333.364H382.409ZM383.818 333.364H385.318L383.818 331.864V333.364ZM383.818 338.545H382.318L383.818 340.045V338.545ZM390.023 338.545V340.045L391.523 338.545H390.023ZM390.023 333.364V331.864L388.523 333.364H390.023ZM391.432 333.364H392.932L391.432 331.864V333.364ZM391.432 345V346.5L392.932 345H391.432ZM390.023 345H388.523L390.023 346.5V345ZM390.023 339.795H391.523L390.023 338.295V339.795ZM383.818 339.795V338.295L382.318 339.795H383.818ZM383.818 345V346.5L385.318 345H383.818ZM383.909 345V333.364H380.909V345H383.909ZM382.409 334.864H383.818V331.864H382.409V334.864ZM382.318 333.364V338.545H385.318V333.364H382.318ZM383.818 340.045H390.023V337.045H383.818V340.045ZM391.523 338.545V333.364H388.523V338.545H391.523ZM390.023 334.864H391.432V331.864H390.023V334.864ZM389.932 333.364V345H392.932V333.364H389.932ZM391.432 343.5H390.023V346.5H391.432V343.5ZM391.523 345V339.795H388.523V345H391.523ZM390.023 338.295H383.818V341.295H390.023V338.295ZM382.318 339.795V345H385.318V339.795H382.318ZM383.818 343.5H382.409V346.5H383.818V343.5Z" fill="white"/>
<path d="M382.409 345V333.364H383.818V338.545H390.023V333.364H391.432V345H390.023V339.795H383.818V345H382.409Z" fill="#616161"/>
<path d="M178.227 379.273L180.318 382.841L182.409 379.273H183.955L181.136 383.636L183.955 388H182.409L180.318 384.614L178.227 388H176.682L179.455 383.636L176.682 379.273H178.227Z" fill="black"/>
<path d="M413.091 396.273C412.864 396.273 412.661 396.254 412.483 396.216C412.305 396.182 412.182 396.148 412.114 396.114L412.455 394.932C412.78 395.015 413.068 395.045 413.318 395.023C413.568 395 413.79 394.888 413.983 394.688C414.18 394.491 414.36 394.17 414.523 393.727L414.773 393.045L411.545 384.273H413L415.409 391.227H415.5L417.909 384.273H419.364L415.659 394.273C415.492 394.723 415.286 395.097 415.04 395.392C414.794 395.691 414.508 395.913 414.182 396.057C413.86 396.201 413.496 396.273 413.091 396.273Z" fill="black"/>
<path d="M189.795 177.205C189.242 177.205 188.741 177.1 188.29 176.892C187.839 176.68 187.481 176.375 187.216 175.977C186.951 175.576 186.818 175.091 186.818 174.523C186.818 174.023 186.917 173.617 187.114 173.307C187.311 172.992 187.574 172.746 187.903 172.568C188.233 172.39 188.597 172.258 188.994 172.17C189.396 172.08 189.799 172.008 190.205 171.955C190.735 171.886 191.165 171.835 191.494 171.801C191.828 171.763 192.07 171.701 192.222 171.614C192.377 171.527 192.455 171.375 192.455 171.159V171.114C192.455 170.553 192.301 170.117 191.994 169.807C191.691 169.496 191.231 169.341 190.614 169.341C189.973 169.341 189.472 169.481 189.108 169.761C188.744 170.042 188.489 170.341 188.341 170.659L187.068 170.205C187.295 169.674 187.598 169.261 187.977 168.966C188.36 168.667 188.777 168.458 189.227 168.341C189.682 168.22 190.129 168.159 190.568 168.159C190.848 168.159 191.17 168.193 191.534 168.261C191.902 168.326 192.256 168.46 192.597 168.665C192.941 168.869 193.227 169.178 193.455 169.591C193.682 170.004 193.795 170.557 193.795 171.25V177H192.455V175.818H192.386C192.295 176.008 192.144 176.21 191.932 176.426C191.72 176.642 191.438 176.826 191.085 176.977C190.733 177.129 190.303 177.205 189.795 177.205ZM190 176C190.53 176 190.977 175.896 191.341 175.688C191.708 175.479 191.985 175.21 192.17 174.881C192.36 174.551 192.455 174.205 192.455 173.841V172.614C192.398 172.682 192.273 172.744 192.08 172.801C191.89 172.854 191.67 172.902 191.42 172.943C191.174 172.981 190.934 173.015 190.699 173.045C190.468 173.072 190.28 173.095 190.136 173.114C189.788 173.159 189.462 173.233 189.159 173.335C188.86 173.434 188.617 173.583 188.432 173.784C188.25 173.981 188.159 174.25 188.159 174.591C188.159 175.057 188.331 175.409 188.676 175.648C189.025 175.883 189.466 176 190 176Z" fill="black"/>
<path d="M444.409 151V139.364H445.75V143.659H445.864C445.962 143.508 446.098 143.314 446.273 143.08C446.451 142.841 446.705 142.629 447.034 142.443C447.367 142.254 447.818 142.159 448.386 142.159C449.121 142.159 449.769 142.343 450.33 142.71C450.89 143.078 451.328 143.598 451.642 144.273C451.956 144.947 452.114 145.742 452.114 146.659C452.114 147.583 451.956 148.384 451.642 149.062C451.328 149.737 450.892 150.259 450.335 150.631C449.778 150.998 449.136 151.182 448.409 151.182C447.848 151.182 447.4 151.089 447.062 150.903C446.725 150.714 446.466 150.5 446.284 150.261C446.102 150.019 445.962 149.818 445.864 149.659H445.705V151H444.409ZM445.727 146.636C445.727 147.295 445.824 147.877 446.017 148.381C446.21 148.881 446.492 149.273 446.864 149.557C447.235 149.837 447.689 149.977 448.227 149.977C448.788 149.977 449.256 149.83 449.631 149.534C450.009 149.235 450.294 148.833 450.483 148.33C450.676 147.822 450.773 147.258 450.773 146.636C450.773 146.023 450.678 145.47 450.489 144.977C450.303 144.481 450.021 144.089 449.642 143.801C449.267 143.509 448.795 143.364 448.227 143.364C447.682 143.364 447.223 143.502 446.852 143.778C446.481 144.051 446.201 144.434 446.011 144.926C445.822 145.415 445.727 145.985 445.727 146.636Z" fill="black"/>
</g>
<defs>
<clipPath id="clip0_483_98">
<rect width="620" height="397" fill="white"/>
</clipPath>
</defs>
</svg>
