<svg version="1.1" xmlns="http://www.w3.org/2000/svg" xmlns:xlink="http://www.w3.org/1999/xlink" width="1140" height="673"><defs><clipPath id="aLqQTuGlDBpm"><path fill="none" stroke="none" d=" M 0 0 L 1140 0 L 1140 673 L 0 673 L 0 0 Z"/></clipPath></defs><g transform="scale(1,1)" clip-path="url(#aLqQTuGlDBpm)"><g><rect fill="rgb(255,255,255)" stroke="none" x="0" y="0" width="1140" height="674" fill-opacity="1"/><path fill="none" stroke="rgb(97,97,97)" paint-order="fill stroke markers" d=" M 153.38784530498918 566.7839458633042 L 811.7137522972224 575.8957231227123" stroke-opacity="0.2" stroke-linecap="round" stroke-linejoin="round" stroke-miterlimit="10" stroke-width="7"/><path fill="none" stroke="rgb(97,97,97)" paint-order="fill stroke markers" d=" M 153.38784530498918 566.7839458633042 L 811.7137522972224 575.8957231227123" stroke-opacity="0.8" stroke-linecap="round" stroke-linejoin="round" stroke-miterlimit="10" stroke-width="2.5"/><path fill="none" stroke="rgb(97,97,97)" paint-order="fill stroke markers" d=" M 811.7137522972224 575.8957231227123 L 479.1338823288278 56.52441933645173" stroke-opacity="0.8" stroke-linecap="round" stroke-linejoin="round" stroke-miterlimit="10" stroke-width="2.5"/><path fill="none" stroke="rgb(97,97,97)" paint-order="fill stroke markers" d=" M 479.1338823288278 56.52441933645173 L 153.38784530498918 566.7839458633042" stroke-opacity="0.8" stroke-linecap="round" stroke-linejoin="round" stroke-miterlimit="10" stroke-width="2.5"/><path fill="none" stroke="rgb(255,0,0)" paint-order="fill stroke markers" d=" M 316.26086381690845 311.65418259987797 L 645.4238173130251 316.210071229582" stroke-opacity="0.8" stroke-linecap="round" stroke-linejoin="round" stroke-miterlimit="10" stroke-width="2.5"/><path fill="none" stroke="rgb(97,97,97)" paint-order="fill stroke markers" d=" M 386.4771804845981 179.01401850112703 L 405.16600702479343 197.70284504132238" stroke-opacity="0.8" stroke-linecap="round" stroke-linejoin="round" stroke-miterlimit="10" stroke-width="2.5"/><path fill="none" stroke="rgb(97,97,97)" paint-order="fill stroke markers" d=" M 562.6861164350114 169.2246331705485 L 543.997289894816 181.6838508640121" stroke-opacity="0.8" stroke-linecap="round" stroke-linejoin="round" stroke-miterlimit="10" stroke-width="2.5"/><path fill="none" stroke="rgb(97,97,97)" paint-order="fill stroke markers" d=" M 568.9157252817431 178.12407438016535 L 551.1168428625094 190.5832920736289" stroke-opacity="0.8" stroke-linecap="round" stroke-linejoin="round" stroke-miterlimit="10" stroke-width="2.5"/><path fill="none" stroke="rgb(97,97,97)" paint-order="fill stroke markers" d=" M 224.5073504695718 431.75814885424506 L 243.19617700976715 450.4469753944404" stroke-opacity="0.8" stroke-linecap="round" stroke-linejoin="round" stroke-miterlimit="10" stroke-width="2.5"/><path fill="none" stroke="rgb(97,97,97)" paint-order="fill stroke markers" d=" M 386.4771804845981 179.01401850112703 L 405.16600702479343 197.70284504132238" stroke-opacity="0.8" stroke-linecap="round" stroke-linejoin="round" stroke-miterlimit="10" stroke-width="2.5"/><path fill="none" stroke="rgb(97,97,97)" paint-order="fill stroke markers" d=" M 721.0961699661909 408.6196017092413 L 702.4073434259956 421.0788194027049" stroke-opacity="0.8" stroke-linecap="round" stroke-linejoin="round" stroke-miterlimit="10" stroke-width="2.5"/><path fill="none" stroke="rgb(97,97,97)" paint-order="fill stroke markers" d=" M 724.6559464500377 416.62909879789646 L 706.857064030804 429.08831649136005" stroke-opacity="0.8" stroke-linecap="round" stroke-linejoin="round" stroke-miterlimit="10" stroke-width="2.5"/><path fill="rgb(21,101,192)" stroke="none" paint-order="stroke fill markers" d=" M 158.38784530498918 566.7839458633042 C 158.38784530498918 569.5453696124582 156.14926905414316 571.7839458633042 153.38784530498918 571.7839458633042 C 150.6264215558352 571.7839458633042 148.38784530498918 569.5453696124582 148.38784530498918 566.7839458633042 C 148.38784530498918 564.0225221141502 150.6264215558352 561.7839458633042 153.38784530498918 561.7839458633042 C 156.14926905414316 561.7839458633042 158.38784530498918 564.0225221141502 158.38784530498918 566.7839458633042 Z" fill-opacity="1"/><path fill="none" stroke="rgb(0,0,0)" paint-order="fill stroke markers" d=" M 158.38784530498918 566.7839458633042 C 158.38784530498918 569.5453696124582 156.14926905414316 571.7839458633042 153.38784530498918 571.7839458633042 C 150.6264215558352 571.7839458633042 148.38784530498918 569.5453696124582 148.38784530498918 566.7839458633042 C 148.38784530498918 564.0225221141502 150.6264215558352 561.7839458633042 153.38784530498918 561.7839458633042 C 156.14926905414316 561.7839458633042 158.38784530498918 564.0225221141502 158.38784530498918 566.7839458633042 Z" stroke-opacity="1" stroke-linecap="round" stroke-linejoin="round" stroke-miterlimit="10"/><text fill="rgb(21,101,192)" stroke="none" font-family="geogebra-sans-serif, sans-serif" font-size="16px" font-style="normal" font-weight="normal" text-decoration="normal" x="157" y="557" text-anchor="start" dominant-baseline="alphabetic" fill-opacity="1">A</text><text fill="none" stroke="rgb(255,255,255)" font-family="geogebra-sans-serif, sans-serif" font-size="16px" font-style="normal" font-weight="normal" text-decoration="normal" x="157" y="557" text-anchor="start" dominant-baseline="alphabetic" stroke-opacity="1" stroke-linejoin="bevel" stroke-miterlimit="10" stroke-width="3">A</text><text fill="rgb(21,101,192)" stroke="none" font-family="geogebra-sans-serif, sans-serif" font-size="16px" font-style="normal" font-weight="normal" text-decoration="normal" x="157" y="557" text-anchor="start" dominant-baseline="alphabetic" fill-opacity="1">A</text><path fill="rgb(21,101,192)" stroke="none" paint-order="stroke fill markers" d=" M 816.7137522972224 575.8957231227123 C 816.7137522972224 578.6571468718663 814.4751760463764 580.8957231227123 811.7137522972224 580.8957231227123 C 808.9523285480684 580.8957231227123 806.7137522972224 578.6571468718663 806.7137522972224 575.8957231227123 C 806.7137522972224 573.1342993735583 808.9523285480684 570.8957231227123 811.7137522972224 570.8957231227123 C 814.4751760463764 570.8957231227123 816.7137522972224 573.1342993735583 816.7137522972224 575.8957231227123 Z" fill-opacity="1"/><path fill="none" stroke="rgb(0,0,0)" paint-order="fill stroke markers" d=" M 816.7137522972224 575.8957231227123 C 816.7137522972224 578.6571468718663 814.4751760463764 580.8957231227123 811.7137522972224 580.8957231227123 C 808.9523285480684 580.8957231227123 806.7137522972224 578.6571468718663 806.7137522972224 575.8957231227123 C 806.7137522972224 573.1342993735583 808.9523285480684 570.8957231227123 811.7137522972224 570.8957231227123 C 814.4751760463764 570.8957231227123 816.7137522972224 573.1342993735583 816.7137522972224 575.8957231227123 Z" stroke-opacity="1" stroke-linecap="round" stroke-linejoin="round" stroke-miterlimit="10"/><text fill="rgb(21,101,192)" stroke="none" font-family="geogebra-sans-serif, sans-serif" font-size="16px" font-style="normal" font-weight="normal" text-decoration="normal" x="816" y="566" text-anchor="start" dominant-baseline="alphabetic" fill-opacity="1">B</text><text fill="none" stroke="rgb(255,255,255)" font-family="geogebra-sans-serif, sans-serif" font-size="16px" font-style="normal" font-weight="normal" text-decoration="normal" x="816" y="566" text-anchor="start" dominant-baseline="alphabetic" stroke-opacity="1" stroke-linejoin="bevel" stroke-miterlimit="10" stroke-width="3">B</text><text fill="rgb(21,101,192)" stroke="none" font-family="geogebra-sans-serif, sans-serif" font-size="16px" font-style="normal" font-weight="normal" text-decoration="normal" x="816" y="566" text-anchor="start" dominant-baseline="alphabetic" fill-opacity="1">B</text><path fill="rgb(21,101,192)" stroke="none" paint-order="stroke fill markers" d=" M 484.1338823288278 56.52441933645173 C 484.1338823288278 59.28584308560569 481.89530607798173 61.52441933645173 479.1338823288278 61.52441933645173 C 476.37245857967383 61.52441933645173 474.1338823288278 59.28584308560569 474.1338823288278 56.52441933645173 C 474.1338823288278 53.76299558729776 476.37245857967383 51.52441933645173 479.1338823288278 51.52441933645173 C 481.89530607798173 51.52441933645173 484.1338823288278 53.76299558729776 484.1338823288278 56.52441933645173 Z" fill-opacity="1"/><path fill="none" stroke="rgb(0,0,0)" paint-order="fill stroke markers" d=" M 484.1338823288278 56.52441933645173 C 484.1338823288278 59.28584308560569 481.89530607798173 61.52441933645173 479.1338823288278 61.52441933645173 C 476.37245857967383 61.52441933645173 474.1338823288278 59.28584308560569 474.1338823288278 56.52441933645173 C 474.1338823288278 53.76299558729776 476.37245857967383 51.52441933645173 479.1338823288278 51.52441933645173 C 481.89530607798173 51.52441933645173 484.1338823288278 53.76299558729776 484.1338823288278 56.52441933645173 Z" stroke-opacity="1" stroke-linecap="round" stroke-linejoin="round" stroke-miterlimit="10"/><text fill="rgb(21,101,192)" stroke="none" font-family="geogebra-sans-serif, sans-serif" font-size="16px" font-style="normal" font-weight="normal" text-decoration="normal" x="483" y="47" text-anchor="start" dominant-baseline="alphabetic" fill-opacity="1">C</text><text fill="none" stroke="rgb(255,255,255)" font-family="geogebra-sans-serif, sans-serif" font-size="16px" font-style="normal" font-weight="normal" text-decoration="normal" x="483" y="47" text-anchor="start" dominant-baseline="alphabetic" stroke-opacity="1" stroke-linejoin="bevel" stroke-miterlimit="10" stroke-width="3">C</text><text fill="rgb(21,101,192)" stroke="none" font-family="geogebra-sans-serif, sans-serif" font-size="16px" font-style="normal" font-weight="normal" text-decoration="normal" x="483" y="47" text-anchor="start" dominant-baseline="alphabetic" fill-opacity="1">C</text><path fill="rgb(97,97,97)" stroke="none" paint-order="stroke fill markers" d=" M 320.26086381690845 311.65418259987797 C 320.26086381690845 313.86332159920113 318.4700028162316 315.65418259987797 316.26086381690845 315.65418259987797 C 314.0517248175853 315.65418259987797 312.26086381690845 313.86332159920113 312.26086381690845 311.65418259987797 C 312.26086381690845 309.4450436005548 314.0517248175853 307.65418259987797 316.26086381690845 307.65418259987797 C 318.4700028162316 307.65418259987797 320.26086381690845 309.4450436005548 320.26086381690845 311.65418259987797 Z" fill-opacity="1"/><path fill="none" stroke="rgb(0,0,0)" paint-order="fill stroke markers" d=" M 320.26086381690845 311.65418259987797 C 320.26086381690845 313.86332159920113 318.4700028162316 315.65418259987797 316.26086381690845 315.65418259987797 C 314.0517248175853 315.65418259987797 312.26086381690845 313.86332159920113 312.26086381690845 311.65418259987797 C 312.26086381690845 309.4450436005548 314.0517248175853 307.65418259987797 316.26086381690845 307.65418259987797 C 318.4700028162316 307.65418259987797 320.26086381690845 309.4450436005548 320.26086381690845 311.65418259987797 Z" stroke-opacity="1" stroke-linecap="round" stroke-linejoin="round" stroke-miterlimit="10"/><text fill="rgb(97,97,97)" stroke="none" font-family="geogebra-sans-serif, sans-serif" font-size="16px" font-style="normal" font-weight="normal" text-decoration="normal" x="320" y="304" text-anchor="start" dominant-baseline="alphabetic" fill-opacity="1">M</text><text fill="none" stroke="rgb(255,255,255)" font-family="geogebra-sans-serif, sans-serif" font-size="16px" font-style="normal" font-weight="normal" text-decoration="normal" x="320" y="304" text-anchor="start" dominant-baseline="alphabetic" stroke-opacity="1" stroke-linejoin="bevel" stroke-miterlimit="10" stroke-width="3">M</text><text fill="rgb(97,97,97)" stroke="none" font-family="geogebra-sans-serif, sans-serif" font-size="16px" font-style="normal" font-weight="normal" text-decoration="normal" x="320" y="304" text-anchor="start" dominant-baseline="alphabetic" fill-opacity="1">M</text><path fill="rgb(97,97,97)" stroke="none" paint-order="stroke fill markers" d=" M 649.4238173130251 316.210071229582 C 649.4238173130251 318.4192102289052 647.6329563123483 320.210071229582 645.4238173130251 320.210071229582 C 643.2146783137019 320.210071229582 641.4238173130251 318.4192102289052 641.4238173130251 316.210071229582 C 641.4238173130251 314.00093223025885 643.2146783137019 312.210071229582 645.4238173130251 312.210071229582 C 647.6329563123483 312.210071229582 649.4238173130251 314.00093223025885 649.4238173130251 316.210071229582 Z" fill-opacity="1"/><path fill="none" stroke="rgb(0,0,0)" paint-order="fill stroke markers" d=" M 649.4238173130251 316.210071229582 C 649.4238173130251 318.4192102289052 647.6329563123483 320.210071229582 645.4238173130251 320.210071229582 C 643.2146783137019 320.210071229582 641.4238173130251 318.4192102289052 641.4238173130251 316.210071229582 C 641.4238173130251 314.00093223025885 643.2146783137019 312.210071229582 645.4238173130251 312.210071229582 C 647.6329563123483 312.210071229582 649.4238173130251 314.00093223025885 649.4238173130251 316.210071229582 Z" stroke-opacity="1" stroke-linecap="round" stroke-linejoin="round" stroke-miterlimit="10"/><text fill="rgb(97,97,97)" stroke="none" font-family="geogebra-sans-serif, sans-serif" font-size="16px" font-style="normal" font-weight="normal" text-decoration="normal" x="649" y="308" text-anchor="start" dominant-baseline="alphabetic" fill-opacity="1">N</text><text fill="none" stroke="rgb(255,255,255)" font-family="geogebra-sans-serif, sans-serif" font-size="16px" font-style="normal" font-weight="normal" text-decoration="normal" x="649" y="308" text-anchor="start" dominant-baseline="alphabetic" stroke-opacity="1" stroke-linejoin="bevel" stroke-miterlimit="10" stroke-width="3">N</text><text fill="rgb(97,97,97)" stroke="none" font-family="geogebra-sans-serif, sans-serif" font-size="16px" font-style="normal" font-weight="normal" text-decoration="normal" x="649" y="308" text-anchor="start" dominant-baseline="alphabetic" fill-opacity="1">N</text></g></g></svg>