<svg width="1105" height="576" viewBox="0 0 1105 576" fill="none" xmlns="http://www.w3.org/2000/svg">
<g clip-path="url(#clip0_358_197)">
<path d="M1105 0H-5V576H1105V0Z" fill="white"/>
<path d="M477.61 197.24C467.315 202.059 460.629 212.283 460.34 223.646C460.051 235.009 466.208 245.56 476.244 250.897L490.33 224.409L477.61 197.24Z" fill="black" fill-opacity="0.0980392"/>
<path d="M477.61 197.24C467.315 202.059 460.629 212.283 460.34 223.646C460.051 235.009 466.208 245.56 476.244 250.897L490.33 224.409L477.61 197.24Z" stroke="black" stroke-opacity="0.6" stroke-width="2" stroke-miterlimit="10" stroke-linecap="round" stroke-linejoin="round"/>
<path d="M503.05 251.579C513.345 246.759 520.031 236.536 520.32 225.173C520.61 213.81 514.452 203.259 504.416 197.922L490.33 224.409L503.05 251.579Z" fill="black" fill-opacity="0.0980392"/>
<path d="M503.05 251.579C513.345 246.759 520.031 236.536 520.32 225.173C520.61 213.81 514.452 203.259 504.416 197.922L490.33 224.409L503.05 251.579Z" stroke="black" stroke-opacity="0.6" stroke-width="2" stroke-miterlimit="10" stroke-linecap="round" stroke-linejoin="round"/>
<path d="M392.741 356.823C382.454 361.639 375.769 371.851 375.471 383.206C375.173 394.56 381.313 405.109 391.332 410.458L405.461 383.993L392.741 356.823Z" fill="black" fill-opacity="0.0980392"/>
<path d="M392.741 356.823C382.454 361.639 375.769 371.851 375.471 383.206C375.173 394.56 381.313 405.109 391.332 410.458L405.461 383.993L392.741 356.823Z" stroke="black" stroke-opacity="0.6" stroke-width="2" stroke-miterlimit="10" stroke-linecap="round" stroke-linejoin="round"/>
<path d="M418.089 411.206C428.416 406.414 435.141 396.188 435.45 384.808C435.759 373.427 429.599 362.852 419.547 357.506L405.461 383.993L418.089 411.206Z" fill="black" fill-opacity="0.0980392"/>
<path d="M418.089 411.206C428.416 406.414 435.141 396.188 435.45 384.808C435.759 373.427 429.599 362.852 419.547 357.506L405.461 383.993L418.089 411.206Z" stroke="black" stroke-opacity="0.6" stroke-width="2" stroke-miterlimit="10" stroke-linecap="round" stroke-linejoin="round"/>
<path d="M577.412 411.325C587.832 406.611 594.664 396.382 595.03 384.951C595.395 373.52 589.229 362.876 579.131 357.506L565.045 383.993L577.412 411.325Z" fill="black" fill-opacity="0.0980392"/>
<path d="M577.412 411.325C587.832 406.611 594.664 396.382 595.03 384.951C595.395 373.52 589.229 362.876 579.131 357.506L565.045 383.993L577.412 411.325Z" stroke="black" stroke-opacity="0.6" stroke-width="2" stroke-miterlimit="10" stroke-linecap="round" stroke-linejoin="round"/>
<path d="M552.325 356.823C542.03 361.643 535.344 371.866 535.055 383.229C534.765 394.592 540.923 405.143 550.959 410.48L565.045 383.993L552.325 356.823Z" fill="black" fill-opacity="0.0980392"/>
<path d="M552.325 356.823C542.03 361.643 535.344 371.866 535.055 383.229C534.765 394.592 540.923 405.143 550.959 410.48L565.045 383.993L552.325 356.823Z" stroke="black" stroke-opacity="0.6" stroke-width="2" stroke-miterlimit="10" stroke-linecap="round" stroke-linejoin="round"/>
<path d="M96.4492 64.8257H415.616" stroke="#616161" stroke-opacity="0.8" stroke-width="2.5" stroke-miterlimit="10" stroke-linecap="round" stroke-linejoin="round"/>
<path d="M96.4492 64.8257H1053.95" stroke="#616161" stroke-opacity="0.8" stroke-width="2.5" stroke-miterlimit="10" stroke-linecap="round" stroke-linejoin="round"/>
<path d="M189.298 490.382H-5" stroke="#616161" stroke-opacity="0.8" stroke-width="2.5" stroke-miterlimit="10" stroke-linecap="round" stroke-linejoin="round"/>
<path d="M508.465 490.382H-5" stroke="#616161" stroke-opacity="0.8" stroke-width="2.5" stroke-miterlimit="10" stroke-linecap="round" stroke-linejoin="round"/>
<path d="M827.633 490.382H-5" stroke="#616161" stroke-opacity="0.8" stroke-width="2.5" stroke-miterlimit="10" stroke-linecap="round" stroke-linejoin="round"/>
<path d="M415.617 64.8257L189.299 490.382" stroke="#FF0000" stroke-opacity="0.8" stroke-width="2.5" stroke-miterlimit="10" stroke-linecap="round" stroke-linejoin="round"/>
<path d="M508.465 490.382L734.783 64.8257" stroke="#616161" stroke-opacity="0.8" stroke-width="2.5" stroke-miterlimit="10" stroke-linecap="round" stroke-linejoin="round"/>
<path d="M827.633 490.382L1053.95 64.8257" stroke="#616161" stroke-opacity="0.8" stroke-width="2.5" stroke-miterlimit="10" stroke-linecap="round" stroke-linejoin="round"/>
<path d="M295.687 490.382H-5" stroke="#616161" stroke-opacity="0.8" stroke-width="2.5" stroke-miterlimit="10" stroke-linecap="round" stroke-linejoin="round"/>
<path d="M614.854 490.382H-5" stroke="#616161" stroke-opacity="0.8" stroke-width="2.5" stroke-miterlimit="10" stroke-linecap="round" stroke-linejoin="round"/>
<path d="M934.022 490.382H-5" stroke="#616161" stroke-opacity="0.8" stroke-width="2.5" stroke-miterlimit="10" stroke-linecap="round" stroke-linejoin="round"/>
<path d="M96.4492 64.8257L295.687 490.382" stroke="#616161" stroke-opacity="0.8" stroke-width="2.5" stroke-miterlimit="10" stroke-linecap="round" stroke-linejoin="round"/>
<path d="M415.617 64.8257L614.855 490.382" stroke="#FF0000" stroke-opacity="0.8" stroke-width="2.5" stroke-miterlimit="10" stroke-linecap="round" stroke-linejoin="round"/>
<path d="M734.783 64.8257L934.021 490.382" stroke="#616161" stroke-opacity="0.8" stroke-width="2.5" stroke-miterlimit="10" stroke-linecap="round" stroke-linejoin="round"/>
<path d="M256.033 64.8257H-5" stroke="#616161" stroke-opacity="0.8" stroke-width="2.5" stroke-miterlimit="10" stroke-linecap="round" stroke-linejoin="round"/>
<path d="M575.2 64.8257H-5" stroke="#616161" stroke-opacity="0.8" stroke-width="2.5" stroke-miterlimit="10" stroke-linecap="round" stroke-linejoin="round"/>
<path d="M894.367 64.8257H-5" stroke="#616161" stroke-opacity="0.8" stroke-width="2.5" stroke-miterlimit="10" stroke-linecap="round" stroke-linejoin="round"/>
<path d="M136.104 490.382H-5" stroke="#616161" stroke-opacity="0.8" stroke-width="2.5" stroke-miterlimit="10" stroke-linecap="round" stroke-linejoin="round"/>
<path d="M136.104 490.382H455.271" stroke="#616161" stroke-opacity="0.8" stroke-width="2.5" stroke-miterlimit="10" stroke-linecap="round" stroke-linejoin="round"/>
<path d="M136.104 490.382H774.438" stroke="#616161" stroke-opacity="0.8" stroke-width="2.5" stroke-miterlimit="10" stroke-linecap="round" stroke-linejoin="round"/>
<path d="M136.104 490.382H1093.61" stroke="#616161" stroke-opacity="0.8" stroke-width="2.5" stroke-miterlimit="10" stroke-linecap="round" stroke-linejoin="round"/>
<path d="M256.033 64.8257L455.271 490.382" stroke="#616161" stroke-opacity="0.8" stroke-width="2.5" stroke-miterlimit="10" stroke-linecap="round" stroke-linejoin="round"/>
<path d="M575.199 64.8257L774.437 490.382" stroke="#FF0000" stroke-opacity="0.8" stroke-width="2.5" stroke-miterlimit="10" stroke-linecap="round" stroke-linejoin="round"/>
<path d="M894.367 64.8257L1093.6 490.382" stroke="#616161" stroke-opacity="0.8" stroke-width="2.5" stroke-miterlimit="10" stroke-linecap="round" stroke-linejoin="round"/>
<path d="M29.7144 490.382H-5" stroke="#616161" stroke-opacity="0.8" stroke-width="2.5" stroke-miterlimit="10" stroke-linecap="round" stroke-linejoin="round"/>
<path d="M29.7148 490.382H348.882" stroke="#616161" stroke-opacity="0.8" stroke-width="2.5" stroke-miterlimit="10" stroke-linecap="round" stroke-linejoin="round"/>
<path d="M29.7148 490.382H668.049" stroke="#616161" stroke-opacity="0.8" stroke-width="2.5" stroke-miterlimit="10" stroke-linecap="round" stroke-linejoin="round"/>
<path d="M29.7148 490.382H987.217" stroke="#616161" stroke-opacity="0.8" stroke-width="2.5" stroke-miterlimit="10" stroke-linecap="round" stroke-linejoin="round"/>
<path d="M29.7148 490.382L256.033 64.8257" stroke="#616161" stroke-opacity="0.8" stroke-width="2.5" stroke-miterlimit="10" stroke-linecap="round" stroke-linejoin="round"/>
<path d="M575.199 64.8257L348.881 490.382" stroke="#FF0000" stroke-opacity="0.8" stroke-width="2.5" stroke-miterlimit="10" stroke-linecap="round" stroke-linejoin="round"/>
<path d="M668.049 490.382L894.367 64.8257" stroke="#616161" stroke-opacity="0.2" stroke-width="7" stroke-miterlimit="10" stroke-linecap="round" stroke-linejoin="round"/>
<path d="M668.049 490.382L894.367 64.8257" stroke="#616161" stroke-opacity="0.8" stroke-width="2.5" stroke-miterlimit="10" stroke-linecap="round" stroke-linejoin="round"/>
<path d="M451.45 316.259L434.25 298.047" stroke="#616161" stroke-opacity="0.8" stroke-width="2.5" stroke-miterlimit="10" stroke-linecap="round" stroke-linejoin="round"/>
<path d="M376.579 451.838L360.391 438.685" stroke="#616161" stroke-opacity="0.8" stroke-width="2.5" stroke-miterlimit="10" stroke-linecap="round" stroke-linejoin="round"/>
<path d="M529.358 166.515L514.182 150.326" stroke="#616161" stroke-opacity="0.8" stroke-width="2.5" stroke-miterlimit="10" stroke-linecap="round" stroke-linejoin="round"/>
<path d="M622.441 298.047L604.229 279.834" stroke="#616161" stroke-opacity="0.8" stroke-width="2.5" stroke-miterlimit="10" stroke-linecap="round" stroke-linejoin="round"/>
<path d="M699.337 449.814L679.102 437.673" stroke="#616161" stroke-opacity="0.8" stroke-width="2.5" stroke-miterlimit="10" stroke-linecap="round" stroke-linejoin="round"/>
<path d="M353.334 300.138L370.871 291.62" stroke="#616161" stroke-opacity="0.8" stroke-width="2.5" stroke-miterlimit="10" stroke-linecap="round" stroke-linejoin="round"/>
<path d="M358.348 303.646L373.38 297.133" stroke="#616161" stroke-opacity="0.8" stroke-width="2.5" stroke-miterlimit="10" stroke-linecap="round" stroke-linejoin="round"/>
<path d="M443.527 153.826L459.561 144.306" stroke="#616161" stroke-opacity="0.8" stroke-width="2.5" stroke-miterlimit="10" stroke-linecap="round" stroke-linejoin="round"/>
<path d="M449.293 157.085L463.323 152.075" stroke="#616161" stroke-opacity="0.8" stroke-width="2.5" stroke-miterlimit="10" stroke-linecap="round" stroke-linejoin="round"/>
<path d="M678.717 304.41L691.282 295.363" stroke="#616161" stroke-opacity="0.8" stroke-width="2.5" stroke-miterlimit="10" stroke-linecap="round" stroke-linejoin="round"/>
<path d="M681.998 309.711L697.077 302.172" stroke="#616161" stroke-opacity="0.8" stroke-width="2.5" stroke-miterlimit="10" stroke-linecap="round" stroke-linejoin="round"/>
<path d="M516.885 300.222L531.292 287.816" stroke="#616161" stroke-opacity="0.8" stroke-width="2.5" stroke-miterlimit="10" stroke-linecap="round" stroke-linejoin="round"/>
<path d="M520.887 309.427L531.292 299.021" stroke="#616161" stroke-opacity="0.8" stroke-width="2.5" stroke-miterlimit="10" stroke-linecap="round" stroke-linejoin="round"/>
<path d="M419.617 64.8257C419.617 67.0348 417.826 68.8257 415.617 68.8257C413.408 68.8257 411.617 67.0348 411.617 64.8257C411.617 62.6165 413.408 60.8257 415.617 60.8257C417.826 60.8257 419.617 62.6165 419.617 64.8257Z" fill="#616161"/>
<path d="M419.617 64.8257C419.617 67.0348 417.826 68.8257 415.617 68.8257C413.408 68.8257 411.617 67.0348 411.617 64.8257C411.617 62.6165 413.408 60.8257 415.617 60.8257C417.826 60.8257 419.617 62.6165 419.617 64.8257Z" stroke="black" stroke-miterlimit="10" stroke-linecap="round" stroke-linejoin="round"/>
<path d="M579.199 64.8257C579.199 67.0348 577.408 68.8257 575.199 68.8257C572.99 68.8257 571.199 67.0348 571.199 64.8257C571.199 62.6165 572.99 60.8257 575.199 60.8257C577.408 60.8257 579.199 62.6165 579.199 64.8257Z" fill="#616161"/>
<path d="M579.199 64.8257C579.199 67.0348 577.408 68.8257 575.199 68.8257C572.99 68.8257 571.199 67.0348 571.199 64.8257C571.199 62.6165 572.99 60.8257 575.199 60.8257C577.408 60.8257 579.199 62.6165 579.199 64.8257Z" stroke="black" stroke-miterlimit="10" stroke-linecap="round" stroke-linejoin="round"/>
</g>
<defs>
<clipPath id="clip0_358_197">
<rect width="1105" height="576" fill="white"/>
</clipPath>
</defs>
</svg>
