<svg version="1.1" xmlns="http://www.w3.org/2000/svg" xmlns:xlink="http://www.w3.org/1999/xlink" width="1140" height="673"><defs><clipPath id="pCLRmuJDPNmT"><path fill="none" stroke="none" d=" M 0 0 L 1140 0 L 1140 673 L 0 673 L 0 0 Z"/></clipPath></defs><g transform="scale(1,1)" clip-path="url(#pCLRmuJDPNmT)"><g><rect fill="rgb(255,255,255)" stroke="none" x="0" y="0" width="1140" height="674" fill-opacity="1"/><path fill="rgb(0,0,0)" stroke="none" paint-order="stroke fill markers" d=" M 248.28575694785127 339.8346801709944 C 248.42953884967733 329.4464377640593 243.1883418528722 319.72328710540086 234.43140016533442 314.1329180816602 L 218.2886300638719 339.41949502381124 Z" fill-opacity="0.09803921568627451"/><path fill="none" stroke="rgb(0,0,0)" paint-order="fill stroke markers" d=" M 248.28575694785127 339.8346801709944 C 248.42953884967733 329.4464377640593 243.1883418528722 319.72328710540086 234.43140016533442 314.1329180816602 L 218.2886300638719 339.41949502381124 Z" stroke-opacity="0.6" stroke-linecap="round" stroke-linejoin="round" stroke-miterlimit="10" stroke-width="2"/><path fill="rgb(0,0,0)" stroke="none" paint-order="stroke fill markers" d=" M 776.5271415420775 347.1459796117449 C 776.3833596402515 357.53422201868 781.6245566370566 367.2573726773385 790.3814983245943 372.84774170107914 L 806.5242684260568 347.56116475892804 Z" fill-opacity="0.09803921568627451"/><path fill="none" stroke="rgb(0,0,0)" paint-order="fill stroke markers" d=" M 776.5271415420775 347.1459796117449 C 776.3833596402515 357.53422201868 781.6245566370566 367.2573726773385 790.3814983245943 372.84774170107914 L 806.5242684260568 347.56116475892804 Z" stroke-opacity="0.6" stroke-linecap="round" stroke-linejoin="round" stroke-miterlimit="10" stroke-width="2"/><path fill="rgb(0,0,0)" stroke="none" paint-order="stroke fill markers" d=" M 496.2285501171111 318.226213445133 C 487.74022080836096 323.66172256389405 482.54881776985445 332.9966014533719 482.409322360985 343.07514474418656 L 512.4064492449644 343.49032989136964 Z" fill-opacity="0.09803921568627451"/><path fill="none" stroke="rgb(0,0,0)" paint-order="fill stroke markers" d=" M 496.2285501171111 318.226213445133 C 487.74022080836096 323.66172256389405 482.54881776985445 332.9966014533719 482.409322360985 343.07514474418656 L 512.4064492449644 343.49032989136964 Z" stroke-opacity="0.6" stroke-linecap="round" stroke-linejoin="round" stroke-miterlimit="10" stroke-width="2"/><path fill="rgb(0,0,0)" stroke="none" paint-order="stroke fill markers" d=" M 501.6211831597289 326.6475855938786 C 495.9622969538955 330.2712583397193 492.5013615948911 336.4945109327045 492.40836465564485 343.2135397932476 L 512.4064492449644 343.49032989136964 Z" fill-opacity="0.09803921568627451"/><path fill="none" stroke="rgb(0,0,0)" paint-order="fill stroke markers" d=" M 501.6211831597289 326.6475855938786 C 495.9622969538955 330.2712583397193 492.5013615948911 336.4945109327045 492.40836465564485 343.2135397932476 L 512.4064492449644 343.49032989136964 Z" stroke-opacity="0.6" stroke-linecap="round" stroke-linejoin="round" stroke-miterlimit="10" stroke-width="2"/><path fill="rgb(0,0,0)" stroke="none" paint-order="stroke fill markers" d=" M 528.5843483728177 368.7544463376063 C 537.0726776815678 363.31893721884524 542.2640807200743 353.9840583293675 542.4035761289438 343.9055150385528 L 512.4064492449644 343.49032989136964 Z" fill-opacity="0.09803921568627451"/><path fill="none" stroke="rgb(0,0,0)" paint-order="fill stroke markers" d=" M 528.5843483728177 368.7544463376063 C 537.0726776815678 363.31893721884524 542.2640807200743 353.9840583293675 542.4035761289438 343.9055150385528 L 512.4064492449644 343.49032989136964 Z" stroke-opacity="0.6" stroke-linecap="round" stroke-linejoin="round" stroke-miterlimit="10" stroke-width="2"/><path fill="rgb(0,0,0)" stroke="none" paint-order="stroke fill markers" d=" M 523.1917153301999 360.33307418886073 C 528.8506015360333 356.70940144302006 532.3115368950376 350.48614885003485 532.4045338342839 343.76711998949173 L 512.4064492449644 343.49032989136964 Z" fill-opacity="0.09803921568627451"/><path fill="none" stroke="rgb(0,0,0)" paint-order="fill stroke markers" d=" M 523.1917153301999 360.33307418886073 C 528.8506015360333 356.70940144302006 532.3115368950376 350.48614885003485 532.4045338342839 343.76711998949173 L 512.4064492449644 343.49032989136964 Z" stroke-opacity="0.6" stroke-linecap="round" stroke-linejoin="round" stroke-miterlimit="10" stroke-width="2"/><path fill="none" stroke="rgb(97,97,97)" paint-order="fill stroke markers" d=" M 72.75628354866006 567.3862476070805 L 660.991921910845 575.5279173421973" stroke-opacity="0.8" stroke-linecap="round" stroke-linejoin="round" stroke-miterlimit="10" stroke-width="2.5"/><path fill="none" stroke="rgb(97,97,97)" paint-order="fill stroke markers" d=" M 660.991921910845 575.5279173421973 L 363.8209765790838 111.45274244054207" stroke-opacity="0.8" stroke-linecap="round" stroke-linejoin="round" stroke-miterlimit="10" stroke-width="2.5"/><path fill="none" stroke="rgb(97,97,97)" paint-order="fill stroke markers" d=" M 363.8209765790838 111.45274244054207 L 72.75628354866006 567.3862476070805" stroke-opacity="0.8" stroke-linecap="round" stroke-linejoin="round" stroke-miterlimit="10" stroke-width="2.5"/><path fill="none" stroke="rgb(255,0,0)" paint-order="fill stroke markers" d=" M 218.2886300638719 339.41949502381124 L 512.4064492449644 343.49032989136964" stroke-opacity="0.8" stroke-linecap="round" stroke-linejoin="round" stroke-miterlimit="10" stroke-width="2.5"/><path fill="none" stroke="rgb(97,97,97)" paint-order="fill stroke markers" d=" M 281.0291958228115 220.90118855525805 L 297.7282709972018 237.6002637296483" stroke-opacity="0.8" stroke-linecap="round" stroke-linejoin="round" stroke-miterlimit="10" stroke-width="2.5"/><path fill="none" stroke="rgb(97,97,97)" paint-order="fill stroke markers" d=" M 438.47761889563395 212.15405394010122 L 421.7785437212437 223.2867707230281" stroke-opacity="0.8" stroke-linecap="round" stroke-linejoin="round" stroke-miterlimit="10" stroke-width="2.5"/><path fill="none" stroke="rgb(97,97,97)" paint-order="fill stroke markers" d=" M 444.0439772870974 220.1059944993347 L 428.14009616863046 231.23871128226156" stroke-opacity="0.8" stroke-linecap="round" stroke-linejoin="round" stroke-miterlimit="10" stroke-width="2.5"/><path fill="none" stroke="rgb(97,97,97)" paint-order="fill stroke markers" d=" M 725.3038776447626 453.73630043748835 L 742.0029528191528 470.4353756118786" stroke-opacity="0.8" stroke-linecap="round" stroke-linejoin="round" stroke-miterlimit="10" stroke-width="2.5"/><path fill="none" stroke="rgb(97,97,97)" paint-order="fill stroke markers" d=" M 281.0291958228115 220.90118855525805 L 297.7282709972018 237.6002637296483" stroke-opacity="0.8" stroke-linecap="round" stroke-linejoin="round" stroke-miterlimit="10" stroke-width="2.5"/><path fill="none" stroke="rgb(97,97,97)" paint-order="fill stroke markers" d=" M 580.0221608499895 426.0612549834814 L 563.3230856755993 437.19397176640825" stroke-opacity="0.8" stroke-linecap="round" stroke-linejoin="round" stroke-miterlimit="10" stroke-width="2.5"/><path fill="none" stroke="rgb(97,97,97)" paint-order="fill stroke markers" d=" M 583.2029370736828 433.2180014867915 L 567.299055955216 444.35071826971836" stroke-opacity="0.8" stroke-linecap="round" stroke-linejoin="round" stroke-miterlimit="10" stroke-width="2.5"/><path fill="none" stroke="rgb(97,97,97)" paint-order="fill stroke markers" d=" M 660.991921910845 575.5279173421973 L 806.5242684260568 347.56116475892804" stroke-opacity="0.8" stroke-linecap="round" stroke-linejoin="round" stroke-miterlimit="10" stroke-width="2.5"/><path fill="none" stroke="rgb(255,0,0)" paint-order="fill stroke markers" d=" M 512.4064492449644 343.49032989136964 L 806.5242684260568 347.56116475892804" stroke-opacity="0.8" stroke-linecap="round" stroke-linejoin="round" stroke-miterlimit="10" stroke-width="2.5"/><path fill="none" stroke="rgb(97,97,97)" paint-order="fill stroke markers" d=" M 653.6077121066692 337.3860668988573 L 652.768640601125 356.2651757736031" stroke-opacity="0.8" stroke-linecap="round" stroke-linejoin="round" stroke-miterlimit="10" stroke-width="2.5"/><path fill="none" stroke="rgb(97,97,97)" paint-order="fill stroke markers" d=" M 661.9984271621119 338.64467415717365 L 660.3202841510233 357.5237830319195" stroke-opacity="0.8" stroke-linecap="round" stroke-linejoin="round" stroke-miterlimit="10" stroke-width="2.5"/><path fill="none" stroke="rgb(97,97,97)" paint-order="fill stroke markers" d=" M 668.7109992064659 338.64467415717365 L 668.7109992064659 358.7823902902359" stroke-opacity="0.8" stroke-linecap="round" stroke-linejoin="round" stroke-miterlimit="10" stroke-width="2.5"/><path fill="none" stroke="rgb(97,97,97)" paint-order="fill stroke markers" d=" M 326.9377477362638 330.02260458722924 L 326.09867623071955 348.90171346197513" stroke-opacity="0.8" stroke-linecap="round" stroke-linejoin="round" stroke-miterlimit="10" stroke-width="2.5"/><path fill="none" stroke="rgb(97,97,97)" paint-order="fill stroke markers" d=" M 335.32846279170644 331.28121184554567 L 333.6503197806179 350.16032072029157" stroke-opacity="0.8" stroke-linecap="round" stroke-linejoin="round" stroke-miterlimit="10" stroke-width="2.5"/><path fill="none" stroke="rgb(97,97,97)" paint-order="fill stroke markers" d=" M 342.04103483606053 331.28121184554567 L 342.04103483606053 351.41892797860794" stroke-opacity="0.8" stroke-linecap="round" stroke-linejoin="round" stroke-miterlimit="10" stroke-width="2.5"/><path fill="none" stroke="rgb(97,97,97)" paint-order="fill stroke markers" d=" M 136.30387764476257 446.73630043748835 L 153.00295281915282 463.43537561187867" stroke-opacity="0.8" stroke-linecap="round" stroke-linejoin="round" stroke-miterlimit="10" stroke-width="2.5"/><path fill="rgb(21,101,192)" stroke="none" paint-order="stroke fill markers" d=" M 77.75628354866006 567.3862476070805 C 77.75628354866006 570.1476713562345 75.51770729781403 572.3862476070805 72.75628354866006 572.3862476070805 C 69.9948597995061 572.3862476070805 67.75628354866006 570.1476713562345 67.75628354866006 567.3862476070805 C 67.75628354866006 564.6248238579265 69.9948597995061 562.3862476070805 72.75628354866006 562.3862476070805 C 75.51770729781403 562.3862476070805 77.75628354866006 564.6248238579265 77.75628354866006 567.3862476070805 Z" fill-opacity="1"/><path fill="none" stroke="rgb(0,0,0)" paint-order="fill stroke markers" d=" M 77.75628354866006 567.3862476070805 C 77.75628354866006 570.1476713562345 75.51770729781403 572.3862476070805 72.75628354866006 572.3862476070805 C 69.9948597995061 572.3862476070805 67.75628354866006 570.1476713562345 67.75628354866006 567.3862476070805 C 67.75628354866006 564.6248238579265 69.9948597995061 562.3862476070805 72.75628354866006 562.3862476070805 C 75.51770729781403 562.3862476070805 77.75628354866006 564.6248238579265 77.75628354866006 567.3862476070805 Z" stroke-opacity="1" stroke-linecap="round" stroke-linejoin="round" stroke-miterlimit="10"/><text fill="rgb(21,101,192)" stroke="none" font-family="geogebra-sans-serif, sans-serif" font-size="16px" font-style="normal" font-weight="normal" text-decoration="normal" x="77" y="557" text-anchor="start" dominant-baseline="alphabetic" fill-opacity="1">A</text><text fill="none" stroke="rgb(255,255,255)" font-family="geogebra-sans-serif, sans-serif" font-size="16px" font-style="normal" font-weight="normal" text-decoration="normal" x="77" y="557" text-anchor="start" dominant-baseline="alphabetic" stroke-opacity="1" stroke-linejoin="bevel" stroke-miterlimit="10" stroke-width="3">A</text><text fill="rgb(21,101,192)" stroke="none" font-family="geogebra-sans-serif, sans-serif" font-size="16px" font-style="normal" font-weight="normal" text-decoration="normal" x="77" y="557" text-anchor="start" dominant-baseline="alphabetic" fill-opacity="1">A</text><path fill="rgb(21,101,192)" stroke="none" paint-order="stroke fill markers" d=" M 665.991921910845 575.5279173421973 C 665.991921910845 578.2893410913513 663.753345659999 580.5279173421973 660.991921910845 580.5279173421973 C 658.230498161691 580.5279173421973 655.991921910845 578.2893410913513 655.991921910845 575.5279173421973 C 655.991921910845 572.7664935930433 658.230498161691 570.5279173421973 660.991921910845 570.5279173421973 C 663.753345659999 570.5279173421973 665.991921910845 572.7664935930433 665.991921910845 575.5279173421973 Z" fill-opacity="1"/><path fill="none" stroke="rgb(0,0,0)" paint-order="fill stroke markers" d=" M 665.991921910845 575.5279173421973 C 665.991921910845 578.2893410913513 663.753345659999 580.5279173421973 660.991921910845 580.5279173421973 C 658.230498161691 580.5279173421973 655.991921910845 578.2893410913513 655.991921910845 575.5279173421973 C 655.991921910845 572.7664935930433 658.230498161691 570.5279173421973 660.991921910845 570.5279173421973 C 663.753345659999 570.5279173421973 665.991921910845 572.7664935930433 665.991921910845 575.5279173421973 Z" stroke-opacity="1" stroke-linecap="round" stroke-linejoin="round" stroke-miterlimit="10"/><text fill="rgb(21,101,192)" stroke="none" font-family="geogebra-sans-serif, sans-serif" font-size="16px" font-style="normal" font-weight="normal" text-decoration="normal" x="665" y="566" text-anchor="start" dominant-baseline="alphabetic" fill-opacity="1">B</text><text fill="none" stroke="rgb(255,255,255)" font-family="geogebra-sans-serif, sans-serif" font-size="16px" font-style="normal" font-weight="normal" text-decoration="normal" x="665" y="566" text-anchor="start" dominant-baseline="alphabetic" stroke-opacity="1" stroke-linejoin="bevel" stroke-miterlimit="10" stroke-width="3">B</text><text fill="rgb(21,101,192)" stroke="none" font-family="geogebra-sans-serif, sans-serif" font-size="16px" font-style="normal" font-weight="normal" text-decoration="normal" x="665" y="566" text-anchor="start" dominant-baseline="alphabetic" fill-opacity="1">B</text><path fill="rgb(21,101,192)" stroke="none" paint-order="stroke fill markers" d=" M 368.8209765790838 111.45274244054207 C 368.8209765790838 114.21416618969603 366.5824003282377 116.45274244054207 363.8209765790838 116.45274244054207 C 361.0595528299298 116.45274244054207 358.8209765790838 114.21416618969603 358.8209765790838 111.45274244054207 C 358.8209765790838 108.6913186913881 361.0595528299298 106.45274244054207 363.8209765790838 106.45274244054207 C 366.5824003282377 106.45274244054207 368.8209765790838 108.6913186913881 368.8209765790838 111.45274244054207 Z" fill-opacity="1"/><path fill="none" stroke="rgb(0,0,0)" paint-order="fill stroke markers" d=" M 368.8209765790838 111.45274244054207 C 368.8209765790838 114.21416618969603 366.5824003282377 116.45274244054207 363.8209765790838 116.45274244054207 C 361.0595528299298 116.45274244054207 358.8209765790838 114.21416618969603 358.8209765790838 111.45274244054207 C 358.8209765790838 108.6913186913881 361.0595528299298 106.45274244054207 363.8209765790838 106.45274244054207 C 366.5824003282377 106.45274244054207 368.8209765790838 108.6913186913881 368.8209765790838 111.45274244054207 Z" stroke-opacity="1" stroke-linecap="round" stroke-linejoin="round" stroke-miterlimit="10"/><text fill="rgb(21,101,192)" stroke="none" font-family="geogebra-sans-serif, sans-serif" font-size="16px" font-style="normal" font-weight="normal" text-decoration="normal" x="368" y="101" text-anchor="start" dominant-baseline="alphabetic" fill-opacity="1">C</text><text fill="none" stroke="rgb(255,255,255)" font-family="geogebra-sans-serif, sans-serif" font-size="16px" font-style="normal" font-weight="normal" text-decoration="normal" x="368" y="101" text-anchor="start" dominant-baseline="alphabetic" stroke-opacity="1" stroke-linejoin="bevel" stroke-miterlimit="10" stroke-width="3">C</text><text fill="rgb(21,101,192)" stroke="none" font-family="geogebra-sans-serif, sans-serif" font-size="16px" font-style="normal" font-weight="normal" text-decoration="normal" x="368" y="101" text-anchor="start" dominant-baseline="alphabetic" fill-opacity="1">C</text><path fill="rgb(97,97,97)" stroke="none" paint-order="stroke fill markers" d=" M 222.2886300638719 339.41949502381124 C 222.2886300638719 341.6286340231344 220.49776906319505 343.41949502381124 218.2886300638719 343.41949502381124 C 216.0794910645487 343.41949502381124 214.2886300638719 341.6286340231344 214.2886300638719 339.41949502381124 C 214.2886300638719 337.2103560244881 216.0794910645487 335.41949502381124 218.2886300638719 335.41949502381124 C 220.49776906319505 335.41949502381124 222.2886300638719 337.2103560244881 222.2886300638719 339.41949502381124 Z" fill-opacity="1"/><path fill="none" stroke="rgb(0,0,0)" paint-order="fill stroke markers" d=" M 222.2886300638719 339.41949502381124 C 222.2886300638719 341.6286340231344 220.49776906319505 343.41949502381124 218.2886300638719 343.41949502381124 C 216.0794910645487 343.41949502381124 214.2886300638719 341.6286340231344 214.2886300638719 339.41949502381124 C 214.2886300638719 337.2103560244881 216.0794910645487 335.41949502381124 218.2886300638719 335.41949502381124 C 220.49776906319505 335.41949502381124 222.2886300638719 337.2103560244881 222.2886300638719 339.41949502381124 Z" stroke-opacity="1" stroke-linecap="round" stroke-linejoin="round" stroke-miterlimit="10"/><text fill="rgb(97,97,97)" stroke="none" font-family="geogebra-sans-serif, sans-serif" font-size="16px" font-style="normal" font-weight="normal" text-decoration="normal" x="222" y="331" text-anchor="start" dominant-baseline="alphabetic" fill-opacity="1">M</text><text fill="none" stroke="rgb(255,255,255)" font-family="geogebra-sans-serif, sans-serif" font-size="16px" font-style="normal" font-weight="normal" text-decoration="normal" x="222" y="331" text-anchor="start" dominant-baseline="alphabetic" stroke-opacity="1" stroke-linejoin="bevel" stroke-miterlimit="10" stroke-width="3">M</text><text fill="rgb(97,97,97)" stroke="none" font-family="geogebra-sans-serif, sans-serif" font-size="16px" font-style="normal" font-weight="normal" text-decoration="normal" x="222" y="331" text-anchor="start" dominant-baseline="alphabetic" fill-opacity="1">M</text><path fill="rgb(97,97,97)" stroke="none" paint-order="stroke fill markers" d=" M 516.4064492449644 343.49032989136964 C 516.4064492449644 345.6994688906928 514.6155882442876 347.49032989136964 512.4064492449644 347.49032989136964 C 510.19731024564123 347.49032989136964 508.4064492449644 345.6994688906928 508.4064492449644 343.49032989136964 C 508.4064492449644 341.2811908920465 510.19731024564123 339.49032989136964 512.4064492449644 339.49032989136964 C 514.6155882442876 339.49032989136964 516.4064492449644 341.2811908920465 516.4064492449644 343.49032989136964 Z" fill-opacity="1"/><path fill="none" stroke="rgb(0,0,0)" paint-order="fill stroke markers" d=" M 516.4064492449644 343.49032989136964 C 516.4064492449644 345.6994688906928 514.6155882442876 347.49032989136964 512.4064492449644 347.49032989136964 C 510.19731024564123 347.49032989136964 508.4064492449644 345.6994688906928 508.4064492449644 343.49032989136964 C 508.4064492449644 341.2811908920465 510.19731024564123 339.49032989136964 512.4064492449644 339.49032989136964 C 514.6155882442876 339.49032989136964 516.4064492449644 341.2811908920465 516.4064492449644 343.49032989136964 Z" stroke-opacity="1" stroke-linecap="round" stroke-linejoin="round" stroke-miterlimit="10"/><text fill="rgb(97,97,97)" stroke="none" font-family="geogebra-sans-serif, sans-serif" font-size="16px" font-style="normal" font-weight="normal" text-decoration="normal" x="516" y="335" text-anchor="start" dominant-baseline="alphabetic" fill-opacity="1">N</text><text fill="none" stroke="rgb(255,255,255)" font-family="geogebra-sans-serif, sans-serif" font-size="16px" font-style="normal" font-weight="normal" text-decoration="normal" x="516" y="335" text-anchor="start" dominant-baseline="alphabetic" stroke-opacity="1" stroke-linejoin="bevel" stroke-miterlimit="10" stroke-width="3">N</text><text fill="rgb(97,97,97)" stroke="none" font-family="geogebra-sans-serif, sans-serif" font-size="16px" font-style="normal" font-weight="normal" text-decoration="normal" x="516" y="335" text-anchor="start" dominant-baseline="alphabetic" fill-opacity="1">N</text><path fill="rgb(97,97,97)" stroke="none" paint-order="stroke fill markers" d=" M 810.5242684260568 347.56116475892804 C 810.5242684260568 349.7703037582512 808.7334074253799 351.56116475892804 806.5242684260568 351.56116475892804 C 804.3151294267336 351.56116475892804 802.5242684260568 349.7703037582512 802.5242684260568 347.56116475892804 C 802.5242684260568 345.3520257596049 804.3151294267336 343.56116475892804 806.5242684260568 343.56116475892804 C 808.7334074253799 343.56116475892804 810.5242684260568 345.3520257596049 810.5242684260568 347.56116475892804 Z" fill-opacity="1"/><path fill="none" stroke="rgb(0,0,0)" paint-order="fill stroke markers" d=" M 810.5242684260568 347.56116475892804 C 810.5242684260568 349.7703037582512 808.7334074253799 351.56116475892804 806.5242684260568 351.56116475892804 C 804.3151294267336 351.56116475892804 802.5242684260568 349.7703037582512 802.5242684260568 347.56116475892804 C 802.5242684260568 345.3520257596049 804.3151294267336 343.56116475892804 806.5242684260568 343.56116475892804 C 808.7334074253799 343.56116475892804 810.5242684260568 345.3520257596049 810.5242684260568 347.56116475892804 Z" stroke-opacity="1" stroke-linecap="round" stroke-linejoin="round" stroke-miterlimit="10"/><text fill="rgb(97,97,97)" stroke="none" font-family="geogebra-sans-serif, sans-serif" font-size="16px" font-style="normal" font-weight="normal" text-decoration="normal" x="811" y="340" text-anchor="start" dominant-baseline="alphabetic" fill-opacity="1">K</text><text fill="none" stroke="rgb(255,255,255)" font-family="geogebra-sans-serif, sans-serif" font-size="16px" font-style="normal" font-weight="normal" text-decoration="normal" x="811" y="340" text-anchor="start" dominant-baseline="alphabetic" stroke-opacity="1" stroke-linejoin="bevel" stroke-miterlimit="10" stroke-width="3">K</text><text fill="rgb(97,97,97)" stroke="none" font-family="geogebra-sans-serif, sans-serif" font-size="16px" font-style="normal" font-weight="normal" text-decoration="normal" x="811" y="340" text-anchor="start" dominant-baseline="alphabetic" fill-opacity="1">K</text></g></g></svg>