<svg version="1.1" xmlns="http://www.w3.org/2000/svg" xmlns:xlink="http://www.w3.org/1999/xlink" width="1140" height="673"><defs><clipPath id="ZRTaywqoEJrw"><path fill="none" stroke="none" d=" M 0 0 L 1140 0 L 1140 673 L 0 673 L 0 0 Z"/></clipPath></defs><g transform="scale(1,1)" clip-path="url(#ZRTaywqoEJrw)"><g><rect fill="rgb(255,255,255)" stroke="none" x="0" y="0" width="1140" height="674" fill-opacity="1"/><path fill="none" stroke="rgb(97,97,97)" paint-order="fill stroke markers" d=" M 263.70009366562994 418.41628254076943 L 617.3316304264579 423.6552682705595" stroke-opacity="0.8" stroke-linecap="round" stroke-linejoin="round" stroke-miterlimit="10" stroke-width="2.5"/><path fill="none" stroke="rgb(97,97,97)" paint-order="fill stroke markers" d=" M 617.3316304264579 423.6552682705595 L 377.6480332885634 142.0597852943444" stroke-opacity="0.8" stroke-linecap="round" stroke-linejoin="round" stroke-miterlimit="10" stroke-width="2.5"/><path fill="none" stroke="rgb(97,97,97)" paint-order="fill stroke markers" d=" M 263.70009366562994 418.41628254076943 L 377.6480332885634 142.0597852943444" stroke-opacity="0.8" stroke-linecap="round" stroke-linejoin="round" stroke-miterlimit="10" stroke-width="2.5"/><path fill="none" stroke="rgb(97,97,97)" paint-order="fill stroke markers" d=" M 377.6480332885634 142.0597852943444 L 440.5158620460439 421.0357754056645" stroke-opacity="0.8" stroke-linecap="round" stroke-linejoin="round" stroke-miterlimit="10" stroke-width="2.5"/><path fill="none" stroke="rgb(97,97,97)" paint-order="fill stroke markers" d=" M 349.9928966600644 409.742708831364 L 349.9928966600644 425.45201830476066" stroke-opacity="0.8" stroke-linecap="round" stroke-linejoin="round" stroke-miterlimit="10" stroke-width="2.5"/><path fill="none" stroke="rgb(97,97,97)" paint-order="fill stroke markers" d=" M 515.9651663137765 410.42572228672907 L 518.0142066798718 430.9161259476812" stroke-opacity="0.8" stroke-linecap="round" stroke-linejoin="round" stroke-miterlimit="10" stroke-width="2.5"/><path fill="rgb(21,101,192)" stroke="none" paint-order="stroke fill markers" d=" M 274.70009366562994 418.41628254076943 C 274.70009366562994 424.4914147889082 269.7752259137687 429.41628254076943 263.70009366562994 429.41628254076943 C 257.6249614174912 429.41628254076943 252.70009366562994 424.4914147889082 252.70009366562994 418.41628254076943 C 252.70009366562994 412.3411502926307 257.6249614174912 407.41628254076943 263.70009366562994 407.41628254076943 C 269.7752259137687 407.41628254076943 274.70009366562994 412.3411502926307 274.70009366562994 418.41628254076943 Z" fill-opacity="0.2"/><path fill="none" stroke="rgb(21,101,192)" paint-order="fill stroke markers" d=" M 274.70009366562994 418.41628254076943 C 274.70009366562994 424.4914147889082 269.7752259137687 429.41628254076943 263.70009366562994 429.41628254076943 C 257.6249614174912 429.41628254076943 252.70009366562994 424.4914147889082 252.70009366562994 418.41628254076943 C 252.70009366562994 412.3411502926307 257.6249614174912 407.41628254076943 263.70009366562994 407.41628254076943 C 269.7752259137687 407.41628254076943 274.70009366562994 412.3411502926307 274.70009366562994 418.41628254076943 Z" stroke-opacity="1" stroke-linecap="square" stroke-miterlimit="10" stroke-width="2"/><path fill="rgb(21,101,192)" stroke="none" paint-order="stroke fill markers" d=" M 268.70009366562994 418.41628254076943 C 268.70009366562994 421.1777062899234 266.4615174147839 423.41628254076943 263.70009366562994 423.41628254076943 C 260.938669916476 423.41628254076943 258.70009366562994 421.1777062899234 258.70009366562994 418.41628254076943 C 258.70009366562994 415.6548587916155 260.938669916476 413.41628254076943 263.70009366562994 413.41628254076943 C 266.4615174147839 413.41628254076943 268.70009366562994 415.6548587916155 268.70009366562994 418.41628254076943 Z" fill-opacity="1"/><path fill="none" stroke="rgb(0,0,0)" paint-order="fill stroke markers" d=" M 268.70009366562994 418.41628254076943 C 268.70009366562994 421.1777062899234 266.4615174147839 423.41628254076943 263.70009366562994 423.41628254076943 C 260.938669916476 423.41628254076943 258.70009366562994 421.1777062899234 258.70009366562994 418.41628254076943 C 258.70009366562994 415.6548587916155 260.938669916476 413.41628254076943 263.70009366562994 413.41628254076943 C 266.4615174147839 413.41628254076943 268.70009366562994 415.6548587916155 268.70009366562994 418.41628254076943 Z" stroke-opacity="1" stroke-linecap="round" stroke-linejoin="round" stroke-miterlimit="10"/><text fill="rgb(21,101,192)" stroke="none" font-family="geogebra-sans-serif, sans-serif" font-size="16px" font-style="normal" font-weight="normal" text-decoration="normal" x="268" y="408" text-anchor="start" dominant-baseline="alphabetic" fill-opacity="1">A</text><text fill="none" stroke="rgb(255,255,255)" font-family="geogebra-sans-serif, sans-serif" font-size="16px" font-style="normal" font-weight="normal" text-decoration="normal" x="268" y="408" text-anchor="start" dominant-baseline="alphabetic" stroke-opacity="1" stroke-linejoin="bevel" stroke-miterlimit="10" stroke-width="3">A</text><text fill="rgb(21,101,192)" stroke="none" font-family="geogebra-sans-serif, sans-serif" font-size="16px" font-style="normal" font-weight="normal" text-decoration="normal" x="268" y="408" text-anchor="start" dominant-baseline="alphabetic" fill-opacity="1">A</text><path fill="rgb(21,101,192)" stroke="none" paint-order="stroke fill markers" d=" M 622.3316304264579 423.6552682705595 C 622.3316304264579 426.4166920197134 620.0930541756119 428.6552682705595 617.3316304264579 428.6552682705595 C 614.5702066773039 428.6552682705595 612.3316304264579 426.4166920197134 612.3316304264579 423.6552682705595 C 612.3316304264579 420.8938445214055 614.5702066773039 418.6552682705595 617.3316304264579 418.6552682705595 C 620.0930541756119 418.6552682705595 622.3316304264579 420.8938445214055 622.3316304264579 423.6552682705595 Z" fill-opacity="1"/><path fill="none" stroke="rgb(0,0,0)" paint-order="fill stroke markers" d=" M 622.3316304264579 423.6552682705595 C 622.3316304264579 426.4166920197134 620.0930541756119 428.6552682705595 617.3316304264579 428.6552682705595 C 614.5702066773039 428.6552682705595 612.3316304264579 426.4166920197134 612.3316304264579 423.6552682705595 C 612.3316304264579 420.8938445214055 614.5702066773039 418.6552682705595 617.3316304264579 418.6552682705595 C 620.0930541756119 418.6552682705595 622.3316304264579 420.8938445214055 622.3316304264579 423.6552682705595 Z" stroke-opacity="1" stroke-linecap="round" stroke-linejoin="round" stroke-miterlimit="10"/><text fill="rgb(21,101,192)" stroke="none" font-family="geogebra-sans-serif, sans-serif" font-size="16px" font-style="normal" font-weight="normal" text-decoration="normal" x="621" y="414" text-anchor="start" dominant-baseline="alphabetic" fill-opacity="1">B</text><text fill="none" stroke="rgb(255,255,255)" font-family="geogebra-sans-serif, sans-serif" font-size="16px" font-style="normal" font-weight="normal" text-decoration="normal" x="621" y="414" text-anchor="start" dominant-baseline="alphabetic" stroke-opacity="1" stroke-linejoin="bevel" stroke-miterlimit="10" stroke-width="3">B</text><text fill="rgb(21,101,192)" stroke="none" font-family="geogebra-sans-serif, sans-serif" font-size="16px" font-style="normal" font-weight="normal" text-decoration="normal" x="621" y="414" text-anchor="start" dominant-baseline="alphabetic" fill-opacity="1">B</text><path fill="rgb(21,101,192)" stroke="none" paint-order="stroke fill markers" d=" M 382.6480332885634 142.0597852943444 C 382.6480332885634 144.82120904349838 380.40945703771735 147.0597852943444 377.6480332885634 147.0597852943444 C 374.88660953940945 147.0597852943444 372.6480332885634 144.82120904349838 372.6480332885634 142.0597852943444 C 372.6480332885634 139.29836154519043 374.88660953940945 137.0597852943444 377.6480332885634 137.0597852943444 C 380.40945703771735 137.0597852943444 382.6480332885634 139.29836154519043 382.6480332885634 142.0597852943444 Z" fill-opacity="1"/><path fill="none" stroke="rgb(0,0,0)" paint-order="fill stroke markers" d=" M 382.6480332885634 142.0597852943444 C 382.6480332885634 144.82120904349838 380.40945703771735 147.0597852943444 377.6480332885634 147.0597852943444 C 374.88660953940945 147.0597852943444 372.6480332885634 144.82120904349838 372.6480332885634 142.0597852943444 C 372.6480332885634 139.29836154519043 374.88660953940945 137.0597852943444 377.6480332885634 137.0597852943444 C 380.40945703771735 137.0597852943444 382.6480332885634 139.29836154519043 382.6480332885634 142.0597852943444 Z" stroke-opacity="1" stroke-linecap="round" stroke-linejoin="round" stroke-miterlimit="10"/><text fill="rgb(21,101,192)" stroke="none" font-family="geogebra-sans-serif, sans-serif" font-size="16px" font-style="normal" font-weight="normal" text-decoration="normal" x="382" y="132" text-anchor="start" dominant-baseline="alphabetic" fill-opacity="1">C</text><text fill="none" stroke="rgb(255,255,255)" font-family="geogebra-sans-serif, sans-serif" font-size="16px" font-style="normal" font-weight="normal" text-decoration="normal" x="382" y="132" text-anchor="start" dominant-baseline="alphabetic" stroke-opacity="1" stroke-linejoin="bevel" stroke-miterlimit="10" stroke-width="3">C</text><text fill="rgb(21,101,192)" stroke="none" font-family="geogebra-sans-serif, sans-serif" font-size="16px" font-style="normal" font-weight="normal" text-decoration="normal" x="382" y="132" text-anchor="start" dominant-baseline="alphabetic" fill-opacity="1">C</text><path fill="rgb(97,97,97)" stroke="none" paint-order="stroke fill markers" d=" M 444.5158620460439 421.0357754056645 C 444.5158620460439 423.24491440498764 442.72500104536704 425.0357754056645 440.5158620460439 425.0357754056645 C 438.3067230467207 425.0357754056645 436.5158620460439 423.24491440498764 436.5158620460439 421.0357754056645 C 436.5158620460439 418.8266364063413 438.3067230467207 417.0357754056645 440.5158620460439 417.0357754056645 C 442.72500104536704 417.0357754056645 444.5158620460439 418.8266364063413 444.5158620460439 421.0357754056645 Z" fill-opacity="1"/><path fill="none" stroke="rgb(0,0,0)" paint-order="fill stroke markers" d=" M 444.5158620460439 421.0357754056645 C 444.5158620460439 423.24491440498764 442.72500104536704 425.0357754056645 440.5158620460439 425.0357754056645 C 438.3067230467207 425.0357754056645 436.5158620460439 423.24491440498764 436.5158620460439 421.0357754056645 C 436.5158620460439 418.8266364063413 438.3067230467207 417.0357754056645 440.5158620460439 417.0357754056645 C 442.72500104536704 417.0357754056645 444.5158620460439 418.8266364063413 444.5158620460439 421.0357754056645 Z" stroke-opacity="1" stroke-linecap="round" stroke-linejoin="round" stroke-miterlimit="10"/><text fill="rgb(97,97,97)" stroke="none" font-family="geogebra-sans-serif, sans-serif" font-size="16px" font-style="normal" font-weight="normal" text-decoration="normal" x="445" y="413" text-anchor="start" dominant-baseline="alphabetic" fill-opacity="1">M</text><text fill="none" stroke="rgb(255,255,255)" font-family="geogebra-sans-serif, sans-serif" font-size="16px" font-style="normal" font-weight="normal" text-decoration="normal" x="445" y="413" text-anchor="start" dominant-baseline="alphabetic" stroke-opacity="1" stroke-linejoin="bevel" stroke-miterlimit="10" stroke-width="3">M</text><text fill="rgb(97,97,97)" stroke="none" font-family="geogebra-sans-serif, sans-serif" font-size="16px" font-style="normal" font-weight="normal" text-decoration="normal" x="445" y="413" text-anchor="start" dominant-baseline="alphabetic" fill-opacity="1">M</text></g></g></svg>