<svg width="639" height="422" viewBox="0 0 639 422" fill="none" xmlns="http://www.w3.org/2000/svg">
<g clip-path="url(#clip0_358_583)">
<path d="M639 0H0V422H639V0Z" fill="white"/>
<path d="M128.699 346.416L482.331 351.655" stroke="#616161" stroke-opacity="0.8" stroke-width="2.5" stroke-miterlimit="10" stroke-linecap="round" stroke-linejoin="round"/>
<path d="M482.332 351.655L242.648 70.0598" stroke="#616161" stroke-opacity="0.8" stroke-width="2.5" stroke-miterlimit="10" stroke-linecap="round" stroke-linejoin="round"/>
<path d="M128.699 346.416L242.647 70.0598" stroke="#616161" stroke-opacity="0.8" stroke-width="2.5" stroke-miterlimit="10" stroke-linecap="round" stroke-linejoin="round"/>
<path d="M242.648 70.0598L305.516 349.036" stroke="#616161" stroke-opacity="0.8" stroke-width="2.5" stroke-miterlimit="10" stroke-linecap="round" stroke-linejoin="round"/>
<path d="M214.992 337.743V353.452" stroke="#616161" stroke-opacity="0.8" stroke-width="2.5" stroke-miterlimit="10" stroke-linecap="round" stroke-linejoin="round"/>
<path d="M380.965 338.426L383.014 358.916" stroke="#616161" stroke-opacity="0.8" stroke-width="2.5" stroke-miterlimit="10" stroke-linecap="round" stroke-linejoin="round"/>
<path d="M139.699 346.416C139.699 352.491 134.774 357.416 128.699 357.416C122.624 357.416 117.699 352.491 117.699 346.416C117.699 340.341 122.624 335.416 128.699 335.416C134.774 335.416 139.699 340.341 139.699 346.416Z" fill="#1565C0" fill-opacity="0.2"/>
<path d="M139.699 346.416C139.699 352.491 134.774 357.416 128.699 357.416C122.624 357.416 117.699 352.491 117.699 346.416C117.699 340.341 122.624 335.416 128.699 335.416C134.774 335.416 139.699 340.341 139.699 346.416Z" stroke="#1565C0" stroke-width="2" stroke-miterlimit="10" stroke-linecap="square"/>
<path d="M133.699 346.416C133.699 349.178 131.461 351.416 128.699 351.416C125.938 351.416 123.699 349.178 123.699 346.416C123.699 343.655 125.938 341.416 128.699 341.416C131.461 341.416 133.699 343.655 133.699 346.416Z" fill="#1565C0"/>
<path d="M133.699 346.416C133.699 349.178 131.461 351.416 128.699 351.416C125.938 351.416 123.699 349.178 123.699 346.416C123.699 343.655 125.938 341.416 128.699 341.416C131.461 341.416 133.699 343.655 133.699 346.416Z" stroke="black" stroke-miterlimit="10" stroke-linecap="round" stroke-linejoin="round"/>
<path d="M134.886 335H133.409L137.682 323.364H139.136L143.409 335H141.932L138.455 325.205H138.364L134.886 335ZM135.432 330.455H141.386V331.705H135.432V330.455Z" fill="#1565C0"/>
<path d="M134.886 335V336.5L136.3 335.502L134.886 335ZM133.409 335L132.001 334.483L133.409 336.5V335ZM137.682 323.364V321.864L136.274 322.847L137.682 323.364ZM139.136 323.364L140.544 322.847L139.136 321.864V323.364ZM143.409 335V336.5L144.817 334.483L143.409 335ZM141.932 335L140.518 335.502L141.932 336.5V335ZM138.455 325.205L139.868 324.703L138.455 323.705V325.205ZM138.364 325.205V323.705L136.95 324.703L138.364 325.205ZM135.432 330.455V328.955L133.932 330.455H135.432ZM141.386 330.455H142.886L141.386 328.955V330.455ZM141.386 331.705V333.205L142.886 331.705H141.386ZM135.432 331.705H133.932L135.432 333.205V331.705ZM134.886 333.5H133.409V336.5H134.886V333.5ZM134.817 335.517L139.09 323.881L136.274 322.847L132.001 334.483L134.817 335.517ZM137.682 324.864H139.136V321.864H137.682V324.864ZM137.728 323.881L142.001 335.517L144.817 334.483L140.544 322.847L137.728 323.881ZM143.409 333.5H141.932V336.5H143.409V333.5ZM143.345 334.498L139.868 324.703L137.041 325.706L140.518 335.502L143.345 334.498ZM138.455 323.705H138.364V326.705H138.455V323.705ZM136.95 324.703L133.473 334.498L136.3 335.502L139.777 325.706L136.95 324.703ZM135.432 331.955H141.386V328.955H135.432V331.955ZM139.886 330.455V331.705H142.886V330.455H139.886ZM141.386 330.205H135.432V333.205H141.386V330.205ZM136.932 331.705V330.455H133.932V331.705H136.932Z" fill="white"/>
<path d="M134.886 335H133.409L137.682 323.364H139.136L143.409 335H141.932L138.455 325.205H138.364L134.886 335ZM135.432 330.455H141.386V331.705H135.432V330.455Z" fill="#1565C0"/>
<path d="M487.332 351.655C487.332 354.417 485.093 356.655 482.332 356.655C479.571 356.655 477.332 354.417 477.332 351.655C477.332 348.894 479.571 346.655 482.332 346.655C485.093 346.655 487.332 348.894 487.332 351.655Z" fill="#1565C0"/>
<path d="M487.332 351.655C487.332 354.417 485.093 356.655 482.332 356.655C479.571 356.655 477.332 354.417 477.332 351.655C477.332 348.894 479.571 346.655 482.332 346.655C485.093 346.655 487.332 348.894 487.332 351.655Z" stroke="black" stroke-miterlimit="10" stroke-linecap="round" stroke-linejoin="round"/>
<path d="M487.409 341V329.364H491.477C492.288 329.364 492.956 329.504 493.483 329.784C494.009 330.061 494.402 330.434 494.659 330.903C494.917 331.369 495.045 331.886 495.045 332.455C495.045 332.955 494.956 333.367 494.778 333.693C494.604 334.019 494.373 334.277 494.085 334.466C493.801 334.655 493.492 334.795 493.159 334.886V335C493.515 335.023 493.873 335.148 494.233 335.375C494.593 335.602 494.894 335.928 495.136 336.352C495.379 336.777 495.5 337.295 495.5 337.909C495.5 338.492 495.367 339.017 495.102 339.483C494.837 339.949 494.419 340.318 493.847 340.591C493.275 340.864 492.53 341 491.614 341H487.409ZM488.818 339.75H491.614C492.534 339.75 493.188 339.572 493.574 339.216C493.964 338.856 494.159 338.42 494.159 337.909C494.159 337.515 494.059 337.152 493.858 336.818C493.657 336.481 493.371 336.212 493 336.011C492.629 335.807 492.189 335.705 491.682 335.705H488.818V339.75ZM488.818 334.477H491.432C491.856 334.477 492.239 334.394 492.58 334.227C492.924 334.061 493.197 333.826 493.398 333.523C493.602 333.22 493.705 332.864 493.705 332.455C493.705 331.943 493.527 331.509 493.17 331.153C492.814 330.794 492.25 330.614 491.477 330.614H488.818V334.477Z" fill="#1565C0"/>
<path d="M487.409 341H485.909L487.409 342.5V341ZM487.409 329.364V327.864L485.909 329.364H487.409ZM493.483 329.784L492.778 331.108L492.786 331.112L493.483 329.784ZM494.659 330.903L493.344 331.625L493.346 331.629L494.659 330.903ZM494.778 333.693L493.462 332.974L493.456 332.986L494.778 333.693ZM494.085 334.466L493.261 333.213L493.253 333.218L494.085 334.466ZM493.159 334.886L492.764 333.439L491.659 334.886H493.159ZM493.159 335H491.659L493.064 336.497L493.159 335ZM494.233 335.375L493.432 336.643L493.432 336.643L494.233 335.375ZM495.102 339.483L496.406 340.225L496.406 340.225L495.102 339.483ZM493.847 340.591L493.201 339.237L493.201 339.237L493.847 340.591ZM488.818 339.75H487.318L488.818 341.25V339.75ZM493.574 339.216L494.59 340.319L494.591 340.319L493.574 339.216ZM493.858 336.818L492.569 337.586L492.573 337.592L493.858 336.818ZM493 336.011L492.276 337.325L492.286 337.331L493 336.011ZM488.818 335.705V334.205L487.318 335.705H488.818ZM488.818 334.477H487.318L488.818 335.977V334.477ZM492.58 334.227L491.927 332.877L491.921 332.88L492.58 334.227ZM493.398 333.523L492.154 332.683L492.147 332.694L493.398 333.523ZM493.17 331.153L492.104 332.208L492.11 332.214L493.17 331.153ZM488.818 330.614V329.114L487.318 330.614H488.818ZM488.909 341V329.364H485.909V341H488.909ZM487.409 330.864H491.477V327.864H487.409V330.864ZM491.477 330.864C492.126 330.864 492.532 330.977 492.778 331.108L494.188 328.46C493.381 328.03 492.45 327.864 491.477 327.864V330.864ZM492.786 331.112C493.081 331.267 493.243 331.442 493.344 331.625L495.974 330.182C495.56 329.426 494.938 328.854 494.18 328.456L492.786 331.112ZM493.346 331.629C493.473 331.858 493.545 332.123 493.545 332.455H496.545C496.545 331.65 496.36 330.881 495.972 330.178L493.346 331.629ZM493.545 332.455C493.545 332.787 493.485 332.932 493.462 332.974L496.095 334.413C496.428 333.803 496.545 333.122 496.545 332.455H493.545ZM493.456 332.986C493.391 333.107 493.325 333.171 493.261 333.213L494.91 335.719C495.421 335.382 495.818 334.931 496.101 334.401L493.456 332.986ZM493.253 333.218C493.105 333.317 492.944 333.39 492.764 333.439L493.554 336.334C494.041 336.201 494.497 335.994 494.917 335.714L493.253 333.218ZM491.659 334.886V335H494.659V334.886H491.659ZM493.064 336.497C493.125 336.501 493.244 336.524 493.432 336.643L495.034 334.107C494.503 333.771 493.905 333.545 493.255 333.503L493.064 336.497ZM493.432 336.643C493.555 336.721 493.695 336.854 493.834 337.096L496.439 335.608C496.093 335.003 495.63 334.483 495.034 334.107L493.432 336.643ZM493.834 337.096C493.918 337.243 494 337.491 494 337.909H497C497 337.1 496.84 336.31 496.439 335.608L493.834 337.096ZM494 337.909C494 338.256 493.924 338.521 493.799 338.741L496.406 340.225C496.811 339.513 497 338.729 497 337.909H494ZM493.799 338.741C493.711 338.895 493.548 339.072 493.201 339.237L494.492 341.945C495.289 341.565 495.963 341.003 496.406 340.225L493.799 338.741ZM493.201 339.237C492.9 339.38 492.399 339.5 491.614 339.5V342.5C492.661 342.5 493.649 342.347 494.492 341.945L493.201 339.237ZM491.614 339.5H487.409V342.5H491.614V339.5ZM488.818 341.25H491.614V338.25H488.818V341.25ZM491.614 341.25C492.652 341.25 493.782 341.064 494.59 340.319L492.557 338.113C492.585 338.088 492.559 338.126 492.4 338.169C492.238 338.213 491.985 338.25 491.614 338.25V341.25ZM494.591 340.319C495.276 339.687 495.659 338.857 495.659 337.909H492.659C492.659 337.969 492.649 337.995 492.644 338.006C492.638 338.019 492.619 338.056 492.557 338.113L494.591 340.319ZM495.659 337.909C495.659 337.246 495.486 336.614 495.143 336.044L492.573 337.592C492.631 337.689 492.659 337.784 492.659 337.909H495.659ZM495.147 336.051C494.797 335.464 494.304 335.011 493.714 334.692L492.286 337.331C492.438 337.413 492.517 337.499 492.569 337.586L495.147 336.051ZM493.724 334.698C493.091 334.349 492.393 334.205 491.682 334.205V337.205C491.986 337.205 492.167 337.265 492.276 337.325L493.724 334.698ZM491.682 334.205H488.818V337.205H491.682V334.205ZM487.318 335.705V339.75H490.318V335.705H487.318ZM488.818 335.977H491.432V332.977H488.818V335.977ZM491.432 335.977C492.057 335.977 492.669 335.853 493.238 335.575L491.921 332.88C491.808 332.935 491.655 332.977 491.432 332.977V335.977ZM493.232 335.578C493.806 335.3 494.291 334.891 494.648 334.351L492.147 332.694C492.103 332.761 492.042 332.821 491.927 332.877L493.232 335.578ZM494.641 334.362C495.032 333.782 495.205 333.126 495.205 332.455H492.205C492.205 332.601 492.172 332.657 492.154 332.684L494.641 334.362ZM495.205 332.455C495.205 331.552 494.873 330.735 494.231 330.093L492.11 332.214C492.18 332.284 492.205 332.334 492.205 332.455H495.205ZM494.237 330.098C493.481 329.334 492.443 329.114 491.477 329.114V332.114C492.057 332.114 492.148 332.253 492.104 332.208L494.237 330.098ZM491.477 329.114H488.818V332.114H491.477V329.114ZM487.318 330.614V334.477H490.318V330.614H487.318Z" fill="white"/>
<path d="M487.409 341V329.364H491.477C492.288 329.364 492.956 329.504 493.483 329.784C494.009 330.061 494.402 330.434 494.659 330.903C494.917 331.369 495.045 331.886 495.045 332.455C495.045 332.955 494.956 333.367 494.778 333.693C494.604 334.019 494.373 334.277 494.085 334.466C493.801 334.655 493.492 334.795 493.159 334.886V335C493.515 335.023 493.873 335.148 494.233 335.375C494.593 335.602 494.894 335.928 495.136 336.352C495.379 336.777 495.5 337.295 495.5 337.909C495.5 338.492 495.367 339.017 495.102 339.483C494.837 339.949 494.419 340.318 493.847 340.591C493.275 340.864 492.53 341 491.614 341H487.409ZM488.818 339.75H491.614C492.534 339.75 493.188 339.572 493.574 339.216C493.964 338.856 494.159 338.42 494.159 337.909C494.159 337.515 494.059 337.152 493.858 336.818C493.657 336.481 493.371 336.212 493 336.011C492.629 335.807 492.189 335.705 491.682 335.705H488.818V339.75ZM488.818 334.477H491.432C491.856 334.477 492.239 334.394 492.58 334.227C492.924 334.061 493.197 333.826 493.398 333.523C493.602 333.22 493.705 332.864 493.705 332.455C493.705 331.943 493.527 331.509 493.17 331.153C492.814 330.794 492.25 330.614 491.477 330.614H488.818V334.477Z" fill="#1565C0"/>
<path d="M247.648 70.0598C247.648 72.8212 245.41 75.0598 242.648 75.0598C239.887 75.0598 237.648 72.8212 237.648 70.0598C237.648 67.2984 239.887 65.0598 242.648 65.0598C245.41 65.0598 247.648 67.2984 247.648 70.0598Z" fill="#1565C0"/>
<path d="M247.648 70.0598C247.648 72.8212 245.41 75.0598 242.648 75.0598C239.887 75.0598 237.648 72.8212 237.648 70.0598C237.648 67.2984 239.887 65.0598 242.648 65.0598C245.41 65.0598 247.648 67.2984 247.648 70.0598Z" stroke="black" stroke-miterlimit="10" stroke-linecap="round" stroke-linejoin="round"/>
<path d="M257.773 51H256.364C256.28 50.5947 256.134 50.2386 255.926 49.9318C255.722 49.625 255.472 49.3674 255.176 49.1591C254.884 48.947 254.561 48.7879 254.205 48.6818C253.848 48.5758 253.477 48.5227 253.091 48.5227C252.386 48.5227 251.748 48.7008 251.176 49.0568C250.608 49.4129 250.155 49.9375 249.818 50.6307C249.485 51.3239 249.318 52.1742 249.318 53.1818C249.318 54.1894 249.485 55.0398 249.818 55.733C250.155 56.4261 250.608 56.9508 251.176 57.3068C251.748 57.6629 252.386 57.8409 253.091 57.8409C253.477 57.8409 253.848 57.7879 254.205 57.6818C254.561 57.5758 254.884 57.4186 255.176 57.2102C255.472 56.9981 255.722 56.7386 255.926 56.4318C256.134 56.1212 256.28 55.7652 256.364 55.3636H257.773C257.667 55.9583 257.473 56.4905 257.193 56.9602C256.913 57.4299 256.564 57.8295 256.148 58.1591C255.731 58.4848 255.263 58.733 254.744 58.9034C254.229 59.0739 253.678 59.1591 253.091 59.1591C252.098 59.1591 251.216 58.9167 250.443 58.4318C249.67 57.947 249.063 57.2576 248.619 56.3636C248.176 55.4697 247.955 54.4091 247.955 53.1818C247.955 51.9545 248.176 50.8939 248.619 50C249.063 49.1061 249.67 48.4167 250.443 47.9318C251.216 47.447 252.098 47.2045 253.091 47.2045C253.678 47.2045 254.229 47.2898 254.744 47.4602C255.263 47.6307 255.731 47.8807 256.148 48.2102C256.564 48.536 256.913 48.9337 257.193 49.4034C257.473 49.8693 257.667 50.4015 257.773 51Z" fill="#1565C0"/>
<path d="M257.773 51V52.5L259.25 50.7383L257.773 51ZM256.364 51L254.894 51.3021L256.364 52.5V51ZM255.926 49.9318L254.678 50.7639L254.685 50.7744L255.926 49.9318ZM255.176 49.1591L254.294 50.3722L254.312 50.385L255.176 49.1591ZM254.205 48.6818L253.776 50.1194L253.776 50.1194L254.205 48.6818ZM251.176 49.0568L250.383 47.7834L250.38 47.7858L251.176 49.0568ZM249.818 50.6307L248.469 49.9746L248.466 49.9806L249.818 50.6307ZM249.818 55.733L248.466 56.383L248.469 56.389L249.818 55.733ZM251.176 57.3068L250.38 58.5779L250.383 58.5802L251.176 57.3068ZM254.205 57.6818L253.776 56.2442L253.776 56.2442L254.205 57.6818ZM255.176 57.2102L256.048 58.4308L256.051 58.4287L255.176 57.2102ZM255.926 56.4318L254.68 55.5963L254.678 55.5998L255.926 56.4318ZM256.364 55.3636V53.8636L254.895 55.0588L256.364 55.3636ZM257.773 55.3636L259.249 55.627L257.773 53.8636V55.3636ZM257.193 56.9602L255.905 56.1915L255.905 56.1915L257.193 56.9602ZM256.148 58.1591L257.072 59.3408L257.078 59.3356L256.148 58.1591ZM254.744 58.9034L254.276 57.4783L254.273 57.4793L254.744 58.9034ZM250.443 58.4318L249.646 59.7024L249.646 59.7024L250.443 58.4318ZM248.619 56.3636L249.963 55.6974L249.963 55.6974L248.619 56.3636ZM248.619 50L247.275 49.3337L248.619 50ZM254.744 47.4602L254.273 48.8843L254.276 48.8853L254.744 47.4602ZM256.148 48.2102L255.217 49.3867L255.224 49.3919L256.148 48.2102ZM257.193 49.4034L255.905 50.1721L255.908 50.1767L257.193 49.4034ZM257.773 49.5H256.364V52.5H257.773V49.5ZM257.833 50.6979C257.714 50.1215 257.499 49.5773 257.167 49.0892L254.685 50.7744C254.77 50.9 254.846 51.0679 254.894 51.3021L257.833 50.6979ZM257.174 49.0998C256.869 48.6423 256.49 48.2502 256.041 47.9332L254.312 50.385C254.453 50.4846 254.574 50.6077 254.678 50.7639L257.174 49.0998ZM256.058 47.946C255.625 47.6308 255.147 47.3974 254.633 47.2442L253.776 50.1194C253.974 50.1784 254.144 50.2631 254.294 50.3722L256.058 47.946ZM254.633 47.2442C254.132 47.0952 253.616 47.0227 253.091 47.0227V50.0227C253.338 50.0227 253.565 50.0564 253.776 50.1194L254.633 47.2442ZM253.091 47.0227C252.12 47.0227 251.204 47.2723 250.383 47.7834L251.969 50.3302C252.292 50.1292 252.653 50.0227 253.091 50.0227V47.0227ZM250.38 47.7858C249.539 48.3123 248.91 49.0674 248.469 49.9746L251.167 51.2867C251.4 50.8076 251.677 50.5134 251.973 50.3279L250.38 47.7858ZM248.466 49.9806C248.01 50.9294 247.818 52.0161 247.818 53.1818H250.818C250.818 52.3324 250.96 51.7184 251.17 51.2807L248.466 49.9806ZM247.818 53.1818C247.818 54.3475 248.01 55.4343 248.466 56.383L251.17 55.0829C250.96 54.6453 250.818 54.0313 250.818 53.1818H247.818ZM248.469 56.389C248.91 57.2963 249.539 58.0513 250.38 58.5779L251.973 56.0358C251.677 55.8502 251.4 55.556 251.167 55.0769L248.469 56.389ZM250.383 58.5802C251.204 59.0913 252.12 59.3409 253.091 59.3409V56.3409C252.653 56.3409 252.292 56.2344 251.969 56.0334L250.383 58.5802ZM253.091 59.3409C253.616 59.3409 254.132 59.2685 254.633 59.1194L253.776 56.2442C253.565 56.3073 253.338 56.3409 253.091 56.3409V59.3409ZM254.633 59.1194C255.142 58.9678 255.617 58.739 256.048 58.4308L254.304 55.9896C254.152 56.0981 253.979 56.1837 253.776 56.2442L254.633 59.1194ZM256.051 58.4287C256.495 58.1098 256.871 57.7188 257.174 57.2639L254.678 55.5998C254.572 55.7585 254.448 55.8864 254.301 55.9917L256.051 58.4287ZM257.172 57.2674C257.498 56.781 257.713 56.2413 257.832 55.6685L254.895 55.0588C254.847 55.289 254.771 55.4614 254.68 55.5963L257.172 57.2674ZM256.364 56.8636H257.773V53.8636H256.364V56.8636ZM256.296 55.1003C256.218 55.5351 256.083 55.8929 255.905 56.1915L258.481 57.7289C258.864 57.0881 259.115 56.3816 259.249 55.627L256.296 55.1003ZM255.905 56.1915C255.715 56.5094 255.487 56.7695 255.217 56.9826L257.078 59.3356C257.642 58.8896 258.11 58.3504 258.481 57.7289L255.905 56.1915ZM255.224 56.9774C254.948 57.1928 254.636 57.3602 254.276 57.4783L255.212 60.3285C255.891 60.1057 256.514 59.7769 257.072 59.3408L255.224 56.9774ZM254.273 57.4793C253.922 57.5955 253.531 57.6591 253.091 57.6591V60.6591C253.825 60.6591 254.536 60.5522 255.216 60.3275L254.273 57.4793ZM253.091 57.6591C252.355 57.6591 251.753 57.4831 251.24 57.1612L249.646 59.7024C250.678 60.3503 251.842 60.6591 253.091 60.6591V57.6591ZM251.24 57.1612C250.724 56.8372 250.295 56.3673 249.963 55.6974L247.275 57.0299C247.83 58.1478 248.617 59.0568 249.646 59.7024L251.24 57.1612ZM249.963 55.6974C249.644 55.0527 249.455 54.2301 249.455 53.1818H246.455C246.455 54.5881 246.709 55.8867 247.275 57.0299L249.963 55.6974ZM249.455 53.1818C249.455 52.1335 249.644 51.3109 249.963 50.6663L247.275 49.3337C246.709 50.4769 246.455 51.7756 246.455 53.1818H249.455ZM249.963 50.6663C250.295 49.9963 250.724 49.5265 251.24 49.2024L249.646 46.6612C248.617 47.3069 247.83 48.2158 247.275 49.3337L249.963 50.6663ZM251.24 49.2024C251.753 48.8806 252.355 48.7045 253.091 48.7045V45.7045C251.842 45.7045 250.678 46.0134 249.646 46.6612L251.24 49.2024ZM253.091 48.7045C253.531 48.7045 253.922 48.7681 254.273 48.8843L255.216 46.0362C254.536 45.8114 253.825 45.7045 253.091 45.7045V48.7045ZM254.276 48.8853C254.632 49.0023 254.943 49.1697 255.217 49.3867L257.078 47.0337C256.519 46.5917 255.894 46.259 255.212 46.0351L254.276 48.8853ZM255.224 49.3919C255.49 49.5998 255.716 49.8558 255.905 50.1721L258.481 48.6347C258.109 48.0116 257.639 47.4722 257.072 47.0285L255.224 49.3919ZM255.908 50.1767C256.083 50.4678 256.218 50.8229 256.296 51.2617L259.25 50.7383C259.115 49.9802 258.864 49.2708 258.478 48.6301L255.908 50.1767Z" fill="white"/>
<path d="M257.773 51H256.364C256.28 50.5947 256.134 50.2386 255.926 49.9318C255.722 49.625 255.472 49.3674 255.176 49.1591C254.884 48.947 254.561 48.7879 254.205 48.6818C253.848 48.5758 253.477 48.5227 253.091 48.5227C252.386 48.5227 251.748 48.7008 251.176 49.0568C250.608 49.4129 250.155 49.9375 249.818 50.6307C249.485 51.3239 249.318 52.1742 249.318 53.1818C249.318 54.1894 249.485 55.0398 249.818 55.733C250.155 56.4261 250.608 56.9508 251.176 57.3068C251.748 57.6629 252.386 57.8409 253.091 57.8409C253.477 57.8409 253.848 57.7879 254.205 57.6818C254.561 57.5758 254.884 57.4186 255.176 57.2102C255.472 56.9981 255.722 56.7386 255.926 56.4318C256.134 56.1212 256.28 55.7652 256.364 55.3636H257.773C257.667 55.9583 257.473 56.4905 257.193 56.9602C256.913 57.4299 256.564 57.8295 256.148 58.1591C255.731 58.4848 255.263 58.733 254.744 58.9034C254.229 59.0739 253.678 59.1591 253.091 59.1591C252.098 59.1591 251.216 58.9167 250.443 58.4318C249.67 57.947 249.063 57.2576 248.619 56.3636C248.176 55.4697 247.955 54.4091 247.955 53.1818C247.955 51.9545 248.176 50.8939 248.619 50C249.063 49.1061 249.67 48.4167 250.443 47.9318C251.216 47.447 252.098 47.2045 253.091 47.2045C253.678 47.2045 254.229 47.2898 254.744 47.4602C255.263 47.6307 255.731 47.8807 256.148 48.2102C256.564 48.536 256.913 48.9337 257.193 49.4034C257.473 49.8693 257.667 50.4015 257.773 51Z" fill="#1565C0"/>
<path d="M309.516 349.036C309.516 351.245 307.725 353.036 305.516 353.036C303.306 353.036 301.516 351.245 301.516 349.036C301.516 346.827 303.306 345.036 305.516 345.036C307.725 345.036 309.516 346.827 309.516 349.036Z" fill="#616161"/>
<path d="M309.516 349.036C309.516 351.245 307.725 353.036 305.516 353.036C303.306 353.036 301.516 351.245 301.516 349.036C301.516 346.827 303.306 345.036 305.516 345.036C307.725 345.036 309.516 346.827 309.516 349.036Z" stroke="black" stroke-miterlimit="10" stroke-linecap="round" stroke-linejoin="round"/>
<path d="M311.409 328.364H313.091L317.045 338.023H317.182L321.136 328.364H322.818V340H321.5V331.159H321.386L317.75 340H316.477L312.841 331.159H312.727V340H311.409V328.364Z" fill="#616161"/>
<path d="M311.409 328.364V326.864L309.909 328.364H311.409ZM313.091 328.364L314.479 327.795L313.091 326.864V328.364ZM317.045 338.023L315.657 338.591L317.045 339.523V338.023ZM317.182 338.023V339.523L318.57 338.591L317.182 338.023ZM321.136 328.364V326.864L319.748 327.795L321.136 328.364ZM322.818 328.364H324.318L322.818 326.864V328.364ZM322.818 340V341.5L324.318 340H322.818ZM321.5 340H320L321.5 341.5V340ZM321.5 331.159H323L321.5 329.659V331.159ZM321.386 331.159V329.659L319.999 330.589L321.386 331.159ZM317.75 340V341.5L319.137 340.571L317.75 340ZM316.477 340L315.09 340.571L316.477 341.5V340ZM312.841 331.159L314.228 330.589L312.841 329.659V331.159ZM312.727 331.159V329.659L311.227 331.159H312.727ZM312.727 340V341.5L314.227 340H312.727ZM311.409 340H309.909L311.409 341.5V340ZM311.409 329.864H313.091V326.864H311.409V329.864ZM311.703 328.932L315.657 338.591L318.434 337.454L314.479 327.795L311.703 328.932ZM317.045 339.523H317.182V336.523H317.045V339.523ZM318.57 338.591L322.525 328.932L319.748 327.795L315.794 337.454L318.57 338.591ZM321.136 329.864H322.818V326.864H321.136V329.864ZM321.318 328.364V340H324.318V328.364H321.318ZM322.818 338.5H321.5V341.5H322.818V338.5ZM323 340V331.159H320V340H323ZM321.5 329.659H321.386V332.659H321.5V329.659ZM319.999 330.589L316.363 339.429L319.137 340.571L322.774 331.73L319.999 330.589ZM317.75 338.5H316.477V341.5H317.75V338.5ZM317.865 339.429L314.228 330.589L311.454 331.73L315.09 340.571L317.865 339.429ZM312.841 329.659H312.727V332.659H312.841V329.659ZM311.227 331.159V340H314.227V331.159H311.227ZM312.727 338.5H311.409V341.5H312.727V338.5ZM312.909 340V328.364H309.909V340H312.909Z" fill="white"/>
<path d="M311.409 328.364H313.091L317.045 338.023H317.182L321.136 328.364H322.818V340H321.5V331.159H321.386L317.75 340H316.477L312.841 331.159H312.727V340H311.409V328.364Z" fill="#616161"/>
</g>
<defs>
<clipPath id="clip0_358_583">
<rect width="639" height="422" fill="white"/>
</clipPath>
</defs>
</svg>
