<svg width="562" height="406" viewBox="0 0 562 406" fill="none" xmlns="http://www.w3.org/2000/svg">
<g clip-path="url(#clip0_358_683)">
<path d="M562 -17H0V406H562V-17Z" fill="white"/>
<path d="M60.9004 374.605L517.998 381.377" stroke="#616161" stroke-opacity="0.8" stroke-width="2.5" stroke-miterlimit="10" stroke-linecap="round" stroke-linejoin="round"/>
<path d="M517.998 381.377L208.188 17.3925" stroke="#616161" stroke-opacity="0.8" stroke-width="2.5" stroke-miterlimit="10" stroke-linecap="round" stroke-linejoin="round"/>
<path d="M60.9004 374.605L208.187 17.3925" stroke="#616161" stroke-opacity="0.8" stroke-width="2.5" stroke-miterlimit="10" stroke-linecap="round" stroke-linejoin="round"/>
<path d="M60.9004 374.605L363.092 199.385" stroke="#FF0000" stroke-opacity="0.8" stroke-width="2.5" stroke-miterlimit="10" stroke-linecap="round" stroke-linejoin="round"/>
<path d="M517.999 381.377L134.545 195.999" stroke="#FF0000" stroke-opacity="0.8" stroke-width="2.5" stroke-miterlimit="10" stroke-linecap="round" stroke-linejoin="round"/>
<path d="M134.545 195.999L363.093 199.385" stroke="#00CC00" stroke-opacity="0.8" stroke-width="2.5" stroke-miterlimit="10" stroke-linecap="round" stroke-linejoin="round"/>
<path d="M161.631 316.199L390.179 319.584" stroke="#00CC00" stroke-opacity="0.8" stroke-width="2.5" stroke-miterlimit="10" stroke-linecap="round" stroke-linejoin="round"/>
<path d="M134.545 195.999L161.632 316.199" stroke="#00CC00" stroke-opacity="0.8" stroke-width="2.5" stroke-miterlimit="10" stroke-linecap="round" stroke-linejoin="round"/>
<path d="M363.094 199.385L390.181 319.585" stroke="#00CC00" stroke-opacity="0.8" stroke-width="2.5" stroke-miterlimit="10" stroke-linecap="round" stroke-linejoin="round"/>
<path d="M127.942 348.173L115.303 332.207" stroke="#616161" stroke-opacity="0.8" stroke-width="2.5" stroke-miterlimit="10" stroke-linecap="round" stroke-linejoin="round"/>
<path d="M227.063 291.628L213.758 273.666" stroke="#616161" stroke-opacity="0.8" stroke-width="2.5" stroke-miterlimit="10" stroke-linecap="round" stroke-linejoin="round"/>
<path d="M326.849 278.988L318.201 292.958" stroke="#616161" stroke-opacity="0.8" stroke-width="2.5" stroke-miterlimit="10" stroke-linecap="round" stroke-linejoin="round"/>
<path d="M338.822 282.979L328.844 299.61" stroke="#616161" stroke-opacity="0.8" stroke-width="2.5" stroke-miterlimit="10" stroke-linecap="round" stroke-linejoin="round"/>
<path d="M429.296 325.555L418.652 344.847" stroke="#616161" stroke-opacity="0.8" stroke-width="2.5" stroke-miterlimit="10" stroke-linecap="round" stroke-linejoin="round"/>
<path d="M435.948 333.538L427.965 348.838" stroke="#616161" stroke-opacity="0.8" stroke-width="2.5" stroke-miterlimit="10" stroke-linecap="round" stroke-linejoin="round"/>
<path d="M234.381 186.52V203.816" stroke="#616161" stroke-opacity="0.8" stroke-width="2.5" stroke-miterlimit="10" stroke-linecap="round" stroke-linejoin="round"/>
<path d="M240.367 187.185V204.482" stroke="#616161" stroke-opacity="0.8" stroke-width="2.5" stroke-miterlimit="10" stroke-linecap="round" stroke-linejoin="round"/>
<path d="M247.889 309.508V326.804" stroke="#616161" stroke-opacity="0.8" stroke-width="2.5" stroke-miterlimit="10" stroke-linecap="round" stroke-linejoin="round"/>
<path d="M253.459 308.394V325.69" stroke="#616161" stroke-opacity="0.8" stroke-width="2.5" stroke-miterlimit="10" stroke-linecap="round" stroke-linejoin="round"/>
<path d="M259.029 310.065V327.361" stroke="#616161" stroke-opacity="0.8" stroke-width="2.5" stroke-miterlimit="10" stroke-linecap="round" stroke-linejoin="round"/>
<path d="M228.395 185.855V203.151" stroke="#616161" stroke-opacity="0.8" stroke-width="2.5" stroke-miterlimit="10" stroke-linecap="round" stroke-linejoin="round"/>
<path d="M109.562 283.338L91.7383 281.667" stroke="#616161" stroke-opacity="0.8" stroke-width="2.5" stroke-miterlimit="10" stroke-linecap="round" stroke-linejoin="round"/>
<path d="M91.7383 281.667L101.764 293.92" stroke="#616161" stroke-opacity="0.8" stroke-width="2.5" stroke-miterlimit="10" stroke-linecap="round" stroke-linejoin="round"/>
<path d="M184.198 100.644L164.703 101.201" stroke="#616161" stroke-opacity="0.8" stroke-width="2.5" stroke-miterlimit="10" stroke-linecap="round" stroke-linejoin="round"/>
<path d="M164.703 101.201L175.843 113.454" stroke="#616161" stroke-opacity="0.8" stroke-width="2.5" stroke-miterlimit="10" stroke-linecap="round" stroke-linejoin="round"/>
<path d="M290.028 99.5295L280.002 112.34" stroke="#616161" stroke-opacity="0.8" stroke-width="2.5" stroke-miterlimit="10" stroke-linecap="round" stroke-linejoin="round"/>
<path d="M298.94 108.441L280.002 112.34" stroke="#616161" stroke-opacity="0.8" stroke-width="2.5" stroke-miterlimit="10" stroke-linecap="round" stroke-linejoin="round"/>
<path d="M282.786 90.0607L269.418 98.9726" stroke="#616161" stroke-opacity="0.8" stroke-width="2.5" stroke-miterlimit="10" stroke-linecap="round" stroke-linejoin="round"/>
<path d="M421.478 251.589L406.439 259.944" stroke="#616161" stroke-opacity="0.8" stroke-width="2.5" stroke-miterlimit="10" stroke-linecap="round" stroke-linejoin="round"/>
<path d="M425.377 259.387L415.908 271.641" stroke="#616161" stroke-opacity="0.8" stroke-width="2.5" stroke-miterlimit="10" stroke-linecap="round" stroke-linejoin="round"/>
<path d="M415.908 271.641L432.061 272.755" stroke="#616161" stroke-opacity="0.8" stroke-width="2.5" stroke-miterlimit="10" stroke-linecap="round" stroke-linejoin="round"/>
<path d="M71.9004 374.605C71.9004 380.681 66.9755 385.605 60.9004 385.605C54.8253 385.605 49.9004 380.681 49.9004 374.605C49.9004 368.53 54.8253 363.605 60.9004 363.605C66.9755 363.605 71.9004 368.53 71.9004 374.605Z" fill="#1565C0" fill-opacity="0.2"/>
<path d="M71.9004 374.605C71.9004 380.681 66.9755 385.605 60.9004 385.605C54.8253 385.605 49.9004 380.681 49.9004 374.605C49.9004 368.53 54.8253 363.605 60.9004 363.605C66.9755 363.605 71.9004 368.53 71.9004 374.605Z" stroke="#1565C0" stroke-width="2" stroke-miterlimit="10" stroke-linecap="square"/>
<path d="M65.9004 374.605C65.9004 377.367 63.6618 379.605 60.9004 379.605C58.139 379.605 55.9004 377.367 55.9004 374.605C55.9004 371.844 58.139 369.605 60.9004 369.605C63.6618 369.605 65.9004 371.844 65.9004 374.605Z" fill="#1565C0"/>
<path d="M65.9004 374.605C65.9004 377.367 63.6618 379.605 60.9004 379.605C58.139 379.605 55.9004 377.367 55.9004 374.605C55.9004 371.844 58.139 369.605 60.9004 369.605C63.6618 369.605 65.9004 371.844 65.9004 374.605Z" stroke="black" stroke-miterlimit="10" stroke-linecap="round" stroke-linejoin="round"/>
<path d="M66.8864 364H65.4091L69.6818 352.364H71.1364L75.4091 364H73.9318L70.4545 354.205H70.3636L66.8864 364ZM67.4318 359.455H73.3864V360.705H67.4318V359.455Z" fill="#1565C0"/>
<path d="M66.8864 364V365.5L68.2999 364.502L66.8864 364ZM65.4091 364L64.001 363.483L65.4091 365.5V364ZM69.6818 352.364V350.864L68.2737 351.847L69.6818 352.364ZM71.1364 352.364L72.5444 351.847L71.1364 350.864V352.364ZM75.4091 364V365.5L76.8172 363.483L75.4091 364ZM73.9318 364L72.5182 364.502L73.9318 365.5V364ZM70.4545 354.205L71.8681 353.703L70.4545 352.705V354.205ZM70.3636 354.205V352.705L68.9501 353.703L70.3636 354.205ZM67.4318 359.455V357.955L65.9318 359.455H67.4318ZM73.3864 359.455H74.8864L73.3864 357.955V359.455ZM73.3864 360.705V362.205L74.8864 360.705H73.3864ZM67.4318 360.705H65.9318L67.4318 362.205V360.705ZM66.8864 362.5H65.4091V365.5H66.8864V362.5ZM66.8172 364.517L71.0899 352.881L68.2737 351.847L64.001 363.483L66.8172 364.517ZM69.6818 353.864H71.1364V350.864H69.6818V353.864ZM69.7283 352.881L74.001 364.517L76.8172 363.483L72.5444 351.847L69.7283 352.881ZM75.4091 362.5H73.9318V365.5H75.4091V362.5ZM75.3454 363.498L71.8681 353.703L69.041 354.706L72.5182 364.502L75.3454 363.498ZM70.4545 352.705H70.3636V355.705H70.4545V352.705ZM68.9501 353.703L65.4728 363.498L68.2999 364.502L71.7772 354.706L68.9501 353.703ZM67.4318 360.955H73.3864V357.955H67.4318V360.955ZM71.8864 359.455V360.705H74.8864V359.455H71.8864ZM73.3864 359.205H67.4318V362.205H73.3864V359.205ZM68.9318 360.705V359.455H65.9318V360.705H68.9318Z" fill="white"/>
<path d="M66.8864 364H65.4091L69.6818 352.364H71.1364L75.4091 364H73.9318L70.4545 354.205H70.3636L66.8864 364ZM67.4318 359.455H73.3864V360.705H67.4318V359.455Z" fill="#1565C0"/>
<path d="M522.998 381.377C522.998 384.139 520.759 386.377 517.998 386.377C515.237 386.377 512.998 384.139 512.998 381.377C512.998 378.616 515.237 376.377 517.998 376.377C520.759 376.377 522.998 378.616 522.998 381.377Z" fill="#1565C0"/>
<path d="M522.998 381.377C522.998 384.139 520.759 386.377 517.998 386.377C515.237 386.377 512.998 384.139 512.998 381.377C512.998 378.616 515.237 376.377 517.998 376.377C520.759 376.377 522.998 378.616 522.998 381.377Z" stroke="black" stroke-miterlimit="10" stroke-linecap="round" stroke-linejoin="round"/>
<path d="M523.409 370V358.364H527.477C528.288 358.364 528.956 358.504 529.483 358.784C530.009 359.061 530.402 359.434 530.659 359.903C530.917 360.369 531.045 360.886 531.045 361.455C531.045 361.955 530.956 362.367 530.778 362.693C530.604 363.019 530.373 363.277 530.085 363.466C529.801 363.655 529.492 363.795 529.159 363.886V364C529.515 364.023 529.873 364.148 530.233 364.375C530.593 364.602 530.894 364.928 531.136 365.352C531.379 365.777 531.5 366.295 531.5 366.909C531.5 367.492 531.367 368.017 531.102 368.483C530.837 368.949 530.419 369.318 529.847 369.591C529.275 369.864 528.53 370 527.614 370H523.409ZM524.818 368.75H527.614C528.534 368.75 529.188 368.572 529.574 368.216C529.964 367.856 530.159 367.42 530.159 366.909C530.159 366.515 530.059 366.152 529.858 365.818C529.657 365.481 529.371 365.212 529 365.011C528.629 364.807 528.189 364.705 527.682 364.705H524.818V368.75ZM524.818 363.477H527.432C527.856 363.477 528.239 363.394 528.58 363.227C528.924 363.061 529.197 362.826 529.398 362.523C529.602 362.22 529.705 361.864 529.705 361.455C529.705 360.943 529.527 360.509 529.17 360.153C528.814 359.794 528.25 359.614 527.477 359.614H524.818V363.477Z" fill="#1565C0"/>
<path d="M523.409 370H521.909L523.409 371.5V370ZM523.409 358.364V356.864L521.909 358.364H523.409ZM529.483 358.784L528.778 360.108L528.786 360.112L529.483 358.784ZM530.659 359.903L529.344 360.625L529.346 360.629L530.659 359.903ZM530.778 362.693L529.462 361.974L529.456 361.986L530.778 362.693ZM530.085 363.466L529.261 362.213L529.253 362.218L530.085 363.466ZM529.159 363.886L528.764 362.439L527.659 363.886H529.159ZM529.159 364H527.659L529.064 365.497L529.159 364ZM530.233 364.375L529.432 365.643L529.432 365.643L530.233 364.375ZM531.102 368.483L532.406 369.225L532.406 369.225L531.102 368.483ZM529.847 369.591L529.201 368.237L529.201 368.237L529.847 369.591ZM524.818 368.75H523.318L524.818 370.25V368.75ZM529.574 368.216L530.59 369.319L530.591 369.319L529.574 368.216ZM529.858 365.818L528.569 366.586L528.573 366.592L529.858 365.818ZM529 365.011L528.276 366.325L528.286 366.331L529 365.011ZM524.818 364.705V363.205L523.318 364.705H524.818ZM524.818 363.477H523.318L524.818 364.977V363.477ZM528.58 363.227L527.927 361.877L527.921 361.88L528.58 363.227ZM529.398 362.523L528.154 361.683L528.147 361.694L529.398 362.523ZM529.17 360.153L528.104 361.208L528.11 361.214L529.17 360.153ZM524.818 359.614V358.114L523.318 359.614H524.818ZM524.909 370V358.364H521.909V370H524.909ZM523.409 359.864H527.477V356.864H523.409V359.864ZM527.477 359.864C528.126 359.864 528.532 359.977 528.778 360.108L530.188 357.46C529.381 357.03 528.45 356.864 527.477 356.864V359.864ZM528.786 360.112C529.081 360.267 529.243 360.442 529.344 360.625L531.974 359.182C531.56 358.426 530.938 357.854 530.18 357.456L528.786 360.112ZM529.346 360.629C529.473 360.858 529.545 361.123 529.545 361.455H532.545C532.545 360.65 532.36 359.881 531.972 359.178L529.346 360.629ZM529.545 361.455C529.545 361.787 529.485 361.932 529.462 361.974L532.095 363.413C532.428 362.803 532.545 362.122 532.545 361.455H529.545ZM529.456 361.986C529.391 362.107 529.325 362.171 529.261 362.213L530.91 364.719C531.421 364.382 531.818 363.931 532.101 363.401L529.456 361.986ZM529.253 362.218C529.105 362.317 528.944 362.39 528.764 362.439L529.554 365.334C530.041 365.201 530.497 364.994 530.917 364.714L529.253 362.218ZM527.659 363.886V364H530.659V363.886H527.659ZM529.064 365.497C529.125 365.501 529.244 365.524 529.432 365.643L531.034 363.107C530.503 362.771 529.905 362.545 529.255 362.503L529.064 365.497ZM529.432 365.643C529.555 365.721 529.695 365.854 529.834 366.096L532.439 364.608C532.093 364.003 531.63 363.483 531.034 363.107L529.432 365.643ZM529.834 366.096C529.918 366.243 530 366.491 530 366.909H533C533 366.1 532.84 365.31 532.439 364.608L529.834 366.096ZM530 366.909C530 367.256 529.924 367.521 529.799 367.741L532.406 369.225C532.811 368.513 533 367.729 533 366.909H530ZM529.799 367.741C529.711 367.895 529.548 368.072 529.201 368.237L530.492 370.945C531.289 370.565 531.963 370.003 532.406 369.225L529.799 367.741ZM529.201 368.237C528.9 368.38 528.399 368.5 527.614 368.5V371.5C528.661 371.5 529.649 371.347 530.492 370.945L529.201 368.237ZM527.614 368.5H523.409V371.5H527.614V368.5ZM524.818 370.25H527.614V367.25H524.818V370.25ZM527.614 370.25C528.652 370.25 529.782 370.064 530.59 369.319L528.557 367.113C528.585 367.088 528.559 367.126 528.4 367.169C528.238 367.213 527.985 367.25 527.614 367.25V370.25ZM530.591 369.319C531.276 368.687 531.659 367.857 531.659 366.909H528.659C528.659 366.969 528.649 366.995 528.644 367.006C528.638 367.019 528.619 367.056 528.557 367.113L530.591 369.319ZM531.659 366.909C531.659 366.246 531.486 365.614 531.143 365.044L528.573 366.592C528.631 366.689 528.659 366.784 528.659 366.909H531.659ZM531.147 365.051C530.797 364.464 530.304 364.011 529.714 363.692L528.286 366.331C528.438 366.413 528.517 366.499 528.569 366.586L531.147 365.051ZM529.724 363.698C529.091 363.349 528.393 363.205 527.682 363.205V366.205C527.986 366.205 528.167 366.265 528.276 366.325L529.724 363.698ZM527.682 363.205H524.818V366.205H527.682V363.205ZM523.318 364.705V368.75H526.318V364.705H523.318ZM524.818 364.977H527.432V361.977H524.818V364.977ZM527.432 364.977C528.057 364.977 528.669 364.853 529.238 364.575L527.921 361.88C527.808 361.935 527.655 361.977 527.432 361.977V364.977ZM529.232 364.578C529.806 364.3 530.291 363.891 530.648 363.351L528.147 361.694C528.103 361.761 528.042 361.821 527.927 361.877L529.232 364.578ZM530.641 363.362C531.032 362.782 531.205 362.126 531.205 361.455H528.205C528.205 361.601 528.172 361.657 528.154 361.684L530.641 363.362ZM531.205 361.455C531.205 360.552 530.873 359.735 530.231 359.093L528.11 361.214C528.18 361.284 528.205 361.334 528.205 361.455H531.205ZM530.237 359.098C529.481 358.334 528.443 358.114 527.477 358.114V361.114C528.057 361.114 528.148 361.253 528.104 361.208L530.237 359.098ZM527.477 358.114H524.818V361.114H527.477V358.114ZM523.318 359.614V363.477H526.318V359.614H523.318Z" fill="white"/>
<path d="M523.409 370V358.364H527.477C528.288 358.364 528.956 358.504 529.483 358.784C530.009 359.061 530.402 359.434 530.659 359.903C530.917 360.369 531.045 360.886 531.045 361.455C531.045 361.955 530.956 362.367 530.778 362.693C530.604 363.019 530.373 363.277 530.085 363.466C529.801 363.655 529.492 363.795 529.159 363.886V364C529.515 364.023 529.873 364.148 530.233 364.375C530.593 364.602 530.894 364.928 531.136 365.352C531.379 365.777 531.5 366.295 531.5 366.909C531.5 367.492 531.367 368.017 531.102 368.483C530.837 368.949 530.419 369.318 529.847 369.591C529.275 369.864 528.53 370 527.614 370H523.409ZM524.818 368.75H527.614C528.534 368.75 529.188 368.572 529.574 368.216C529.964 367.856 530.159 367.42 530.159 366.909C530.159 366.515 530.059 366.152 529.858 365.818C529.657 365.481 529.371 365.212 529 365.011C528.629 364.807 528.189 364.705 527.682 364.705H524.818V368.75ZM524.818 363.477H527.432C527.856 363.477 528.239 363.394 528.58 363.227C528.924 363.061 529.197 362.826 529.398 362.523C529.602 362.22 529.705 361.864 529.705 361.455C529.705 360.943 529.527 360.509 529.17 360.153C528.814 359.794 528.25 359.614 527.477 359.614H524.818V363.477Z" fill="#1565C0"/>
<path d="M213.188 17.3925C213.188 20.1539 210.949 22.3925 208.188 22.3925C205.426 22.3925 203.188 20.1539 203.188 17.3925C203.188 14.631 205.426 12.3925 208.188 12.3925C210.949 12.3925 213.188 14.631 213.188 17.3925Z" fill="#1565C0"/>
<path d="M213.188 17.3925C213.188 20.1539 210.949 22.3925 208.188 22.3925C205.426 22.3925 203.188 20.1539 203.188 17.3925C203.188 14.631 205.426 12.3925 208.188 12.3925C210.949 12.3925 213.188 14.631 213.188 17.3925Z" stroke="black" stroke-miterlimit="10" stroke-linecap="round" stroke-linejoin="round"/>
<path d="M222.773 -2H221.364C221.28 -2.4053 221.134 -2.76136 220.926 -3.06818C220.722 -3.375 220.472 -3.63258 220.176 -3.84091C219.884 -4.05303 219.561 -4.21212 219.205 -4.31818C218.848 -4.42424 218.477 -4.47727 218.091 -4.47727C217.386 -4.47727 216.748 -4.29924 216.176 -3.94318C215.608 -3.58712 215.155 -3.0625 214.818 -2.36932C214.485 -1.67614 214.318 -0.825758 214.318 0.181818C214.318 1.18939 214.485 2.03977 214.818 2.73295C215.155 3.42614 215.608 3.95076 216.176 4.30682C216.748 4.66288 217.386 4.84091 218.091 4.84091C218.477 4.84091 218.848 4.78788 219.205 4.68182C219.561 4.57576 219.884 4.41856 220.176 4.21023C220.472 3.99811 220.722 3.73864 220.926 3.43182C221.134 3.12121 221.28 2.76515 221.364 2.36364H222.773C222.667 2.95833 222.473 3.49053 222.193 3.96023C221.913 4.42992 221.564 4.82955 221.148 5.15909C220.731 5.48485 220.263 5.73295 219.744 5.90341C219.229 6.07386 218.678 6.15909 218.091 6.15909C217.098 6.15909 216.216 5.91667 215.443 5.43182C214.67 4.94697 214.063 4.25758 213.619 3.36364C213.176 2.4697 212.955 1.40909 212.955 0.181818C212.955 -1.04545 213.176 -2.10606 213.619 -3C214.063 -3.89394 214.67 -4.58333 215.443 -5.06818C216.216 -5.55303 217.098 -5.79545 218.091 -5.79545C218.678 -5.79545 219.229 -5.71023 219.744 -5.53977C220.263 -5.36932 220.731 -5.11932 221.148 -4.78977C221.564 -4.46402 221.913 -4.06629 222.193 -3.59659C222.473 -3.13068 222.667 -2.59849 222.773 -2Z" fill="#1565C0"/>
<path d="M222.773 -2V-0.5L224.25 -2.26174L222.773 -2ZM221.364 -2L219.894 -1.69791L221.364 -0.5V-2ZM220.926 -3.06818L219.678 -2.2361L219.685 -2.22555L220.926 -3.06818ZM220.176 -3.84091L219.294 -2.6278L219.312 -2.61502L220.176 -3.84091ZM219.205 -4.31818L218.776 -2.8806L218.776 -2.8806L219.205 -4.31818ZM216.176 -3.94318L215.383 -5.2166L215.38 -5.21423L216.176 -3.94318ZM214.818 -2.36932L213.469 -3.02536L213.466 -3.01938L214.818 -2.36932ZM214.818 2.73295L213.466 3.38302L213.469 3.38899L214.818 2.73295ZM216.176 4.30682L215.38 5.57787L215.383 5.58023L216.176 4.30682ZM219.205 4.68182L218.776 3.24424L218.776 3.24424L219.205 4.68182ZM220.176 4.21023L221.048 5.43083L221.051 5.42871L220.176 4.21023ZM220.926 3.43182L219.68 2.59626L219.678 2.59977L220.926 3.43182ZM221.364 2.36364V0.863636L219.895 2.05881L221.364 2.36364ZM222.773 2.36364L224.249 2.627L222.773 0.863636V2.36364ZM222.193 3.96023L220.905 3.19154L220.905 3.19154L222.193 3.96023ZM221.148 5.15909L222.072 6.34082L222.078 6.33559L221.148 5.15909ZM219.744 5.90341L219.276 4.47831L219.273 4.47934L219.744 5.90341ZM215.443 5.43182L214.646 6.70241L214.646 6.70241L215.443 5.43182ZM213.619 3.36364L214.963 2.69738L214.963 2.69738L213.619 3.36364ZM213.619 -3L212.275 -3.66626L213.619 -3ZM219.744 -5.53977L219.273 -4.1157L219.276 -4.11468L219.744 -5.53977ZM221.148 -4.78977L220.217 -3.61325L220.224 -3.60806L221.148 -4.78977ZM222.193 -3.59659L220.905 -2.8279L220.908 -2.82331L222.193 -3.59659ZM222.773 -3.5H221.364V-0.5H222.773V-3.5ZM222.833 -2.30209C222.714 -2.87846 222.499 -3.4227 222.167 -3.91081L219.685 -2.22555C219.77 -2.10003 219.846 -1.93215 219.894 -1.69791L222.833 -2.30209ZM222.174 -3.90023C221.869 -4.35771 221.49 -4.74979 221.041 -5.0668L219.312 -2.61502C219.453 -2.51536 219.574 -2.39229 219.678 -2.23613L222.174 -3.90023ZM221.058 -5.05401C220.625 -5.36917 220.147 -5.60264 219.633 -5.75576L218.776 -2.8806C218.974 -2.8216 219.144 -2.73689 219.294 -2.6278L221.058 -5.05401ZM219.633 -5.75576C219.132 -5.90485 218.616 -5.97727 218.091 -5.97727V-2.97727C218.338 -2.97727 218.565 -2.94364 218.776 -2.8806L219.633 -5.75576ZM218.091 -5.97727C217.12 -5.97727 216.204 -5.72769 215.383 -5.2166L216.969 -2.66977C217.292 -2.87079 217.653 -2.97727 218.091 -2.97727V-5.97727ZM215.38 -5.21423C214.539 -4.68769 213.91 -3.93263 213.469 -3.02536L216.167 -1.71328C216.4 -2.19237 216.677 -2.48655 216.973 -2.67214L215.38 -5.21423ZM213.466 -3.01938C213.01 -2.07064 212.818 -0.983896 212.818 0.181818H215.818C215.818 -0.66762 215.96 -1.28163 216.17 -1.71926L213.466 -3.01938ZM212.818 0.181818C212.818 1.34753 213.01 2.43428 213.466 3.38301L216.17 2.0829C215.96 1.64527 215.818 1.03126 215.818 0.181818H212.818ZM213.469 3.38899C213.91 4.29626 214.539 5.05132 215.38 5.57786L216.973 3.03577C216.677 2.85019 216.4 2.55601 216.167 2.07692L213.469 3.38899ZM215.383 5.58023C216.204 6.09133 217.12 6.34091 218.091 6.34091V3.34091C217.653 3.34091 217.292 3.23443 216.969 3.0334L215.383 5.58023ZM218.091 6.34091C218.616 6.34091 219.132 6.26848 219.633 6.1194L218.776 3.24424C218.565 3.30727 218.338 3.34091 218.091 3.34091V6.34091ZM219.633 6.1194C220.142 5.96777 220.617 5.739 221.048 5.43083L219.304 2.98963C219.152 3.09812 218.979 3.18375 218.776 3.24424L219.633 6.1194ZM221.051 5.42871C221.495 5.10982 221.871 4.71879 222.174 4.26387L219.678 2.59977C219.572 2.75848 219.448 2.8864 219.301 2.99174L221.051 5.42871ZM222.172 4.26737C222.498 3.78104 222.713 3.24126 222.832 2.66846L219.895 2.05881C219.847 2.28904 219.771 2.46139 219.68 2.59627L222.172 4.26737ZM221.364 3.86364H222.773V0.863636H221.364V3.86364ZM221.296 2.10028C221.218 2.53511 221.083 2.89294 220.905 3.19154L223.481 4.72891C223.864 4.08812 224.115 3.38155 224.249 2.627L221.296 2.10028ZM220.905 3.19154C220.715 3.50942 220.487 3.76949 220.217 3.98259L222.078 6.33559C222.642 5.8896 223.11 5.35043 223.481 4.72891L220.905 3.19154ZM220.224 3.97738C219.948 4.19276 219.636 4.36022 219.276 4.47832L220.212 7.3285C220.891 7.10569 221.514 6.77693 222.072 6.3408L220.224 3.97738ZM219.273 4.47934C218.922 4.59554 218.531 4.65909 218.091 4.65909V7.65909C218.825 7.65909 219.536 7.55219 220.216 7.32748L219.273 4.47934ZM218.091 4.65909C217.355 4.65909 216.753 4.48306 216.24 4.16122L214.646 6.70241C215.678 7.35027 216.842 7.65909 218.091 7.65909V4.65909ZM216.24 4.16122C215.724 3.83716 215.295 3.36734 214.963 2.69738L212.275 4.0299C212.83 5.14781 213.617 6.05678 214.646 6.70241L216.24 4.16122ZM214.963 2.69738C214.644 2.0527 214.455 1.23013 214.455 0.181818H211.455C211.455 1.58805 211.709 2.8867 212.275 4.0299L214.963 2.69738ZM214.455 0.181818C214.455 -0.86649 214.644 -1.68906 214.963 -2.33374L212.275 -3.66626C211.709 -2.52306 211.455 -1.22442 211.455 0.181818H214.455ZM214.963 -2.33374C215.295 -3.0037 215.724 -3.47352 216.24 -3.79759L214.646 -6.33878C213.617 -5.69315 212.83 -4.78418 212.275 -3.66626L214.963 -2.33374ZM216.24 -3.79759C216.753 -4.11942 217.355 -4.29545 218.091 -4.29545V-7.29545C216.842 -7.29545 215.678 -6.98664 214.646 -6.33878L216.24 -3.79759ZM218.091 -4.29545C218.531 -4.29545 218.922 -4.2319 219.273 -4.1157L220.216 -6.96384C219.536 -7.18855 218.825 -7.29545 218.091 -7.29545V-4.29545ZM219.276 -4.11468C219.632 -3.99768 219.943 -3.83032 220.217 -3.61327L222.078 -5.96628C221.519 -6.40832 220.894 -6.74095 220.212 -6.96486L219.276 -4.11468ZM220.224 -3.60806C220.49 -3.40023 220.716 -3.14416 220.905 -2.82791L223.481 -4.36528C223.109 -4.98841 222.639 -5.5278 222.072 -5.97148L220.224 -3.60806ZM220.908 -2.82331C221.083 -2.5322 221.218 -2.17715 221.296 -1.73826L224.25 -2.26174C224.115 -3.01982 223.864 -3.72916 223.478 -4.36987L220.908 -2.82331Z" fill="white"/>
<path d="M222.773 -2H221.364C221.28 -2.4053 221.134 -2.76136 220.926 -3.06818C220.722 -3.375 220.472 -3.63258 220.176 -3.84091C219.884 -4.05303 219.561 -4.21212 219.205 -4.31818C218.848 -4.42424 218.477 -4.47727 218.091 -4.47727C217.386 -4.47727 216.748 -4.29924 216.176 -3.94318C215.608 -3.58712 215.155 -3.0625 214.818 -2.36932C214.485 -1.67614 214.318 -0.825758 214.318 0.181818C214.318 1.18939 214.485 2.03977 214.818 2.73295C215.155 3.42614 215.608 3.95076 216.176 4.30682C216.748 4.66288 217.386 4.84091 218.091 4.84091C218.477 4.84091 218.848 4.78788 219.205 4.68182C219.561 4.57576 219.884 4.41856 220.176 4.21023C220.472 3.99811 220.722 3.73864 220.926 3.43182C221.134 3.12121 221.28 2.76515 221.364 2.36364H222.773C222.667 2.95833 222.473 3.49053 222.193 3.96023C221.913 4.42992 221.564 4.82955 221.148 5.15909C220.731 5.48485 220.263 5.73295 219.744 5.90341C219.229 6.07386 218.678 6.15909 218.091 6.15909C217.098 6.15909 216.216 5.91667 215.443 5.43182C214.67 4.94697 214.063 4.25758 213.619 3.36364C213.176 2.4697 212.955 1.40909 212.955 0.181818C212.955 -1.04545 213.176 -2.10606 213.619 -3C214.063 -3.89394 214.67 -4.58333 215.443 -5.06818C216.216 -5.55303 217.098 -5.79545 218.091 -5.79545C218.678 -5.79545 219.229 -5.71023 219.744 -5.53977C220.263 -5.36932 220.731 -5.11932 221.148 -4.78977C221.564 -4.46402 221.913 -4.06629 222.193 -3.59659C222.473 -3.13068 222.667 -2.59849 222.773 -2Z" fill="#1565C0"/>
<path d="M367.094 199.385C367.094 201.594 365.303 203.385 363.094 203.385C360.885 203.385 359.094 201.594 359.094 199.385C359.094 197.176 360.885 195.385 363.094 195.385C365.303 195.385 367.094 197.176 367.094 199.385Z" fill="#616161"/>
<path d="M367.094 199.385C367.094 201.594 365.303 203.385 363.094 203.385C360.885 203.385 359.094 201.594 359.094 199.385C359.094 197.176 360.885 195.385 363.094 195.385C365.303 195.385 367.094 197.176 367.094 199.385Z" stroke="black" stroke-miterlimit="10" stroke-linecap="round" stroke-linejoin="round"/>
<path d="M368.886 190H367.409L371.682 178.364H373.136L377.409 190H375.932L372.455 180.205H372.364L368.886 190ZM369.432 185.455H375.386V186.705H369.432V185.455Z" fill="#616161"/>
<path d="M368.886 190V191.5L370.3 190.502L368.886 190ZM367.409 190L366.001 189.483L367.409 191.5V190ZM371.682 178.364V176.864L370.274 177.847L371.682 178.364ZM373.136 178.364L374.544 177.847L373.136 176.864V178.364ZM377.409 190V191.5L378.817 189.483L377.409 190ZM375.932 190L374.518 190.502L375.932 191.5V190ZM372.455 180.205L373.868 179.703L372.455 178.705V180.205ZM372.364 180.205V178.705L370.95 179.703L372.364 180.205ZM369.432 185.455V183.955L367.932 185.455H369.432ZM375.386 185.455H376.886L375.386 183.955V185.455ZM375.386 186.705V188.205L376.886 186.705H375.386ZM369.432 186.705H367.932L369.432 188.205V186.705ZM368.886 188.5H367.409V191.5H368.886V188.5ZM368.817 190.517L373.09 178.881L370.274 177.847L366.001 189.483L368.817 190.517ZM371.682 179.864H373.136V176.864H371.682V179.864ZM371.728 178.881L376.001 190.517L378.817 189.483L374.544 177.847L371.728 178.881ZM377.409 188.5H375.932V191.5H377.409V188.5ZM377.345 189.498L373.868 179.703L371.041 180.706L374.518 190.502L377.345 189.498ZM372.455 178.705H372.364V181.705H372.455V178.705ZM370.95 179.703L367.473 189.498L370.3 190.502L373.777 180.706L370.95 179.703ZM369.432 186.955H375.386V183.955H369.432V186.955ZM373.886 185.455V186.705H376.886V185.455H373.886ZM375.386 185.205H369.432V188.205H375.386V185.205ZM370.932 186.705V185.455H367.932V186.705H370.932Z" fill="white"/>
<path d="M368.886 190H367.409L371.682 178.364H373.136L377.409 190H375.932L372.455 180.205H372.364L368.886 190ZM369.432 185.455H375.386V186.705H369.432V185.455Z" fill="#616161"/>
<path d="M382.634 187.818V198H381.401V189.111H381.341L378.855 190.761V189.509L381.401 187.818H382.634Z" fill="#616161"/>
<path d="M382.634 187.818H384.134L382.634 186.318V187.818ZM382.634 198V199.5L384.134 198H382.634ZM381.401 198H379.901L381.401 199.5V198ZM381.401 189.111H382.901L381.401 187.611V189.111ZM381.341 189.111V187.611L380.511 187.861L381.341 189.111ZM378.855 190.761H377.355L379.685 192.011L378.855 190.761ZM378.855 189.509L378.025 188.259L377.355 189.509H378.855ZM381.401 187.818V186.318L380.571 186.569L381.401 187.818ZM381.134 187.818V198H384.134V187.818H381.134ZM382.634 196.5H381.401V199.5H382.634V196.5ZM382.901 198V189.111H379.901V198H382.901ZM381.401 187.611H381.341V190.611H381.401V187.611ZM380.511 187.861L378.025 189.512L379.685 192.011L382.171 190.36L380.511 187.861ZM380.355 190.761V189.509H377.355V190.761H380.355ZM379.685 190.758L382.23 189.068L380.571 186.569L378.025 188.259L379.685 190.758ZM381.401 189.318H382.634V186.318H381.401V189.318Z" fill="white"/>
<path d="M382.634 187.818V198H381.401V189.111H381.341L378.855 190.761V189.509L381.401 187.818H382.634Z" fill="#616161"/>
<path d="M138.545 195.999C138.545 198.208 136.754 199.999 134.545 199.999C132.336 199.999 130.545 198.208 130.545 195.999C130.545 193.79 132.336 191.999 134.545 191.999C136.754 191.999 138.545 193.79 138.545 195.999Z" fill="#616161"/>
<path d="M138.545 195.999C138.545 198.208 136.754 199.999 134.545 199.999C132.336 199.999 130.545 198.208 130.545 195.999C130.545 193.79 132.336 191.999 134.545 191.999C136.754 191.999 138.545 193.79 138.545 195.999Z" stroke="black" stroke-miterlimit="10" stroke-linecap="round" stroke-linejoin="round"/>
<path d="M140.409 187V175.364H144.477C145.288 175.364 145.956 175.504 146.483 175.784C147.009 176.061 147.402 176.434 147.659 176.903C147.917 177.369 148.045 177.886 148.045 178.455C148.045 178.955 147.956 179.367 147.778 179.693C147.604 180.019 147.373 180.277 147.085 180.466C146.801 180.655 146.492 180.795 146.159 180.886V181C146.515 181.023 146.873 181.148 147.233 181.375C147.593 181.602 147.894 181.928 148.136 182.352C148.379 182.777 148.5 183.295 148.5 183.909C148.5 184.492 148.367 185.017 148.102 185.483C147.837 185.949 147.419 186.318 146.847 186.591C146.275 186.864 145.53 187 144.614 187H140.409ZM141.818 185.75H144.614C145.534 185.75 146.188 185.572 146.574 185.216C146.964 184.856 147.159 184.42 147.159 183.909C147.159 183.515 147.059 183.152 146.858 182.818C146.657 182.481 146.371 182.212 146 182.011C145.629 181.807 145.189 181.705 144.682 181.705H141.818V185.75ZM141.818 180.477H144.432C144.856 180.477 145.239 180.394 145.58 180.227C145.924 180.061 146.197 179.826 146.398 179.523C146.602 179.22 146.705 178.864 146.705 178.455C146.705 177.943 146.527 177.509 146.17 177.153C145.814 176.794 145.25 176.614 144.477 176.614H141.818V180.477Z" fill="#616161"/>
<path d="M140.409 187H138.909L140.409 188.5V187ZM140.409 175.364V173.864L138.909 175.364H140.409ZM146.483 175.784L145.778 177.108L145.786 177.112L146.483 175.784ZM147.659 176.903L146.344 177.625L146.346 177.629L147.659 176.903ZM147.778 179.693L146.462 178.974L146.456 178.986L147.778 179.693ZM147.085 180.466L146.261 179.213L146.253 179.218L147.085 180.466ZM146.159 180.886L145.764 179.439L144.659 180.886H146.159ZM146.159 181H144.659L146.064 182.497L146.159 181ZM147.233 181.375L146.432 182.643L146.432 182.643L147.233 181.375ZM148.102 185.483L149.406 186.225L149.406 186.225L148.102 185.483ZM146.847 186.591L146.201 185.237L146.201 185.237L146.847 186.591ZM141.818 185.75H140.318L141.818 187.25V185.75ZM146.574 185.216L147.59 186.319L147.591 186.319L146.574 185.216ZM146.858 182.818L145.569 183.586L145.573 183.592L146.858 182.818ZM146 182.011L145.276 183.325L145.286 183.331L146 182.011ZM141.818 181.705V180.205L140.318 181.705H141.818ZM141.818 180.477H140.318L141.818 181.977V180.477ZM145.58 180.227L144.927 178.877L144.921 178.88L145.58 180.227ZM146.398 179.523L145.154 178.683L145.147 178.694L146.398 179.523ZM146.17 177.153L145.104 178.208L145.11 178.214L146.17 177.153ZM141.818 176.614V175.114L140.318 176.614H141.818ZM141.909 187V175.364H138.909V187H141.909ZM140.409 176.864H144.477V173.864H140.409V176.864ZM144.477 176.864C145.126 176.864 145.532 176.977 145.778 177.108L147.188 174.46C146.381 174.03 145.45 173.864 144.477 173.864V176.864ZM145.786 177.112C146.081 177.267 146.243 177.442 146.344 177.625L148.974 176.182C148.56 175.426 147.938 174.854 147.18 174.456L145.786 177.112ZM146.346 177.629C146.473 177.858 146.545 178.123 146.545 178.455H149.545C149.545 177.65 149.36 176.881 148.972 176.178L146.346 177.629ZM146.545 178.455C146.545 178.787 146.485 178.932 146.462 178.974L149.095 180.413C149.428 179.803 149.545 179.122 149.545 178.455H146.545ZM146.456 178.986C146.391 179.107 146.325 179.171 146.261 179.213L147.91 181.719C148.421 181.382 148.818 180.931 149.101 180.401L146.456 178.986ZM146.253 179.218C146.105 179.317 145.944 179.39 145.764 179.439L146.554 182.334C147.041 182.201 147.497 181.994 147.917 181.714L146.253 179.218ZM144.659 180.886V181H147.659V180.886H144.659ZM146.064 182.497C146.125 182.501 146.244 182.524 146.432 182.643L148.034 180.107C147.503 179.771 146.905 179.545 146.255 179.503L146.064 182.497ZM146.432 182.643C146.555 182.721 146.695 182.854 146.834 183.096L149.439 181.608C149.093 181.003 148.63 180.483 148.034 180.107L146.432 182.643ZM146.834 183.096C146.918 183.243 147 183.491 147 183.909H150C150 183.1 149.84 182.31 149.439 181.608L146.834 183.096ZM147 183.909C147 184.256 146.924 184.521 146.799 184.741L149.406 186.225C149.811 185.513 150 184.729 150 183.909H147ZM146.799 184.741C146.711 184.895 146.548 185.072 146.201 185.237L147.492 187.945C148.289 187.565 148.963 187.003 149.406 186.225L146.799 184.741ZM146.201 185.237C145.9 185.38 145.399 185.5 144.614 185.5V188.5C145.661 188.5 146.649 188.347 147.492 187.945L146.201 185.237ZM144.614 185.5H140.409V188.5H144.614V185.5ZM141.818 187.25H144.614V184.25H141.818V187.25ZM144.614 187.25C145.652 187.25 146.782 187.064 147.59 186.319L145.557 184.113C145.585 184.088 145.559 184.126 145.4 184.169C145.238 184.213 144.985 184.25 144.614 184.25V187.25ZM147.591 186.319C148.276 185.687 148.659 184.857 148.659 183.909H145.659C145.659 183.969 145.649 183.995 145.644 184.006C145.638 184.019 145.619 184.056 145.557 184.113L147.591 186.319ZM148.659 183.909C148.659 183.246 148.486 182.614 148.143 182.044L145.573 183.592C145.631 183.689 145.659 183.784 145.659 183.909H148.659ZM148.147 182.051C147.797 181.464 147.304 181.011 146.714 180.692L145.286 183.331C145.438 183.413 145.517 183.499 145.569 183.586L148.147 182.051ZM146.724 180.698C146.091 180.349 145.393 180.205 144.682 180.205V183.205C144.986 183.205 145.167 183.265 145.276 183.325L146.724 180.698ZM144.682 180.205H141.818V183.205H144.682V180.205ZM140.318 181.705V185.75H143.318V181.705H140.318ZM141.818 181.977H144.432V178.977H141.818V181.977ZM144.432 181.977C145.057 181.977 145.669 181.853 146.238 181.575L144.921 178.88C144.808 178.935 144.655 178.977 144.432 178.977V181.977ZM146.232 181.578C146.806 181.3 147.291 180.891 147.648 180.351L145.147 178.694C145.103 178.761 145.042 178.821 144.927 178.877L146.232 181.578ZM147.641 180.362C148.032 179.782 148.205 179.126 148.205 178.455H145.205C145.205 178.601 145.172 178.657 145.154 178.684L147.641 180.362ZM148.205 178.455C148.205 177.552 147.873 176.735 147.231 176.093L145.11 178.214C145.18 178.284 145.205 178.334 145.205 178.455H148.205ZM147.237 176.098C146.481 175.334 145.443 175.114 144.477 175.114V178.114C145.057 178.114 145.148 178.253 145.104 178.208L147.237 176.098ZM144.477 175.114H141.818V178.114H144.477V175.114ZM140.318 176.614V180.477H143.318V176.614H140.318Z" fill="white"/>
<path d="M140.409 187V175.364H144.477C145.288 175.364 145.956 175.504 146.483 175.784C147.009 176.061 147.402 176.434 147.659 176.903C147.917 177.369 148.045 177.886 148.045 178.455C148.045 178.955 147.956 179.367 147.778 179.693C147.604 180.019 147.373 180.277 147.085 180.466C146.801 180.655 146.492 180.795 146.159 180.886V181C146.515 181.023 146.873 181.148 147.233 181.375C147.593 181.602 147.894 181.928 148.136 182.352C148.379 182.777 148.5 183.295 148.5 183.909C148.5 184.492 148.367 185.017 148.102 185.483C147.837 185.949 147.419 186.318 146.847 186.591C146.275 186.864 145.53 187 144.614 187H140.409ZM141.818 185.75H144.614C145.534 185.75 146.188 185.572 146.574 185.216C146.964 184.856 147.159 184.42 147.159 183.909C147.159 183.515 147.059 183.152 146.858 182.818C146.657 182.481 146.371 182.212 146 182.011C145.629 181.807 145.189 181.705 144.682 181.705H141.818V185.75ZM141.818 180.477H144.432C144.856 180.477 145.239 180.394 145.58 180.227C145.924 180.061 146.197 179.826 146.398 179.523C146.602 179.22 146.705 178.864 146.705 178.455C146.705 177.943 146.527 177.509 146.17 177.153C145.814 176.794 145.25 176.614 144.477 176.614H141.818V180.477Z" fill="#616161"/>
<path d="M154.634 184.818V195H153.401V186.111H153.341L150.855 187.761V186.509L153.401 184.818H154.634Z" fill="#616161"/>
<path d="M154.634 184.818H156.134L154.634 183.318V184.818ZM154.634 195V196.5L156.134 195H154.634ZM153.401 195H151.901L153.401 196.5V195ZM153.401 186.111H154.901L153.401 184.611V186.111ZM153.341 186.111V184.611L152.511 184.861L153.341 186.111ZM150.855 187.761H149.355L151.685 189.011L150.855 187.761ZM150.855 186.509L150.025 185.259L149.355 186.509H150.855ZM153.401 184.818V183.318L152.571 183.569L153.401 184.818ZM153.134 184.818V195H156.134V184.818H153.134ZM154.634 193.5H153.401V196.5H154.634V193.5ZM154.901 195V186.111H151.901V195H154.901ZM153.401 184.611H153.341V187.611H153.401V184.611ZM152.511 184.861L150.025 186.512L151.685 189.011L154.171 187.36L152.511 184.861ZM152.355 187.761V186.509H149.355V187.761H152.355ZM151.685 187.758L154.23 186.068L152.571 183.569L150.025 185.259L151.685 187.758ZM153.401 186.318H154.634V183.318H153.401V186.318Z" fill="white"/>
<path d="M154.634 184.818V195H153.401V186.111H153.341L150.855 187.761V186.509L153.401 184.818H154.634Z" fill="#616161"/>
<path d="M266.361 257.792C266.361 260.001 264.57 261.792 262.361 261.792C260.152 261.792 258.361 260.001 258.361 257.792C258.361 255.583 260.152 253.792 262.361 253.792C264.57 253.792 266.361 255.583 266.361 257.792Z" fill="#616161"/>
<path d="M266.361 257.792C266.361 260.001 264.57 261.792 262.361 261.792C260.152 261.792 258.361 260.001 258.361 257.792C258.361 255.583 260.152 253.792 262.361 253.792C264.57 253.792 266.361 255.583 266.361 257.792Z" stroke="black" stroke-miterlimit="10" stroke-linecap="round" stroke-linejoin="round"/>
<path d="M277.227 243.182C277.227 244.409 277.006 245.47 276.562 246.364C276.119 247.258 275.511 247.947 274.739 248.432C273.966 248.917 273.083 249.159 272.091 249.159C271.098 249.159 270.216 248.917 269.443 248.432C268.67 247.947 268.063 247.258 267.619 246.364C267.176 245.47 266.955 244.409 266.955 243.182C266.955 241.955 267.176 240.894 267.619 240C268.063 239.106 268.67 238.417 269.443 237.932C270.216 237.447 271.098 237.205 272.091 237.205C273.083 237.205 273.966 237.447 274.739 237.932C275.511 238.417 276.119 239.106 276.562 240C277.006 240.894 277.227 241.955 277.227 243.182ZM275.864 243.182C275.864 242.174 275.695 241.324 275.358 240.631C275.025 239.938 274.572 239.413 274 239.057C273.432 238.701 272.795 238.523 272.091 238.523C271.386 238.523 270.748 238.701 270.176 239.057C269.608 239.413 269.155 239.938 268.818 240.631C268.485 241.324 268.318 242.174 268.318 243.182C268.318 244.189 268.485 245.04 268.818 245.733C269.155 246.426 269.608 246.951 270.176 247.307C270.748 247.663 271.386 247.841 272.091 247.841C272.795 247.841 273.432 247.663 274 247.307C274.572 246.951 275.025 246.426 275.358 245.733C275.695 245.04 275.864 244.189 275.864 243.182Z" fill="#616161"/>
<path d="M276.562 246.364L275.219 245.697L275.219 245.697L276.562 246.364ZM274.739 248.432L275.536 249.702L275.536 249.702L274.739 248.432ZM269.443 248.432L268.646 249.702L268.646 249.702L269.443 248.432ZM267.619 246.364L268.963 245.697L268.963 245.697L267.619 246.364ZM267.619 240L266.275 239.334L267.619 240ZM274.739 237.932L275.536 236.661L275.536 236.661L274.739 237.932ZM276.562 240L275.219 240.666L275.219 240.666L276.562 240ZM275.358 240.631L274.006 241.281L274.009 241.287L275.358 240.631ZM274 239.057L273.203 240.328L273.207 240.33L274 239.057ZM270.176 239.057L269.383 237.783L269.38 237.786L270.176 239.057ZM268.818 240.631L267.469 239.975L267.466 239.981L268.818 240.631ZM268.818 245.733L267.466 246.383L267.469 246.389L268.818 245.733ZM270.176 247.307L269.38 248.578L269.383 248.58L270.176 247.307ZM274 247.307L273.207 246.033L273.203 246.036L274 247.307ZM275.358 245.733L274.009 245.077L274.006 245.083L275.358 245.733ZM275.727 243.182C275.727 244.23 275.538 245.053 275.219 245.697L277.906 247.03C278.473 245.887 278.727 244.588 278.727 243.182H275.727ZM275.219 245.697C274.886 246.367 274.458 246.837 273.941 247.161L275.536 249.702C276.565 249.057 277.352 248.148 277.906 247.03L275.219 245.697ZM273.941 247.161C273.428 247.483 272.827 247.659 272.091 247.659V250.659C273.34 250.659 274.503 250.35 275.536 249.702L273.941 247.161ZM272.091 247.659C271.355 247.659 270.753 247.483 270.24 247.161L268.646 249.702C269.678 250.35 270.842 250.659 272.091 250.659V247.659ZM270.24 247.161C269.724 246.837 269.295 246.367 268.963 245.697L266.275 247.03C266.83 248.148 267.617 249.057 268.646 249.702L270.24 247.161ZM268.963 245.697C268.644 245.053 268.455 244.23 268.455 243.182H265.455C265.455 244.588 265.709 245.887 266.275 247.03L268.963 245.697ZM268.455 243.182C268.455 242.134 268.644 241.311 268.963 240.666L266.275 239.334C265.709 240.477 265.455 241.776 265.455 243.182H268.455ZM268.963 240.666C269.295 239.996 269.724 239.526 270.24 239.202L268.646 236.661C267.617 237.307 266.83 238.216 266.275 239.334L268.963 240.666ZM270.24 239.202C270.753 238.881 271.355 238.705 272.091 238.705V235.705C270.842 235.705 269.678 236.013 268.646 236.661L270.24 239.202ZM272.091 238.705C272.827 238.705 273.428 238.881 273.941 239.202L275.536 236.661C274.503 236.013 273.34 235.705 272.091 235.705V238.705ZM273.941 239.202C274.458 239.526 274.886 239.996 275.219 240.666L277.906 239.334C277.352 238.216 276.565 237.307 275.536 236.661L273.941 239.202ZM275.219 240.666C275.538 241.311 275.727 242.134 275.727 243.182H278.727C278.727 241.776 278.473 240.477 277.906 239.334L275.219 240.666ZM277.364 243.182C277.364 242.014 277.169 240.925 276.707 239.975L274.009 241.287C274.221 241.723 274.364 242.334 274.364 243.182H277.364ZM276.71 239.981C276.271 239.068 275.639 238.31 274.793 237.783L273.207 240.33C273.505 240.515 273.778 240.807 274.006 241.281L276.71 239.981ZM274.797 237.786C273.977 237.272 273.062 237.023 272.091 237.023V240.023C272.529 240.023 272.886 240.129 273.203 240.328L274.797 237.786ZM272.091 237.023C271.12 237.023 270.204 237.272 269.383 237.783L270.969 240.33C271.292 240.129 271.653 240.023 272.091 240.023V237.023ZM269.38 237.786C268.539 238.312 267.91 239.067 267.469 239.975L270.167 241.287C270.4 240.808 270.677 240.513 270.973 240.328L269.38 237.786ZM267.466 239.981C267.01 240.929 266.818 242.016 266.818 243.182H269.818C269.818 242.332 269.96 241.718 270.17 241.281L267.466 239.981ZM266.818 243.182C266.818 244.348 267.01 245.434 267.466 246.383L270.17 245.083C269.96 244.645 269.818 244.031 269.818 243.182H266.818ZM267.469 246.389C267.91 247.296 268.539 248.051 269.38 248.578L270.973 246.036C270.677 245.85 270.4 245.556 270.167 245.077L267.469 246.389ZM269.383 248.58C270.204 249.091 271.12 249.341 272.091 249.341V246.341C271.653 246.341 271.292 246.234 270.969 246.033L269.383 248.58ZM272.091 249.341C273.062 249.341 273.977 249.091 274.797 248.578L273.203 246.036C272.886 246.234 272.529 246.341 272.091 246.341V249.341ZM274.793 248.58C275.639 248.053 276.271 247.296 276.71 246.383L274.006 245.083C273.778 245.557 273.505 245.848 273.207 246.033L274.793 248.58ZM276.707 246.389C277.169 245.439 277.364 244.35 277.364 243.182H274.364C274.364 244.029 274.221 244.641 274.009 245.077L276.707 246.389Z" fill="white"/>
<path d="M277.227 243.182C277.227 244.409 277.006 245.47 276.562 246.364C276.119 247.258 275.511 247.947 274.739 248.432C273.966 248.917 273.083 249.159 272.091 249.159C271.098 249.159 270.216 248.917 269.443 248.432C268.67 247.947 268.063 247.258 267.619 246.364C267.176 245.47 266.955 244.409 266.955 243.182C266.955 241.955 267.176 240.894 267.619 240C268.063 239.106 268.67 238.417 269.443 237.932C270.216 237.447 271.098 237.205 272.091 237.205C273.083 237.205 273.966 237.447 274.739 237.932C275.511 238.417 276.119 239.106 276.562 240C277.006 240.894 277.227 241.955 277.227 243.182ZM275.864 243.182C275.864 242.174 275.695 241.324 275.358 240.631C275.025 239.938 274.572 239.413 274 239.057C273.432 238.701 272.795 238.523 272.091 238.523C271.386 238.523 270.748 238.701 270.176 239.057C269.608 239.413 269.155 239.938 268.818 240.631C268.485 241.324 268.318 242.174 268.318 243.182C268.318 244.189 268.485 245.04 268.818 245.733C269.155 246.426 269.608 246.951 270.176 247.307C270.748 247.663 271.386 247.841 272.091 247.841C272.795 247.841 273.432 247.663 274 247.307C274.572 246.951 275.025 246.426 275.358 245.733C275.695 245.04 275.864 244.189 275.864 243.182Z" fill="#616161"/>
<path d="M165.631 316.199C165.631 318.408 163.84 320.199 161.631 320.199C159.422 320.199 157.631 318.408 157.631 316.199C157.631 313.989 159.422 312.199 161.631 312.199C163.84 312.199 165.631 313.989 165.631 316.199Z" fill="#616161"/>
<path d="M165.631 316.199C165.631 318.408 163.84 320.199 161.631 320.199C159.422 320.199 157.631 318.408 157.631 316.199C157.631 313.989 159.422 312.199 161.631 312.199C163.84 312.199 165.631 313.989 165.631 316.199Z" stroke="black" stroke-miterlimit="10" stroke-linecap="round" stroke-linejoin="round"/>
<path d="M167.886 307H166.409L170.682 295.364H172.136L176.409 307H174.932L171.455 297.205H171.364L167.886 307ZM168.432 302.455H174.386V303.705H168.432V302.455Z" fill="#616161"/>
<path d="M167.886 307V308.5L169.3 307.502L167.886 307ZM166.409 307L165.001 306.483L166.409 308.5V307ZM170.682 295.364V293.864L169.274 294.847L170.682 295.364ZM172.136 295.364L173.544 294.847L172.136 293.864V295.364ZM176.409 307V308.5L177.817 306.483L176.409 307ZM174.932 307L173.518 307.502L174.932 308.5V307ZM171.455 297.205L172.868 296.703L171.455 295.705V297.205ZM171.364 297.205V295.705L169.95 296.703L171.364 297.205ZM168.432 302.455V300.955L166.932 302.455H168.432ZM174.386 302.455H175.886L174.386 300.955V302.455ZM174.386 303.705V305.205L175.886 303.705H174.386ZM168.432 303.705H166.932L168.432 305.205V303.705ZM167.886 305.5H166.409V308.5H167.886V305.5ZM167.817 307.517L172.09 295.881L169.274 294.847L165.001 306.483L167.817 307.517ZM170.682 296.864H172.136V293.864H170.682V296.864ZM170.728 295.881L175.001 307.517L177.817 306.483L173.544 294.847L170.728 295.881ZM176.409 305.5H174.932V308.5H176.409V305.5ZM176.345 306.498L172.868 296.703L170.041 297.706L173.518 307.502L176.345 306.498ZM171.455 295.705H171.364V298.705H171.455V295.705ZM169.95 296.703L166.473 306.498L169.3 307.502L172.777 297.706L169.95 296.703ZM168.432 303.955H174.386V300.955H168.432V303.955ZM172.886 302.455V303.705H175.886V302.455H172.886ZM174.386 302.205H168.432V305.205H174.386V302.205ZM169.932 303.705V302.455H166.932V303.705H169.932Z" fill="white"/>
<path d="M167.886 307H166.409L170.682 295.364H172.136L176.409 307H174.932L171.455 297.205H171.364L167.886 307ZM168.432 302.455H174.386V303.705H168.432V302.455Z" fill="#616161"/>
<path d="M178.054 315V314.105L181.415 310.426C181.809 309.995 182.134 309.621 182.389 309.303C182.644 308.981 182.833 308.679 182.956 308.398C183.082 308.113 183.145 307.814 183.145 307.503C183.145 307.145 183.059 306.835 182.886 306.573C182.717 306.311 182.485 306.109 182.19 305.967C181.895 305.824 181.564 305.753 181.196 305.753C180.805 305.753 180.464 305.834 180.172 305.996C179.884 306.156 179.66 306.379 179.501 306.668C179.345 306.956 179.267 307.294 179.267 307.682H178.094C178.094 307.085 178.231 306.562 178.506 306.111C178.781 305.66 179.156 305.309 179.63 305.057C180.107 304.805 180.643 304.679 181.236 304.679C181.832 304.679 182.361 304.805 182.822 305.057C183.282 305.309 183.644 305.648 183.906 306.076C184.167 306.504 184.298 306.979 184.298 307.503C184.298 307.877 184.23 308.244 184.094 308.602C183.962 308.956 183.73 309.352 183.398 309.79C183.07 310.224 182.615 310.754 182.031 311.381L179.744 313.827V313.906H184.477V315H178.054Z" fill="#616161"/>
<path d="M178.054 315H176.554L178.054 316.5V315ZM178.054 314.105L176.947 313.093L176.554 314.105H178.054ZM181.415 310.426L180.308 309.413L180.307 309.414L181.415 310.426ZM182.389 309.303L183.559 310.241L183.564 310.235L182.389 309.303ZM182.956 308.398L181.584 307.791L181.581 307.799L182.956 308.398ZM182.886 306.573L181.626 307.387L181.633 307.398L182.886 306.573ZM182.19 305.967L182.843 304.616L182.843 304.616L182.19 305.967ZM180.172 305.996L180.896 307.31L180.902 307.307L180.172 305.996ZM179.501 306.668L178.187 305.943L178.181 305.955L179.501 306.668ZM179.267 307.682V309.182L180.767 307.682H179.267ZM178.094 307.682H176.594L178.094 309.182V307.682ZM178.506 306.111L179.787 306.892L179.787 306.892L178.506 306.111ZM179.63 305.057L178.93 303.73L178.926 303.732L179.63 305.057ZM182.822 305.057L183.541 303.741L183.541 303.741L182.822 305.057ZM183.906 306.076L182.626 306.859L183.906 306.076ZM184.094 308.602L182.692 308.069L182.689 308.076L184.094 308.602ZM183.398 309.79L182.203 308.884L182.202 308.885L183.398 309.79ZM182.031 311.381L183.127 312.405L183.129 312.403L182.031 311.381ZM179.744 313.827L178.649 312.802L178.244 313.827H179.744ZM179.744 313.906H178.244L179.744 315.406V313.906ZM184.477 313.906H185.977L184.477 312.406V313.906ZM184.477 315V316.5L185.977 315H184.477ZM179.554 315V314.105H176.554V315H179.554ZM179.161 315.117L182.522 311.438L180.307 309.414L176.947 313.093L179.161 315.117ZM182.521 311.439C182.929 310.993 183.277 310.593 183.559 310.241L181.219 308.364C180.991 308.649 180.689 308.997 180.308 309.413L182.521 311.439ZM183.564 310.235C183.875 309.843 184.143 309.43 184.331 308.996L181.581 307.799C181.524 307.929 181.414 308.119 181.214 308.37L183.564 310.235ZM184.328 309.004C184.538 308.528 184.645 308.023 184.645 307.503H181.645C181.645 307.606 181.626 307.697 181.584 307.791L184.328 309.004ZM184.645 307.503C184.645 306.895 184.495 306.289 184.139 305.748L181.633 307.398C181.632 307.395 181.633 307.395 181.635 307.404C181.638 307.414 181.645 307.445 181.645 307.503H184.645ZM184.147 305.76C183.82 305.254 183.373 304.872 182.843 304.616L181.538 307.317C181.598 307.346 181.614 307.368 181.626 307.387L184.147 305.76ZM182.843 304.616C182.321 304.364 181.762 304.253 181.196 304.253V307.253C181.366 307.253 181.47 307.285 181.538 307.317L182.843 304.616ZM181.196 304.253C180.594 304.253 179.993 304.379 179.442 304.686L180.902 307.307C180.935 307.289 181.016 307.253 181.196 307.253V304.253ZM179.447 304.683C178.911 304.979 178.483 305.407 178.187 305.943L180.814 307.392C180.836 307.352 180.856 307.332 180.896 307.31L179.447 304.683ZM178.181 305.955C177.887 306.499 177.767 307.091 177.767 307.682H180.767C180.767 307.497 180.803 307.413 180.82 307.381L178.181 305.955ZM179.267 306.182H178.094V309.182H179.267V306.182ZM179.594 307.682C179.594 307.324 179.673 307.078 179.787 306.892L177.226 305.329C176.789 306.045 176.594 306.846 176.594 307.682H179.594ZM179.787 306.892C179.919 306.675 180.093 306.509 180.334 306.381L178.926 303.732C178.219 304.108 177.644 304.645 177.226 305.329L179.787 306.892ZM180.33 306.383C180.571 306.256 180.862 306.179 181.236 306.179V303.179C180.423 303.179 179.644 303.353 178.93 303.73L180.33 306.383ZM181.236 306.179C181.616 306.179 181.891 306.257 182.102 306.373L183.541 303.741C182.831 303.353 182.049 303.179 181.236 303.179V306.179ZM182.102 306.373C182.344 306.505 182.508 306.666 182.626 306.859L185.185 305.293C184.78 304.631 184.221 304.112 183.541 303.741L182.102 306.373ZM182.626 306.859C182.737 307.04 182.798 307.243 182.798 307.503H185.798C185.798 306.716 185.598 305.967 185.185 305.293L182.626 306.859ZM182.798 307.503C182.798 307.691 182.765 307.877 182.692 308.069L185.497 309.134C185.696 308.61 185.798 308.063 185.798 307.503H182.798ZM182.689 308.076C182.625 308.248 182.482 308.515 182.203 308.884L184.594 310.696C184.978 310.189 185.299 309.664 185.499 309.127L182.689 308.076ZM182.202 308.885C181.917 309.262 181.499 309.751 180.934 310.358L183.129 312.403C183.73 311.758 184.224 311.186 184.595 310.694L182.202 308.885ZM180.936 310.356L178.649 312.802L180.84 314.851L183.127 312.405L180.936 310.356ZM178.244 313.827V313.906H181.244V313.827H178.244ZM179.744 315.406H184.477V312.406H179.744V315.406ZM182.977 313.906V315H185.977V313.906H182.977ZM184.477 313.5H178.054V316.5H184.477V313.5Z" fill="white"/>
<path d="M178.054 315V314.105L181.415 310.426C181.809 309.995 182.134 309.621 182.389 309.303C182.644 308.981 182.833 308.679 182.956 308.398C183.082 308.113 183.145 307.814 183.145 307.503C183.145 307.145 183.059 306.835 182.886 306.573C182.717 306.311 182.485 306.109 182.19 305.967C181.895 305.824 181.564 305.753 181.196 305.753C180.805 305.753 180.464 305.834 180.172 305.996C179.884 306.156 179.66 306.379 179.501 306.668C179.345 306.956 179.267 307.294 179.267 307.682H178.094C178.094 307.085 178.231 306.562 178.506 306.111C178.781 305.66 179.156 305.309 179.63 305.057C180.107 304.805 180.643 304.679 181.236 304.679C181.832 304.679 182.361 304.805 182.822 305.057C183.282 305.309 183.644 305.648 183.906 306.076C184.167 306.504 184.298 306.979 184.298 307.503C184.298 307.877 184.23 308.244 184.094 308.602C183.962 308.956 183.73 309.352 183.398 309.79C183.07 310.224 182.615 310.754 182.031 311.381L179.744 313.827V313.906H184.477V315H178.054Z" fill="#616161"/>
<path d="M394.18 319.584C394.18 321.794 392.389 323.584 390.18 323.584C387.971 323.584 386.18 321.794 386.18 319.584C386.18 317.375 387.971 315.584 390.18 315.584C392.389 315.584 394.18 317.375 394.18 319.584Z" fill="#616161"/>
<path d="M394.18 319.584C394.18 321.794 392.389 323.584 390.18 323.584C387.971 323.584 386.18 321.794 386.18 319.584C386.18 317.375 387.971 315.584 390.18 315.584C392.389 315.584 394.18 317.375 394.18 319.584Z" stroke="black" stroke-miterlimit="10" stroke-linecap="round" stroke-linejoin="round"/>
<path d="M395.409 311V299.364H399.477C400.288 299.364 400.956 299.504 401.483 299.784C402.009 300.061 402.402 300.434 402.659 300.903C402.917 301.369 403.045 301.886 403.045 302.455C403.045 302.955 402.956 303.367 402.778 303.693C402.604 304.019 402.373 304.277 402.085 304.466C401.801 304.655 401.492 304.795 401.159 304.886V305C401.515 305.023 401.873 305.148 402.233 305.375C402.593 305.602 402.894 305.928 403.136 306.352C403.379 306.777 403.5 307.295 403.5 307.909C403.5 308.492 403.367 309.017 403.102 309.483C402.837 309.949 402.419 310.318 401.847 310.591C401.275 310.864 400.53 311 399.614 311H395.409ZM396.818 309.75H399.614C400.534 309.75 401.188 309.572 401.574 309.216C401.964 308.856 402.159 308.42 402.159 307.909C402.159 307.515 402.059 307.152 401.858 306.818C401.657 306.481 401.371 306.212 401 306.011C400.629 305.807 400.189 305.705 399.682 305.705H396.818V309.75ZM396.818 304.477H399.432C399.856 304.477 400.239 304.394 400.58 304.227C400.924 304.061 401.197 303.826 401.398 303.523C401.602 303.22 401.705 302.864 401.705 302.455C401.705 301.943 401.527 301.509 401.17 301.153C400.814 300.794 400.25 300.614 399.477 300.614H396.818V304.477Z" fill="#616161"/>
<path d="M395.409 311H393.909L395.409 312.5V311ZM395.409 299.364V297.864L393.909 299.364H395.409ZM401.483 299.784L400.778 301.108L400.786 301.112L401.483 299.784ZM402.659 300.903L401.344 301.625L401.346 301.629L402.659 300.903ZM402.778 303.693L401.462 302.974L401.456 302.986L402.778 303.693ZM402.085 304.466L401.261 303.213L401.253 303.218L402.085 304.466ZM401.159 304.886L400.764 303.439L399.659 304.886H401.159ZM401.159 305H399.659L401.064 306.497L401.159 305ZM402.233 305.375L401.432 306.643L401.432 306.643L402.233 305.375ZM403.102 309.483L404.406 310.225L404.406 310.225L403.102 309.483ZM401.847 310.591L401.201 309.237L401.201 309.237L401.847 310.591ZM396.818 309.75H395.318L396.818 311.25V309.75ZM401.574 309.216L402.59 310.319L402.591 310.319L401.574 309.216ZM401.858 306.818L400.569 307.586L400.573 307.592L401.858 306.818ZM401 306.011L400.276 307.325L400.286 307.331L401 306.011ZM396.818 305.705V304.205L395.318 305.705H396.818ZM396.818 304.477H395.318L396.818 305.977V304.477ZM400.58 304.227L399.927 302.877L399.921 302.88L400.58 304.227ZM401.398 303.523L400.154 302.683L400.147 302.694L401.398 303.523ZM401.17 301.153L400.104 302.208L400.11 302.214L401.17 301.153ZM396.818 300.614V299.114L395.318 300.614H396.818ZM396.909 311V299.364H393.909V311H396.909ZM395.409 300.864H399.477V297.864H395.409V300.864ZM399.477 300.864C400.126 300.864 400.532 300.977 400.778 301.108L402.188 298.46C401.381 298.03 400.45 297.864 399.477 297.864V300.864ZM400.786 301.112C401.081 301.267 401.243 301.442 401.344 301.625L403.974 300.182C403.56 299.426 402.938 298.854 402.18 298.456L400.786 301.112ZM401.346 301.629C401.473 301.858 401.545 302.123 401.545 302.455H404.545C404.545 301.65 404.36 300.881 403.972 300.178L401.346 301.629ZM401.545 302.455C401.545 302.787 401.485 302.932 401.462 302.974L404.095 304.413C404.428 303.803 404.545 303.122 404.545 302.455H401.545ZM401.456 302.986C401.391 303.107 401.325 303.171 401.261 303.213L402.91 305.719C403.421 305.382 403.818 304.931 404.101 304.401L401.456 302.986ZM401.253 303.218C401.105 303.317 400.944 303.39 400.764 303.439L401.554 306.334C402.041 306.201 402.497 305.994 402.917 305.714L401.253 303.218ZM399.659 304.886V305H402.659V304.886H399.659ZM401.064 306.497C401.125 306.501 401.244 306.524 401.432 306.643L403.034 304.107C402.503 303.771 401.905 303.545 401.255 303.503L401.064 306.497ZM401.432 306.643C401.555 306.721 401.695 306.854 401.834 307.096L404.439 305.608C404.093 305.003 403.63 304.483 403.034 304.107L401.432 306.643ZM401.834 307.096C401.918 307.243 402 307.491 402 307.909H405C405 307.1 404.84 306.31 404.439 305.608L401.834 307.096ZM402 307.909C402 308.256 401.924 308.521 401.799 308.741L404.406 310.225C404.811 309.513 405 308.729 405 307.909H402ZM401.799 308.741C401.711 308.895 401.548 309.072 401.201 309.237L402.492 311.945C403.289 311.565 403.963 311.003 404.406 310.225L401.799 308.741ZM401.201 309.237C400.9 309.38 400.399 309.5 399.614 309.5V312.5C400.661 312.5 401.649 312.347 402.492 311.945L401.201 309.237ZM399.614 309.5H395.409V312.5H399.614V309.5ZM396.818 311.25H399.614V308.25H396.818V311.25ZM399.614 311.25C400.652 311.25 401.782 311.064 402.59 310.319L400.557 308.113C400.585 308.088 400.559 308.126 400.4 308.169C400.238 308.213 399.985 308.25 399.614 308.25V311.25ZM402.591 310.319C403.276 309.687 403.659 308.857 403.659 307.909H400.659C400.659 307.969 400.649 307.995 400.644 308.006C400.638 308.019 400.619 308.056 400.557 308.113L402.591 310.319ZM403.659 307.909C403.659 307.246 403.486 306.614 403.143 306.044L400.573 307.592C400.631 307.689 400.659 307.784 400.659 307.909H403.659ZM403.147 306.051C402.797 305.464 402.304 305.011 401.714 304.692L400.286 307.331C400.438 307.413 400.517 307.499 400.569 307.586L403.147 306.051ZM401.724 304.698C401.091 304.349 400.393 304.205 399.682 304.205V307.205C399.986 307.205 400.167 307.265 400.276 307.325L401.724 304.698ZM399.682 304.205H396.818V307.205H399.682V304.205ZM395.318 305.705V309.75H398.318V305.705H395.318ZM396.818 305.977H399.432V302.977H396.818V305.977ZM399.432 305.977C400.057 305.977 400.669 305.853 401.238 305.575L399.921 302.88C399.808 302.935 399.655 302.977 399.432 302.977V305.977ZM401.232 305.578C401.806 305.3 402.291 304.891 402.648 304.351L400.147 302.694C400.103 302.761 400.042 302.821 399.927 302.877L401.232 305.578ZM402.641 304.362C403.032 303.782 403.205 303.126 403.205 302.455H400.205C400.205 302.601 400.172 302.657 400.154 302.684L402.641 304.362ZM403.205 302.455C403.205 301.552 402.873 300.735 402.231 300.093L400.11 302.214C400.18 302.284 400.205 302.334 400.205 302.455H403.205ZM402.237 300.098C401.481 299.334 400.443 299.114 399.477 299.114V302.114C400.057 302.114 400.148 302.253 400.104 302.208L402.237 300.098ZM399.477 299.114H396.818V302.114H399.477V299.114ZM395.318 300.614V304.477H398.318V300.614H395.318Z" fill="white"/>
<path d="M395.409 311V299.364H399.477C400.288 299.364 400.956 299.504 401.483 299.784C402.009 300.061 402.402 300.434 402.659 300.903C402.917 301.369 403.045 301.886 403.045 302.455C403.045 302.955 402.956 303.367 402.778 303.693C402.604 304.019 402.373 304.277 402.085 304.466C401.801 304.655 401.492 304.795 401.159 304.886V305C401.515 305.023 401.873 305.148 402.233 305.375C402.593 305.602 402.894 305.928 403.136 306.352C403.379 306.777 403.5 307.295 403.5 307.909C403.5 308.492 403.367 309.017 403.102 309.483C402.837 309.949 402.419 310.318 401.847 310.591C401.275 310.864 400.53 311 399.614 311H395.409ZM396.818 309.75H399.614C400.534 309.75 401.188 309.572 401.574 309.216C401.964 308.856 402.159 308.42 402.159 307.909C402.159 307.515 402.059 307.152 401.858 306.818C401.657 306.481 401.371 306.212 401 306.011C400.629 305.807 400.189 305.705 399.682 305.705H396.818V309.75ZM396.818 304.477H399.432C399.856 304.477 400.239 304.394 400.58 304.227C400.924 304.061 401.197 303.826 401.398 303.523C401.602 303.22 401.705 302.864 401.705 302.455C401.705 301.943 401.527 301.509 401.17 301.153C400.814 300.794 400.25 300.614 399.477 300.614H396.818V304.477Z" fill="#616161"/>
<path d="M406.054 319V318.105L409.415 314.426C409.809 313.995 410.134 313.621 410.389 313.303C410.644 312.981 410.833 312.679 410.956 312.398C411.082 312.113 411.145 311.814 411.145 311.503C411.145 311.145 411.059 310.835 410.886 310.573C410.717 310.311 410.485 310.109 410.19 309.967C409.895 309.824 409.564 309.753 409.196 309.753C408.805 309.753 408.464 309.834 408.172 309.996C407.884 310.156 407.66 310.379 407.501 310.668C407.345 310.956 407.267 311.294 407.267 311.682H406.094C406.094 311.085 406.231 310.562 406.506 310.111C406.781 309.66 407.156 309.309 407.63 309.057C408.107 308.805 408.643 308.679 409.236 308.679C409.832 308.679 410.361 308.805 410.822 309.057C411.282 309.309 411.644 309.648 411.906 310.076C412.167 310.504 412.298 310.979 412.298 311.503C412.298 311.877 412.23 312.244 412.094 312.602C411.962 312.956 411.73 313.352 411.398 313.79C411.07 314.224 410.615 314.754 410.031 315.381L407.744 317.827V317.906H412.477V319H406.054Z" fill="#616161"/>
<path d="M406.054 319H404.554L406.054 320.5V319ZM406.054 318.105L404.947 317.093L404.554 318.105H406.054ZM409.415 314.426L408.308 313.413L408.307 313.414L409.415 314.426ZM410.389 313.303L411.559 314.241L411.564 314.235L410.389 313.303ZM410.956 312.398L409.584 311.791L409.581 311.799L410.956 312.398ZM410.886 310.573L409.626 311.387L409.633 311.398L410.886 310.573ZM410.19 309.967L410.843 308.616L410.843 308.616L410.19 309.967ZM408.172 309.996L408.896 311.31L408.902 311.307L408.172 309.996ZM407.501 310.668L406.187 309.943L406.181 309.955L407.501 310.668ZM407.267 311.682V313.182L408.767 311.682H407.267ZM406.094 311.682H404.594L406.094 313.182V311.682ZM406.506 310.111L407.787 310.892L407.787 310.892L406.506 310.111ZM407.63 309.057L406.93 307.73L406.926 307.732L407.63 309.057ZM410.822 309.057L411.541 307.741L411.541 307.741L410.822 309.057ZM411.906 310.076L410.626 310.859L411.906 310.076ZM412.094 312.602L410.692 312.069L410.689 312.076L412.094 312.602ZM411.398 313.79L410.203 312.884L410.202 312.885L411.398 313.79ZM410.031 315.381L411.127 316.405L411.129 316.403L410.031 315.381ZM407.744 317.827L406.649 316.802L406.244 317.827H407.744ZM407.744 317.906H406.244L407.744 319.406V317.906ZM412.477 317.906H413.977L412.477 316.406V317.906ZM412.477 319V320.5L413.977 319H412.477ZM407.554 319V318.105H404.554V319H407.554ZM407.161 319.117L410.522 315.438L408.307 313.414L404.947 317.093L407.161 319.117ZM410.521 315.439C410.929 314.993 411.277 314.593 411.559 314.241L409.219 312.364C408.991 312.649 408.689 312.997 408.308 313.413L410.521 315.439ZM411.564 314.235C411.875 313.843 412.143 313.43 412.331 312.996L409.581 311.799C409.524 311.929 409.414 312.119 409.214 312.37L411.564 314.235ZM412.328 313.004C412.538 312.528 412.645 312.023 412.645 311.503H409.645C409.645 311.606 409.626 311.697 409.584 311.791L412.328 313.004ZM412.645 311.503C412.645 310.895 412.495 310.289 412.139 309.748L409.633 311.398C409.632 311.395 409.633 311.395 409.635 311.404C409.638 311.414 409.645 311.445 409.645 311.503H412.645ZM412.147 309.76C411.82 309.254 411.373 308.872 410.843 308.616L409.538 311.317C409.598 311.346 409.614 311.368 409.626 311.387L412.147 309.76ZM410.843 308.616C410.321 308.364 409.762 308.253 409.196 308.253V311.253C409.366 311.253 409.47 311.285 409.538 311.317L410.843 308.616ZM409.196 308.253C408.594 308.253 407.993 308.379 407.442 308.686L408.902 311.307C408.935 311.289 409.016 311.253 409.196 311.253V308.253ZM407.447 308.683C406.911 308.979 406.483 309.407 406.187 309.943L408.814 311.392C408.836 311.352 408.856 311.332 408.896 311.31L407.447 308.683ZM406.181 309.955C405.887 310.499 405.767 311.091 405.767 311.682H408.767C408.767 311.497 408.803 311.413 408.82 311.381L406.181 309.955ZM407.267 310.182H406.094V313.182H407.267V310.182ZM407.594 311.682C407.594 311.324 407.673 311.078 407.787 310.892L405.226 309.329C404.789 310.045 404.594 310.846 404.594 311.682H407.594ZM407.787 310.892C407.919 310.675 408.093 310.509 408.334 310.381L406.926 307.732C406.219 308.108 405.644 308.645 405.226 309.329L407.787 310.892ZM408.33 310.383C408.571 310.256 408.862 310.179 409.236 310.179V307.179C408.423 307.179 407.644 307.353 406.93 307.73L408.33 310.383ZM409.236 310.179C409.616 310.179 409.891 310.257 410.102 310.373L411.541 307.741C410.831 307.353 410.049 307.179 409.236 307.179V310.179ZM410.102 310.373C410.344 310.505 410.508 310.666 410.626 310.859L413.185 309.293C412.78 308.631 412.221 308.112 411.541 307.741L410.102 310.373ZM410.626 310.859C410.737 311.04 410.798 311.243 410.798 311.503H413.798C413.798 310.716 413.598 309.967 413.185 309.293L410.626 310.859ZM410.798 311.503C410.798 311.691 410.765 311.877 410.692 312.069L413.497 313.134C413.696 312.61 413.798 312.063 413.798 311.503H410.798ZM410.689 312.076C410.625 312.248 410.482 312.515 410.203 312.884L412.594 314.696C412.978 314.189 413.299 313.664 413.499 313.127L410.689 312.076ZM410.202 312.885C409.917 313.262 409.499 313.751 408.934 314.358L411.129 316.403C411.73 315.758 412.224 315.186 412.595 314.694L410.202 312.885ZM408.936 314.356L406.649 316.802L408.84 318.851L411.127 316.405L408.936 314.356ZM406.244 317.827V317.906H409.244V317.827H406.244ZM407.744 319.406H412.477V316.406H407.744V319.406ZM410.977 317.906V319H413.977V317.906H410.977ZM412.477 317.5H406.054V320.5H412.477V317.5Z" fill="white"/>
<path d="M406.054 319V318.105L409.415 314.426C409.809 313.995 410.134 313.621 410.389 313.303C410.644 312.981 410.833 312.679 410.956 312.398C411.082 312.113 411.145 311.814 411.145 311.503C411.145 311.145 411.059 310.835 410.886 310.573C410.717 310.311 410.485 310.109 410.19 309.967C409.895 309.824 409.564 309.753 409.196 309.753C408.805 309.753 408.464 309.834 408.172 309.996C407.884 310.156 407.66 310.379 407.501 310.668C407.345 310.956 407.267 311.294 407.267 311.682H406.094C406.094 311.085 406.231 310.562 406.506 310.111C406.781 309.66 407.156 309.309 407.63 309.057C408.107 308.805 408.643 308.679 409.236 308.679C409.832 308.679 410.361 308.805 410.822 309.057C411.282 309.309 411.644 309.648 411.906 310.076C412.167 310.504 412.298 310.979 412.298 311.503C412.298 311.877 412.23 312.244 412.094 312.602C411.962 312.956 411.73 313.352 411.398 313.79C411.07 314.224 410.615 314.754 410.031 315.381L407.744 317.827V317.906H412.477V319H406.054Z" fill="#616161"/>
</g>
<defs>
<clipPath id="clip0_358_683">
<rect width="562" height="406" fill="white"/>
</clipPath>
</defs>
</svg>
