<svg width="704" height="467" viewBox="0 0 704 467" fill="none" xmlns="http://www.w3.org/2000/svg">
<g clip-path="url(#clip0_361_855)">
<path d="M704 0H0V467H704V0Z" fill="white"/>
<path d="M124.9 401.605L581.998 408.377" stroke="#616161" stroke-opacity="0.8" stroke-width="2.5" stroke-miterlimit="10" stroke-linecap="round" stroke-linejoin="round"/>
<path d="M581.998 408.377L272.188 44.3925" stroke="#616161" stroke-opacity="0.8" stroke-width="2.5" stroke-miterlimit="10" stroke-linecap="round" stroke-linejoin="round"/>
<path d="M124.9 401.605L272.187 44.3925" stroke="#616161" stroke-opacity="0.8" stroke-width="2.5" stroke-miterlimit="10" stroke-linecap="round" stroke-linejoin="round"/>
<path d="M124.9 401.605L427.092 226.385" stroke="#FF0000" stroke-opacity="0.8" stroke-width="2.5" stroke-miterlimit="10" stroke-linecap="round" stroke-linejoin="round"/>
<path d="M581.997 408.377L198.543 222.999" stroke="#FF0000" stroke-opacity="0.8" stroke-width="2.5" stroke-miterlimit="10" stroke-linecap="round" stroke-linejoin="round"/>
<path d="M198.543 222.999L427.092 226.385" stroke="#00CC00" stroke-opacity="0.8" stroke-width="2.5" stroke-miterlimit="10" stroke-linecap="round" stroke-linejoin="round"/>
<path d="M225.631 343.199L454.179 346.584" stroke="#00CC00" stroke-opacity="0.8" stroke-width="2.5" stroke-miterlimit="10" stroke-linecap="round" stroke-linejoin="round"/>
<path d="M198.543 222.999L225.63 343.199" stroke="#00CC00" stroke-opacity="0.8" stroke-width="2.5" stroke-miterlimit="10" stroke-linecap="round" stroke-linejoin="round"/>
<path d="M427.092 226.385L454.179 346.584" stroke="#00CC00" stroke-opacity="0.8" stroke-width="2.5" stroke-miterlimit="10" stroke-linecap="round" stroke-linejoin="round"/>
<path d="M191.942 375.173L179.303 359.207" stroke="#616161" stroke-opacity="0.8" stroke-width="2.5" stroke-miterlimit="10" stroke-linecap="round" stroke-linejoin="round"/>
<path d="M291.063 318.628L277.758 300.666" stroke="#616161" stroke-opacity="0.8" stroke-width="2.5" stroke-miterlimit="10" stroke-linecap="round" stroke-linejoin="round"/>
<path d="M390.849 305.988L382.201 319.958" stroke="#616161" stroke-opacity="0.8" stroke-width="2.5" stroke-miterlimit="10" stroke-linecap="round" stroke-linejoin="round"/>
<path d="M402.822 309.979L392.844 326.61" stroke="#616161" stroke-opacity="0.8" stroke-width="2.5" stroke-miterlimit="10" stroke-linecap="round" stroke-linejoin="round"/>
<path d="M493.294 352.555L482.65 371.847" stroke="#616161" stroke-opacity="0.8" stroke-width="2.5" stroke-miterlimit="10" stroke-linecap="round" stroke-linejoin="round"/>
<path d="M499.948 360.538L491.965 375.838" stroke="#616161" stroke-opacity="0.8" stroke-width="2.5" stroke-miterlimit="10" stroke-linecap="round" stroke-linejoin="round"/>
<path d="M298.381 213.52V230.816" stroke="#616161" stroke-opacity="0.8" stroke-width="2.5" stroke-miterlimit="10" stroke-linecap="round" stroke-linejoin="round"/>
<path d="M304.367 214.185V231.482" stroke="#616161" stroke-opacity="0.8" stroke-width="2.5" stroke-miterlimit="10" stroke-linecap="round" stroke-linejoin="round"/>
<path d="M311.889 336.508V353.804" stroke="#616161" stroke-opacity="0.8" stroke-width="2.5" stroke-miterlimit="10" stroke-linecap="round" stroke-linejoin="round"/>
<path d="M317.457 335.394V352.69" stroke="#616161" stroke-opacity="0.8" stroke-width="2.5" stroke-miterlimit="10" stroke-linecap="round" stroke-linejoin="round"/>
<path d="M323.027 337.065V354.361" stroke="#616161" stroke-opacity="0.8" stroke-width="2.5" stroke-miterlimit="10" stroke-linecap="round" stroke-linejoin="round"/>
<path d="M292.393 212.855V230.151" stroke="#616161" stroke-opacity="0.8" stroke-width="2.5" stroke-miterlimit="10" stroke-linecap="round" stroke-linejoin="round"/>
<path d="M173.562 310.338L155.738 308.667" stroke="#616161" stroke-opacity="0.8" stroke-width="2.5" stroke-miterlimit="10" stroke-linecap="round" stroke-linejoin="round"/>
<path d="M155.738 308.667L165.764 320.92" stroke="#616161" stroke-opacity="0.8" stroke-width="2.5" stroke-miterlimit="10" stroke-linecap="round" stroke-linejoin="round"/>
<path d="M248.198 127.644L228.703 128.201" stroke="#616161" stroke-opacity="0.8" stroke-width="2.5" stroke-miterlimit="10" stroke-linecap="round" stroke-linejoin="round"/>
<path d="M228.703 128.201L239.843 140.454" stroke="#616161" stroke-opacity="0.8" stroke-width="2.5" stroke-miterlimit="10" stroke-linecap="round" stroke-linejoin="round"/>
<path d="M354.028 126.53L344.002 139.34" stroke="#616161" stroke-opacity="0.8" stroke-width="2.5" stroke-miterlimit="10" stroke-linecap="round" stroke-linejoin="round"/>
<path d="M362.94 135.441L344.002 139.34" stroke="#616161" stroke-opacity="0.8" stroke-width="2.5" stroke-miterlimit="10" stroke-linecap="round" stroke-linejoin="round"/>
<path d="M346.786 117.061L333.418 125.973" stroke="#616161" stroke-opacity="0.8" stroke-width="2.5" stroke-miterlimit="10" stroke-linecap="round" stroke-linejoin="round"/>
<path d="M485.478 278.589L470.439 286.944" stroke="#616161" stroke-opacity="0.8" stroke-width="2.5" stroke-miterlimit="10" stroke-linecap="round" stroke-linejoin="round"/>
<path d="M489.377 286.387L479.908 298.641" stroke="#616161" stroke-opacity="0.8" stroke-width="2.5" stroke-miterlimit="10" stroke-linecap="round" stroke-linejoin="round"/>
<path d="M479.908 298.641L496.061 299.755" stroke="#616161" stroke-opacity="0.8" stroke-width="2.5" stroke-miterlimit="10" stroke-linecap="round" stroke-linejoin="round"/>
<path d="M129.9 401.605C129.9 404.367 127.662 406.605 124.9 406.605C122.139 406.605 119.9 404.367 119.9 401.605C119.9 398.844 122.139 396.605 124.9 396.605C127.662 396.605 129.9 398.844 129.9 401.605Z" fill="#1565C0"/>
<path d="M129.9 401.605C129.9 404.367 127.662 406.605 124.9 406.605C122.139 406.605 119.9 404.367 119.9 401.605C119.9 398.844 122.139 396.605 124.9 396.605C127.662 396.605 129.9 398.844 129.9 401.605Z" stroke="black" stroke-miterlimit="10" stroke-linecap="round" stroke-linejoin="round"/>
<path d="M130.886 391H129.409L133.682 379.364H135.136L139.409 391H137.932L134.455 381.205H134.364L130.886 391ZM131.432 386.455H137.386V387.705H131.432V386.455Z" fill="#1565C0"/>
<path d="M130.886 391V392.5L132.3 391.502L130.886 391ZM129.409 391L128.001 390.483L129.409 392.5V391ZM133.682 379.364V377.864L132.274 378.847L133.682 379.364ZM135.136 379.364L136.544 378.847L135.136 377.864V379.364ZM139.409 391V392.5L140.817 390.483L139.409 391ZM137.932 391L136.518 391.502L137.932 392.5V391ZM134.455 381.205L135.868 380.703L134.455 379.705V381.205ZM134.364 381.205V379.705L132.95 380.703L134.364 381.205ZM131.432 386.455V384.955L129.932 386.455H131.432ZM137.386 386.455H138.886L137.386 384.955V386.455ZM137.386 387.705V389.205L138.886 387.705H137.386ZM131.432 387.705H129.932L131.432 389.205V387.705ZM130.886 389.5H129.409V392.5H130.886V389.5ZM130.817 391.517L135.09 379.881L132.274 378.847L128.001 390.483L130.817 391.517ZM133.682 380.864H135.136V377.864H133.682V380.864ZM133.728 379.881L138.001 391.517L140.817 390.483L136.544 378.847L133.728 379.881ZM139.409 389.5H137.932V392.5H139.409V389.5ZM139.345 390.498L135.868 380.703L133.041 381.706L136.518 391.502L139.345 390.498ZM134.455 379.705H134.364V382.705H134.455V379.705ZM132.95 380.703L129.473 390.498L132.3 391.502L135.777 381.706L132.95 380.703ZM131.432 387.955H137.386V384.955H131.432V387.955ZM135.886 386.455V387.705H138.886V386.455H135.886ZM137.386 386.205H131.432V389.205H137.386V386.205ZM132.932 387.705V386.455H129.932V387.705H132.932Z" fill="white"/>
<path d="M130.886 391H129.409L133.682 379.364H135.136L139.409 391H137.932L134.455 381.205H134.364L130.886 391ZM131.432 386.455H137.386V387.705H131.432V386.455Z" fill="#1565C0"/>
<path d="M586.998 408.377C586.998 411.139 584.759 413.377 581.998 413.377C579.237 413.377 576.998 411.139 576.998 408.377C576.998 405.616 579.237 403.377 581.998 403.377C584.759 403.377 586.998 405.616 586.998 408.377Z" fill="#1565C0"/>
<path d="M586.998 408.377C586.998 411.139 584.759 413.377 581.998 413.377C579.237 413.377 576.998 411.139 576.998 408.377C576.998 405.616 579.237 403.377 581.998 403.377C584.759 403.377 586.998 405.616 586.998 408.377Z" stroke="black" stroke-miterlimit="10" stroke-linecap="round" stroke-linejoin="round"/>
<path d="M587.409 397V385.364H591.477C592.288 385.364 592.956 385.504 593.483 385.784C594.009 386.061 594.402 386.434 594.659 386.903C594.917 387.369 595.045 387.886 595.045 388.455C595.045 388.955 594.956 389.367 594.778 389.693C594.604 390.019 594.373 390.277 594.085 390.466C593.801 390.655 593.492 390.795 593.159 390.886V391C593.515 391.023 593.873 391.148 594.233 391.375C594.593 391.602 594.894 391.928 595.136 392.352C595.379 392.777 595.5 393.295 595.5 393.909C595.5 394.492 595.367 395.017 595.102 395.483C594.837 395.949 594.419 396.318 593.847 396.591C593.275 396.864 592.53 397 591.614 397H587.409ZM588.818 395.75H591.614C592.534 395.75 593.188 395.572 593.574 395.216C593.964 394.856 594.159 394.42 594.159 393.909C594.159 393.515 594.059 393.152 593.858 392.818C593.657 392.481 593.371 392.212 593 392.011C592.629 391.807 592.189 391.705 591.682 391.705H588.818V395.75ZM588.818 390.477H591.432C591.856 390.477 592.239 390.394 592.58 390.227C592.924 390.061 593.197 389.826 593.398 389.523C593.602 389.22 593.705 388.864 593.705 388.455C593.705 387.943 593.527 387.509 593.17 387.153C592.814 386.794 592.25 386.614 591.477 386.614H588.818V390.477Z" fill="#1565C0"/>
<path d="M587.409 397H585.909L587.409 398.5V397ZM587.409 385.364V383.864L585.909 385.364H587.409ZM593.483 385.784L592.778 387.108L592.786 387.112L593.483 385.784ZM594.659 386.903L593.344 387.625L593.346 387.629L594.659 386.903ZM594.778 389.693L593.462 388.974L593.456 388.986L594.778 389.693ZM594.085 390.466L593.261 389.213L593.253 389.218L594.085 390.466ZM593.159 390.886L592.764 389.439L591.659 390.886H593.159ZM593.159 391H591.659L593.064 392.497L593.159 391ZM594.233 391.375L593.432 392.643L593.432 392.643L594.233 391.375ZM595.102 395.483L596.406 396.225L596.406 396.225L595.102 395.483ZM593.847 396.591L593.201 395.237L593.201 395.237L593.847 396.591ZM588.818 395.75H587.318L588.818 397.25V395.75ZM593.574 395.216L594.59 396.319L594.591 396.319L593.574 395.216ZM593.858 392.818L592.569 393.586L592.573 393.592L593.858 392.818ZM593 392.011L592.276 393.325L592.286 393.331L593 392.011ZM588.818 391.705V390.205L587.318 391.705H588.818ZM588.818 390.477H587.318L588.818 391.977V390.477ZM592.58 390.227L591.927 388.877L591.921 388.88L592.58 390.227ZM593.398 389.523L592.154 388.683L592.147 388.694L593.398 389.523ZM593.17 387.153L592.104 388.208L592.11 388.214L593.17 387.153ZM588.818 386.614V385.114L587.318 386.614H588.818ZM588.909 397V385.364H585.909V397H588.909ZM587.409 386.864H591.477V383.864H587.409V386.864ZM591.477 386.864C592.126 386.864 592.532 386.977 592.778 387.108L594.188 384.46C593.381 384.03 592.45 383.864 591.477 383.864V386.864ZM592.786 387.112C593.081 387.267 593.243 387.442 593.344 387.625L595.974 386.182C595.56 385.426 594.938 384.854 594.18 384.456L592.786 387.112ZM593.346 387.629C593.473 387.858 593.545 388.123 593.545 388.455H596.545C596.545 387.65 596.36 386.881 595.972 386.178L593.346 387.629ZM593.545 388.455C593.545 388.787 593.485 388.932 593.462 388.974L596.095 390.413C596.428 389.803 596.545 389.122 596.545 388.455H593.545ZM593.456 388.986C593.391 389.107 593.325 389.171 593.261 389.213L594.91 391.719C595.421 391.382 595.818 390.931 596.101 390.401L593.456 388.986ZM593.253 389.218C593.105 389.317 592.944 389.39 592.764 389.439L593.554 392.334C594.041 392.201 594.497 391.994 594.917 391.714L593.253 389.218ZM591.659 390.886V391H594.659V390.886H591.659ZM593.064 392.497C593.125 392.501 593.244 392.524 593.432 392.643L595.034 390.107C594.503 389.771 593.905 389.545 593.255 389.503L593.064 392.497ZM593.432 392.643C593.555 392.721 593.695 392.854 593.834 393.096L596.439 391.608C596.093 391.003 595.63 390.483 595.034 390.107L593.432 392.643ZM593.834 393.096C593.918 393.243 594 393.491 594 393.909H597C597 393.1 596.84 392.31 596.439 391.608L593.834 393.096ZM594 393.909C594 394.256 593.924 394.521 593.799 394.741L596.406 396.225C596.811 395.513 597 394.729 597 393.909H594ZM593.799 394.741C593.711 394.895 593.548 395.072 593.201 395.237L594.492 397.945C595.289 397.565 595.963 397.003 596.406 396.225L593.799 394.741ZM593.201 395.237C592.9 395.38 592.399 395.5 591.614 395.5V398.5C592.661 398.5 593.649 398.347 594.492 397.945L593.201 395.237ZM591.614 395.5H587.409V398.5H591.614V395.5ZM588.818 397.25H591.614V394.25H588.818V397.25ZM591.614 397.25C592.652 397.25 593.782 397.064 594.59 396.319L592.557 394.113C592.585 394.088 592.559 394.126 592.4 394.169C592.238 394.213 591.985 394.25 591.614 394.25V397.25ZM594.591 396.319C595.276 395.687 595.659 394.857 595.659 393.909H592.659C592.659 393.969 592.649 393.995 592.644 394.006C592.638 394.019 592.619 394.056 592.557 394.113L594.591 396.319ZM595.659 393.909C595.659 393.246 595.486 392.614 595.143 392.044L592.573 393.592C592.631 393.689 592.659 393.784 592.659 393.909H595.659ZM595.147 392.051C594.797 391.464 594.304 391.011 593.714 390.692L592.286 393.331C592.438 393.413 592.517 393.499 592.569 393.586L595.147 392.051ZM593.724 390.698C593.091 390.349 592.393 390.205 591.682 390.205V393.205C591.986 393.205 592.167 393.265 592.276 393.325L593.724 390.698ZM591.682 390.205H588.818V393.205H591.682V390.205ZM587.318 391.705V395.75H590.318V391.705H587.318ZM588.818 391.977H591.432V388.977H588.818V391.977ZM591.432 391.977C592.057 391.977 592.669 391.853 593.238 391.575L591.921 388.88C591.808 388.935 591.655 388.977 591.432 388.977V391.977ZM593.232 391.578C593.806 391.3 594.291 390.891 594.648 390.351L592.147 388.694C592.103 388.761 592.042 388.821 591.927 388.877L593.232 391.578ZM594.641 390.362C595.032 389.782 595.205 389.126 595.205 388.455H592.205C592.205 388.601 592.172 388.657 592.154 388.684L594.641 390.362ZM595.205 388.455C595.205 387.552 594.873 386.735 594.231 386.093L592.11 388.214C592.18 388.284 592.205 388.334 592.205 388.455H595.205ZM594.237 386.098C593.481 385.334 592.443 385.114 591.477 385.114V388.114C592.057 388.114 592.148 388.253 592.104 388.208L594.237 386.098ZM591.477 385.114H588.818V388.114H591.477V385.114ZM587.318 386.614V390.477H590.318V386.614H587.318Z" fill="white"/>
<path d="M587.409 397V385.364H591.477C592.288 385.364 592.956 385.504 593.483 385.784C594.009 386.061 594.402 386.434 594.659 386.903C594.917 387.369 595.045 387.886 595.045 388.455C595.045 388.955 594.956 389.367 594.778 389.693C594.604 390.019 594.373 390.277 594.085 390.466C593.801 390.655 593.492 390.795 593.159 390.886V391C593.515 391.023 593.873 391.148 594.233 391.375C594.593 391.602 594.894 391.928 595.136 392.352C595.379 392.777 595.5 393.295 595.5 393.909C595.5 394.492 595.367 395.017 595.102 395.483C594.837 395.949 594.419 396.318 593.847 396.591C593.275 396.864 592.53 397 591.614 397H587.409ZM588.818 395.75H591.614C592.534 395.75 593.188 395.572 593.574 395.216C593.964 394.856 594.159 394.42 594.159 393.909C594.159 393.515 594.059 393.152 593.858 392.818C593.657 392.481 593.371 392.212 593 392.011C592.629 391.807 592.189 391.705 591.682 391.705H588.818V395.75ZM588.818 390.477H591.432C591.856 390.477 592.239 390.394 592.58 390.227C592.924 390.061 593.197 389.826 593.398 389.523C593.602 389.22 593.705 388.864 593.705 388.455C593.705 387.943 593.527 387.509 593.17 387.153C592.814 386.794 592.25 386.614 591.477 386.614H588.818V390.477Z" fill="#1565C0"/>
<path d="M277.188 44.3925C277.188 47.1539 274.949 49.3925 272.188 49.3925C269.426 49.3925 267.188 47.1539 267.188 44.3925C267.188 41.6311 269.426 39.3925 272.188 39.3925C274.949 39.3925 277.188 41.6311 277.188 44.3925Z" fill="#1565C0"/>
<path d="M277.188 44.3925C277.188 47.1539 274.949 49.3925 272.188 49.3925C269.426 49.3925 267.188 47.1539 267.188 44.3925C267.188 41.6311 269.426 39.3925 272.188 39.3925C274.949 39.3925 277.188 41.6311 277.188 44.3925Z" stroke="black" stroke-miterlimit="10" stroke-linecap="round" stroke-linejoin="round"/>
<path d="M286.773 25H285.364C285.28 24.5947 285.134 24.2386 284.926 23.9318C284.722 23.625 284.472 23.3674 284.176 23.1591C283.884 22.947 283.561 22.7879 283.205 22.6818C282.848 22.5758 282.477 22.5227 282.091 22.5227C281.386 22.5227 280.748 22.7008 280.176 23.0568C279.608 23.4129 279.155 23.9375 278.818 24.6307C278.485 25.3239 278.318 26.1742 278.318 27.1818C278.318 28.1894 278.485 29.0398 278.818 29.733C279.155 30.4261 279.608 30.9508 280.176 31.3068C280.748 31.6629 281.386 31.8409 282.091 31.8409C282.477 31.8409 282.848 31.7879 283.205 31.6818C283.561 31.5758 283.884 31.4186 284.176 31.2102C284.472 30.9981 284.722 30.7386 284.926 30.4318C285.134 30.1212 285.28 29.7652 285.364 29.3636H286.773C286.667 29.9583 286.473 30.4905 286.193 30.9602C285.913 31.4299 285.564 31.8295 285.148 32.1591C284.731 32.4848 284.263 32.733 283.744 32.9034C283.229 33.0739 282.678 33.1591 282.091 33.1591C281.098 33.1591 280.216 32.9167 279.443 32.4318C278.67 31.947 278.063 31.2576 277.619 30.3636C277.176 29.4697 276.955 28.4091 276.955 27.1818C276.955 25.9545 277.176 24.8939 277.619 24C278.063 23.1061 278.67 22.4167 279.443 21.9318C280.216 21.447 281.098 21.2045 282.091 21.2045C282.678 21.2045 283.229 21.2898 283.744 21.4602C284.263 21.6307 284.731 21.8807 285.148 22.2102C285.564 22.536 285.913 22.9337 286.193 23.4034C286.473 23.8693 286.667 24.4015 286.773 25Z" fill="#1565C0"/>
<path d="M286.773 25V26.5L288.25 24.7383L286.773 25ZM285.364 25L283.894 25.3021L285.364 26.5V25ZM284.926 23.9318L283.678 24.7639L283.685 24.7744L284.926 23.9318ZM284.176 23.1591L283.294 24.3722L283.312 24.385L284.176 23.1591ZM283.205 22.6818L282.776 24.1194L282.776 24.1194L283.205 22.6818ZM280.176 23.0568L279.383 21.7834L279.38 21.7858L280.176 23.0568ZM278.818 24.6307L277.469 23.9746L277.466 23.9806L278.818 24.6307ZM278.818 29.733L277.466 30.383L277.469 30.389L278.818 29.733ZM280.176 31.3068L279.38 32.5779L279.383 32.5802L280.176 31.3068ZM283.205 31.6818L282.776 30.2442L282.776 30.2442L283.205 31.6818ZM284.176 31.2102L285.048 32.4308L285.051 32.4287L284.176 31.2102ZM284.926 30.4318L283.68 29.5963L283.678 29.5998L284.926 30.4318ZM285.364 29.3636V27.8636L283.895 29.0588L285.364 29.3636ZM286.773 29.3636L288.249 29.627L286.773 27.8636V29.3636ZM286.193 30.9602L284.905 30.1915L284.905 30.1915L286.193 30.9602ZM285.148 32.1591L286.072 33.3408L286.078 33.3356L285.148 32.1591ZM283.744 32.9034L283.276 31.4783L283.273 31.4793L283.744 32.9034ZM279.443 32.4318L278.646 33.7024L278.646 33.7024L279.443 32.4318ZM277.619 30.3636L278.963 29.6974L278.963 29.6974L277.619 30.3636ZM277.619 24L276.275 23.3337L277.619 24ZM283.744 21.4602L283.273 22.8843L283.276 22.8853L283.744 21.4602ZM285.148 22.2102L284.217 23.3867L284.224 23.3919L285.148 22.2102ZM286.193 23.4034L284.905 24.1721L284.908 24.1767L286.193 23.4034ZM286.773 23.5H285.364V26.5H286.773V23.5ZM286.833 24.6979C286.714 24.1215 286.499 23.5773 286.167 23.0892L283.685 24.7744C283.77 24.9 283.846 25.0679 283.894 25.3021L286.833 24.6979ZM286.174 23.0998C285.869 22.6423 285.49 22.2502 285.041 21.9332L283.312 24.385C283.453 24.4846 283.574 24.6077 283.678 24.7639L286.174 23.0998ZM285.058 21.946C284.625 21.6308 284.147 21.3974 283.633 21.2442L282.776 24.1194C282.974 24.1784 283.144 24.2631 283.294 24.3722L285.058 21.946ZM283.633 21.2442C283.132 21.0952 282.616 21.0227 282.091 21.0227V24.0227C282.338 24.0227 282.565 24.0564 282.776 24.1194L283.633 21.2442ZM282.091 21.0227C281.12 21.0227 280.204 21.2723 279.383 21.7834L280.969 24.3302C281.292 24.1292 281.653 24.0227 282.091 24.0227V21.0227ZM279.38 21.7858C278.539 22.3123 277.91 23.0674 277.469 23.9746L280.167 25.2867C280.4 24.8076 280.677 24.5134 280.973 24.3279L279.38 21.7858ZM277.466 23.9806C277.01 24.9294 276.818 26.0161 276.818 27.1818H279.818C279.818 26.3324 279.96 25.7184 280.17 25.2807L277.466 23.9806ZM276.818 27.1818C276.818 28.3475 277.01 29.4343 277.466 30.383L280.17 29.0829C279.96 28.6453 279.818 28.0313 279.818 27.1818H276.818ZM277.469 30.389C277.91 31.2963 278.539 32.0513 279.38 32.5779L280.973 30.0358C280.677 29.8502 280.4 29.556 280.167 29.0769L277.469 30.389ZM279.383 32.5802C280.204 33.0913 281.12 33.3409 282.091 33.3409V30.3409C281.653 30.3409 281.292 30.2344 280.969 30.0334L279.383 32.5802ZM282.091 33.3409C282.616 33.3409 283.132 33.2685 283.633 33.1194L282.776 30.2442C282.565 30.3073 282.338 30.3409 282.091 30.3409V33.3409ZM283.633 33.1194C284.142 32.9678 284.617 32.739 285.048 32.4308L283.304 29.9896C283.152 30.0981 282.979 30.1837 282.776 30.2442L283.633 33.1194ZM285.051 32.4287C285.495 32.1098 285.871 31.7188 286.174 31.2639L283.678 29.5998C283.572 29.7585 283.448 29.8864 283.301 29.9917L285.051 32.4287ZM286.172 31.2674C286.498 30.781 286.713 30.2413 286.832 29.6685L283.895 29.0588C283.847 29.289 283.771 29.4614 283.68 29.5963L286.172 31.2674ZM285.364 30.8636H286.773V27.8636H285.364V30.8636ZM285.296 29.1003C285.218 29.5351 285.083 29.8929 284.905 30.1915L287.481 31.7289C287.864 31.0881 288.115 30.3816 288.249 29.627L285.296 29.1003ZM284.905 30.1915C284.715 30.5094 284.487 30.7695 284.217 30.9826L286.078 33.3356C286.642 32.8896 287.11 32.3504 287.481 31.7289L284.905 30.1915ZM284.224 30.9774C283.948 31.1928 283.636 31.3602 283.276 31.4783L284.212 34.3285C284.891 34.1057 285.514 33.7769 286.072 33.3408L284.224 30.9774ZM283.273 31.4793C282.922 31.5955 282.531 31.6591 282.091 31.6591V34.6591C282.825 34.6591 283.536 34.5522 284.216 34.3275L283.273 31.4793ZM282.091 31.6591C281.355 31.6591 280.753 31.4831 280.24 31.1612L278.646 33.7024C279.678 34.3503 280.842 34.6591 282.091 34.6591V31.6591ZM280.24 31.1612C279.724 30.8372 279.295 30.3673 278.963 29.6974L276.275 31.0299C276.83 32.1478 277.617 33.0568 278.646 33.7024L280.24 31.1612ZM278.963 29.6974C278.644 29.0527 278.455 28.2301 278.455 27.1818H275.455C275.455 28.5881 275.709 29.8867 276.275 31.0299L278.963 29.6974ZM278.455 27.1818C278.455 26.1335 278.644 25.3109 278.963 24.6663L276.275 23.3337C275.709 24.4769 275.455 25.7756 275.455 27.1818H278.455ZM278.963 24.6663C279.295 23.9963 279.724 23.5265 280.24 23.2024L278.646 20.6612C277.617 21.3069 276.83 22.2158 276.275 23.3337L278.963 24.6663ZM280.24 23.2024C280.753 22.8806 281.355 22.7045 282.091 22.7045V19.7045C280.842 19.7045 279.678 20.0134 278.646 20.6612L280.24 23.2024ZM282.091 22.7045C282.531 22.7045 282.922 22.7681 283.273 22.8843L284.216 20.0362C283.536 19.8114 282.825 19.7045 282.091 19.7045V22.7045ZM283.276 22.8853C283.632 23.0023 283.943 23.1697 284.217 23.3867L286.078 21.0337C285.519 20.5917 284.894 20.259 284.212 20.0351L283.276 22.8853ZM284.224 23.3919C284.49 23.5998 284.716 23.8558 284.905 24.1721L287.481 22.6347C287.109 22.0116 286.639 21.4722 286.072 21.0285L284.224 23.3919ZM284.908 24.1767C285.083 24.4678 285.218 24.8229 285.296 25.2617L288.25 24.7383C288.115 23.9802 287.864 23.2708 287.478 22.6301L284.908 24.1767Z" fill="white"/>
<path d="M286.773 25H285.364C285.28 24.5947 285.134 24.2386 284.926 23.9318C284.722 23.625 284.472 23.3674 284.176 23.1591C283.884 22.947 283.561 22.7879 283.205 22.6818C282.848 22.5758 282.477 22.5227 282.091 22.5227C281.386 22.5227 280.748 22.7008 280.176 23.0568C279.608 23.4129 279.155 23.9375 278.818 24.6307C278.485 25.3239 278.318 26.1742 278.318 27.1818C278.318 28.1894 278.485 29.0398 278.818 29.733C279.155 30.4261 279.608 30.9508 280.176 31.3068C280.748 31.6629 281.386 31.8409 282.091 31.8409C282.477 31.8409 282.848 31.7879 283.205 31.6818C283.561 31.5758 283.884 31.4186 284.176 31.2102C284.472 30.9981 284.722 30.7386 284.926 30.4318C285.134 30.1212 285.28 29.7652 285.364 29.3636H286.773C286.667 29.9583 286.473 30.4905 286.193 30.9602C285.913 31.4299 285.564 31.8295 285.148 32.1591C284.731 32.4848 284.263 32.733 283.744 32.9034C283.229 33.0739 282.678 33.1591 282.091 33.1591C281.098 33.1591 280.216 32.9167 279.443 32.4318C278.67 31.947 278.063 31.2576 277.619 30.3636C277.176 29.4697 276.955 28.4091 276.955 27.1818C276.955 25.9545 277.176 24.8939 277.619 24C278.063 23.1061 278.67 22.4167 279.443 21.9318C280.216 21.447 281.098 21.2045 282.091 21.2045C282.678 21.2045 283.229 21.2898 283.744 21.4602C284.263 21.6307 284.731 21.8807 285.148 22.2102C285.564 22.536 285.913 22.9337 286.193 23.4034C286.473 23.8693 286.667 24.4015 286.773 25Z" fill="#1565C0"/>
<path d="M431.092 226.385C431.092 228.594 429.301 230.385 427.092 230.385C424.883 230.385 423.092 228.594 423.092 226.385C423.092 224.176 424.883 222.385 427.092 222.385C429.301 222.385 431.092 224.176 431.092 226.385Z" fill="#616161"/>
<path d="M431.092 226.385C431.092 228.594 429.301 230.385 427.092 230.385C424.883 230.385 423.092 228.594 423.092 226.385C423.092 224.176 424.883 222.385 427.092 222.385C429.301 222.385 431.092 224.176 431.092 226.385Z" stroke="black" stroke-miterlimit="10" stroke-linecap="round" stroke-linejoin="round"/>
<path d="M432.886 217H431.409L435.682 205.364H437.136L441.409 217H439.932L436.455 207.205H436.364L432.886 217ZM433.432 212.455H439.386V213.705H433.432V212.455Z" fill="#616161"/>
<path d="M432.886 217V218.5L434.3 217.502L432.886 217ZM431.409 217L430.001 216.483L431.409 218.5V217ZM435.682 205.364V203.864L434.274 204.847L435.682 205.364ZM437.136 205.364L438.544 204.847L437.136 203.864V205.364ZM441.409 217V218.5L442.817 216.483L441.409 217ZM439.932 217L438.518 217.502L439.932 218.5V217ZM436.455 207.205L437.868 206.703L436.455 205.705V207.205ZM436.364 207.205V205.705L434.95 206.703L436.364 207.205ZM433.432 212.455V210.955L431.932 212.455H433.432ZM439.386 212.455H440.886L439.386 210.955V212.455ZM439.386 213.705V215.205L440.886 213.705H439.386ZM433.432 213.705H431.932L433.432 215.205V213.705ZM432.886 215.5H431.409V218.5H432.886V215.5ZM432.817 217.517L437.09 205.881L434.274 204.847L430.001 216.483L432.817 217.517ZM435.682 206.864H437.136V203.864H435.682V206.864ZM435.728 205.881L440.001 217.517L442.817 216.483L438.544 204.847L435.728 205.881ZM441.409 215.5H439.932V218.5H441.409V215.5ZM441.345 216.498L437.868 206.703L435.041 207.706L438.518 217.502L441.345 216.498ZM436.455 205.705H436.364V208.705H436.455V205.705ZM434.95 206.703L431.473 216.498L434.3 217.502L437.777 207.706L434.95 206.703ZM433.432 213.955H439.386V210.955H433.432V213.955ZM437.886 212.455V213.705H440.886V212.455H437.886ZM439.386 212.205H433.432V215.205H439.386V212.205ZM434.932 213.705V212.455H431.932V213.705H434.932Z" fill="white"/>
<path d="M432.886 217H431.409L435.682 205.364H437.136L441.409 217H439.932L436.455 207.205H436.364L432.886 217ZM433.432 212.455H439.386V213.705H433.432V212.455Z" fill="#616161"/>
<path d="M446.634 214.818V225H445.401V216.111H445.341L442.855 217.761V216.509L445.401 214.818H446.634Z" fill="#616161"/>
<path d="M446.634 214.818H448.134L446.634 213.318V214.818ZM446.634 225V226.5L448.134 225H446.634ZM445.401 225H443.901L445.401 226.5V225ZM445.401 216.111H446.901L445.401 214.611V216.111ZM445.341 216.111V214.611L444.511 214.861L445.341 216.111ZM442.855 217.761H441.355L443.685 219.011L442.855 217.761ZM442.855 216.509L442.025 215.259L441.355 216.509H442.855ZM445.401 214.818V213.318L444.571 213.569L445.401 214.818ZM445.134 214.818V225H448.134V214.818H445.134ZM446.634 223.5H445.401V226.5H446.634V223.5ZM446.901 225V216.111H443.901V225H446.901ZM445.401 214.611H445.341V217.611H445.401V214.611ZM444.511 214.861L442.025 216.512L443.685 219.011L446.171 217.36L444.511 214.861ZM444.355 217.761V216.509H441.355V217.761H444.355ZM443.685 217.758L446.23 216.068L444.571 213.569L442.025 215.259L443.685 217.758ZM445.401 216.318H446.634V213.318H445.401V216.318Z" fill="white"/>
<path d="M446.634 214.818V225H445.401V216.111H445.341L442.855 217.761V216.509L445.401 214.818H446.634Z" fill="#616161"/>
<path d="M202.543 222.999C202.543 225.208 200.752 226.999 198.543 226.999C196.334 226.999 194.543 225.208 194.543 222.999C194.543 220.79 196.334 218.999 198.543 218.999C200.752 218.999 202.543 220.79 202.543 222.999Z" fill="#616161"/>
<path d="M202.543 222.999C202.543 225.208 200.752 226.999 198.543 226.999C196.334 226.999 194.543 225.208 194.543 222.999C194.543 220.79 196.334 218.999 198.543 218.999C200.752 218.999 202.543 220.79 202.543 222.999Z" stroke="black" stroke-miterlimit="10" stroke-linecap="round" stroke-linejoin="round"/>
<path d="M204.409 214V202.364H208.477C209.288 202.364 209.956 202.504 210.483 202.784C211.009 203.061 211.402 203.434 211.659 203.903C211.917 204.369 212.045 204.886 212.045 205.455C212.045 205.955 211.956 206.367 211.778 206.693C211.604 207.019 211.373 207.277 211.085 207.466C210.801 207.655 210.492 207.795 210.159 207.886V208C210.515 208.023 210.873 208.148 211.233 208.375C211.593 208.602 211.894 208.928 212.136 209.352C212.379 209.777 212.5 210.295 212.5 210.909C212.5 211.492 212.367 212.017 212.102 212.483C211.837 212.949 211.419 213.318 210.847 213.591C210.275 213.864 209.53 214 208.614 214H204.409ZM205.818 212.75H208.614C209.534 212.75 210.188 212.572 210.574 212.216C210.964 211.856 211.159 211.42 211.159 210.909C211.159 210.515 211.059 210.152 210.858 209.818C210.657 209.481 210.371 209.212 210 209.011C209.629 208.807 209.189 208.705 208.682 208.705H205.818V212.75ZM205.818 207.477H208.432C208.856 207.477 209.239 207.394 209.58 207.227C209.924 207.061 210.197 206.826 210.398 206.523C210.602 206.22 210.705 205.864 210.705 205.455C210.705 204.943 210.527 204.509 210.17 204.153C209.814 203.794 209.25 203.614 208.477 203.614H205.818V207.477Z" fill="#616161"/>
<path d="M204.409 214H202.909L204.409 215.5V214ZM204.409 202.364V200.864L202.909 202.364H204.409ZM210.483 202.784L209.778 204.108L209.786 204.112L210.483 202.784ZM211.659 203.903L210.344 204.625L210.346 204.629L211.659 203.903ZM211.778 206.693L210.462 205.974L210.456 205.986L211.778 206.693ZM211.085 207.466L210.261 206.213L210.253 206.218L211.085 207.466ZM210.159 207.886L209.764 206.439L208.659 207.886H210.159ZM210.159 208H208.659L210.064 209.497L210.159 208ZM211.233 208.375L210.432 209.643L210.432 209.643L211.233 208.375ZM212.102 212.483L213.406 213.225L213.406 213.225L212.102 212.483ZM210.847 213.591L210.201 212.237L210.201 212.237L210.847 213.591ZM205.818 212.75H204.318L205.818 214.25V212.75ZM210.574 212.216L211.59 213.319L211.591 213.319L210.574 212.216ZM210.858 209.818L209.569 210.586L209.573 210.592L210.858 209.818ZM210 209.011L209.276 210.325L209.286 210.331L210 209.011ZM205.818 208.705V207.205L204.318 208.705H205.818ZM205.818 207.477H204.318L205.818 208.977V207.477ZM209.58 207.227L208.927 205.877L208.921 205.88L209.58 207.227ZM210.398 206.523L209.154 205.683L209.147 205.694L210.398 206.523ZM210.17 204.153L209.104 205.208L209.11 205.214L210.17 204.153ZM205.818 203.614V202.114L204.318 203.614H205.818ZM205.909 214V202.364H202.909V214H205.909ZM204.409 203.864H208.477V200.864H204.409V203.864ZM208.477 203.864C209.126 203.864 209.532 203.977 209.778 204.108L211.188 201.46C210.381 201.03 209.45 200.864 208.477 200.864V203.864ZM209.786 204.112C210.081 204.267 210.243 204.442 210.344 204.625L212.974 203.182C212.56 202.426 211.938 201.854 211.18 201.456L209.786 204.112ZM210.346 204.629C210.473 204.858 210.545 205.123 210.545 205.455H213.545C213.545 204.65 213.36 203.881 212.972 203.178L210.346 204.629ZM210.545 205.455C210.545 205.787 210.485 205.932 210.462 205.974L213.095 207.413C213.428 206.803 213.545 206.122 213.545 205.455H210.545ZM210.456 205.986C210.391 206.107 210.325 206.171 210.261 206.213L211.91 208.719C212.421 208.382 212.818 207.931 213.101 207.401L210.456 205.986ZM210.253 206.218C210.105 206.317 209.944 206.39 209.764 206.439L210.554 209.334C211.041 209.201 211.497 208.994 211.917 208.714L210.253 206.218ZM208.659 207.886V208H211.659V207.886H208.659ZM210.064 209.497C210.125 209.501 210.244 209.524 210.432 209.643L212.034 207.107C211.503 206.771 210.905 206.545 210.255 206.503L210.064 209.497ZM210.432 209.643C210.555 209.721 210.695 209.854 210.834 210.096L213.439 208.608C213.093 208.003 212.63 207.483 212.034 207.107L210.432 209.643ZM210.834 210.096C210.918 210.243 211 210.491 211 210.909H214C214 210.1 213.84 209.31 213.439 208.608L210.834 210.096ZM211 210.909C211 211.256 210.924 211.521 210.799 211.741L213.406 213.225C213.811 212.513 214 211.729 214 210.909H211ZM210.799 211.741C210.711 211.895 210.548 212.072 210.201 212.237L211.492 214.945C212.289 214.565 212.963 214.003 213.406 213.225L210.799 211.741ZM210.201 212.237C209.9 212.38 209.399 212.5 208.614 212.5V215.5C209.661 215.5 210.649 215.347 211.492 214.945L210.201 212.237ZM208.614 212.5H204.409V215.5H208.614V212.5ZM205.818 214.25H208.614V211.25H205.818V214.25ZM208.614 214.25C209.652 214.25 210.782 214.064 211.59 213.319L209.557 211.113C209.585 211.088 209.559 211.126 209.4 211.169C209.238 211.213 208.985 211.25 208.614 211.25V214.25ZM211.591 213.319C212.276 212.687 212.659 211.857 212.659 210.909H209.659C209.659 210.969 209.649 210.995 209.644 211.006C209.638 211.019 209.619 211.056 209.557 211.113L211.591 213.319ZM212.659 210.909C212.659 210.246 212.486 209.614 212.143 209.044L209.573 210.592C209.631 210.689 209.659 210.784 209.659 210.909H212.659ZM212.147 209.051C211.797 208.464 211.304 208.011 210.714 207.692L209.286 210.331C209.438 210.413 209.517 210.499 209.569 210.586L212.147 209.051ZM210.724 207.698C210.091 207.349 209.393 207.205 208.682 207.205V210.205C208.986 210.205 209.167 210.265 209.276 210.325L210.724 207.698ZM208.682 207.205H205.818V210.205H208.682V207.205ZM204.318 208.705V212.75H207.318V208.705H204.318ZM205.818 208.977H208.432V205.977H205.818V208.977ZM208.432 208.977C209.057 208.977 209.669 208.853 210.238 208.575L208.921 205.88C208.808 205.935 208.655 205.977 208.432 205.977V208.977ZM210.232 208.578C210.806 208.3 211.291 207.891 211.648 207.351L209.147 205.694C209.103 205.761 209.042 205.821 208.927 205.877L210.232 208.578ZM211.641 207.362C212.032 206.782 212.205 206.126 212.205 205.455H209.205C209.205 205.601 209.172 205.657 209.154 205.684L211.641 207.362ZM212.205 205.455C212.205 204.552 211.873 203.735 211.231 203.093L209.11 205.214C209.18 205.284 209.205 205.334 209.205 205.455H212.205ZM211.237 203.098C210.481 202.334 209.443 202.114 208.477 202.114V205.114C209.057 205.114 209.148 205.253 209.104 205.208L211.237 203.098ZM208.477 202.114H205.818V205.114H208.477V202.114ZM204.318 203.614V207.477H207.318V203.614H204.318Z" fill="white"/>
<path d="M204.409 214V202.364H208.477C209.288 202.364 209.956 202.504 210.483 202.784C211.009 203.061 211.402 203.434 211.659 203.903C211.917 204.369 212.045 204.886 212.045 205.455C212.045 205.955 211.956 206.367 211.778 206.693C211.604 207.019 211.373 207.277 211.085 207.466C210.801 207.655 210.492 207.795 210.159 207.886V208C210.515 208.023 210.873 208.148 211.233 208.375C211.593 208.602 211.894 208.928 212.136 209.352C212.379 209.777 212.5 210.295 212.5 210.909C212.5 211.492 212.367 212.017 212.102 212.483C211.837 212.949 211.419 213.318 210.847 213.591C210.275 213.864 209.53 214 208.614 214H204.409ZM205.818 212.75H208.614C209.534 212.75 210.188 212.572 210.574 212.216C210.964 211.856 211.159 211.42 211.159 210.909C211.159 210.515 211.059 210.152 210.858 209.818C210.657 209.481 210.371 209.212 210 209.011C209.629 208.807 209.189 208.705 208.682 208.705H205.818V212.75ZM205.818 207.477H208.432C208.856 207.477 209.239 207.394 209.58 207.227C209.924 207.061 210.197 206.826 210.398 206.523C210.602 206.22 210.705 205.864 210.705 205.455C210.705 204.943 210.527 204.509 210.17 204.153C209.814 203.794 209.25 203.614 208.477 203.614H205.818V207.477Z" fill="#616161"/>
<path d="M218.634 211.818V222H217.401V213.111H217.341L214.855 214.761V213.509L217.401 211.818H218.634Z" fill="#616161"/>
<path d="M218.634 211.818H220.134L218.634 210.318V211.818ZM218.634 222V223.5L220.134 222H218.634ZM217.401 222H215.901L217.401 223.5V222ZM217.401 213.111H218.901L217.401 211.611V213.111ZM217.341 213.111V211.611L216.511 211.861L217.341 213.111ZM214.855 214.761H213.355L215.685 216.011L214.855 214.761ZM214.855 213.509L214.025 212.259L213.355 213.509H214.855ZM217.401 211.818V210.318L216.571 210.569L217.401 211.818ZM217.134 211.818V222H220.134V211.818H217.134ZM218.634 220.5H217.401V223.5H218.634V220.5ZM218.901 222V213.111H215.901V222H218.901ZM217.401 211.611H217.341V214.611H217.401V211.611ZM216.511 211.861L214.025 213.512L215.685 216.011L218.171 214.36L216.511 211.861ZM216.355 214.761V213.509H213.355V214.761H216.355ZM215.685 214.758L218.23 213.068L216.571 210.569L214.025 212.259L215.685 214.758ZM217.401 213.318H218.634V210.318H217.401V213.318Z" fill="white"/>
<path d="M218.634 211.818V222H217.401V213.111H217.341L214.855 214.761V213.509L217.401 211.818H218.634Z" fill="#616161"/>
<path d="M330.361 284.792C330.361 287.001 328.57 288.792 326.361 288.792C324.152 288.792 322.361 287.001 322.361 284.792C322.361 282.583 324.152 280.792 326.361 280.792C328.57 280.792 330.361 282.583 330.361 284.792Z" fill="#616161"/>
<path d="M330.361 284.792C330.361 287.001 328.57 288.792 326.361 288.792C324.152 288.792 322.361 287.001 322.361 284.792C322.361 282.583 324.152 280.792 326.361 280.792C328.57 280.792 330.361 282.583 330.361 284.792Z" stroke="black" stroke-miterlimit="10" stroke-linecap="round" stroke-linejoin="round"/>
<path d="M341.227 270.182C341.227 271.409 341.006 272.47 340.562 273.364C340.119 274.258 339.511 274.947 338.739 275.432C337.966 275.917 337.083 276.159 336.091 276.159C335.098 276.159 334.216 275.917 333.443 275.432C332.67 274.947 332.063 274.258 331.619 273.364C331.176 272.47 330.955 271.409 330.955 270.182C330.955 268.955 331.176 267.894 331.619 267C332.063 266.106 332.67 265.417 333.443 264.932C334.216 264.447 335.098 264.205 336.091 264.205C337.083 264.205 337.966 264.447 338.739 264.932C339.511 265.417 340.119 266.106 340.562 267C341.006 267.894 341.227 268.955 341.227 270.182ZM339.864 270.182C339.864 269.174 339.695 268.324 339.358 267.631C339.025 266.938 338.572 266.413 338 266.057C337.432 265.701 336.795 265.523 336.091 265.523C335.386 265.523 334.748 265.701 334.176 266.057C333.608 266.413 333.155 266.938 332.818 267.631C332.485 268.324 332.318 269.174 332.318 270.182C332.318 271.189 332.485 272.04 332.818 272.733C333.155 273.426 333.608 273.951 334.176 274.307C334.748 274.663 335.386 274.841 336.091 274.841C336.795 274.841 337.432 274.663 338 274.307C338.572 273.951 339.025 273.426 339.358 272.733C339.695 272.04 339.864 271.189 339.864 270.182Z" fill="#616161"/>
<path d="M340.562 273.364L339.219 272.697L339.219 272.697L340.562 273.364ZM338.739 275.432L339.536 276.702L339.536 276.702L338.739 275.432ZM333.443 275.432L332.646 276.702L332.646 276.702L333.443 275.432ZM331.619 273.364L332.963 272.697L332.963 272.697L331.619 273.364ZM331.619 267L330.275 266.334L331.619 267ZM338.739 264.932L339.536 263.661L339.536 263.661L338.739 264.932ZM340.562 267L339.219 267.666L339.219 267.666L340.562 267ZM339.358 267.631L338.006 268.281L338.009 268.287L339.358 267.631ZM338 266.057L337.203 267.328L337.207 267.33L338 266.057ZM334.176 266.057L333.383 264.783L333.38 264.786L334.176 266.057ZM332.818 267.631L331.469 266.975L331.466 266.981L332.818 267.631ZM332.818 272.733L331.466 273.383L331.469 273.389L332.818 272.733ZM334.176 274.307L333.38 275.578L333.383 275.58L334.176 274.307ZM338 274.307L337.207 273.033L337.203 273.036L338 274.307ZM339.358 272.733L338.009 272.077L338.006 272.083L339.358 272.733ZM339.727 270.182C339.727 271.23 339.538 272.053 339.219 272.697L341.906 274.03C342.473 272.887 342.727 271.588 342.727 270.182H339.727ZM339.219 272.697C338.886 273.367 338.458 273.837 337.941 274.161L339.536 276.702C340.565 276.057 341.352 275.148 341.906 274.03L339.219 272.697ZM337.941 274.161C337.428 274.483 336.827 274.659 336.091 274.659V277.659C337.34 277.659 338.503 277.35 339.536 276.702L337.941 274.161ZM336.091 274.659C335.355 274.659 334.753 274.483 334.24 274.161L332.646 276.702C333.678 277.35 334.842 277.659 336.091 277.659V274.659ZM334.24 274.161C333.724 273.837 333.295 273.367 332.963 272.697L330.275 274.03C330.83 275.148 331.617 276.057 332.646 276.702L334.24 274.161ZM332.963 272.697C332.644 272.053 332.455 271.23 332.455 270.182H329.455C329.455 271.588 329.709 272.887 330.275 274.03L332.963 272.697ZM332.455 270.182C332.455 269.134 332.644 268.311 332.963 267.666L330.275 266.334C329.709 267.477 329.455 268.776 329.455 270.182H332.455ZM332.963 267.666C333.295 266.996 333.724 266.526 334.24 266.202L332.646 263.661C331.617 264.307 330.83 265.216 330.275 266.334L332.963 267.666ZM334.24 266.202C334.753 265.881 335.355 265.705 336.091 265.705V262.705C334.842 262.705 333.678 263.013 332.646 263.661L334.24 266.202ZM336.091 265.705C336.827 265.705 337.428 265.881 337.941 266.202L339.536 263.661C338.503 263.013 337.34 262.705 336.091 262.705V265.705ZM337.941 266.202C338.458 266.526 338.886 266.996 339.219 267.666L341.906 266.334C341.352 265.216 340.565 264.307 339.536 263.661L337.941 266.202ZM339.219 267.666C339.538 268.311 339.727 269.134 339.727 270.182H342.727C342.727 268.776 342.473 267.477 341.906 266.334L339.219 267.666ZM341.364 270.182C341.364 269.014 341.169 267.925 340.707 266.975L338.009 268.287C338.221 268.723 338.364 269.334 338.364 270.182H341.364ZM340.71 266.981C340.271 266.068 339.639 265.31 338.793 264.783L337.207 267.33C337.505 267.515 337.778 267.807 338.006 268.281L340.71 266.981ZM338.797 264.786C337.977 264.272 337.062 264.023 336.091 264.023V267.023C336.529 267.023 336.886 267.129 337.203 267.328L338.797 264.786ZM336.091 264.023C335.12 264.023 334.204 264.272 333.383 264.783L334.969 267.33C335.292 267.129 335.653 267.023 336.091 267.023V264.023ZM333.38 264.786C332.539 265.312 331.91 266.067 331.469 266.975L334.167 268.287C334.4 267.808 334.677 267.513 334.973 267.328L333.38 264.786ZM331.466 266.981C331.01 267.929 330.818 269.016 330.818 270.182H333.818C333.818 269.332 333.96 268.718 334.17 268.281L331.466 266.981ZM330.818 270.182C330.818 271.348 331.01 272.434 331.466 273.383L334.17 272.083C333.96 271.645 333.818 271.031 333.818 270.182H330.818ZM331.469 273.389C331.91 274.296 332.539 275.051 333.38 275.578L334.973 273.036C334.677 272.85 334.4 272.556 334.167 272.077L331.469 273.389ZM333.383 275.58C334.204 276.091 335.12 276.341 336.091 276.341V273.341C335.653 273.341 335.292 273.234 334.969 273.033L333.383 275.58ZM336.091 276.341C337.062 276.341 337.977 276.091 338.797 275.578L337.203 273.036C336.886 273.234 336.529 273.341 336.091 273.341V276.341ZM338.793 275.58C339.639 275.053 340.271 274.296 340.71 273.383L338.006 272.083C337.778 272.557 337.505 272.848 337.207 273.033L338.793 275.58ZM340.707 273.389C341.169 272.439 341.364 271.35 341.364 270.182H338.364C338.364 271.029 338.221 271.641 338.009 272.077L340.707 273.389Z" fill="white"/>
<path d="M341.227 270.182C341.227 271.409 341.006 272.47 340.562 273.364C340.119 274.258 339.511 274.947 338.739 275.432C337.966 275.917 337.083 276.159 336.091 276.159C335.098 276.159 334.216 275.917 333.443 275.432C332.67 274.947 332.063 274.258 331.619 273.364C331.176 272.47 330.955 271.409 330.955 270.182C330.955 268.955 331.176 267.894 331.619 267C332.063 266.106 332.67 265.417 333.443 264.932C334.216 264.447 335.098 264.205 336.091 264.205C337.083 264.205 337.966 264.447 338.739 264.932C339.511 265.417 340.119 266.106 340.562 267C341.006 267.894 341.227 268.955 341.227 270.182ZM339.864 270.182C339.864 269.174 339.695 268.324 339.358 267.631C339.025 266.938 338.572 266.413 338 266.057C337.432 265.701 336.795 265.523 336.091 265.523C335.386 265.523 334.748 265.701 334.176 266.057C333.608 266.413 333.155 266.938 332.818 267.631C332.485 268.324 332.318 269.174 332.318 270.182C332.318 271.189 332.485 272.04 332.818 272.733C333.155 273.426 333.608 273.951 334.176 274.307C334.748 274.663 335.386 274.841 336.091 274.841C336.795 274.841 337.432 274.663 338 274.307C338.572 273.951 339.025 273.426 339.358 272.733C339.695 272.04 339.864 271.189 339.864 270.182Z" fill="#616161"/>
<path d="M229.631 343.199C229.631 345.408 227.84 347.199 225.631 347.199C223.422 347.199 221.631 345.408 221.631 343.199C221.631 340.989 223.422 339.199 225.631 339.199C227.84 339.199 229.631 340.989 229.631 343.199Z" fill="#616161"/>
<path d="M229.631 343.199C229.631 345.408 227.84 347.199 225.631 347.199C223.422 347.199 221.631 345.408 221.631 343.199C221.631 340.989 223.422 339.199 225.631 339.199C227.84 339.199 229.631 340.989 229.631 343.199Z" stroke="black" stroke-miterlimit="10" stroke-linecap="round" stroke-linejoin="round"/>
<path d="M231.886 334H230.409L234.682 322.364H236.136L240.409 334H238.932L235.455 324.205H235.364L231.886 334ZM232.432 329.455H238.386V330.705H232.432V329.455Z" fill="#616161"/>
<path d="M231.886 334V335.5L233.3 334.502L231.886 334ZM230.409 334L229.001 333.483L230.409 335.5V334ZM234.682 322.364V320.864L233.274 321.847L234.682 322.364ZM236.136 322.364L237.544 321.847L236.136 320.864V322.364ZM240.409 334V335.5L241.817 333.483L240.409 334ZM238.932 334L237.518 334.502L238.932 335.5V334ZM235.455 324.205L236.868 323.703L235.455 322.705V324.205ZM235.364 324.205V322.705L233.95 323.703L235.364 324.205ZM232.432 329.455V327.955L230.932 329.455H232.432ZM238.386 329.455H239.886L238.386 327.955V329.455ZM238.386 330.705V332.205L239.886 330.705H238.386ZM232.432 330.705H230.932L232.432 332.205V330.705ZM231.886 332.5H230.409V335.5H231.886V332.5ZM231.817 334.517L236.09 322.881L233.274 321.847L229.001 333.483L231.817 334.517ZM234.682 323.864H236.136V320.864H234.682V323.864ZM234.728 322.881L239.001 334.517L241.817 333.483L237.544 321.847L234.728 322.881ZM240.409 332.5H238.932V335.5H240.409V332.5ZM240.345 333.498L236.868 323.703L234.041 324.706L237.518 334.502L240.345 333.498ZM235.455 322.705H235.364V325.705H235.455V322.705ZM233.95 323.703L230.473 333.498L233.3 334.502L236.777 324.706L233.95 323.703ZM232.432 330.955H238.386V327.955H232.432V330.955ZM236.886 329.455V330.705H239.886V329.455H236.886ZM238.386 329.205H232.432V332.205H238.386V329.205ZM233.932 330.705V329.455H230.932V330.705H233.932Z" fill="white"/>
<path d="M231.886 334H230.409L234.682 322.364H236.136L240.409 334H238.932L235.455 324.205H235.364L231.886 334ZM232.432 329.455H238.386V330.705H232.432V329.455Z" fill="#616161"/>
<path d="M242.054 342V341.105L245.415 337.426C245.809 336.995 246.134 336.621 246.389 336.303C246.644 335.981 246.833 335.679 246.956 335.398C247.082 335.113 247.145 334.814 247.145 334.503C247.145 334.145 247.059 333.835 246.886 333.573C246.717 333.311 246.485 333.109 246.19 332.967C245.895 332.824 245.564 332.753 245.196 332.753C244.805 332.753 244.464 332.834 244.172 332.996C243.884 333.156 243.66 333.379 243.501 333.668C243.345 333.956 243.267 334.294 243.267 334.682H242.094C242.094 334.085 242.231 333.562 242.506 333.111C242.781 332.66 243.156 332.309 243.63 332.057C244.107 331.805 244.643 331.679 245.236 331.679C245.832 331.679 246.361 331.805 246.822 332.057C247.282 332.309 247.644 332.648 247.906 333.076C248.167 333.504 248.298 333.979 248.298 334.503C248.298 334.877 248.23 335.244 248.094 335.602C247.962 335.956 247.73 336.352 247.398 336.79C247.07 337.224 246.615 337.754 246.031 338.381L243.744 340.827V340.906H248.477V342H242.054Z" fill="#616161"/>
<path d="M242.054 342H240.554L242.054 343.5V342ZM242.054 341.105L240.947 340.093L240.554 341.105H242.054ZM245.415 337.426L244.308 336.413L244.307 336.414L245.415 337.426ZM246.389 336.303L247.559 337.241L247.564 337.235L246.389 336.303ZM246.956 335.398L245.584 334.791L245.581 334.799L246.956 335.398ZM246.886 333.573L245.626 334.387L245.633 334.398L246.886 333.573ZM246.19 332.967L246.843 331.616L246.843 331.616L246.19 332.967ZM244.172 332.996L244.896 334.31L244.902 334.307L244.172 332.996ZM243.501 333.668L242.187 332.943L242.181 332.955L243.501 333.668ZM243.267 334.682V336.182L244.767 334.682H243.267ZM242.094 334.682H240.594L242.094 336.182V334.682ZM242.506 333.111L243.787 333.892L243.787 333.892L242.506 333.111ZM243.63 332.057L242.93 330.73L242.926 330.732L243.63 332.057ZM246.822 332.057L247.541 330.741L247.541 330.741L246.822 332.057ZM247.906 333.076L246.626 333.859L247.906 333.076ZM248.094 335.602L246.692 335.069L246.689 335.076L248.094 335.602ZM247.398 336.79L246.203 335.884L246.202 335.885L247.398 336.79ZM246.031 338.381L247.127 339.405L247.129 339.403L246.031 338.381ZM243.744 340.827L242.649 339.802L242.244 340.827H243.744ZM243.744 340.906H242.244L243.744 342.406V340.906ZM248.477 340.906H249.977L248.477 339.406V340.906ZM248.477 342V343.5L249.977 342H248.477ZM243.554 342V341.105H240.554V342H243.554ZM243.161 342.117L246.522 338.438L244.307 336.414L240.947 340.093L243.161 342.117ZM246.521 338.439C246.929 337.993 247.277 337.593 247.559 337.241L245.219 335.364C244.991 335.649 244.689 335.997 244.308 336.413L246.521 338.439ZM247.564 337.235C247.875 336.843 248.143 336.43 248.331 335.996L245.581 334.799C245.524 334.929 245.414 335.119 245.214 335.37L247.564 337.235ZM248.328 336.004C248.538 335.528 248.645 335.023 248.645 334.503H245.645C245.645 334.606 245.626 334.697 245.584 334.791L248.328 336.004ZM248.645 334.503C248.645 333.895 248.495 333.289 248.139 332.748L245.633 334.398C245.632 334.395 245.633 334.395 245.635 334.404C245.638 334.414 245.645 334.445 245.645 334.503H248.645ZM248.147 332.76C247.82 332.254 247.373 331.872 246.843 331.616L245.538 334.317C245.598 334.346 245.614 334.368 245.626 334.387L248.147 332.76ZM246.843 331.616C246.321 331.364 245.762 331.253 245.196 331.253V334.253C245.366 334.253 245.47 334.285 245.538 334.317L246.843 331.616ZM245.196 331.253C244.594 331.253 243.993 331.379 243.442 331.686L244.902 334.307C244.935 334.289 245.016 334.253 245.196 334.253V331.253ZM243.447 331.683C242.911 331.979 242.483 332.407 242.187 332.943L244.814 334.392C244.836 334.352 244.856 334.332 244.896 334.31L243.447 331.683ZM242.181 332.955C241.887 333.499 241.767 334.091 241.767 334.682H244.767C244.767 334.497 244.803 334.413 244.82 334.381L242.181 332.955ZM243.267 333.182H242.094V336.182H243.267V333.182ZM243.594 334.682C243.594 334.324 243.673 334.078 243.787 333.892L241.226 332.329C240.789 333.045 240.594 333.846 240.594 334.682H243.594ZM243.787 333.892C243.919 333.675 244.093 333.509 244.334 333.381L242.926 330.732C242.219 331.108 241.644 331.645 241.226 332.329L243.787 333.892ZM244.33 333.383C244.571 333.256 244.862 333.179 245.236 333.179V330.179C244.423 330.179 243.644 330.353 242.93 330.73L244.33 333.383ZM245.236 333.179C245.616 333.179 245.891 333.257 246.102 333.373L247.541 330.741C246.831 330.353 246.049 330.179 245.236 330.179V333.179ZM246.102 333.373C246.344 333.505 246.508 333.666 246.626 333.859L249.185 332.293C248.78 331.631 248.221 331.112 247.541 330.741L246.102 333.373ZM246.626 333.859C246.737 334.04 246.798 334.243 246.798 334.503H249.798C249.798 333.716 249.598 332.967 249.185 332.293L246.626 333.859ZM246.798 334.503C246.798 334.691 246.765 334.877 246.692 335.069L249.497 336.134C249.696 335.61 249.798 335.063 249.798 334.503H246.798ZM246.689 335.076C246.625 335.248 246.482 335.515 246.203 335.884L248.594 337.696C248.978 337.189 249.299 336.664 249.499 336.127L246.689 335.076ZM246.202 335.885C245.917 336.262 245.499 336.751 244.934 337.358L247.129 339.403C247.73 338.758 248.224 338.186 248.595 337.694L246.202 335.885ZM244.936 337.356L242.649 339.802L244.84 341.851L247.127 339.405L244.936 337.356ZM242.244 340.827V340.906H245.244V340.827H242.244ZM243.744 342.406H248.477V339.406H243.744V342.406ZM246.977 340.906V342H249.977V340.906H246.977ZM248.477 340.5H242.054V343.5H248.477V340.5Z" fill="white"/>
<path d="M242.054 342V341.105L245.415 337.426C245.809 336.995 246.134 336.621 246.389 336.303C246.644 335.981 246.833 335.679 246.956 335.398C247.082 335.113 247.145 334.814 247.145 334.503C247.145 334.145 247.059 333.835 246.886 333.573C246.717 333.311 246.485 333.109 246.19 332.967C245.895 332.824 245.564 332.753 245.196 332.753C244.805 332.753 244.464 332.834 244.172 332.996C243.884 333.156 243.66 333.379 243.501 333.668C243.345 333.956 243.267 334.294 243.267 334.682H242.094C242.094 334.085 242.231 333.562 242.506 333.111C242.781 332.66 243.156 332.309 243.63 332.057C244.107 331.805 244.643 331.679 245.236 331.679C245.832 331.679 246.361 331.805 246.822 332.057C247.282 332.309 247.644 332.648 247.906 333.076C248.167 333.504 248.298 333.979 248.298 334.503C248.298 334.877 248.23 335.244 248.094 335.602C247.962 335.956 247.73 336.352 247.398 336.79C247.07 337.224 246.615 337.754 246.031 338.381L243.744 340.827V340.906H248.477V342H242.054Z" fill="#616161"/>
<path d="M458.18 346.584C458.18 348.794 456.389 350.584 454.18 350.584C451.971 350.584 450.18 348.794 450.18 346.584C450.18 344.375 451.971 342.584 454.18 342.584C456.389 342.584 458.18 344.375 458.18 346.584Z" fill="#616161"/>
<path d="M458.18 346.584C458.18 348.794 456.389 350.584 454.18 350.584C451.971 350.584 450.18 348.794 450.18 346.584C450.18 344.375 451.971 342.584 454.18 342.584C456.389 342.584 458.18 344.375 458.18 346.584Z" stroke="black" stroke-miterlimit="10" stroke-linecap="round" stroke-linejoin="round"/>
<path d="M459.409 338V326.364H463.477C464.288 326.364 464.956 326.504 465.483 326.784C466.009 327.061 466.402 327.434 466.659 327.903C466.917 328.369 467.045 328.886 467.045 329.455C467.045 329.955 466.956 330.367 466.778 330.693C466.604 331.019 466.373 331.277 466.085 331.466C465.801 331.655 465.492 331.795 465.159 331.886V332C465.515 332.023 465.873 332.148 466.233 332.375C466.593 332.602 466.894 332.928 467.136 333.352C467.379 333.777 467.5 334.295 467.5 334.909C467.5 335.492 467.367 336.017 467.102 336.483C466.837 336.949 466.419 337.318 465.847 337.591C465.275 337.864 464.53 338 463.614 338H459.409ZM460.818 336.75H463.614C464.534 336.75 465.188 336.572 465.574 336.216C465.964 335.856 466.159 335.42 466.159 334.909C466.159 334.515 466.059 334.152 465.858 333.818C465.657 333.481 465.371 333.212 465 333.011C464.629 332.807 464.189 332.705 463.682 332.705H460.818V336.75ZM460.818 331.477H463.432C463.856 331.477 464.239 331.394 464.58 331.227C464.924 331.061 465.197 330.826 465.398 330.523C465.602 330.22 465.705 329.864 465.705 329.455C465.705 328.943 465.527 328.509 465.17 328.153C464.814 327.794 464.25 327.614 463.477 327.614H460.818V331.477Z" fill="#616161"/>
<path d="M459.409 338H457.909L459.409 339.5V338ZM459.409 326.364V324.864L457.909 326.364H459.409ZM465.483 326.784L464.778 328.108L464.786 328.112L465.483 326.784ZM466.659 327.903L465.344 328.625L465.346 328.629L466.659 327.903ZM466.778 330.693L465.462 329.974L465.456 329.986L466.778 330.693ZM466.085 331.466L465.261 330.213L465.253 330.218L466.085 331.466ZM465.159 331.886L464.764 330.439L463.659 331.886H465.159ZM465.159 332H463.659L465.064 333.497L465.159 332ZM466.233 332.375L465.432 333.643L465.432 333.643L466.233 332.375ZM467.102 336.483L468.406 337.225L468.406 337.225L467.102 336.483ZM465.847 337.591L465.201 336.237L465.201 336.237L465.847 337.591ZM460.818 336.75H459.318L460.818 338.25V336.75ZM465.574 336.216L466.59 337.319L466.591 337.319L465.574 336.216ZM465.858 333.818L464.569 334.586L464.573 334.592L465.858 333.818ZM465 333.011L464.276 334.325L464.286 334.331L465 333.011ZM460.818 332.705V331.205L459.318 332.705H460.818ZM460.818 331.477H459.318L460.818 332.977V331.477ZM464.58 331.227L463.927 329.877L463.921 329.88L464.58 331.227ZM465.398 330.523L464.154 329.683L464.147 329.694L465.398 330.523ZM465.17 328.153L464.104 329.208L464.11 329.214L465.17 328.153ZM460.818 327.614V326.114L459.318 327.614H460.818ZM460.909 338V326.364H457.909V338H460.909ZM459.409 327.864H463.477V324.864H459.409V327.864ZM463.477 327.864C464.126 327.864 464.532 327.977 464.778 328.108L466.188 325.46C465.381 325.03 464.45 324.864 463.477 324.864V327.864ZM464.786 328.112C465.081 328.267 465.243 328.442 465.344 328.625L467.974 327.182C467.56 326.426 466.938 325.854 466.18 325.456L464.786 328.112ZM465.346 328.629C465.473 328.858 465.545 329.123 465.545 329.455H468.545C468.545 328.65 468.36 327.881 467.972 327.178L465.346 328.629ZM465.545 329.455C465.545 329.787 465.485 329.932 465.462 329.974L468.095 331.413C468.428 330.803 468.545 330.122 468.545 329.455H465.545ZM465.456 329.986C465.391 330.107 465.325 330.171 465.261 330.213L466.91 332.719C467.421 332.382 467.818 331.931 468.101 331.401L465.456 329.986ZM465.253 330.218C465.105 330.317 464.944 330.39 464.764 330.439L465.554 333.334C466.041 333.201 466.497 332.994 466.917 332.714L465.253 330.218ZM463.659 331.886V332H466.659V331.886H463.659ZM465.064 333.497C465.125 333.501 465.244 333.524 465.432 333.643L467.034 331.107C466.503 330.771 465.905 330.545 465.255 330.503L465.064 333.497ZM465.432 333.643C465.555 333.721 465.695 333.854 465.834 334.096L468.439 332.608C468.093 332.003 467.63 331.483 467.034 331.107L465.432 333.643ZM465.834 334.096C465.918 334.243 466 334.491 466 334.909H469C469 334.1 468.84 333.31 468.439 332.608L465.834 334.096ZM466 334.909C466 335.256 465.924 335.521 465.799 335.741L468.406 337.225C468.811 336.513 469 335.729 469 334.909H466ZM465.799 335.741C465.711 335.895 465.548 336.072 465.201 336.237L466.492 338.945C467.289 338.565 467.963 338.003 468.406 337.225L465.799 335.741ZM465.201 336.237C464.9 336.38 464.399 336.5 463.614 336.5V339.5C464.661 339.5 465.649 339.347 466.492 338.945L465.201 336.237ZM463.614 336.5H459.409V339.5H463.614V336.5ZM460.818 338.25H463.614V335.25H460.818V338.25ZM463.614 338.25C464.652 338.25 465.782 338.064 466.59 337.319L464.557 335.113C464.585 335.088 464.559 335.126 464.4 335.169C464.238 335.213 463.985 335.25 463.614 335.25V338.25ZM466.591 337.319C467.276 336.687 467.659 335.857 467.659 334.909H464.659C464.659 334.969 464.649 334.995 464.644 335.006C464.638 335.019 464.619 335.056 464.557 335.113L466.591 337.319ZM467.659 334.909C467.659 334.246 467.486 333.614 467.143 333.044L464.573 334.592C464.631 334.689 464.659 334.784 464.659 334.909H467.659ZM467.147 333.051C466.797 332.464 466.304 332.011 465.714 331.692L464.286 334.331C464.438 334.413 464.517 334.499 464.569 334.586L467.147 333.051ZM465.724 331.698C465.091 331.349 464.393 331.205 463.682 331.205V334.205C463.986 334.205 464.167 334.265 464.276 334.325L465.724 331.698ZM463.682 331.205H460.818V334.205H463.682V331.205ZM459.318 332.705V336.75H462.318V332.705H459.318ZM460.818 332.977H463.432V329.977H460.818V332.977ZM463.432 332.977C464.057 332.977 464.669 332.853 465.238 332.575L463.921 329.88C463.808 329.935 463.655 329.977 463.432 329.977V332.977ZM465.232 332.578C465.806 332.3 466.291 331.891 466.648 331.351L464.147 329.694C464.103 329.761 464.042 329.821 463.927 329.877L465.232 332.578ZM466.641 331.362C467.032 330.782 467.205 330.126 467.205 329.455H464.205C464.205 329.601 464.172 329.657 464.154 329.684L466.641 331.362ZM467.205 329.455C467.205 328.552 466.873 327.735 466.231 327.093L464.11 329.214C464.18 329.284 464.205 329.334 464.205 329.455H467.205ZM466.237 327.098C465.481 326.334 464.443 326.114 463.477 326.114V329.114C464.057 329.114 464.148 329.253 464.104 329.208L466.237 327.098ZM463.477 326.114H460.818V329.114H463.477V326.114ZM459.318 327.614V331.477H462.318V327.614H459.318Z" fill="white"/>
<path d="M459.409 338V326.364H463.477C464.288 326.364 464.956 326.504 465.483 326.784C466.009 327.061 466.402 327.434 466.659 327.903C466.917 328.369 467.045 328.886 467.045 329.455C467.045 329.955 466.956 330.367 466.778 330.693C466.604 331.019 466.373 331.277 466.085 331.466C465.801 331.655 465.492 331.795 465.159 331.886V332C465.515 332.023 465.873 332.148 466.233 332.375C466.593 332.602 466.894 332.928 467.136 333.352C467.379 333.777 467.5 334.295 467.5 334.909C467.5 335.492 467.367 336.017 467.102 336.483C466.837 336.949 466.419 337.318 465.847 337.591C465.275 337.864 464.53 338 463.614 338H459.409ZM460.818 336.75H463.614C464.534 336.75 465.188 336.572 465.574 336.216C465.964 335.856 466.159 335.42 466.159 334.909C466.159 334.515 466.059 334.152 465.858 333.818C465.657 333.481 465.371 333.212 465 333.011C464.629 332.807 464.189 332.705 463.682 332.705H460.818V336.75ZM460.818 331.477H463.432C463.856 331.477 464.239 331.394 464.58 331.227C464.924 331.061 465.197 330.826 465.398 330.523C465.602 330.22 465.705 329.864 465.705 329.455C465.705 328.943 465.527 328.509 465.17 328.153C464.814 327.794 464.25 327.614 463.477 327.614H460.818V331.477Z" fill="#616161"/>
<path d="M470.054 346V345.105L473.415 341.426C473.809 340.995 474.134 340.621 474.389 340.303C474.644 339.981 474.833 339.679 474.956 339.398C475.082 339.113 475.145 338.814 475.145 338.503C475.145 338.145 475.059 337.835 474.886 337.573C474.717 337.311 474.485 337.109 474.19 336.967C473.895 336.824 473.564 336.753 473.196 336.753C472.805 336.753 472.464 336.834 472.172 336.996C471.884 337.156 471.66 337.379 471.501 337.668C471.345 337.956 471.267 338.294 471.267 338.682H470.094C470.094 338.085 470.231 337.562 470.506 337.111C470.781 336.66 471.156 336.309 471.63 336.057C472.107 335.805 472.643 335.679 473.236 335.679C473.832 335.679 474.361 335.805 474.822 336.057C475.282 336.309 475.644 336.648 475.906 337.076C476.167 337.504 476.298 337.979 476.298 338.503C476.298 338.877 476.23 339.244 476.094 339.602C475.962 339.956 475.73 340.352 475.398 340.79C475.07 341.224 474.615 341.754 474.031 342.381L471.744 344.827V344.906H476.477V346H470.054Z" fill="#616161"/>
<path d="M470.054 346H468.554L470.054 347.5V346ZM470.054 345.105L468.947 344.093L468.554 345.105H470.054ZM473.415 341.426L472.308 340.413L472.307 340.414L473.415 341.426ZM474.389 340.303L475.559 341.241L475.564 341.235L474.389 340.303ZM474.956 339.398L473.584 338.791L473.581 338.799L474.956 339.398ZM474.886 337.573L473.626 338.387L473.633 338.398L474.886 337.573ZM474.19 336.967L474.843 335.616L474.843 335.616L474.19 336.967ZM472.172 336.996L472.896 338.31L472.902 338.307L472.172 336.996ZM471.501 337.668L470.187 336.943L470.181 336.955L471.501 337.668ZM471.267 338.682V340.182L472.767 338.682H471.267ZM470.094 338.682H468.594L470.094 340.182V338.682ZM470.506 337.111L471.787 337.892L471.787 337.892L470.506 337.111ZM471.63 336.057L470.93 334.73L470.926 334.732L471.63 336.057ZM474.822 336.057L475.541 334.741L475.541 334.741L474.822 336.057ZM475.906 337.076L474.626 337.859L475.906 337.076ZM476.094 339.602L474.692 339.069L474.689 339.076L476.094 339.602ZM475.398 340.79L474.203 339.884L474.202 339.885L475.398 340.79ZM474.031 342.381L475.127 343.405L475.129 343.403L474.031 342.381ZM471.744 344.827L470.649 343.802L470.244 344.827H471.744ZM471.744 344.906H470.244L471.744 346.406V344.906ZM476.477 344.906H477.977L476.477 343.406V344.906ZM476.477 346V347.5L477.977 346H476.477ZM471.554 346V345.105H468.554V346H471.554ZM471.161 346.117L474.522 342.438L472.307 340.414L468.947 344.093L471.161 346.117ZM474.521 342.439C474.929 341.993 475.277 341.593 475.559 341.241L473.219 339.364C472.991 339.649 472.689 339.997 472.308 340.413L474.521 342.439ZM475.564 341.235C475.875 340.843 476.143 340.43 476.331 339.996L473.581 338.799C473.524 338.929 473.414 339.119 473.214 339.37L475.564 341.235ZM476.328 340.004C476.538 339.528 476.645 339.023 476.645 338.503H473.645C473.645 338.606 473.626 338.697 473.584 338.791L476.328 340.004ZM476.645 338.503C476.645 337.895 476.495 337.289 476.139 336.748L473.633 338.398C473.632 338.395 473.633 338.395 473.635 338.404C473.638 338.414 473.645 338.445 473.645 338.503H476.645ZM476.147 336.76C475.82 336.254 475.373 335.872 474.843 335.616L473.538 338.317C473.598 338.346 473.614 338.368 473.626 338.387L476.147 336.76ZM474.843 335.616C474.321 335.364 473.762 335.253 473.196 335.253V338.253C473.366 338.253 473.47 338.285 473.538 338.317L474.843 335.616ZM473.196 335.253C472.594 335.253 471.993 335.379 471.442 335.686L472.902 338.307C472.935 338.289 473.016 338.253 473.196 338.253V335.253ZM471.447 335.683C470.911 335.979 470.483 336.407 470.187 336.943L472.814 338.392C472.836 338.352 472.856 338.332 472.896 338.31L471.447 335.683ZM470.181 336.955C469.887 337.499 469.767 338.091 469.767 338.682H472.767C472.767 338.497 472.803 338.413 472.82 338.381L470.181 336.955ZM471.267 337.182H470.094V340.182H471.267V337.182ZM471.594 338.682C471.594 338.324 471.673 338.078 471.787 337.892L469.226 336.329C468.789 337.045 468.594 337.846 468.594 338.682H471.594ZM471.787 337.892C471.919 337.675 472.093 337.509 472.334 337.381L470.926 334.732C470.219 335.108 469.644 335.645 469.226 336.329L471.787 337.892ZM472.33 337.383C472.571 337.256 472.862 337.179 473.236 337.179V334.179C472.423 334.179 471.644 334.353 470.93 334.73L472.33 337.383ZM473.236 337.179C473.616 337.179 473.891 337.257 474.102 337.373L475.541 334.741C474.831 334.353 474.049 334.179 473.236 334.179V337.179ZM474.102 337.373C474.344 337.505 474.508 337.666 474.626 337.859L477.185 336.293C476.78 335.631 476.221 335.112 475.541 334.741L474.102 337.373ZM474.626 337.859C474.737 338.04 474.798 338.243 474.798 338.503H477.798C477.798 337.716 477.598 336.967 477.185 336.293L474.626 337.859ZM474.798 338.503C474.798 338.691 474.765 338.877 474.692 339.069L477.497 340.134C477.696 339.61 477.798 339.063 477.798 338.503H474.798ZM474.689 339.076C474.625 339.248 474.482 339.515 474.203 339.884L476.594 341.696C476.978 341.189 477.299 340.664 477.499 340.127L474.689 339.076ZM474.202 339.885C473.917 340.262 473.499 340.751 472.934 341.358L475.129 343.403C475.73 342.758 476.224 342.186 476.595 341.694L474.202 339.885ZM472.936 341.356L470.649 343.802L472.84 345.851L475.127 343.405L472.936 341.356ZM470.244 344.827V344.906H473.244V344.827H470.244ZM471.744 346.406H476.477V343.406H471.744V346.406ZM474.977 344.906V346H477.977V344.906H474.977ZM476.477 344.5H470.054V347.5H476.477V344.5Z" fill="white"/>
<path d="M470.054 346V345.105L473.415 341.426C473.809 340.995 474.134 340.621 474.389 340.303C474.644 339.981 474.833 339.679 474.956 339.398C475.082 339.113 475.145 338.814 475.145 338.503C475.145 338.145 475.059 337.835 474.886 337.573C474.717 337.311 474.485 337.109 474.19 336.967C473.895 336.824 473.564 336.753 473.196 336.753C472.805 336.753 472.464 336.834 472.172 336.996C471.884 337.156 471.66 337.379 471.501 337.668C471.345 337.956 471.267 338.294 471.267 338.682H470.094C470.094 338.085 470.231 337.562 470.506 337.111C470.781 336.66 471.156 336.309 471.63 336.057C472.107 335.805 472.643 335.679 473.236 335.679C473.832 335.679 474.361 335.805 474.822 336.057C475.282 336.309 475.644 336.648 475.906 337.076C476.167 337.504 476.298 337.979 476.298 338.503C476.298 338.877 476.23 339.244 476.094 339.602C475.962 339.956 475.73 340.352 475.398 340.79C475.07 341.224 474.615 341.754 474.031 342.381L471.744 344.827V344.906H476.477V346H470.054Z" fill="#616161"/>
</g>
<defs>
<clipPath id="clip0_361_855">
<rect width="704" height="467" fill="white"/>
</clipPath>
</defs>
</svg>
