<svg width="759" height="563" viewBox="0 0 759 563" fill="none" xmlns="http://www.w3.org/2000/svg">
<g clip-path="url(#clip0_358_618)">
<path d="M759 0H0V563H759V0Z" fill="white"/>
<path d="M53.1816 527.004L678.9 536.274" stroke="#616161" stroke-opacity="0.8" stroke-width="2.5" stroke-miterlimit="10" stroke-linecap="round" stroke-linejoin="round"/>
<path d="M678.899 536.274L254.801 38.0171" stroke="#616161" stroke-opacity="0.8" stroke-width="2.5" stroke-miterlimit="10" stroke-linecap="round" stroke-linejoin="round"/>
<path d="M53.1816 527.004L254.802 38.0171" stroke="#616161" stroke-opacity="0.8" stroke-width="2.5" stroke-miterlimit="10" stroke-linecap="round" stroke-linejoin="round"/>
<path d="M53.1816 527.004L466.851 287.146" stroke="#616161" stroke-opacity="0.8" stroke-width="2.5" stroke-miterlimit="10" stroke-linecap="round" stroke-linejoin="round"/>
<path d="M678.9 536.274L153.992 282.511" stroke="#FF0000" stroke-opacity="0.8" stroke-width="2.5" stroke-miterlimit="10" stroke-linecap="round" stroke-linejoin="round"/>
<path d="M350.846 136.432L334.674 149.37" stroke="#616161" stroke-opacity="0.8" stroke-width="2.5" stroke-miterlimit="10" stroke-linecap="round" stroke-linejoin="round"/>
<path d="M360.549 150.178L345.994 162.307" stroke="#616161" stroke-opacity="0.8" stroke-width="2.5" stroke-miterlimit="10" stroke-linecap="round" stroke-linejoin="round"/>
<path d="M565.934 382.247L548.953 395.994" stroke="#616161" stroke-opacity="0.8" stroke-width="2.5" stroke-miterlimit="10" stroke-linecap="round" stroke-linejoin="round"/>
<path d="M574.02 395.185L558.656 408.123" stroke="#616161" stroke-opacity="0.8" stroke-width="2.5" stroke-miterlimit="10" stroke-linecap="round" stroke-linejoin="round"/>
<path d="M237.641 106.514L218.234 97.6193" stroke="#616161" stroke-opacity="0.8" stroke-width="2.5" stroke-miterlimit="10" stroke-linecap="round" stroke-linejoin="round"/>
<path d="M186.699 226.187L168.91 214.058" stroke="#616161" stroke-opacity="0.8" stroke-width="2.5" stroke-miterlimit="10" stroke-linecap="round" stroke-linejoin="round"/>
<path d="M42.8398 82.1607L723.643 411.291" stroke="#FF0000" stroke-opacity="0.8" stroke-width="2.5" stroke-miterlimit="10" stroke-linecap="round" stroke-linejoin="round"/>
<path d="M64.1816 527.004C64.1816 533.08 59.2568 538.004 53.1816 538.004C47.1065 538.004 42.1816 533.08 42.1816 527.004C42.1816 520.929 47.1065 516.004 53.1816 516.004C59.2568 516.004 64.1816 520.929 64.1816 527.004Z" fill="#1565C0" fill-opacity="0.2"/>
<path d="M64.1816 527.004C64.1816 533.08 59.2568 538.004 53.1816 538.004C47.1065 538.004 42.1816 533.08 42.1816 527.004C42.1816 520.929 47.1065 516.004 53.1816 516.004C59.2568 516.004 64.1816 520.929 64.1816 527.004Z" stroke="#1565C0" stroke-width="2" stroke-miterlimit="10" stroke-linecap="square"/>
<path d="M58.1816 527.004C58.1816 529.766 55.9431 532.004 53.1816 532.004C50.4202 532.004 48.1816 529.766 48.1816 527.004C48.1816 524.243 50.4202 522.004 53.1816 522.004C55.9431 522.004 58.1816 524.243 58.1816 527.004Z" fill="#1565C0"/>
<path d="M58.1816 527.004C58.1816 529.766 55.9431 532.004 53.1816 532.004C50.4202 532.004 48.1816 529.766 48.1816 527.004C48.1816 524.243 50.4202 522.004 53.1816 522.004C55.9431 522.004 58.1816 524.243 58.1816 527.004Z" stroke="black" stroke-miterlimit="10" stroke-linecap="round" stroke-linejoin="round"/>
<path d="M58.8864 516H57.4091L61.6818 504.364H63.1364L67.4091 516H65.9318L62.4545 506.205H62.3636L58.8864 516ZM59.4318 511.455H65.3864V512.705H59.4318V511.455Z" fill="#1565C0"/>
<path d="M58.8864 516V517.5L60.2999 516.502L58.8864 516ZM57.4091 516L56.001 515.483L57.4091 517.5V516ZM61.6818 504.364V502.864L60.2737 503.847L61.6818 504.364ZM63.1364 504.364L64.5444 503.847L63.1364 502.864V504.364ZM67.4091 516V517.5L68.8172 515.483L67.4091 516ZM65.9318 516L64.5182 516.502L65.9318 517.5V516ZM62.4545 506.205L63.8681 505.703L62.4545 504.705V506.205ZM62.3636 506.205V504.705L60.9501 505.703L62.3636 506.205ZM59.4318 511.455V509.955L57.9318 511.455H59.4318ZM65.3864 511.455H66.8864L65.3864 509.955V511.455ZM65.3864 512.705V514.205L66.8864 512.705H65.3864ZM59.4318 512.705H57.9318L59.4318 514.205V512.705ZM58.8864 514.5H57.4091V517.5H58.8864V514.5ZM58.8172 516.517L63.0899 504.881L60.2737 503.847L56.001 515.483L58.8172 516.517ZM61.6818 505.864H63.1364V502.864H61.6818V505.864ZM61.7283 504.881L66.001 516.517L68.8172 515.483L64.5444 503.847L61.7283 504.881ZM67.4091 514.5H65.9318V517.5H67.4091V514.5ZM67.3454 515.498L63.8681 505.703L61.041 506.706L64.5182 516.502L67.3454 515.498ZM62.4545 504.705H62.3636V507.705H62.4545V504.705ZM60.9501 505.703L57.4728 515.498L60.2999 516.502L63.7772 506.706L60.9501 505.703ZM59.4318 512.955H65.3864V509.955H59.4318V512.955ZM63.8864 511.455V512.705H66.8864V511.455H63.8864ZM65.3864 511.205H59.4318V514.205H65.3864V511.205ZM60.9318 512.705V511.455H57.9318V512.705H60.9318Z" fill="white"/>
<path d="M58.8864 516H57.4091L61.6818 504.364H63.1364L67.4091 516H65.9318L62.4545 506.205H62.3636L58.8864 516ZM59.4318 511.455H65.3864V512.705H59.4318V511.455Z" fill="#1565C0"/>
<path d="M683.9 536.274C683.9 539.036 681.662 541.274 678.9 541.274C676.139 541.274 673.9 539.036 673.9 536.274C673.9 533.513 676.139 531.274 678.9 531.274C681.662 531.274 683.9 533.513 683.9 536.274Z" fill="#1565C0"/>
<path d="M683.9 536.274C683.9 539.036 681.662 541.274 678.9 541.274C676.139 541.274 673.9 539.036 673.9 536.274C673.9 533.513 676.139 531.274 678.9 531.274C681.662 531.274 683.9 533.513 683.9 536.274Z" stroke="black" stroke-miterlimit="10" stroke-linecap="round" stroke-linejoin="round"/>
<path d="M684.409 525V513.364H688.477C689.288 513.364 689.956 513.504 690.483 513.784C691.009 514.061 691.402 514.434 691.659 514.903C691.917 515.369 692.045 515.886 692.045 516.455C692.045 516.955 691.956 517.367 691.778 517.693C691.604 518.019 691.373 518.277 691.085 518.466C690.801 518.655 690.492 518.795 690.159 518.886V519C690.515 519.023 690.873 519.148 691.233 519.375C691.593 519.602 691.894 519.928 692.136 520.352C692.379 520.777 692.5 521.295 692.5 521.909C692.5 522.492 692.367 523.017 692.102 523.483C691.837 523.949 691.419 524.318 690.847 524.591C690.275 524.864 689.53 525 688.614 525H684.409ZM685.818 523.75H688.614C689.534 523.75 690.188 523.572 690.574 523.216C690.964 522.856 691.159 522.42 691.159 521.909C691.159 521.515 691.059 521.152 690.858 520.818C690.657 520.481 690.371 520.212 690 520.011C689.629 519.807 689.189 519.705 688.682 519.705H685.818V523.75ZM685.818 518.477H688.432C688.856 518.477 689.239 518.394 689.58 518.227C689.924 518.061 690.197 517.826 690.398 517.523C690.602 517.22 690.705 516.864 690.705 516.455C690.705 515.943 690.527 515.509 690.17 515.153C689.814 514.794 689.25 514.614 688.477 514.614H685.818V518.477Z" fill="#1565C0"/>
<path d="M684.409 525H682.909L684.409 526.5V525ZM684.409 513.364V511.864L682.909 513.364H684.409ZM690.483 513.784L689.778 515.108L689.786 515.112L690.483 513.784ZM691.659 514.903L690.344 515.625L690.346 515.629L691.659 514.903ZM691.778 517.693L690.462 516.974L690.456 516.986L691.778 517.693ZM691.085 518.466L690.261 517.213L690.253 517.218L691.085 518.466ZM690.159 518.886L689.764 517.439L688.659 518.886H690.159ZM690.159 519H688.659L690.064 520.497L690.159 519ZM691.233 519.375L690.432 520.643L690.432 520.643L691.233 519.375ZM692.102 523.483L693.406 524.225L693.406 524.225L692.102 523.483ZM690.847 524.591L690.201 523.237L690.201 523.237L690.847 524.591ZM685.818 523.75H684.318L685.818 525.25V523.75ZM690.574 523.216L691.59 524.319L691.591 524.319L690.574 523.216ZM690.858 520.818L689.569 521.586L689.573 521.592L690.858 520.818ZM690 520.011L689.276 521.325L689.286 521.331L690 520.011ZM685.818 519.705V518.205L684.318 519.705H685.818ZM685.818 518.477H684.318L685.818 519.977V518.477ZM689.58 518.227L688.927 516.877L688.921 516.88L689.58 518.227ZM690.398 517.523L689.154 516.683L689.147 516.694L690.398 517.523ZM690.17 515.153L689.104 516.208L689.11 516.214L690.17 515.153ZM685.818 514.614V513.114L684.318 514.614H685.818ZM685.909 525V513.364H682.909V525H685.909ZM684.409 514.864H688.477V511.864H684.409V514.864ZM688.477 514.864C689.126 514.864 689.532 514.977 689.778 515.108L691.188 512.46C690.381 512.03 689.45 511.864 688.477 511.864V514.864ZM689.786 515.112C690.081 515.267 690.243 515.442 690.344 515.625L692.974 514.182C692.56 513.426 691.938 512.854 691.18 512.456L689.786 515.112ZM690.346 515.629C690.473 515.858 690.545 516.123 690.545 516.455H693.545C693.545 515.65 693.36 514.881 692.972 514.178L690.346 515.629ZM690.545 516.455C690.545 516.787 690.485 516.932 690.462 516.974L693.095 518.413C693.428 517.803 693.545 517.122 693.545 516.455H690.545ZM690.456 516.986C690.391 517.107 690.325 517.171 690.261 517.213L691.91 519.719C692.421 519.382 692.818 518.931 693.101 518.401L690.456 516.986ZM690.253 517.218C690.105 517.317 689.944 517.39 689.764 517.439L690.554 520.334C691.041 520.201 691.497 519.994 691.917 519.714L690.253 517.218ZM688.659 518.886V519H691.659V518.886H688.659ZM690.064 520.497C690.125 520.501 690.244 520.524 690.432 520.643L692.034 518.107C691.503 517.771 690.905 517.545 690.255 517.503L690.064 520.497ZM690.432 520.643C690.555 520.721 690.695 520.854 690.834 521.096L693.439 519.608C693.093 519.003 692.63 518.483 692.034 518.107L690.432 520.643ZM690.834 521.096C690.918 521.243 691 521.491 691 521.909H694C694 521.1 693.84 520.31 693.439 519.608L690.834 521.096ZM691 521.909C691 522.256 690.924 522.521 690.799 522.741L693.406 524.225C693.811 523.513 694 522.729 694 521.909H691ZM690.799 522.741C690.711 522.895 690.548 523.072 690.201 523.237L691.492 525.945C692.289 525.565 692.963 525.003 693.406 524.225L690.799 522.741ZM690.201 523.237C689.9 523.38 689.399 523.5 688.614 523.5V526.5C689.661 526.5 690.649 526.347 691.492 525.945L690.201 523.237ZM688.614 523.5H684.409V526.5H688.614V523.5ZM685.818 525.25H688.614V522.25H685.818V525.25ZM688.614 525.25C689.652 525.25 690.782 525.064 691.59 524.319L689.557 522.113C689.585 522.088 689.559 522.126 689.4 522.169C689.238 522.213 688.985 522.25 688.614 522.25V525.25ZM691.591 524.319C692.276 523.687 692.659 522.857 692.659 521.909H689.659C689.659 521.969 689.649 521.995 689.644 522.006C689.638 522.019 689.619 522.056 689.557 522.113L691.591 524.319ZM692.659 521.909C692.659 521.246 692.486 520.614 692.143 520.044L689.573 521.592C689.631 521.689 689.659 521.784 689.659 521.909H692.659ZM692.147 520.051C691.797 519.464 691.304 519.011 690.714 518.692L689.286 521.331C689.438 521.413 689.517 521.499 689.569 521.586L692.147 520.051ZM690.724 518.698C690.091 518.349 689.393 518.205 688.682 518.205V521.205C688.986 521.205 689.167 521.265 689.276 521.325L690.724 518.698ZM688.682 518.205H685.818V521.205H688.682V518.205ZM684.318 519.705V523.75H687.318V519.705H684.318ZM685.818 519.977H688.432V516.977H685.818V519.977ZM688.432 519.977C689.057 519.977 689.669 519.853 690.238 519.575L688.921 516.88C688.808 516.935 688.655 516.977 688.432 516.977V519.977ZM690.232 519.578C690.806 519.3 691.291 518.891 691.648 518.351L689.147 516.694C689.103 516.761 689.042 516.821 688.927 516.877L690.232 519.578ZM691.641 518.362C692.032 517.782 692.205 517.126 692.205 516.455H689.205C689.205 516.601 689.172 516.657 689.154 516.684L691.641 518.362ZM692.205 516.455C692.205 515.552 691.873 514.735 691.231 514.093L689.11 516.214C689.18 516.284 689.205 516.334 689.205 516.455H692.205ZM691.237 514.098C690.481 513.334 689.443 513.114 688.477 513.114V516.114C689.057 516.114 689.148 516.253 689.104 516.208L691.237 514.098ZM688.477 513.114H685.818V516.114H688.477V513.114ZM684.318 514.614V518.477H687.318V514.614H684.318Z" fill="white"/>
<path d="M684.409 525V513.364H688.477C689.288 513.364 689.956 513.504 690.483 513.784C691.009 514.061 691.402 514.434 691.659 514.903C691.917 515.369 692.045 515.886 692.045 516.455C692.045 516.955 691.956 517.367 691.778 517.693C691.604 518.019 691.373 518.277 691.085 518.466C690.801 518.655 690.492 518.795 690.159 518.886V519C690.515 519.023 690.873 519.148 691.233 519.375C691.593 519.602 691.894 519.928 692.136 520.352C692.379 520.777 692.5 521.295 692.5 521.909C692.5 522.492 692.367 523.017 692.102 523.483C691.837 523.949 691.419 524.318 690.847 524.591C690.275 524.864 689.53 525 688.614 525H684.409ZM685.818 523.75H688.614C689.534 523.75 690.188 523.572 690.574 523.216C690.964 522.856 691.159 522.42 691.159 521.909C691.159 521.515 691.059 521.152 690.858 520.818C690.657 520.481 690.371 520.212 690 520.011C689.629 519.807 689.189 519.705 688.682 519.705H685.818V523.75ZM685.818 518.477H688.432C688.856 518.477 689.239 518.394 689.58 518.227C689.924 518.061 690.197 517.826 690.398 517.523C690.602 517.22 690.705 516.864 690.705 516.455C690.705 515.943 690.527 515.509 690.17 515.153C689.814 514.794 689.25 514.614 688.477 514.614H685.818V518.477Z" fill="#1565C0"/>
<path d="M259.801 38.0171C259.801 40.7785 257.562 43.0171 254.801 43.0171C252.039 43.0171 249.801 40.7785 249.801 38.0171C249.801 35.2557 252.039 33.0171 254.801 33.0171C257.562 33.0171 259.801 35.2557 259.801 38.0171Z" fill="#1565C0"/>
<path d="M259.801 38.0171C259.801 40.7785 257.562 43.0171 254.801 43.0171C252.039 43.0171 249.801 40.7785 249.801 38.0171C249.801 35.2557 252.039 33.0171 254.801 33.0171C257.562 33.0171 259.801 35.2557 259.801 38.0171Z" stroke="black" stroke-miterlimit="10" stroke-linecap="round" stroke-linejoin="round"/>
<path d="M269.773 19H268.364C268.28 18.5947 268.134 18.2386 267.926 17.9318C267.722 17.625 267.472 17.3674 267.176 17.1591C266.884 16.947 266.561 16.7879 266.205 16.6818C265.848 16.5758 265.477 16.5227 265.091 16.5227C264.386 16.5227 263.748 16.7008 263.176 17.0568C262.608 17.4129 262.155 17.9375 261.818 18.6307C261.485 19.3239 261.318 20.1742 261.318 21.1818C261.318 22.1894 261.485 23.0398 261.818 23.733C262.155 24.4261 262.608 24.9508 263.176 25.3068C263.748 25.6629 264.386 25.8409 265.091 25.8409C265.477 25.8409 265.848 25.7879 266.205 25.6818C266.561 25.5758 266.884 25.4186 267.176 25.2102C267.472 24.9981 267.722 24.7386 267.926 24.4318C268.134 24.1212 268.28 23.7652 268.364 23.3636H269.773C269.667 23.9583 269.473 24.4905 269.193 24.9602C268.913 25.4299 268.564 25.8295 268.148 26.1591C267.731 26.4848 267.263 26.733 266.744 26.9034C266.229 27.0739 265.678 27.1591 265.091 27.1591C264.098 27.1591 263.216 26.9167 262.443 26.4318C261.67 25.947 261.063 25.2576 260.619 24.3636C260.176 23.4697 259.955 22.4091 259.955 21.1818C259.955 19.9545 260.176 18.8939 260.619 18C261.063 17.1061 261.67 16.4167 262.443 15.9318C263.216 15.447 264.098 15.2045 265.091 15.2045C265.678 15.2045 266.229 15.2898 266.744 15.4602C267.263 15.6307 267.731 15.8807 268.148 16.2102C268.564 16.536 268.913 16.9337 269.193 17.4034C269.473 17.8693 269.667 18.4015 269.773 19Z" fill="#1565C0"/>
<path d="M269.773 19V20.5L271.25 18.7383L269.773 19ZM268.364 19L266.894 19.3021L268.364 20.5V19ZM267.926 17.9318L266.678 18.7639L266.685 18.7744L267.926 17.9318ZM267.176 17.1591L266.294 18.3722L266.312 18.385L267.176 17.1591ZM266.205 16.6818L265.776 18.1194L265.776 18.1194L266.205 16.6818ZM263.176 17.0568L262.383 15.7834L262.38 15.7858L263.176 17.0568ZM261.818 18.6307L260.469 17.9746L260.466 17.9806L261.818 18.6307ZM261.818 23.733L260.466 24.383L260.469 24.389L261.818 23.733ZM263.176 25.3068L262.38 26.5779L262.383 26.5802L263.176 25.3068ZM266.205 25.6818L265.776 24.2442L265.776 24.2442L266.205 25.6818ZM267.176 25.2102L268.048 26.4308L268.051 26.4287L267.176 25.2102ZM267.926 24.4318L266.68 23.5963L266.678 23.5998L267.926 24.4318ZM268.364 23.3636V21.8636L266.895 23.0588L268.364 23.3636ZM269.773 23.3636L271.249 23.627L269.773 21.8636V23.3636ZM269.193 24.9602L267.905 24.1915L267.905 24.1915L269.193 24.9602ZM268.148 26.1591L269.072 27.3408L269.078 27.3356L268.148 26.1591ZM266.744 26.9034L266.276 25.4783L266.273 25.4793L266.744 26.9034ZM262.443 26.4318L261.646 27.7024L261.646 27.7024L262.443 26.4318ZM260.619 24.3636L261.963 23.6974L261.963 23.6974L260.619 24.3636ZM260.619 18L259.275 17.3337L260.619 18ZM266.744 15.4602L266.273 16.8843L266.276 16.8853L266.744 15.4602ZM268.148 16.2102L267.217 17.3867L267.224 17.3919L268.148 16.2102ZM269.193 17.4034L267.905 18.1721L267.908 18.1767L269.193 17.4034ZM269.773 17.5H268.364V20.5H269.773V17.5ZM269.833 18.6979C269.714 18.1215 269.499 17.5773 269.167 17.0892L266.685 18.7744C266.77 18.9 266.846 19.0679 266.894 19.3021L269.833 18.6979ZM269.174 17.0998C268.869 16.6423 268.49 16.2502 268.041 15.9332L266.312 18.385C266.453 18.4846 266.574 18.6077 266.678 18.7639L269.174 17.0998ZM268.058 15.946C267.625 15.6308 267.147 15.3974 266.633 15.2442L265.776 18.1194C265.974 18.1784 266.144 18.2631 266.294 18.3722L268.058 15.946ZM266.633 15.2442C266.132 15.0952 265.616 15.0227 265.091 15.0227V18.0227C265.338 18.0227 265.565 18.0564 265.776 18.1194L266.633 15.2442ZM265.091 15.0227C264.12 15.0227 263.204 15.2723 262.383 15.7834L263.969 18.3302C264.292 18.1292 264.653 18.0227 265.091 18.0227V15.0227ZM262.38 15.7858C261.539 16.3123 260.91 17.0674 260.469 17.9746L263.167 19.2867C263.4 18.8076 263.677 18.5134 263.973 18.3279L262.38 15.7858ZM260.466 17.9806C260.01 18.9294 259.818 20.0161 259.818 21.1818H262.818C262.818 20.3324 262.96 19.7184 263.17 19.2807L260.466 17.9806ZM259.818 21.1818C259.818 22.3475 260.01 23.4343 260.466 24.383L263.17 23.0829C262.96 22.6453 262.818 22.0313 262.818 21.1818H259.818ZM260.469 24.389C260.91 25.2963 261.539 26.0513 262.38 26.5779L263.973 24.0358C263.677 23.8502 263.4 23.556 263.167 23.0769L260.469 24.389ZM262.383 26.5802C263.204 27.0913 264.12 27.3409 265.091 27.3409V24.3409C264.653 24.3409 264.292 24.2344 263.969 24.0334L262.383 26.5802ZM265.091 27.3409C265.616 27.3409 266.132 27.2685 266.633 27.1194L265.776 24.2442C265.565 24.3073 265.338 24.3409 265.091 24.3409V27.3409ZM266.633 27.1194C267.142 26.9678 267.617 26.739 268.048 26.4308L266.304 23.9896C266.152 24.0981 265.979 24.1837 265.776 24.2442L266.633 27.1194ZM268.051 26.4287C268.495 26.1098 268.871 25.7188 269.174 25.2639L266.678 23.5998C266.572 23.7585 266.448 23.8864 266.301 23.9917L268.051 26.4287ZM269.172 25.2674C269.498 24.781 269.713 24.2413 269.832 23.6685L266.895 23.0588C266.847 23.289 266.771 23.4614 266.68 23.5963L269.172 25.2674ZM268.364 24.8636H269.773V21.8636H268.364V24.8636ZM268.296 23.1003C268.218 23.5351 268.083 23.8929 267.905 24.1915L270.481 25.7289C270.864 25.0881 271.115 24.3816 271.249 23.627L268.296 23.1003ZM267.905 24.1915C267.715 24.5094 267.487 24.7695 267.217 24.9826L269.078 27.3356C269.642 26.8896 270.11 26.3504 270.481 25.7289L267.905 24.1915ZM267.224 24.9774C266.948 25.1928 266.636 25.3602 266.276 25.4783L267.212 28.3285C267.891 28.1057 268.514 27.7769 269.072 27.3408L267.224 24.9774ZM266.273 25.4793C265.922 25.5955 265.531 25.6591 265.091 25.6591V28.6591C265.825 28.6591 266.536 28.5522 267.216 28.3275L266.273 25.4793ZM265.091 25.6591C264.355 25.6591 263.753 25.4831 263.24 25.1612L261.646 27.7024C262.678 28.3503 263.842 28.6591 265.091 28.6591V25.6591ZM263.24 25.1612C262.724 24.8372 262.295 24.3673 261.963 23.6974L259.275 25.0299C259.83 26.1478 260.617 27.0568 261.646 27.7024L263.24 25.1612ZM261.963 23.6974C261.644 23.0527 261.455 22.2301 261.455 21.1818H258.455C258.455 22.5881 258.709 23.8867 259.275 25.0299L261.963 23.6974ZM261.455 21.1818C261.455 20.1335 261.644 19.3109 261.963 18.6663L259.275 17.3337C258.709 18.4769 258.455 19.7756 258.455 21.1818H261.455ZM261.963 18.6663C262.295 17.9963 262.724 17.5265 263.24 17.2024L261.646 14.6612C260.617 15.3069 259.83 16.2158 259.275 17.3337L261.963 18.6663ZM263.24 17.2024C263.753 16.8806 264.355 16.7045 265.091 16.7045V13.7045C263.842 13.7045 262.678 14.0134 261.646 14.6612L263.24 17.2024ZM265.091 16.7045C265.531 16.7045 265.922 16.7681 266.273 16.8843L267.216 14.0362C266.536 13.8114 265.825 13.7045 265.091 13.7045V16.7045ZM266.276 16.8853C266.632 17.0023 266.943 17.1697 267.217 17.3867L269.078 15.0337C268.519 14.5917 267.894 14.259 267.212 14.0351L266.276 16.8853ZM267.224 17.3919C267.49 17.5998 267.716 17.8558 267.905 18.1721L270.481 16.6347C270.109 16.0116 269.639 15.4722 269.072 15.0285L267.224 17.3919ZM267.908 18.1767C268.083 18.4678 268.218 18.8229 268.296 19.2617L271.25 18.7383C271.115 17.9802 270.864 17.2708 270.478 16.6301L267.908 18.1767Z" fill="white"/>
<path d="M269.773 19H268.364C268.28 18.5947 268.134 18.2386 267.926 17.9318C267.722 17.625 267.472 17.3674 267.176 17.1591C266.884 16.947 266.561 16.7879 266.205 16.6818C265.848 16.5758 265.477 16.5227 265.091 16.5227C264.386 16.5227 263.748 16.7008 263.176 17.0568C262.608 17.4129 262.155 17.9375 261.818 18.6307C261.485 19.3239 261.318 20.1742 261.318 21.1818C261.318 22.1894 261.485 23.0398 261.818 23.733C262.155 24.4261 262.608 24.9508 263.176 25.3068C263.748 25.6629 264.386 25.8409 265.091 25.8409C265.477 25.8409 265.848 25.7879 266.205 25.6818C266.561 25.5758 266.884 25.4186 267.176 25.2102C267.472 24.9981 267.722 24.7386 267.926 24.4318C268.134 24.1212 268.28 23.7652 268.364 23.3636H269.773C269.667 23.9583 269.473 24.4905 269.193 24.9602C268.913 25.4299 268.564 25.8295 268.148 26.1591C267.731 26.4848 267.263 26.733 266.744 26.9034C266.229 27.0739 265.678 27.1591 265.091 27.1591C264.098 27.1591 263.216 26.9167 262.443 26.4318C261.67 25.947 261.063 25.2576 260.619 24.3636C260.176 23.4697 259.955 22.4091 259.955 21.1818C259.955 19.9545 260.176 18.8939 260.619 18C261.063 17.1061 261.67 16.4167 262.443 15.9318C263.216 15.447 264.098 15.2045 265.091 15.2045C265.678 15.2045 266.229 15.2898 266.744 15.4602C267.263 15.6307 267.731 15.8807 268.148 16.2102C268.564 16.536 268.913 16.9337 269.193 17.4034C269.473 17.8693 269.667 18.4015 269.773 19Z" fill="#1565C0"/>
<path d="M470.85 287.146C470.85 289.355 469.059 291.146 466.85 291.146C464.64 291.146 462.85 289.355 462.85 287.146C462.85 284.937 464.64 283.146 466.85 283.146C469.059 283.146 470.85 284.937 470.85 287.146Z" fill="#616161"/>
<path d="M470.85 287.146C470.85 289.355 469.059 291.146 466.85 291.146C464.64 291.146 462.85 289.355 462.85 287.146C462.85 284.937 464.64 283.146 466.85 283.146C469.059 283.146 470.85 284.937 470.85 287.146Z" stroke="black" stroke-miterlimit="10" stroke-linecap="round" stroke-linejoin="round"/>
<path d="M472.886 278H471.409L475.682 266.364H477.136L481.409 278H479.932L476.455 268.205H476.364L472.886 278ZM473.432 273.455H479.386V274.705H473.432V273.455Z" fill="#616161"/>
<path d="M472.886 278V279.5L474.3 278.502L472.886 278ZM471.409 278L470.001 277.483L471.409 279.5V278ZM475.682 266.364V264.864L474.274 265.847L475.682 266.364ZM477.136 266.364L478.544 265.847L477.136 264.864V266.364ZM481.409 278V279.5L482.817 277.483L481.409 278ZM479.932 278L478.518 278.502L479.932 279.5V278ZM476.455 268.205L477.868 267.703L476.455 266.705V268.205ZM476.364 268.205V266.705L474.95 267.703L476.364 268.205ZM473.432 273.455V271.955L471.932 273.455H473.432ZM479.386 273.455H480.886L479.386 271.955V273.455ZM479.386 274.705V276.205L480.886 274.705H479.386ZM473.432 274.705H471.932L473.432 276.205V274.705ZM472.886 276.5H471.409V279.5H472.886V276.5ZM472.817 278.517L477.09 266.881L474.274 265.847L470.001 277.483L472.817 278.517ZM475.682 267.864H477.136V264.864H475.682V267.864ZM475.728 266.881L480.001 278.517L482.817 277.483L478.544 265.847L475.728 266.881ZM481.409 276.5H479.932V279.5H481.409V276.5ZM481.345 277.498L477.868 267.703L475.041 268.706L478.518 278.502L481.345 277.498ZM476.455 266.705H476.364V269.705H476.455V266.705ZM474.95 267.703L471.473 277.498L474.3 278.502L477.777 268.706L474.95 267.703ZM473.432 274.955H479.386V271.955H473.432V274.955ZM477.886 273.455V274.705H480.886V273.455H477.886ZM479.386 273.205H473.432V276.205H479.386V273.205ZM474.932 274.705V273.455H471.932V274.705H474.932Z" fill="white"/>
<path d="M472.886 278H471.409L475.682 266.364H477.136L481.409 278H479.932L476.455 268.205H476.364L472.886 278ZM473.432 273.455H479.386V274.705H473.432V273.455Z" fill="#616161"/>
<path d="M486.634 275.818V286H485.401V277.111H485.341L482.855 278.761V277.509L485.401 275.818H486.634Z" fill="#616161"/>
<path d="M486.634 275.818H488.134L486.634 274.318V275.818ZM486.634 286V287.5L488.134 286H486.634ZM485.401 286H483.901L485.401 287.5V286ZM485.401 277.111H486.901L485.401 275.611V277.111ZM485.341 277.111V275.611L484.511 275.861L485.341 277.111ZM482.855 278.761H481.355L483.685 280.011L482.855 278.761ZM482.855 277.509L482.025 276.259L481.355 277.509H482.855ZM485.401 275.818V274.318L484.571 274.569L485.401 275.818ZM485.134 275.818V286H488.134V275.818H485.134ZM486.634 284.5H485.401V287.5H486.634V284.5ZM486.901 286V277.111H483.901V286H486.901ZM485.401 275.611H485.341V278.611H485.401V275.611ZM484.511 275.861L482.025 277.512L483.685 280.011L486.171 278.36L484.511 275.861ZM484.355 278.761V277.509H481.355V278.761H484.355ZM483.685 278.758L486.23 277.068L484.571 274.569L482.025 276.259L483.685 278.758ZM485.401 277.318H486.634V274.318H485.401V277.318Z" fill="white"/>
<path d="M486.634 275.818V286H485.401V277.111H485.341L482.855 278.761V277.509L485.401 275.818H486.634Z" fill="#616161"/>
<path d="M157.992 282.511C157.992 284.72 156.201 286.511 153.992 286.511C151.783 286.511 149.992 284.72 149.992 282.511C149.992 280.302 151.783 278.511 153.992 278.511C156.201 278.511 157.992 280.302 157.992 282.511Z" fill="#616161"/>
<path d="M157.992 282.511C157.992 284.72 156.201 286.511 153.992 286.511C151.783 286.511 149.992 284.72 149.992 282.511C149.992 280.302 151.783 278.511 153.992 278.511C156.201 278.511 157.992 280.302 157.992 282.511Z" stroke="black" stroke-miterlimit="10" stroke-linecap="round" stroke-linejoin="round"/>
<path d="M159.409 274V262.364H163.477C164.288 262.364 164.956 262.504 165.483 262.784C166.009 263.061 166.402 263.434 166.659 263.903C166.917 264.369 167.045 264.886 167.045 265.455C167.045 265.955 166.956 266.367 166.778 266.693C166.604 267.019 166.373 267.277 166.085 267.466C165.801 267.655 165.492 267.795 165.159 267.886V268C165.515 268.023 165.873 268.148 166.233 268.375C166.593 268.602 166.894 268.928 167.136 269.352C167.379 269.777 167.5 270.295 167.5 270.909C167.5 271.492 167.367 272.017 167.102 272.483C166.837 272.949 166.419 273.318 165.847 273.591C165.275 273.864 164.53 274 163.614 274H159.409ZM160.818 272.75H163.614C164.534 272.75 165.188 272.572 165.574 272.216C165.964 271.856 166.159 271.42 166.159 270.909C166.159 270.515 166.059 270.152 165.858 269.818C165.657 269.481 165.371 269.212 165 269.011C164.629 268.807 164.189 268.705 163.682 268.705H160.818V272.75ZM160.818 267.477H163.432C163.856 267.477 164.239 267.394 164.58 267.227C164.924 267.061 165.197 266.826 165.398 266.523C165.602 266.22 165.705 265.864 165.705 265.455C165.705 264.943 165.527 264.509 165.17 264.153C164.814 263.794 164.25 263.614 163.477 263.614H160.818V267.477Z" fill="#616161"/>
<path d="M159.409 274H157.909L159.409 275.5V274ZM159.409 262.364V260.864L157.909 262.364H159.409ZM165.483 262.784L164.778 264.108L164.786 264.112L165.483 262.784ZM166.659 263.903L165.344 264.625L165.346 264.629L166.659 263.903ZM166.778 266.693L165.462 265.974L165.456 265.986L166.778 266.693ZM166.085 267.466L165.261 266.213L165.253 266.218L166.085 267.466ZM165.159 267.886L164.764 266.439L163.659 267.886H165.159ZM165.159 268H163.659L165.064 269.497L165.159 268ZM166.233 268.375L165.432 269.643L165.432 269.643L166.233 268.375ZM167.102 272.483L168.406 273.225L168.406 273.225L167.102 272.483ZM165.847 273.591L165.201 272.237L165.201 272.237L165.847 273.591ZM160.818 272.75H159.318L160.818 274.25V272.75ZM165.574 272.216L166.59 273.319L166.591 273.319L165.574 272.216ZM165.858 269.818L164.569 270.586L164.573 270.592L165.858 269.818ZM165 269.011L164.276 270.325L164.286 270.331L165 269.011ZM160.818 268.705V267.205L159.318 268.705H160.818ZM160.818 267.477H159.318L160.818 268.977V267.477ZM164.58 267.227L163.927 265.877L163.921 265.88L164.58 267.227ZM165.398 266.523L164.154 265.683L164.147 265.694L165.398 266.523ZM165.17 264.153L164.104 265.208L164.11 265.214L165.17 264.153ZM160.818 263.614V262.114L159.318 263.614H160.818ZM160.909 274V262.364H157.909V274H160.909ZM159.409 263.864H163.477V260.864H159.409V263.864ZM163.477 263.864C164.126 263.864 164.532 263.977 164.778 264.108L166.188 261.46C165.381 261.03 164.45 260.864 163.477 260.864V263.864ZM164.786 264.112C165.081 264.267 165.243 264.442 165.344 264.625L167.974 263.182C167.56 262.426 166.938 261.854 166.18 261.456L164.786 264.112ZM165.346 264.629C165.473 264.858 165.545 265.123 165.545 265.455H168.545C168.545 264.65 168.36 263.881 167.972 263.178L165.346 264.629ZM165.545 265.455C165.545 265.787 165.485 265.932 165.462 265.974L168.095 267.413C168.428 266.803 168.545 266.122 168.545 265.455H165.545ZM165.456 265.986C165.391 266.107 165.325 266.171 165.261 266.213L166.91 268.719C167.421 268.382 167.818 267.931 168.101 267.401L165.456 265.986ZM165.253 266.218C165.105 266.317 164.944 266.39 164.764 266.439L165.554 269.334C166.041 269.201 166.497 268.994 166.917 268.714L165.253 266.218ZM163.659 267.886V268H166.659V267.886H163.659ZM165.064 269.497C165.125 269.501 165.244 269.524 165.432 269.643L167.034 267.107C166.503 266.771 165.905 266.545 165.255 266.503L165.064 269.497ZM165.432 269.643C165.555 269.721 165.695 269.854 165.834 270.096L168.439 268.608C168.093 268.003 167.63 267.483 167.034 267.107L165.432 269.643ZM165.834 270.096C165.918 270.243 166 270.491 166 270.909H169C169 270.1 168.84 269.31 168.439 268.608L165.834 270.096ZM166 270.909C166 271.256 165.924 271.521 165.799 271.741L168.406 273.225C168.811 272.513 169 271.729 169 270.909H166ZM165.799 271.741C165.711 271.895 165.548 272.072 165.201 272.237L166.492 274.945C167.289 274.565 167.963 274.003 168.406 273.225L165.799 271.741ZM165.201 272.237C164.9 272.38 164.399 272.5 163.614 272.5V275.5C164.661 275.5 165.649 275.347 166.492 274.945L165.201 272.237ZM163.614 272.5H159.409V275.5H163.614V272.5ZM160.818 274.25H163.614V271.25H160.818V274.25ZM163.614 274.25C164.652 274.25 165.782 274.064 166.59 273.319L164.557 271.113C164.585 271.088 164.559 271.126 164.4 271.169C164.238 271.213 163.985 271.25 163.614 271.25V274.25ZM166.591 273.319C167.276 272.687 167.659 271.857 167.659 270.909H164.659C164.659 270.969 164.649 270.995 164.644 271.006C164.638 271.019 164.619 271.056 164.557 271.113L166.591 273.319ZM167.659 270.909C167.659 270.246 167.486 269.614 167.143 269.044L164.573 270.592C164.631 270.689 164.659 270.784 164.659 270.909H167.659ZM167.147 269.051C166.797 268.464 166.304 268.011 165.714 267.692L164.286 270.331C164.438 270.413 164.517 270.499 164.569 270.586L167.147 269.051ZM165.724 267.698C165.091 267.349 164.393 267.205 163.682 267.205V270.205C163.986 270.205 164.167 270.265 164.276 270.325L165.724 267.698ZM163.682 267.205H160.818V270.205H163.682V267.205ZM159.318 268.705V272.75H162.318V268.705H159.318ZM160.818 268.977H163.432V265.977H160.818V268.977ZM163.432 268.977C164.057 268.977 164.669 268.853 165.238 268.575L163.921 265.88C163.808 265.935 163.655 265.977 163.432 265.977V268.977ZM165.232 268.578C165.806 268.3 166.291 267.891 166.648 267.351L164.147 265.694C164.103 265.761 164.042 265.821 163.927 265.877L165.232 268.578ZM166.641 267.362C167.032 266.782 167.205 266.126 167.205 265.455H164.205C164.205 265.601 164.172 265.657 164.154 265.684L166.641 267.362ZM167.205 265.455C167.205 264.552 166.873 263.735 166.231 263.093L164.11 265.214C164.18 265.284 164.205 265.334 164.205 265.455H167.205ZM166.237 263.098C165.481 262.334 164.443 262.114 163.477 262.114V265.114C164.057 265.114 164.148 265.253 164.104 265.208L166.237 263.098ZM163.477 262.114H160.818V265.114H163.477V262.114ZM159.318 263.614V267.477H162.318V263.614H159.318Z" fill="white"/>
<path d="M159.409 274V262.364H163.477C164.288 262.364 164.956 262.504 165.483 262.784C166.009 263.061 166.402 263.434 166.659 263.903C166.917 264.369 167.045 264.886 167.045 265.455C167.045 265.955 166.956 266.367 166.778 266.693C166.604 267.019 166.373 267.277 166.085 267.466C165.801 267.655 165.492 267.795 165.159 267.886V268C165.515 268.023 165.873 268.148 166.233 268.375C166.593 268.602 166.894 268.928 167.136 269.352C167.379 269.777 167.5 270.295 167.5 270.909C167.5 271.492 167.367 272.017 167.102 272.483C166.837 272.949 166.419 273.318 165.847 273.591C165.275 273.864 164.53 274 163.614 274H159.409ZM160.818 272.75H163.614C164.534 272.75 165.188 272.572 165.574 272.216C165.964 271.856 166.159 271.42 166.159 270.909C166.159 270.515 166.059 270.152 165.858 269.818C165.657 269.481 165.371 269.212 165 269.011C164.629 268.807 164.189 268.705 163.682 268.705H160.818V272.75ZM160.818 267.477H163.432C163.856 267.477 164.239 267.394 164.58 267.227C164.924 267.061 165.197 266.826 165.398 266.523C165.602 266.22 165.705 265.864 165.705 265.455C165.705 264.943 165.527 264.509 165.17 264.153C164.814 263.794 164.25 263.614 163.477 263.614H160.818V267.477Z" fill="#616161"/>
<path d="M173.634 271.818V282H172.401V273.111H172.341L169.855 274.761V273.509L172.401 271.818H173.634Z" fill="#616161"/>
<path d="M173.634 271.818H175.134L173.634 270.318V271.818ZM173.634 282V283.5L175.134 282H173.634ZM172.401 282H170.901L172.401 283.5V282ZM172.401 273.111H173.901L172.401 271.611V273.111ZM172.341 273.111V271.611L171.511 271.861L172.341 273.111ZM169.855 274.761H168.355L170.685 276.011L169.855 274.761ZM169.855 273.509L169.025 272.259L168.355 273.509H169.855ZM172.401 271.818V270.318L171.571 270.569L172.401 271.818ZM172.134 271.818V282H175.134V271.818H172.134ZM173.634 280.5H172.401V283.5H173.634V280.5ZM173.901 282V273.111H170.901V282H173.901ZM172.401 271.611H172.341V274.611H172.401V271.611ZM171.511 271.861L169.025 273.512L170.685 276.011L173.171 274.36L171.511 271.861ZM171.355 274.761V273.509H168.355V274.761H171.355ZM170.685 274.758L173.23 273.068L171.571 270.569L169.025 272.259L170.685 274.758ZM172.401 273.318H173.634V270.318H172.401V273.318Z" fill="white"/>
<path d="M173.634 271.818V282H172.401V273.111H172.341L169.855 274.761V273.509L172.401 271.818H173.634Z" fill="#616161"/>
<path d="M208.396 160.264C208.396 162.473 206.606 164.264 204.396 164.264C202.187 164.264 200.396 162.473 200.396 160.264C200.396 158.055 202.187 156.264 204.396 156.264C206.606 156.264 208.396 158.055 208.396 160.264Z" fill="#616161"/>
<path d="M208.396 160.264C208.396 162.473 206.606 164.264 204.396 164.264C202.187 164.264 200.396 162.473 200.396 160.264C200.396 158.055 202.187 156.264 204.396 156.264C206.606 156.264 208.396 158.055 208.396 160.264Z" stroke="black" stroke-miterlimit="10" stroke-linecap="round" stroke-linejoin="round"/>
<path d="M209.409 139.364H211.091L215.045 149.023H215.182L219.136 139.364H220.818V151H219.5V142.159H219.386L215.75 151H214.477L210.841 142.159H210.727V151H209.409V139.364Z" fill="#616161"/>
<path d="M209.409 139.364V137.864L207.909 139.364H209.409ZM211.091 139.364L212.479 138.795L211.091 137.864V139.364ZM215.045 149.023L213.657 149.591L215.045 150.523V149.023ZM215.182 149.023V150.523L216.57 149.591L215.182 149.023ZM219.136 139.364V137.864L217.748 138.795L219.136 139.364ZM220.818 139.364H222.318L220.818 137.864V139.364ZM220.818 151V152.5L222.318 151H220.818ZM219.5 151H218L219.5 152.5V151ZM219.5 142.159H221L219.5 140.659V142.159ZM219.386 142.159V140.659L217.999 141.589L219.386 142.159ZM215.75 151V152.5L217.137 151.571L215.75 151ZM214.477 151L213.09 151.571L214.477 152.5V151ZM210.841 142.159L212.228 141.589L210.841 140.659V142.159ZM210.727 142.159V140.659L209.227 142.159H210.727ZM210.727 151V152.5L212.227 151H210.727ZM209.409 151H207.909L209.409 152.5V151ZM209.409 140.864H211.091V137.864H209.409V140.864ZM209.703 139.932L213.657 149.591L216.434 148.454L212.479 138.795L209.703 139.932ZM215.045 150.523H215.182V147.523H215.045V150.523ZM216.57 149.591L220.525 139.932L217.748 138.795L213.794 148.454L216.57 149.591ZM219.136 140.864H220.818V137.864H219.136V140.864ZM219.318 139.364V151H222.318V139.364H219.318ZM220.818 149.5H219.5V152.5H220.818V149.5ZM221 151V142.159H218V151H221ZM219.5 140.659H219.386V143.659H219.5V140.659ZM217.999 141.589L214.363 150.429L217.137 151.571L220.774 142.73L217.999 141.589ZM215.75 149.5H214.477V152.5H215.75V149.5ZM215.865 150.429L212.228 141.589L209.454 142.73L213.09 151.571L215.865 150.429ZM210.841 140.659H210.727V143.659H210.841V140.659ZM209.227 142.159V151H212.227V142.159H209.227ZM210.727 149.5H209.409V152.5H210.727V149.5ZM210.909 151V139.364H207.909V151H210.909Z" fill="white"/>
<path d="M209.409 139.364H211.091L215.045 149.023H215.182L219.136 139.364H220.818V151H219.5V142.159H219.386L215.75 151H214.477L210.841 142.159H210.727V151H209.409V139.364Z" fill="#616161"/>
<path d="M332.961 367.099C332.961 369.308 331.17 371.099 328.961 371.099C326.752 371.099 324.961 369.308 324.961 367.099C324.961 364.889 326.752 363.099 328.961 363.099C331.17 363.099 332.961 364.889 332.961 367.099Z" fill="#616161"/>
<path d="M332.961 367.099C332.961 369.308 331.17 371.099 328.961 371.099C326.752 371.099 324.961 369.308 324.961 367.099C324.961 364.889 326.752 363.099 328.961 363.099C331.17 363.099 332.961 364.889 332.961 367.099Z" stroke="black" stroke-miterlimit="10" stroke-linecap="round" stroke-linejoin="round"/>
<path d="M344.227 352.182C344.227 353.409 344.006 354.47 343.562 355.364C343.119 356.258 342.511 356.947 341.739 357.432C340.966 357.917 340.083 358.159 339.091 358.159C338.098 358.159 337.216 357.917 336.443 357.432C335.67 356.947 335.063 356.258 334.619 355.364C334.176 354.47 333.955 353.409 333.955 352.182C333.955 350.955 334.176 349.894 334.619 349C335.063 348.106 335.67 347.417 336.443 346.932C337.216 346.447 338.098 346.205 339.091 346.205C340.083 346.205 340.966 346.447 341.739 346.932C342.511 347.417 343.119 348.106 343.562 349C344.006 349.894 344.227 350.955 344.227 352.182ZM342.864 352.182C342.864 351.174 342.695 350.324 342.358 349.631C342.025 348.938 341.572 348.413 341 348.057C340.432 347.701 339.795 347.523 339.091 347.523C338.386 347.523 337.748 347.701 337.176 348.057C336.608 348.413 336.155 348.938 335.818 349.631C335.485 350.324 335.318 351.174 335.318 352.182C335.318 353.189 335.485 354.04 335.818 354.733C336.155 355.426 336.608 355.951 337.176 356.307C337.748 356.663 338.386 356.841 339.091 356.841C339.795 356.841 340.432 356.663 341 356.307C341.572 355.951 342.025 355.426 342.358 354.733C342.695 354.04 342.864 353.189 342.864 352.182Z" fill="#616161"/>
<path d="M343.562 355.364L342.219 354.697L342.219 354.697L343.562 355.364ZM341.739 357.432L342.536 358.702L342.536 358.702L341.739 357.432ZM336.443 357.432L335.646 358.702L335.646 358.702L336.443 357.432ZM334.619 355.364L335.963 354.697L335.963 354.697L334.619 355.364ZM334.619 349L333.275 348.334L334.619 349ZM341.739 346.932L342.536 345.661L342.536 345.661L341.739 346.932ZM343.562 349L342.219 349.666L342.219 349.666L343.562 349ZM342.358 349.631L341.006 350.281L341.009 350.287L342.358 349.631ZM341 348.057L340.203 349.328L340.207 349.33L341 348.057ZM337.176 348.057L336.383 346.783L336.38 346.786L337.176 348.057ZM335.818 349.631L334.469 348.975L334.466 348.981L335.818 349.631ZM335.818 354.733L334.466 355.383L334.469 355.389L335.818 354.733ZM337.176 356.307L336.38 357.578L336.383 357.58L337.176 356.307ZM341 356.307L340.207 355.033L340.203 355.036L341 356.307ZM342.358 354.733L341.009 354.077L341.006 354.083L342.358 354.733ZM342.727 352.182C342.727 353.23 342.538 354.053 342.219 354.697L344.906 356.03C345.473 354.887 345.727 353.588 345.727 352.182H342.727ZM342.219 354.697C341.886 355.367 341.458 355.837 340.941 356.161L342.536 358.702C343.565 358.057 344.352 357.148 344.906 356.03L342.219 354.697ZM340.941 356.161C340.428 356.483 339.827 356.659 339.091 356.659V359.659C340.34 359.659 341.503 359.35 342.536 358.702L340.941 356.161ZM339.091 356.659C338.355 356.659 337.753 356.483 337.24 356.161L335.646 358.702C336.678 359.35 337.842 359.659 339.091 359.659V356.659ZM337.24 356.161C336.724 355.837 336.295 355.367 335.963 354.697L333.275 356.03C333.83 357.148 334.617 358.057 335.646 358.702L337.24 356.161ZM335.963 354.697C335.644 354.053 335.455 353.23 335.455 352.182H332.455C332.455 353.588 332.709 354.887 333.275 356.03L335.963 354.697ZM335.455 352.182C335.455 351.134 335.644 350.311 335.963 349.666L333.275 348.334C332.709 349.477 332.455 350.776 332.455 352.182H335.455ZM335.963 349.666C336.295 348.996 336.724 348.526 337.24 348.202L335.646 345.661C334.617 346.307 333.83 347.216 333.275 348.334L335.963 349.666ZM337.24 348.202C337.753 347.881 338.355 347.705 339.091 347.705V344.705C337.842 344.705 336.678 345.013 335.646 345.661L337.24 348.202ZM339.091 347.705C339.827 347.705 340.428 347.881 340.941 348.202L342.536 345.661C341.503 345.013 340.34 344.705 339.091 344.705V347.705ZM340.941 348.202C341.458 348.526 341.886 348.996 342.219 349.666L344.906 348.334C344.352 347.216 343.565 346.307 342.536 345.661L340.941 348.202ZM342.219 349.666C342.538 350.311 342.727 351.134 342.727 352.182H345.727C345.727 350.776 345.473 349.477 344.906 348.334L342.219 349.666ZM344.364 352.182C344.364 351.014 344.169 349.925 343.707 348.975L341.009 350.287C341.221 350.723 341.364 351.334 341.364 352.182H344.364ZM343.71 348.981C343.271 348.068 342.639 347.31 341.793 346.783L340.207 349.33C340.505 349.515 340.778 349.807 341.006 350.281L343.71 348.981ZM341.797 346.786C340.977 346.272 340.062 346.023 339.091 346.023V349.023C339.529 349.023 339.886 349.129 340.203 349.328L341.797 346.786ZM339.091 346.023C338.12 346.023 337.204 346.272 336.383 346.783L337.969 349.33C338.292 349.129 338.653 349.023 339.091 349.023V346.023ZM336.38 346.786C335.539 347.312 334.91 348.067 334.469 348.975L337.167 350.287C337.4 349.808 337.677 349.513 337.973 349.328L336.38 346.786ZM334.466 348.981C334.01 349.929 333.818 351.016 333.818 352.182H336.818C336.818 351.332 336.96 350.718 337.17 350.281L334.466 348.981ZM333.818 352.182C333.818 353.348 334.01 354.434 334.466 355.383L337.17 354.083C336.96 353.645 336.818 353.031 336.818 352.182H333.818ZM334.469 355.389C334.91 356.296 335.539 357.051 336.38 357.578L337.973 355.036C337.677 354.85 337.4 354.556 337.167 354.077L334.469 355.389ZM336.383 357.58C337.204 358.091 338.12 358.341 339.091 358.341V355.341C338.653 355.341 338.292 355.234 337.969 355.033L336.383 357.58ZM339.091 358.341C340.062 358.341 340.977 358.091 341.797 357.578L340.203 355.036C339.886 355.234 339.529 355.341 339.091 355.341V358.341ZM341.793 357.58C342.639 357.053 343.271 356.296 343.71 355.383L341.006 354.083C340.778 354.557 340.505 354.848 340.207 355.033L341.793 357.58ZM343.707 355.389C344.169 354.439 344.364 353.35 344.364 352.182H341.364C341.364 353.029 341.221 353.641 341.009 354.077L343.707 355.389Z" fill="white"/>
<path d="M344.227 352.182C344.227 353.409 344.006 354.47 343.562 355.364C343.119 356.258 342.511 356.947 341.739 357.432C340.966 357.917 340.083 358.159 339.091 358.159C338.098 358.159 337.216 357.917 336.443 357.432C335.67 356.947 335.063 356.258 334.619 355.364C334.176 354.47 333.955 353.409 333.955 352.182C333.955 350.955 334.176 349.894 334.619 349C335.063 348.106 335.67 347.417 336.443 346.932C337.216 346.447 338.098 346.205 339.091 346.205C340.083 346.205 340.966 346.447 341.739 346.932C342.511 347.417 343.119 348.106 343.562 349C344.006 349.894 344.227 350.955 344.227 352.182ZM342.864 352.182C342.864 351.174 342.695 350.324 342.358 349.631C342.025 348.938 341.572 348.413 341 348.057C340.432 347.701 339.795 347.523 339.091 347.523C338.386 347.523 337.748 347.701 337.176 348.057C336.608 348.413 336.155 348.938 335.818 349.631C335.485 350.324 335.318 351.174 335.318 352.182C335.318 353.189 335.485 354.04 335.818 354.733C336.155 355.426 336.608 355.951 337.176 356.307C337.748 356.663 338.386 356.841 339.091 356.841C339.795 356.841 340.432 356.663 341 356.307C341.572 355.951 342.025 355.426 342.358 354.733C342.695 354.04 342.864 353.189 342.864 352.182Z" fill="#616161"/>
<path d="M209.063 88L211.938 92.9062L214.813 88H216.938L213.063 94L216.938 100H214.813L211.938 95.3437L209.063 100H206.938L210.75 94L206.938 88H209.063Z" fill="black"/>
<path d="M157.063 211L159.938 215.906L162.813 211H164.938L161.063 217L164.938 223H162.813L159.938 218.344L157.063 223H154.938L158.75 217L154.938 211H157.063Z" fill="black"/>
<path d="M83.6563 398V396.594L88.9375 390.812C89.5573 390.135 90.0677 389.547 90.4688 389.047C90.8698 388.542 91.1667 388.068 91.3594 387.625C91.5573 387.177 91.6563 386.708 91.6563 386.219C91.6563 385.656 91.5208 385.169 91.25 384.758C90.9844 384.346 90.6198 384.029 90.1563 383.805C89.6927 383.581 89.1719 383.469 88.5937 383.469C87.9792 383.469 87.4427 383.596 86.9844 383.852C86.5313 384.102 86.1797 384.453 85.9297 384.906C85.6849 385.359 85.5625 385.891 85.5625 386.5H83.7188C83.7188 385.562 83.9349 384.74 84.3672 384.031C84.7995 383.323 85.388 382.771 86.1328 382.375C86.8828 381.979 87.724 381.781 88.6562 381.781C89.5938 381.781 90.4245 381.979 91.1484 382.375C91.8724 382.771 92.4401 383.305 92.8516 383.977C93.263 384.648 93.4687 385.396 93.4687 386.219C93.4687 386.807 93.362 387.383 93.1484 387.945C92.9401 388.503 92.5755 389.125 92.0547 389.812C91.5391 390.495 90.8229 391.328 89.9062 392.312L86.3125 396.156V396.281H93.75V398H83.6563ZM98.3828 386L101.258 390.906L104.133 386H106.258L102.383 392L106.258 398H104.133L101.258 393.344L98.3828 398H96.2578L100.07 392L96.2578 386H98.3828Z" fill="black"/>
</g>
<defs>
<clipPath id="clip0_358_618">
<rect width="759" height="563" fill="white"/>
</clipPath>
</defs>
</svg>
