<svg version="1.1" xmlns="http://www.w3.org/2000/svg" xmlns:xlink="http://www.w3.org/1999/xlink" width="1140" height="673"><defs><clipPath id="AIrtfHAUaoPx"><path fill="none" stroke="none" d=" M 0 0 L 1140 0 L 1140 673 L 0 673 L 0 0 Z"/></clipPath></defs><g transform="scale(1,1)" clip-path="url(#AIrtfHAUaoPx)"><g><rect fill="rgb(255,255,255)" stroke="none" x="0" y="0" width="1140" height="674" fill-opacity="1"/><path fill="none" stroke="rgb(97,97,97)" paint-order="fill stroke markers" d=" M 172.1811544831932 577.0044295766245 L 797.8995336107664 586.2743314896256" stroke-opacity="0.8" stroke-linecap="round" stroke-linejoin="round" stroke-miterlimit="10" stroke-width="2.5"/><path fill="none" stroke="rgb(97,97,97)" paint-order="fill stroke markers" d=" M 797.8995336107664 586.2743314896256 L 373.8015210909668 88.01710366581648" stroke-opacity="0.8" stroke-linecap="round" stroke-linejoin="round" stroke-miterlimit="10" stroke-width="2.5"/><path fill="none" stroke="rgb(97,97,97)" paint-order="fill stroke markers" d=" M 172.1811544831932 577.0044295766245 L 373.8015210909668 88.01710366581648" stroke-opacity="0.8" stroke-linecap="round" stroke-linejoin="round" stroke-miterlimit="10" stroke-width="2.5"/><path fill="none" stroke="rgb(97,97,97)" paint-order="fill stroke markers" d=" M 172.1811544831932 577.0044295766245 L 585.8505273508666 337.1457175777211" stroke-opacity="0.8" stroke-linecap="round" stroke-linejoin="round" stroke-miterlimit="10" stroke-width="2.5"/><path fill="none" stroke="rgb(255,0,0)" paint-order="fill stroke markers" d=" M 797.8995336107664 586.2743314896256 L 272.99133778708 332.5107666212205" stroke-opacity="0.8" stroke-linecap="round" stroke-linejoin="round" stroke-miterlimit="10" stroke-width="2.5"/><path fill="none" stroke="rgb(97,97,97)" paint-order="fill stroke markers" d=" M 469.84519158527434 186.43219383921843 L 453.67314049586787 199.36983471074365" stroke-opacity="0.8" stroke-linecap="round" stroke-linejoin="round" stroke-miterlimit="10" stroke-width="2.5"/><path fill="none" stroke="rgb(97,97,97)" paint-order="fill stroke markers" d=" M 479.5484222389182 200.17843726521394 L 464.99357625845244 212.3074755822688" stroke-opacity="0.8" stroke-linecap="round" stroke-linejoin="round" stroke-miterlimit="10" stroke-width="2.5"/><path fill="none" stroke="rgb(97,97,97)" paint-order="fill stroke markers" d=" M 684.9334710743802 432.2473703981969 L 667.9528174305035 445.9936138241924" stroke-opacity="0.8" stroke-linecap="round" stroke-linejoin="round" stroke-miterlimit="10" stroke-width="2.5"/><path fill="none" stroke="rgb(97,97,97)" paint-order="fill stroke markers" d=" M 693.0194966190835 445.18501126972205 L 677.6560480841474 458.1226521412473" stroke-opacity="0.8" stroke-linecap="round" stroke-linejoin="round" stroke-miterlimit="10" stroke-width="2.5"/><path fill="none" stroke="rgb(97,97,97)" paint-order="fill stroke markers" d=" M 356.64083395942913 156.51389932381647 L 337.23437265214136 147.6192712246429" stroke-opacity="0.8" stroke-linecap="round" stroke-linejoin="round" stroke-miterlimit="10" stroke-width="2.5"/><path fill="none" stroke="rgb(97,97,97)" paint-order="fill stroke markers" d=" M 305.6988730277988 276.1870773854244 L 287.9096168294517 264.05803906836957" stroke-opacity="0.8" stroke-linecap="round" stroke-linejoin="round" stroke-miterlimit="10" stroke-width="2.5"/><path fill="none" stroke="rgb(255,0,0)" paint-order="fill stroke markers" d=" M 161.84038782156426 132.16068323574012 L 842.6431504592372 461.29049563673493" stroke-opacity="0.8" stroke-linecap="round" stroke-linejoin="round" stroke-miterlimit="10" stroke-width="2.5"/><path fill="rgb(21,101,192)" stroke="none" paint-order="stroke fill markers" d=" M 183.1811544831932 577.0044295766245 C 183.1811544831932 583.0795618247632 178.25628673133193 588.0044295766245 172.1811544831932 588.0044295766245 C 166.1060222350545 588.0044295766245 161.1811544831932 583.0795618247632 161.1811544831932 577.0044295766245 C 161.1811544831932 570.9292973284857 166.1060222350545 566.0044295766245 172.1811544831932 566.0044295766245 C 178.25628673133193 566.0044295766245 183.1811544831932 570.9292973284857 183.1811544831932 577.0044295766245 Z" fill-opacity="0.2"/><path fill="none" stroke="rgb(21,101,192)" paint-order="fill stroke markers" d=" M 183.1811544831932 577.0044295766245 C 183.1811544831932 583.0795618247632 178.25628673133193 588.0044295766245 172.1811544831932 588.0044295766245 C 166.1060222350545 588.0044295766245 161.1811544831932 583.0795618247632 161.1811544831932 577.0044295766245 C 161.1811544831932 570.9292973284857 166.1060222350545 566.0044295766245 172.1811544831932 566.0044295766245 C 178.25628673133193 566.0044295766245 183.1811544831932 570.9292973284857 183.1811544831932 577.0044295766245 Z" stroke-opacity="1" stroke-linecap="square" stroke-miterlimit="10" stroke-width="2"/><path fill="rgb(21,101,192)" stroke="none" paint-order="stroke fill markers" d=" M 177.1811544831932 577.0044295766245 C 177.1811544831932 579.7658533257785 174.9425782323472 582.0044295766245 172.1811544831932 582.0044295766245 C 169.41973073403923 582.0044295766245 167.1811544831932 579.7658533257785 167.1811544831932 577.0044295766245 C 167.1811544831932 574.2430058274705 169.41973073403923 572.0044295766245 172.1811544831932 572.0044295766245 C 174.9425782323472 572.0044295766245 177.1811544831932 574.2430058274705 177.1811544831932 577.0044295766245 Z" fill-opacity="1"/><path fill="none" stroke="rgb(0,0,0)" paint-order="fill stroke markers" d=" M 177.1811544831932 577.0044295766245 C 177.1811544831932 579.7658533257785 174.9425782323472 582.0044295766245 172.1811544831932 582.0044295766245 C 169.41973073403923 582.0044295766245 167.1811544831932 579.7658533257785 167.1811544831932 577.0044295766245 C 167.1811544831932 574.2430058274705 169.41973073403923 572.0044295766245 172.1811544831932 572.0044295766245 C 174.9425782323472 572.0044295766245 177.1811544831932 574.2430058274705 177.1811544831932 577.0044295766245 Z" stroke-opacity="1" stroke-linecap="round" stroke-linejoin="round" stroke-miterlimit="10"/><text fill="rgb(21,101,192)" stroke="none" font-family="geogebra-sans-serif, sans-serif" font-size="16px" font-style="normal" font-weight="normal" text-decoration="normal" x="176" y="567" text-anchor="start" dominant-baseline="alphabetic" fill-opacity="1">A</text><text fill="none" stroke="rgb(255,255,255)" font-family="geogebra-sans-serif, sans-serif" font-size="16px" font-style="normal" font-weight="normal" text-decoration="normal" x="176" y="567" text-anchor="start" dominant-baseline="alphabetic" stroke-opacity="1" stroke-linejoin="bevel" stroke-miterlimit="10" stroke-width="3">A</text><text fill="rgb(21,101,192)" stroke="none" font-family="geogebra-sans-serif, sans-serif" font-size="16px" font-style="normal" font-weight="normal" text-decoration="normal" x="176" y="567" text-anchor="start" dominant-baseline="alphabetic" fill-opacity="1">A</text><path fill="rgb(21,101,192)" stroke="none" paint-order="stroke fill markers" d=" M 802.8995336107664 586.2743314896256 C 802.8995336107664 589.0357552387796 800.6609573599204 591.2743314896256 797.8995336107664 591.2743314896256 C 795.1381098616124 591.2743314896256 792.8995336107664 589.0357552387796 792.8995336107664 586.2743314896256 C 792.8995336107664 583.5129077404716 795.1381098616124 581.2743314896256 797.8995336107664 581.2743314896256 C 800.6609573599204 581.2743314896256 802.8995336107664 583.5129077404716 802.8995336107664 586.2743314896256 Z" fill-opacity="1"/><path fill="none" stroke="rgb(0,0,0)" paint-order="fill stroke markers" d=" M 802.8995336107664 586.2743314896256 C 802.8995336107664 589.0357552387796 800.6609573599204 591.2743314896256 797.8995336107664 591.2743314896256 C 795.1381098616124 591.2743314896256 792.8995336107664 589.0357552387796 792.8995336107664 586.2743314896256 C 792.8995336107664 583.5129077404716 795.1381098616124 581.2743314896256 797.8995336107664 581.2743314896256 C 800.6609573599204 581.2743314896256 802.8995336107664 583.5129077404716 802.8995336107664 586.2743314896256 Z" stroke-opacity="1" stroke-linecap="round" stroke-linejoin="round" stroke-miterlimit="10"/><text fill="rgb(21,101,192)" stroke="none" font-family="geogebra-sans-serif, sans-serif" font-size="16px" font-style="normal" font-weight="normal" text-decoration="normal" x="802" y="576" text-anchor="start" dominant-baseline="alphabetic" fill-opacity="1">B</text><text fill="none" stroke="rgb(255,255,255)" font-family="geogebra-sans-serif, sans-serif" font-size="16px" font-style="normal" font-weight="normal" text-decoration="normal" x="802" y="576" text-anchor="start" dominant-baseline="alphabetic" stroke-opacity="1" stroke-linejoin="bevel" stroke-miterlimit="10" stroke-width="3">B</text><text fill="rgb(21,101,192)" stroke="none" font-family="geogebra-sans-serif, sans-serif" font-size="16px" font-style="normal" font-weight="normal" text-decoration="normal" x="802" y="576" text-anchor="start" dominant-baseline="alphabetic" fill-opacity="1">B</text><path fill="rgb(21,101,192)" stroke="none" paint-order="stroke fill markers" d=" M 378.8015210909668 88.01710366581648 C 378.8015210909668 90.77852741497044 376.56294484012074 93.01710366581648 373.8015210909668 93.01710366581648 C 371.04009734181284 93.01710366581648 368.8015210909668 90.77852741497044 368.8015210909668 88.01710366581648 C 368.8015210909668 85.25567991666252 371.04009734181284 83.01710366581648 373.8015210909668 83.01710366581648 C 376.56294484012074 83.01710366581648 378.8015210909668 85.25567991666252 378.8015210909668 88.01710366581648 Z" fill-opacity="1"/><path fill="none" stroke="rgb(0,0,0)" paint-order="fill stroke markers" d=" M 378.8015210909668 88.01710366581648 C 378.8015210909668 90.77852741497044 376.56294484012074 93.01710366581648 373.8015210909668 93.01710366581648 C 371.04009734181284 93.01710366581648 368.8015210909668 90.77852741497044 368.8015210909668 88.01710366581648 C 368.8015210909668 85.25567991666252 371.04009734181284 83.01710366581648 373.8015210909668 83.01710366581648 C 376.56294484012074 83.01710366581648 378.8015210909668 85.25567991666252 378.8015210909668 88.01710366581648 Z" stroke-opacity="1" stroke-linecap="round" stroke-linejoin="round" stroke-miterlimit="10"/><text fill="rgb(21,101,192)" stroke="none" font-family="geogebra-sans-serif, sans-serif" font-size="16px" font-style="normal" font-weight="normal" text-decoration="normal" x="378" y="78" text-anchor="start" dominant-baseline="alphabetic" fill-opacity="1">C</text><text fill="none" stroke="rgb(255,255,255)" font-family="geogebra-sans-serif, sans-serif" font-size="16px" font-style="normal" font-weight="normal" text-decoration="normal" x="378" y="78" text-anchor="start" dominant-baseline="alphabetic" stroke-opacity="1" stroke-linejoin="bevel" stroke-miterlimit="10" stroke-width="3">C</text><text fill="rgb(21,101,192)" stroke="none" font-family="geogebra-sans-serif, sans-serif" font-size="16px" font-style="normal" font-weight="normal" text-decoration="normal" x="378" y="78" text-anchor="start" dominant-baseline="alphabetic" fill-opacity="1">C</text><path fill="rgb(97,97,97)" stroke="none" paint-order="stroke fill markers" d=" M 589.8505273508666 337.1457175777211 C 589.8505273508666 339.35485657704425 588.0596663501898 341.1457175777211 585.8505273508666 341.1457175777211 C 583.6413883515435 341.1457175777211 581.8505273508666 339.35485657704425 581.8505273508666 337.1457175777211 C 581.8505273508666 334.9365785783979 583.6413883515435 333.1457175777211 585.8505273508666 333.1457175777211 C 588.0596663501898 333.1457175777211 589.8505273508666 334.9365785783979 589.8505273508666 337.1457175777211 Z" fill-opacity="1"/><path fill="none" stroke="rgb(0,0,0)" paint-order="fill stroke markers" d=" M 589.8505273508666 337.1457175777211 C 589.8505273508666 339.35485657704425 588.0596663501898 341.1457175777211 585.8505273508666 341.1457175777211 C 583.6413883515435 341.1457175777211 581.8505273508666 339.35485657704425 581.8505273508666 337.1457175777211 C 581.8505273508666 334.9365785783979 583.6413883515435 333.1457175777211 585.8505273508666 333.1457175777211 C 588.0596663501898 333.1457175777211 589.8505273508666 334.9365785783979 589.8505273508666 337.1457175777211 Z" stroke-opacity="1" stroke-linecap="round" stroke-linejoin="round" stroke-miterlimit="10"/><text fill="rgb(97,97,97)" stroke="none" font-family="geogebra-sans-serif, sans-serif" font-size="16px" font-style="normal" font-weight="normal" text-decoration="normal" x="590" y="329" text-anchor="start" dominant-baseline="alphabetic" fill-opacity="1">A</text><text fill="none" stroke="rgb(255,255,255)" font-family="geogebra-sans-serif, sans-serif" font-size="16px" font-style="normal" font-weight="normal" text-decoration="normal" x="590" y="329" text-anchor="start" dominant-baseline="alphabetic" stroke-opacity="1" stroke-linejoin="bevel" stroke-miterlimit="10" stroke-width="3">A</text><text fill="rgb(97,97,97)" stroke="none" font-family="geogebra-sans-serif, sans-serif" font-size="16px" font-style="normal" font-weight="normal" text-decoration="normal" x="590" y="329" text-anchor="start" dominant-baseline="alphabetic" fill-opacity="1">A</text><text fill="rgb(97,97,97)" stroke="none" font-family="geogebra-sans-serif, sans-serif" font-size="14px" font-style="normal" font-weight="normal" text-decoration="normal" x="601" y="336" text-anchor="start" dominant-baseline="alphabetic" fill-opacity="1">1</text><text fill="none" stroke="rgb(255,255,255)" font-family="geogebra-sans-serif, sans-serif" font-size="14px" font-style="normal" font-weight="normal" text-decoration="normal" x="601" y="336" text-anchor="start" dominant-baseline="alphabetic" stroke-opacity="1" stroke-linejoin="bevel" stroke-miterlimit="10" stroke-width="3">1</text><text fill="rgb(97,97,97)" stroke="none" font-family="geogebra-sans-serif, sans-serif" font-size="14px" font-style="normal" font-weight="normal" text-decoration="normal" x="601" y="336" text-anchor="start" dominant-baseline="alphabetic" fill-opacity="1">1</text><path fill="rgb(97,97,97)" stroke="none" paint-order="stroke fill markers" d=" M 276.99133778708 332.5107666212205 C 276.99133778708 334.71990562054367 275.20047678640316 336.5107666212205 272.99133778708 336.5107666212205 C 270.78219878775684 336.5107666212205 268.99133778708 334.71990562054367 268.99133778708 332.5107666212205 C 268.99133778708 330.30162762189735 270.78219878775684 328.5107666212205 272.99133778708 328.5107666212205 C 275.20047678640316 328.5107666212205 276.99133778708 330.30162762189735 276.99133778708 332.5107666212205 Z" fill-opacity="1"/><path fill="none" stroke="rgb(0,0,0)" paint-order="fill stroke markers" d=" M 276.99133778708 332.5107666212205 C 276.99133778708 334.71990562054367 275.20047678640316 336.5107666212205 272.99133778708 336.5107666212205 C 270.78219878775684 336.5107666212205 268.99133778708 334.71990562054367 268.99133778708 332.5107666212205 C 268.99133778708 330.30162762189735 270.78219878775684 328.5107666212205 272.99133778708 328.5107666212205 C 275.20047678640316 328.5107666212205 276.99133778708 330.30162762189735 276.99133778708 332.5107666212205 Z" stroke-opacity="1" stroke-linecap="round" stroke-linejoin="round" stroke-miterlimit="10"/><text fill="rgb(97,97,97)" stroke="none" font-family="geogebra-sans-serif, sans-serif" font-size="16px" font-style="normal" font-weight="normal" text-decoration="normal" x="277" y="325" text-anchor="start" dominant-baseline="alphabetic" fill-opacity="1">B</text><text fill="none" stroke="rgb(255,255,255)" font-family="geogebra-sans-serif, sans-serif" font-size="16px" font-style="normal" font-weight="normal" text-decoration="normal" x="277" y="325" text-anchor="start" dominant-baseline="alphabetic" stroke-opacity="1" stroke-linejoin="bevel" stroke-miterlimit="10" stroke-width="3">B</text><text fill="rgb(97,97,97)" stroke="none" font-family="geogebra-sans-serif, sans-serif" font-size="16px" font-style="normal" font-weight="normal" text-decoration="normal" x="277" y="325" text-anchor="start" dominant-baseline="alphabetic" fill-opacity="1">B</text><text fill="rgb(97,97,97)" stroke="none" font-family="geogebra-sans-serif, sans-serif" font-size="14px" font-style="normal" font-weight="normal" text-decoration="normal" x="288" y="332" text-anchor="start" dominant-baseline="alphabetic" fill-opacity="1">1</text><text fill="none" stroke="rgb(255,255,255)" font-family="geogebra-sans-serif, sans-serif" font-size="14px" font-style="normal" font-weight="normal" text-decoration="normal" x="288" y="332" text-anchor="start" dominant-baseline="alphabetic" stroke-opacity="1" stroke-linejoin="bevel" stroke-miterlimit="10" stroke-width="3">1</text><text fill="rgb(97,97,97)" stroke="none" font-family="geogebra-sans-serif, sans-serif" font-size="14px" font-style="normal" font-weight="normal" text-decoration="normal" x="288" y="332" text-anchor="start" dominant-baseline="alphabetic" fill-opacity="1">1</text><path fill="rgb(97,97,97)" stroke="none" paint-order="stroke fill markers" d=" M 327.39642943902334 210.26393514351847 C 327.39642943902334 212.47307414284165 325.6055684383465 214.26393514351847 323.39642943902334 214.26393514351847 C 321.1872904397002 214.26393514351847 319.39642943902334 212.47307414284165 319.39642943902334 210.26393514351847 C 319.39642943902334 208.05479614419528 321.1872904397002 206.26393514351847 323.39642943902334 206.26393514351847 C 325.6055684383465 206.26393514351847 327.39642943902334 208.05479614419528 327.39642943902334 210.26393514351847 Z" fill-opacity="1"/><path fill="none" stroke="rgb(0,0,0)" paint-order="fill stroke markers" d=" M 327.39642943902334 210.26393514351847 C 327.39642943902334 212.47307414284165 325.6055684383465 214.26393514351847 323.39642943902334 214.26393514351847 C 321.1872904397002 214.26393514351847 319.39642943902334 212.47307414284165 319.39642943902334 210.26393514351847 C 319.39642943902334 208.05479614419528 321.1872904397002 206.26393514351847 323.39642943902334 206.26393514351847 C 325.6055684383465 206.26393514351847 327.39642943902334 208.05479614419528 327.39642943902334 210.26393514351847 Z" stroke-opacity="1" stroke-linecap="round" stroke-linejoin="round" stroke-miterlimit="10"/><text fill="rgb(97,97,97)" stroke="none" font-family="geogebra-sans-serif, sans-serif" font-size="16px" font-style="normal" font-weight="normal" text-decoration="normal" x="327" y="202" text-anchor="start" dominant-baseline="alphabetic" fill-opacity="1">M</text><text fill="none" stroke="rgb(255,255,255)" font-family="geogebra-sans-serif, sans-serif" font-size="16px" font-style="normal" font-weight="normal" text-decoration="normal" x="327" y="202" text-anchor="start" dominant-baseline="alphabetic" stroke-opacity="1" stroke-linejoin="bevel" stroke-miterlimit="10" stroke-width="3">M</text><text fill="rgb(97,97,97)" stroke="none" font-family="geogebra-sans-serif, sans-serif" font-size="16px" font-style="normal" font-weight="normal" text-decoration="normal" x="327" y="202" text-anchor="start" dominant-baseline="alphabetic" fill-opacity="1">M</text><path fill="rgb(97,97,97)" stroke="none" paint-order="stroke fill markers" d=" M 451.96073639497547 417.0986215773556 C 451.96073639497547 419.30776057667873 450.16987539429863 421.0986215773556 447.96073639497547 421.0986215773556 C 445.7515973956523 421.0986215773556 443.96073639497547 419.30776057667873 443.96073639497547 417.0986215773556 C 443.96073639497547 414.8894825780324 445.7515973956523 413.0986215773556 447.96073639497547 413.0986215773556 C 450.16987539429863 413.0986215773556 451.96073639497547 414.8894825780324 451.96073639497547 417.0986215773556 Z" fill-opacity="1"/><path fill="none" stroke="rgb(0,0,0)" paint-order="fill stroke markers" d=" M 451.96073639497547 417.0986215773556 C 451.96073639497547 419.30776057667873 450.16987539429863 421.0986215773556 447.96073639497547 421.0986215773556 C 445.7515973956523 421.0986215773556 443.96073639497547 419.30776057667873 443.96073639497547 417.0986215773556 C 443.96073639497547 414.8894825780324 445.7515973956523 413.0986215773556 447.96073639497547 413.0986215773556 C 450.16987539429863 413.0986215773556 451.96073639497547 414.8894825780324 451.96073639497547 417.0986215773556 Z" stroke-opacity="1" stroke-linecap="round" stroke-linejoin="round" stroke-miterlimit="10"/><text fill="rgb(97,97,97)" stroke="none" font-family="geogebra-sans-serif, sans-serif" font-size="16px" font-style="normal" font-weight="normal" text-decoration="normal" x="452" y="409" text-anchor="start" dominant-baseline="alphabetic" fill-opacity="1">O</text><text fill="none" stroke="rgb(255,255,255)" font-family="geogebra-sans-serif, sans-serif" font-size="16px" font-style="normal" font-weight="normal" text-decoration="normal" x="452" y="409" text-anchor="start" dominant-baseline="alphabetic" stroke-opacity="1" stroke-linejoin="bevel" stroke-miterlimit="10" stroke-width="3">O</text><text fill="rgb(97,97,97)" stroke="none" font-family="geogebra-sans-serif, sans-serif" font-size="16px" font-style="normal" font-weight="normal" text-decoration="normal" x="452" y="409" text-anchor="start" dominant-baseline="alphabetic" fill-opacity="1">O</text><text fill="rgb(0,0,0)" stroke="none" font-family="geogebra-sans-serif, sans-serif" font-size="22px" font-style="normal" font-weight="normal" text-decoration="normal" x="325" y="150" text-anchor="start" dominant-baseline="alphabetic" fill-opacity="1">x</text><text fill="rgb(0,0,0)" stroke="none" font-family="geogebra-sans-serif, sans-serif" font-size="22px" font-style="normal" font-weight="normal" text-decoration="normal" x="273" y="273" text-anchor="start" dominant-baseline="alphabetic" fill-opacity="1">x</text><text fill="rgb(0,0,0)" stroke="none" font-family="geogebra-sans-serif, sans-serif" font-size="22px" font-style="normal" font-weight="normal" text-decoration="normal" x="201" y="448" text-anchor="start" dominant-baseline="alphabetic" fill-opacity="1">2x</text></g></g></svg>