<svg width="250" height="200" viewBox="0 0 250 200" fill="none" xmlns="http://www.w3.org/2000/svg">
<g clip-path="url(#clip0_483_2)">
<path d="M250 0H0V200H250V0Z" fill="white"/>
<path d="M144.391 57.7458C147.9 61.2282 152.363 63.5919 157.216 64.538L162 40L144.391 57.7458Z" fill="black" fill-opacity="0.0980392"/>
<path d="M144.391 57.7458C147.9 61.2282 152.363 63.5919 157.216 64.538L162 40L144.391 57.7458Z" stroke="black" stroke-opacity="0.6" stroke-width="2" stroke-miterlimit="10" stroke-linecap="round" stroke-linejoin="round"/>
<path d="M157.217 64.538C162.069 65.4841 167.094 64.9701 171.654 63.061L162.001 40L157.217 64.538Z" fill="black" fill-opacity="0.0980392"/>
<path d="M157.217 64.538C162.069 65.4841 167.094 64.9701 171.654 63.061L162.001 40L157.217 64.538Z" stroke="black" stroke-opacity="0.6" stroke-width="2" stroke-miterlimit="10" stroke-linecap="round" stroke-linejoin="round"/>
<path d="M33 170L216 169" stroke="#616161" stroke-opacity="0.8" stroke-width="2.5" stroke-miterlimit="10" stroke-linecap="round" stroke-linejoin="round"/>
<path d="M33 170L162 40" stroke="#616161" stroke-opacity="0.8" stroke-width="2.5" stroke-miterlimit="10" stroke-linecap="round" stroke-linejoin="round"/>
<path d="M162 40L216 169" stroke="#616161" stroke-opacity="0.8" stroke-width="2.5" stroke-miterlimit="10" stroke-linecap="round" stroke-linejoin="round"/>
<path d="M162 40L136.766 169.433" stroke="#616161" stroke-opacity="0.8" stroke-width="2.5" stroke-miterlimit="10" stroke-linecap="round" stroke-linejoin="round"/>
<path d="M38 170C38 172.761 35.7614 175 33 175C30.2386 175 28 172.761 28 170C28 167.239 30.2386 165 33 165C35.7614 165 38 167.239 38 170Z" fill="#1565C0"/>
<path d="M38 170C38 172.761 35.7614 175 33 175C30.2386 175 28 172.761 28 170C28 167.239 30.2386 165 33 165C35.7614 165 38 167.239 38 170Z" stroke="black" stroke-miterlimit="10" stroke-linecap="round" stroke-linejoin="round"/>
<path d="M38.8864 159H37.4091L41.6818 147.364H43.1364L47.4091 159H45.9318L42.4545 149.205H42.3636L38.8864 159ZM39.4318 154.455H45.3864V155.705H39.4318V154.455Z" fill="#1565C0"/>
<path d="M38.8864 159V160.5L40.2999 159.502L38.8864 159ZM37.4091 159L36.001 158.483L37.4091 160.5V159ZM41.6818 147.364V145.864L40.2737 146.847L41.6818 147.364ZM43.1364 147.364L44.5444 146.847L43.1364 145.864V147.364ZM47.4091 159V160.5L48.8172 158.483L47.4091 159ZM45.9318 159L44.5182 159.502L45.9318 160.5V159ZM42.4545 149.205L43.8681 148.703L42.4545 147.705V149.205ZM42.3636 149.205V147.705L40.9501 148.703L42.3636 149.205ZM39.4318 154.455V152.955L37.9318 154.455H39.4318ZM45.3864 154.455H46.8864L45.3864 152.955V154.455ZM45.3864 155.705V157.205L46.8864 155.705H45.3864ZM39.4318 155.705H37.9318L39.4318 157.205V155.705ZM38.8864 157.5H37.4091V160.5H38.8864V157.5ZM38.8172 159.517L43.0899 147.881L40.2737 146.847L36.001 158.483L38.8172 159.517ZM41.6818 148.864H43.1364V145.864H41.6818V148.864ZM41.7283 147.881L46.001 159.517L48.8172 158.483L44.5444 146.847L41.7283 147.881ZM47.4091 157.5H45.9318V160.5H47.4091V157.5ZM47.3454 158.498L43.8681 148.703L41.041 149.706L44.5182 159.502L47.3454 158.498ZM42.4545 147.705H42.3636V150.705H42.4545V147.705ZM40.9501 148.703L37.4728 158.498L40.2999 159.502L43.7772 149.706L40.9501 148.703ZM39.4318 155.955H45.3864V152.955H39.4318V155.955ZM43.8864 154.455V155.705H46.8864V154.455H43.8864ZM45.3864 154.205H39.4318V157.205H45.3864V154.205ZM40.9318 155.705V154.455H37.9318V155.705H40.9318Z" fill="white"/>
<path d="M38.8864 159H37.4091L41.6818 147.364H43.1364L47.4091 159H45.9318L42.4545 149.205H42.3636L38.8864 159ZM39.4318 154.455H45.3864V155.705H39.4318V154.455Z" fill="#1565C0"/>
<path d="M221 169C221 171.761 218.761 174 216 174C213.239 174 211 171.761 211 169C211 166.239 213.239 164 216 164C218.761 164 221 166.239 221 169Z" fill="#1565C0"/>
<path d="M221 169C221 171.761 218.761 174 216 174C213.239 174 211 171.761 211 169C211 166.239 213.239 164 216 164C218.761 164 221 166.239 221 169Z" stroke="black" stroke-miterlimit="10" stroke-linecap="round" stroke-linejoin="round"/>
<path d="M221.409 158V146.364H225.477C226.288 146.364 226.956 146.504 227.483 146.784C228.009 147.061 228.402 147.434 228.659 147.903C228.917 148.369 229.045 148.886 229.045 149.455C229.045 149.955 228.956 150.367 228.778 150.693C228.604 151.019 228.373 151.277 228.085 151.466C227.801 151.655 227.492 151.795 227.159 151.886V152C227.515 152.023 227.873 152.148 228.233 152.375C228.593 152.602 228.894 152.928 229.136 153.352C229.379 153.777 229.5 154.295 229.5 154.909C229.5 155.492 229.367 156.017 229.102 156.483C228.837 156.949 228.419 157.318 227.847 157.591C227.275 157.864 226.53 158 225.614 158H221.409ZM222.818 156.75H225.614C226.534 156.75 227.188 156.572 227.574 156.216C227.964 155.856 228.159 155.42 228.159 154.909C228.159 154.515 228.059 154.152 227.858 153.818C227.657 153.481 227.371 153.212 227 153.011C226.629 152.807 226.189 152.705 225.682 152.705H222.818V156.75ZM222.818 151.477H225.432C225.856 151.477 226.239 151.394 226.58 151.227C226.924 151.061 227.197 150.826 227.398 150.523C227.602 150.22 227.705 149.864 227.705 149.455C227.705 148.943 227.527 148.509 227.17 148.153C226.814 147.794 226.25 147.614 225.477 147.614H222.818V151.477Z" fill="#1565C0"/>
<path d="M221.409 158H219.909L221.409 159.5V158ZM221.409 146.364V144.864L219.909 146.364H221.409ZM227.483 146.784L226.778 148.108L226.786 148.112L227.483 146.784ZM228.659 147.903L227.344 148.625L227.346 148.629L228.659 147.903ZM228.778 150.693L227.462 149.974L227.456 149.986L228.778 150.693ZM228.085 151.466L227.261 150.213L227.253 150.218L228.085 151.466ZM227.159 151.886L226.764 150.439L225.659 151.886H227.159ZM227.159 152H225.659L227.064 153.497L227.159 152ZM228.233 152.375L227.432 153.643L227.432 153.643L228.233 152.375ZM229.102 156.483L230.406 157.225L230.406 157.225L229.102 156.483ZM227.847 157.591L227.201 156.237L227.201 156.237L227.847 157.591ZM222.818 156.75H221.318L222.818 158.25V156.75ZM227.574 156.216L228.59 157.319L228.591 157.319L227.574 156.216ZM227.858 153.818L226.569 154.586L226.573 154.592L227.858 153.818ZM227 153.011L226.276 154.325L226.286 154.331L227 153.011ZM222.818 152.705V151.205L221.318 152.705H222.818ZM222.818 151.477H221.318L222.818 152.977V151.477ZM226.58 151.227L225.927 149.877L225.921 149.88L226.58 151.227ZM227.398 150.523L226.154 149.683L226.147 149.694L227.398 150.523ZM227.17 148.153L226.104 149.208L226.11 149.214L227.17 148.153ZM222.818 147.614V146.114L221.318 147.614H222.818ZM222.909 158V146.364H219.909V158H222.909ZM221.409 147.864H225.477V144.864H221.409V147.864ZM225.477 147.864C226.126 147.864 226.532 147.977 226.778 148.108L228.188 145.46C227.381 145.03 226.45 144.864 225.477 144.864V147.864ZM226.786 148.112C227.081 148.267 227.243 148.442 227.344 148.625L229.974 147.182C229.56 146.426 228.938 145.854 228.18 145.456L226.786 148.112ZM227.346 148.629C227.473 148.858 227.545 149.123 227.545 149.455H230.545C230.545 148.65 230.36 147.881 229.972 147.178L227.346 148.629ZM227.545 149.455C227.545 149.787 227.485 149.932 227.462 149.974L230.095 151.413C230.428 150.803 230.545 150.122 230.545 149.455H227.545ZM227.456 149.986C227.391 150.107 227.325 150.171 227.261 150.213L228.91 152.719C229.421 152.382 229.818 151.931 230.101 151.401L227.456 149.986ZM227.253 150.218C227.105 150.317 226.944 150.39 226.764 150.439L227.554 153.334C228.041 153.201 228.497 152.994 228.917 152.714L227.253 150.218ZM225.659 151.886V152H228.659V151.886H225.659ZM227.064 153.497C227.125 153.501 227.244 153.524 227.432 153.643L229.034 151.107C228.503 150.771 227.905 150.545 227.255 150.503L227.064 153.497ZM227.432 153.643C227.555 153.721 227.695 153.854 227.834 154.096L230.439 152.608C230.093 152.003 229.63 151.483 229.034 151.107L227.432 153.643ZM227.834 154.096C227.918 154.243 228 154.491 228 154.909H231C231 154.1 230.84 153.31 230.439 152.608L227.834 154.096ZM228 154.909C228 155.256 227.924 155.521 227.799 155.741L230.406 157.225C230.811 156.513 231 155.729 231 154.909H228ZM227.799 155.741C227.711 155.895 227.548 156.072 227.201 156.237L228.492 158.945C229.289 158.565 229.963 158.003 230.406 157.225L227.799 155.741ZM227.201 156.237C226.9 156.38 226.399 156.5 225.614 156.5V159.5C226.661 159.5 227.649 159.347 228.492 158.945L227.201 156.237ZM225.614 156.5H221.409V159.5H225.614V156.5ZM222.818 158.25H225.614V155.25H222.818V158.25ZM225.614 158.25C226.652 158.25 227.782 158.064 228.59 157.319L226.557 155.113C226.585 155.088 226.559 155.126 226.4 155.169C226.238 155.213 225.985 155.25 225.614 155.25V158.25ZM228.591 157.319C229.276 156.687 229.659 155.857 229.659 154.909H226.659C226.659 154.969 226.649 154.995 226.644 155.006C226.638 155.019 226.619 155.056 226.557 155.113L228.591 157.319ZM229.659 154.909C229.659 154.246 229.486 153.614 229.143 153.044L226.573 154.592C226.631 154.689 226.659 154.784 226.659 154.909H229.659ZM229.147 153.051C228.797 152.464 228.304 152.011 227.714 151.692L226.286 154.331C226.438 154.413 226.517 154.499 226.569 154.586L229.147 153.051ZM227.724 151.698C227.091 151.349 226.393 151.205 225.682 151.205V154.205C225.986 154.205 226.167 154.265 226.276 154.325L227.724 151.698ZM225.682 151.205H222.818V154.205H225.682V151.205ZM221.318 152.705V156.75H224.318V152.705H221.318ZM222.818 152.977H225.432V149.977H222.818V152.977ZM225.432 152.977C226.057 152.977 226.669 152.853 227.238 152.575L225.921 149.88C225.808 149.935 225.655 149.977 225.432 149.977V152.977ZM227.232 152.578C227.806 152.3 228.291 151.891 228.648 151.351L226.147 149.694C226.103 149.761 226.042 149.821 225.927 149.877L227.232 152.578ZM228.641 151.362C229.032 150.782 229.205 150.126 229.205 149.455H226.205C226.205 149.601 226.172 149.657 226.154 149.684L228.641 151.362ZM229.205 149.455C229.205 148.552 228.873 147.735 228.231 147.093L226.11 149.214C226.18 149.284 226.205 149.334 226.205 149.455H229.205ZM228.237 147.098C227.481 146.334 226.443 146.114 225.477 146.114V149.114C226.057 149.114 226.148 149.253 226.104 149.208L228.237 147.098ZM225.477 146.114H222.818V149.114H225.477V146.114ZM221.318 147.614V151.477H224.318V147.614H221.318Z" fill="white"/>
<path d="M221.409 158V146.364H225.477C226.288 146.364 226.956 146.504 227.483 146.784C228.009 147.061 228.402 147.434 228.659 147.903C228.917 148.369 229.045 148.886 229.045 149.455C229.045 149.955 228.956 150.367 228.778 150.693C228.604 151.019 228.373 151.277 228.085 151.466C227.801 151.655 227.492 151.795 227.159 151.886V152C227.515 152.023 227.873 152.148 228.233 152.375C228.593 152.602 228.894 152.928 229.136 153.352C229.379 153.777 229.5 154.295 229.5 154.909C229.5 155.492 229.367 156.017 229.102 156.483C228.837 156.949 228.419 157.318 227.847 157.591C227.275 157.864 226.53 158 225.614 158H221.409ZM222.818 156.75H225.614C226.534 156.75 227.188 156.572 227.574 156.216C227.964 155.856 228.159 155.42 228.159 154.909C228.159 154.515 228.059 154.152 227.858 153.818C227.657 153.481 227.371 153.212 227 153.011C226.629 152.807 226.189 152.705 225.682 152.705H222.818V156.75ZM222.818 151.477H225.432C225.856 151.477 226.239 151.394 226.58 151.227C226.924 151.061 227.197 150.826 227.398 150.523C227.602 150.22 227.705 149.864 227.705 149.455C227.705 148.943 227.527 148.509 227.17 148.153C226.814 147.794 226.25 147.614 225.477 147.614H222.818V151.477Z" fill="#1565C0"/>
<path d="M167 40C167 42.7614 164.761 45 162 45C159.239 45 157 42.7614 157 40C157 37.2386 159.239 35 162 35C164.761 35 167 37.2386 167 40Z" fill="#1565C0"/>
<path d="M167 40C167 42.7614 164.761 45 162 45C159.239 45 157 42.7614 157 40C157 37.2386 159.239 35 162 35C164.761 35 167 37.2386 167 40Z" stroke="black" stroke-miterlimit="10" stroke-linecap="round" stroke-linejoin="round"/>
<path d="M176.773 21H175.364C175.28 20.5947 175.134 20.2386 174.926 19.9318C174.722 19.625 174.472 19.3674 174.176 19.1591C173.884 18.947 173.561 18.7879 173.205 18.6818C172.848 18.5758 172.477 18.5227 172.091 18.5227C171.386 18.5227 170.748 18.7008 170.176 19.0568C169.608 19.4129 169.155 19.9375 168.818 20.6307C168.485 21.3239 168.318 22.1742 168.318 23.1818C168.318 24.1894 168.485 25.0398 168.818 25.733C169.155 26.4261 169.608 26.9508 170.176 27.3068C170.748 27.6629 171.386 27.8409 172.091 27.8409C172.477 27.8409 172.848 27.7879 173.205 27.6818C173.561 27.5758 173.884 27.4186 174.176 27.2102C174.472 26.9981 174.722 26.7386 174.926 26.4318C175.134 26.1212 175.28 25.7652 175.364 25.3636H176.773C176.667 25.9583 176.473 26.4905 176.193 26.9602C175.913 27.4299 175.564 27.8295 175.148 28.1591C174.731 28.4848 174.263 28.733 173.744 28.9034C173.229 29.0739 172.678 29.1591 172.091 29.1591C171.098 29.1591 170.216 28.9167 169.443 28.4318C168.67 27.947 168.063 27.2576 167.619 26.3636C167.176 25.4697 166.955 24.4091 166.955 23.1818C166.955 21.9545 167.176 20.8939 167.619 20C168.063 19.1061 168.67 18.4167 169.443 17.9318C170.216 17.447 171.098 17.2045 172.091 17.2045C172.678 17.2045 173.229 17.2898 173.744 17.4602C174.263 17.6307 174.731 17.8807 175.148 18.2102C175.564 18.536 175.913 18.9337 176.193 19.4034C176.473 19.8693 176.667 20.4015 176.773 21Z" fill="#1565C0"/>
<path d="M176.773 21V22.5L178.25 20.7383L176.773 21ZM175.364 21L173.894 21.3021L175.364 22.5V21ZM174.926 19.9318L173.678 20.7639L173.685 20.7744L174.926 19.9318ZM174.176 19.1591L173.294 20.3722L173.312 20.385L174.176 19.1591ZM173.205 18.6818L172.776 20.1194L172.776 20.1194L173.205 18.6818ZM170.176 19.0568L169.383 17.7834L169.38 17.7858L170.176 19.0568ZM168.818 20.6307L167.469 19.9746L167.466 19.9806L168.818 20.6307ZM168.818 25.733L167.466 26.383L167.469 26.389L168.818 25.733ZM170.176 27.3068L169.38 28.5779L169.383 28.5802L170.176 27.3068ZM173.205 27.6818L172.776 26.2442L172.776 26.2442L173.205 27.6818ZM174.176 27.2102L175.048 28.4308L175.051 28.4287L174.176 27.2102ZM174.926 26.4318L173.68 25.5963L173.678 25.5998L174.926 26.4318ZM175.364 25.3636V23.8636L173.895 25.0588L175.364 25.3636ZM176.773 25.3636L178.249 25.627L176.773 23.8636V25.3636ZM176.193 26.9602L174.905 26.1915L174.905 26.1915L176.193 26.9602ZM175.148 28.1591L176.072 29.3408L176.078 29.3356L175.148 28.1591ZM173.744 28.9034L173.276 27.4783L173.273 27.4793L173.744 28.9034ZM169.443 28.4318L168.646 29.7024L168.646 29.7024L169.443 28.4318ZM167.619 26.3636L168.963 25.6974L168.963 25.6974L167.619 26.3636ZM167.619 20L166.275 19.3337L167.619 20ZM173.744 17.4602L173.273 18.8843L173.276 18.8853L173.744 17.4602ZM175.148 18.2102L174.217 19.3867L174.224 19.3919L175.148 18.2102ZM176.193 19.4034L174.905 20.1721L174.908 20.1767L176.193 19.4034ZM176.773 19.5H175.364V22.5H176.773V19.5ZM176.833 20.6979C176.714 20.1215 176.499 19.5773 176.167 19.0892L173.685 20.7744C173.77 20.9 173.846 21.0679 173.894 21.3021L176.833 20.6979ZM176.174 19.0998C175.869 18.6423 175.49 18.2502 175.041 17.9332L173.312 20.385C173.453 20.4846 173.574 20.6077 173.678 20.7639L176.174 19.0998ZM175.058 17.946C174.625 17.6308 174.147 17.3974 173.633 17.2442L172.776 20.1194C172.974 20.1784 173.144 20.2631 173.294 20.3722L175.058 17.946ZM173.633 17.2442C173.132 17.0952 172.616 17.0227 172.091 17.0227V20.0227C172.338 20.0227 172.565 20.0564 172.776 20.1194L173.633 17.2442ZM172.091 17.0227C171.12 17.0227 170.204 17.2723 169.383 17.7834L170.969 20.3302C171.292 20.1292 171.653 20.0227 172.091 20.0227V17.0227ZM169.38 17.7858C168.539 18.3123 167.91 19.0674 167.469 19.9746L170.167 21.2867C170.4 20.8076 170.677 20.5134 170.973 20.3279L169.38 17.7858ZM167.466 19.9806C167.01 20.9294 166.818 22.0161 166.818 23.1818H169.818C169.818 22.3324 169.96 21.7184 170.17 21.2807L167.466 19.9806ZM166.818 23.1818C166.818 24.3475 167.01 25.4343 167.466 26.383L170.17 25.0829C169.96 24.6453 169.818 24.0313 169.818 23.1818H166.818ZM167.469 26.389C167.91 27.2963 168.539 28.0513 169.38 28.5779L170.973 26.0358C170.677 25.8502 170.4 25.556 170.167 25.0769L167.469 26.389ZM169.383 28.5802C170.204 29.0913 171.12 29.3409 172.091 29.3409V26.3409C171.653 26.3409 171.292 26.2344 170.969 26.0334L169.383 28.5802ZM172.091 29.3409C172.616 29.3409 173.132 29.2685 173.633 29.1194L172.776 26.2442C172.565 26.3073 172.338 26.3409 172.091 26.3409V29.3409ZM173.633 29.1194C174.142 28.9678 174.617 28.739 175.048 28.4308L173.304 25.9896C173.152 26.0981 172.979 26.1837 172.776 26.2442L173.633 29.1194ZM175.051 28.4287C175.495 28.1098 175.871 27.7188 176.174 27.2639L173.678 25.5998C173.572 25.7585 173.448 25.8864 173.301 25.9917L175.051 28.4287ZM176.172 27.2674C176.498 26.781 176.713 26.2413 176.832 25.6685L173.895 25.0588C173.847 25.289 173.771 25.4614 173.68 25.5963L176.172 27.2674ZM175.364 26.8636H176.773V23.8636H175.364V26.8636ZM175.296 25.1003C175.218 25.5351 175.083 25.8929 174.905 26.1915L177.481 27.7289C177.864 27.0881 178.115 26.3816 178.249 25.627L175.296 25.1003ZM174.905 26.1915C174.715 26.5094 174.487 26.7695 174.217 26.9826L176.078 29.3356C176.642 28.8896 177.11 28.3504 177.481 27.7289L174.905 26.1915ZM174.224 26.9774C173.948 27.1928 173.636 27.3602 173.276 27.4783L174.212 30.3285C174.891 30.1057 175.514 29.7769 176.072 29.3408L174.224 26.9774ZM173.273 27.4793C172.922 27.5955 172.531 27.6591 172.091 27.6591V30.6591C172.825 30.6591 173.536 30.5522 174.216 30.3275L173.273 27.4793ZM172.091 27.6591C171.355 27.6591 170.753 27.4831 170.24 27.1612L168.646 29.7024C169.678 30.3503 170.842 30.6591 172.091 30.6591V27.6591ZM170.24 27.1612C169.724 26.8372 169.295 26.3673 168.963 25.6974L166.275 27.0299C166.83 28.1478 167.617 29.0568 168.646 29.7024L170.24 27.1612ZM168.963 25.6974C168.644 25.0527 168.455 24.2301 168.455 23.1818H165.455C165.455 24.5881 165.709 25.8867 166.275 27.0299L168.963 25.6974ZM168.455 23.1818C168.455 22.1335 168.644 21.3109 168.963 20.6663L166.275 19.3337C165.709 20.4769 165.455 21.7756 165.455 23.1818H168.455ZM168.963 20.6663C169.295 19.9963 169.724 19.5265 170.24 19.2024L168.646 16.6612C167.617 17.3069 166.83 18.2158 166.275 19.3337L168.963 20.6663ZM170.24 19.2024C170.753 18.8806 171.355 18.7045 172.091 18.7045V15.7045C170.842 15.7045 169.678 16.0134 168.646 16.6612L170.24 19.2024ZM172.091 18.7045C172.531 18.7045 172.922 18.7681 173.273 18.8843L174.216 16.0362C173.536 15.8114 172.825 15.7045 172.091 15.7045V18.7045ZM173.276 18.8853C173.632 19.0023 173.943 19.1697 174.217 19.3867L176.078 17.0337C175.519 16.5917 174.894 16.259 174.212 16.0351L173.276 18.8853ZM174.224 19.3919C174.49 19.5998 174.716 19.8558 174.905 20.1721L177.481 18.6347C177.109 18.0116 176.639 17.4722 176.072 17.0285L174.224 19.3919ZM174.908 20.1767C175.083 20.4678 175.218 20.8229 175.296 21.2617L178.25 20.7383C178.115 19.9802 177.864 19.2708 177.478 18.6301L174.908 20.1767Z" fill="white"/>
<path d="M176.773 21H175.364C175.28 20.5947 175.134 20.2386 174.926 19.9318C174.722 19.625 174.472 19.3674 174.176 19.1591C173.884 18.947 173.561 18.7879 173.205 18.6818C172.848 18.5758 172.477 18.5227 172.091 18.5227C171.386 18.5227 170.748 18.7008 170.176 19.0568C169.608 19.4129 169.155 19.9375 168.818 20.6307C168.485 21.3239 168.318 22.1742 168.318 23.1818C168.318 24.1894 168.485 25.0398 168.818 25.733C169.155 26.4261 169.608 26.9508 170.176 27.3068C170.748 27.6629 171.386 27.8409 172.091 27.8409C172.477 27.8409 172.848 27.7879 173.205 27.6818C173.561 27.5758 173.884 27.4186 174.176 27.2102C174.472 26.9981 174.722 26.7386 174.926 26.4318C175.134 26.1212 175.28 25.7652 175.364 25.3636H176.773C176.667 25.9583 176.473 26.4905 176.193 26.9602C175.913 27.4299 175.564 27.8295 175.148 28.1591C174.731 28.4848 174.263 28.733 173.744 28.9034C173.229 29.0739 172.678 29.1591 172.091 29.1591C171.098 29.1591 170.216 28.9167 169.443 28.4318C168.67 27.947 168.063 27.2576 167.619 26.3636C167.176 25.4697 166.955 24.4091 166.955 23.1818C166.955 21.9545 167.176 20.8939 167.619 20C168.063 19.1061 168.67 18.4167 169.443 17.9318C170.216 17.447 171.098 17.2045 172.091 17.2045C172.678 17.2045 173.229 17.2898 173.744 17.4602C174.263 17.6307 174.731 17.8807 175.148 18.2102C175.564 18.536 175.913 18.9337 176.193 19.4034C176.473 19.8693 176.667 20.4015 176.773 21Z" fill="#1565C0"/>
<path d="M140.766 169.433C140.766 171.642 138.975 173.433 136.766 173.433C134.556 173.433 132.766 171.642 132.766 169.433C132.766 167.224 134.556 165.433 136.766 165.433C138.975 165.433 140.766 167.224 140.766 169.433Z" fill="#616161"/>
<path d="M140.766 169.433C140.766 171.642 138.975 173.433 136.766 173.433C134.556 173.433 132.766 171.642 132.766 169.433C132.766 167.224 134.556 165.433 136.766 165.433C138.975 165.433 140.766 167.224 140.766 169.433Z" stroke="black" stroke-miterlimit="10" stroke-linecap="round" stroke-linejoin="round"/>
<path d="M146 160H142.409V148.364H146.159C147.288 148.364 148.254 148.597 149.057 149.062C149.86 149.525 150.475 150.189 150.903 151.057C151.331 151.92 151.545 152.955 151.545 154.159C151.545 155.371 151.33 156.415 150.898 157.29C150.466 158.161 149.837 158.831 149.011 159.301C148.186 159.767 147.182 160 146 160ZM143.818 158.75H145.909C146.871 158.75 147.669 158.564 148.301 158.193C148.934 157.822 149.405 157.294 149.716 156.608C150.027 155.922 150.182 155.106 150.182 154.159C150.182 153.22 150.028 152.411 149.722 151.733C149.415 151.051 148.956 150.528 148.347 150.165C147.737 149.797 146.977 149.614 146.068 149.614H143.818V158.75Z" fill="#616161"/>
<path d="M142.409 160H140.909L142.409 161.5V160ZM142.409 148.364V146.864L140.909 148.364H142.409ZM149.057 149.062L148.304 150.36L148.309 150.363L149.057 149.062ZM150.903 151.057L149.558 151.721L149.559 151.723L150.903 151.057ZM150.898 157.29L152.242 157.956L152.243 157.954L150.898 157.29ZM149.011 159.301L149.748 160.608L149.753 160.605L149.011 159.301ZM143.818 158.75H142.318L143.818 160.25V158.75ZM148.301 158.193L147.542 156.899L148.301 158.193ZM149.722 151.733L148.354 152.349L148.355 152.351L149.722 151.733ZM148.347 150.165L147.572 151.45L147.578 151.453L148.347 150.165ZM143.818 149.614V148.114L142.318 149.614H143.818ZM146 158.5H142.409V161.5H146V158.5ZM143.909 160V148.364H140.909V160H143.909ZM142.409 149.864H146.159V146.864H142.409V149.864ZM146.159 149.864C147.08 149.864 147.774 150.053 148.304 150.36L149.81 147.765C148.733 147.141 147.495 146.864 146.159 146.864V149.864ZM148.309 150.363C148.842 150.67 149.256 151.107 149.558 151.721L152.249 150.393C151.695 149.271 150.877 148.38 149.805 147.762L148.309 150.363ZM149.559 151.723C149.862 152.334 150.045 153.129 150.045 154.159H153.045C153.045 152.78 152.8 151.507 152.247 150.391L149.559 151.723ZM150.045 154.159C150.045 155.196 149.861 156.001 149.553 156.626L152.243 157.954C152.798 156.828 153.045 155.547 153.045 154.159H150.045ZM149.554 156.624C149.251 157.234 148.829 157.679 148.27 157.997L149.753 160.605C150.845 159.984 151.68 159.088 152.242 157.956L149.554 156.624ZM148.274 157.995C147.722 158.306 146.986 158.5 146 158.5V161.5C147.377 161.5 148.649 161.228 149.748 160.608L148.274 157.995ZM143.818 160.25H145.909V157.25H143.818V160.25ZM145.909 160.25C147.057 160.25 148.136 160.029 149.06 159.487L147.542 156.899C147.201 157.1 146.685 157.25 145.909 157.25V160.25ZM149.06 159.487C149.967 158.955 150.647 158.187 151.082 157.227L148.35 155.989C148.163 156.4 147.9 156.689 147.542 156.899L149.06 159.487ZM151.082 157.227C151.501 156.304 151.682 155.266 151.682 154.159H148.682C148.682 154.946 148.552 155.541 148.35 155.989L151.082 157.227ZM151.682 154.159C151.682 153.061 151.503 152.031 151.088 151.115L148.355 152.351C148.554 152.791 148.682 153.379 148.682 154.159H151.682ZM151.089 151.117C150.664 150.171 150.003 149.406 149.115 148.876L147.578 151.453C147.91 151.651 148.166 151.931 148.354 152.349L151.089 151.117ZM149.121 148.88C148.221 148.338 147.176 148.114 146.068 148.114V151.114C146.779 151.114 147.253 151.257 147.573 151.45L149.121 148.88ZM146.068 148.114H143.818V151.114H146.068V148.114ZM142.318 149.614V158.75H145.318V149.614H142.318Z" fill="white"/>
<path d="M146 160H142.409V148.364H146.159C147.288 148.364 148.254 148.597 149.057 149.062C149.86 149.525 150.475 150.189 150.903 151.057C151.331 151.92 151.545 152.955 151.545 154.159C151.545 155.371 151.33 156.415 150.898 157.29C150.466 158.161 149.837 158.831 149.011 159.301C148.186 159.767 147.182 160 146 160ZM143.818 158.75H145.909C146.871 158.75 147.669 158.564 148.301 158.193C148.934 157.822 149.405 157.294 149.716 156.608C150.027 155.922 150.182 155.106 150.182 154.159C150.182 153.22 150.028 152.411 149.722 151.733C149.415 151.051 148.956 150.528 148.347 150.165C147.737 149.797 146.977 149.614 146.068 149.614H143.818V158.75Z" fill="#616161"/>
<path d="M82.2273 174.273L84.3182 177.841L86.4091 174.273H87.9545L85.1364 178.636L87.9545 183H86.4091L84.3182 179.614L82.2273 183H80.6818L83.4545 178.636L80.6818 174.273H82.2273Z" fill="black"/>
<path d="M179.091 188.273C178.864 188.273 178.661 188.254 178.483 188.216C178.305 188.182 178.182 188.148 178.114 188.114L178.455 186.932C178.78 187.015 179.068 187.045 179.318 187.023C179.568 187 179.79 186.888 179.983 186.688C180.18 186.491 180.36 186.17 180.523 185.727L180.773 185.045L177.545 176.273H179L181.409 183.227H181.5L183.909 176.273H185.364L181.659 186.273C181.492 186.723 181.286 187.097 181.04 187.392C180.794 187.691 180.508 187.913 180.182 188.057C179.86 188.201 179.496 188.273 179.091 188.273Z" fill="black"/>
<path d="M87.7955 96.2045C87.2424 96.2045 86.7405 96.1004 86.2898 95.892C85.839 95.6799 85.4811 95.375 85.2159 94.9773C84.9508 94.5758 84.8182 94.0909 84.8182 93.5227C84.8182 93.0227 84.9167 92.6174 85.1136 92.3068C85.3106 91.9924 85.5739 91.7462 85.9034 91.5682C86.233 91.3902 86.5966 91.2576 86.9943 91.1705C87.3958 91.0795 87.7992 91.0076 88.2045 90.9545C88.7348 90.8864 89.1648 90.8352 89.4943 90.8011C89.8277 90.7633 90.0701 90.7008 90.2216 90.6136C90.3769 90.5265 90.4545 90.375 90.4545 90.1591V90.1136C90.4545 89.553 90.3011 89.1174 89.9943 88.8068C89.6913 88.4962 89.2311 88.3409 88.6136 88.3409C87.9735 88.3409 87.4716 88.4811 87.108 88.7614C86.7443 89.0417 86.4886 89.3409 86.3409 89.6591L85.0682 89.2045C85.2955 88.6742 85.5985 88.2614 85.9773 87.9659C86.3598 87.6667 86.7765 87.4583 87.2273 87.3409C87.6818 87.2197 88.1288 87.1591 88.5682 87.1591C88.8485 87.1591 89.1705 87.1932 89.5341 87.2614C89.9015 87.3258 90.2557 87.4602 90.5966 87.6648C90.9413 87.8693 91.2273 88.178 91.4545 88.5909C91.6818 89.0038 91.7955 89.5568 91.7955 90.25V96H90.4545V94.8182H90.3864C90.2955 95.0076 90.1439 95.2102 89.9318 95.4261C89.7197 95.642 89.4375 95.8258 89.0852 95.9773C88.733 96.1288 88.303 96.2045 87.7955 96.2045ZM88 95C88.5303 95 88.9773 94.8958 89.3409 94.6875C89.7083 94.4792 89.9848 94.2102 90.1705 93.8807C90.3598 93.5511 90.4545 93.2045 90.4545 92.8409V91.6136C90.3977 91.6818 90.2727 91.7443 90.0795 91.8011C89.8902 91.8542 89.6705 91.9015 89.4205 91.9432C89.1742 91.9811 88.9337 92.0152 88.6989 92.0455C88.4678 92.072 88.2803 92.0947 88.1364 92.1136C87.7879 92.1591 87.4621 92.233 87.1591 92.3352C86.8598 92.4337 86.6174 92.5833 86.4318 92.7841C86.25 92.9811 86.1591 93.25 86.1591 93.5909C86.1591 94.0568 86.3314 94.4091 86.6761 94.6477C87.0246 94.8826 87.4659 95 88 95Z" fill="black"/>
<path d="M191.409 85V73.3636H192.75V77.6591H192.864C192.962 77.5076 193.098 77.3144 193.273 77.0795C193.451 76.8409 193.705 76.6288 194.034 76.4432C194.367 76.2538 194.818 76.1591 195.386 76.1591C196.121 76.1591 196.769 76.3428 197.33 76.7102C197.89 77.0777 198.328 77.5985 198.642 78.2727C198.956 78.947 199.114 79.7424 199.114 80.6591C199.114 81.5833 198.956 82.3845 198.642 83.0625C198.328 83.7367 197.892 84.2595 197.335 84.6307C196.778 84.9981 196.136 85.1818 195.409 85.1818C194.848 85.1818 194.4 85.089 194.062 84.9034C193.725 84.714 193.466 84.5 193.284 84.2614C193.102 84.0189 192.962 83.8182 192.864 83.6591H192.705V85H191.409ZM192.727 80.6364C192.727 81.2955 192.824 81.8769 193.017 82.3807C193.21 82.8807 193.492 83.2727 193.864 83.5568C194.235 83.8371 194.689 83.9773 195.227 83.9773C195.788 83.9773 196.256 83.8295 196.631 83.5341C197.009 83.2348 197.294 82.8333 197.483 82.3295C197.676 81.822 197.773 81.2576 197.773 80.6364C197.773 80.0227 197.678 79.4697 197.489 78.9773C197.303 78.4811 197.021 78.089 196.642 77.8011C196.267 77.5095 195.795 77.3636 195.227 77.3636C194.682 77.3636 194.223 77.5019 193.852 77.7784C193.481 78.0511 193.201 78.4337 193.011 78.9261C192.822 79.4148 192.727 79.9848 192.727 80.6364Z" fill="black"/>
</g>
<defs>
<clipPath id="clip0_483_2">
<rect width="250" height="200" fill="white"/>
</clipPath>
</defs>
</svg>
