<svg version="1.1" xmlns="http://www.w3.org/2000/svg" xmlns:xlink="http://www.w3.org/1999/xlink" width="1136" height="673"><defs><clipPath id="LriFNwhtEMzM"><path fill="none" stroke="none" d=" M 0 0 L 1136 0 L 1136 673 L 0 673 L 0 0 Z"/></clipPath></defs><g transform="scale(1,1)" clip-path="url(#LriFNwhtEMzM)"><g><rect fill="rgb(255,255,255)" stroke="none" x="0" y="0" width="1136" height="674" fill-opacity="1"/><path fill="none" stroke="rgb(255,0,0)" paint-order="fill stroke markers" d=" M 659.516550207087 333.22451976819934 C 659.516550207087 455.08247079520487 560.7311626947976 553.8678583074943 438.8732116677921 553.8678583074943 C 317.01526064078655 553.8678583074943 218.22987312849716 455.08247079520487 218.22987312849716 333.22451976819934 C 218.22987312849716 211.36656874119382 317.01526064078655 112.58118122890443 438.8732116677921 112.58118122890443 C 560.7311626947976 112.58118122890443 659.516550207087 211.36656874119382 659.516550207087 333.22451976819934 Z" stroke-opacity="0.8" stroke-linecap="round" stroke-linejoin="round" stroke-miterlimit="10" stroke-width="2.5"/><path fill="rgb(0,0,0)" stroke="none" paint-order="stroke fill markers" fill-rule="evenodd" d=" M 554.3807435058848 145.23118762464188 L 535.9460815625353 155.72705533695415 L 546.4419492748469 174.16171728030565 L 564.876611218197 163.66584956799144 L 554.3807435058848 145.23118762464188" fill-opacity="0.09803921568627451"/><path fill="none" stroke="rgb(0,0,0)" paint-order="fill stroke markers" d=" M 554.3807435058848 145.23118762464188 L 535.9460815625353 155.72705533695415 L 546.4419492748469 174.16171728030565 L 564.876611218197 163.66584956799144 L 554.3807435058848 145.23118762464188" stroke-opacity="0.6" stroke-linecap="round" stroke-linejoin="round" stroke-miterlimit="10" stroke-width="2"/><path fill="none" stroke="rgb(97,97,97)" paint-order="fill stroke markers" d=" M 218.25578049665063 336.605629824462 L 659.4906428389336 329.8434097119366" stroke-opacity="0.8" stroke-linecap="round" stroke-linejoin="round" stroke-miterlimit="10" stroke-width="2.5"/><path fill="none" stroke="rgb(97,97,97)" paint-order="fill stroke markers" d=" M 329.74349444475666 322.88471654575056 L 329.03627313044757 344.8085772893324" stroke-opacity="0.8" stroke-linecap="round" stroke-linejoin="round" stroke-miterlimit="10" stroke-width="2.5"/><path fill="none" stroke="rgb(97,97,97)" paint-order="fill stroke markers" d=" M 533.4232329657749 320.0558312885142 L 532.7160116514658 341.2724707177869" stroke-opacity="0.8" stroke-linecap="round" stroke-linejoin="round" stroke-miterlimit="10" stroke-width="2.5"/><path fill="none" stroke="rgb(97,97,97)" paint-order="fill stroke markers" d=" M 218.25578049665063 336.605629824462 L 554.3807435058848 145.23118762464188" stroke-opacity="0.8" stroke-linecap="round" stroke-linejoin="round" stroke-miterlimit="10" stroke-width="2.5"/><path fill="none" stroke="rgb(97,97,97)" paint-order="fill stroke markers" d=" M 554.3807435058848 145.23118762464188 L 659.4906428389336 329.8434097119366" stroke-opacity="0.8" stroke-linecap="round" stroke-linejoin="round" stroke-miterlimit="10" stroke-width="2.5"/><path fill="none" stroke="rgb(97,97,97)" paint-order="fill stroke markers" d=" M 438.8732116677921 333.22451976819934 L 554.3807435058848 145.23118762464188" stroke-opacity="0.8" stroke-linecap="round" stroke-linejoin="round" stroke-miterlimit="10" stroke-width="2.5"/><path fill="none" stroke="rgb(97,97,97)" paint-order="fill stroke markers" d=" M 483.488505638211 247.59153324428326 L 493.82153382989475 255.10646283823505" stroke-opacity="0.8" stroke-linecap="round" stroke-linejoin="round" stroke-miterlimit="10" stroke-width="2.5"/><path fill="rgb(21,101,192)" stroke="none" paint-order="stroke fill markers" d=" M 223.25578049665063 336.605629824462 C 223.25578049665063 339.367053573616 221.0172042458046 341.605629824462 218.25578049665063 341.605629824462 C 215.49435674749665 341.605629824462 213.25578049665063 339.367053573616 213.25578049665063 336.605629824462 C 213.25578049665063 333.8442060753081 215.49435674749665 331.605629824462 218.25578049665063 331.605629824462 C 221.0172042458046 331.605629824462 223.25578049665063 333.8442060753081 223.25578049665063 336.605629824462 Z" fill-opacity="1"/><path fill="none" stroke="rgb(0,0,0)" paint-order="fill stroke markers" d=" M 223.25578049665063 336.605629824462 C 223.25578049665063 339.367053573616 221.0172042458046 341.605629824462 218.25578049665063 341.605629824462 C 215.49435674749665 341.605629824462 213.25578049665063 339.367053573616 213.25578049665063 336.605629824462 C 213.25578049665063 333.8442060753081 215.49435674749665 331.605629824462 218.25578049665063 331.605629824462 C 221.0172042458046 331.605629824462 223.25578049665063 333.8442060753081 223.25578049665063 336.605629824462 Z" stroke-opacity="1" stroke-linecap="round" stroke-linejoin="round" stroke-miterlimit="10"/><text fill="rgb(21,101,192)" stroke="none" font-family="geogebra-sans-serif, sans-serif" font-size="16px" font-style="normal" font-weight="normal" text-decoration="normal" x="222" y="327" text-anchor="start" dominant-baseline="alphabetic" fill-opacity="1">A</text><text fill="none" stroke="rgb(255,255,255)" font-family="geogebra-sans-serif, sans-serif" font-size="16px" font-style="normal" font-weight="normal" text-decoration="normal" x="222" y="327" text-anchor="start" dominant-baseline="alphabetic" stroke-opacity="1" stroke-linejoin="bevel" stroke-miterlimit="10" stroke-width="3">A</text><text fill="rgb(21,101,192)" stroke="none" font-family="geogebra-sans-serif, sans-serif" font-size="16px" font-style="normal" font-weight="normal" text-decoration="normal" x="222" y="327" text-anchor="start" dominant-baseline="alphabetic" fill-opacity="1">A</text><path fill="rgb(21,101,192)" stroke="none" paint-order="stroke fill markers" d=" M 664.4906428389336 329.8434097119366 C 664.4906428389336 332.60483346109055 662.2520665880876 334.8434097119366 659.4906428389336 334.8434097119366 C 656.7292190897796 334.8434097119366 654.4906428389336 332.60483346109055 654.4906428389336 329.8434097119366 C 654.4906428389336 327.08198596278265 656.7292190897796 324.8434097119366 659.4906428389336 324.8434097119366 C 662.2520665880876 324.8434097119366 664.4906428389336 327.08198596278265 664.4906428389336 329.8434097119366 Z" fill-opacity="1"/><path fill="none" stroke="rgb(0,0,0)" paint-order="fill stroke markers" d=" M 664.4906428389336 329.8434097119366 C 664.4906428389336 332.60483346109055 662.2520665880876 334.8434097119366 659.4906428389336 334.8434097119366 C 656.7292190897796 334.8434097119366 654.4906428389336 332.60483346109055 654.4906428389336 329.8434097119366 C 654.4906428389336 327.08198596278265 656.7292190897796 324.8434097119366 659.4906428389336 324.8434097119366 C 662.2520665880876 324.8434097119366 664.4906428389336 327.08198596278265 664.4906428389336 329.8434097119366 Z" stroke-opacity="1" stroke-linecap="round" stroke-linejoin="round" stroke-miterlimit="10"/><text fill="rgb(21,101,192)" stroke="none" font-family="geogebra-sans-serif, sans-serif" font-size="16px" font-style="normal" font-weight="normal" text-decoration="normal" x="663" y="320" text-anchor="start" dominant-baseline="alphabetic" fill-opacity="1">B</text><text fill="none" stroke="rgb(255,255,255)" font-family="geogebra-sans-serif, sans-serif" font-size="16px" font-style="normal" font-weight="normal" text-decoration="normal" x="663" y="320" text-anchor="start" dominant-baseline="alphabetic" stroke-opacity="1" stroke-linejoin="bevel" stroke-miterlimit="10" stroke-width="3">B</text><text fill="rgb(21,101,192)" stroke="none" font-family="geogebra-sans-serif, sans-serif" font-size="16px" font-style="normal" font-weight="normal" text-decoration="normal" x="663" y="320" text-anchor="start" dominant-baseline="alphabetic" fill-opacity="1">B</text><path fill="rgb(97,97,97)" stroke="none" paint-order="stroke fill markers" d=" M 442.8732116677921 333.22451976819934 C 442.8732116677921 335.4336587675225 441.08235066711524 337.22451976819934 438.8732116677921 337.22451976819934 C 436.6640726684689 337.22451976819934 434.8732116677921 335.4336587675225 434.8732116677921 333.22451976819934 C 434.8732116677921 331.0153807688762 436.6640726684689 329.22451976819934 438.8732116677921 329.22451976819934 C 441.08235066711524 329.22451976819934 442.8732116677921 331.0153807688762 442.8732116677921 333.22451976819934 Z" fill-opacity="1"/><path fill="none" stroke="rgb(0,0,0)" paint-order="fill stroke markers" d=" M 442.8732116677921 333.22451976819934 C 442.8732116677921 335.4336587675225 441.08235066711524 337.22451976819934 438.8732116677921 337.22451976819934 C 436.6640726684689 337.22451976819934 434.8732116677921 335.4336587675225 434.8732116677921 333.22451976819934 C 434.8732116677921 331.0153807688762 436.6640726684689 329.22451976819934 438.8732116677921 329.22451976819934 C 441.08235066711524 329.22451976819934 442.8732116677921 331.0153807688762 442.8732116677921 333.22451976819934 Z" stroke-opacity="1" stroke-linecap="round" stroke-linejoin="round" stroke-miterlimit="10"/><text fill="rgb(97,97,97)" stroke="none" font-family="geogebra-sans-serif, sans-serif" font-size="16px" font-style="normal" font-weight="normal" text-decoration="normal" x="443" y="325" text-anchor="start" dominant-baseline="alphabetic" fill-opacity="1">M</text><text fill="none" stroke="rgb(255,255,255)" font-family="geogebra-sans-serif, sans-serif" font-size="16px" font-style="normal" font-weight="normal" text-decoration="normal" x="443" y="325" text-anchor="start" dominant-baseline="alphabetic" stroke-opacity="1" stroke-linejoin="bevel" stroke-miterlimit="10" stroke-width="3">M</text><text fill="rgb(97,97,97)" stroke="none" font-family="geogebra-sans-serif, sans-serif" font-size="16px" font-style="normal" font-weight="normal" text-decoration="normal" x="443" y="325" text-anchor="start" dominant-baseline="alphabetic" fill-opacity="1">M</text><path fill="rgb(21,101,192)" stroke="none" paint-order="stroke fill markers" d=" M 559.3807435058848 145.23118762464188 C 559.3807435058848 147.99261137379585 557.1421672550388 150.23118762464188 554.3807435058848 150.23118762464188 C 551.6193197567308 150.23118762464188 549.3807435058848 147.99261137379585 549.3807435058848 145.23118762464188 C 549.3807435058848 142.4697638754879 551.6193197567308 140.23118762464188 554.3807435058848 140.23118762464188 C 557.1421672550388 140.23118762464188 559.3807435058848 142.4697638754879 559.3807435058848 145.23118762464188 Z" fill-opacity="1"/><path fill="none" stroke="rgb(0,0,0)" paint-order="fill stroke markers" d=" M 559.3807435058848 145.23118762464188 C 559.3807435058848 147.99261137379585 557.1421672550388 150.23118762464188 554.3807435058848 150.23118762464188 C 551.6193197567308 150.23118762464188 549.3807435058848 147.99261137379585 549.3807435058848 145.23118762464188 C 549.3807435058848 142.4697638754879 551.6193197567308 140.23118762464188 554.3807435058848 140.23118762464188 C 557.1421672550388 140.23118762464188 559.3807435058848 142.4697638754879 559.3807435058848 145.23118762464188 Z" stroke-opacity="1" stroke-linecap="round" stroke-linejoin="round" stroke-miterlimit="10"/><text fill="rgb(21,101,192)" stroke="none" font-family="geogebra-sans-serif, sans-serif" font-size="16px" font-style="normal" font-weight="normal" text-decoration="normal" x="558" y="135" text-anchor="start" dominant-baseline="alphabetic" fill-opacity="1">C</text><text fill="none" stroke="rgb(255,255,255)" font-family="geogebra-sans-serif, sans-serif" font-size="16px" font-style="normal" font-weight="normal" text-decoration="normal" x="558" y="135" text-anchor="start" dominant-baseline="alphabetic" stroke-opacity="1" stroke-linejoin="bevel" stroke-miterlimit="10" stroke-width="3">C</text><text fill="rgb(21,101,192)" stroke="none" font-family="geogebra-sans-serif, sans-serif" font-size="16px" font-style="normal" font-weight="normal" text-decoration="normal" x="558" y="135" text-anchor="start" dominant-baseline="alphabetic" fill-opacity="1">C</text></g></g></svg>